G04 --- HEADER BEGIN --- *
G04 #@! TF.GenerationSoftware,LibrePCB,LibrePCB,1.1.0*
G04 #@! TF.CreationDate,2024-09-08T17:15:58*
G04 #@! TF.ProjectId,flasher,f4b07f79-14a2-4070-9d7d-1f686dcb10c4,v1*
G04 #@! TF.Part,Single*
G04 #@! TF.SameCoordinates*
G04 #@! TF.FileFunction,Legend,Bot*
G04 #@! TF.FilePolarity,Positive*
%FSLAX66Y66*%
%MOMM*%
G01*
G75*
G04 --- HEADER END --- *
G04 --- APERTURE LIST BEGIN --- *
%ADD10C,0.25*%
%ADD11C,0.1*%
%ADD12C,0.15*%
%ADD13C,0.2*%
%ADD14C,0.01*%
%ADD15C,0.02*%
%ADD16C,0.05*%
%AMROUNDEDRECT17*20,1,1.15,-0.625,0.0,0.625,0.0,90.0*20,1,0.95,-0.725,0.0,0.725,0.0,90.0*1,1,0.2,-0.475,-0.625*1,1,0.2,-0.475,0.625*1,1,0.2,0.475,0.625*1,1,0.2,0.475,-0.625*%
%ADD17ROUNDEDRECT17*%
%AMROUNDEDRECT18*20,1,0.6,-0.25,0.0,0.25,0.0,90.0*20,1,0.4,-0.35,0.0,0.35,0.0,90.0*1,1,0.2,-0.2,-0.25*1,1,0.2,-0.2,0.25*1,1,0.2,0.2,0.25*1,1,0.2,0.2,-0.25*%
%ADD18ROUNDEDRECT18*%
%AMROUNDEDRECT19*20,1,0.7,-0.35,0.0,0.35,0.0,90.0*20,1,0.5,-0.45,0.0,0.45,0.0,90.0*1,1,0.2,-0.25,-0.35*1,1,0.2,-0.25,0.35*1,1,0.2,0.25,0.35*1,1,0.2,0.25,-0.35*%
%ADD19ROUNDEDRECT19*%
%AMROUNDEDRECT20*20,1,0.65,-0.525,0.0,0.525,0.0,0.0*20,1,0.45,-0.625,0.0,0.625,0.0,0.0*1,1,0.2,-0.525,0.225*1,1,0.2,0.525,0.225*1,1,0.2,0.525,-0.225*1,1,0.2,-0.525,-0.225*%
%ADD20ROUNDEDRECT20*%
%AMROUNDEDRECT21*20,1,2.94,-2.375,0.0,2.375,0.0,90.0*20,1,2.74,-2.475,0.0,2.475,0.0,90.0*1,1,0.2,-1.37,-2.375*1,1,0.2,-1.37,2.375*1,1,0.2,1.37,2.375*1,1,0.2,1.37,-2.375*%
%ADD21ROUNDEDRECT21*%
%ADD22O,2.39X1.787*%
%AMROUNDEDRECT23*20,1,1.787,-1.095,0.0,1.095,0.0,0.0*20,1,1.587,-1.195,0.0,1.195,0.0,0.0*1,1,0.2,-1.095,0.7935*1,1,0.2,1.095,0.7935*1,1,0.2,1.095,-0.7935*1,1,0.2,-1.095,-0.7935*%
%ADD23ROUNDEDRECT23*%
%AMROUNDEDRECT24*20,1,0.6,-0.25,0.0,0.25,0.0,0.0*20,1,0.4,-0.35,0.0,0.35,0.0,0.0*1,1,0.2,-0.25,0.2*1,1,0.2,0.25,0.2*1,1,0.2,0.25,-0.2*1,1,0.2,-0.25,-0.2*%
%ADD24ROUNDEDRECT24*%
%AMROUNDEDRECT25*20,1,1.15,-0.625,0.0,0.625,0.0,0.0*20,1,0.95,-0.725,0.0,0.725,0.0,0.0*1,1,0.2,-0.625,0.475*1,1,0.2,0.625,0.475*1,1,0.2,0.625,-0.475*1,1,0.2,-0.625,-0.475*%
%ADD25ROUNDEDRECT25*%
%AMROUNDEDRECT26*20,1,1.15,-1.0,0.0,1.0,0.0,0.0*20,1,0.95,-1.1,0.0,1.1,0.0,0.0*1,1,0.2,-1.0,0.475*1,1,0.2,1.0,0.475*1,1,0.2,1.0,-0.475*1,1,0.2,-1.0,-0.475*%
%ADD26ROUNDEDRECT26*%
%AMROUNDEDRECT27*20,1,0.62,-0.4445,0.0,0.4445,0.0,0.0*20,1,0.42,-0.5445,0.0,0.5445,0.0,0.0*1,1,0.2,-0.4445,0.21*1,1,0.2,0.4445,0.21*1,1,0.2,0.4445,-0.21*1,1,0.2,-0.4445,-0.21*%
%ADD27ROUNDEDRECT27*%
%AMROUNDEDRECT28*20,1,1.88,-0.94,0.0,0.94,0.0,90.0*20,1,1.68,-1.04,0.0,1.04,0.0,90.0*1,1,0.2,-0.84,-0.94*1,1,0.2,-0.84,0.94*1,1,0.2,0.84,0.94*1,1,0.2,0.84,-0.94*%
%ADD28ROUNDEDRECT28*%
%AMROUNDEDRECT29*20,1,0.95,-0.4,0.0,0.4,0.0,0.0*20,1,0.75,-0.5,0.0,0.5,0.0,0.0*1,1,0.2,-0.4,0.375*1,1,0.2,0.4,0.375*1,1,0.2,0.4,-0.375*1,1,0.2,-0.4,-0.375*%
%ADD29ROUNDEDRECT29*%
%AMROUNDEDRECT30*20,1,0.9,-0.4,0.0,0.4,0.0,0.0*20,1,0.7,-0.5,0.0,0.5,0.0,0.0*1,1,0.2,-0.4,0.35*1,1,0.2,0.4,0.35*1,1,0.2,0.4,-0.35*1,1,0.2,-0.4,-0.35*%
%ADD30ROUNDEDRECT30*%
%AMOUTLINE31*4,1,13,-0.409327,-0.4805,-0.45,-0.4,-0.45,0.4,-0.4305,0.459327,-0.35,0.5,0.125,0.5,0.195711,0.470711,0.420711,0.245711,0.45,0.175,0.45,-0.4,0.4305,-0.459327,0.35,-0.5,-0.35,-0.5,-0.409327,-0.4805,270.0*%
%ADD31OUTLINE31*%
%AMROUNDEDRECT32*20,1,0.95,-0.4,0.0,0.4,0.0,90.0*20,1,0.75,-0.5,0.0,0.5,0.0,90.0*1,1,0.2,-0.375,-0.4*1,1,0.2,-0.375,0.4*1,1,0.2,0.375,0.4*1,1,0.2,0.375,-0.4*%
%ADD32ROUNDEDRECT32*%
%AMROUNDEDRECT33*20,1,0.4,-0.1,0.0,0.1,0.0,0.0*20,1,0.2,-0.2,0.0,0.2,0.0,0.0*1,1,0.2,-0.1,0.1*1,1,0.2,0.1,0.1*1,1,0.2,0.1,-0.1*1,1,0.2,-0.1,-0.1*%
%ADD33ROUNDEDRECT33*%
%AMROUNDEDRECT34*20,1,1.0,-0.425,0.0,0.425,0.0,0.0*20,1,0.8,-0.525,0.0,0.525,0.0,0.0*1,1,0.2,-0.425,0.4*1,1,0.2,0.425,0.4*1,1,0.2,0.425,-0.4*1,1,0.2,-0.425,-0.4*%
%ADD34ROUNDEDRECT34*%
%AMROUNDEDRECT35*20,1,1.0,-0.425,0.0,0.425,0.0,90.0*20,1,0.8,-0.525,0.0,0.525,0.0,90.0*1,1,0.2,-0.4,-0.425*1,1,0.2,-0.4,0.425*1,1,0.2,0.4,0.425*1,1,0.2,0.4,-0.425*%
%ADD35ROUNDEDRECT35*%
%AMROUNDEDRECT36*20,1,0.95,-0.625,0.0,0.625,0.0,0.0*20,1,0.75,-0.725,0.0,0.725,0.0,0.0*1,1,0.2,-0.625,0.375*1,1,0.2,0.625,0.375*1,1,0.2,0.625,-0.375*1,1,0.2,-0.625,-0.375*%
%ADD36ROUNDEDRECT36*%
%ADD37O,1.787X2.39*%
%AMROUNDEDRECT38*20,1,1.787,-1.095,0.0,1.095,0.0,90.0*20,1,1.587,-1.195,0.0,1.195,0.0,90.0*1,1,0.2,-0.7935,-1.095*1,1,0.2,-0.7935,1.095*1,1,0.2,0.7935,1.095*1,1,0.2,0.7935,-1.095*%
%ADD38ROUNDEDRECT38*%
%AMROUNDEDRECT39*20,1,1.5,-1.2,0.0,1.2,0.0,90.0*20,1,1.3,-1.3,0.0,1.3,0.0,90.0*1,1,0.2,-0.65,-1.2*1,1,0.2,-0.65,1.2*1,1,0.2,0.65,1.2*1,1,0.2,0.65,-1.2*%
%ADD39ROUNDEDRECT39*%
%AMROUNDEDRECT40*20,1,0.76,-0.475,0.0,0.475,0.0,90.0*20,1,0.56,-0.575,0.0,0.575,0.0,90.0*1,1,0.2,-0.28,-0.475*1,1,0.2,-0.28,0.475*1,1,0.2,0.28,0.475*1,1,0.2,0.28,-0.475*%
%ADD40ROUNDEDRECT40*%
%ADD41C,5.2*%
G04 --- APERTURE LIST END --- *
G04 --- BOARD BEGIN --- *
D10*
G04 #@! TO.C,C66*
X14847000Y-13964000D02*
X15097000Y-13964000D01*
X14847000Y-12464000D02*
X15097000Y-12464000D01*
D11*
G04 #@! TO.C,XTAL2*
X7517000Y1802000D02*
X10417000Y1802000D01*
X10417000Y3302000D01*
X7517000Y3302000D01*
X7517000Y1802000D01*
G04 #@! TO.C,VREG1*
X-10430028Y950000D02*
X-14830028Y950000D01*
X-14830028Y-8750000D01*
X-10430028Y-8750000D01*
X-10430028Y950000D01*
D10*
G04 #@! TO.C,C24*
X-7050000Y11625000D02*
X-7050000Y11375000D01*
X-5550000Y11625000D02*
X-5550000Y11375000D01*
G04 #@! TO.C,L4*
X-13223000Y3986000D02*
X-13223000Y4736000D01*
X-10973000Y3986000D02*
X-10973000Y4736000D01*
D11*
G04 #@! TO.C,VREG2*
X-6263028Y5526000D02*
X-7943028Y5526000D01*
X-7943028Y3646000D01*
X-6263028Y3646000D01*
X-6263028Y5526000D01*
D12*
G04 #@! TO.C,R10*
X-18425000Y-7475000D02*
X-18425000Y-7825000D01*
X-19375000Y-7475000D02*
X-19375000Y-7825000D01*
D11*
G04 #@! TO.C,OSC1*
X8575000Y8899000D02*
X6075000Y8899000D01*
X6075000Y6899000D01*
X8575000Y6899000D01*
X8575000Y8899000D01*
D13*
X9297195Y6844000D02*
G02*
X9112805Y6844000I-92195J0D01*
G01*
G02*
X9297195Y6844000I92195J0D01*
G01*
D10*
G04 #@! TO.C,L2*
X-6375000Y-8025000D02*
X-6375000Y-8775000D01*
X-8625000Y-8025000D02*
X-8625000Y-8775000D01*
G04 #@! TO.C,C18*
X-13250000Y-13375000D02*
X-13250000Y-13625000D01*
X-11750000Y-13375000D02*
X-11750000Y-13625000D01*
D12*
G04 #@! TO.C,R18*
X-4107000Y9715000D02*
X-3757000Y9715000D01*
X-4107000Y8765000D02*
X-3757000Y8765000D01*
G04 #@! TO.C,R14*
X-17605000Y4349000D02*
X-17955000Y4349000D01*
X-17605000Y5299000D02*
X-17955000Y5299000D01*
G04 #@! TO.C,R4*
X-19035000Y-5005000D02*
X-19035000Y-4655000D01*
X-18085000Y-5005000D02*
X-18085000Y-4655000D01*
G04 #@! TO.C,R7*
X-13210000Y-10575000D02*
X-13210000Y-10225000D01*
X-12260000Y-10575000D02*
X-12260000Y-10225000D01*
G04 #@! TO.C,C22*
X-17870000Y6860000D02*
X-17720000Y6860000D01*
X-17870000Y5910000D02*
X-17720000Y5910000D01*
G04 #@! TO.C,R11*
X-15998000Y-11531000D02*
X-16348000Y-11531000D01*
X-15998000Y-10581000D02*
X-16348000Y-10581000D01*
G04 #@! TO.C,C36*
X-19195000Y-10727972D02*
X-19195000Y-10877972D01*
X-20145000Y-10727972D02*
X-20145000Y-10877972D01*
D10*
G04 #@! TO.C,C34*
X-22020000Y-10878000D02*
X-22020000Y-11128000D01*
X-20520000Y-10878000D02*
X-20520000Y-11128000D01*
D12*
G04 #@! TO.C,C15*
X-4675000Y-6475000D02*
X-4675000Y-6325000D01*
X-3725000Y-6475000D02*
X-3725000Y-6325000D01*
D10*
G04 #@! TO.C,C25*
X-5250000Y11625000D02*
X-5250000Y11375000D01*
X-3750000Y11625000D02*
X-3750000Y11375000D01*
D12*
G04 #@! TO.C,C21*
X-6075000Y-1875000D02*
X-6075000Y-1725000D01*
X-5125000Y-1875000D02*
X-5125000Y-1725000D01*
G04 #@! TO.C,R3*
X-19459000Y-4655000D02*
X-19459000Y-5005000D01*
X-20409000Y-4655000D02*
X-20409000Y-5005000D01*
G04 #@! TO.C,R12*
X-16348000Y-11912000D02*
X-15998000Y-11912000D01*
X-16348000Y-12862000D02*
X-15998000Y-12862000D01*
G04 #@! TO.C,C9*
X-7925000Y-4725000D02*
X-7925000Y-4875000D01*
X-8875000Y-4725000D02*
X-8875000Y-4875000D01*
G04 #@! TO.C,C30*
X-14738000Y4986000D02*
X-14888000Y4986000D01*
X-14738000Y5936000D02*
X-14888000Y5936000D01*
G04 #@! TO.C,R5*
X-6675000Y-3325000D02*
X-6325000Y-3325000D01*
X-6675000Y-4275000D02*
X-6325000Y-4275000D01*
G04 #@! TO.C,R8*
X-17675000Y-5005000D02*
X-17675000Y-4655000D01*
X-16725000Y-5005000D02*
X-16725000Y-4655000D01*
G04 #@! TO.C,R19*
X-5903000Y8395000D02*
X-5553000Y8395000D01*
X-5903000Y7445000D02*
X-5553000Y7445000D01*
G04 #@! TO.C,C20*
X-8025000Y-13425000D02*
X-8025000Y-13575000D01*
X-8975000Y-13425000D02*
X-8975000Y-13575000D01*
G04 #@! TO.C,C16*
X-16177000Y-13239000D02*
X-16027000Y-13239000D01*
X-16177000Y-14189000D02*
X-16027000Y-14189000D01*
G04 #@! TO.C,C39*
X10375000Y9599000D02*
X10525000Y9599000D01*
X10375000Y8649000D02*
X10525000Y8649000D01*
D10*
G04 #@! TO.C,C49*
X6575000Y-6226000D02*
X6825000Y-6226000D01*
X6575000Y-4726000D02*
X6825000Y-4726000D01*
D12*
G04 #@! TO.C,C28*
X-6413000Y-5166000D02*
X-6263000Y-5166000D01*
X-6413000Y-6116000D02*
X-6263000Y-6116000D01*
G04 #@! TO.C,R21*
X-20850000Y-3125000D02*
X-21200000Y-3125000D01*
X-20850000Y-2175000D02*
X-21200000Y-2175000D01*
D10*
G04 #@! TO.C,R27*
X10915000Y6374000D02*
X10915000Y7024000D01*
X12415000Y6374000D02*
X12415000Y7024000D01*
G04 #@! TO.C,C8*
X3125000Y5750000D02*
X2875000Y5750000D01*
X3125000Y4250000D02*
X2875000Y4250000D01*
D12*
G04 #@! TO.C,C11*
X-18775000Y-1825000D02*
X-18775000Y-1675000D01*
X-17825000Y-1825000D02*
X-17825000Y-1675000D01*
G04 #@! TO.C,C95*
X-20925000Y-4755000D02*
X-20925000Y-4905000D01*
X-21875000Y-4755000D02*
X-21875000Y-4905000D01*
G04 #@! TO.C,C27*
X-7743000Y-2014000D02*
X-7593000Y-2014000D01*
X-7743000Y-2964000D02*
X-7593000Y-2964000D01*
D10*
G04 #@! TO.C,C19*
X-11250000Y-13375000D02*
X-11250000Y-13625000D01*
X-9750000Y-13375000D02*
X-9750000Y-13625000D01*
D12*
G04 #@! TO.C,C17*
X-16127000Y-10198000D02*
X-16277000Y-10198000D01*
X-16127000Y-9248000D02*
X-16277000Y-9248000D01*
D10*
G04 #@! TO.C,C80*
X1975000Y-9375000D02*
X-1775000Y-9375000D01*
X1975000Y-12625000D02*
X-1775000Y-12625000D01*
D12*
G04 #@! TO.C,C35*
X-17795000Y-10728000D02*
X-17795000Y-10878000D01*
X-18745000Y-10728000D02*
X-18745000Y-10878000D01*
D10*
G04 #@! TO.C,L3*
X-8625000Y-275000D02*
X-8625000Y475000D01*
X-6375000Y-275000D02*
X-6375000Y475000D01*
G04 #@! TO.C,C103*
X-10525000Y-11350000D02*
X-10275000Y-11350000D01*
X-10525000Y-9850000D02*
X-10275000Y-9850000D01*
D12*
G04 #@! TO.C,R13*
X-15055000Y4210000D02*
X-14705000Y4210000D01*
X-15055000Y3260000D02*
X-14705000Y3260000D01*
D11*
G04 #@! TO.C,T3*
X-22686000Y1067028D02*
X-22686000Y-232972D01*
X-19786000Y-232972D01*
X-19786000Y1067028D01*
X-22686000Y1067028D01*
D10*
G04 #@! TO.C,C73*
X2901000Y2263000D02*
X3151000Y2263000D01*
X2901000Y3763000D02*
X3151000Y3763000D01*
D12*
G04 #@! TO.C,C26*
X-2225000Y11575000D02*
X-2225000Y11425000D01*
X-3175000Y11575000D02*
X-3175000Y11425000D01*
G04 #@! TO.C,C10*
X-17525000Y325000D02*
X-17675000Y325000D01*
X-17525000Y1275000D02*
X-17675000Y1275000D01*
G04 #@! TO.C,R9*
X-17375000Y-1897000D02*
X-17375000Y-1547000D01*
X-16425000Y-1897000D02*
X-16425000Y-1547000D01*
D13*
G04 #@! TD*
X14580833Y1102000D02*
X14580833Y2602000D01*
X13724166Y1102000D01*
X13724166Y2602000D01*
X13152499Y2458667D02*
X13080833Y2530333D01*
X12939166Y2602000D01*
X12580833Y2602000D01*
X12439166Y2530333D01*
X12367499Y2458667D01*
X12295833Y2317000D01*
X12295833Y2173667D01*
X12367499Y1958667D01*
X13224166Y1102000D01*
X12295833Y1102000D01*
X10939166Y1102000D02*
X11795833Y1102000D01*
X11367500Y1102000D02*
X11367500Y2602000D01*
X11510833Y2387000D01*
X11652500Y2245333D01*
X11795833Y2173667D01*
X7992000Y10152000D02*
X7492000Y10152000D01*
X7277000Y9367000D02*
X7992000Y9367000D01*
X7992000Y10867000D01*
X7277000Y10867000D01*
X6705333Y10723667D02*
X6633667Y10795333D01*
X6492000Y10867000D01*
X6133667Y10867000D01*
X5992000Y10795333D01*
X5920333Y10723667D01*
X5848667Y10582000D01*
X5848667Y10438667D01*
X5920333Y10223667D01*
X6777000Y9367000D01*
X5848667Y9367000D01*
X4992000Y10867000D02*
X4848667Y10867000D01*
X4705334Y10795333D01*
X4633667Y10723667D01*
X4563667Y10582000D01*
X4492000Y10295333D01*
X4492000Y9938667D01*
X4563667Y9652000D01*
X4633667Y9510333D01*
X4705334Y9438667D01*
X4848667Y9367000D01*
X4992000Y9367000D01*
X5133667Y9438667D01*
X5205334Y9510333D01*
X5277000Y9652000D01*
X5348667Y9938667D01*
X5348667Y10295333D01*
X5277000Y10582000D01*
X5205334Y10723667D01*
X5133667Y10795333D01*
X4992000Y10867000D01*
D14*
G04 #@! TO.C,C66*
X15028166Y-14229444D02*
X15032944Y-14234222D01*
X15047166Y-14239000D01*
X15056722Y-14239000D01*
X15071055Y-14234222D01*
X15080499Y-14224667D01*
X15085277Y-14215222D01*
X15090055Y-14196111D01*
X15090055Y-14181889D01*
X15085277Y-14162778D01*
X15080499Y-14153333D01*
X15071055Y-14143778D01*
X15056722Y-14139000D01*
X15047166Y-14139000D01*
X15032944Y-14143778D01*
X15028166Y-14148556D01*
X14950499Y-14139000D02*
X14969610Y-14139000D01*
X14979166Y-14143778D01*
X14983833Y-14148556D01*
X14993388Y-14162778D01*
X14998166Y-14181889D01*
X14998166Y-14220000D01*
X14993388Y-14229444D01*
X14988610Y-14234222D01*
X14979166Y-14239000D01*
X14960055Y-14239000D01*
X14950499Y-14234222D01*
X14945833Y-14229444D01*
X14941055Y-14220000D01*
X14941055Y-14196111D01*
X14945833Y-14186667D01*
X14950499Y-14181889D01*
X14960055Y-14177111D01*
X14979166Y-14177111D01*
X14988610Y-14181889D01*
X14993388Y-14186667D01*
X14998166Y-14196111D01*
X14863388Y-14139000D02*
X14882499Y-14139000D01*
X14892055Y-14143778D01*
X14896722Y-14148556D01*
X14906277Y-14162778D01*
X14911055Y-14181889D01*
X14911055Y-14220000D01*
X14906277Y-14229444D01*
X14901499Y-14234222D01*
X14892055Y-14239000D01*
X14872944Y-14239000D01*
X14863388Y-14234222D01*
X14858722Y-14229444D01*
X14853944Y-14220000D01*
X14853944Y-14196111D01*
X14858722Y-14186667D01*
X14863388Y-14181889D01*
X14872944Y-14177111D01*
X14892055Y-14177111D01*
X14901499Y-14181889D01*
X14906277Y-14186667D01*
X14911055Y-14196111D01*
G04 #@! TO.C,C43*
X-1838056Y-4916444D02*
X-1833278Y-4921222D01*
X-1819056Y-4926000D01*
X-1809500Y-4926000D01*
X-1795167Y-4921222D01*
X-1785723Y-4911667D01*
X-1780945Y-4902222D01*
X-1776167Y-4883111D01*
X-1776167Y-4868889D01*
X-1780945Y-4849778D01*
X-1785723Y-4840333D01*
X-1795167Y-4830778D01*
X-1809500Y-4826000D01*
X-1819056Y-4826000D01*
X-1833278Y-4830778D01*
X-1838056Y-4835556D01*
X-1915723Y-4859333D02*
X-1915723Y-4926000D01*
X-1891834Y-4821222D02*
X-1868056Y-4892667D01*
X-1929945Y-4892667D01*
X-1959945Y-4826000D02*
X-2021834Y-4826000D01*
X-1988501Y-4864111D01*
X-2002834Y-4864111D01*
X-2012278Y-4868889D01*
X-2017056Y-4873667D01*
X-2021834Y-4883111D01*
X-2021834Y-4907000D01*
X-2017056Y-4916444D01*
X-2012278Y-4921222D01*
X-2002834Y-4926000D01*
X-1974278Y-4926000D01*
X-1964723Y-4921222D01*
X-1959945Y-4916444D01*
G04 #@! TO.C,C44*
X-3839056Y-4115444D02*
X-3834278Y-4120222D01*
X-3820056Y-4125000D01*
X-3810500Y-4125000D01*
X-3796167Y-4120222D01*
X-3786723Y-4110667D01*
X-3781945Y-4101222D01*
X-3777167Y-4082111D01*
X-3777167Y-4067889D01*
X-3781945Y-4048778D01*
X-3786723Y-4039333D01*
X-3796167Y-4029778D01*
X-3810500Y-4025000D01*
X-3820056Y-4025000D01*
X-3834278Y-4029778D01*
X-3839056Y-4034556D01*
X-3916723Y-4058333D02*
X-3916723Y-4125000D01*
X-3892834Y-4020222D02*
X-3869056Y-4091667D01*
X-3930945Y-4091667D01*
X-4008612Y-4058333D02*
X-4008612Y-4125000D01*
X-3984723Y-4020222D02*
X-3960945Y-4091667D01*
X-4022834Y-4091667D01*
G04 #@! TO.C,XTAL2*
X9147000Y1502000D02*
X9080333Y1402000D01*
X9080333Y1502000D02*
X9147000Y1402000D01*
X9050333Y1502000D02*
X8993222Y1502000D01*
X9021777Y1402000D02*
X9021777Y1502000D01*
X8953666Y1430556D02*
X8906111Y1430556D01*
X8963222Y1402000D02*
X8929889Y1502000D01*
X8896555Y1402000D01*
X8818888Y1402000D02*
X8866555Y1402000D01*
X8866555Y1502000D01*
X8784110Y1492444D02*
X8779332Y1497222D01*
X8769888Y1502000D01*
X8745999Y1502000D01*
X8736555Y1497222D01*
X8731777Y1492444D01*
X8726999Y1483000D01*
X8726999Y1473444D01*
X8731777Y1459111D01*
X8788888Y1402000D01*
X8726999Y1402000D01*
G04 #@! TO.C,C71*
X-39056Y-5920444D02*
X-34278Y-5925222D01*
X-20056Y-5930000D01*
X-10500Y-5930000D01*
X3833Y-5925222D01*
X13277Y-5915667D01*
X18055Y-5906222D01*
X22833Y-5887111D01*
X22833Y-5872889D01*
X18055Y-5853778D01*
X13277Y-5844333D01*
X3833Y-5834778D01*
X-10500Y-5830000D01*
X-20056Y-5830000D01*
X-34278Y-5834778D01*
X-39056Y-5839556D01*
X-69056Y-5830000D02*
X-135723Y-5830000D01*
X-92834Y-5930000D01*
X-222834Y-5930000D02*
X-165723Y-5930000D01*
X-194279Y-5930000D02*
X-194279Y-5830000D01*
X-184723Y-5844333D01*
X-175279Y-5853778D01*
X-165723Y-5858556D01*
D13*
G04 #@! TO.C,VREG1*
X-18567806Y-16540000D02*
X-18901139Y-17540000D01*
X-19234473Y-16540000D01*
X-20205584Y-17540000D02*
X-19872251Y-17063333D01*
X-19634473Y-17540000D02*
X-19634473Y-16540000D01*
X-20015584Y-16540000D01*
X-20111140Y-16587778D01*
X-20157806Y-16635556D01*
X-20205584Y-16730000D01*
X-20205584Y-16873333D01*
X-20157806Y-16968889D01*
X-20111140Y-17016667D01*
X-20015584Y-17063333D01*
X-19634473Y-17063333D01*
X-20605584Y-17016667D02*
X-20938917Y-17016667D01*
X-21082251Y-17540000D02*
X-20605584Y-17540000D01*
X-20605584Y-16540000D01*
X-21082251Y-16540000D01*
X-22053362Y-16587778D02*
X-21958918Y-16540000D01*
X-21815584Y-16540000D01*
X-21672251Y-16587778D01*
X-21577807Y-16683333D01*
X-21530029Y-16777778D01*
X-21482251Y-16968889D01*
X-21482251Y-17111111D01*
X-21530029Y-17302222D01*
X-21577807Y-17396667D01*
X-21672251Y-17492222D01*
X-21815584Y-17540000D01*
X-21911140Y-17540000D01*
X-22053362Y-17492222D01*
X-22101140Y-17444444D01*
X-22101140Y-17111111D01*
X-21911140Y-17111111D01*
X-23072251Y-17540000D02*
X-22501140Y-17540000D01*
X-22786696Y-17540000D02*
X-22786696Y-16540000D01*
X-22691140Y-16683333D01*
X-22596696Y-16777778D01*
X-22501140Y-16825556D01*
D14*
G04 #@! TO.C,C59*
X-11842834Y9881556D02*
X-11838056Y9876778D01*
X-11823834Y9872000D01*
X-11814278Y9872000D01*
X-11799945Y9876778D01*
X-11790501Y9886333D01*
X-11785723Y9895778D01*
X-11780945Y9914889D01*
X-11780945Y9929111D01*
X-11785723Y9948222D01*
X-11790501Y9957667D01*
X-11799945Y9967222D01*
X-11814278Y9972000D01*
X-11823834Y9972000D01*
X-11838056Y9967222D01*
X-11842834Y9962444D01*
X-11925167Y9972000D02*
X-11877612Y9972000D01*
X-11872834Y9924333D01*
X-11877612Y9929111D01*
X-11887167Y9933889D01*
X-11910945Y9933889D01*
X-11920501Y9929111D01*
X-11925167Y9924333D01*
X-11929945Y9914889D01*
X-11929945Y9891000D01*
X-11925167Y9881556D01*
X-11920501Y9876778D01*
X-11910945Y9872000D01*
X-11887167Y9872000D01*
X-11877612Y9876778D01*
X-11872834Y9881556D01*
X-11969501Y9872000D02*
X-11988501Y9872000D01*
X-11998056Y9876778D01*
X-12002834Y9881556D01*
X-12012278Y9895778D01*
X-12017056Y9914889D01*
X-12017056Y9953000D01*
X-12012278Y9962444D01*
X-12007612Y9967222D01*
X-11998056Y9972000D01*
X-11978945Y9972000D01*
X-11969501Y9967222D01*
X-11964723Y9962444D01*
X-11959945Y9953000D01*
X-11959945Y9929111D01*
X-11964723Y9919667D01*
X-11969501Y9914889D01*
X-11978945Y9910111D01*
X-11998056Y9910111D01*
X-12007612Y9914889D01*
X-12012278Y9919667D01*
X-12017056Y9929111D01*
G04 #@! TO.C,C6*
X3939444Y-5062389D02*
X3944222Y-5057611D01*
X3949000Y-5043389D01*
X3949000Y-5033833D01*
X3944222Y-5019500D01*
X3934667Y-5010056D01*
X3925222Y-5005278D01*
X3906111Y-5000500D01*
X3891889Y-5000500D01*
X3872778Y-5005278D01*
X3863333Y-5010056D01*
X3853778Y-5019500D01*
X3849000Y-5033833D01*
X3849000Y-5043389D01*
X3853778Y-5057611D01*
X3858556Y-5062389D01*
X3849000Y-5140056D02*
X3849000Y-5120945D01*
X3853778Y-5111389D01*
X3858556Y-5106722D01*
X3872778Y-5097167D01*
X3891889Y-5092389D01*
X3930000Y-5092389D01*
X3939444Y-5097167D01*
X3944222Y-5101945D01*
X3949000Y-5111389D01*
X3949000Y-5130500D01*
X3944222Y-5140056D01*
X3939444Y-5144722D01*
X3930000Y-5149500D01*
X3906111Y-5149500D01*
X3896667Y-5144722D01*
X3891889Y-5140056D01*
X3887111Y-5130500D01*
X3887111Y-5111389D01*
X3891889Y-5101945D01*
X3896667Y-5097167D01*
X3906111Y-5092389D01*
G04 #@! TO.C,C24*
X-7234556Y11560944D02*
X-7229778Y11565722D01*
X-7225000Y11579944D01*
X-7225000Y11589500D01*
X-7229778Y11603833D01*
X-7239333Y11613277D01*
X-7248778Y11618055D01*
X-7267889Y11622833D01*
X-7282111Y11622833D01*
X-7301222Y11618055D01*
X-7310667Y11613277D01*
X-7320222Y11603833D01*
X-7325000Y11589500D01*
X-7325000Y11579944D01*
X-7320222Y11565722D01*
X-7315444Y11560944D01*
X-7315444Y11526166D02*
X-7320222Y11521388D01*
X-7325000Y11511944D01*
X-7325000Y11488055D01*
X-7320222Y11478611D01*
X-7315444Y11473833D01*
X-7306000Y11469055D01*
X-7296444Y11469055D01*
X-7282111Y11473833D01*
X-7225000Y11530944D01*
X-7225000Y11469055D01*
X-7291667Y11391388D02*
X-7225000Y11391388D01*
X-7329778Y11415277D02*
X-7258333Y11439055D01*
X-7258333Y11377166D01*
D15*
G04 #@! TO.C,L4*
X-10598000Y4405222D02*
X-10598000Y4500555D01*
X-10798000Y4500555D01*
X-10731333Y4249889D02*
X-10598000Y4249889D01*
X-10807556Y4297666D02*
X-10664667Y4345222D01*
X-10664667Y4221444D01*
D14*
G04 #@! TO.C,C78*
X-4039056Y2084556D02*
X-4034278Y2079778D01*
X-4020056Y2075000D01*
X-4010500Y2075000D01*
X-3996167Y2079778D01*
X-3986723Y2089333D01*
X-3981945Y2098778D01*
X-3977167Y2117889D01*
X-3977167Y2132111D01*
X-3981945Y2151222D01*
X-3986723Y2160667D01*
X-3996167Y2170222D01*
X-4010500Y2175000D01*
X-4020056Y2175000D01*
X-4034278Y2170222D01*
X-4039056Y2165444D01*
X-4069056Y2175000D02*
X-4135723Y2175000D01*
X-4092834Y2075000D01*
X-4184723Y2132111D02*
X-4175279Y2136889D01*
X-4170501Y2141667D01*
X-4165723Y2151222D01*
X-4165723Y2156000D01*
X-4170501Y2165444D01*
X-4175279Y2170222D01*
X-4184723Y2175000D01*
X-4203834Y2175000D01*
X-4213390Y2170222D01*
X-4218056Y2165444D01*
X-4222834Y2156000D01*
X-4222834Y2151222D01*
X-4218056Y2141667D01*
X-4213390Y2136889D01*
X-4203834Y2132111D01*
X-4184723Y2132111D01*
X-4175279Y2127333D01*
X-4170501Y2122667D01*
X-4165723Y2113111D01*
X-4165723Y2094000D01*
X-4170501Y2084556D01*
X-4175279Y2079778D01*
X-4184723Y2075000D01*
X-4203834Y2075000D01*
X-4213390Y2079778D01*
X-4218056Y2084556D01*
X-4222834Y2094000D01*
X-4222834Y2113111D01*
X-4218056Y2122667D01*
X-4213390Y2127333D01*
X-4203834Y2132111D01*
G04 #@! TO.C,VREG2*
X-6895417Y5746000D02*
X-6928750Y5646000D01*
X-6962084Y5746000D01*
X-7049195Y5646000D02*
X-7015862Y5693667D01*
X-6992084Y5646000D02*
X-6992084Y5746000D01*
X-7030195Y5746000D01*
X-7039751Y5741222D01*
X-7044417Y5736444D01*
X-7049195Y5727000D01*
X-7049195Y5712667D01*
X-7044417Y5703111D01*
X-7039751Y5698333D01*
X-7030195Y5693667D01*
X-6992084Y5693667D01*
X-7079195Y5698333D02*
X-7112528Y5698333D01*
X-7126862Y5646000D02*
X-7079195Y5646000D01*
X-7079195Y5746000D01*
X-7126862Y5746000D01*
X-7213973Y5741222D02*
X-7204529Y5746000D01*
X-7190195Y5746000D01*
X-7175862Y5741222D01*
X-7166418Y5731667D01*
X-7161640Y5722222D01*
X-7156862Y5703111D01*
X-7156862Y5688889D01*
X-7161640Y5669778D01*
X-7166418Y5660333D01*
X-7175862Y5650778D01*
X-7190195Y5646000D01*
X-7199751Y5646000D01*
X-7213973Y5650778D01*
X-7218751Y5655556D01*
X-7218751Y5688889D01*
X-7199751Y5688889D01*
X-7253529Y5736444D02*
X-7258307Y5741222D01*
X-7267751Y5746000D01*
X-7291640Y5746000D01*
X-7301084Y5741222D01*
X-7305862Y5736444D01*
X-7310640Y5727000D01*
X-7310640Y5717444D01*
X-7305862Y5703111D01*
X-7248751Y5646000D01*
X-7310640Y5646000D01*
G04 #@! TO.C,C88*
X9240444Y-7243834D02*
X9245222Y-7239056D01*
X9250000Y-7224834D01*
X9250000Y-7215278D01*
X9245222Y-7200945D01*
X9235667Y-7191501D01*
X9226222Y-7186723D01*
X9207111Y-7181945D01*
X9192889Y-7181945D01*
X9173778Y-7186723D01*
X9164333Y-7191501D01*
X9154778Y-7200945D01*
X9150000Y-7215278D01*
X9150000Y-7224834D01*
X9154778Y-7239056D01*
X9159556Y-7243834D01*
X9192889Y-7292834D02*
X9188111Y-7283390D01*
X9183333Y-7278612D01*
X9173778Y-7273834D01*
X9169000Y-7273834D01*
X9159556Y-7278612D01*
X9154778Y-7283390D01*
X9150000Y-7292834D01*
X9150000Y-7311945D01*
X9154778Y-7321501D01*
X9159556Y-7326167D01*
X9169000Y-7330945D01*
X9173778Y-7330945D01*
X9183333Y-7326167D01*
X9188111Y-7321501D01*
X9192889Y-7311945D01*
X9192889Y-7292834D01*
X9197667Y-7283390D01*
X9202333Y-7278612D01*
X9211889Y-7273834D01*
X9231000Y-7273834D01*
X9240444Y-7278612D01*
X9245222Y-7283390D01*
X9250000Y-7292834D01*
X9250000Y-7311945D01*
X9245222Y-7321501D01*
X9240444Y-7326167D01*
X9231000Y-7330945D01*
X9211889Y-7330945D01*
X9202333Y-7326167D01*
X9197667Y-7321501D01*
X9192889Y-7311945D01*
X9192889Y-7379945D02*
X9188111Y-7370501D01*
X9183333Y-7365723D01*
X9173778Y-7360945D01*
X9169000Y-7360945D01*
X9159556Y-7365723D01*
X9154778Y-7370501D01*
X9150000Y-7379945D01*
X9150000Y-7399056D01*
X9154778Y-7408612D01*
X9159556Y-7413278D01*
X9169000Y-7418056D01*
X9173778Y-7418056D01*
X9183333Y-7413278D01*
X9188111Y-7408612D01*
X9192889Y-7399056D01*
X9192889Y-7379945D01*
X9197667Y-7370501D01*
X9202333Y-7365723D01*
X9211889Y-7360945D01*
X9231000Y-7360945D01*
X9240444Y-7365723D01*
X9245222Y-7370501D01*
X9250000Y-7379945D01*
X9250000Y-7399056D01*
X9245222Y-7408612D01*
X9240444Y-7413278D01*
X9231000Y-7418056D01*
X9211889Y-7418056D01*
X9202333Y-7413278D01*
X9197667Y-7408612D01*
X9192889Y-7399056D01*
G04 #@! TO.C,R10*
X-19500000Y-7591445D02*
X-19547667Y-7558112D01*
X-19500000Y-7534334D02*
X-19600000Y-7534334D01*
X-19600000Y-7572445D01*
X-19595222Y-7582001D01*
X-19590444Y-7586667D01*
X-19581000Y-7591445D01*
X-19566667Y-7591445D01*
X-19557111Y-7586667D01*
X-19552333Y-7582001D01*
X-19547667Y-7572445D01*
X-19547667Y-7534334D01*
X-19500000Y-7678556D02*
X-19500000Y-7621445D01*
X-19500000Y-7650001D02*
X-19600000Y-7650001D01*
X-19585667Y-7640445D01*
X-19576222Y-7631001D01*
X-19571444Y-7621445D01*
X-19600000Y-7732334D02*
X-19600000Y-7741889D01*
X-19595222Y-7751445D01*
X-19590444Y-7756223D01*
X-19581000Y-7760889D01*
X-19561889Y-7765667D01*
X-19538111Y-7765667D01*
X-19519000Y-7760889D01*
X-19509556Y-7756223D01*
X-19504778Y-7751445D01*
X-19500000Y-7741889D01*
X-19500000Y-7732334D01*
X-19504778Y-7722889D01*
X-19509556Y-7718112D01*
X-19519000Y-7713334D01*
X-19538111Y-7708556D01*
X-19561889Y-7708556D01*
X-19581000Y-7713334D01*
X-19590444Y-7718112D01*
X-19595222Y-7722889D01*
X-19600000Y-7732334D01*
G04 #@! TO.C,C56*
X8157166Y-141444D02*
X8161944Y-146222D01*
X8176166Y-151000D01*
X8185722Y-151000D01*
X8200055Y-146222D01*
X8209499Y-136667D01*
X8214277Y-127222D01*
X8219055Y-108111D01*
X8219055Y-93889D01*
X8214277Y-74778D01*
X8209499Y-65333D01*
X8200055Y-55778D01*
X8185722Y-51000D01*
X8176166Y-51000D01*
X8161944Y-55778D01*
X8157166Y-60556D01*
X8074833Y-51000D02*
X8122388Y-51000D01*
X8127166Y-98667D01*
X8122388Y-93889D01*
X8112833Y-89111D01*
X8089055Y-89111D01*
X8079499Y-93889D01*
X8074833Y-98667D01*
X8070055Y-108111D01*
X8070055Y-132000D01*
X8074833Y-141444D01*
X8079499Y-146222D01*
X8089055Y-151000D01*
X8112833Y-151000D01*
X8122388Y-146222D01*
X8127166Y-141444D01*
X7992388Y-51000D02*
X8011499Y-51000D01*
X8021055Y-55778D01*
X8025722Y-60556D01*
X8035277Y-74778D01*
X8040055Y-93889D01*
X8040055Y-132000D01*
X8035277Y-141444D01*
X8030499Y-146222D01*
X8021055Y-151000D01*
X8001944Y-151000D01*
X7992388Y-146222D01*
X7987722Y-141444D01*
X7982944Y-132000D01*
X7982944Y-108111D01*
X7987722Y-98667D01*
X7992388Y-93889D01*
X8001944Y-89111D01*
X8021055Y-89111D01*
X8030499Y-93889D01*
X8035277Y-98667D01*
X8040055Y-108111D01*
G04 #@! TO.C,C53*
X11915555Y3087556D02*
X11920333Y3082778D01*
X11934555Y3078000D01*
X11944111Y3078000D01*
X11958444Y3082778D01*
X11967888Y3092333D01*
X11972666Y3101778D01*
X11977444Y3120889D01*
X11977444Y3135111D01*
X11972666Y3154222D01*
X11967888Y3163667D01*
X11958444Y3173222D01*
X11944111Y3178000D01*
X11934555Y3178000D01*
X11920333Y3173222D01*
X11915555Y3168444D01*
X11833222Y3178000D02*
X11880777Y3178000D01*
X11885555Y3130333D01*
X11880777Y3135111D01*
X11871222Y3139889D01*
X11847444Y3139889D01*
X11837888Y3135111D01*
X11833222Y3130333D01*
X11828444Y3120889D01*
X11828444Y3097000D01*
X11833222Y3087556D01*
X11837888Y3082778D01*
X11847444Y3078000D01*
X11871222Y3078000D01*
X11880777Y3082778D01*
X11885555Y3087556D01*
X11798444Y3178000D02*
X11736555Y3178000D01*
X11769888Y3139889D01*
X11755555Y3139889D01*
X11746111Y3135111D01*
X11741333Y3130333D01*
X11736555Y3120889D01*
X11736555Y3097000D01*
X11741333Y3087556D01*
X11746111Y3082778D01*
X11755555Y3078000D01*
X11784111Y3078000D01*
X11793666Y3082778D01*
X11798444Y3087556D01*
G04 #@! TO.C,C40*
X-3042445Y-2115444D02*
X-3037667Y-2120222D01*
X-3023445Y-2125000D01*
X-3013889Y-2125000D01*
X-2999556Y-2120222D01*
X-2990112Y-2110667D01*
X-2985334Y-2101222D01*
X-2980556Y-2082111D01*
X-2980556Y-2067889D01*
X-2985334Y-2048778D01*
X-2990112Y-2039333D01*
X-2999556Y-2029778D01*
X-3013889Y-2025000D01*
X-3023445Y-2025000D01*
X-3037667Y-2029778D01*
X-3042445Y-2034556D01*
X-3120112Y-2058333D02*
X-3120112Y-2125000D01*
X-3096223Y-2020222D02*
X-3072445Y-2091667D01*
X-3134334Y-2091667D01*
X-3188112Y-2025000D02*
X-3197667Y-2025000D01*
X-3207223Y-2029778D01*
X-3212001Y-2034556D01*
X-3216667Y-2044000D01*
X-3221445Y-2063111D01*
X-3221445Y-2086889D01*
X-3216667Y-2106000D01*
X-3212001Y-2115444D01*
X-3207223Y-2120222D01*
X-3197667Y-2125000D01*
X-3188112Y-2125000D01*
X-3178667Y-2120222D01*
X-3173890Y-2115444D01*
X-3169112Y-2106000D01*
X-3164334Y-2086889D01*
X-3164334Y-2063111D01*
X-3169112Y-2044000D01*
X-3173890Y-2034556D01*
X-3178667Y-2029778D01*
X-3188112Y-2025000D01*
D15*
G04 #@! TO.C,L2*
X-5800000Y-8355778D02*
X-5800000Y-8260445D01*
X-6000000Y-8260445D01*
X-5980889Y-8425334D02*
X-5990444Y-8434889D01*
X-6000000Y-8453778D01*
X-6000000Y-8501556D01*
X-5990444Y-8520445D01*
X-5980889Y-8530000D01*
X-5962000Y-8539556D01*
X-5942889Y-8539556D01*
X-5914222Y-8530000D01*
X-5800000Y-8415778D01*
X-5800000Y-8539556D01*
D14*
G04 #@! TO.C,C99*
X-7559556Y14356166D02*
X-7554778Y14360944D01*
X-7550000Y14375166D01*
X-7550000Y14384722D01*
X-7554778Y14399055D01*
X-7564333Y14408499D01*
X-7573778Y14413277D01*
X-7592889Y14418055D01*
X-7607111Y14418055D01*
X-7626222Y14413277D01*
X-7635667Y14408499D01*
X-7645222Y14399055D01*
X-7650000Y14384722D01*
X-7650000Y14375166D01*
X-7645222Y14360944D01*
X-7640444Y14356166D01*
X-7550000Y14316610D02*
X-7550000Y14297610D01*
X-7554778Y14288055D01*
X-7559556Y14283277D01*
X-7573778Y14273833D01*
X-7592889Y14269055D01*
X-7631000Y14269055D01*
X-7640444Y14273833D01*
X-7645222Y14278499D01*
X-7650000Y14288055D01*
X-7650000Y14307166D01*
X-7645222Y14316610D01*
X-7640444Y14321388D01*
X-7631000Y14326166D01*
X-7607111Y14326166D01*
X-7597667Y14321388D01*
X-7592889Y14316610D01*
X-7588111Y14307166D01*
X-7588111Y14288055D01*
X-7592889Y14278499D01*
X-7597667Y14273833D01*
X-7607111Y14269055D01*
X-7550000Y14229499D02*
X-7550000Y14210499D01*
X-7554778Y14200944D01*
X-7559556Y14196166D01*
X-7573778Y14186722D01*
X-7592889Y14181944D01*
X-7631000Y14181944D01*
X-7640444Y14186722D01*
X-7645222Y14191388D01*
X-7650000Y14200944D01*
X-7650000Y14220055D01*
X-7645222Y14229499D01*
X-7640444Y14234277D01*
X-7631000Y14239055D01*
X-7607111Y14239055D01*
X-7597667Y14234277D01*
X-7592889Y14229499D01*
X-7588111Y14220055D01*
X-7588111Y14200944D01*
X-7592889Y14191388D01*
X-7597667Y14186722D01*
X-7607111Y14181944D01*
G04 #@! TO.C,C18*
X-13434556Y-13443834D02*
X-13429778Y-13439056D01*
X-13425000Y-13424834D01*
X-13425000Y-13415278D01*
X-13429778Y-13400945D01*
X-13439333Y-13391501D01*
X-13448778Y-13386723D01*
X-13467889Y-13381945D01*
X-13482111Y-13381945D01*
X-13501222Y-13386723D01*
X-13510667Y-13391501D01*
X-13520222Y-13400945D01*
X-13525000Y-13415278D01*
X-13525000Y-13424834D01*
X-13520222Y-13439056D01*
X-13515444Y-13443834D01*
X-13425000Y-13530945D02*
X-13425000Y-13473834D01*
X-13425000Y-13502390D02*
X-13525000Y-13502390D01*
X-13510667Y-13492834D01*
X-13501222Y-13483390D01*
X-13496444Y-13473834D01*
X-13482111Y-13579945D02*
X-13486889Y-13570501D01*
X-13491667Y-13565723D01*
X-13501222Y-13560945D01*
X-13506000Y-13560945D01*
X-13515444Y-13565723D01*
X-13520222Y-13570501D01*
X-13525000Y-13579945D01*
X-13525000Y-13599056D01*
X-13520222Y-13608612D01*
X-13515444Y-13613278D01*
X-13506000Y-13618056D01*
X-13501222Y-13618056D01*
X-13491667Y-13613278D01*
X-13486889Y-13608612D01*
X-13482111Y-13599056D01*
X-13482111Y-13579945D01*
X-13477333Y-13570501D01*
X-13472667Y-13565723D01*
X-13463111Y-13560945D01*
X-13444000Y-13560945D01*
X-13434556Y-13565723D01*
X-13429778Y-13570501D01*
X-13425000Y-13579945D01*
X-13425000Y-13599056D01*
X-13429778Y-13608612D01*
X-13434556Y-13613278D01*
X-13444000Y-13618056D01*
X-13463111Y-13618056D01*
X-13472667Y-13613278D01*
X-13477333Y-13608612D01*
X-13482111Y-13599056D01*
G04 #@! TO.C,C32*
X-5932056Y2859556D02*
X-5927278Y2854778D01*
X-5913056Y2850000D01*
X-5903500Y2850000D01*
X-5889167Y2854778D01*
X-5879723Y2864333D01*
X-5874945Y2873778D01*
X-5870167Y2892889D01*
X-5870167Y2907111D01*
X-5874945Y2926222D01*
X-5879723Y2935667D01*
X-5889167Y2945222D01*
X-5903500Y2950000D01*
X-5913056Y2950000D01*
X-5927278Y2945222D01*
X-5932056Y2940444D01*
X-5962056Y2950000D02*
X-6023945Y2950000D01*
X-5990612Y2911889D01*
X-6004945Y2911889D01*
X-6014389Y2907111D01*
X-6019167Y2902333D01*
X-6023945Y2892889D01*
X-6023945Y2869000D01*
X-6019167Y2859556D01*
X-6014389Y2854778D01*
X-6004945Y2850000D01*
X-5976389Y2850000D01*
X-5966834Y2854778D01*
X-5962056Y2859556D01*
X-6058723Y2940444D02*
X-6063501Y2945222D01*
X-6072945Y2950000D01*
X-6096834Y2950000D01*
X-6106278Y2945222D01*
X-6111056Y2940444D01*
X-6115834Y2931000D01*
X-6115834Y2921444D01*
X-6111056Y2907111D01*
X-6053945Y2850000D01*
X-6115834Y2850000D01*
G04 #@! TO.C,C75*
X-3359556Y-3014056D02*
X-3354778Y-3009278D01*
X-3350000Y-2995056D01*
X-3350000Y-2985500D01*
X-3354778Y-2971167D01*
X-3364333Y-2961723D01*
X-3373778Y-2956945D01*
X-3392889Y-2952167D01*
X-3407111Y-2952167D01*
X-3426222Y-2956945D01*
X-3435667Y-2961723D01*
X-3445222Y-2971167D01*
X-3450000Y-2985500D01*
X-3450000Y-2995056D01*
X-3445222Y-3009278D01*
X-3440444Y-3014056D01*
X-3450000Y-3044056D02*
X-3450000Y-3110723D01*
X-3350000Y-3067834D01*
X-3450000Y-3193056D02*
X-3450000Y-3145501D01*
X-3402333Y-3140723D01*
X-3407111Y-3145501D01*
X-3411889Y-3155056D01*
X-3411889Y-3178834D01*
X-3407111Y-3188390D01*
X-3402333Y-3193056D01*
X-3392889Y-3197834D01*
X-3369000Y-3197834D01*
X-3359556Y-3193056D01*
X-3354778Y-3188390D01*
X-3350000Y-3178834D01*
X-3350000Y-3155056D01*
X-3354778Y-3145501D01*
X-3359556Y-3140723D01*
G04 #@! TO.C,C90*
X11040444Y-7243834D02*
X11045222Y-7239056D01*
X11050000Y-7224834D01*
X11050000Y-7215278D01*
X11045222Y-7200945D01*
X11035667Y-7191501D01*
X11026222Y-7186723D01*
X11007111Y-7181945D01*
X10992889Y-7181945D01*
X10973778Y-7186723D01*
X10964333Y-7191501D01*
X10954778Y-7200945D01*
X10950000Y-7215278D01*
X10950000Y-7224834D01*
X10954778Y-7239056D01*
X10959556Y-7243834D01*
X11050000Y-7283390D02*
X11050000Y-7302390D01*
X11045222Y-7311945D01*
X11040444Y-7316723D01*
X11026222Y-7326167D01*
X11007111Y-7330945D01*
X10969000Y-7330945D01*
X10959556Y-7326167D01*
X10954778Y-7321501D01*
X10950000Y-7311945D01*
X10950000Y-7292834D01*
X10954778Y-7283390D01*
X10959556Y-7278612D01*
X10969000Y-7273834D01*
X10992889Y-7273834D01*
X11002333Y-7278612D01*
X11007111Y-7283390D01*
X11011889Y-7292834D01*
X11011889Y-7311945D01*
X11007111Y-7321501D01*
X11002333Y-7326167D01*
X10992889Y-7330945D01*
X10950000Y-7384723D02*
X10950000Y-7394278D01*
X10954778Y-7403834D01*
X10959556Y-7408612D01*
X10969000Y-7413278D01*
X10988111Y-7418056D01*
X11011889Y-7418056D01*
X11031000Y-7413278D01*
X11040444Y-7408612D01*
X11045222Y-7403834D01*
X11050000Y-7394278D01*
X11050000Y-7384723D01*
X11045222Y-7375278D01*
X11040444Y-7370501D01*
X11031000Y-7365723D01*
X11011889Y-7360945D01*
X10988111Y-7360945D01*
X10969000Y-7365723D01*
X10959556Y-7370501D01*
X10954778Y-7375278D01*
X10950000Y-7384723D01*
G04 #@! TO.C,R18*
X-3873445Y8540000D02*
X-3840112Y8587667D01*
X-3816334Y8540000D02*
X-3816334Y8640000D01*
X-3854445Y8640000D01*
X-3864001Y8635222D01*
X-3868667Y8630444D01*
X-3873445Y8621000D01*
X-3873445Y8606667D01*
X-3868667Y8597111D01*
X-3864001Y8592333D01*
X-3854445Y8587667D01*
X-3816334Y8587667D01*
X-3960556Y8540000D02*
X-3903445Y8540000D01*
X-3932001Y8540000D02*
X-3932001Y8640000D01*
X-3922445Y8625667D01*
X-3913001Y8616222D01*
X-3903445Y8611444D01*
X-4009556Y8597111D02*
X-4000112Y8601889D01*
X-3995334Y8606667D01*
X-3990556Y8616222D01*
X-3990556Y8621000D01*
X-3995334Y8630444D01*
X-4000112Y8635222D01*
X-4009556Y8640000D01*
X-4028667Y8640000D01*
X-4038223Y8635222D01*
X-4042889Y8630444D01*
X-4047667Y8621000D01*
X-4047667Y8616222D01*
X-4042889Y8606667D01*
X-4038223Y8601889D01*
X-4028667Y8597111D01*
X-4009556Y8597111D01*
X-4000112Y8592333D01*
X-3995334Y8587667D01*
X-3990556Y8578111D01*
X-3990556Y8559000D01*
X-3995334Y8549556D01*
X-4000112Y8544778D01*
X-4009556Y8540000D01*
X-4028667Y8540000D01*
X-4038223Y8544778D01*
X-4042889Y8549556D01*
X-4047667Y8559000D01*
X-4047667Y8578111D01*
X-4042889Y8587667D01*
X-4038223Y8592333D01*
X-4028667Y8597111D01*
G04 #@! TO.C,R14*
X-17719056Y5424000D02*
X-17685723Y5471667D01*
X-17661945Y5424000D02*
X-17661945Y5524000D01*
X-17700056Y5524000D01*
X-17709612Y5519222D01*
X-17714278Y5514444D01*
X-17719056Y5505000D01*
X-17719056Y5490667D01*
X-17714278Y5481111D01*
X-17709612Y5476333D01*
X-17700056Y5471667D01*
X-17661945Y5471667D01*
X-17806167Y5424000D02*
X-17749056Y5424000D01*
X-17777612Y5424000D02*
X-17777612Y5524000D01*
X-17768056Y5509667D01*
X-17758612Y5500222D01*
X-17749056Y5495444D01*
X-17883834Y5490667D02*
X-17883834Y5424000D01*
X-17859945Y5528778D02*
X-17836167Y5457333D01*
X-17898056Y5457333D01*
G04 #@! TO.C,C47*
X-3859556Y1188333D02*
X-3854778Y1193111D01*
X-3850000Y1207333D01*
X-3850000Y1216889D01*
X-3854778Y1231222D01*
X-3864333Y1240666D01*
X-3873778Y1245444D01*
X-3892889Y1250222D01*
X-3907111Y1250222D01*
X-3926222Y1245444D01*
X-3935667Y1240666D01*
X-3945222Y1231222D01*
X-3950000Y1216889D01*
X-3950000Y1207333D01*
X-3945222Y1193111D01*
X-3940444Y1188333D01*
X-3916667Y1110666D02*
X-3850000Y1110666D01*
X-3954778Y1134555D02*
X-3883333Y1158333D01*
X-3883333Y1096444D01*
X-3950000Y1066444D02*
X-3950000Y999777D01*
X-3850000Y1042666D01*
G04 #@! TO.C,C91*
X11940444Y-7243834D02*
X11945222Y-7239056D01*
X11950000Y-7224834D01*
X11950000Y-7215278D01*
X11945222Y-7200945D01*
X11935667Y-7191501D01*
X11926222Y-7186723D01*
X11907111Y-7181945D01*
X11892889Y-7181945D01*
X11873778Y-7186723D01*
X11864333Y-7191501D01*
X11854778Y-7200945D01*
X11850000Y-7215278D01*
X11850000Y-7224834D01*
X11854778Y-7239056D01*
X11859556Y-7243834D01*
X11950000Y-7283390D02*
X11950000Y-7302390D01*
X11945222Y-7311945D01*
X11940444Y-7316723D01*
X11926222Y-7326167D01*
X11907111Y-7330945D01*
X11869000Y-7330945D01*
X11859556Y-7326167D01*
X11854778Y-7321501D01*
X11850000Y-7311945D01*
X11850000Y-7292834D01*
X11854778Y-7283390D01*
X11859556Y-7278612D01*
X11869000Y-7273834D01*
X11892889Y-7273834D01*
X11902333Y-7278612D01*
X11907111Y-7283390D01*
X11911889Y-7292834D01*
X11911889Y-7311945D01*
X11907111Y-7321501D01*
X11902333Y-7326167D01*
X11892889Y-7330945D01*
X11950000Y-7418056D02*
X11950000Y-7360945D01*
X11950000Y-7389501D02*
X11850000Y-7389501D01*
X11864333Y-7379945D01*
X11873778Y-7370501D01*
X11878556Y-7360945D01*
G04 #@! TO.C,C92*
X12840444Y-7241445D02*
X12845222Y-7236667D01*
X12850000Y-7222445D01*
X12850000Y-7212889D01*
X12845222Y-7198556D01*
X12835667Y-7189112D01*
X12826222Y-7184334D01*
X12807111Y-7179556D01*
X12792889Y-7179556D01*
X12773778Y-7184334D01*
X12764333Y-7189112D01*
X12754778Y-7198556D01*
X12750000Y-7212889D01*
X12750000Y-7222445D01*
X12754778Y-7236667D01*
X12759556Y-7241445D01*
X12850000Y-7281001D02*
X12850000Y-7300001D01*
X12845222Y-7309556D01*
X12840444Y-7314334D01*
X12826222Y-7323778D01*
X12807111Y-7328556D01*
X12769000Y-7328556D01*
X12759556Y-7323778D01*
X12754778Y-7319112D01*
X12750000Y-7309556D01*
X12750000Y-7290445D01*
X12754778Y-7281001D01*
X12759556Y-7276223D01*
X12769000Y-7271445D01*
X12792889Y-7271445D01*
X12802333Y-7276223D01*
X12807111Y-7281001D01*
X12811889Y-7290445D01*
X12811889Y-7309556D01*
X12807111Y-7319112D01*
X12802333Y-7323778D01*
X12792889Y-7328556D01*
X12759556Y-7363334D02*
X12754778Y-7368112D01*
X12750000Y-7377556D01*
X12750000Y-7401445D01*
X12754778Y-7410889D01*
X12759556Y-7415667D01*
X12769000Y-7420445D01*
X12778556Y-7420445D01*
X12792889Y-7415667D01*
X12850000Y-7358556D01*
X12850000Y-7420445D01*
G04 #@! TO.C,C54*
X-8029556Y10965555D02*
X-8024778Y10970333D01*
X-8020000Y10984555D01*
X-8020000Y10994111D01*
X-8024778Y11008444D01*
X-8034333Y11017888D01*
X-8043778Y11022666D01*
X-8062889Y11027444D01*
X-8077111Y11027444D01*
X-8096222Y11022666D01*
X-8105667Y11017888D01*
X-8115222Y11008444D01*
X-8120000Y10994111D01*
X-8120000Y10984555D01*
X-8115222Y10970333D01*
X-8110444Y10965555D01*
X-8120000Y10883222D02*
X-8120000Y10930777D01*
X-8072333Y10935555D01*
X-8077111Y10930777D01*
X-8081889Y10921222D01*
X-8081889Y10897444D01*
X-8077111Y10887888D01*
X-8072333Y10883222D01*
X-8062889Y10878444D01*
X-8039000Y10878444D01*
X-8029556Y10883222D01*
X-8024778Y10887888D01*
X-8020000Y10897444D01*
X-8020000Y10921222D01*
X-8024778Y10930777D01*
X-8029556Y10935555D01*
X-8086667Y10800777D02*
X-8020000Y10800777D01*
X-8124778Y10824666D02*
X-8053333Y10848444D01*
X-8053333Y10786555D01*
G04 #@! TO.C,R4*
X-17860000Y-4812611D02*
X-17907667Y-4779278D01*
X-17860000Y-4755500D02*
X-17960000Y-4755500D01*
X-17960000Y-4793611D01*
X-17955222Y-4803167D01*
X-17950444Y-4807833D01*
X-17941000Y-4812611D01*
X-17926667Y-4812611D01*
X-17917111Y-4807833D01*
X-17912333Y-4803167D01*
X-17907667Y-4793611D01*
X-17907667Y-4755500D01*
X-17926667Y-4890278D02*
X-17860000Y-4890278D01*
X-17964778Y-4866389D02*
X-17893333Y-4842611D01*
X-17893333Y-4904500D01*
G04 #@! TO.C,R15*
X-3100000Y6258555D02*
X-3147667Y6291888D01*
X-3100000Y6315666D02*
X-3200000Y6315666D01*
X-3200000Y6277555D01*
X-3195222Y6267999D01*
X-3190444Y6263333D01*
X-3181000Y6258555D01*
X-3166667Y6258555D01*
X-3157111Y6263333D01*
X-3152333Y6267999D01*
X-3147667Y6277555D01*
X-3147667Y6315666D01*
X-3100000Y6171444D02*
X-3100000Y6228555D01*
X-3100000Y6199999D02*
X-3200000Y6199999D01*
X-3185667Y6209555D01*
X-3176222Y6218999D01*
X-3171444Y6228555D01*
X-3200000Y6089111D02*
X-3200000Y6136666D01*
X-3152333Y6141444D01*
X-3157111Y6136666D01*
X-3161889Y6127111D01*
X-3161889Y6103333D01*
X-3157111Y6093777D01*
X-3152333Y6089111D01*
X-3142889Y6084333D01*
X-3119000Y6084333D01*
X-3109556Y6089111D01*
X-3104778Y6093777D01*
X-3100000Y6103333D01*
X-3100000Y6127111D01*
X-3104778Y6136666D01*
X-3109556Y6141444D01*
G04 #@! TO.C,C14*
X-14359556Y-10141445D02*
X-14354778Y-10136667D01*
X-14350000Y-10122445D01*
X-14350000Y-10112889D01*
X-14354778Y-10098556D01*
X-14364333Y-10089112D01*
X-14373778Y-10084334D01*
X-14392889Y-10079556D01*
X-14407111Y-10079556D01*
X-14426222Y-10084334D01*
X-14435667Y-10089112D01*
X-14445222Y-10098556D01*
X-14450000Y-10112889D01*
X-14450000Y-10122445D01*
X-14445222Y-10136667D01*
X-14440444Y-10141445D01*
X-14350000Y-10228556D02*
X-14350000Y-10171445D01*
X-14350000Y-10200001D02*
X-14450000Y-10200001D01*
X-14435667Y-10190445D01*
X-14426222Y-10181001D01*
X-14421444Y-10171445D01*
X-14416667Y-10306223D02*
X-14350000Y-10306223D01*
X-14454778Y-10282334D02*
X-14383333Y-10258556D01*
X-14383333Y-10320445D01*
G04 #@! TO.C,C4*
X-2535556Y3115000D02*
X-2530778Y3119778D01*
X-2526000Y3134000D01*
X-2526000Y3143556D01*
X-2530778Y3157889D01*
X-2540333Y3167333D01*
X-2549778Y3172111D01*
X-2568889Y3176889D01*
X-2583111Y3176889D01*
X-2602222Y3172111D01*
X-2611667Y3167333D01*
X-2621222Y3157889D01*
X-2626000Y3143556D01*
X-2626000Y3134000D01*
X-2621222Y3119778D01*
X-2616444Y3115000D01*
X-2592667Y3037333D02*
X-2526000Y3037333D01*
X-2630778Y3061222D02*
X-2559333Y3085000D01*
X-2559333Y3023111D01*
G04 #@! TO.C,C72*
X-37667Y-3916444D02*
X-32889Y-3921222D01*
X-18667Y-3926000D01*
X-9111Y-3926000D01*
X5222Y-3921222D01*
X14666Y-3911667D01*
X19444Y-3902222D01*
X24222Y-3883111D01*
X24222Y-3868889D01*
X19444Y-3849778D01*
X14666Y-3840333D01*
X5222Y-3830778D01*
X-9111Y-3826000D01*
X-18667Y-3826000D01*
X-32889Y-3830778D01*
X-37667Y-3835556D01*
X-67667Y-3826000D02*
X-134334Y-3826000D01*
X-91445Y-3926000D01*
X-169112Y-3835556D02*
X-173890Y-3830778D01*
X-183334Y-3826000D01*
X-207223Y-3826000D01*
X-216667Y-3830778D01*
X-221445Y-3835556D01*
X-226223Y-3845000D01*
X-226223Y-3854556D01*
X-221445Y-3868889D01*
X-164334Y-3926000D01*
X-226223Y-3926000D01*
G04 #@! TO.C,R7*
X-12035000Y-10380222D02*
X-12082667Y-10346889D01*
X-12035000Y-10323111D02*
X-12135000Y-10323111D01*
X-12135000Y-10361222D01*
X-12130222Y-10370778D01*
X-12125444Y-10375444D01*
X-12116000Y-10380222D01*
X-12101667Y-10380222D01*
X-12092111Y-10375444D01*
X-12087333Y-10370778D01*
X-12082667Y-10361222D01*
X-12082667Y-10323111D01*
X-12135000Y-10410222D02*
X-12135000Y-10476889D01*
X-12035000Y-10434000D01*
G04 #@! TO.C,C22*
X-17734056Y5694556D02*
X-17729278Y5689778D01*
X-17715056Y5685000D01*
X-17705500Y5685000D01*
X-17691167Y5689778D01*
X-17681723Y5699333D01*
X-17676945Y5708778D01*
X-17672167Y5727889D01*
X-17672167Y5742111D01*
X-17676945Y5761222D01*
X-17681723Y5770667D01*
X-17691167Y5780222D01*
X-17705500Y5785000D01*
X-17715056Y5785000D01*
X-17729278Y5780222D01*
X-17734056Y5775444D01*
X-17768834Y5775444D02*
X-17773612Y5780222D01*
X-17783056Y5785000D01*
X-17806945Y5785000D01*
X-17816389Y5780222D01*
X-17821167Y5775444D01*
X-17825945Y5766000D01*
X-17825945Y5756444D01*
X-17821167Y5742111D01*
X-17764056Y5685000D01*
X-17825945Y5685000D01*
X-17860723Y5775444D02*
X-17865501Y5780222D01*
X-17874945Y5785000D01*
X-17898834Y5785000D01*
X-17908278Y5780222D01*
X-17913056Y5775444D01*
X-17917834Y5766000D01*
X-17917834Y5756444D01*
X-17913056Y5742111D01*
X-17855945Y5685000D01*
X-17917834Y5685000D01*
G04 #@! TO.C,C102*
X-4459556Y14402111D02*
X-4454778Y14406889D01*
X-4450000Y14421111D01*
X-4450000Y14430667D01*
X-4454778Y14445000D01*
X-4464333Y14454444D01*
X-4473778Y14459222D01*
X-4492889Y14464000D01*
X-4507111Y14464000D01*
X-4526222Y14459222D01*
X-4535667Y14454444D01*
X-4545222Y14445000D01*
X-4550000Y14430667D01*
X-4550000Y14421111D01*
X-4545222Y14406889D01*
X-4540444Y14402111D01*
X-4450000Y14315000D02*
X-4450000Y14372111D01*
X-4450000Y14343555D02*
X-4550000Y14343555D01*
X-4535667Y14353111D01*
X-4526222Y14362555D01*
X-4521444Y14372111D01*
X-4550000Y14261222D02*
X-4550000Y14251667D01*
X-4545222Y14242111D01*
X-4540444Y14237333D01*
X-4531000Y14232667D01*
X-4511889Y14227889D01*
X-4488111Y14227889D01*
X-4469000Y14232667D01*
X-4459556Y14237333D01*
X-4454778Y14242111D01*
X-4450000Y14251667D01*
X-4450000Y14261222D01*
X-4454778Y14270667D01*
X-4459556Y14275444D01*
X-4469000Y14280222D01*
X-4488111Y14285000D01*
X-4511889Y14285000D01*
X-4531000Y14280222D01*
X-4540444Y14275444D01*
X-4545222Y14270667D01*
X-4550000Y14261222D01*
X-4540444Y14193111D02*
X-4545222Y14188333D01*
X-4550000Y14178889D01*
X-4550000Y14155000D01*
X-4545222Y14145556D01*
X-4540444Y14140778D01*
X-4531000Y14136000D01*
X-4521444Y14136000D01*
X-4507111Y14140778D01*
X-4450000Y14197889D01*
X-4450000Y14136000D01*
G04 #@! TO.C,C37*
X-14559556Y2363333D02*
X-14554778Y2368111D01*
X-14550000Y2382333D01*
X-14550000Y2391889D01*
X-14554778Y2406222D01*
X-14564333Y2415666D01*
X-14573778Y2420444D01*
X-14592889Y2425222D01*
X-14607111Y2425222D01*
X-14626222Y2420444D01*
X-14635667Y2415666D01*
X-14645222Y2406222D01*
X-14650000Y2391889D01*
X-14650000Y2382333D01*
X-14645222Y2368111D01*
X-14640444Y2363333D01*
X-14650000Y2333333D02*
X-14650000Y2271444D01*
X-14611889Y2304777D01*
X-14611889Y2290444D01*
X-14607111Y2281000D01*
X-14602333Y2276222D01*
X-14592889Y2271444D01*
X-14569000Y2271444D01*
X-14559556Y2276222D01*
X-14554778Y2281000D01*
X-14550000Y2290444D01*
X-14550000Y2319000D01*
X-14554778Y2328555D01*
X-14559556Y2333333D01*
X-14650000Y2241444D02*
X-14650000Y2174777D01*
X-14550000Y2217666D01*
G04 #@! TO.C,C94*
X12158555Y-12915444D02*
X12163333Y-12920222D01*
X12177555Y-12925000D01*
X12187111Y-12925000D01*
X12201444Y-12920222D01*
X12210888Y-12910667D01*
X12215666Y-12901222D01*
X12220444Y-12882111D01*
X12220444Y-12867889D01*
X12215666Y-12848778D01*
X12210888Y-12839333D01*
X12201444Y-12829778D01*
X12187111Y-12825000D01*
X12177555Y-12825000D01*
X12163333Y-12829778D01*
X12158555Y-12834556D01*
X12118999Y-12925000D02*
X12099999Y-12925000D01*
X12090444Y-12920222D01*
X12085666Y-12915444D01*
X12076222Y-12901222D01*
X12071444Y-12882111D01*
X12071444Y-12844000D01*
X12076222Y-12834556D01*
X12080888Y-12829778D01*
X12090444Y-12825000D01*
X12109555Y-12825000D01*
X12118999Y-12829778D01*
X12123777Y-12834556D01*
X12128555Y-12844000D01*
X12128555Y-12867889D01*
X12123777Y-12877333D01*
X12118999Y-12882111D01*
X12109555Y-12886889D01*
X12090444Y-12886889D01*
X12080888Y-12882111D01*
X12076222Y-12877333D01*
X12071444Y-12867889D01*
X11993777Y-12858333D02*
X11993777Y-12925000D01*
X12017666Y-12820222D02*
X12041444Y-12891667D01*
X11979555Y-12891667D01*
G04 #@! TO.C,R11*
X-16114445Y-11756000D02*
X-16081112Y-11708333D01*
X-16057334Y-11756000D02*
X-16057334Y-11656000D01*
X-16095445Y-11656000D01*
X-16105001Y-11660778D01*
X-16109667Y-11665556D01*
X-16114445Y-11675000D01*
X-16114445Y-11689333D01*
X-16109667Y-11698889D01*
X-16105001Y-11703667D01*
X-16095445Y-11708333D01*
X-16057334Y-11708333D01*
X-16201556Y-11756000D02*
X-16144445Y-11756000D01*
X-16173001Y-11756000D02*
X-16173001Y-11656000D01*
X-16163445Y-11670333D01*
X-16154001Y-11679778D01*
X-16144445Y-11684556D01*
X-16288667Y-11756000D02*
X-16231556Y-11756000D01*
X-16260112Y-11756000D02*
X-16260112Y-11656000D01*
X-16250556Y-11670333D01*
X-16241112Y-11679778D01*
X-16231556Y-11684556D01*
G04 #@! TO.C,R28*
X-2557056Y-14338000D02*
X-2523723Y-14290333D01*
X-2499945Y-14338000D02*
X-2499945Y-14238000D01*
X-2538056Y-14238000D01*
X-2547612Y-14242778D01*
X-2552278Y-14247556D01*
X-2557056Y-14257000D01*
X-2557056Y-14271333D01*
X-2552278Y-14280889D01*
X-2547612Y-14285667D01*
X-2538056Y-14290333D01*
X-2499945Y-14290333D01*
X-2591834Y-14247556D02*
X-2596612Y-14242778D01*
X-2606056Y-14238000D01*
X-2629945Y-14238000D01*
X-2639389Y-14242778D01*
X-2644167Y-14247556D01*
X-2648945Y-14257000D01*
X-2648945Y-14266556D01*
X-2644167Y-14280889D01*
X-2587056Y-14338000D01*
X-2648945Y-14338000D01*
X-2697945Y-14280889D02*
X-2688501Y-14276111D01*
X-2683723Y-14271333D01*
X-2678945Y-14261778D01*
X-2678945Y-14257000D01*
X-2683723Y-14247556D01*
X-2688501Y-14242778D01*
X-2697945Y-14238000D01*
X-2717056Y-14238000D01*
X-2726612Y-14242778D01*
X-2731278Y-14247556D01*
X-2736056Y-14257000D01*
X-2736056Y-14261778D01*
X-2731278Y-14271333D01*
X-2726612Y-14276111D01*
X-2717056Y-14280889D01*
X-2697945Y-14280889D01*
X-2688501Y-14285667D01*
X-2683723Y-14290333D01*
X-2678945Y-14299889D01*
X-2678945Y-14319000D01*
X-2683723Y-14328444D01*
X-2688501Y-14333222D01*
X-2697945Y-14338000D01*
X-2717056Y-14338000D01*
X-2726612Y-14333222D01*
X-2731278Y-14328444D01*
X-2736056Y-14319000D01*
X-2736056Y-14299889D01*
X-2731278Y-14290333D01*
X-2726612Y-14285667D01*
X-2717056Y-14280889D01*
G04 #@! TO.C,C87*
X13740444Y-5639056D02*
X13745222Y-5634278D01*
X13750000Y-5620056D01*
X13750000Y-5610500D01*
X13745222Y-5596167D01*
X13735667Y-5586723D01*
X13726222Y-5581945D01*
X13707111Y-5577167D01*
X13692889Y-5577167D01*
X13673778Y-5581945D01*
X13664333Y-5586723D01*
X13654778Y-5596167D01*
X13650000Y-5610500D01*
X13650000Y-5620056D01*
X13654778Y-5634278D01*
X13659556Y-5639056D01*
X13692889Y-5688056D02*
X13688111Y-5678612D01*
X13683333Y-5673834D01*
X13673778Y-5669056D01*
X13669000Y-5669056D01*
X13659556Y-5673834D01*
X13654778Y-5678612D01*
X13650000Y-5688056D01*
X13650000Y-5707167D01*
X13654778Y-5716723D01*
X13659556Y-5721389D01*
X13669000Y-5726167D01*
X13673778Y-5726167D01*
X13683333Y-5721389D01*
X13688111Y-5716723D01*
X13692889Y-5707167D01*
X13692889Y-5688056D01*
X13697667Y-5678612D01*
X13702333Y-5673834D01*
X13711889Y-5669056D01*
X13731000Y-5669056D01*
X13740444Y-5673834D01*
X13745222Y-5678612D01*
X13750000Y-5688056D01*
X13750000Y-5707167D01*
X13745222Y-5716723D01*
X13740444Y-5721389D01*
X13731000Y-5726167D01*
X13711889Y-5726167D01*
X13702333Y-5721389D01*
X13697667Y-5716723D01*
X13692889Y-5707167D01*
X13650000Y-5756167D02*
X13650000Y-5822834D01*
X13750000Y-5779945D01*
G04 #@! TO.C,C36*
X-20279556Y-10744417D02*
X-20274778Y-10739639D01*
X-20270000Y-10725417D01*
X-20270000Y-10715861D01*
X-20274778Y-10701528D01*
X-20284333Y-10692084D01*
X-20293778Y-10687306D01*
X-20312889Y-10682528D01*
X-20327111Y-10682528D01*
X-20346222Y-10687306D01*
X-20355667Y-10692084D01*
X-20365222Y-10701528D01*
X-20370000Y-10715861D01*
X-20370000Y-10725417D01*
X-20365222Y-10739639D01*
X-20360444Y-10744417D01*
X-20370000Y-10774417D02*
X-20370000Y-10836306D01*
X-20331889Y-10802973D01*
X-20331889Y-10817306D01*
X-20327111Y-10826750D01*
X-20322333Y-10831528D01*
X-20312889Y-10836306D01*
X-20289000Y-10836306D01*
X-20279556Y-10831528D01*
X-20274778Y-10826750D01*
X-20270000Y-10817306D01*
X-20270000Y-10788750D01*
X-20274778Y-10779195D01*
X-20279556Y-10774417D01*
X-20370000Y-10913973D02*
X-20370000Y-10894862D01*
X-20365222Y-10885306D01*
X-20360444Y-10880639D01*
X-20346222Y-10871084D01*
X-20327111Y-10866306D01*
X-20289000Y-10866306D01*
X-20279556Y-10871084D01*
X-20274778Y-10875862D01*
X-20270000Y-10885306D01*
X-20270000Y-10904417D01*
X-20274778Y-10913973D01*
X-20279556Y-10918639D01*
X-20289000Y-10923417D01*
X-20312889Y-10923417D01*
X-20322333Y-10918639D01*
X-20327111Y-10913973D01*
X-20331889Y-10904417D01*
X-20331889Y-10885306D01*
X-20327111Y-10875862D01*
X-20322333Y-10871084D01*
X-20312889Y-10866306D01*
G04 #@! TO.C,C34*
X-22204556Y-10942056D02*
X-22199778Y-10937278D01*
X-22195000Y-10923056D01*
X-22195000Y-10913500D01*
X-22199778Y-10899167D01*
X-22209333Y-10889723D01*
X-22218778Y-10884945D01*
X-22237889Y-10880167D01*
X-22252111Y-10880167D01*
X-22271222Y-10884945D01*
X-22280667Y-10889723D01*
X-22290222Y-10899167D01*
X-22295000Y-10913500D01*
X-22295000Y-10923056D01*
X-22290222Y-10937278D01*
X-22285444Y-10942056D01*
X-22295000Y-10972056D02*
X-22295000Y-11033945D01*
X-22256889Y-11000612D01*
X-22256889Y-11014945D01*
X-22252111Y-11024389D01*
X-22247333Y-11029167D01*
X-22237889Y-11033945D01*
X-22214000Y-11033945D01*
X-22204556Y-11029167D01*
X-22199778Y-11024389D01*
X-22195000Y-11014945D01*
X-22195000Y-10986389D01*
X-22199778Y-10976834D01*
X-22204556Y-10972056D01*
X-22261667Y-11111612D02*
X-22195000Y-11111612D01*
X-22299778Y-11087723D02*
X-22228333Y-11063945D01*
X-22228333Y-11125834D01*
G04 #@! TO.C,C15*
X-3409556Y-6343834D02*
X-3404778Y-6339056D01*
X-3400000Y-6324834D01*
X-3400000Y-6315278D01*
X-3404778Y-6300945D01*
X-3414333Y-6291501D01*
X-3423778Y-6286723D01*
X-3442889Y-6281945D01*
X-3457111Y-6281945D01*
X-3476222Y-6286723D01*
X-3485667Y-6291501D01*
X-3495222Y-6300945D01*
X-3500000Y-6315278D01*
X-3500000Y-6324834D01*
X-3495222Y-6339056D01*
X-3490444Y-6343834D01*
X-3400000Y-6430945D02*
X-3400000Y-6373834D01*
X-3400000Y-6402390D02*
X-3500000Y-6402390D01*
X-3485667Y-6392834D01*
X-3476222Y-6383390D01*
X-3471444Y-6373834D01*
X-3500000Y-6513278D02*
X-3500000Y-6465723D01*
X-3452333Y-6460945D01*
X-3457111Y-6465723D01*
X-3461889Y-6475278D01*
X-3461889Y-6499056D01*
X-3457111Y-6508612D01*
X-3452333Y-6513278D01*
X-3442889Y-6518056D01*
X-3419000Y-6518056D01*
X-3409556Y-6513278D01*
X-3404778Y-6508612D01*
X-3400000Y-6499056D01*
X-3400000Y-6475278D01*
X-3404778Y-6465723D01*
X-3409556Y-6460945D01*
G04 #@! TO.C,C65*
X4840444Y8083166D02*
X4845222Y8087944D01*
X4850000Y8102166D01*
X4850000Y8111722D01*
X4845222Y8126055D01*
X4835667Y8135499D01*
X4826222Y8140277D01*
X4807111Y8145055D01*
X4792889Y8145055D01*
X4773778Y8140277D01*
X4764333Y8135499D01*
X4754778Y8126055D01*
X4750000Y8111722D01*
X4750000Y8102166D01*
X4754778Y8087944D01*
X4759556Y8083166D01*
X4750000Y8005499D02*
X4750000Y8024610D01*
X4754778Y8034166D01*
X4759556Y8038833D01*
X4773778Y8048388D01*
X4792889Y8053166D01*
X4831000Y8053166D01*
X4840444Y8048388D01*
X4845222Y8043610D01*
X4850000Y8034166D01*
X4850000Y8015055D01*
X4845222Y8005499D01*
X4840444Y8000833D01*
X4831000Y7996055D01*
X4807111Y7996055D01*
X4797667Y8000833D01*
X4792889Y8005499D01*
X4788111Y8015055D01*
X4788111Y8034166D01*
X4792889Y8043610D01*
X4797667Y8048388D01*
X4807111Y8053166D01*
X4750000Y7913722D02*
X4750000Y7961277D01*
X4797667Y7966055D01*
X4792889Y7961277D01*
X4788111Y7951722D01*
X4788111Y7927944D01*
X4792889Y7918388D01*
X4797667Y7913722D01*
X4807111Y7908944D01*
X4831000Y7908944D01*
X4840444Y7913722D01*
X4845222Y7918388D01*
X4850000Y7927944D01*
X4850000Y7951722D01*
X4845222Y7961277D01*
X4840444Y7966055D01*
G04 #@! TO.C,C25*
X-3434556Y11558555D02*
X-3429778Y11563333D01*
X-3425000Y11577555D01*
X-3425000Y11587111D01*
X-3429778Y11601444D01*
X-3439333Y11610888D01*
X-3448778Y11615666D01*
X-3467889Y11620444D01*
X-3482111Y11620444D01*
X-3501222Y11615666D01*
X-3510667Y11610888D01*
X-3520222Y11601444D01*
X-3525000Y11587111D01*
X-3525000Y11577555D01*
X-3520222Y11563333D01*
X-3515444Y11558555D01*
X-3515444Y11523777D02*
X-3520222Y11518999D01*
X-3525000Y11509555D01*
X-3525000Y11485666D01*
X-3520222Y11476222D01*
X-3515444Y11471444D01*
X-3506000Y11466666D01*
X-3496444Y11466666D01*
X-3482111Y11471444D01*
X-3425000Y11528555D01*
X-3425000Y11466666D01*
X-3525000Y11384333D02*
X-3525000Y11431888D01*
X-3477333Y11436666D01*
X-3482111Y11431888D01*
X-3486889Y11422333D01*
X-3486889Y11398555D01*
X-3482111Y11388999D01*
X-3477333Y11384333D01*
X-3467889Y11379555D01*
X-3444000Y11379555D01*
X-3434556Y11384333D01*
X-3429778Y11388999D01*
X-3425000Y11398555D01*
X-3425000Y11422333D01*
X-3429778Y11431888D01*
X-3434556Y11436666D01*
G04 #@! TO.C,C21*
X-5009556Y-1741445D02*
X-5004778Y-1736667D01*
X-5000000Y-1722445D01*
X-5000000Y-1712889D01*
X-5004778Y-1698556D01*
X-5014333Y-1689112D01*
X-5023778Y-1684334D01*
X-5042889Y-1679556D01*
X-5057111Y-1679556D01*
X-5076222Y-1684334D01*
X-5085667Y-1689112D01*
X-5095222Y-1698556D01*
X-5100000Y-1712889D01*
X-5100000Y-1722445D01*
X-5095222Y-1736667D01*
X-5090444Y-1741445D01*
X-5090444Y-1776223D02*
X-5095222Y-1781001D01*
X-5100000Y-1790445D01*
X-5100000Y-1814334D01*
X-5095222Y-1823778D01*
X-5090444Y-1828556D01*
X-5081000Y-1833334D01*
X-5071444Y-1833334D01*
X-5057111Y-1828556D01*
X-5000000Y-1771445D01*
X-5000000Y-1833334D01*
X-5000000Y-1920445D02*
X-5000000Y-1863334D01*
X-5000000Y-1891890D02*
X-5100000Y-1891890D01*
X-5085667Y-1882334D01*
X-5076222Y-1872890D01*
X-5071444Y-1863334D01*
G04 #@! TO.C,C84*
X11040444Y-5641445D02*
X11045222Y-5636667D01*
X11050000Y-5622445D01*
X11050000Y-5612889D01*
X11045222Y-5598556D01*
X11035667Y-5589112D01*
X11026222Y-5584334D01*
X11007111Y-5579556D01*
X10992889Y-5579556D01*
X10973778Y-5584334D01*
X10964333Y-5589112D01*
X10954778Y-5598556D01*
X10950000Y-5612889D01*
X10950000Y-5622445D01*
X10954778Y-5636667D01*
X10959556Y-5641445D01*
X10992889Y-5690445D02*
X10988111Y-5681001D01*
X10983333Y-5676223D01*
X10973778Y-5671445D01*
X10969000Y-5671445D01*
X10959556Y-5676223D01*
X10954778Y-5681001D01*
X10950000Y-5690445D01*
X10950000Y-5709556D01*
X10954778Y-5719112D01*
X10959556Y-5723778D01*
X10969000Y-5728556D01*
X10973778Y-5728556D01*
X10983333Y-5723778D01*
X10988111Y-5719112D01*
X10992889Y-5709556D01*
X10992889Y-5690445D01*
X10997667Y-5681001D01*
X11002333Y-5676223D01*
X11011889Y-5671445D01*
X11031000Y-5671445D01*
X11040444Y-5676223D01*
X11045222Y-5681001D01*
X11050000Y-5690445D01*
X11050000Y-5709556D01*
X11045222Y-5719112D01*
X11040444Y-5723778D01*
X11031000Y-5728556D01*
X11011889Y-5728556D01*
X11002333Y-5723778D01*
X10997667Y-5719112D01*
X10992889Y-5709556D01*
X10983333Y-5806223D02*
X11050000Y-5806223D01*
X10945222Y-5782334D02*
X11016667Y-5758556D01*
X11016667Y-5820445D01*
G04 #@! TO.C,R17*
X-7406667Y6690000D02*
X-7373334Y6737667D01*
X-7349556Y6690000D02*
X-7349556Y6790000D01*
X-7387667Y6790000D01*
X-7397223Y6785222D01*
X-7401889Y6780444D01*
X-7406667Y6771000D01*
X-7406667Y6756667D01*
X-7401889Y6747111D01*
X-7397223Y6742333D01*
X-7387667Y6737667D01*
X-7349556Y6737667D01*
X-7493778Y6690000D02*
X-7436667Y6690000D01*
X-7465223Y6690000D02*
X-7465223Y6790000D01*
X-7455667Y6775667D01*
X-7446223Y6766222D01*
X-7436667Y6761444D01*
X-7523778Y6790000D02*
X-7590445Y6790000D01*
X-7547556Y6690000D01*
G04 #@! TO.C,C23*
X-15834056Y2334556D02*
X-15829278Y2329778D01*
X-15815056Y2325000D01*
X-15805500Y2325000D01*
X-15791167Y2329778D01*
X-15781723Y2339333D01*
X-15776945Y2348778D01*
X-15772167Y2367889D01*
X-15772167Y2382111D01*
X-15776945Y2401222D01*
X-15781723Y2410667D01*
X-15791167Y2420222D01*
X-15805500Y2425000D01*
X-15815056Y2425000D01*
X-15829278Y2420222D01*
X-15834056Y2415444D01*
X-15868834Y2415444D02*
X-15873612Y2420222D01*
X-15883056Y2425000D01*
X-15906945Y2425000D01*
X-15916389Y2420222D01*
X-15921167Y2415444D01*
X-15925945Y2406000D01*
X-15925945Y2396444D01*
X-15921167Y2382111D01*
X-15864056Y2325000D01*
X-15925945Y2325000D01*
X-15955945Y2425000D02*
X-16017834Y2425000D01*
X-15984501Y2386889D01*
X-15998834Y2386889D01*
X-16008278Y2382111D01*
X-16013056Y2377333D01*
X-16017834Y2367889D01*
X-16017834Y2344000D01*
X-16013056Y2334556D01*
X-16008278Y2329778D01*
X-15998834Y2325000D01*
X-15970278Y2325000D01*
X-15960723Y2329778D01*
X-15955945Y2334556D01*
G04 #@! TO.C,C100*
X-6459556Y14399722D02*
X-6454778Y14404500D01*
X-6450000Y14418722D01*
X-6450000Y14428278D01*
X-6454778Y14442611D01*
X-6464333Y14452055D01*
X-6473778Y14456833D01*
X-6492889Y14461611D01*
X-6507111Y14461611D01*
X-6526222Y14456833D01*
X-6535667Y14452055D01*
X-6545222Y14442611D01*
X-6550000Y14428278D01*
X-6550000Y14418722D01*
X-6545222Y14404500D01*
X-6540444Y14399722D01*
X-6450000Y14312611D02*
X-6450000Y14369722D01*
X-6450000Y14341166D02*
X-6550000Y14341166D01*
X-6535667Y14350722D01*
X-6526222Y14360166D01*
X-6521444Y14369722D01*
X-6550000Y14258833D02*
X-6550000Y14249278D01*
X-6545222Y14239722D01*
X-6540444Y14234944D01*
X-6531000Y14230278D01*
X-6511889Y14225500D01*
X-6488111Y14225500D01*
X-6469000Y14230278D01*
X-6459556Y14234944D01*
X-6454778Y14239722D01*
X-6450000Y14249278D01*
X-6450000Y14258833D01*
X-6454778Y14268278D01*
X-6459556Y14273055D01*
X-6469000Y14277833D01*
X-6488111Y14282611D01*
X-6511889Y14282611D01*
X-6531000Y14277833D01*
X-6540444Y14273055D01*
X-6545222Y14268278D01*
X-6550000Y14258833D01*
X-6550000Y14171722D02*
X-6550000Y14162167D01*
X-6545222Y14152611D01*
X-6540444Y14147833D01*
X-6531000Y14143167D01*
X-6511889Y14138389D01*
X-6488111Y14138389D01*
X-6469000Y14143167D01*
X-6459556Y14147833D01*
X-6454778Y14152611D01*
X-6450000Y14162167D01*
X-6450000Y14171722D01*
X-6454778Y14181167D01*
X-6459556Y14185944D01*
X-6469000Y14190722D01*
X-6488111Y14195500D01*
X-6511889Y14195500D01*
X-6531000Y14190722D01*
X-6540444Y14185944D01*
X-6545222Y14181167D01*
X-6550000Y14171722D01*
G04 #@! TO.C,C41*
X-3841445Y-115444D02*
X-3836667Y-120222D01*
X-3822445Y-125000D01*
X-3812889Y-125000D01*
X-3798556Y-120222D01*
X-3789112Y-110667D01*
X-3784334Y-101222D01*
X-3779556Y-82111D01*
X-3779556Y-67889D01*
X-3784334Y-48778D01*
X-3789112Y-39333D01*
X-3798556Y-29778D01*
X-3812889Y-25000D01*
X-3822445Y-25000D01*
X-3836667Y-29778D01*
X-3841445Y-34556D01*
X-3919112Y-58333D02*
X-3919112Y-125000D01*
X-3895223Y-20222D02*
X-3871445Y-91667D01*
X-3933334Y-91667D01*
X-4020445Y-125000D02*
X-3963334Y-125000D01*
X-3991890Y-125000D02*
X-3991890Y-25000D01*
X-3982334Y-39333D01*
X-3972890Y-48778D01*
X-3963334Y-53556D01*
G04 #@! TO.C,R3*
X-19234000Y-4812611D02*
X-19281667Y-4779278D01*
X-19234000Y-4755500D02*
X-19334000Y-4755500D01*
X-19334000Y-4793611D01*
X-19329222Y-4803167D01*
X-19324444Y-4807833D01*
X-19315000Y-4812611D01*
X-19300667Y-4812611D01*
X-19291111Y-4807833D01*
X-19286333Y-4803167D01*
X-19281667Y-4793611D01*
X-19281667Y-4755500D01*
X-19334000Y-4842611D02*
X-19334000Y-4904500D01*
X-19295889Y-4871167D01*
X-19295889Y-4885500D01*
X-19291111Y-4894944D01*
X-19286333Y-4899722D01*
X-19276889Y-4904500D01*
X-19253000Y-4904500D01*
X-19243556Y-4899722D01*
X-19238778Y-4894944D01*
X-19234000Y-4885500D01*
X-19234000Y-4856944D01*
X-19238778Y-4847389D01*
X-19243556Y-4842611D01*
G04 #@! TO.C,C82*
X12840444Y-5641445D02*
X12845222Y-5636667D01*
X12850000Y-5622445D01*
X12850000Y-5612889D01*
X12845222Y-5598556D01*
X12835667Y-5589112D01*
X12826222Y-5584334D01*
X12807111Y-5579556D01*
X12792889Y-5579556D01*
X12773778Y-5584334D01*
X12764333Y-5589112D01*
X12754778Y-5598556D01*
X12750000Y-5612889D01*
X12750000Y-5622445D01*
X12754778Y-5636667D01*
X12759556Y-5641445D01*
X12792889Y-5690445D02*
X12788111Y-5681001D01*
X12783333Y-5676223D01*
X12773778Y-5671445D01*
X12769000Y-5671445D01*
X12759556Y-5676223D01*
X12754778Y-5681001D01*
X12750000Y-5690445D01*
X12750000Y-5709556D01*
X12754778Y-5719112D01*
X12759556Y-5723778D01*
X12769000Y-5728556D01*
X12773778Y-5728556D01*
X12783333Y-5723778D01*
X12788111Y-5719112D01*
X12792889Y-5709556D01*
X12792889Y-5690445D01*
X12797667Y-5681001D01*
X12802333Y-5676223D01*
X12811889Y-5671445D01*
X12831000Y-5671445D01*
X12840444Y-5676223D01*
X12845222Y-5681001D01*
X12850000Y-5690445D01*
X12850000Y-5709556D01*
X12845222Y-5719112D01*
X12840444Y-5723778D01*
X12831000Y-5728556D01*
X12811889Y-5728556D01*
X12802333Y-5723778D01*
X12797667Y-5719112D01*
X12792889Y-5709556D01*
X12759556Y-5763334D02*
X12754778Y-5768112D01*
X12750000Y-5777556D01*
X12750000Y-5801445D01*
X12754778Y-5810889D01*
X12759556Y-5815667D01*
X12769000Y-5820445D01*
X12778556Y-5820445D01*
X12792889Y-5815667D01*
X12850000Y-5758556D01*
X12850000Y-5820445D01*
G04 #@! TO.C,R12*
X-16112056Y-13087000D02*
X-16078723Y-13039333D01*
X-16054945Y-13087000D02*
X-16054945Y-12987000D01*
X-16093056Y-12987000D01*
X-16102612Y-12991778D01*
X-16107278Y-12996556D01*
X-16112056Y-13006000D01*
X-16112056Y-13020333D01*
X-16107278Y-13029889D01*
X-16102612Y-13034667D01*
X-16093056Y-13039333D01*
X-16054945Y-13039333D01*
X-16199167Y-13087000D02*
X-16142056Y-13087000D01*
X-16170612Y-13087000D02*
X-16170612Y-12987000D01*
X-16161056Y-13001333D01*
X-16151612Y-13010778D01*
X-16142056Y-13015556D01*
X-16233945Y-12996556D02*
X-16238723Y-12991778D01*
X-16248167Y-12987000D01*
X-16272056Y-12987000D01*
X-16281500Y-12991778D01*
X-16286278Y-12996556D01*
X-16291056Y-13006000D01*
X-16291056Y-13015556D01*
X-16286278Y-13029889D01*
X-16229167Y-13087000D01*
X-16291056Y-13087000D01*
D13*
G04 #@! TO.C,C9*
X-9695556Y-4623889D02*
X-9647778Y-4576111D01*
X-9600000Y-4433889D01*
X-9600000Y-4338333D01*
X-9647778Y-4195000D01*
X-9743333Y-4100556D01*
X-9837778Y-4052778D01*
X-10028889Y-4005000D01*
X-10171111Y-4005000D01*
X-10362222Y-4052778D01*
X-10456667Y-4100556D01*
X-10552222Y-4195000D01*
X-10600000Y-4338333D01*
X-10600000Y-4433889D01*
X-10552222Y-4576111D01*
X-10504444Y-4623889D01*
X-9600000Y-5119445D02*
X-9600000Y-5309445D01*
X-9647778Y-5405000D01*
X-9695556Y-5452778D01*
X-9837778Y-5547222D01*
X-10028889Y-5595000D01*
X-10410000Y-5595000D01*
X-10504444Y-5547222D01*
X-10552222Y-5500556D01*
X-10600000Y-5405000D01*
X-10600000Y-5213889D01*
X-10552222Y-5119445D01*
X-10504444Y-5071667D01*
X-10410000Y-5023889D01*
X-10171111Y-5023889D01*
X-10076667Y-5071667D01*
X-10028889Y-5119445D01*
X-9981111Y-5213889D01*
X-9981111Y-5405000D01*
X-10028889Y-5500556D01*
X-10076667Y-5547222D01*
X-10171111Y-5595000D01*
D14*
G04 #@! TO.C,C98*
X-1959556Y-1043834D02*
X-1954778Y-1039056D01*
X-1950000Y-1024834D01*
X-1950000Y-1015278D01*
X-1954778Y-1000945D01*
X-1964333Y-991501D01*
X-1973778Y-986723D01*
X-1992889Y-981945D01*
X-2007111Y-981945D01*
X-2026222Y-986723D01*
X-2035667Y-991501D01*
X-2045222Y-1000945D01*
X-2050000Y-1015278D01*
X-2050000Y-1024834D01*
X-2045222Y-1039056D01*
X-2040444Y-1043834D01*
X-1950000Y-1083390D02*
X-1950000Y-1102390D01*
X-1954778Y-1111945D01*
X-1959556Y-1116723D01*
X-1973778Y-1126167D01*
X-1992889Y-1130945D01*
X-2031000Y-1130945D01*
X-2040444Y-1126167D01*
X-2045222Y-1121501D01*
X-2050000Y-1111945D01*
X-2050000Y-1092834D01*
X-2045222Y-1083390D01*
X-2040444Y-1078612D01*
X-2031000Y-1073834D01*
X-2007111Y-1073834D01*
X-1997667Y-1078612D01*
X-1992889Y-1083390D01*
X-1988111Y-1092834D01*
X-1988111Y-1111945D01*
X-1992889Y-1121501D01*
X-1997667Y-1126167D01*
X-2007111Y-1130945D01*
X-2007111Y-1179945D02*
X-2011889Y-1170501D01*
X-2016667Y-1165723D01*
X-2026222Y-1160945D01*
X-2031000Y-1160945D01*
X-2040444Y-1165723D01*
X-2045222Y-1170501D01*
X-2050000Y-1179945D01*
X-2050000Y-1199056D01*
X-2045222Y-1208612D01*
X-2040444Y-1213278D01*
X-2031000Y-1218056D01*
X-2026222Y-1218056D01*
X-2016667Y-1213278D01*
X-2011889Y-1208612D01*
X-2007111Y-1199056D01*
X-2007111Y-1179945D01*
X-2002333Y-1170501D01*
X-1997667Y-1165723D01*
X-1988111Y-1160945D01*
X-1969000Y-1160945D01*
X-1959556Y-1165723D01*
X-1954778Y-1170501D01*
X-1950000Y-1179945D01*
X-1950000Y-1199056D01*
X-1954778Y-1208612D01*
X-1959556Y-1213278D01*
X-1969000Y-1218056D01*
X-1988111Y-1218056D01*
X-1997667Y-1213278D01*
X-2002333Y-1208612D01*
X-2007111Y-1199056D01*
G04 #@! TO.C,C60*
X8156166Y-10912444D02*
X8160944Y-10917222D01*
X8175166Y-10922000D01*
X8184722Y-10922000D01*
X8199055Y-10917222D01*
X8208499Y-10907667D01*
X8213277Y-10898222D01*
X8218055Y-10879111D01*
X8218055Y-10864889D01*
X8213277Y-10845778D01*
X8208499Y-10836333D01*
X8199055Y-10826778D01*
X8184722Y-10822000D01*
X8175166Y-10822000D01*
X8160944Y-10826778D01*
X8156166Y-10831556D01*
X8078499Y-10822000D02*
X8097610Y-10822000D01*
X8107166Y-10826778D01*
X8111833Y-10831556D01*
X8121388Y-10845778D01*
X8126166Y-10864889D01*
X8126166Y-10903000D01*
X8121388Y-10912444D01*
X8116610Y-10917222D01*
X8107166Y-10922000D01*
X8088055Y-10922000D01*
X8078499Y-10917222D01*
X8073833Y-10912444D01*
X8069055Y-10903000D01*
X8069055Y-10879111D01*
X8073833Y-10869667D01*
X8078499Y-10864889D01*
X8088055Y-10860111D01*
X8107166Y-10860111D01*
X8116610Y-10864889D01*
X8121388Y-10869667D01*
X8126166Y-10879111D01*
X8015277Y-10822000D02*
X8005722Y-10822000D01*
X7996166Y-10826778D01*
X7991388Y-10831556D01*
X7986722Y-10841000D01*
X7981944Y-10860111D01*
X7981944Y-10883889D01*
X7986722Y-10903000D01*
X7991388Y-10912444D01*
X7996166Y-10917222D01*
X8005722Y-10922000D01*
X8015277Y-10922000D01*
X8024722Y-10917222D01*
X8029499Y-10912444D01*
X8034277Y-10903000D01*
X8039055Y-10883889D01*
X8039055Y-10860111D01*
X8034277Y-10841000D01*
X8029499Y-10831556D01*
X8024722Y-10826778D01*
X8015277Y-10822000D01*
G04 #@! TO.C,C30*
X-14754445Y6070556D02*
X-14749667Y6065778D01*
X-14735445Y6061000D01*
X-14725889Y6061000D01*
X-14711556Y6065778D01*
X-14702112Y6075333D01*
X-14697334Y6084778D01*
X-14692556Y6103889D01*
X-14692556Y6118111D01*
X-14697334Y6137222D01*
X-14702112Y6146667D01*
X-14711556Y6156222D01*
X-14725889Y6161000D01*
X-14735445Y6161000D01*
X-14749667Y6156222D01*
X-14754445Y6151444D01*
X-14784445Y6161000D02*
X-14846334Y6161000D01*
X-14813001Y6122889D01*
X-14827334Y6122889D01*
X-14836778Y6118111D01*
X-14841556Y6113333D01*
X-14846334Y6103889D01*
X-14846334Y6080000D01*
X-14841556Y6070556D01*
X-14836778Y6065778D01*
X-14827334Y6061000D01*
X-14798778Y6061000D01*
X-14789223Y6065778D01*
X-14784445Y6070556D01*
X-14900112Y6161000D02*
X-14909667Y6161000D01*
X-14919223Y6156222D01*
X-14924001Y6151444D01*
X-14928667Y6142000D01*
X-14933445Y6122889D01*
X-14933445Y6099111D01*
X-14928667Y6080000D01*
X-14924001Y6070556D01*
X-14919223Y6065778D01*
X-14909667Y6061000D01*
X-14900112Y6061000D01*
X-14890667Y6065778D01*
X-14885890Y6070556D01*
X-14881112Y6080000D01*
X-14876334Y6099111D01*
X-14876334Y6122889D01*
X-14881112Y6142000D01*
X-14885890Y6151444D01*
X-14890667Y6156222D01*
X-14900112Y6161000D01*
G04 #@! TO.C,C31*
X-2158445Y6318556D02*
X-2153667Y6313778D01*
X-2139445Y6309000D01*
X-2129889Y6309000D01*
X-2115556Y6313778D01*
X-2106112Y6323333D01*
X-2101334Y6332778D01*
X-2096556Y6351889D01*
X-2096556Y6366111D01*
X-2101334Y6385222D01*
X-2106112Y6394667D01*
X-2115556Y6404222D01*
X-2129889Y6409000D01*
X-2139445Y6409000D01*
X-2153667Y6404222D01*
X-2158445Y6399444D01*
X-2188445Y6409000D02*
X-2250334Y6409000D01*
X-2217001Y6370889D01*
X-2231334Y6370889D01*
X-2240778Y6366111D01*
X-2245556Y6361333D01*
X-2250334Y6351889D01*
X-2250334Y6328000D01*
X-2245556Y6318556D01*
X-2240778Y6313778D01*
X-2231334Y6309000D01*
X-2202778Y6309000D01*
X-2193223Y6313778D01*
X-2188445Y6318556D01*
X-2337445Y6309000D02*
X-2280334Y6309000D01*
X-2308890Y6309000D02*
X-2308890Y6409000D01*
X-2299334Y6394667D01*
X-2289890Y6385222D01*
X-2280334Y6380444D01*
G04 #@! TO.C,R5*
X-6485000Y-4400000D02*
X-6451667Y-4352333D01*
X-6427889Y-4400000D02*
X-6427889Y-4300000D01*
X-6466000Y-4300000D01*
X-6475556Y-4304778D01*
X-6480222Y-4309556D01*
X-6485000Y-4319000D01*
X-6485000Y-4333333D01*
X-6480222Y-4342889D01*
X-6475556Y-4347667D01*
X-6466000Y-4352333D01*
X-6427889Y-4352333D01*
X-6567333Y-4300000D02*
X-6519778Y-4300000D01*
X-6515000Y-4347667D01*
X-6519778Y-4342889D01*
X-6529333Y-4338111D01*
X-6553111Y-4338111D01*
X-6562667Y-4342889D01*
X-6567333Y-4347667D01*
X-6572111Y-4357111D01*
X-6572111Y-4381000D01*
X-6567333Y-4390444D01*
X-6562667Y-4395222D01*
X-6553111Y-4400000D01*
X-6529333Y-4400000D01*
X-6519778Y-4395222D01*
X-6515000Y-4390444D01*
G04 #@! TO.C,R8*
X-16500000Y-4815000D02*
X-16547667Y-4781667D01*
X-16500000Y-4757889D02*
X-16600000Y-4757889D01*
X-16600000Y-4796000D01*
X-16595222Y-4805556D01*
X-16590444Y-4810222D01*
X-16581000Y-4815000D01*
X-16566667Y-4815000D01*
X-16557111Y-4810222D01*
X-16552333Y-4805556D01*
X-16547667Y-4796000D01*
X-16547667Y-4757889D01*
X-16557111Y-4864000D02*
X-16561889Y-4854556D01*
X-16566667Y-4849778D01*
X-16576222Y-4845000D01*
X-16581000Y-4845000D01*
X-16590444Y-4849778D01*
X-16595222Y-4854556D01*
X-16600000Y-4864000D01*
X-16600000Y-4883111D01*
X-16595222Y-4892667D01*
X-16590444Y-4897333D01*
X-16581000Y-4902111D01*
X-16576222Y-4902111D01*
X-16566667Y-4897333D01*
X-16561889Y-4892667D01*
X-16557111Y-4883111D01*
X-16557111Y-4864000D01*
X-16552333Y-4854556D01*
X-16547667Y-4849778D01*
X-16538111Y-4845000D01*
X-16519000Y-4845000D01*
X-16509556Y-4849778D01*
X-16504778Y-4854556D01*
X-16500000Y-4864000D01*
X-16500000Y-4883111D01*
X-16504778Y-4892667D01*
X-16509556Y-4897333D01*
X-16519000Y-4902111D01*
X-16538111Y-4902111D01*
X-16547667Y-4897333D01*
X-16552333Y-4892667D01*
X-16557111Y-4883111D01*
G04 #@! TO.C,C1*
X-2058556Y2136611D02*
X-2053778Y2141389D01*
X-2049000Y2155611D01*
X-2049000Y2165167D01*
X-2053778Y2179500D01*
X-2063333Y2188944D01*
X-2072778Y2193722D01*
X-2091889Y2198500D01*
X-2106111Y2198500D01*
X-2125222Y2193722D01*
X-2134667Y2188944D01*
X-2144222Y2179500D01*
X-2149000Y2165167D01*
X-2149000Y2155611D01*
X-2144222Y2141389D01*
X-2139444Y2136611D01*
X-2049000Y2049500D02*
X-2049000Y2106611D01*
X-2049000Y2078055D02*
X-2149000Y2078055D01*
X-2134667Y2087611D01*
X-2125222Y2097055D01*
X-2120444Y2106611D01*
G04 #@! TO.C,R19*
X-5669445Y8520000D02*
X-5636112Y8567667D01*
X-5612334Y8520000D02*
X-5612334Y8620000D01*
X-5650445Y8620000D01*
X-5660001Y8615222D01*
X-5664667Y8610444D01*
X-5669445Y8601000D01*
X-5669445Y8586667D01*
X-5664667Y8577111D01*
X-5660001Y8572333D01*
X-5650445Y8567667D01*
X-5612334Y8567667D01*
X-5756556Y8520000D02*
X-5699445Y8520000D01*
X-5728001Y8520000D02*
X-5728001Y8620000D01*
X-5718445Y8605667D01*
X-5709001Y8596222D01*
X-5699445Y8591444D01*
X-5796112Y8520000D02*
X-5815112Y8520000D01*
X-5824667Y8524778D01*
X-5829445Y8529556D01*
X-5838889Y8543778D01*
X-5843667Y8562889D01*
X-5843667Y8601000D01*
X-5838889Y8610444D01*
X-5834223Y8615222D01*
X-5824667Y8620000D01*
X-5805556Y8620000D01*
X-5796112Y8615222D01*
X-5791334Y8610444D01*
X-5786556Y8601000D01*
X-5786556Y8577111D01*
X-5791334Y8567667D01*
X-5796112Y8562889D01*
X-5805556Y8558111D01*
X-5824667Y8558111D01*
X-5834223Y8562889D01*
X-5838889Y8567667D01*
X-5843667Y8577111D01*
G04 #@! TO.C,C2*
X-33556Y4115000D02*
X-28778Y4119778D01*
X-24000Y4134000D01*
X-24000Y4143556D01*
X-28778Y4157889D01*
X-38333Y4167333D01*
X-47778Y4172111D01*
X-66889Y4176889D01*
X-81111Y4176889D01*
X-100222Y4172111D01*
X-109667Y4167333D01*
X-119222Y4157889D01*
X-124000Y4143556D01*
X-124000Y4134000D01*
X-119222Y4119778D01*
X-114444Y4115000D01*
X-114444Y4080222D02*
X-119222Y4075444D01*
X-124000Y4066000D01*
X-124000Y4042111D01*
X-119222Y4032667D01*
X-114444Y4027889D01*
X-105000Y4023111D01*
X-95444Y4023111D01*
X-81111Y4027889D01*
X-24000Y4085000D01*
X-24000Y4023111D01*
G04 #@! TO.C,C20*
X-9209556Y-13441445D02*
X-9204778Y-13436667D01*
X-9200000Y-13422445D01*
X-9200000Y-13412889D01*
X-9204778Y-13398556D01*
X-9214333Y-13389112D01*
X-9223778Y-13384334D01*
X-9242889Y-13379556D01*
X-9257111Y-13379556D01*
X-9276222Y-13384334D01*
X-9285667Y-13389112D01*
X-9295222Y-13398556D01*
X-9300000Y-13412889D01*
X-9300000Y-13422445D01*
X-9295222Y-13436667D01*
X-9290444Y-13441445D01*
X-9290444Y-13476223D02*
X-9295222Y-13481001D01*
X-9300000Y-13490445D01*
X-9300000Y-13514334D01*
X-9295222Y-13523778D01*
X-9290444Y-13528556D01*
X-9281000Y-13533334D01*
X-9271444Y-13533334D01*
X-9257111Y-13528556D01*
X-9200000Y-13471445D01*
X-9200000Y-13533334D01*
X-9300000Y-13587112D02*
X-9300000Y-13596667D01*
X-9295222Y-13606223D01*
X-9290444Y-13611001D01*
X-9281000Y-13615667D01*
X-9261889Y-13620445D01*
X-9238111Y-13620445D01*
X-9219000Y-13615667D01*
X-9209556Y-13611001D01*
X-9204778Y-13606223D01*
X-9200000Y-13596667D01*
X-9200000Y-13587112D01*
X-9204778Y-13577667D01*
X-9209556Y-13572890D01*
X-9219000Y-13568112D01*
X-9238111Y-13563334D01*
X-9261889Y-13563334D01*
X-9281000Y-13568112D01*
X-9290444Y-13572890D01*
X-9295222Y-13577667D01*
X-9300000Y-13587112D01*
G04 #@! TO.C,C69*
X-7836834Y7082556D02*
X-7832056Y7077778D01*
X-7817834Y7073000D01*
X-7808278Y7073000D01*
X-7793945Y7077778D01*
X-7784501Y7087333D01*
X-7779723Y7096778D01*
X-7774945Y7115889D01*
X-7774945Y7130111D01*
X-7779723Y7149222D01*
X-7784501Y7158667D01*
X-7793945Y7168222D01*
X-7808278Y7173000D01*
X-7817834Y7173000D01*
X-7832056Y7168222D01*
X-7836834Y7163444D01*
X-7914501Y7173000D02*
X-7895390Y7173000D01*
X-7885834Y7168222D01*
X-7881167Y7163444D01*
X-7871612Y7149222D01*
X-7866834Y7130111D01*
X-7866834Y7092000D01*
X-7871612Y7082556D01*
X-7876390Y7077778D01*
X-7885834Y7073000D01*
X-7904945Y7073000D01*
X-7914501Y7077778D01*
X-7919167Y7082556D01*
X-7923945Y7092000D01*
X-7923945Y7115889D01*
X-7919167Y7125333D01*
X-7914501Y7130111D01*
X-7904945Y7134889D01*
X-7885834Y7134889D01*
X-7876390Y7130111D01*
X-7871612Y7125333D01*
X-7866834Y7115889D01*
X-7963501Y7073000D02*
X-7982501Y7073000D01*
X-7992056Y7077778D01*
X-7996834Y7082556D01*
X-8006278Y7096778D01*
X-8011056Y7115889D01*
X-8011056Y7154000D01*
X-8006278Y7163444D01*
X-8001612Y7168222D01*
X-7992056Y7173000D01*
X-7972945Y7173000D01*
X-7963501Y7168222D01*
X-7958723Y7163444D01*
X-7953945Y7154000D01*
X-7953945Y7130111D01*
X-7958723Y7120667D01*
X-7963501Y7115889D01*
X-7972945Y7111111D01*
X-7992056Y7111111D01*
X-8001612Y7115889D01*
X-8006278Y7120667D01*
X-8011056Y7130111D01*
G04 #@! TO.C,C16*
X-16045834Y-14404444D02*
X-16041056Y-14409222D01*
X-16026834Y-14414000D01*
X-16017278Y-14414000D01*
X-16002945Y-14409222D01*
X-15993501Y-14399667D01*
X-15988723Y-14390222D01*
X-15983945Y-14371111D01*
X-15983945Y-14356889D01*
X-15988723Y-14337778D01*
X-15993501Y-14328333D01*
X-16002945Y-14318778D01*
X-16017278Y-14314000D01*
X-16026834Y-14314000D01*
X-16041056Y-14318778D01*
X-16045834Y-14323556D01*
X-16132945Y-14414000D02*
X-16075834Y-14414000D01*
X-16104390Y-14414000D02*
X-16104390Y-14314000D01*
X-16094834Y-14328333D01*
X-16085390Y-14337778D01*
X-16075834Y-14342556D01*
X-16210612Y-14314000D02*
X-16191501Y-14314000D01*
X-16181945Y-14318778D01*
X-16177278Y-14323556D01*
X-16167723Y-14337778D01*
X-16162945Y-14356889D01*
X-16162945Y-14395000D01*
X-16167723Y-14404444D01*
X-16172501Y-14409222D01*
X-16181945Y-14414000D01*
X-16201056Y-14414000D01*
X-16210612Y-14409222D01*
X-16215278Y-14404444D01*
X-16220056Y-14395000D01*
X-16220056Y-14371111D01*
X-16215278Y-14361667D01*
X-16210612Y-14356889D01*
X-16201056Y-14352111D01*
X-16181945Y-14352111D01*
X-16172501Y-14356889D01*
X-16167723Y-14361667D01*
X-16162945Y-14371111D01*
G04 #@! TO.C,C63*
X7958555Y12083556D02*
X7963333Y12078778D01*
X7977555Y12074000D01*
X7987111Y12074000D01*
X8001444Y12078778D01*
X8010888Y12088333D01*
X8015666Y12097778D01*
X8020444Y12116889D01*
X8020444Y12131111D01*
X8015666Y12150222D01*
X8010888Y12159667D01*
X8001444Y12169222D01*
X7987111Y12174000D01*
X7977555Y12174000D01*
X7963333Y12169222D01*
X7958555Y12164444D01*
X7880888Y12174000D02*
X7899999Y12174000D01*
X7909555Y12169222D01*
X7914222Y12164444D01*
X7923777Y12150222D01*
X7928555Y12131111D01*
X7928555Y12093000D01*
X7923777Y12083556D01*
X7918999Y12078778D01*
X7909555Y12074000D01*
X7890444Y12074000D01*
X7880888Y12078778D01*
X7876222Y12083556D01*
X7871444Y12093000D01*
X7871444Y12116889D01*
X7876222Y12126333D01*
X7880888Y12131111D01*
X7890444Y12135889D01*
X7909555Y12135889D01*
X7918999Y12131111D01*
X7923777Y12126333D01*
X7928555Y12116889D01*
X7841444Y12174000D02*
X7779555Y12174000D01*
X7812888Y12135889D01*
X7798555Y12135889D01*
X7789111Y12131111D01*
X7784333Y12126333D01*
X7779555Y12116889D01*
X7779555Y12093000D01*
X7784333Y12083556D01*
X7789111Y12078778D01*
X7798555Y12074000D01*
X7827111Y12074000D01*
X7836666Y12078778D01*
X7841444Y12083556D01*
G04 #@! TO.C,C39*
X10508555Y8433556D02*
X10513333Y8428778D01*
X10527555Y8424000D01*
X10537111Y8424000D01*
X10551444Y8428778D01*
X10560888Y8438333D01*
X10565666Y8447778D01*
X10570444Y8466889D01*
X10570444Y8481111D01*
X10565666Y8500222D01*
X10560888Y8509667D01*
X10551444Y8519222D01*
X10537111Y8524000D01*
X10527555Y8524000D01*
X10513333Y8519222D01*
X10508555Y8514444D01*
X10478555Y8524000D02*
X10416666Y8524000D01*
X10449999Y8485889D01*
X10435666Y8485889D01*
X10426222Y8481111D01*
X10421444Y8476333D01*
X10416666Y8466889D01*
X10416666Y8443000D01*
X10421444Y8433556D01*
X10426222Y8428778D01*
X10435666Y8424000D01*
X10464222Y8424000D01*
X10473777Y8428778D01*
X10478555Y8433556D01*
X10377110Y8424000D02*
X10358110Y8424000D01*
X10348555Y8428778D01*
X10343777Y8433556D01*
X10334333Y8447778D01*
X10329555Y8466889D01*
X10329555Y8505000D01*
X10334333Y8514444D01*
X10338999Y8519222D01*
X10348555Y8524000D01*
X10367666Y8524000D01*
X10377110Y8519222D01*
X10381888Y8514444D01*
X10386666Y8505000D01*
X10386666Y8481111D01*
X10381888Y8471667D01*
X10377110Y8466889D01*
X10367666Y8462111D01*
X10348555Y8462111D01*
X10338999Y8466889D01*
X10334333Y8471667D01*
X10329555Y8481111D01*
G04 #@! TO.C,C49*
X6758555Y-6591444D02*
X6763333Y-6596222D01*
X6777555Y-6601000D01*
X6787111Y-6601000D01*
X6801444Y-6596222D01*
X6810888Y-6586667D01*
X6815666Y-6577222D01*
X6820444Y-6558111D01*
X6820444Y-6543889D01*
X6815666Y-6524778D01*
X6810888Y-6515333D01*
X6801444Y-6505778D01*
X6787111Y-6501000D01*
X6777555Y-6501000D01*
X6763333Y-6505778D01*
X6758555Y-6510556D01*
X6680888Y-6534333D02*
X6680888Y-6601000D01*
X6704777Y-6496222D02*
X6728555Y-6567667D01*
X6666666Y-6567667D01*
X6627110Y-6601000D02*
X6608110Y-6601000D01*
X6598555Y-6596222D01*
X6593777Y-6591444D01*
X6584333Y-6577222D01*
X6579555Y-6558111D01*
X6579555Y-6520000D01*
X6584333Y-6510556D01*
X6588999Y-6505778D01*
X6598555Y-6501000D01*
X6617666Y-6501000D01*
X6627110Y-6505778D01*
X6631888Y-6510556D01*
X6636666Y-6520000D01*
X6636666Y-6543889D01*
X6631888Y-6553333D01*
X6627110Y-6558111D01*
X6617666Y-6562889D01*
X6598555Y-6562889D01*
X6588999Y-6558111D01*
X6584333Y-6553333D01*
X6579555Y-6543889D01*
G04 #@! TO.C,C62*
X2940444Y7983555D02*
X2945222Y7988333D01*
X2950000Y8002555D01*
X2950000Y8012111D01*
X2945222Y8026444D01*
X2935667Y8035888D01*
X2926222Y8040666D01*
X2907111Y8045444D01*
X2892889Y8045444D01*
X2873778Y8040666D01*
X2864333Y8035888D01*
X2854778Y8026444D01*
X2850000Y8012111D01*
X2850000Y8002555D01*
X2854778Y7988333D01*
X2859556Y7983555D01*
X2850000Y7905888D02*
X2850000Y7924999D01*
X2854778Y7934555D01*
X2859556Y7939222D01*
X2873778Y7948777D01*
X2892889Y7953555D01*
X2931000Y7953555D01*
X2940444Y7948777D01*
X2945222Y7943999D01*
X2950000Y7934555D01*
X2950000Y7915444D01*
X2945222Y7905888D01*
X2940444Y7901222D01*
X2931000Y7896444D01*
X2907111Y7896444D01*
X2897667Y7901222D01*
X2892889Y7905888D01*
X2888111Y7915444D01*
X2888111Y7934555D01*
X2892889Y7943999D01*
X2897667Y7948777D01*
X2907111Y7953555D01*
X2859556Y7861666D02*
X2854778Y7856888D01*
X2850000Y7847444D01*
X2850000Y7823555D01*
X2854778Y7814111D01*
X2859556Y7809333D01*
X2869000Y7804555D01*
X2878556Y7804555D01*
X2892889Y7809333D01*
X2950000Y7866444D01*
X2950000Y7804555D01*
G04 #@! TO.C,C46*
X-859556Y2182555D02*
X-854778Y2187333D01*
X-850000Y2201555D01*
X-850000Y2211111D01*
X-854778Y2225444D01*
X-864333Y2234888D01*
X-873778Y2239666D01*
X-892889Y2244444D01*
X-907111Y2244444D01*
X-926222Y2239666D01*
X-935667Y2234888D01*
X-945222Y2225444D01*
X-950000Y2211111D01*
X-950000Y2201555D01*
X-945222Y2187333D01*
X-940444Y2182555D01*
X-916667Y2104888D02*
X-850000Y2104888D01*
X-954778Y2128777D02*
X-883333Y2152555D01*
X-883333Y2090666D01*
X-950000Y2012999D02*
X-950000Y2032110D01*
X-945222Y2041666D01*
X-940444Y2046333D01*
X-926222Y2055888D01*
X-907111Y2060666D01*
X-869000Y2060666D01*
X-859556Y2055888D01*
X-854778Y2051110D01*
X-850000Y2041666D01*
X-850000Y2022555D01*
X-854778Y2012999D01*
X-859556Y2008333D01*
X-869000Y2003555D01*
X-892889Y2003555D01*
X-902333Y2008333D01*
X-907111Y2012999D01*
X-911889Y2022555D01*
X-911889Y2041666D01*
X-907111Y2051110D01*
X-902333Y2055888D01*
X-892889Y2060666D01*
G04 #@! TO.C,C28*
X-6279445Y-6331444D02*
X-6274667Y-6336222D01*
X-6260445Y-6341000D01*
X-6250889Y-6341000D01*
X-6236556Y-6336222D01*
X-6227112Y-6326667D01*
X-6222334Y-6317222D01*
X-6217556Y-6298111D01*
X-6217556Y-6283889D01*
X-6222334Y-6264778D01*
X-6227112Y-6255333D01*
X-6236556Y-6245778D01*
X-6250889Y-6241000D01*
X-6260445Y-6241000D01*
X-6274667Y-6245778D01*
X-6279445Y-6250556D01*
X-6314223Y-6250556D02*
X-6319001Y-6245778D01*
X-6328445Y-6241000D01*
X-6352334Y-6241000D01*
X-6361778Y-6245778D01*
X-6366556Y-6250556D01*
X-6371334Y-6260000D01*
X-6371334Y-6269556D01*
X-6366556Y-6283889D01*
X-6309445Y-6341000D01*
X-6371334Y-6341000D01*
X-6420334Y-6283889D02*
X-6410890Y-6279111D01*
X-6406112Y-6274333D01*
X-6401334Y-6264778D01*
X-6401334Y-6260000D01*
X-6406112Y-6250556D01*
X-6410890Y-6245778D01*
X-6420334Y-6241000D01*
X-6439445Y-6241000D01*
X-6449001Y-6245778D01*
X-6453667Y-6250556D01*
X-6458445Y-6260000D01*
X-6458445Y-6264778D01*
X-6453667Y-6274333D01*
X-6449001Y-6279111D01*
X-6439445Y-6283889D01*
X-6420334Y-6283889D01*
X-6410890Y-6288667D01*
X-6406112Y-6293333D01*
X-6401334Y-6302889D01*
X-6401334Y-6322000D01*
X-6406112Y-6331444D01*
X-6410890Y-6336222D01*
X-6420334Y-6341000D01*
X-6439445Y-6341000D01*
X-6449001Y-6336222D01*
X-6453667Y-6331444D01*
X-6458445Y-6322000D01*
X-6458445Y-6302889D01*
X-6453667Y-6293333D01*
X-6449001Y-6288667D01*
X-6439445Y-6283889D01*
G04 #@! TO.C,C13*
X-17341445Y-6340444D02*
X-17336667Y-6345222D01*
X-17322445Y-6350000D01*
X-17312889Y-6350000D01*
X-17298556Y-6345222D01*
X-17289112Y-6335667D01*
X-17284334Y-6326222D01*
X-17279556Y-6307111D01*
X-17279556Y-6292889D01*
X-17284334Y-6273778D01*
X-17289112Y-6264333D01*
X-17298556Y-6254778D01*
X-17312889Y-6250000D01*
X-17322445Y-6250000D01*
X-17336667Y-6254778D01*
X-17341445Y-6259556D01*
X-17428556Y-6350000D02*
X-17371445Y-6350000D01*
X-17400001Y-6350000D02*
X-17400001Y-6250000D01*
X-17390445Y-6264333D01*
X-17381001Y-6273778D01*
X-17371445Y-6278556D01*
X-17458556Y-6250000D02*
X-17520445Y-6250000D01*
X-17487112Y-6288111D01*
X-17501445Y-6288111D01*
X-17510889Y-6292889D01*
X-17515667Y-6297667D01*
X-17520445Y-6307111D01*
X-17520445Y-6331000D01*
X-17515667Y-6340444D01*
X-17510889Y-6345222D01*
X-17501445Y-6350000D01*
X-17472889Y-6350000D01*
X-17463334Y-6345222D01*
X-17458556Y-6340444D01*
G04 #@! TO.C,C79*
X-9977556Y2209944D02*
X-9972778Y2214722D01*
X-9968000Y2228944D01*
X-9968000Y2238500D01*
X-9972778Y2252833D01*
X-9982333Y2262277D01*
X-9991778Y2267055D01*
X-10010889Y2271833D01*
X-10025111Y2271833D01*
X-10044222Y2267055D01*
X-10053667Y2262277D01*
X-10063222Y2252833D01*
X-10068000Y2238500D01*
X-10068000Y2228944D01*
X-10063222Y2214722D01*
X-10058444Y2209944D01*
X-10068000Y2179944D02*
X-10068000Y2113277D01*
X-9968000Y2156166D01*
X-9968000Y2073721D02*
X-9968000Y2054721D01*
X-9972778Y2045166D01*
X-9977556Y2040388D01*
X-9991778Y2030944D01*
X-10010889Y2026166D01*
X-10049000Y2026166D01*
X-10058444Y2030944D01*
X-10063222Y2035610D01*
X-10068000Y2045166D01*
X-10068000Y2064277D01*
X-10063222Y2073721D01*
X-10058444Y2078499D01*
X-10049000Y2083277D01*
X-10025111Y2083277D01*
X-10015667Y2078499D01*
X-10010889Y2073721D01*
X-10006111Y2064277D01*
X-10006111Y2045166D01*
X-10010889Y2035610D01*
X-10015667Y2030944D01*
X-10025111Y2026166D01*
G04 #@! TO.C,C64*
X11158555Y10883556D02*
X11163333Y10878778D01*
X11177555Y10874000D01*
X11187111Y10874000D01*
X11201444Y10878778D01*
X11210888Y10888333D01*
X11215666Y10897778D01*
X11220444Y10916889D01*
X11220444Y10931111D01*
X11215666Y10950222D01*
X11210888Y10959667D01*
X11201444Y10969222D01*
X11187111Y10974000D01*
X11177555Y10974000D01*
X11163333Y10969222D01*
X11158555Y10964444D01*
X11080888Y10974000D02*
X11099999Y10974000D01*
X11109555Y10969222D01*
X11114222Y10964444D01*
X11123777Y10950222D01*
X11128555Y10931111D01*
X11128555Y10893000D01*
X11123777Y10883556D01*
X11118999Y10878778D01*
X11109555Y10874000D01*
X11090444Y10874000D01*
X11080888Y10878778D01*
X11076222Y10883556D01*
X11071444Y10893000D01*
X11071444Y10916889D01*
X11076222Y10926333D01*
X11080888Y10931111D01*
X11090444Y10935889D01*
X11109555Y10935889D01*
X11118999Y10931111D01*
X11123777Y10926333D01*
X11128555Y10916889D01*
X10993777Y10940667D02*
X10993777Y10874000D01*
X11017666Y10978778D02*
X11041444Y10907333D01*
X10979555Y10907333D01*
G04 #@! TO.C,R21*
X-20964056Y-2050000D02*
X-20930723Y-2002333D01*
X-20906945Y-2050000D02*
X-20906945Y-1950000D01*
X-20945056Y-1950000D01*
X-20954612Y-1954778D01*
X-20959278Y-1959556D01*
X-20964056Y-1969000D01*
X-20964056Y-1983333D01*
X-20959278Y-1992889D01*
X-20954612Y-1997667D01*
X-20945056Y-2002333D01*
X-20906945Y-2002333D01*
X-20998834Y-1959556D02*
X-21003612Y-1954778D01*
X-21013056Y-1950000D01*
X-21036945Y-1950000D01*
X-21046389Y-1954778D01*
X-21051167Y-1959556D01*
X-21055945Y-1969000D01*
X-21055945Y-1978556D01*
X-21051167Y-1992889D01*
X-20994056Y-2050000D01*
X-21055945Y-2050000D01*
X-21143056Y-2050000D02*
X-21085945Y-2050000D01*
X-21114501Y-2050000D02*
X-21114501Y-1950000D01*
X-21104945Y-1964333D01*
X-21095501Y-1973778D01*
X-21085945Y-1978556D01*
G04 #@! TO.C,R27*
X12690000Y6764722D02*
X12642333Y6798055D01*
X12690000Y6821833D02*
X12590000Y6821833D01*
X12590000Y6783722D01*
X12594778Y6774166D01*
X12599556Y6769500D01*
X12609000Y6764722D01*
X12623333Y6764722D01*
X12632889Y6769500D01*
X12637667Y6774166D01*
X12642333Y6783722D01*
X12642333Y6821833D01*
X12599556Y6729944D02*
X12594778Y6725166D01*
X12590000Y6715722D01*
X12590000Y6691833D01*
X12594778Y6682389D01*
X12599556Y6677611D01*
X12609000Y6672833D01*
X12618556Y6672833D01*
X12632889Y6677611D01*
X12690000Y6734722D01*
X12690000Y6672833D01*
X12590000Y6642833D02*
X12590000Y6576166D01*
X12690000Y6619055D01*
G04 #@! TO.C,C5*
X-3088389Y3884556D02*
X-3083611Y3879778D01*
X-3069389Y3875000D01*
X-3059833Y3875000D01*
X-3045500Y3879778D01*
X-3036056Y3889333D01*
X-3031278Y3898778D01*
X-3026500Y3917889D01*
X-3026500Y3932111D01*
X-3031278Y3951222D01*
X-3036056Y3960667D01*
X-3045500Y3970222D01*
X-3059833Y3975000D01*
X-3069389Y3975000D01*
X-3083611Y3970222D01*
X-3088389Y3965444D01*
X-3170722Y3975000D02*
X-3123167Y3975000D01*
X-3118389Y3927333D01*
X-3123167Y3932111D01*
X-3132722Y3936889D01*
X-3156500Y3936889D01*
X-3166056Y3932111D01*
X-3170722Y3927333D01*
X-3175500Y3917889D01*
X-3175500Y3894000D01*
X-3170722Y3884556D01*
X-3166056Y3879778D01*
X-3156500Y3875000D01*
X-3132722Y3875000D01*
X-3123167Y3879778D01*
X-3118389Y3884556D01*
G04 #@! TO.C,C12*
X-16559556Y-7841445D02*
X-16554778Y-7836667D01*
X-16550000Y-7822445D01*
X-16550000Y-7812889D01*
X-16554778Y-7798556D01*
X-16564333Y-7789112D01*
X-16573778Y-7784334D01*
X-16592889Y-7779556D01*
X-16607111Y-7779556D01*
X-16626222Y-7784334D01*
X-16635667Y-7789112D01*
X-16645222Y-7798556D01*
X-16650000Y-7812889D01*
X-16650000Y-7822445D01*
X-16645222Y-7836667D01*
X-16640444Y-7841445D01*
X-16550000Y-7928556D02*
X-16550000Y-7871445D01*
X-16550000Y-7900001D02*
X-16650000Y-7900001D01*
X-16635667Y-7890445D01*
X-16626222Y-7881001D01*
X-16621444Y-7871445D01*
X-16640444Y-7963334D02*
X-16645222Y-7968112D01*
X-16650000Y-7977556D01*
X-16650000Y-8001445D01*
X-16645222Y-8010889D01*
X-16640444Y-8015667D01*
X-16631000Y-8020445D01*
X-16621444Y-8020445D01*
X-16607111Y-8015667D01*
X-16550000Y-7958556D01*
X-16550000Y-8020445D01*
G04 #@! TO.C,C8*
X3012611Y5934556D02*
X3017389Y5929778D01*
X3031611Y5925000D01*
X3041167Y5925000D01*
X3055500Y5929778D01*
X3064944Y5939333D01*
X3069722Y5948778D01*
X3074500Y5967889D01*
X3074500Y5982111D01*
X3069722Y6001222D01*
X3064944Y6010667D01*
X3055500Y6020222D01*
X3041167Y6025000D01*
X3031611Y6025000D01*
X3017389Y6020222D01*
X3012611Y6015444D01*
X2963611Y5982111D02*
X2973055Y5986889D01*
X2977833Y5991667D01*
X2982611Y6001222D01*
X2982611Y6006000D01*
X2977833Y6015444D01*
X2973055Y6020222D01*
X2963611Y6025000D01*
X2944500Y6025000D01*
X2934944Y6020222D01*
X2930278Y6015444D01*
X2925500Y6006000D01*
X2925500Y6001222D01*
X2930278Y5991667D01*
X2934944Y5986889D01*
X2944500Y5982111D01*
X2963611Y5982111D01*
X2973055Y5977333D01*
X2977833Y5972667D01*
X2982611Y5963111D01*
X2982611Y5944000D01*
X2977833Y5934556D01*
X2973055Y5929778D01*
X2963611Y5925000D01*
X2944500Y5925000D01*
X2934944Y5929778D01*
X2930278Y5934556D01*
X2925500Y5944000D01*
X2925500Y5963111D01*
X2930278Y5972667D01*
X2934944Y5977333D01*
X2944500Y5982111D01*
G04 #@! TO.C,C86*
X9240444Y-5643834D02*
X9245222Y-5639056D01*
X9250000Y-5624834D01*
X9250000Y-5615278D01*
X9245222Y-5600945D01*
X9235667Y-5591501D01*
X9226222Y-5586723D01*
X9207111Y-5581945D01*
X9192889Y-5581945D01*
X9173778Y-5586723D01*
X9164333Y-5591501D01*
X9154778Y-5600945D01*
X9150000Y-5615278D01*
X9150000Y-5624834D01*
X9154778Y-5639056D01*
X9159556Y-5643834D01*
X9192889Y-5692834D02*
X9188111Y-5683390D01*
X9183333Y-5678612D01*
X9173778Y-5673834D01*
X9169000Y-5673834D01*
X9159556Y-5678612D01*
X9154778Y-5683390D01*
X9150000Y-5692834D01*
X9150000Y-5711945D01*
X9154778Y-5721501D01*
X9159556Y-5726167D01*
X9169000Y-5730945D01*
X9173778Y-5730945D01*
X9183333Y-5726167D01*
X9188111Y-5721501D01*
X9192889Y-5711945D01*
X9192889Y-5692834D01*
X9197667Y-5683390D01*
X9202333Y-5678612D01*
X9211889Y-5673834D01*
X9231000Y-5673834D01*
X9240444Y-5678612D01*
X9245222Y-5683390D01*
X9250000Y-5692834D01*
X9250000Y-5711945D01*
X9245222Y-5721501D01*
X9240444Y-5726167D01*
X9231000Y-5730945D01*
X9211889Y-5730945D01*
X9202333Y-5726167D01*
X9197667Y-5721501D01*
X9192889Y-5711945D01*
X9150000Y-5808612D02*
X9150000Y-5789501D01*
X9154778Y-5779945D01*
X9159556Y-5775278D01*
X9173778Y-5765723D01*
X9192889Y-5760945D01*
X9231000Y-5760945D01*
X9240444Y-5765723D01*
X9245222Y-5770501D01*
X9250000Y-5779945D01*
X9250000Y-5799056D01*
X9245222Y-5808612D01*
X9240444Y-5813278D01*
X9231000Y-5818056D01*
X9207111Y-5818056D01*
X9197667Y-5813278D01*
X9192889Y-5808612D01*
X9188111Y-5799056D01*
X9188111Y-5779945D01*
X9192889Y-5770501D01*
X9197667Y-5765723D01*
X9207111Y-5760945D01*
G04 #@! TO.C,C81*
X14640444Y-7243834D02*
X14645222Y-7239056D01*
X14650000Y-7224834D01*
X14650000Y-7215278D01*
X14645222Y-7200945D01*
X14635667Y-7191501D01*
X14626222Y-7186723D01*
X14607111Y-7181945D01*
X14592889Y-7181945D01*
X14573778Y-7186723D01*
X14564333Y-7191501D01*
X14554778Y-7200945D01*
X14550000Y-7215278D01*
X14550000Y-7224834D01*
X14554778Y-7239056D01*
X14559556Y-7243834D01*
X14592889Y-7292834D02*
X14588111Y-7283390D01*
X14583333Y-7278612D01*
X14573778Y-7273834D01*
X14569000Y-7273834D01*
X14559556Y-7278612D01*
X14554778Y-7283390D01*
X14550000Y-7292834D01*
X14550000Y-7311945D01*
X14554778Y-7321501D01*
X14559556Y-7326167D01*
X14569000Y-7330945D01*
X14573778Y-7330945D01*
X14583333Y-7326167D01*
X14588111Y-7321501D01*
X14592889Y-7311945D01*
X14592889Y-7292834D01*
X14597667Y-7283390D01*
X14602333Y-7278612D01*
X14611889Y-7273834D01*
X14631000Y-7273834D01*
X14640444Y-7278612D01*
X14645222Y-7283390D01*
X14650000Y-7292834D01*
X14650000Y-7311945D01*
X14645222Y-7321501D01*
X14640444Y-7326167D01*
X14631000Y-7330945D01*
X14611889Y-7330945D01*
X14602333Y-7326167D01*
X14597667Y-7321501D01*
X14592889Y-7311945D01*
X14650000Y-7418056D02*
X14650000Y-7360945D01*
X14650000Y-7389501D02*
X14550000Y-7389501D01*
X14564333Y-7379945D01*
X14573778Y-7370501D01*
X14578556Y-7360945D01*
G04 #@! TO.C,C68*
X-12043834Y12081556D02*
X-12039056Y12076778D01*
X-12024834Y12072000D01*
X-12015278Y12072000D01*
X-12000945Y12076778D01*
X-11991501Y12086333D01*
X-11986723Y12095778D01*
X-11981945Y12114889D01*
X-11981945Y12129111D01*
X-11986723Y12148222D01*
X-11991501Y12157667D01*
X-12000945Y12167222D01*
X-12015278Y12172000D01*
X-12024834Y12172000D01*
X-12039056Y12167222D01*
X-12043834Y12162444D01*
X-12121501Y12172000D02*
X-12102390Y12172000D01*
X-12092834Y12167222D01*
X-12088167Y12162444D01*
X-12078612Y12148222D01*
X-12073834Y12129111D01*
X-12073834Y12091000D01*
X-12078612Y12081556D01*
X-12083390Y12076778D01*
X-12092834Y12072000D01*
X-12111945Y12072000D01*
X-12121501Y12076778D01*
X-12126167Y12081556D01*
X-12130945Y12091000D01*
X-12130945Y12114889D01*
X-12126167Y12124333D01*
X-12121501Y12129111D01*
X-12111945Y12133889D01*
X-12092834Y12133889D01*
X-12083390Y12129111D01*
X-12078612Y12124333D01*
X-12073834Y12114889D01*
X-12179945Y12129111D02*
X-12170501Y12133889D01*
X-12165723Y12138667D01*
X-12160945Y12148222D01*
X-12160945Y12153000D01*
X-12165723Y12162444D01*
X-12170501Y12167222D01*
X-12179945Y12172000D01*
X-12199056Y12172000D01*
X-12208612Y12167222D01*
X-12213278Y12162444D01*
X-12218056Y12153000D01*
X-12218056Y12148222D01*
X-12213278Y12138667D01*
X-12208612Y12133889D01*
X-12199056Y12129111D01*
X-12179945Y12129111D01*
X-12170501Y12124333D01*
X-12165723Y12119667D01*
X-12160945Y12110111D01*
X-12160945Y12091000D01*
X-12165723Y12081556D01*
X-12170501Y12076778D01*
X-12179945Y12072000D01*
X-12199056Y12072000D01*
X-12208612Y12076778D01*
X-12213278Y12081556D01*
X-12218056Y12091000D01*
X-12218056Y12110111D01*
X-12213278Y12119667D01*
X-12208612Y12124333D01*
X-12199056Y12129111D01*
G04 #@! TO.C,C11*
X-17809556Y-1393834D02*
X-17804778Y-1389056D01*
X-17800000Y-1374834D01*
X-17800000Y-1365278D01*
X-17804778Y-1350945D01*
X-17814333Y-1341501D01*
X-17823778Y-1336723D01*
X-17842889Y-1331945D01*
X-17857111Y-1331945D01*
X-17876222Y-1336723D01*
X-17885667Y-1341501D01*
X-17895222Y-1350945D01*
X-17900000Y-1365278D01*
X-17900000Y-1374834D01*
X-17895222Y-1389056D01*
X-17890444Y-1393834D01*
X-17800000Y-1480945D02*
X-17800000Y-1423834D01*
X-17800000Y-1452390D02*
X-17900000Y-1452390D01*
X-17885667Y-1442834D01*
X-17876222Y-1433390D01*
X-17871444Y-1423834D01*
X-17800000Y-1568056D02*
X-17800000Y-1510945D01*
X-17800000Y-1539501D02*
X-17900000Y-1539501D01*
X-17885667Y-1529945D01*
X-17876222Y-1520501D01*
X-17871444Y-1510945D01*
G04 #@! TO.C,C50*
X-10843834Y6083556D02*
X-10839056Y6078778D01*
X-10824834Y6074000D01*
X-10815278Y6074000D01*
X-10800945Y6078778D01*
X-10791501Y6088333D01*
X-10786723Y6097778D01*
X-10781945Y6116889D01*
X-10781945Y6131111D01*
X-10786723Y6150222D01*
X-10791501Y6159667D01*
X-10800945Y6169222D01*
X-10815278Y6174000D01*
X-10824834Y6174000D01*
X-10839056Y6169222D01*
X-10843834Y6164444D01*
X-10926167Y6174000D02*
X-10878612Y6174000D01*
X-10873834Y6126333D01*
X-10878612Y6131111D01*
X-10888167Y6135889D01*
X-10911945Y6135889D01*
X-10921501Y6131111D01*
X-10926167Y6126333D01*
X-10930945Y6116889D01*
X-10930945Y6093000D01*
X-10926167Y6083556D01*
X-10921501Y6078778D01*
X-10911945Y6074000D01*
X-10888167Y6074000D01*
X-10878612Y6078778D01*
X-10873834Y6083556D01*
X-10984723Y6174000D02*
X-10994278Y6174000D01*
X-11003834Y6169222D01*
X-11008612Y6164444D01*
X-11013278Y6155000D01*
X-11018056Y6135889D01*
X-11018056Y6112111D01*
X-11013278Y6093000D01*
X-11008612Y6083556D01*
X-11003834Y6078778D01*
X-10994278Y6074000D01*
X-10984723Y6074000D01*
X-10975278Y6078778D01*
X-10970501Y6083556D01*
X-10965723Y6093000D01*
X-10960945Y6112111D01*
X-10960945Y6135889D01*
X-10965723Y6155000D01*
X-10970501Y6164444D01*
X-10975278Y6169222D01*
X-10984723Y6174000D01*
G04 #@! TO.C,C70*
X-7639056Y2059556D02*
X-7634278Y2054778D01*
X-7620056Y2050000D01*
X-7610500Y2050000D01*
X-7596167Y2054778D01*
X-7586723Y2064333D01*
X-7581945Y2073778D01*
X-7577167Y2092889D01*
X-7577167Y2107111D01*
X-7581945Y2126222D01*
X-7586723Y2135667D01*
X-7596167Y2145222D01*
X-7610500Y2150000D01*
X-7620056Y2150000D01*
X-7634278Y2145222D01*
X-7639056Y2140444D01*
X-7669056Y2150000D02*
X-7735723Y2150000D01*
X-7692834Y2050000D01*
X-7789501Y2150000D02*
X-7799056Y2150000D01*
X-7808612Y2145222D01*
X-7813390Y2140444D01*
X-7818056Y2131000D01*
X-7822834Y2111889D01*
X-7822834Y2088111D01*
X-7818056Y2069000D01*
X-7813390Y2059556D01*
X-7808612Y2054778D01*
X-7799056Y2050000D01*
X-7789501Y2050000D01*
X-7780056Y2054778D01*
X-7775279Y2059556D01*
X-7770501Y2069000D01*
X-7765723Y2088111D01*
X-7765723Y2111889D01*
X-7770501Y2131000D01*
X-7775279Y2140444D01*
X-7780056Y2145222D01*
X-7789501Y2150000D01*
G04 #@! TO.C,C38*
X8550555Y4371556D02*
X8555333Y4366778D01*
X8569555Y4362000D01*
X8579111Y4362000D01*
X8593444Y4366778D01*
X8602888Y4376333D01*
X8607666Y4385778D01*
X8612444Y4404889D01*
X8612444Y4419111D01*
X8607666Y4438222D01*
X8602888Y4447667D01*
X8593444Y4457222D01*
X8579111Y4462000D01*
X8569555Y4462000D01*
X8555333Y4457222D01*
X8550555Y4452444D01*
X8520555Y4462000D02*
X8458666Y4462000D01*
X8491999Y4423889D01*
X8477666Y4423889D01*
X8468222Y4419111D01*
X8463444Y4414333D01*
X8458666Y4404889D01*
X8458666Y4381000D01*
X8463444Y4371556D01*
X8468222Y4366778D01*
X8477666Y4362000D01*
X8506222Y4362000D01*
X8515777Y4366778D01*
X8520555Y4371556D01*
X8409666Y4419111D02*
X8419110Y4423889D01*
X8423888Y4428667D01*
X8428666Y4438222D01*
X8428666Y4443000D01*
X8423888Y4452444D01*
X8419110Y4457222D01*
X8409666Y4462000D01*
X8390555Y4462000D01*
X8380999Y4457222D01*
X8376333Y4452444D01*
X8371555Y4443000D01*
X8371555Y4438222D01*
X8376333Y4428667D01*
X8380999Y4423889D01*
X8390555Y4419111D01*
X8409666Y4419111D01*
X8419110Y4414333D01*
X8423888Y4409667D01*
X8428666Y4400111D01*
X8428666Y4381000D01*
X8423888Y4371556D01*
X8419110Y4366778D01*
X8409666Y4362000D01*
X8390555Y4362000D01*
X8380999Y4366778D01*
X8376333Y4371556D01*
X8371555Y4381000D01*
X8371555Y4400111D01*
X8376333Y4409667D01*
X8380999Y4414333D01*
X8390555Y4419111D01*
G04 #@! TO.C,R16*
X-3041445Y7800000D02*
X-3008112Y7847667D01*
X-2984334Y7800000D02*
X-2984334Y7900000D01*
X-3022445Y7900000D01*
X-3032001Y7895222D01*
X-3036667Y7890444D01*
X-3041445Y7881000D01*
X-3041445Y7866667D01*
X-3036667Y7857111D01*
X-3032001Y7852333D01*
X-3022445Y7847667D01*
X-2984334Y7847667D01*
X-3128556Y7800000D02*
X-3071445Y7800000D01*
X-3100001Y7800000D02*
X-3100001Y7900000D01*
X-3090445Y7885667D01*
X-3081001Y7876222D01*
X-3071445Y7871444D01*
X-3206223Y7900000D02*
X-3187112Y7900000D01*
X-3177556Y7895222D01*
X-3172889Y7890444D01*
X-3163334Y7876222D01*
X-3158556Y7857111D01*
X-3158556Y7819000D01*
X-3163334Y7809556D01*
X-3168112Y7804778D01*
X-3177556Y7800000D01*
X-3196667Y7800000D01*
X-3206223Y7804778D01*
X-3210889Y7809556D01*
X-3215667Y7819000D01*
X-3215667Y7842889D01*
X-3210889Y7852333D01*
X-3206223Y7857111D01*
X-3196667Y7861889D01*
X-3177556Y7861889D01*
X-3168112Y7857111D01*
X-3163334Y7852333D01*
X-3158556Y7842889D01*
G04 #@! TO.C,C93*
X13740444Y-7241445D02*
X13745222Y-7236667D01*
X13750000Y-7222445D01*
X13750000Y-7212889D01*
X13745222Y-7198556D01*
X13735667Y-7189112D01*
X13726222Y-7184334D01*
X13707111Y-7179556D01*
X13692889Y-7179556D01*
X13673778Y-7184334D01*
X13664333Y-7189112D01*
X13654778Y-7198556D01*
X13650000Y-7212889D01*
X13650000Y-7222445D01*
X13654778Y-7236667D01*
X13659556Y-7241445D01*
X13750000Y-7281001D02*
X13750000Y-7300001D01*
X13745222Y-7309556D01*
X13740444Y-7314334D01*
X13726222Y-7323778D01*
X13707111Y-7328556D01*
X13669000Y-7328556D01*
X13659556Y-7323778D01*
X13654778Y-7319112D01*
X13650000Y-7309556D01*
X13650000Y-7290445D01*
X13654778Y-7281001D01*
X13659556Y-7276223D01*
X13669000Y-7271445D01*
X13692889Y-7271445D01*
X13702333Y-7276223D01*
X13707111Y-7281001D01*
X13711889Y-7290445D01*
X13711889Y-7309556D01*
X13707111Y-7319112D01*
X13702333Y-7323778D01*
X13692889Y-7328556D01*
X13650000Y-7358556D02*
X13650000Y-7420445D01*
X13688111Y-7387112D01*
X13688111Y-7401445D01*
X13692889Y-7410889D01*
X13697667Y-7415667D01*
X13707111Y-7420445D01*
X13731000Y-7420445D01*
X13740444Y-7415667D01*
X13745222Y-7410889D01*
X13750000Y-7401445D01*
X13750000Y-7372889D01*
X13745222Y-7363334D01*
X13740444Y-7358556D01*
G04 #@! TO.C,C77*
X-4834278Y83556D02*
X-4829500Y78778D01*
X-4815278Y74000D01*
X-4805722Y74000D01*
X-4791389Y78778D01*
X-4781945Y88333D01*
X-4777167Y97778D01*
X-4772389Y116889D01*
X-4772389Y131111D01*
X-4777167Y150222D01*
X-4781945Y159667D01*
X-4791389Y169222D01*
X-4805722Y174000D01*
X-4815278Y174000D01*
X-4829500Y169222D01*
X-4834278Y164444D01*
X-4864278Y174000D02*
X-4930945Y174000D01*
X-4888056Y74000D01*
X-4960945Y174000D02*
X-5027612Y174000D01*
X-4984723Y74000D01*
G04 #@! TO.C,C95*
X-20709556Y-4773834D02*
X-20704778Y-4769056D01*
X-20700000Y-4754834D01*
X-20700000Y-4745278D01*
X-20704778Y-4730945D01*
X-20714333Y-4721501D01*
X-20723778Y-4716723D01*
X-20742889Y-4711945D01*
X-20757111Y-4711945D01*
X-20776222Y-4716723D01*
X-20785667Y-4721501D01*
X-20795222Y-4730945D01*
X-20800000Y-4745278D01*
X-20800000Y-4754834D01*
X-20795222Y-4769056D01*
X-20790444Y-4773834D01*
X-20700000Y-4813390D02*
X-20700000Y-4832390D01*
X-20704778Y-4841945D01*
X-20709556Y-4846723D01*
X-20723778Y-4856167D01*
X-20742889Y-4860945D01*
X-20781000Y-4860945D01*
X-20790444Y-4856167D01*
X-20795222Y-4851501D01*
X-20800000Y-4841945D01*
X-20800000Y-4822834D01*
X-20795222Y-4813390D01*
X-20790444Y-4808612D01*
X-20781000Y-4803834D01*
X-20757111Y-4803834D01*
X-20747667Y-4808612D01*
X-20742889Y-4813390D01*
X-20738111Y-4822834D01*
X-20738111Y-4841945D01*
X-20742889Y-4851501D01*
X-20747667Y-4856167D01*
X-20757111Y-4860945D01*
X-20800000Y-4943278D02*
X-20800000Y-4895723D01*
X-20752333Y-4890945D01*
X-20757111Y-4895723D01*
X-20761889Y-4905278D01*
X-20761889Y-4929056D01*
X-20757111Y-4938612D01*
X-20752333Y-4943278D01*
X-20742889Y-4948056D01*
X-20719000Y-4948056D01*
X-20709556Y-4943278D01*
X-20704778Y-4938612D01*
X-20700000Y-4929056D01*
X-20700000Y-4905278D01*
X-20704778Y-4895723D01*
X-20709556Y-4890945D01*
G04 #@! TO.C,C76*
X-4039056Y-1915444D02*
X-4034278Y-1920222D01*
X-4020056Y-1925000D01*
X-4010500Y-1925000D01*
X-3996167Y-1920222D01*
X-3986723Y-1910667D01*
X-3981945Y-1901222D01*
X-3977167Y-1882111D01*
X-3977167Y-1867889D01*
X-3981945Y-1848778D01*
X-3986723Y-1839333D01*
X-3996167Y-1829778D01*
X-4010500Y-1825000D01*
X-4020056Y-1825000D01*
X-4034278Y-1829778D01*
X-4039056Y-1834556D01*
X-4069056Y-1825000D02*
X-4135723Y-1825000D01*
X-4092834Y-1925000D01*
X-4213390Y-1825000D02*
X-4194279Y-1825000D01*
X-4184723Y-1829778D01*
X-4180056Y-1834556D01*
X-4170501Y-1848778D01*
X-4165723Y-1867889D01*
X-4165723Y-1906000D01*
X-4170501Y-1915444D01*
X-4175279Y-1920222D01*
X-4184723Y-1925000D01*
X-4203834Y-1925000D01*
X-4213390Y-1920222D01*
X-4218056Y-1915444D01*
X-4222834Y-1906000D01*
X-4222834Y-1882111D01*
X-4218056Y-1872667D01*
X-4213390Y-1867889D01*
X-4203834Y-1863111D01*
X-4184723Y-1863111D01*
X-4175279Y-1867889D01*
X-4170501Y-1872667D01*
X-4165723Y-1882111D01*
G04 #@! TO.C,C27*
X-7604667Y-3179444D02*
X-7599889Y-3184222D01*
X-7585667Y-3189000D01*
X-7576111Y-3189000D01*
X-7561778Y-3184222D01*
X-7552334Y-3174667D01*
X-7547556Y-3165222D01*
X-7542778Y-3146111D01*
X-7542778Y-3131889D01*
X-7547556Y-3112778D01*
X-7552334Y-3103333D01*
X-7561778Y-3093778D01*
X-7576111Y-3089000D01*
X-7585667Y-3089000D01*
X-7599889Y-3093778D01*
X-7604667Y-3098556D01*
X-7639445Y-3098556D02*
X-7644223Y-3093778D01*
X-7653667Y-3089000D01*
X-7677556Y-3089000D01*
X-7687000Y-3093778D01*
X-7691778Y-3098556D01*
X-7696556Y-3108000D01*
X-7696556Y-3117556D01*
X-7691778Y-3131889D01*
X-7634667Y-3189000D01*
X-7696556Y-3189000D01*
X-7726556Y-3089000D02*
X-7793223Y-3089000D01*
X-7750334Y-3189000D01*
G04 #@! TO.C,C3*
X-2086000Y4784556D02*
X-2081222Y4779778D01*
X-2067000Y4775000D01*
X-2057444Y4775000D01*
X-2043111Y4779778D01*
X-2033667Y4789333D01*
X-2028889Y4798778D01*
X-2024111Y4817889D01*
X-2024111Y4832111D01*
X-2028889Y4851222D01*
X-2033667Y4860667D01*
X-2043111Y4870222D01*
X-2057444Y4875000D01*
X-2067000Y4875000D01*
X-2081222Y4870222D01*
X-2086000Y4865444D01*
X-2116000Y4875000D02*
X-2177889Y4875000D01*
X-2144556Y4836889D01*
X-2158889Y4836889D01*
X-2168333Y4832111D01*
X-2173111Y4827333D01*
X-2177889Y4817889D01*
X-2177889Y4794000D01*
X-2173111Y4784556D01*
X-2168333Y4779778D01*
X-2158889Y4775000D01*
X-2130333Y4775000D01*
X-2120778Y4779778D01*
X-2116000Y4784556D01*
G04 #@! TO.C,C52*
X5941444Y-11017445D02*
X5946222Y-11012667D01*
X5951000Y-10998445D01*
X5951000Y-10988889D01*
X5946222Y-10974556D01*
X5936667Y-10965112D01*
X5927222Y-10960334D01*
X5908111Y-10955556D01*
X5893889Y-10955556D01*
X5874778Y-10960334D01*
X5865333Y-10965112D01*
X5855778Y-10974556D01*
X5851000Y-10988889D01*
X5851000Y-10998445D01*
X5855778Y-11012667D01*
X5860556Y-11017445D01*
X5851000Y-11099778D02*
X5851000Y-11052223D01*
X5898667Y-11047445D01*
X5893889Y-11052223D01*
X5889111Y-11061778D01*
X5889111Y-11085556D01*
X5893889Y-11095112D01*
X5898667Y-11099778D01*
X5908111Y-11104556D01*
X5932000Y-11104556D01*
X5941444Y-11099778D01*
X5946222Y-11095112D01*
X5951000Y-11085556D01*
X5951000Y-11061778D01*
X5946222Y-11052223D01*
X5941444Y-11047445D01*
X5860556Y-11139334D02*
X5855778Y-11144112D01*
X5851000Y-11153556D01*
X5851000Y-11177445D01*
X5855778Y-11186889D01*
X5860556Y-11191667D01*
X5870000Y-11196445D01*
X5879556Y-11196445D01*
X5893889Y-11191667D01*
X5951000Y-11134556D01*
X5951000Y-11196445D01*
G04 #@! TO.C,C58*
X5449444Y2220166D02*
X5454222Y2224944D01*
X5459000Y2239166D01*
X5459000Y2248722D01*
X5454222Y2263055D01*
X5444667Y2272499D01*
X5435222Y2277277D01*
X5416111Y2282055D01*
X5401889Y2282055D01*
X5382778Y2277277D01*
X5373333Y2272499D01*
X5363778Y2263055D01*
X5359000Y2248722D01*
X5359000Y2239166D01*
X5363778Y2224944D01*
X5368556Y2220166D01*
X5359000Y2137833D02*
X5359000Y2185388D01*
X5406667Y2190166D01*
X5401889Y2185388D01*
X5397111Y2175833D01*
X5397111Y2152055D01*
X5401889Y2142499D01*
X5406667Y2137833D01*
X5416111Y2133055D01*
X5440000Y2133055D01*
X5449444Y2137833D01*
X5454222Y2142499D01*
X5459000Y2152055D01*
X5459000Y2175833D01*
X5454222Y2185388D01*
X5449444Y2190166D01*
X5401889Y2084055D02*
X5397111Y2093499D01*
X5392333Y2098277D01*
X5382778Y2103055D01*
X5378000Y2103055D01*
X5368556Y2098277D01*
X5363778Y2093499D01*
X5359000Y2084055D01*
X5359000Y2064944D01*
X5363778Y2055388D01*
X5368556Y2050722D01*
X5378000Y2045944D01*
X5382778Y2045944D01*
X5392333Y2050722D01*
X5397111Y2055388D01*
X5401889Y2064944D01*
X5401889Y2084055D01*
X5406667Y2093499D01*
X5411333Y2098277D01*
X5420889Y2103055D01*
X5440000Y2103055D01*
X5449444Y2098277D01*
X5454222Y2093499D01*
X5459000Y2084055D01*
X5459000Y2064944D01*
X5454222Y2055388D01*
X5449444Y2050722D01*
X5440000Y2045944D01*
X5420889Y2045944D01*
X5411333Y2050722D01*
X5406667Y2055388D01*
X5401889Y2064944D01*
G04 #@! TO.C,C19*
X-11434556Y-13443834D02*
X-11429778Y-13439056D01*
X-11425000Y-13424834D01*
X-11425000Y-13415278D01*
X-11429778Y-13400945D01*
X-11439333Y-13391501D01*
X-11448778Y-13386723D01*
X-11467889Y-13381945D01*
X-11482111Y-13381945D01*
X-11501222Y-13386723D01*
X-11510667Y-13391501D01*
X-11520222Y-13400945D01*
X-11525000Y-13415278D01*
X-11525000Y-13424834D01*
X-11520222Y-13439056D01*
X-11515444Y-13443834D01*
X-11425000Y-13530945D02*
X-11425000Y-13473834D01*
X-11425000Y-13502390D02*
X-11525000Y-13502390D01*
X-11510667Y-13492834D01*
X-11501222Y-13483390D01*
X-11496444Y-13473834D01*
X-11425000Y-13570501D02*
X-11425000Y-13589501D01*
X-11429778Y-13599056D01*
X-11434556Y-13603834D01*
X-11448778Y-13613278D01*
X-11467889Y-13618056D01*
X-11506000Y-13618056D01*
X-11515444Y-13613278D01*
X-11520222Y-13608612D01*
X-11525000Y-13599056D01*
X-11525000Y-13579945D01*
X-11520222Y-13570501D01*
X-11515444Y-13565723D01*
X-11506000Y-13560945D01*
X-11482111Y-13560945D01*
X-11472667Y-13565723D01*
X-11467889Y-13570501D01*
X-11463111Y-13579945D01*
X-11463111Y-13599056D01*
X-11467889Y-13608612D01*
X-11472667Y-13613278D01*
X-11482111Y-13618056D01*
G04 #@! TO.C,C17*
X-16141056Y-10413444D02*
X-16136278Y-10418222D01*
X-16122056Y-10423000D01*
X-16112500Y-10423000D01*
X-16098167Y-10418222D01*
X-16088723Y-10408667D01*
X-16083945Y-10399222D01*
X-16079167Y-10380111D01*
X-16079167Y-10365889D01*
X-16083945Y-10346778D01*
X-16088723Y-10337333D01*
X-16098167Y-10327778D01*
X-16112500Y-10323000D01*
X-16122056Y-10323000D01*
X-16136278Y-10327778D01*
X-16141056Y-10332556D01*
X-16228167Y-10423000D02*
X-16171056Y-10423000D01*
X-16199612Y-10423000D02*
X-16199612Y-10323000D01*
X-16190056Y-10337333D01*
X-16180612Y-10346778D01*
X-16171056Y-10351556D01*
X-16258167Y-10323000D02*
X-16324834Y-10323000D01*
X-16281945Y-10423000D01*
G04 #@! TO.C,C51*
X8940444Y9981166D02*
X8945222Y9985944D01*
X8950000Y10000166D01*
X8950000Y10009722D01*
X8945222Y10024055D01*
X8935667Y10033499D01*
X8926222Y10038277D01*
X8907111Y10043055D01*
X8892889Y10043055D01*
X8873778Y10038277D01*
X8864333Y10033499D01*
X8854778Y10024055D01*
X8850000Y10009722D01*
X8850000Y10000166D01*
X8854778Y9985944D01*
X8859556Y9981166D01*
X8850000Y9898833D02*
X8850000Y9946388D01*
X8897667Y9951166D01*
X8892889Y9946388D01*
X8888111Y9936833D01*
X8888111Y9913055D01*
X8892889Y9903499D01*
X8897667Y9898833D01*
X8907111Y9894055D01*
X8931000Y9894055D01*
X8940444Y9898833D01*
X8945222Y9903499D01*
X8950000Y9913055D01*
X8950000Y9936833D01*
X8945222Y9946388D01*
X8940444Y9951166D01*
X8950000Y9806944D02*
X8950000Y9864055D01*
X8950000Y9835499D02*
X8850000Y9835499D01*
X8864333Y9845055D01*
X8873778Y9854499D01*
X8878556Y9864055D01*
D16*
G04 #@! TO.C,C80*
X380834Y-8652222D02*
X404722Y-8676111D01*
X475834Y-8700000D01*
X523611Y-8700000D01*
X595278Y-8676111D01*
X642500Y-8628333D01*
X666389Y-8581111D01*
X690278Y-8485556D01*
X690278Y-8414444D01*
X666389Y-8318889D01*
X642500Y-8271667D01*
X595278Y-8223889D01*
X523611Y-8200000D01*
X475834Y-8200000D01*
X404722Y-8223889D01*
X380834Y-8247778D01*
X135834Y-8414444D02*
X183056Y-8390556D01*
X206945Y-8366667D01*
X230834Y-8318889D01*
X230834Y-8295000D01*
X206945Y-8247778D01*
X183056Y-8223889D01*
X135834Y-8200000D01*
X40278Y-8200000D01*
X-7499Y-8223889D01*
X-30833Y-8247778D01*
X-54722Y-8295000D01*
X-54722Y-8318889D01*
X-30833Y-8366667D01*
X-7499Y-8390556D01*
X40278Y-8414444D01*
X135834Y-8414444D01*
X183056Y-8438333D01*
X206945Y-8461667D01*
X230834Y-8509444D01*
X230834Y-8605000D01*
X206945Y-8652222D01*
X183056Y-8676111D01*
X135834Y-8700000D01*
X40278Y-8700000D01*
X-7499Y-8676111D01*
X-30833Y-8652222D01*
X-54722Y-8605000D01*
X-54722Y-8509444D01*
X-30833Y-8461667D01*
X-7499Y-8438333D01*
X40278Y-8414444D01*
X-323611Y-8200000D02*
X-371389Y-8200000D01*
X-419166Y-8223889D01*
X-443055Y-8247778D01*
X-466389Y-8295000D01*
X-490278Y-8390556D01*
X-490278Y-8509444D01*
X-466389Y-8605000D01*
X-443055Y-8652222D01*
X-419166Y-8676111D01*
X-371389Y-8700000D01*
X-323611Y-8700000D01*
X-276389Y-8676111D01*
X-252500Y-8652222D01*
X-228611Y-8605000D01*
X-204722Y-8509444D01*
X-204722Y-8390556D01*
X-228611Y-8295000D01*
X-252500Y-8247778D01*
X-276389Y-8223889D01*
X-323611Y-8200000D01*
D14*
G04 #@! TO.C,C7*
X4939444Y-8054611D02*
X4944222Y-8049833D01*
X4949000Y-8035611D01*
X4949000Y-8026055D01*
X4944222Y-8011722D01*
X4934667Y-8002278D01*
X4925222Y-7997500D01*
X4906111Y-7992722D01*
X4891889Y-7992722D01*
X4872778Y-7997500D01*
X4863333Y-8002278D01*
X4853778Y-8011722D01*
X4849000Y-8026055D01*
X4849000Y-8035611D01*
X4853778Y-8049833D01*
X4858556Y-8054611D01*
X4849000Y-8084611D02*
X4849000Y-8151278D01*
X4949000Y-8108389D01*
G04 #@! TO.C,C55*
X5139444Y-1818834D02*
X5144222Y-1814056D01*
X5149000Y-1799834D01*
X5149000Y-1790278D01*
X5144222Y-1775945D01*
X5134667Y-1766501D01*
X5125222Y-1761723D01*
X5106111Y-1756945D01*
X5091889Y-1756945D01*
X5072778Y-1761723D01*
X5063333Y-1766501D01*
X5053778Y-1775945D01*
X5049000Y-1790278D01*
X5049000Y-1799834D01*
X5053778Y-1814056D01*
X5058556Y-1818834D01*
X5049000Y-1901167D02*
X5049000Y-1853612D01*
X5096667Y-1848834D01*
X5091889Y-1853612D01*
X5087111Y-1863167D01*
X5087111Y-1886945D01*
X5091889Y-1896501D01*
X5096667Y-1901167D01*
X5106111Y-1905945D01*
X5130000Y-1905945D01*
X5139444Y-1901167D01*
X5144222Y-1896501D01*
X5149000Y-1886945D01*
X5149000Y-1863167D01*
X5144222Y-1853612D01*
X5139444Y-1848834D01*
X5049000Y-1988278D02*
X5049000Y-1940723D01*
X5096667Y-1935945D01*
X5091889Y-1940723D01*
X5087111Y-1950278D01*
X5087111Y-1974056D01*
X5091889Y-1983612D01*
X5096667Y-1988278D01*
X5106111Y-1993056D01*
X5130000Y-1993056D01*
X5139444Y-1988278D01*
X5144222Y-1983612D01*
X5149000Y-1974056D01*
X5149000Y-1950278D01*
X5144222Y-1940723D01*
X5139444Y-1935945D01*
G04 #@! TO.C,C35*
X-18879556Y-10744445D02*
X-18874778Y-10739667D01*
X-18870000Y-10725445D01*
X-18870000Y-10715889D01*
X-18874778Y-10701556D01*
X-18884333Y-10692112D01*
X-18893778Y-10687334D01*
X-18912889Y-10682556D01*
X-18927111Y-10682556D01*
X-18946222Y-10687334D01*
X-18955667Y-10692112D01*
X-18965222Y-10701556D01*
X-18970000Y-10715889D01*
X-18970000Y-10725445D01*
X-18965222Y-10739667D01*
X-18960444Y-10744445D01*
X-18970000Y-10774445D02*
X-18970000Y-10836334D01*
X-18931889Y-10803001D01*
X-18931889Y-10817334D01*
X-18927111Y-10826778D01*
X-18922333Y-10831556D01*
X-18912889Y-10836334D01*
X-18889000Y-10836334D01*
X-18879556Y-10831556D01*
X-18874778Y-10826778D01*
X-18870000Y-10817334D01*
X-18870000Y-10788778D01*
X-18874778Y-10779223D01*
X-18879556Y-10774445D01*
X-18970000Y-10918667D02*
X-18970000Y-10871112D01*
X-18922333Y-10866334D01*
X-18927111Y-10871112D01*
X-18931889Y-10880667D01*
X-18931889Y-10904445D01*
X-18927111Y-10914001D01*
X-18922333Y-10918667D01*
X-18912889Y-10923445D01*
X-18889000Y-10923445D01*
X-18879556Y-10918667D01*
X-18874778Y-10914001D01*
X-18870000Y-10904445D01*
X-18870000Y-10880667D01*
X-18874778Y-10871112D01*
X-18879556Y-10866334D01*
G04 #@! TO.C,C45*
X-2841445Y-3115444D02*
X-2836667Y-3120222D01*
X-2822445Y-3125000D01*
X-2812889Y-3125000D01*
X-2798556Y-3120222D01*
X-2789112Y-3110667D01*
X-2784334Y-3101222D01*
X-2779556Y-3082111D01*
X-2779556Y-3067889D01*
X-2784334Y-3048778D01*
X-2789112Y-3039333D01*
X-2798556Y-3029778D01*
X-2812889Y-3025000D01*
X-2822445Y-3025000D01*
X-2836667Y-3029778D01*
X-2841445Y-3034556D01*
X-2919112Y-3058333D02*
X-2919112Y-3125000D01*
X-2895223Y-3020222D02*
X-2871445Y-3091667D01*
X-2933334Y-3091667D01*
X-3015667Y-3025000D02*
X-2968112Y-3025000D01*
X-2963334Y-3072667D01*
X-2968112Y-3067889D01*
X-2977667Y-3063111D01*
X-3001445Y-3063111D01*
X-3011001Y-3067889D01*
X-3015667Y-3072667D01*
X-3020445Y-3082111D01*
X-3020445Y-3106000D01*
X-3015667Y-3115444D01*
X-3011001Y-3120222D01*
X-3001445Y-3125000D01*
X-2977667Y-3125000D01*
X-2968112Y-3120222D01*
X-2963334Y-3115444D01*
G04 #@! TO.C,C33*
X-5932056Y6330556D02*
X-5927278Y6325778D01*
X-5913056Y6321000D01*
X-5903500Y6321000D01*
X-5889167Y6325778D01*
X-5879723Y6335333D01*
X-5874945Y6344778D01*
X-5870167Y6363889D01*
X-5870167Y6378111D01*
X-5874945Y6397222D01*
X-5879723Y6406667D01*
X-5889167Y6416222D01*
X-5903500Y6421000D01*
X-5913056Y6421000D01*
X-5927278Y6416222D01*
X-5932056Y6411444D01*
X-5962056Y6421000D02*
X-6023945Y6421000D01*
X-5990612Y6382889D01*
X-6004945Y6382889D01*
X-6014389Y6378111D01*
X-6019167Y6373333D01*
X-6023945Y6363889D01*
X-6023945Y6340000D01*
X-6019167Y6330556D01*
X-6014389Y6325778D01*
X-6004945Y6321000D01*
X-5976389Y6321000D01*
X-5966834Y6325778D01*
X-5962056Y6330556D01*
X-6053945Y6421000D02*
X-6115834Y6421000D01*
X-6082501Y6382889D01*
X-6096834Y6382889D01*
X-6106278Y6378111D01*
X-6111056Y6373333D01*
X-6115834Y6363889D01*
X-6115834Y6340000D01*
X-6111056Y6330556D01*
X-6106278Y6325778D01*
X-6096834Y6321000D01*
X-6068278Y6321000D01*
X-6058723Y6325778D01*
X-6053945Y6330556D01*
G04 #@! TO.C,C57*
X11961944Y83556D02*
X11966722Y78778D01*
X11980944Y74000D01*
X11990500Y74000D01*
X12004833Y78778D01*
X12014277Y88333D01*
X12019055Y97778D01*
X12023833Y116889D01*
X12023833Y131111D01*
X12019055Y150222D01*
X12014277Y159667D01*
X12004833Y169222D01*
X11990500Y174000D01*
X11980944Y174000D01*
X11966722Y169222D01*
X11961944Y164444D01*
X11879611Y174000D02*
X11927166Y174000D01*
X11931944Y126333D01*
X11927166Y131111D01*
X11917611Y135889D01*
X11893833Y135889D01*
X11884277Y131111D01*
X11879611Y126333D01*
X11874833Y116889D01*
X11874833Y93000D01*
X11879611Y83556D01*
X11884277Y78778D01*
X11893833Y74000D01*
X11917611Y74000D01*
X11927166Y78778D01*
X11931944Y83556D01*
X11844833Y174000D02*
X11778166Y174000D01*
X11821055Y74000D01*
D15*
G04 #@! TO.C,L3*
X-5900000Y144222D02*
X-5900000Y239555D01*
X-6100000Y239555D01*
X-6100000Y84222D02*
X-6100000Y-39556D01*
X-6023778Y27111D01*
X-6023778Y-1556D01*
X-6014222Y-20445D01*
X-6004667Y-30000D01*
X-5985778Y-39556D01*
X-5938000Y-39556D01*
X-5919111Y-30000D01*
X-5909556Y-20445D01*
X-5900000Y-1556D01*
X-5900000Y55555D01*
X-5909556Y74666D01*
X-5919111Y84222D01*
D14*
G04 #@! TO.C,C61*
X1956166Y84556D02*
X1960944Y79778D01*
X1975166Y75000D01*
X1984722Y75000D01*
X1999055Y79778D01*
X2008499Y89333D01*
X2013277Y98778D01*
X2018055Y117889D01*
X2018055Y132111D01*
X2013277Y151222D01*
X2008499Y160667D01*
X1999055Y170222D01*
X1984722Y175000D01*
X1975166Y175000D01*
X1960944Y170222D01*
X1956166Y165444D01*
X1878499Y175000D02*
X1897610Y175000D01*
X1907166Y170222D01*
X1911833Y165444D01*
X1921388Y151222D01*
X1926166Y132111D01*
X1926166Y94000D01*
X1921388Y84556D01*
X1916610Y79778D01*
X1907166Y75000D01*
X1888055Y75000D01*
X1878499Y79778D01*
X1873833Y84556D01*
X1869055Y94000D01*
X1869055Y117889D01*
X1873833Y127333D01*
X1878499Y132111D01*
X1888055Y136889D01*
X1907166Y136889D01*
X1916610Y132111D01*
X1921388Y127333D01*
X1926166Y117889D01*
X1781944Y75000D02*
X1839055Y75000D01*
X1810499Y75000D02*
X1810499Y175000D01*
X1820055Y160667D01*
X1829499Y151222D01*
X1839055Y146444D01*
G04 #@! TO.C,C103*
X-10297889Y-9615444D02*
X-10293111Y-9620222D01*
X-10278889Y-9625000D01*
X-10269333Y-9625000D01*
X-10255000Y-9620222D01*
X-10245556Y-9610667D01*
X-10240778Y-9601222D01*
X-10236000Y-9582111D01*
X-10236000Y-9567889D01*
X-10240778Y-9548778D01*
X-10245556Y-9539333D01*
X-10255000Y-9529778D01*
X-10269333Y-9525000D01*
X-10278889Y-9525000D01*
X-10293111Y-9529778D01*
X-10297889Y-9534556D01*
X-10385000Y-9625000D02*
X-10327889Y-9625000D01*
X-10356445Y-9625000D02*
X-10356445Y-9525000D01*
X-10346889Y-9539333D01*
X-10337445Y-9548778D01*
X-10327889Y-9553556D01*
X-10438778Y-9525000D02*
X-10448333Y-9525000D01*
X-10457889Y-9529778D01*
X-10462667Y-9534556D01*
X-10467333Y-9544000D01*
X-10472111Y-9563111D01*
X-10472111Y-9586889D01*
X-10467333Y-9606000D01*
X-10462667Y-9615444D01*
X-10457889Y-9620222D01*
X-10448333Y-9625000D01*
X-10438778Y-9625000D01*
X-10429333Y-9620222D01*
X-10424556Y-9615444D01*
X-10419778Y-9606000D01*
X-10415000Y-9586889D01*
X-10415000Y-9563111D01*
X-10419778Y-9544000D01*
X-10424556Y-9534556D01*
X-10429333Y-9529778D01*
X-10438778Y-9525000D01*
X-10502111Y-9525000D02*
X-10564000Y-9525000D01*
X-10530667Y-9563111D01*
X-10545000Y-9563111D01*
X-10554444Y-9567889D01*
X-10559222Y-9572667D01*
X-10564000Y-9582111D01*
X-10564000Y-9606000D01*
X-10559222Y-9615444D01*
X-10554444Y-9620222D01*
X-10545000Y-9625000D01*
X-10516444Y-9625000D01*
X-10506889Y-9620222D01*
X-10502111Y-9615444D01*
G04 #@! TO.C,R13*
X-14819056Y4335000D02*
X-14785723Y4382667D01*
X-14761945Y4335000D02*
X-14761945Y4435000D01*
X-14800056Y4435000D01*
X-14809612Y4430222D01*
X-14814278Y4425444D01*
X-14819056Y4416000D01*
X-14819056Y4401667D01*
X-14814278Y4392111D01*
X-14809612Y4387333D01*
X-14800056Y4382667D01*
X-14761945Y4382667D01*
X-14906167Y4335000D02*
X-14849056Y4335000D01*
X-14877612Y4335000D02*
X-14877612Y4435000D01*
X-14868056Y4420667D01*
X-14858612Y4411222D01*
X-14849056Y4406444D01*
X-14936167Y4435000D02*
X-14998056Y4435000D01*
X-14964723Y4396889D01*
X-14979056Y4396889D01*
X-14988500Y4392111D01*
X-14993278Y4387333D01*
X-14998056Y4377889D01*
X-14998056Y4354000D01*
X-14993278Y4344556D01*
X-14988500Y4339778D01*
X-14979056Y4335000D01*
X-14950500Y4335000D01*
X-14940945Y4339778D01*
X-14936167Y4344556D01*
G04 #@! TO.C,C85*
X10140444Y-5643834D02*
X10145222Y-5639056D01*
X10150000Y-5624834D01*
X10150000Y-5615278D01*
X10145222Y-5600945D01*
X10135667Y-5591501D01*
X10126222Y-5586723D01*
X10107111Y-5581945D01*
X10092889Y-5581945D01*
X10073778Y-5586723D01*
X10064333Y-5591501D01*
X10054778Y-5600945D01*
X10050000Y-5615278D01*
X10050000Y-5624834D01*
X10054778Y-5639056D01*
X10059556Y-5643834D01*
X10092889Y-5692834D02*
X10088111Y-5683390D01*
X10083333Y-5678612D01*
X10073778Y-5673834D01*
X10069000Y-5673834D01*
X10059556Y-5678612D01*
X10054778Y-5683390D01*
X10050000Y-5692834D01*
X10050000Y-5711945D01*
X10054778Y-5721501D01*
X10059556Y-5726167D01*
X10069000Y-5730945D01*
X10073778Y-5730945D01*
X10083333Y-5726167D01*
X10088111Y-5721501D01*
X10092889Y-5711945D01*
X10092889Y-5692834D01*
X10097667Y-5683390D01*
X10102333Y-5678612D01*
X10111889Y-5673834D01*
X10131000Y-5673834D01*
X10140444Y-5678612D01*
X10145222Y-5683390D01*
X10150000Y-5692834D01*
X10150000Y-5711945D01*
X10145222Y-5721501D01*
X10140444Y-5726167D01*
X10131000Y-5730945D01*
X10111889Y-5730945D01*
X10102333Y-5726167D01*
X10097667Y-5721501D01*
X10092889Y-5711945D01*
X10050000Y-5813278D02*
X10050000Y-5765723D01*
X10097667Y-5760945D01*
X10092889Y-5765723D01*
X10088111Y-5775278D01*
X10088111Y-5799056D01*
X10092889Y-5808612D01*
X10097667Y-5813278D01*
X10107111Y-5818056D01*
X10131000Y-5818056D01*
X10140444Y-5813278D01*
X10145222Y-5808612D01*
X10150000Y-5799056D01*
X10150000Y-5775278D01*
X10145222Y-5765723D01*
X10140444Y-5760945D01*
G04 #@! TO.C,C97*
X-1959556Y660944D02*
X-1954778Y665722D01*
X-1950000Y679944D01*
X-1950000Y689500D01*
X-1954778Y703833D01*
X-1964333Y713277D01*
X-1973778Y718055D01*
X-1992889Y722833D01*
X-2007111Y722833D01*
X-2026222Y718055D01*
X-2035667Y713277D01*
X-2045222Y703833D01*
X-2050000Y689500D01*
X-2050000Y679944D01*
X-2045222Y665722D01*
X-2040444Y660944D01*
X-1950000Y621388D02*
X-1950000Y602388D01*
X-1954778Y592833D01*
X-1959556Y588055D01*
X-1973778Y578611D01*
X-1992889Y573833D01*
X-2031000Y573833D01*
X-2040444Y578611D01*
X-2045222Y583277D01*
X-2050000Y592833D01*
X-2050000Y611944D01*
X-2045222Y621388D01*
X-2040444Y626166D01*
X-2031000Y630944D01*
X-2007111Y630944D01*
X-1997667Y626166D01*
X-1992889Y621388D01*
X-1988111Y611944D01*
X-1988111Y592833D01*
X-1992889Y583277D01*
X-1997667Y578611D01*
X-2007111Y573833D01*
X-2050000Y543833D02*
X-2050000Y477166D01*
X-1950000Y520055D01*
G04 #@! TO.C,T3*
X-21161500Y-342972D02*
X-21218611Y-342972D01*
X-21190056Y-442972D02*
X-21190056Y-342972D01*
X-21248611Y-342972D02*
X-21310500Y-342972D01*
X-21277167Y-381083D01*
X-21291500Y-381083D01*
X-21300944Y-385861D01*
X-21305722Y-390639D01*
X-21310500Y-400083D01*
X-21310500Y-423972D01*
X-21305722Y-433416D01*
X-21300944Y-438194D01*
X-21291500Y-442972D01*
X-21262944Y-442972D01*
X-21253389Y-438194D01*
X-21248611Y-433416D01*
G04 #@! TO.C,C48*
X7155555Y-7112444D02*
X7160333Y-7117222D01*
X7174555Y-7122000D01*
X7184111Y-7122000D01*
X7198444Y-7117222D01*
X7207888Y-7107667D01*
X7212666Y-7098222D01*
X7217444Y-7079111D01*
X7217444Y-7064889D01*
X7212666Y-7045778D01*
X7207888Y-7036333D01*
X7198444Y-7026778D01*
X7184111Y-7022000D01*
X7174555Y-7022000D01*
X7160333Y-7026778D01*
X7155555Y-7031556D01*
X7077888Y-7055333D02*
X7077888Y-7122000D01*
X7101777Y-7017222D02*
X7125555Y-7088667D01*
X7063666Y-7088667D01*
X7014666Y-7064889D02*
X7024110Y-7060111D01*
X7028888Y-7055333D01*
X7033666Y-7045778D01*
X7033666Y-7041000D01*
X7028888Y-7031556D01*
X7024110Y-7026778D01*
X7014666Y-7022000D01*
X6995555Y-7022000D01*
X6985999Y-7026778D01*
X6981333Y-7031556D01*
X6976555Y-7041000D01*
X6976555Y-7045778D01*
X6981333Y-7055333D01*
X6985999Y-7060111D01*
X6995555Y-7064889D01*
X7014666Y-7064889D01*
X7024110Y-7069667D01*
X7028888Y-7074333D01*
X7033666Y-7083889D01*
X7033666Y-7103000D01*
X7028888Y-7112444D01*
X7024110Y-7117222D01*
X7014666Y-7122000D01*
X6995555Y-7122000D01*
X6985999Y-7117222D01*
X6981333Y-7112444D01*
X6976555Y-7103000D01*
X6976555Y-7083889D01*
X6981333Y-7074333D01*
X6985999Y-7069667D01*
X6995555Y-7064889D01*
G04 #@! TO.C,C83*
X11940444Y-5641445D02*
X11945222Y-5636667D01*
X11950000Y-5622445D01*
X11950000Y-5612889D01*
X11945222Y-5598556D01*
X11935667Y-5589112D01*
X11926222Y-5584334D01*
X11907111Y-5579556D01*
X11892889Y-5579556D01*
X11873778Y-5584334D01*
X11864333Y-5589112D01*
X11854778Y-5598556D01*
X11850000Y-5612889D01*
X11850000Y-5622445D01*
X11854778Y-5636667D01*
X11859556Y-5641445D01*
X11892889Y-5690445D02*
X11888111Y-5681001D01*
X11883333Y-5676223D01*
X11873778Y-5671445D01*
X11869000Y-5671445D01*
X11859556Y-5676223D01*
X11854778Y-5681001D01*
X11850000Y-5690445D01*
X11850000Y-5709556D01*
X11854778Y-5719112D01*
X11859556Y-5723778D01*
X11869000Y-5728556D01*
X11873778Y-5728556D01*
X11883333Y-5723778D01*
X11888111Y-5719112D01*
X11892889Y-5709556D01*
X11892889Y-5690445D01*
X11897667Y-5681001D01*
X11902333Y-5676223D01*
X11911889Y-5671445D01*
X11931000Y-5671445D01*
X11940444Y-5676223D01*
X11945222Y-5681001D01*
X11950000Y-5690445D01*
X11950000Y-5709556D01*
X11945222Y-5719112D01*
X11940444Y-5723778D01*
X11931000Y-5728556D01*
X11911889Y-5728556D01*
X11902333Y-5723778D01*
X11897667Y-5719112D01*
X11892889Y-5709556D01*
X11850000Y-5758556D02*
X11850000Y-5820445D01*
X11888111Y-5787112D01*
X11888111Y-5801445D01*
X11892889Y-5810889D01*
X11897667Y-5815667D01*
X11907111Y-5820445D01*
X11931000Y-5820445D01*
X11940444Y-5815667D01*
X11945222Y-5810889D01*
X11950000Y-5801445D01*
X11950000Y-5772889D01*
X11945222Y-5763334D01*
X11940444Y-5758556D01*
G04 #@! TO.C,C89*
X10140444Y-7243834D02*
X10145222Y-7239056D01*
X10150000Y-7224834D01*
X10150000Y-7215278D01*
X10145222Y-7200945D01*
X10135667Y-7191501D01*
X10126222Y-7186723D01*
X10107111Y-7181945D01*
X10092889Y-7181945D01*
X10073778Y-7186723D01*
X10064333Y-7191501D01*
X10054778Y-7200945D01*
X10050000Y-7215278D01*
X10050000Y-7224834D01*
X10054778Y-7239056D01*
X10059556Y-7243834D01*
X10092889Y-7292834D02*
X10088111Y-7283390D01*
X10083333Y-7278612D01*
X10073778Y-7273834D01*
X10069000Y-7273834D01*
X10059556Y-7278612D01*
X10054778Y-7283390D01*
X10050000Y-7292834D01*
X10050000Y-7311945D01*
X10054778Y-7321501D01*
X10059556Y-7326167D01*
X10069000Y-7330945D01*
X10073778Y-7330945D01*
X10083333Y-7326167D01*
X10088111Y-7321501D01*
X10092889Y-7311945D01*
X10092889Y-7292834D01*
X10097667Y-7283390D01*
X10102333Y-7278612D01*
X10111889Y-7273834D01*
X10131000Y-7273834D01*
X10140444Y-7278612D01*
X10145222Y-7283390D01*
X10150000Y-7292834D01*
X10150000Y-7311945D01*
X10145222Y-7321501D01*
X10140444Y-7326167D01*
X10131000Y-7330945D01*
X10111889Y-7330945D01*
X10102333Y-7326167D01*
X10097667Y-7321501D01*
X10092889Y-7311945D01*
X10150000Y-7370501D02*
X10150000Y-7389501D01*
X10145222Y-7399056D01*
X10140444Y-7403834D01*
X10126222Y-7413278D01*
X10107111Y-7418056D01*
X10069000Y-7418056D01*
X10059556Y-7413278D01*
X10054778Y-7408612D01*
X10050000Y-7399056D01*
X10050000Y-7379945D01*
X10054778Y-7370501D01*
X10059556Y-7365723D01*
X10069000Y-7360945D01*
X10092889Y-7360945D01*
X10102333Y-7365723D01*
X10107111Y-7370501D01*
X10111889Y-7379945D01*
X10111889Y-7399056D01*
X10107111Y-7408612D01*
X10102333Y-7413278D01*
X10092889Y-7418056D01*
G04 #@! TO.C,C67*
X4949944Y11083556D02*
X4954722Y11078778D01*
X4968944Y11074000D01*
X4978500Y11074000D01*
X4992833Y11078778D01*
X5002277Y11088333D01*
X5007055Y11097778D01*
X5011833Y11116889D01*
X5011833Y11131111D01*
X5007055Y11150222D01*
X5002277Y11159667D01*
X4992833Y11169222D01*
X4978500Y11174000D01*
X4968944Y11174000D01*
X4954722Y11169222D01*
X4949944Y11164444D01*
X4872277Y11174000D02*
X4891388Y11174000D01*
X4900944Y11169222D01*
X4905611Y11164444D01*
X4915166Y11150222D01*
X4919944Y11131111D01*
X4919944Y11093000D01*
X4915166Y11083556D01*
X4910388Y11078778D01*
X4900944Y11074000D01*
X4881833Y11074000D01*
X4872277Y11078778D01*
X4867611Y11083556D01*
X4862833Y11093000D01*
X4862833Y11116889D01*
X4867611Y11126333D01*
X4872277Y11131111D01*
X4881833Y11135889D01*
X4900944Y11135889D01*
X4910388Y11131111D01*
X4915166Y11126333D01*
X4919944Y11116889D01*
X4832833Y11174000D02*
X4766166Y11174000D01*
X4809055Y11074000D01*
G04 #@! TO.C,C73*
X3089333Y1997556D02*
X3094111Y1992778D01*
X3108333Y1988000D01*
X3117889Y1988000D01*
X3132222Y1992778D01*
X3141666Y2002333D01*
X3146444Y2011778D01*
X3151222Y2030889D01*
X3151222Y2045111D01*
X3146444Y2064222D01*
X3141666Y2073667D01*
X3132222Y2083222D01*
X3117889Y2088000D01*
X3108333Y2088000D01*
X3094111Y2083222D01*
X3089333Y2078444D01*
X3059333Y2088000D02*
X2992666Y2088000D01*
X3035555Y1988000D01*
X2962666Y2088000D02*
X2900777Y2088000D01*
X2934110Y2049889D01*
X2919777Y2049889D01*
X2910333Y2045111D01*
X2905555Y2040333D01*
X2900777Y2030889D01*
X2900777Y2007000D01*
X2905555Y1997556D01*
X2910333Y1992778D01*
X2919777Y1988000D01*
X2948333Y1988000D01*
X2957888Y1992778D01*
X2962666Y1997556D01*
G04 #@! TO.C,C26*
X-2009556Y11558555D02*
X-2004778Y11563333D01*
X-2000000Y11577555D01*
X-2000000Y11587111D01*
X-2004778Y11601444D01*
X-2014333Y11610888D01*
X-2023778Y11615666D01*
X-2042889Y11620444D01*
X-2057111Y11620444D01*
X-2076222Y11615666D01*
X-2085667Y11610888D01*
X-2095222Y11601444D01*
X-2100000Y11587111D01*
X-2100000Y11577555D01*
X-2095222Y11563333D01*
X-2090444Y11558555D01*
X-2090444Y11523777D02*
X-2095222Y11518999D01*
X-2100000Y11509555D01*
X-2100000Y11485666D01*
X-2095222Y11476222D01*
X-2090444Y11471444D01*
X-2081000Y11466666D01*
X-2071444Y11466666D01*
X-2057111Y11471444D01*
X-2000000Y11528555D01*
X-2000000Y11466666D01*
X-2100000Y11388999D02*
X-2100000Y11408110D01*
X-2095222Y11417666D01*
X-2090444Y11422333D01*
X-2076222Y11431888D01*
X-2057111Y11436666D01*
X-2019000Y11436666D01*
X-2009556Y11431888D01*
X-2004778Y11427110D01*
X-2000000Y11417666D01*
X-2000000Y11398555D01*
X-2004778Y11388999D01*
X-2009556Y11384333D01*
X-2019000Y11379555D01*
X-2042889Y11379555D01*
X-2052333Y11384333D01*
X-2057111Y11388999D01*
X-2061889Y11398555D01*
X-2061889Y11417666D01*
X-2057111Y11427110D01*
X-2052333Y11431888D01*
X-2042889Y11436666D01*
G04 #@! TO.C,C101*
X-5459556Y14399722D02*
X-5454778Y14404500D01*
X-5450000Y14418722D01*
X-5450000Y14428278D01*
X-5454778Y14442611D01*
X-5464333Y14452055D01*
X-5473778Y14456833D01*
X-5492889Y14461611D01*
X-5507111Y14461611D01*
X-5526222Y14456833D01*
X-5535667Y14452055D01*
X-5545222Y14442611D01*
X-5550000Y14428278D01*
X-5550000Y14418722D01*
X-5545222Y14404500D01*
X-5540444Y14399722D01*
X-5450000Y14312611D02*
X-5450000Y14369722D01*
X-5450000Y14341166D02*
X-5550000Y14341166D01*
X-5535667Y14350722D01*
X-5526222Y14360166D01*
X-5521444Y14369722D01*
X-5550000Y14258833D02*
X-5550000Y14249278D01*
X-5545222Y14239722D01*
X-5540444Y14234944D01*
X-5531000Y14230278D01*
X-5511889Y14225500D01*
X-5488111Y14225500D01*
X-5469000Y14230278D01*
X-5459556Y14234944D01*
X-5454778Y14239722D01*
X-5450000Y14249278D01*
X-5450000Y14258833D01*
X-5454778Y14268278D01*
X-5459556Y14273055D01*
X-5469000Y14277833D01*
X-5488111Y14282611D01*
X-5511889Y14282611D01*
X-5531000Y14277833D01*
X-5540444Y14273055D01*
X-5545222Y14268278D01*
X-5550000Y14258833D01*
X-5450000Y14138389D02*
X-5450000Y14195500D01*
X-5450000Y14166944D02*
X-5550000Y14166944D01*
X-5535667Y14176500D01*
X-5526222Y14185944D01*
X-5521444Y14195500D01*
G04 #@! TO.C,C10*
X-17543834Y1309556D02*
X-17539056Y1304778D01*
X-17524834Y1300000D01*
X-17515278Y1300000D01*
X-17500945Y1304778D01*
X-17491501Y1314333D01*
X-17486723Y1323778D01*
X-17481945Y1342889D01*
X-17481945Y1357111D01*
X-17486723Y1376222D01*
X-17491501Y1385667D01*
X-17500945Y1395222D01*
X-17515278Y1400000D01*
X-17524834Y1400000D01*
X-17539056Y1395222D01*
X-17543834Y1390444D01*
X-17630945Y1300000D02*
X-17573834Y1300000D01*
X-17602390Y1300000D02*
X-17602390Y1400000D01*
X-17592834Y1385667D01*
X-17583390Y1376222D01*
X-17573834Y1371444D01*
X-17684723Y1400000D02*
X-17694278Y1400000D01*
X-17703834Y1395222D01*
X-17708612Y1390444D01*
X-17713278Y1381000D01*
X-17718056Y1361889D01*
X-17718056Y1338111D01*
X-17713278Y1319000D01*
X-17708612Y1309556D01*
X-17703834Y1304778D01*
X-17694278Y1300000D01*
X-17684723Y1300000D01*
X-17675278Y1304778D01*
X-17670501Y1309556D01*
X-17665723Y1319000D01*
X-17660945Y1338111D01*
X-17660945Y1361889D01*
X-17665723Y1381000D01*
X-17670501Y1390444D01*
X-17675278Y1395222D01*
X-17684723Y1400000D01*
G04 #@! TO.C,R9*
X-17300000Y-1707000D02*
X-17347667Y-1673667D01*
X-17300000Y-1649889D02*
X-17400000Y-1649889D01*
X-17400000Y-1688000D01*
X-17395222Y-1697556D01*
X-17390444Y-1702222D01*
X-17381000Y-1707000D01*
X-17366667Y-1707000D01*
X-17357111Y-1702222D01*
X-17352333Y-1697556D01*
X-17347667Y-1688000D01*
X-17347667Y-1649889D01*
X-17300000Y-1746556D02*
X-17300000Y-1765556D01*
X-17304778Y-1775111D01*
X-17309556Y-1779889D01*
X-17323778Y-1789333D01*
X-17342889Y-1794111D01*
X-17381000Y-1794111D01*
X-17390444Y-1789333D01*
X-17395222Y-1784667D01*
X-17400000Y-1775111D01*
X-17400000Y-1756000D01*
X-17395222Y-1746556D01*
X-17390444Y-1741778D01*
X-17381000Y-1737000D01*
X-17357111Y-1737000D01*
X-17347667Y-1741778D01*
X-17342889Y-1746556D01*
X-17338111Y-1756000D01*
X-17338111Y-1775111D01*
X-17342889Y-1784667D01*
X-17347667Y-1789333D01*
X-17357111Y-1794111D01*
G04 #@! TO.C,C42*
X-1859556Y-2015056D02*
X-1854778Y-2010278D01*
X-1850000Y-1996056D01*
X-1850000Y-1986500D01*
X-1854778Y-1972167D01*
X-1864333Y-1962723D01*
X-1873778Y-1957945D01*
X-1892889Y-1953167D01*
X-1907111Y-1953167D01*
X-1926222Y-1957945D01*
X-1935667Y-1962723D01*
X-1945222Y-1972167D01*
X-1950000Y-1986500D01*
X-1950000Y-1996056D01*
X-1945222Y-2010278D01*
X-1940444Y-2015056D01*
X-1916667Y-2092723D02*
X-1850000Y-2092723D01*
X-1954778Y-2068834D02*
X-1883333Y-2045056D01*
X-1883333Y-2106945D01*
X-1940444Y-2141723D02*
X-1945222Y-2146501D01*
X-1950000Y-2155945D01*
X-1950000Y-2179834D01*
X-1945222Y-2189278D01*
X-1940444Y-2194056D01*
X-1931000Y-2198834D01*
X-1921444Y-2198834D01*
X-1907111Y-2194056D01*
X-1850000Y-2136945D01*
X-1850000Y-2198834D01*
G04 #@! TO.C,C74*
X-836667Y83556D02*
X-831889Y78778D01*
X-817667Y74000D01*
X-808111Y74000D01*
X-793778Y78778D01*
X-784334Y88333D01*
X-779556Y97778D01*
X-774778Y116889D01*
X-774778Y131111D01*
X-779556Y150222D01*
X-784334Y159667D01*
X-793778Y169222D01*
X-808111Y174000D01*
X-817667Y174000D01*
X-831889Y169222D01*
X-836667Y164444D01*
X-866667Y174000D02*
X-933334Y174000D01*
X-890445Y74000D01*
X-1011001Y140667D02*
X-1011001Y74000D01*
X-987112Y178778D02*
X-963334Y107333D01*
X-1025223Y107333D01*
%LPC*%
D17*
G04 #@! TO.C,C66*
X14097000Y-13214000D03*
X15847000Y-13214000D03*
D18*
G04 #@! TO.C,C43*
X-1499000Y-4476000D03*
X-2299000Y-4476000D03*
G04 #@! TO.C,C44*
X-3500000Y-4475000D03*
X-4300000Y-4475000D03*
D19*
G04 #@! TO.C,XTAL2*
X9917000Y3862000D03*
X8017000Y1242000D03*
X9917000Y1242000D03*
X8967000Y3862000D03*
X8017000Y3862000D03*
D18*
G04 #@! TO.C,C71*
X-500000Y-5480000D03*
X300000Y-5480000D03*
D20*
G04 #@! TO.C,VREG1*
X-9855028Y-2925000D03*
X-15405028Y325000D03*
X-15405028Y-7475000D03*
X-15405028Y-1625000D03*
X-9855028Y-4225000D03*
X-15405028Y-8125000D03*
X-9855028Y-6825000D03*
X-15405028Y-2925000D03*
X-9855028Y-3575000D03*
X-9855028Y-975000D03*
X-15405028Y-5525000D03*
X-9855028Y-325000D03*
X-15405028Y-6825000D03*
X-9855028Y-2275000D03*
X-9855028Y-8125000D03*
X-9855028Y325000D03*
X-9855028Y-4875000D03*
X-15405028Y-325000D03*
X-15405028Y-975000D03*
D21*
X-12630028Y-3900000D03*
D20*
X-9855028Y-7475000D03*
X-9855028Y-6175000D03*
X-15405028Y-4875000D03*
X-15405028Y-6175000D03*
X-9855028Y-5525000D03*
X-15405028Y-4225000D03*
X-15405028Y-2275000D03*
X-15405028Y-3575000D03*
X-9855028Y-1625000D03*
D22*
G04 #@! TO.C,J2*
X-24804000Y-10630000D03*
X-24804000Y17310000D03*
X-24804000Y-3010000D03*
X-24804000Y9690000D03*
X-27344000Y-470000D03*
X-27344000Y14770000D03*
X-24804000Y2070000D03*
X-24804000Y12230000D03*
X-24804000Y-8090000D03*
X-24804000Y4610000D03*
X-24804000Y-13170000D03*
X-27344000Y7150000D03*
D23*
X-27344000Y17310000D03*
D22*
X-27344000Y-10630000D03*
X-27344000Y2070000D03*
X-27344000Y-5550000D03*
X-27344000Y4610000D03*
X-27344000Y9690000D03*
X-27344000Y12230000D03*
X-24804000Y14770000D03*
X-24804000Y-15710000D03*
X-27344000Y-18250000D03*
X-27344000Y-3010000D03*
X-24804000Y-18250000D03*
X-24804000Y-470000D03*
X-24804000Y-5550000D03*
X-27344000Y-8090000D03*
X-27344000Y-15710000D03*
X-24804000Y7150000D03*
X-27344000Y-13170000D03*
D18*
G04 #@! TO.C,C59*
X-11499000Y9522000D03*
X-12299000Y9522000D03*
D24*
G04 #@! TO.C,C6*
X3499000Y-5475000D03*
X3499000Y-4675000D03*
D25*
G04 #@! TO.C,C24*
X-6300000Y12375000D03*
X-6300000Y10625000D03*
D26*
G04 #@! TO.C,L4*
X-12098000Y5486000D03*
X-12098000Y3236000D03*
D18*
G04 #@! TO.C,C78*
X-4500000Y2525000D03*
X-3700000Y2525000D03*
D27*
G04 #@! TO.C,VREG2*
X-9213028Y3611000D03*
X-9213028Y5561000D03*
X-4993028Y4261000D03*
X-4993028Y5561000D03*
X-9213028Y4911000D03*
X-4993028Y4911000D03*
X-4993028Y3611000D03*
D28*
X-7103028Y4586000D03*
D27*
X-9213028Y4261000D03*
D24*
G04 #@! TO.C,C88*
X9600000Y-6900000D03*
X9600000Y-7700000D03*
D29*
G04 #@! TO.C,R10*
X-18900000Y-8425000D03*
X-18900000Y-6875000D03*
D18*
G04 #@! TO.C,C56*
X8501000Y-471000D03*
X7701000Y-471000D03*
D30*
G04 #@! TO.C,OSC1*
X6500000Y8524000D03*
X6500000Y7274000D03*
X8150000Y8524000D03*
D31*
X8150000Y7274000D03*
D18*
G04 #@! TO.C,C53*
X11457000Y3528000D03*
X12257000Y3528000D03*
G04 #@! TO.C,C40*
X-3501000Y-2475000D03*
X-2701000Y-2475000D03*
D26*
G04 #@! TO.C,L2*
X-7500000Y-9525000D03*
X-7500000Y-7275000D03*
D24*
G04 #@! TO.C,C99*
X-7000000Y14700000D03*
X-7000000Y13900000D03*
D25*
G04 #@! TO.C,C18*
X-12500000Y-12625000D03*
X-12500000Y-14375000D03*
D18*
G04 #@! TO.C,C32*
X-6393000Y2500000D03*
X-5593000Y2500000D03*
D24*
G04 #@! TO.C,C75*
X-4500000Y-3475000D03*
X-4500000Y-2675000D03*
G04 #@! TO.C,C90*
X11400000Y-6900000D03*
X11400000Y-7700000D03*
D32*
G04 #@! TO.C,R18*
X-3157000Y9240000D03*
X-4707000Y9240000D03*
G04 #@! TO.C,R14*
X-18555000Y4824000D03*
X-17005000Y4824000D03*
D24*
G04 #@! TO.C,C47*
X-3500000Y1525000D03*
X-3500000Y725000D03*
G04 #@! TO.C,C91*
X12300000Y-6900000D03*
X12300000Y-7700000D03*
G04 #@! TO.C,C92*
X13200000Y-6900000D03*
X13200000Y-7700000D03*
G04 #@! TO.C,C54*
X-8470000Y10507000D03*
X-8470000Y11307000D03*
D29*
G04 #@! TO.C,R4*
X-18560000Y-4055000D03*
X-18560000Y-5605000D03*
D33*
G04 #@! TO.C,R15*
X-3400000Y6000000D03*
X-3400000Y6400000D03*
D24*
G04 #@! TO.C,C14*
X-14000000Y-9800000D03*
X-14000000Y-10600000D03*
G04 #@! TO.C,C4*
X-1476000Y3500000D03*
X-1476000Y2700000D03*
D18*
G04 #@! TO.C,C72*
X-501000Y-3476000D03*
X299000Y-3476000D03*
D29*
G04 #@! TO.C,R7*
X-12735000Y-9625000D03*
X-12735000Y-11175000D03*
D34*
G04 #@! TO.C,C22*
X-17070000Y6385000D03*
X-18520000Y6385000D03*
D24*
G04 #@! TO.C,C102*
X-4000000Y14700000D03*
X-4000000Y13900000D03*
G04 #@! TO.C,C37*
X-14200000Y1900000D03*
X-14200000Y2700000D03*
D18*
G04 #@! TO.C,C94*
X12500000Y-12475000D03*
X11700000Y-12475000D03*
D32*
G04 #@! TO.C,R11*
X-16948000Y-11056000D03*
X-15398000Y-11056000D03*
D33*
G04 #@! TO.C,R28*
X-2418000Y-14538000D03*
X-2818000Y-14538000D03*
D24*
G04 #@! TO.C,C87*
X14100000Y-5300000D03*
X14100000Y-6100000D03*
D35*
G04 #@! TO.C,C36*
X-19670000Y-11527972D03*
X-19670000Y-10077972D03*
D25*
G04 #@! TO.C,C34*
X-21270000Y-10128000D03*
X-21270000Y-11878000D03*
D35*
G04 #@! TO.C,C15*
X-4200000Y-5675000D03*
X-4200000Y-7125000D03*
D24*
G04 #@! TO.C,C65*
X5200000Y8427000D03*
X5200000Y7627000D03*
D25*
G04 #@! TO.C,C25*
X-4500000Y12375000D03*
X-4500000Y10625000D03*
D35*
G04 #@! TO.C,C21*
X-5600000Y-1075000D03*
X-5600000Y-2525000D03*
D24*
G04 #@! TO.C,C84*
X11400000Y-5300000D03*
X11400000Y-6100000D03*
D33*
G04 #@! TO.C,R17*
X-7670000Y6490000D03*
X-7270000Y6490000D03*
D18*
G04 #@! TO.C,C23*
X-15495000Y1975000D03*
X-16295000Y1975000D03*
D24*
G04 #@! TO.C,C100*
X-6000000Y14700000D03*
X-6000000Y13900000D03*
D18*
G04 #@! TO.C,C41*
X-3500000Y-475000D03*
X-4300000Y-475000D03*
D29*
G04 #@! TO.C,R3*
X-19934000Y-5605000D03*
X-19934000Y-4055000D03*
D24*
G04 #@! TO.C,C82*
X13200000Y-5300000D03*
X13200000Y-6100000D03*
D32*
G04 #@! TO.C,R12*
X-15398000Y-12387000D03*
X-16948000Y-12387000D03*
D35*
G04 #@! TO.C,C9*
X-8400000Y-5525000D03*
X-8400000Y-4075000D03*
D22*
G04 #@! TO.C,J4*
X-31589000Y19991000D03*
D23*
X-31589000Y22531000D03*
D24*
G04 #@! TO.C,C98*
X-2500000Y-700000D03*
X-2500000Y-1500000D03*
D18*
G04 #@! TO.C,C60*
X8500000Y-10472000D03*
X7700000Y-10472000D03*
D34*
G04 #@! TO.C,C30*
X-15538000Y5461000D03*
X-14088000Y5461000D03*
D18*
G04 #@! TO.C,C31*
X-1817000Y5959000D03*
X-2617000Y5959000D03*
D32*
G04 #@! TO.C,R5*
X-5725000Y-3800000D03*
X-7275000Y-3800000D03*
D29*
G04 #@! TO.C,R8*
X-17200000Y-4055000D03*
X-17200000Y-5605000D03*
D24*
G04 #@! TO.C,C1*
X-2499000Y2524000D03*
X-2499000Y1724000D03*
D32*
G04 #@! TO.C,R19*
X-4953000Y7920000D03*
X-6503000Y7920000D03*
D24*
G04 #@! TO.C,C2*
X-474000Y4500000D03*
X-474000Y3700000D03*
D35*
G04 #@! TO.C,C20*
X-8500000Y-14225000D03*
X-8500000Y-12775000D03*
D18*
G04 #@! TO.C,C69*
X-7493000Y7523000D03*
X-8293000Y7523000D03*
D34*
G04 #@! TO.C,C16*
X-15377000Y-13714000D03*
X-16827000Y-13714000D03*
D22*
G04 #@! TO.C,J6*
X27340000Y-13170000D03*
X27340000Y14770000D03*
X27340000Y2070000D03*
X24800000Y-8090000D03*
X27340000Y12230000D03*
X24800000Y4610000D03*
X27340000Y-15710000D03*
X27340000Y-470000D03*
X24800000Y-3010000D03*
X24800000Y7150000D03*
X24800000Y2070000D03*
X24800000Y12230000D03*
X27340000Y17310000D03*
X27340000Y-8090000D03*
X24800000Y-10630000D03*
X24800000Y-13170000D03*
X27340000Y9690000D03*
X27340000Y-3010000D03*
X24800000Y9690000D03*
X27340000Y-5550000D03*
X24800000Y-470000D03*
X27340000Y-18250000D03*
D23*
X24800000Y17310000D03*
D22*
X24800000Y14770000D03*
X27340000Y7150000D03*
X27340000Y4610000D03*
X24800000Y-18250000D03*
X24800000Y-5550000D03*
X24800000Y-15710000D03*
X27340000Y-10630000D03*
D18*
G04 #@! TO.C,C63*
X7500000Y12524000D03*
X8300000Y12524000D03*
D34*
G04 #@! TO.C,C39*
X11175000Y9124000D03*
X9725000Y9124000D03*
D17*
G04 #@! TO.C,C49*
X5825000Y-5476000D03*
X7575000Y-5476000D03*
D24*
G04 #@! TO.C,C62*
X2500000Y7525000D03*
X2500000Y8325000D03*
G04 #@! TO.C,C46*
X-500000Y2524000D03*
X-500000Y1724000D03*
D34*
G04 #@! TO.C,C28*
X-5613000Y-5641000D03*
X-7063000Y-5641000D03*
D18*
G04 #@! TO.C,C13*
X-17800000Y-6700000D03*
X-17000000Y-6700000D03*
D24*
G04 #@! TO.C,C79*
X-9618000Y2549000D03*
X-9618000Y1749000D03*
D18*
G04 #@! TO.C,C64*
X11500000Y10524000D03*
X10700000Y10524000D03*
D32*
G04 #@! TO.C,R21*
X-21800000Y-2650000D03*
X-20250000Y-2650000D03*
D36*
G04 #@! TO.C,R27*
X11665000Y7674000D03*
X11665000Y5724000D03*
D18*
G04 #@! TO.C,C5*
X-3501000Y3525000D03*
X-2701000Y3525000D03*
D24*
G04 #@! TO.C,C12*
X-17000000Y-8300000D03*
X-17000000Y-7500000D03*
D17*
G04 #@! TO.C,C8*
X3875000Y5000000D03*
X2125000Y5000000D03*
D24*
G04 #@! TO.C,C86*
X9600000Y-5300000D03*
X9600000Y-6100000D03*
G04 #@! TO.C,C81*
X15000000Y-6900000D03*
X15000000Y-7700000D03*
D18*
G04 #@! TO.C,C68*
X-12500000Y12522000D03*
X-11700000Y12522000D03*
D35*
G04 #@! TO.C,C11*
X-18300000Y-1025000D03*
X-18300000Y-2475000D03*
D18*
G04 #@! TO.C,C50*
X-10500000Y6524000D03*
X-11300000Y6524000D03*
G04 #@! TO.C,C70*
X-8100000Y2500000D03*
X-7300000Y2500000D03*
G04 #@! TO.C,C38*
X8092000Y4812000D03*
X8892000Y4812000D03*
D33*
G04 #@! TO.C,R16*
X-2900000Y7600000D03*
X-3300000Y7600000D03*
D24*
G04 #@! TO.C,C93*
X14100000Y-6900000D03*
X14100000Y-7700000D03*
D18*
G04 #@! TO.C,C77*
X-4500000Y524000D03*
X-5300000Y524000D03*
D37*
G04 #@! TO.C,J1*
X26202000Y27340000D03*
X-14438000Y24800000D03*
X-19518000Y27340000D03*
X26202000Y24800000D03*
X-1738000Y24800000D03*
X5882000Y27340000D03*
X-19518000Y24800000D03*
X-4278000Y24800000D03*
X28742000Y27340000D03*
X-16978000Y27340000D03*
X23662000Y27340000D03*
X10962000Y27340000D03*
X13502000Y24800000D03*
D38*
X-24598000Y24800000D03*
D37*
X10962000Y24800000D03*
X16042000Y27340000D03*
X-22058000Y24800000D03*
X5882000Y24800000D03*
X3342000Y27340000D03*
X-24598000Y27340000D03*
X8422000Y27340000D03*
X-6818000Y27340000D03*
X802000Y27340000D03*
X21122000Y27340000D03*
X28742000Y24800000D03*
X-9358000Y24800000D03*
X16042000Y24800000D03*
X-22058000Y27340000D03*
X8422000Y24800000D03*
X-16978000Y24800000D03*
X-11898000Y24800000D03*
X18582000Y24800000D03*
X-1738000Y27340000D03*
X21122000Y24800000D03*
X802000Y24800000D03*
X-4278000Y27340000D03*
X18582000Y27340000D03*
X3342000Y24800000D03*
X-6818000Y24800000D03*
X13502000Y27340000D03*
X-11898000Y27340000D03*
X-9358000Y27340000D03*
X23662000Y24800000D03*
X-14438000Y27340000D03*
D35*
G04 #@! TO.C,C95*
X-21400000Y-5555000D03*
X-21400000Y-4105000D03*
D18*
G04 #@! TO.C,C76*
X-4500000Y-1475000D03*
X-3700000Y-1475000D03*
D34*
G04 #@! TO.C,C27*
X-6943000Y-2489000D03*
X-8393000Y-2489000D03*
D18*
G04 #@! TO.C,C3*
X-2501000Y4525000D03*
X-1701000Y4525000D03*
D24*
G04 #@! TO.C,C52*
X5501000Y-11476000D03*
X5501000Y-10676000D03*
G04 #@! TO.C,C58*
X5809000Y2564000D03*
X5809000Y1764000D03*
D25*
G04 #@! TO.C,C19*
X-10500000Y-12625000D03*
X-10500000Y-14375000D03*
D34*
G04 #@! TO.C,C17*
X-16927000Y-9723000D03*
X-15477000Y-9723000D03*
D24*
G04 #@! TO.C,C51*
X8500000Y9525000D03*
X8500000Y10325000D03*
D39*
G04 #@! TO.C,C80*
X-2775000Y-11000000D03*
X2975000Y-11000000D03*
D24*
G04 #@! TO.C,C7*
X4499000Y-8472000D03*
X4499000Y-7672000D03*
G04 #@! TO.C,C55*
X5499000Y-1475000D03*
X5499000Y-2275000D03*
D22*
G04 #@! TO.C,J8*
X15040000Y-20070000D03*
D23*
X15040000Y-17530000D03*
D35*
G04 #@! TO.C,C35*
X-18270000Y-11528000D03*
X-18270000Y-10078000D03*
D18*
G04 #@! TO.C,C45*
X-2500000Y-3475000D03*
X-3300000Y-3475000D03*
G04 #@! TO.C,C33*
X-5593000Y6771000D03*
X-6393000Y6771000D03*
G04 #@! TO.C,C57*
X11501000Y524000D03*
X12301000Y524000D03*
D26*
G04 #@! TO.C,L3*
X-7500000Y1225000D03*
X-7500000Y-1025000D03*
D18*
G04 #@! TO.C,C61*
X1500000Y525000D03*
X2300000Y525000D03*
D17*
G04 #@! TO.C,C103*
X-11275000Y-10600000D03*
X-9525000Y-10600000D03*
D32*
G04 #@! TO.C,R13*
X-14105000Y3735000D03*
X-15655000Y3735000D03*
D24*
G04 #@! TO.C,C85*
X10500000Y-5300000D03*
X10500000Y-6100000D03*
G04 #@! TO.C,C97*
X-2500000Y1000000D03*
X-2500000Y200000D03*
D40*
G04 #@! TO.C,T3*
X-21236000Y1392028D03*
X-22186000Y-557972D03*
X-20286000Y-557972D03*
D18*
G04 #@! TO.C,C48*
X7497000Y-7472000D03*
X6697000Y-7472000D03*
D24*
G04 #@! TO.C,C83*
X12300000Y-5300000D03*
X12300000Y-6100000D03*
G04 #@! TO.C,C89*
X10500000Y-6900000D03*
X10500000Y-7700000D03*
D22*
G04 #@! TO.C,J3*
X33070000Y-10630000D03*
X33070000Y17310000D03*
X33070000Y-3010000D03*
X33070000Y9690000D03*
X30530000Y-470000D03*
X30530000Y14770000D03*
X33070000Y2070000D03*
X33070000Y12230000D03*
X33070000Y-8090000D03*
X33070000Y4610000D03*
X33070000Y-13170000D03*
X30530000Y7150000D03*
D23*
X30530000Y17310000D03*
D22*
X30530000Y-10630000D03*
X30530000Y2070000D03*
X30530000Y-5550000D03*
X30530000Y4610000D03*
X30530000Y9690000D03*
X30530000Y12230000D03*
X33070000Y14770000D03*
X33070000Y-15710000D03*
X30530000Y-18250000D03*
X30530000Y-3010000D03*
X33070000Y-18250000D03*
X33070000Y-470000D03*
X33070000Y-5550000D03*
X30530000Y-8090000D03*
X30530000Y-15710000D03*
X33070000Y7150000D03*
X30530000Y-13170000D03*
D18*
G04 #@! TO.C,C67*
X4489000Y11524000D03*
X5289000Y11524000D03*
D37*
G04 #@! TO.C,J5*
X2817000Y-20270000D03*
D38*
X-7343000Y-20270000D03*
D37*
X-4803000Y-17730000D03*
X-2263000Y-20270000D03*
X-7343000Y-17730000D03*
X-4803000Y-20270000D03*
X-2263000Y-17730000D03*
X2817000Y-17730000D03*
X5357000Y-20270000D03*
X5357000Y-17730000D03*
X277000Y-17730000D03*
X277000Y-20270000D03*
D17*
G04 #@! TO.C,C73*
X2151000Y3013000D03*
X3901000Y3013000D03*
D35*
G04 #@! TO.C,C26*
X-2700000Y10775000D03*
X-2700000Y12225000D03*
D24*
G04 #@! TO.C,C101*
X-5000000Y14700000D03*
X-5000000Y13900000D03*
D34*
G04 #@! TO.C,C10*
X-18325000Y800000D03*
X-16875000Y800000D03*
D29*
G04 #@! TO.C,R9*
X-16900000Y-947000D03*
X-16900000Y-2497000D03*
D24*
G04 #@! TO.C,C42*
X-1500000Y-1676000D03*
X-1500000Y-2476000D03*
D18*
G04 #@! TO.C,C74*
X-500000Y524000D03*
X-1300000Y524000D03*
D41*
G04 #@! TD*
X-41775000Y-36825000D03*
X41570000Y36835000D03*
X41570000Y-36825000D03*
X-41775000Y36835000D03*
G04 --- BOARD END --- *
G04 #@! TF.MD5,188f9c5e227c21938544c87188549098*
M02*
