G04 --- HEADER BEGIN --- *
G04 #@! TF.GenerationSoftware,LibrePCB,LibrePCB,1.1.0*
G04 #@! TF.CreationDate,2024-09-08T17:15:58*
G04 #@! TF.ProjectId,flasher,f4b07f79-14a2-4070-9d7d-1f686dcb10c4,v1*
G04 #@! TF.Part,Single*
G04 #@! TF.SameCoordinates*
G04 #@! TF.FileFunction,Copper,L4,Inr*
G04 #@! TF.FilePolarity,Positive*
%FSLAX66Y66*%
%MOMM*%
G01*
G75*
G04 --- HEADER END --- *
G04 --- APERTURE LIST BEGIN --- *
G04 #@! TA.AperFunction,ComponentPad*
%ADD10C,1.5*%
G04 #@! TA.AperFunction,ViaPad*
%ADD11C,0.4*%
%ADD12C,0.7*%
G04 #@! TA.AperFunction,Conductor*
%ADD13C,0.01*%
G04 #@! TD*
G04 --- APERTURE LIST END --- *
G04 --- BOARD BEGIN --- *
D10*
G04 #@! TO.N,P64_1V8*
G04 #@! TO.C,J2*
G04 #@! TO.P,J2,24,24*
X-24804000Y-10630000D03*
G04 #@! TO.N,P45_1V8*
G04 #@! TO.P,J2,2,2*
X-24804000Y17310000D03*
G04 #@! TO.N,P55_1V8*
G04 #@! TO.P,J2,18,18*
X-24804000Y-3010000D03*
G04 #@! TO.N,P53_1V8*
G04 #@! TO.P,J2,8,8*
X-24804000Y9690000D03*
G04 #@! TO.N,P68_1V8*
G04 #@! TO.P,J2,15,15*
X-27344000Y-470000D03*
G04 #@! TO.N,P61_1V8*
G04 #@! TO.P,J2,3,3*
X-27344000Y14770000D03*
G04 #@! TO.N,P72_1V8*
G04 #@! TO.P,J2,14,14*
X-24804000Y2070000D03*
G04 #@! TO.N,P43_1V8*
G04 #@! TO.P,J2,6,6*
X-24804000Y12230000D03*
G04 #@! TO.N,P49_1V8*
G04 #@! TO.P,J2,22,22*
X-24804000Y-8090000D03*
G04 #@! TO.N,P65_1V8*
G04 #@! TO.P,J2,12,12*
X-24804000Y4610000D03*
G04 #@! TO.N,P62_1V8*
G04 #@! TO.P,J2,26,26*
X-24804000Y-13170000D03*
G04 #@! TO.N,P52_1V8*
G04 #@! TO.P,J2,9,9*
X-27344000Y7150000D03*
G04 #@! TO.N,P46_1V8*
G04 #@! TO.P,J2,1,1*
X-27344000Y17310000D03*
G04 #@! TO.N,P50_1V8*
G04 #@! TO.P,J2,23,23*
X-27344000Y-10630000D03*
G04 #@! TO.N,P56_1V8*
G04 #@! TO.P,J2,13,13*
X-27344000Y2070000D03*
G04 #@! TO.N,P58_1V8*
G04 #@! TO.P,J2,19,19*
X-27344000Y-5550000D03*
G04 #@! TO.N,P59_1V8*
G04 #@! TO.P,J2,11,11*
X-27344000Y4610000D03*
G04 #@! TO.N,P54_1V8*
G04 #@! TO.P,J2,7,7*
X-27344000Y9690000D03*
G04 #@! TO.N,P44_1V8*
G04 #@! TO.P,J2,5,5*
X-27344000Y12230000D03*
G04 #@! TO.N,P60_1V8*
G04 #@! TO.P,J2,4,4*
X-24804000Y14770000D03*
G04 #@! TO.N,P66_1V8*
G04 #@! TO.P,J2,28,28*
X-24804000Y-15710000D03*
G04 #@! TO.N,P69_1V8*
G04 #@! TO.P,J2,29,29*
X-27344000Y-18250000D03*
G04 #@! TO.N,P70_1V8*
G04 #@! TO.P,J2,17,17*
X-27344000Y-3010000D03*
G04 #@! TO.N,P51_1V8*
G04 #@! TO.P,J2,30,30*
X-24804000Y-18250000D03*
G04 #@! TO.N,P71_1V8*
G04 #@! TO.P,J2,16,16*
X-24804000Y-470000D03*
G04 #@! TO.N,P47_1V8*
G04 #@! TO.P,J2,20,20*
X-24804000Y-5550000D03*
G04 #@! TO.N,P48_1V8*
G04 #@! TO.P,J2,21,21*
X-27344000Y-8090000D03*
G04 #@! TO.N,P67_1V8*
G04 #@! TO.P,J2,27,27*
X-27344000Y-15710000D03*
G04 #@! TO.N,P57_1V8*
G04 #@! TO.P,J2,10,10*
X-24804000Y7150000D03*
G04 #@! TO.N,P63_1V8*
G04 #@! TO.P,J2,25,25*
X-27344000Y-13170000D03*
G04 #@! TO.N,GND*
G04 #@! TO.C,J4*
G04 #@! TO.P,J4,2,2*
X-31589000Y19991000D03*
G04 #@! TO.N,+5V*
G04 #@! TO.P,J4,1,1*
X-31589000Y22531000D03*
G04 #@! TO.N,P38_3V3*
G04 #@! TO.C,J6*
G04 #@! TO.P,J6,26,26*
X27340000Y-13170000D03*
G04 #@! TO.N,P1_3V3*
G04 #@! TO.P,J6,4,4*
X27340000Y14770000D03*
G04 #@! TO.N,P24_3V3*
G04 #@! TO.P,J6,14,14*
X27340000Y2070000D03*
G04 #@! TO.N,P44_3V3*
G04 #@! TO.P,J6,21,21*
X24800000Y-8090000D03*
G04 #@! TO.N,P2_3V3*
G04 #@! TO.P,J6,6,6*
X27340000Y12230000D03*
G04 #@! TO.N,P26_3V3*
G04 #@! TO.P,J6,11,11*
X24800000Y4610000D03*
G04 #@! TO.N,P40_3V3*
G04 #@! TO.P,J6,28,28*
X27340000Y-15710000D03*
G04 #@! TO.N,P22_3V3*
G04 #@! TO.P,J6,16,16*
X27340000Y-470000D03*
G04 #@! TO.N,P48_3V3*
G04 #@! TO.P,J6,17,17*
X24800000Y-3010000D03*
G04 #@! TO.N,P7_3V3*
G04 #@! TO.P,J6,9,9*
X24800000Y7150000D03*
G04 #@! TO.N,P23_3V3*
G04 #@! TO.P,J6,13,13*
X24800000Y2070000D03*
G04 #@! TO.N,P3_3V3*
G04 #@! TO.P,J6,5,5*
X24800000Y12230000D03*
G04 #@! TO.N,P0_3V3*
G04 #@! TO.P,J6,2,2*
X27340000Y17310000D03*
G04 #@! TO.N,P45_3V3*
G04 #@! TO.P,J6,22,22*
X27340000Y-8090000D03*
G04 #@! TO.N,P35_3V3*
G04 #@! TO.P,J6,23,23*
X24800000Y-10630000D03*
G04 #@! TO.N,P37_3V3*
G04 #@! TO.P,J6,25,25*
X24800000Y-13170000D03*
G04 #@! TO.N,P9_3V3*
G04 #@! TO.P,J6,8,8*
X27340000Y9690000D03*
G04 #@! TO.N,P43_3V3*
G04 #@! TO.P,J6,18,18*
X27340000Y-3010000D03*
G04 #@! TO.N,P6_3V3*
G04 #@! TO.P,J6,7,7*
X24800000Y9690000D03*
G04 #@! TO.N,P49_3V3*
G04 #@! TO.P,J6,20,20*
X27340000Y-5550000D03*
G04 #@! TO.N,N/C*
G04 #@! TO.P,J6,15,15*
X24800000Y-470000D03*
G04 #@! TO.N,GND*
G04 #@! TO.P,J6,30,30*
X27340000Y-18250000D03*
G04 #@! TO.N,P5_3V3*
G04 #@! TO.P,J6,1,1*
X24800000Y17310000D03*
G04 #@! TO.N,P4_3V3*
G04 #@! TO.P,J6,3,3*
X24800000Y14770000D03*
G04 #@! TO.N,P8_3V3*
G04 #@! TO.P,J6,10,10*
X27340000Y7150000D03*
G04 #@! TO.N,P25_3V3*
G04 #@! TO.P,J6,12,12*
X27340000Y4610000D03*
G04 #@! TO.N,VCC3V3*
G04 #@! TO.P,J6,29,29*
X24800000Y-18250000D03*
G04 #@! TO.N,P42_3V3*
G04 #@! TO.P,J6,19,19*
X24800000Y-5550000D03*
G04 #@! TO.N,P41_3V3*
G04 #@! TO.P,J6,27,27*
X24800000Y-15710000D03*
G04 #@! TO.N,P36_3V3*
G04 #@! TO.P,J6,24,24*
X27340000Y-10630000D03*
G04 #@! TO.N,P29_1V8*
G04 #@! TO.C,J1*
G04 #@! TO.P,J1,42,42*
X26202000Y27340000D03*
G04 #@! TO.N,P41_1V8*
G04 #@! TO.P,J1,9,9*
X-14438000Y24800000D03*
G04 #@! TO.N,P0_1V8*
G04 #@! TO.P,J1,6,6*
X-19518000Y27340000D03*
G04 #@! TO.N,P30_1V8*
G04 #@! TO.P,J1,41,41*
X26202000Y24800000D03*
G04 #@! TO.N,P7_1V8*
G04 #@! TO.P,J1,19,19*
X-1738000Y24800000D03*
G04 #@! TO.N,P11_1V8*
G04 #@! TO.P,J1,26,26*
X5882000Y27340000D03*
G04 #@! TO.N,P1_1V8*
G04 #@! TO.P,J1,5,5*
X-19518000Y24800000D03*
G04 #@! TO.N,P40_1V8*
G04 #@! TO.P,J1,17,17*
X-4278000Y24800000D03*
G04 #@! TO.N,GND*
G04 #@! TO.P,J1,44,44*
X28742000Y27340000D03*
G04 #@! TO.N,P6_1V8*
G04 #@! TO.P,J1,8,8*
X-16978000Y27340000D03*
G04 #@! TO.N,P27_1V8*
G04 #@! TO.P,J1,40,40*
X23662000Y27340000D03*
G04 #@! TO.N,P22_1V8*
G04 #@! TO.P,J1,30,30*
X10962000Y27340000D03*
G04 #@! TO.N,P23_1V8*
G04 #@! TO.P,J1,31,31*
X13502000Y24800000D03*
G04 #@! TO.N,P34_1V8*
G04 #@! TO.P,J1,1,1*
X-24598000Y24800000D03*
G04 #@! TO.N,P21_1V8*
G04 #@! TO.P,J1,29,29*
X10962000Y24800000D03*
G04 #@! TO.N,P31_1V8*
G04 #@! TO.P,J1,34,34*
X16042000Y27340000D03*
G04 #@! TO.N,P32_1V8*
G04 #@! TO.P,J1,3,3*
X-22058000Y24800000D03*
G04 #@! TO.N,P12_1V8*
G04 #@! TO.P,J1,25,25*
X5882000Y24800000D03*
G04 #@! TO.N,P17_1V8*
G04 #@! TO.P,J1,24,24*
X3342000Y27340000D03*
G04 #@! TO.N,P33_1V8*
G04 #@! TO.P,J1,2,2*
X-24598000Y27340000D03*
G04 #@! TO.N,P20_1V8*
G04 #@! TO.P,J1,28,28*
X8422000Y27340000D03*
G04 #@! TO.N,P37_1V8*
G04 #@! TO.P,J1,16,16*
X-6818000Y27340000D03*
G04 #@! TO.N,P13_1V8*
G04 #@! TO.P,J1,22,22*
X802000Y27340000D03*
G04 #@! TO.N,P14_1V8*
G04 #@! TO.P,J1,38,38*
X21122000Y27340000D03*
G04 #@! TO.N,VCC1V8*
G04 #@! TO.P,J1,43,43*
X28742000Y24800000D03*
G04 #@! TO.N,P35_1V8*
G04 #@! TO.P,J1,13,13*
X-9358000Y24800000D03*
G04 #@! TO.N,P25_1V8*
G04 #@! TO.P,J1,33,33*
X16042000Y24800000D03*
G04 #@! TO.N,P2_1V8*
G04 #@! TO.P,J1,4,4*
X-22058000Y27340000D03*
G04 #@! TO.N,P19_1V8*
G04 #@! TO.P,J1,27,27*
X8422000Y24800000D03*
G04 #@! TO.N,P3_1V8*
G04 #@! TO.P,J1,7,7*
X-16978000Y24800000D03*
G04 #@! TO.N,P4_1V8*
G04 #@! TO.P,J1,11,11*
X-11898000Y24800000D03*
G04 #@! TO.N,P15_1V8*
G04 #@! TO.P,J1,35,35*
X18582000Y24800000D03*
G04 #@! TO.N,P8_1V8*
G04 #@! TO.P,J1,20,20*
X-1738000Y27340000D03*
G04 #@! TO.N,P28_1V8*
G04 #@! TO.P,J1,37,37*
X21122000Y24800000D03*
G04 #@! TO.N,P10_1V8*
G04 #@! TO.P,J1,21,21*
X802000Y24800000D03*
G04 #@! TO.N,P38_1V8*
G04 #@! TO.P,J1,18,18*
X-4278000Y27340000D03*
G04 #@! TO.N,P16_1V8*
G04 #@! TO.P,J1,36,36*
X18582000Y27340000D03*
G04 #@! TO.N,P18_1V8*
G04 #@! TO.P,J1,23,23*
X3342000Y24800000D03*
G04 #@! TO.N,P39_1V8*
G04 #@! TO.P,J1,15,15*
X-6818000Y24800000D03*
G04 #@! TO.N,P24_1V8*
G04 #@! TO.P,J1,32,32*
X13502000Y27340000D03*
G04 #@! TO.N,P9_1V8*
G04 #@! TO.P,J1,12,12*
X-11898000Y27340000D03*
G04 #@! TO.N,P36_1V8*
G04 #@! TO.P,J1,14,14*
X-9358000Y27340000D03*
G04 #@! TO.N,P26_1V8*
G04 #@! TO.P,J1,39,39*
X23662000Y24800000D03*
G04 #@! TO.N,P42_1V8*
G04 #@! TO.P,J1,10,10*
X-14438000Y27340000D03*
G04 #@! TO.N,GND*
G04 #@! TO.C,J8*
G04 #@! TO.P,J8,2,2*
X15040000Y-20070000D03*
G04 #@! TO.N,PROGRAM_B*
G04 #@! TO.P,J8,1,1*
X15040000Y-17530000D03*
G04 #@! TO.N,P57_3V3*
G04 #@! TO.C,J3*
G04 #@! TO.P,J3,24,24*
X33070000Y-10630000D03*
G04 #@! TO.N,P13_3V3*
G04 #@! TO.P,J3,2,2*
X33070000Y17310000D03*
G04 #@! TO.N,P33_3V3*
G04 #@! TO.P,J3,18,18*
X33070000Y-3010000D03*
G04 #@! TO.N,P11_3V3*
G04 #@! TO.P,J3,8,8*
X33070000Y9690000D03*
G04 #@! TO.N,P15_3V3*
G04 #@! TO.P,J3,15,15*
X30530000Y-470000D03*
G04 #@! TO.N,P27_3V3*
G04 #@! TO.P,J3,3,3*
X30530000Y14770000D03*
G04 #@! TO.N,P21_3V3*
G04 #@! TO.P,J3,14,14*
X33070000Y2070000D03*
G04 #@! TO.N,P10_3V3*
G04 #@! TO.P,J3,6,6*
X33070000Y12230000D03*
G04 #@! TO.N,P51_3V3*
G04 #@! TO.P,J3,22,22*
X33070000Y-8090000D03*
G04 #@! TO.N,P19_3V3*
G04 #@! TO.P,J3,12,12*
X33070000Y4610000D03*
G04 #@! TO.N,P55_3V3*
G04 #@! TO.P,J3,26,26*
X33070000Y-13170000D03*
G04 #@! TO.N,P18_3V3*
G04 #@! TO.P,J3,9,9*
X30530000Y7150000D03*
G04 #@! TO.N,N/C*
G04 #@! TO.P,J3,1,1*
X30530000Y17310000D03*
G04 #@! TO.N,P54_3V3*
G04 #@! TO.P,J3,23,23*
X30530000Y-10630000D03*
G04 #@! TO.N,P30_3V3*
G04 #@! TO.P,J3,13,13*
X30530000Y2070000D03*
G04 #@! TO.N,P29_3V3*
G04 #@! TO.P,J3,19,19*
X30530000Y-5550000D03*
G04 #@! TO.N,P20_3V3*
G04 #@! TO.P,J3,11,11*
X30530000Y4610000D03*
G04 #@! TO.N,P16_3V3*
G04 #@! TO.P,J3,7,7*
X30530000Y9690000D03*
G04 #@! TO.N,P12_3V3*
G04 #@! TO.P,J3,5,5*
X30530000Y12230000D03*
G04 #@! TO.N,P14_3V3*
G04 #@! TO.P,J3,4,4*
X33070000Y14770000D03*
G04 #@! TO.N,N/C*
G04 #@! TO.P,J3,28,28*
X33070000Y-15710000D03*
G04 #@! TO.N,P47_3V3*
G04 #@! TO.P,J3,29,29*
X30530000Y-18250000D03*
G04 #@! TO.N,P32_3V3*
G04 #@! TO.P,J3,17,17*
X30530000Y-3010000D03*
G04 #@! TO.N,P46_3V3*
G04 #@! TO.P,J3,30,30*
X33070000Y-18250000D03*
G04 #@! TO.N,P34_3V3*
G04 #@! TO.P,J3,16,16*
X33070000Y-470000D03*
G04 #@! TO.N,P31_3V3*
G04 #@! TO.P,J3,20,20*
X33070000Y-5550000D03*
G04 #@! TO.N,P50_3V3*
G04 #@! TO.P,J3,21,21*
X30530000Y-8090000D03*
G04 #@! TO.N,P52_3V3*
G04 #@! TO.P,J3,27,27*
X30530000Y-15710000D03*
G04 #@! TO.N,P17_3V3*
G04 #@! TO.P,J3,10,10*
X33070000Y7150000D03*
G04 #@! TO.N,P56_3V3*
G04 #@! TO.P,J3,25,25*
X30530000Y-13170000D03*
G04 #@! TO.N,N23*
G04 #@! TO.C,J5*
G04 #@! TO.P,J5,9,9*
X2817000Y-20270000D03*
G04 #@! TO.N,FLASH_VCC*
G04 #@! TO.P,J5,1,1*
X-7343000Y-20270000D03*
G04 #@! TO.N,GND*
G04 #@! TO.P,J5,4,4*
X-4803000Y-17730000D03*
G04 #@! TO.N,FLASH_SCK*
G04 #@! TO.P,J5,5,5*
X-2263000Y-20270000D03*
G04 #@! TO.N,VCC3V3*
G04 #@! TO.P,J5,2,2*
X-7343000Y-17730000D03*
G04 #@! TO.N,FLASH_VSS*
G04 #@! TO.P,J5,3,3*
X-4803000Y-20270000D03*
G04 #@! TO.N,CCLK*
G04 #@! TO.P,J5,6,6*
X-2263000Y-17730000D03*
G04 #@! TO.N,D0*
G04 #@! TO.P,J5,10,10*
X2817000Y-17730000D03*
G04 #@! TO.N,FLASH_CS*
G04 #@! TO.P,J5,11,11*
X5357000Y-20270000D03*
G04 #@! TO.N,FCS_B*
G04 #@! TO.P,J5,12,12*
X5357000Y-17730000D03*
G04 #@! TO.N,D1*
G04 #@! TO.P,J5,8,8*
X277000Y-17730000D03*
G04 #@! TO.N,N13*
G04 #@! TO.P,J5,7,7*
X277000Y-20270000D03*
D11*
G04 #@! TD.C*
G04 #@! TD.P*
G04 #@! TO.N,GND*
X32500000Y26600000D03*
G04 #@! TO.N,P31_1V8*
X11017000Y10042000D03*
G04 #@! TO.N,GND*
X26700000Y-20500000D03*
G04 #@! TO.N,VCC3V3*
X24100000Y-20500000D03*
G04 #@! TO.N,P71_1V8*
X-8500000Y6524000D03*
G04 #@! TO.N,P45_3V3*
X9018000Y-11994000D03*
G04 #@! TO.N,P28_1V8*
X10017000Y11042000D03*
G04 #@! TO.N,P70_1V8*
X-9500000Y6524000D03*
G04 #@! TO.N,P21_3V3*
X12018000Y-1994000D03*
G04 #@! TO.N,VCC3V3*
X24800000Y-21200000D03*
G04 #@! TO.N,P34_1V8*
X1017000Y13982000D03*
G04 #@! TO.N,P55_3V3*
X9018000Y-9994000D03*
G04 #@! TO.N,P63_1V8*
X-14958000Y9042000D03*
G04 #@! TO.N,P33_1V8*
X2017000Y6042000D03*
G04 #@! TO.N,P9_1V8*
X6017000Y13982000D03*
G04 #@! TO.N,VCC3V3*
X10497000Y3528000D03*
G04 #@! TO.N,P36_1V8*
X3017000Y9042000D03*
G04 #@! TO.N,GND*
X-7168028Y3947000D03*
G04 #@! TO.N,VCC1V0*
X-4018000Y-4993000D03*
G04 #@! TO.N,GND*
X31100000Y28000000D03*
X32500000Y28000000D03*
G04 #@! TO.N,VCC3V3*
X-8754000Y-13928000D03*
G04 #@! TO.N,P27_1V8*
X15747000Y12042000D03*
G04 #@! TO.N,PROGRAM_B*
X3018000Y-13934000D03*
G04 #@! TO.N,VCC3V3*
X-3018000Y-5993000D03*
G04 #@! TO.N,MODE/SYNC/1.8V*
X-4993000Y4261000D03*
G04 #@! TO.N,VCC1V8*
X7500000Y12524000D03*
G04 #@! TO.N,P59_1V8*
X-9500000Y9525000D03*
G04 #@! TO.N,P54_3V3*
X10018000Y-9994000D03*
G04 #@! TO.N,P11_1V8*
X7017000Y19622000D03*
G04 #@! TO.N,P3_3V3*
X15746000Y3042000D03*
G04 #@! TO.N,VCC3V3*
X-2813000Y-15638000D03*
G04 #@! TO.N,P58_1V8*
X-18038000Y10042000D03*
G04 #@! TO.N,VCC1V8*
X8017000Y13042000D03*
G04 #@! TO.N,P54_1V8*
X-20348000Y12042000D03*
G04 #@! TO.N,FLASH_VSS*
X-4103000Y-23470000D03*
G04 #@! TO.N,P17_1V8*
X9017000Y14752000D03*
G04 #@! TO.N,VCC1V8*
X-5018000Y5042000D03*
G04 #@! TO.N,INIT_B*
X-3018000Y-4993000D03*
G04 #@! TO.N,P2_1V8*
X4017000Y12042000D03*
G04 #@! TO.N,VCC1V8*
X-4500000Y-3475000D03*
X-5018000Y-3993000D03*
G04 #@! TO.N,GND*
X-5503000Y-14980000D03*
G04 #@! TO.N,P30_1V8*
X16517000Y10042000D03*
G04 #@! TO.N,VCC3V3*
X-16586000Y2942000D03*
G04 #@! TO.N,+5V*
X-9855000Y-5525000D03*
G04 #@! TO.N,VCC3V3*
X8501000Y-471000D03*
G04 #@! TO.N,P8_1V8*
X6017000Y11047000D03*
D12*
G04 #@! TO.N,GND*
X-12621028Y-1955000D03*
D11*
X26700000Y-21200000D03*
G04 #@! TO.N,P67_1V8*
X-11018000Y8042000D03*
G04 #@! TO.N,P1_3V3*
X14206000Y4042000D03*
G04 #@! TO.N,M0*
X-7018000Y-12993000D03*
G04 #@! TO.N,P1_1V8*
X4017000Y11042000D03*
G04 #@! TO.N,P4_3V3*
X14206000Y3042000D03*
G04 #@! TO.N,P65_1V8*
X-7500000Y8524000D03*
G04 #@! TO.N,P33_1V8*
X1017000Y14752000D03*
G04 #@! TO.N,VCC1V0*
X-2501000Y4525000D03*
X-3018000Y5042000D03*
G04 #@! TO.N,P69_1V8*
X-12018000Y7042000D03*
G04 #@! TO.N,P53_1V8*
X-10018000Y12042000D03*
G04 #@! TO.N,VCC1V8*
X-11499000Y9522000D03*
G04 #@! TO.N,P7_3V3*
X9017000Y2042000D03*
G04 #@! TO.N,P18_1V8*
X9017000Y12042000D03*
G04 #@! TO.N,P18_3V3*
X15768000Y-994000D03*
G04 #@! TO.N,FLASH_VCC*
X-8043000Y-22570000D03*
G04 #@! TO.N,GND*
X31800000Y28000000D03*
G04 #@! TO.N,VCC1V0*
X-500000Y-5480000D03*
X-1018000Y-5993000D03*
G04 #@! TO.N,P62_1V8*
X-14188000Y9042000D03*
G04 #@! TO.N,P36_3V3*
X12018000Y-11994000D03*
G04 #@! TO.N,D2*
X500000Y-475000D03*
X1018000Y-22282000D03*
G04 #@! TO.N,P55_1V8*
X-12018000Y11042000D03*
G04 #@! TO.N,VCC3V3*
X-6643000Y-14980000D03*
X-7343000Y-15680000D03*
G04 #@! TO.N,P29_1V8*
X11017000Y11042000D03*
G04 #@! TO.N,VCC3V3*
X12500000Y-12475000D03*
G04 #@! TO.N,P52_3V3*
X6500000Y-10476000D03*
G04 #@! TO.N,P68_1V8*
X-9500000Y7524000D03*
G04 #@! TO.N,P44_3V3*
X14728000Y-11994000D03*
G04 #@! TO.N,P27_1V8*
X12017000Y12042000D03*
G04 #@! TO.N,DONE*
X-4018000Y-13933000D03*
G04 #@! TO.N,FLASH_VCC*
X-6643000Y-23470000D03*
G04 #@! TO.N,P17_3V3*
X11018000Y-994000D03*
G04 #@! TO.N,P12_3V3*
X9500000Y524000D03*
G04 #@! TO.N,+5V*
X-7063000Y-5641000D03*
G04 #@! TO.N,P0_1V8*
X3017000Y15522000D03*
G04 #@! TO.N,P57_1V8*
X-10018000Y11042000D03*
G04 #@! TO.N,FLASH_VCC*
X-8918000Y-33833000D03*
G04 #@! TO.N,P4_3V3*
X12017000Y3042000D03*
G04 #@! TO.N,FLASH_VSS*
X-4103000Y-22570000D03*
G04 #@! TO.N,P12_1V8*
X7017000Y12042000D03*
G04 #@! TO.N,P18_1V8*
X9017000Y13982000D03*
G04 #@! TO.N,VCC1V8*
X31800000Y25400000D03*
G04 #@! TO.N,+5V*
X-19934000Y-5605000D03*
G04 #@! TO.N,P69_1V8*
X-13958000Y7042000D03*
G04 #@! TO.N,P44_3V3*
X10018000Y-11994000D03*
G04 #@! TO.N,VCC1V0*
X-1499000Y-4476000D03*
G04 #@! TO.N,VCC3V3*
X6018000Y-1994000D03*
G04 #@! TO.N,GND*
X-5613000Y-5641000D03*
G04 #@! TO.N,P8_3V3*
X16516000Y2042000D03*
G04 #@! TO.N,P49_3V3*
X17038000Y-10994000D03*
G04 #@! TO.N,FLASH_VCC*
X-6643000Y-22570000D03*
G04 #@! TO.N,VCC3V3*
X8017000Y3042000D03*
X5501000Y-11476000D03*
G04 #@! TO.N,VCC1V8*
X31100000Y24000000D03*
X32500000Y24000000D03*
G04 #@! TO.N,P7_1V8*
X6017000Y10042000D03*
G04 #@! TO.N,P60_1V8*
X-8500000Y9525000D03*
G04 #@! TO.N,VCC1V0*
X-1018000Y-1993000D03*
G04 #@! TO.N,P34_3V3*
X8500000Y-2476000D03*
G04 #@! TO.N,PROGRAM_B*
X2078000Y-13934000D03*
G04 #@! TO.N,VCC3V3*
X9018000Y-994000D03*
X-940000Y-15040000D03*
G04 #@! TO.N,P72_1V8*
X-9018000Y8042000D03*
G04 #@! TO.N,VCC3V3*
X13018000Y-12994000D03*
G04 #@! TO.N,P32_1V8*
X1017000Y15522000D03*
G04 #@! TO.N,FLASH_VSS*
X-8718000Y-28933000D03*
G04 #@! TO.N,P40_1V8*
X4500000Y7524000D03*
G04 #@! TO.N,P57_3V3*
X6018000Y-8994000D03*
G04 #@! TO.N,P37_1V8*
X4017000Y9042000D03*
G04 #@! TO.N,P7_1V8*
X6017000Y15522000D03*
G04 #@! TO.N,P52_1V8*
X-12018000Y12042000D03*
G04 #@! TO.N,P41_1V8*
X2500000Y6524000D03*
G04 #@! TO.N,VCC3V3*
X5018000Y-8994000D03*
G04 #@! TO.N,P57_1V8*
X-18808000Y11042000D03*
G04 #@! TO.N,P15_1V8*
X7500000Y10525000D03*
G04 #@! TO.N,GND*
X31800000Y26600000D03*
G04 #@! TO.N,FLASH_VCC*
X-8043000Y-23470000D03*
G04 #@! TO.N,D3*
X-2982000Y-24500000D03*
X500000Y524000D03*
G04 #@! TO.N,VCC3V3*
X25500000Y-21200000D03*
G04 #@! TO.N,P54_3V3*
X15498000Y-9994000D03*
G04 #@! TO.N,P50_3V3*
X8018000Y-8994000D03*
G04 #@! TO.N,MODE/SYNC/1.8V*
X-3400000Y6975000D03*
G04 #@! TO.N,CFGBVS*
X2018000Y-8994000D03*
G04 #@! TO.N,D1*
X2018000Y-15474000D03*
G04 #@! TO.N,P8_1V8*
X6017000Y14752000D03*
G04 #@! TO.N,P19_3V3*
X9018000Y-1994000D03*
G04 #@! TO.N,VCC1V8*
X500000Y6524000D03*
G04 #@! TO.N,+5V*
X-14088000Y5461000D03*
G04 #@! TO.N,CLK_27MHZ*
X6500000Y8524000D03*
G04 #@! TO.N,FLASH_VSS*
X-5503000Y-22570000D03*
G04 #@! TO.N,VCC3V3*
X8500000Y-10472000D03*
G04 #@! TO.N,P13_3V3*
X7017000Y3042000D03*
G04 #@! TO.N,GND*
X-4103000Y-14980000D03*
G04 #@! TO.N,P14_3V3*
X6497000Y1522000D03*
G04 #@! TO.N,P51_3V3*
X7018000Y-8994000D03*
G04 #@! TO.N,VCC1V0*
X-1476000Y3500000D03*
X-2018000Y4042000D03*
G04 #@! TO.N,VCC3V3*
X4760000Y-15210000D03*
X25500000Y-20500000D03*
G04 #@! TO.N,P29_1V8*
X16517000Y11042000D03*
G04 #@! TO.N,VCC1V8*
X31100000Y25400000D03*
G04 #@! TO.N,VCC1V0*
X-3018000Y3042000D03*
G04 #@! TO.N,P6_3V3*
X12017000Y2042000D03*
G04 #@! TO.N,VCC3V3*
X11501000Y524000D03*
G04 #@! TO.N,VCC1V8*
X-10500000Y6524000D03*
X-11018000Y7042000D03*
X-13018000Y13042000D03*
G04 #@! TO.N,GND*
X-6943000Y-2489000D03*
G04 #@! TO.N,VCC1V0*
X-1018000Y1042000D03*
X-500000Y524000D03*
G04 #@! TO.N,M0*
X-7018000Y-8993000D03*
G04 #@! TO.N,VCC1V8*
X31100000Y24700000D03*
G04 #@! TO.N,VCC1V0*
X-3500000Y1525000D03*
G04 #@! TO.N,FLASH_VSS*
X-5503000Y-23470000D03*
G04 #@! TO.N,P38_1V8*
X5017000Y9042000D03*
G04 #@! TO.N,VCC1V8*
X8499000Y9522000D03*
X-5018000Y1042000D03*
X-4500000Y524000D03*
G04 #@! TO.N,P43_3V3*
X12018000Y-10994000D03*
G04 #@! TO.N,P0_1V8*
X3017000Y10042000D03*
G04 #@! TO.N,GND*
X-4103000Y-15680000D03*
G04 #@! TO.N,VCC1V8*
X-7018000Y5042000D03*
G04 #@! TO.N,P35_1V8*
X1500000Y7525000D03*
G04 #@! TO.N,VCC3V3*
X7497000Y-7472000D03*
X-7343000Y-14980000D03*
G04 #@! TO.N,P1_1V8*
X3017000Y14752000D03*
G04 #@! TO.N,P23_3V3*
X11018000Y-2994000D03*
G04 #@! TO.N,FLASH_VSS*
X-4803000Y-22570000D03*
G04 #@! TO.N,CLK_3V3_29.5MHZ*
X7500000Y525000D03*
G04 #@! TO.N,P22_3V3*
X10018000Y-2994000D03*
G04 #@! TO.N,P31_1V8*
X14977000Y10042000D03*
G04 #@! TO.N,VCC1V8*
X2500000Y7525000D03*
X3017000Y8042000D03*
G04 #@! TO.N,P2_3V3*
X14976000Y3042000D03*
G04 #@! TO.N,VCC3V3*
X24800000Y-20500000D03*
G04 #@! TO.N,P30_3V3*
X5500000Y524000D03*
G04 #@! TO.N,P58_1V8*
X-11018000Y10042000D03*
G04 #@! TO.N,+5V*
X-9213000Y4261000D03*
G04 #@! TO.N,P16_1V8*
X7500000Y11524000D03*
G04 #@! TO.N,VCC1V0*
X-4018000Y2042000D03*
G04 #@! TO.N,VCC3V3*
X-6643000Y-15680000D03*
G04 #@! TO.N,P48_3V3*
X16268000Y-10994000D03*
G04 #@! TO.N,P29_3V3*
X4500000Y524000D03*
G04 #@! TO.N,P39_1V8*
X3500000Y7524000D03*
G04 #@! TO.N,GND*
X-6648028Y3947000D03*
G04 #@! TO.N,VCC1V8*
X-12500000Y12522000D03*
G04 #@! TO.N,P45_3V3*
X15498000Y-11994000D03*
G04 #@! TO.N,VCC1V8*
X12017000Y11042000D03*
G04 #@! TO.N,MODE/SYNC/1.8V*
X-3875000Y7600000D03*
G04 #@! TO.N,VCC1V8*
X-8018000Y8042000D03*
G04 #@! TO.N,P46_3V3*
X7500000Y-11476000D03*
G04 #@! TO.N,VCC1V0*
X-1500000Y-2476000D03*
X-2018000Y-2993000D03*
G04 #@! TO.N,VCC1V8*
X-7493000Y7523000D03*
G04 #@! TO.N,P2_1V8*
X3017000Y13982000D03*
G04 #@! TO.N,P56_3V3*
X8018000Y-9994000D03*
G04 #@! TO.N,P66_1V8*
X-14188000Y8042000D03*
G04 #@! TO.N,P49_3V3*
X10018000Y-10994000D03*
G04 #@! TO.N,LED1*
X-18536000Y-8000D03*
G04 #@! TO.N,VCC1V0*
X-2499000Y2524000D03*
X-3018000Y-3993000D03*
G04 #@! TO.N,P31_3V3*
X5500000Y-475000D03*
G04 #@! TO.N,VCC3V3*
X4499000Y-8472000D03*
G04 #@! TO.N,CFGBVS*
X3018000Y-14704000D03*
G04 #@! TO.N,FLASH_SCK*
X-2263000Y-22570000D03*
G04 #@! TO.N,P42_1V8*
X3500000Y6524000D03*
G04 #@! TO.N,P36_3V3*
X13958000Y-11994000D03*
G04 #@! TO.N,P67_1V8*
X-14958000Y8042000D03*
G04 #@! TO.N,P9_1V8*
X6017000Y12042000D03*
G04 #@! TO.N,P1_3V3*
X12017000Y4042000D03*
G04 #@! TO.N,VCC1V8*
X4489000Y11524000D03*
G04 #@! TO.N,GND*
X32500000Y27300000D03*
G04 #@! TO.N,VCC1V8*
X-9018000Y11042000D03*
X32500000Y25400000D03*
X-12018000Y10042000D03*
G04 #@! TO.N,VCC1V0*
X-2500000Y-3475000D03*
G04 #@! TO.N,P50_3V3*
X15498000Y-8994000D03*
G04 #@! TO.N,VCC1V8*
X31800000Y24700000D03*
G04 #@! TO.N,FLASH_VSS*
X5020000Y-33833000D03*
G04 #@! TO.N,VCC1V0*
X-3500000Y-475000D03*
G04 #@! TO.N,FCS_B*
X4500000Y-476000D03*
G04 #@! TO.N,VCC1V0*
X-4018000Y-2993000D03*
G04 #@! TO.N,GND*
X28100000Y-21200000D03*
G04 #@! TO.N,VCC1V0*
X-475000Y4500000D03*
X-1018000Y5042000D03*
G04 #@! TO.N,PROGRAM_B*
X3018000Y-11994000D03*
G04 #@! TO.N,P54_1V8*
X-9018000Y12042000D03*
G04 #@! TO.N,FLASH_VSS*
X-4803000Y-23470000D03*
G04 #@! TO.N,VCC1V0*
X-3501000Y-2475000D03*
G04 #@! TO.N,VCC3V3*
X12017000Y1042000D03*
G04 #@! TO.N,P55_1V8*
X-17268000Y11042000D03*
G04 #@! TO.N,VCC1V8*
X-5018000Y3042000D03*
X-4500000Y2524000D03*
G04 #@! TO.N,P56_1V8*
X-18038000Y11042000D03*
G04 #@! TO.N,VCC1V0*
X-2018000Y-4993000D03*
X-1018000Y3042000D03*
X-500000Y2524000D03*
X-3500000Y-4475000D03*
G04 #@! TO.N,FLASH_VCC*
X-7343000Y-23470000D03*
G04 #@! TO.N,P3_3V3*
X10017000Y3042000D03*
G04 #@! TO.N,VCC1V8*
X5017000Y12042000D03*
X-4500000Y-1476000D03*
X-5018000Y-1993000D03*
G04 #@! TO.N,GND*
X31100000Y26600000D03*
G04 #@! TO.N,CCLK*
X-500000Y5524000D03*
G04 #@! TO.N,VCC3V3*
X1018000Y-6994000D03*
G04 #@! TO.N,FLASH_SCK*
X1482000Y-26213000D03*
G04 #@! TO.N,P24_3V3*
X17308000Y-2994000D03*
G04 #@! TO.N,P53_1V8*
X-19578000Y12042000D03*
G04 #@! TO.N,P23_3V3*
X18078000Y-2994000D03*
G04 #@! TO.N,VCC1V8*
X9017000Y10042000D03*
G04 #@! TO.N,P8_3V3*
X11017000Y2042000D03*
G04 #@! TO.N,P26_1V8*
X11017000Y12042000D03*
G04 #@! TO.N,P47_3V3*
X6500000Y-11476000D03*
G04 #@! TO.N,FLASH_VCC*
X-7343000Y-22570000D03*
G04 #@! TO.N,GND*
X-4803000Y-15680000D03*
X31100000Y27300000D03*
X-4803000Y-14980000D03*
G04 #@! TO.N,P16_3V3*
X10018000Y-994000D03*
G04 #@! TO.N,P27_3V3*
X8017000Y2042000D03*
G04 #@! TO.N,VCC3V3*
X-8043000Y-14980000D03*
G04 #@! TO.N,P52_1V8*
X-18808000Y12042000D03*
G04 #@! TO.N,P64_1V8*
X-15728000Y9042000D03*
G04 #@! TO.N,VCC3V3*
X-8043000Y-15680000D03*
G04 #@! TO.N,FLASH_VCC*
X-8718000Y-27483000D03*
G04 #@! TO.N,GND*
X31800000Y27300000D03*
G04 #@! TO.N,VCC1V0*
X-4018000Y-993000D03*
G04 #@! TO.N,P34_1V8*
X1500000Y6525000D03*
G04 #@! TO.N,P10_3V3*
X10500000Y525000D03*
G04 #@! TO.N,VCC3V3*
X4018000Y-5994000D03*
X3499000Y-5475000D03*
G04 #@! TO.N,P32_3V3*
X6500000Y-1476000D03*
G04 #@! TO.N,D1*
X2018000Y-1994000D03*
G04 #@! TO.N,FLASH_CS*
X-4418000Y-33833000D03*
G04 #@! TO.N,P20_3V3*
X10018000Y-1994000D03*
G04 #@! TO.N,VCC3V3*
X9018000Y-10994000D03*
X5499000Y-1475000D03*
G04 #@! TO.N,P21_3V3*
X17308000Y-1994000D03*
G04 #@! TO.N,VCC3V3*
X24100000Y-21200000D03*
G04 #@! TO.N,GND*
X27400000Y-21200000D03*
G04 #@! TO.N,+5V*
X-8393000Y-2489000D03*
G04 #@! TO.N,VCC3V3*
X2017000Y1042000D03*
X1500000Y525000D03*
G04 #@! TO.N,P12_1V8*
X7017000Y18852000D03*
G04 #@! TO.N,P64_1V8*
X-9018000Y9042000D03*
G04 #@! TO.N,GND*
X-18560000Y-5605000D03*
G04 #@! TO.N,VCC1V8*
X11500000Y10524000D03*
G04 #@! TO.N,P56_1V8*
X-11018000Y11042000D03*
G04 #@! TO.N,P18_3V3*
X12018000Y-994000D03*
G04 #@! TO.N,P15_3V3*
X6500000Y-476000D03*
G04 #@! TO.N,P17_1V8*
X9017000Y11042000D03*
G04 #@! TO.N,VCC3V3*
X8018000Y-7994000D03*
G04 #@! TO.N,VCC1V8*
X-8470000Y10507000D03*
X32500000Y24700000D03*
G04 #@! TO.N,GND*
X-5503000Y-15680000D03*
G04 #@! TO.N,P7_3V3*
X17286000Y2042000D03*
G04 #@! TO.N,GND*
X-17200000Y-5605000D03*
G04 #@! TO.N,P43_3V3*
X15498000Y-10994000D03*
G04 #@! TO.N,P6_3V3*
X15746000Y2042000D03*
G04 #@! TO.N,P32_1V8*
X1017000Y6042000D03*
G04 #@! TO.N,VCC3V3*
X6018000Y-11994000D03*
G04 #@! TO.N,P48_3V3*
X11018000Y-10994000D03*
G04 #@! TO.N,P11_3V3*
X8500000Y525000D03*
G04 #@! TO.N,VCC1V8*
X31800000Y24000000D03*
X6017000Y9042000D03*
G04 #@! TO.N,P4_1V8*
X5017000Y14752000D03*
G04 #@! TO.N,GND*
X28100000Y-20500000D03*
G04 #@! TO.N,FLASH_CS*
X5357000Y-22570000D03*
G04 #@! TO.N,DONE*
X-4018000Y-5993000D03*
G04 #@! TO.N,P2_3V3*
X11017000Y3042000D03*
G04 #@! TO.N,GND*
X27400000Y-20500000D03*
G04 #@! TO.N,P33_3V3*
X7500000Y-1476000D03*
G04 #@! TO.N,VCC3V3*
X11017000Y4042000D03*
G04 #@! TO.N,P11_1V8*
X7017000Y10042000D03*
G04 #@! TO.N,D0*
X500000Y-1475000D03*
G04 #@! TO.N,VCC1V0*
X-3501000Y3525000D03*
X-4018000Y4042000D03*
G04 #@! TO.N,P24_3V3*
X12018000Y-2994000D03*
D12*
G04 #@! TO.N,GND*
X-13591028Y-1955000D03*
D11*
G04 #@! TO.N,P22_3V3*
X18848000Y-2994000D03*
G04 #@! TO.N,P30_1V8*
X10017000Y10042000D03*
G04 #@! TO.N,+5V*
X-9855000Y-2275000D03*
G04 #@! TO.N,P63_1V8*
X-11018000Y9042000D03*
G04 #@! TO.N,VCC1V0*
X-1018000Y-3993000D03*
X-500000Y-3476000D03*
G04 #@! TO.N,P4_1V8*
X5017000Y10042000D03*
G04 #@! TO.N,P62_1V8*
X-12018000Y9042000D03*
G04 #@! TO.N,P66_1V8*
X-12018000Y8042000D03*
G04 #@! TO.N,P14_1V8*
X7500000Y9524000D03*
G04 #@! TO.N,GND*
X-15538000Y5461000D03*
G04 #@! TO.N,P26_1V8*
X16517000Y12042000D03*
G04 #@! TO.N,P61_1V8*
X-7500000Y9524000D03*
D13*
G04 #@! TA.AperFunction,Conductor*
G04 #@! TO.N,P18_3V3*
G36*
X11394066Y-600395D02*
X11395128Y-662836D01*
X11410248Y-690875D01*
X11447024Y-738801D01*
X11453520Y-750053D01*
X11498456Y-858537D01*
X11501818Y-871084D01*
X11517145Y-987506D01*
X11517145Y-1000495D01*
X11501814Y-1116949D01*
X11513404Y-1178314D01*
X11559140Y-1220836D01*
X11600958Y-1230000D01*
X21450001Y-1230000D01*
X21509328Y-1210500D01*
X21550000Y-1130001D01*
X21550000Y-629999D01*
X21530500Y-570672D01*
X21450001Y-530000D01*
X11489582Y-530000D01*
X11430255Y-549500D01*
X11394066Y-600395D01*
G37*
G04 #@! TO.N,P12_1V8*
G36*
X6700000Y10596920D02*
X6719500Y10537593D01*
X6770395Y10501404D01*
X6838267Y10504533D01*
X6881537Y10522456D01*
X6894091Y10525820D01*
X6925902Y10530008D01*
X6982176Y10557085D01*
X7011992Y10616098D01*
X7016180Y10647909D01*
X7019544Y10660463D01*
X7064480Y10768947D01*
X7070976Y10780199D01*
X7142456Y10873352D01*
X7151648Y10882544D01*
X7233258Y10945166D01*
X7268454Y10996752D01*
X7266182Y11059161D01*
X7233258Y11103834D01*
X7151648Y11166456D01*
X7142456Y11175648D01*
X7070976Y11268801D01*
X7064480Y11280053D01*
X7019544Y11388537D01*
X7016182Y11401084D01*
X7000855Y11517506D01*
X7000855Y11530494D01*
X7016182Y11646916D01*
X7019544Y11659463D01*
X7064480Y11767947D01*
X7070976Y11779199D01*
X7142456Y11872352D01*
X7151648Y11881544D01*
X7233909Y11944666D01*
X7269105Y11996253D01*
X7266833Y12058661D01*
X7233909Y12103334D01*
X7151648Y12166456D01*
X7142456Y12175648D01*
X7070976Y12268801D01*
X7064480Y12280053D01*
X7019544Y12388537D01*
X7016182Y12401084D01*
X7000855Y12517506D01*
X7000855Y12530494D01*
X7016182Y12646916D01*
X7019544Y12659463D01*
X7064480Y12767947D01*
X7070976Y12779199D01*
X7142456Y12872352D01*
X7151648Y12881544D01*
X7244801Y12953024D01*
X7256053Y12959520D01*
X7364537Y13004456D01*
X7377091Y13007820D01*
X7423054Y13013871D01*
X7479328Y13040948D01*
X7510000Y13113014D01*
X7510000Y19172671D01*
X7490500Y19231998D01*
X7439605Y19268187D01*
X7377164Y19267125D01*
X7349125Y19252005D01*
X7272198Y19192976D01*
X7260947Y19186480D01*
X7152463Y19141544D01*
X7139916Y19138182D01*
X7023494Y19122855D01*
X7010506Y19122855D01*
X6894084Y19138182D01*
X6881537Y19141544D01*
X6838267Y19159467D01*
X6775993Y19164155D01*
X6723082Y19130983D01*
X6700000Y19067080D01*
X6700000Y14541416D01*
X6712261Y14493439D01*
X6743304Y14436669D01*
X6746929Y14428306D01*
X6763762Y14377094D01*
X6765627Y14369409D01*
X6779372Y14283573D01*
X6780000Y14275678D01*
X6780000Y11521355D01*
X6779840Y11517348D01*
X6776330Y11473563D01*
X6775851Y11469587D01*
X6772048Y11446016D01*
X6768777Y11434613D01*
X6718322Y11314851D01*
X6713124Y11305732D01*
X6700000Y11256209D01*
X6700000Y10596920D01*
G37*
G04 #@! TO.N,M0*
G36*
X-7529426Y-8540569D02*
X-7500567Y-13600571D01*
X-7480729Y-13659786D01*
X-7400570Y-13700000D01*
X-5699999Y-13700000D01*
X-5640672Y-13680500D01*
X-5600000Y-13600001D01*
X-5600000Y-8539999D01*
X-5619500Y-8480672D01*
X-5699999Y-8440000D01*
X-7429429Y-8440000D01*
X-7488756Y-8459500D01*
X-7529426Y-8540569D01*
G37*
G04 #@! TO.N,P52_1V8*
G36*
X-19189516Y11701936D02*
X-19171169Y11642242D01*
X-19120985Y11605074D01*
X-19089536Y11600000D01*
X-17797919Y11600000D01*
X-17750459Y11616237D01*
X-17748778Y11613163D01*
X-17657082Y11663304D01*
X-17648719Y11666929D01*
X-17597507Y11683762D01*
X-17589822Y11685627D01*
X-17503986Y11699372D01*
X-17496091Y11700000D01*
X-11560274Y11700000D01*
X-11551665Y11699252D01*
X-11458284Y11682904D01*
X-11449952Y11680688D01*
X-11393621Y11660341D01*
X-11386839Y11657302D01*
X-11311639Y11616622D01*
X-11310843Y11618094D01*
X-11258185Y11600000D01*
X-10506464Y11600000D01*
X-10447137Y11619500D01*
X-10410948Y11670395D01*
X-10412010Y11732836D01*
X-10427129Y11760874D01*
X-10447024Y11786802D01*
X-10453520Y11798053D01*
X-10498456Y11906537D01*
X-10501818Y11919084D01*
X-10517145Y12035506D01*
X-10517145Y12048494D01*
X-10501818Y12164916D01*
X-10498456Y12177463D01*
X-10463550Y12261733D01*
X-10458862Y12324007D01*
X-10492034Y12376918D01*
X-10555937Y12400000D01*
X-11947150Y12400000D01*
X-12006477Y12380500D01*
X-12039537Y12338270D01*
X-12064481Y12278051D01*
X-12070976Y12266801D01*
X-12142456Y12173648D01*
X-12151648Y12164456D01*
X-12244801Y12092976D01*
X-12256053Y12086480D01*
X-12364537Y12041544D01*
X-12377084Y12038182D01*
X-12493506Y12022855D01*
X-12506494Y12022855D01*
X-12622916Y12038182D01*
X-12635463Y12041544D01*
X-12743947Y12086480D01*
X-12755199Y12092976D01*
X-12848352Y12164456D01*
X-12857544Y12173648D01*
X-12929024Y12266801D01*
X-12935519Y12278051D01*
X-12960463Y12338270D01*
X-13001183Y12385618D01*
X-13052850Y12400000D01*
X-19040063Y12400000D01*
X-19099390Y12380500D01*
X-19135579Y12329605D01*
X-19132450Y12261733D01*
X-19097544Y12177463D01*
X-19094182Y12164916D01*
X-19078855Y12048494D01*
X-19078855Y12035506D01*
X-19094182Y11919084D01*
X-19097544Y11906537D01*
X-19142480Y11798053D01*
X-19148976Y11786802D01*
X-19168871Y11760874D01*
X-19189516Y11701936D01*
G37*
G04 #@! TO.N,P55_1V8*
G36*
X-17649516Y10701936D02*
X-17631169Y10642242D01*
X-17580985Y10605074D01*
X-17549536Y10600000D01*
X-11506464Y10600000D01*
X-11447137Y10619500D01*
X-11410948Y10670395D01*
X-11412010Y10732836D01*
X-11427129Y10760874D01*
X-11447024Y10786802D01*
X-11453520Y10798053D01*
X-11498456Y10906537D01*
X-11501818Y10919084D01*
X-11517145Y11035506D01*
X-11517145Y11048494D01*
X-11501818Y11164916D01*
X-11498456Y11177463D01*
X-11463550Y11261733D01*
X-11458862Y11324007D01*
X-11492034Y11376918D01*
X-11555937Y11400000D01*
X-17500063Y11400000D01*
X-17559390Y11380500D01*
X-17595579Y11329605D01*
X-17592450Y11261733D01*
X-17557544Y11177463D01*
X-17554182Y11164916D01*
X-17538855Y11048494D01*
X-17538855Y11035506D01*
X-17554182Y10919084D01*
X-17557544Y10906537D01*
X-17602480Y10798053D01*
X-17608976Y10786802D01*
X-17628871Y10760874D01*
X-17649516Y10701936D01*
G37*
G04 #@! TO.N,P27_1V8*
G36*
X11420830Y11721939D02*
X11439175Y11662245D01*
X11489358Y11625075D01*
X11520810Y11620000D01*
X16013190Y11620000D01*
X16072517Y11639500D01*
X16108706Y11690395D01*
X16107644Y11752836D01*
X16092523Y11780877D01*
X16087974Y11786805D01*
X16081480Y11798053D01*
X16036544Y11906537D01*
X16033182Y11919084D01*
X16017855Y12035506D01*
X16017855Y12048494D01*
X16033182Y12164916D01*
X16036544Y12177463D01*
X16083876Y12291733D01*
X16088564Y12354007D01*
X16055392Y12406918D01*
X15991489Y12430000D01*
X11542511Y12430000D01*
X11483184Y12410500D01*
X11446995Y12359605D01*
X11450124Y12291733D01*
X11497456Y12177463D01*
X11500818Y12164916D01*
X11516145Y12048494D01*
X11516145Y12035506D01*
X11500818Y11919084D01*
X11497456Y11906537D01*
X11452520Y11798053D01*
X11446026Y11786805D01*
X11441477Y11780877D01*
X11420830Y11721939D01*
G37*
G04 #@! TO.N,P43_3V3*
G36*
X11444574Y-10670395D02*
X11452737Y-10743286D01*
X11451013Y-10744000D01*
X11453486Y-10749970D01*
X11453489Y-10749999D01*
X11453520Y-10750053D01*
X11498456Y-10858537D01*
X11501818Y-10871084D01*
X11517145Y-10987506D01*
X11517145Y-11000494D01*
X11501818Y-11116916D01*
X11498456Y-11129463D01*
X11485089Y-11161733D01*
X11480401Y-11224006D01*
X11513573Y-11276918D01*
X11577476Y-11300000D01*
X14200754Y-11300000D01*
X14210957Y-11301055D01*
X14321015Y-11324058D01*
X14330791Y-11327179D01*
X14395286Y-11355370D01*
X14403241Y-11359747D01*
X14437469Y-11382867D01*
X14493442Y-11400000D01*
X15752838Y-11400000D01*
X15812165Y-11380500D01*
X15848354Y-11329605D01*
X15839440Y-11250002D01*
X15832479Y-11237945D01*
X15787544Y-11129463D01*
X15784182Y-11116916D01*
X15768855Y-11000494D01*
X15768855Y-10987506D01*
X15784182Y-10871084D01*
X15787544Y-10858537D01*
X15832480Y-10750053D01*
X15838976Y-10738801D01*
X15848565Y-10726305D01*
X15869211Y-10667367D01*
X15850865Y-10607673D01*
X15800680Y-10570504D01*
X15738007Y-10570430D01*
X15697449Y-10583761D01*
X15689760Y-10585627D01*
X15603924Y-10599372D01*
X15596029Y-10600000D01*
X11540090Y-10600000D01*
X11480763Y-10619500D01*
X11444574Y-10670395D01*
G37*
G04 #@! TO.N,P54_3V3*
G36*
X9480401Y-10224006D02*
X9513573Y-10276918D01*
X9577476Y-10300000D01*
X15600001Y-10300000D01*
X15659328Y-10280500D01*
X15700000Y-10200001D01*
X15700000Y-9799999D01*
X15680500Y-9740672D01*
X15600001Y-9700000D01*
X9582447Y-9700000D01*
X9523120Y-9719500D01*
X9486931Y-9770395D01*
X9490060Y-9838266D01*
X9498455Y-9858534D01*
X9501818Y-9871084D01*
X9517145Y-9987506D01*
X9517145Y-10000494D01*
X9501818Y-10116916D01*
X9498456Y-10129463D01*
X9485089Y-10161733D01*
X9480401Y-10224006D01*
G37*
G04 #@! TO.N,P24_3V3*
G36*
X11403414Y-3338063D02*
X11421760Y-3397757D01*
X11471944Y-3434926D01*
X11503394Y-3440000D01*
X17592606Y-3440000D01*
X17651933Y-3420500D01*
X17688122Y-3369605D01*
X17687060Y-3307164D01*
X17671940Y-3279125D01*
X17648976Y-3249198D01*
X17642480Y-3237947D01*
X17597544Y-3129463D01*
X17594182Y-3116916D01*
X17578855Y-3000494D01*
X17578855Y-2987506D01*
X17594182Y-2871084D01*
X17597544Y-2858537D01*
X17630793Y-2778267D01*
X17635481Y-2715993D01*
X17602309Y-2663082D01*
X17538406Y-2640000D01*
X11557594Y-2640000D01*
X11498267Y-2659500D01*
X11462078Y-2710395D01*
X11465207Y-2778267D01*
X11498456Y-2858537D01*
X11501818Y-2871084D01*
X11517145Y-2987506D01*
X11517145Y-3000494D01*
X11501818Y-3116916D01*
X11498456Y-3129463D01*
X11453520Y-3237947D01*
X11447024Y-3249198D01*
X11424060Y-3279125D01*
X11403414Y-3338063D01*
G37*
G04 #@! TO.N,P4_3V3*
G36*
X11451333Y2744233D02*
X11484504Y2691322D01*
X11559342Y2670827D01*
X11559483Y2669057D01*
X11571335Y2670000D01*
X14443862Y2670000D01*
X14503189Y2689500D01*
X14539378Y2740395D01*
X14536249Y2808267D01*
X14495544Y2906537D01*
X14492182Y2919084D01*
X14476855Y3035506D01*
X14476855Y3048501D01*
X14492449Y3166948D01*
X14480860Y3228313D01*
X14435124Y3270836D01*
X14393306Y3280000D01*
X11599694Y3280000D01*
X11540367Y3260500D01*
X11504178Y3209605D01*
X11500551Y3166948D01*
X11516145Y3048501D01*
X11516145Y3035506D01*
X11500818Y2919084D01*
X11497456Y2906537D01*
X11456021Y2806506D01*
X11451333Y2744233D01*
G37*
G04 #@! TO.N,P34_1V8*
G36*
X450000Y7118280D02*
X469500Y7058953D01*
X536946Y7019137D01*
X622909Y7007820D01*
X635463Y7004456D01*
X743947Y6959520D01*
X755199Y6953024D01*
X848352Y6881544D01*
X857544Y6872352D01*
X929024Y6779199D01*
X935520Y6767947D01*
X980456Y6659463D01*
X983818Y6646916D01*
X987273Y6620671D01*
X1014350Y6564397D01*
X1073365Y6534579D01*
X1139916Y6525818D01*
X1152463Y6522456D01*
X1260947Y6477520D01*
X1272199Y6471024D01*
X1365352Y6399544D01*
X1374544Y6390352D01*
X1437666Y6308091D01*
X1489253Y6272895D01*
X1551661Y6275167D01*
X1596334Y6308091D01*
X1659456Y6390352D01*
X1668648Y6399544D01*
X1761801Y6471024D01*
X1773053Y6477520D01*
X1881537Y6522456D01*
X1894084Y6525818D01*
X1926035Y6530024D01*
X1982309Y6557101D01*
X2012126Y6616115D01*
X2016180Y6646909D01*
X2019544Y6659463D01*
X2064480Y6767947D01*
X2070976Y6779199D01*
X2142456Y6872352D01*
X2151648Y6881544D01*
X2234561Y6945166D01*
X2269757Y6996752D01*
X2267485Y7059161D01*
X2234561Y7103834D01*
X2151648Y7167456D01*
X2142456Y7176648D01*
X2079334Y7258909D01*
X2027747Y7294105D01*
X1965339Y7291833D01*
X1920666Y7258909D01*
X1857544Y7176648D01*
X1848352Y7167456D01*
X1755199Y7095976D01*
X1743947Y7089480D01*
X1635463Y7044544D01*
X1622916Y7041182D01*
X1506494Y7025855D01*
X1493506Y7025855D01*
X1377084Y7041182D01*
X1364537Y7044544D01*
X1256053Y7089480D01*
X1244801Y7095976D01*
X1151648Y7167456D01*
X1142456Y7176648D01*
X1070976Y7269801D01*
X1064480Y7281053D01*
X1019544Y7389537D01*
X1016182Y7402084D01*
X1000855Y7518506D01*
X1000855Y7531494D01*
X1016182Y7647916D01*
X1019544Y7660463D01*
X1064480Y7768947D01*
X1070976Y7780199D01*
X1142456Y7873352D01*
X1151648Y7882544D01*
X1244801Y7954024D01*
X1256053Y7960520D01*
X1364537Y8005456D01*
X1377084Y8008818D01*
X1493506Y8024145D01*
X1506494Y8024145D01*
X1622916Y8008818D01*
X1635463Y8005456D01*
X1743947Y7960520D01*
X1755199Y7954024D01*
X1848352Y7882544D01*
X1857544Y7873352D01*
X1920666Y7791091D01*
X1972253Y7755895D01*
X2034661Y7758167D01*
X2079334Y7791091D01*
X2142456Y7873352D01*
X2151648Y7882544D01*
X2244801Y7954024D01*
X2256055Y7960522D01*
X2298268Y7978006D01*
X2345617Y8018724D01*
X2360000Y8070393D01*
X2360000Y10010799D01*
X2340500Y10070126D01*
X2317950Y10092296D01*
X2298398Y10106199D01*
X2293192Y10110456D01*
X2242640Y10157819D01*
X2233021Y10170234D01*
X2186696Y10254952D01*
X2183071Y10263315D01*
X2166238Y10314527D01*
X2164373Y10322212D01*
X2150628Y10408048D01*
X2150000Y10415943D01*
X2150000Y14378385D01*
X2150528Y14385637D01*
X2162073Y14464456D01*
X2163645Y14471551D01*
X2178179Y14520102D01*
X2180266Y14525792D01*
X2205104Y14582590D01*
X2213165Y14595323D01*
X2276792Y14668388D01*
X2283383Y14674689D01*
X2322217Y14705551D01*
X2360000Y14783839D01*
X2360000Y15820001D01*
X2340500Y15879328D01*
X2260001Y15920000D01*
X1536781Y15920000D01*
X1477454Y15900500D01*
X1441265Y15849605D01*
X1450178Y15770004D01*
X1452520Y15765947D01*
X1497456Y15657463D01*
X1500818Y15644916D01*
X1516145Y15528494D01*
X1516145Y15515506D01*
X1500818Y15399084D01*
X1497456Y15386537D01*
X1452520Y15278053D01*
X1446024Y15266801D01*
X1393135Y15197876D01*
X1372489Y15138938D01*
X1393135Y15076124D01*
X1446024Y15007199D01*
X1452520Y14995947D01*
X1497456Y14887463D01*
X1500818Y14874916D01*
X1516145Y14758494D01*
X1516145Y14745506D01*
X1500818Y14629084D01*
X1497456Y14616537D01*
X1452520Y14508053D01*
X1446024Y14496801D01*
X1374544Y14403648D01*
X1365352Y14394456D01*
X1272199Y14322976D01*
X1260947Y14316480D01*
X1152463Y14271544D01*
X1139916Y14268182D01*
X1023494Y14252855D01*
X1010506Y14252855D01*
X894084Y14268182D01*
X881537Y14271544D01*
X773053Y14316480D01*
X761801Y14322976D01*
X668648Y14394456D01*
X659456Y14403648D01*
X629333Y14442905D01*
X577747Y14478101D01*
X515339Y14475829D01*
X466448Y14436975D01*
X450000Y14382029D01*
X450000Y7118280D01*
G37*
G04 #@! TO.N,P21_3V3*
G36*
X10394066Y-1600395D02*
X10395128Y-1662836D01*
X10410248Y-1690875D01*
X10447024Y-1738801D01*
X10453520Y-1750053D01*
X10498456Y-1858537D01*
X10501818Y-1871084D01*
X10517145Y-1987506D01*
X10517145Y-2000494D01*
X10501818Y-2116916D01*
X10498456Y-2129463D01*
X10468521Y-2201733D01*
X10463833Y-2264007D01*
X10497005Y-2316918D01*
X10560908Y-2340000D01*
X21450001Y-2340000D01*
X21509328Y-2320500D01*
X21550000Y-2240001D01*
X21550000Y-1629999D01*
X21530500Y-1570672D01*
X21450001Y-1530000D01*
X10489582Y-1530000D01*
X10430255Y-1549500D01*
X10394066Y-1600395D01*
G37*
G04 #@! TO.N,P36_3V3*
G36*
X10357374Y-12398063D02*
X10375720Y-12457757D01*
X10425904Y-12494926D01*
X10457354Y-12500000D01*
X11909011Y-12500000D01*
X11968338Y-12480500D01*
X12008154Y-12413054D01*
X12016180Y-12352091D01*
X12019544Y-12339537D01*
X12064480Y-12231053D01*
X12070976Y-12219801D01*
X12142456Y-12126648D01*
X12151648Y-12117456D01*
X12244801Y-12045976D01*
X12256053Y-12039480D01*
X12364537Y-11994544D01*
X12377084Y-11991182D01*
X12493506Y-11975855D01*
X12506494Y-11975855D01*
X12622916Y-11991182D01*
X12635463Y-11994544D01*
X12743947Y-12039480D01*
X12755199Y-12045976D01*
X12848352Y-12117456D01*
X12857544Y-12126648D01*
X12929024Y-12219801D01*
X12935520Y-12231053D01*
X12980456Y-12339537D01*
X12983820Y-12352091D01*
X12991846Y-12413054D01*
X13018923Y-12469328D01*
X13090989Y-12500000D01*
X14288646Y-12500000D01*
X14347973Y-12480500D01*
X14384162Y-12429605D01*
X14383100Y-12367164D01*
X14367980Y-12339125D01*
X14298976Y-12249199D01*
X14292480Y-12237947D01*
X14247544Y-12129463D01*
X14244182Y-12116916D01*
X14228855Y-12000494D01*
X14228855Y-11987506D01*
X14244182Y-11871084D01*
X14247544Y-11858537D01*
X14292480Y-11750053D01*
X14292511Y-11749999D01*
X14292520Y-11749956D01*
X14294987Y-11744000D01*
X14293862Y-11743534D01*
X14305288Y-11688870D01*
X14279307Y-11632082D01*
X14205910Y-11600000D01*
X10540090Y-11600000D01*
X10480763Y-11619500D01*
X10444574Y-11670395D01*
X10452737Y-11743286D01*
X10451013Y-11744000D01*
X10453486Y-11749970D01*
X10453489Y-11749999D01*
X10453520Y-11750053D01*
X10498456Y-11858537D01*
X10501818Y-11871084D01*
X10517145Y-11987506D01*
X10517145Y-12000494D01*
X10501818Y-12116916D01*
X10498456Y-12129463D01*
X10453520Y-12237947D01*
X10447024Y-12249199D01*
X10378020Y-12339125D01*
X10357374Y-12398063D01*
G37*
G04 #@! TO.N,P6_3V3*
G36*
X11374790Y1661937D02*
X11393136Y1602243D01*
X11443320Y1565074D01*
X11474770Y1560000D01*
X16058230Y1560000D01*
X16117557Y1579500D01*
X16153746Y1630395D01*
X16152684Y1692836D01*
X16137564Y1720875D01*
X16086976Y1786801D01*
X16080480Y1798053D01*
X16035544Y1906537D01*
X16032182Y1919084D01*
X16016855Y2035506D01*
X16016855Y2048494D01*
X16032182Y2164916D01*
X16035544Y2177463D01*
X16058024Y2231733D01*
X16062712Y2294006D01*
X16029541Y2346917D01*
X15965637Y2370000D01*
X11567363Y2370000D01*
X11508036Y2350500D01*
X11471847Y2299605D01*
X11474976Y2231733D01*
X11497456Y2177463D01*
X11500818Y2164916D01*
X11516145Y2048494D01*
X11516145Y2035506D01*
X11500818Y1919084D01*
X11497456Y1906537D01*
X11452520Y1798053D01*
X11446024Y1786801D01*
X11395436Y1720875D01*
X11374790Y1661937D01*
G37*
G04 #@! TO.N,PROGRAM_B*
G36*
X1600000Y-14967120D02*
X1619500Y-15026447D01*
X1670395Y-15062636D01*
X1732836Y-15061574D01*
X1760873Y-15046456D01*
X1762803Y-15044975D01*
X1774053Y-15038480D01*
X1882537Y-14993544D01*
X1895084Y-14990182D01*
X2011506Y-14974855D01*
X2024494Y-14974855D01*
X2140916Y-14990182D01*
X2153463Y-14993544D01*
X2261947Y-15038480D01*
X2273199Y-15044976D01*
X2366352Y-15116456D01*
X2375544Y-15125648D01*
X2447024Y-15218801D01*
X2453520Y-15230053D01*
X2498456Y-15338537D01*
X2501818Y-15351084D01*
X2517145Y-15467506D01*
X2517145Y-15480494D01*
X2501818Y-15596916D01*
X2498456Y-15609463D01*
X2453520Y-15717947D01*
X2447024Y-15729199D01*
X2375544Y-15822352D01*
X2366352Y-15831544D01*
X2276270Y-15900667D01*
X2241074Y-15952253D01*
X2243346Y-16014662D01*
X2282201Y-16063552D01*
X2337146Y-16080000D01*
X3130001Y-16080000D01*
X3189328Y-16060500D01*
X3230000Y-15980001D01*
X3230000Y-15290117D01*
X3210500Y-15230790D01*
X3159605Y-15194601D01*
X3116948Y-15190974D01*
X3024501Y-15203145D01*
X3011506Y-15203145D01*
X2895084Y-15187818D01*
X2882537Y-15184456D01*
X2774053Y-15139520D01*
X2762801Y-15133024D01*
X2669648Y-15061544D01*
X2660456Y-15052352D01*
X2588976Y-14959199D01*
X2582480Y-14947947D01*
X2537544Y-14839463D01*
X2534182Y-14826916D01*
X2518855Y-14710494D01*
X2518855Y-14697506D01*
X2534182Y-14581084D01*
X2537544Y-14568537D01*
X2582480Y-14460053D01*
X2588976Y-14448801D01*
X2660456Y-14355648D01*
X2669648Y-14346456D01*
X2762801Y-14274976D01*
X2774053Y-14268480D01*
X2882537Y-14223544D01*
X2895084Y-14220182D01*
X3011506Y-14204855D01*
X3024501Y-14204855D01*
X3116948Y-14217026D01*
X3178313Y-14205437D01*
X3220836Y-14159701D01*
X3230000Y-14117883D01*
X3230000Y-5942747D01*
X3190877Y-5863413D01*
X3150648Y-5832544D01*
X3141456Y-5823352D01*
X3069976Y-5730199D01*
X3063480Y-5718947D01*
X3018544Y-5610463D01*
X3015182Y-5597916D01*
X2999855Y-5481494D01*
X2999855Y-5468506D01*
X3015182Y-5352084D01*
X3018544Y-5339537D01*
X3063480Y-5231053D01*
X3069976Y-5219801D01*
X3141456Y-5126648D01*
X3150648Y-5117456D01*
X3190877Y-5086587D01*
X3230000Y-5007253D01*
X3230000Y-499999D01*
X3210500Y-440672D01*
X3130001Y-400000D01*
X1699999Y-400000D01*
X1640672Y-419500D01*
X1600000Y-499999D01*
X1600000Y-1487120D01*
X1619500Y-1546447D01*
X1670395Y-1582636D01*
X1732836Y-1581574D01*
X1760873Y-1566456D01*
X1762803Y-1564975D01*
X1774053Y-1558480D01*
X1882537Y-1513544D01*
X1895084Y-1510182D01*
X2011506Y-1494855D01*
X2024494Y-1494855D01*
X2140916Y-1510182D01*
X2153463Y-1513544D01*
X2261947Y-1558480D01*
X2273199Y-1564976D01*
X2366352Y-1636456D01*
X2375544Y-1645648D01*
X2447024Y-1738801D01*
X2453520Y-1750053D01*
X2498456Y-1858537D01*
X2501818Y-1871084D01*
X2517145Y-1987506D01*
X2517145Y-2000494D01*
X2501818Y-2116916D01*
X2498456Y-2129463D01*
X2453520Y-2237947D01*
X2447024Y-2249199D01*
X2375544Y-2342352D01*
X2366352Y-2351544D01*
X2273199Y-2423024D01*
X2261947Y-2429520D01*
X2153463Y-2474456D01*
X2140916Y-2477818D01*
X2024494Y-2493145D01*
X2011506Y-2493145D01*
X1895084Y-2477818D01*
X1882537Y-2474456D01*
X1774053Y-2429520D01*
X1762803Y-2423025D01*
X1760873Y-2421544D01*
X1759259Y-2420979D01*
X1757124Y-2419746D01*
X1756891Y-2420149D01*
X1701934Y-2400900D01*
X1642241Y-2419248D01*
X1605073Y-2469433D01*
X1600000Y-2500880D01*
X1600000Y-8487120D01*
X1619500Y-8546447D01*
X1670395Y-8582636D01*
X1732836Y-8581574D01*
X1760873Y-8566456D01*
X1762803Y-8564975D01*
X1774053Y-8558480D01*
X1882537Y-8513544D01*
X1895084Y-8510182D01*
X2011506Y-8494855D01*
X2024494Y-8494855D01*
X2140916Y-8510182D01*
X2153463Y-8513544D01*
X2261947Y-8558480D01*
X2273199Y-8564976D01*
X2366352Y-8636456D01*
X2375544Y-8645648D01*
X2447024Y-8738801D01*
X2453520Y-8750053D01*
X2498456Y-8858537D01*
X2501818Y-8871084D01*
X2517145Y-8987506D01*
X2517145Y-9000494D01*
X2501818Y-9116916D01*
X2498456Y-9129463D01*
X2453520Y-9237947D01*
X2447024Y-9249199D01*
X2375544Y-9342352D01*
X2366352Y-9351544D01*
X2273199Y-9423024D01*
X2261947Y-9429520D01*
X2153463Y-9474456D01*
X2140916Y-9477818D01*
X2024494Y-9493145D01*
X2011506Y-9493145D01*
X1895084Y-9477818D01*
X1882537Y-9474456D01*
X1774053Y-9429520D01*
X1762803Y-9423025D01*
X1760873Y-9421544D01*
X1759259Y-9420979D01*
X1757124Y-9419746D01*
X1756891Y-9420149D01*
X1701934Y-9400900D01*
X1642241Y-9419248D01*
X1605073Y-9469433D01*
X1600000Y-9500880D01*
X1600000Y-14967120D01*
G37*
G04 #@! TO.N,P1_3V3*
G36*
X11390137Y3681937D02*
X11408483Y3622243D01*
X11458668Y3585074D01*
X11490117Y3580000D01*
X15150001Y3580000D01*
X15209328Y3599500D01*
X15250000Y3679999D01*
X15250000Y4290001D01*
X15230500Y4349328D01*
X15150001Y4390000D01*
X11559079Y4390000D01*
X11499752Y4370500D01*
X11463563Y4319605D01*
X11466692Y4251733D01*
X11497456Y4177463D01*
X11500818Y4164916D01*
X11516145Y4048494D01*
X11516145Y4035506D01*
X11500818Y3919084D01*
X11497456Y3906537D01*
X11452520Y3798053D01*
X11446024Y3786801D01*
X11410783Y3740875D01*
X11390137Y3681937D01*
G37*
G04 #@! TO.N,MODE/SYNC/1.8V*
G36*
X-5943098Y3978931D02*
X-5911536Y3925044D01*
X-5845343Y3900000D01*
X-4613333Y3900000D01*
X-4554006Y3919500D01*
X-4517817Y3970395D01*
X-4514189Y4013051D01*
X-4517145Y4035505D01*
X-4517145Y4048494D01*
X-4501818Y4164916D01*
X-4498456Y4177463D01*
X-4453520Y4285947D01*
X-4447024Y4297199D01*
X-4375544Y4390352D01*
X-4366352Y4399544D01*
X-4273199Y4471024D01*
X-4261947Y4477520D01*
X-4153463Y4522456D01*
X-4140916Y4525818D01*
X-4047453Y4538122D01*
X-3991179Y4565199D01*
X-3970178Y4594361D01*
X-2467879Y7757096D01*
X-2460038Y7819051D01*
X-2490483Y7873577D01*
X-2558206Y7900000D01*
X-4135342Y7900000D01*
X-4194669Y7880500D01*
X-4226533Y7841037D01*
X-5202791Y5671576D01*
X-5209355Y5609472D01*
X-5177793Y5555585D01*
X-5098548Y5531396D01*
X-5024495Y5541145D01*
X-5011506Y5541145D01*
X-4895084Y5525818D01*
X-4882537Y5522456D01*
X-4774053Y5477520D01*
X-4762801Y5471024D01*
X-4669648Y5399544D01*
X-4660456Y5390352D01*
X-4588976Y5297199D01*
X-4582480Y5285947D01*
X-4537544Y5177463D01*
X-4534182Y5164916D01*
X-4518855Y5048494D01*
X-4518855Y5035506D01*
X-4534182Y4919084D01*
X-4537544Y4906537D01*
X-4582480Y4798053D01*
X-4588976Y4786801D01*
X-4660456Y4693648D01*
X-4669648Y4684456D01*
X-4762801Y4612976D01*
X-4774053Y4606480D01*
X-4882537Y4561544D01*
X-4895084Y4558182D01*
X-5011506Y4542855D01*
X-5024494Y4542855D01*
X-5140916Y4558182D01*
X-5153463Y4561544D01*
X-5261947Y4606480D01*
X-5273199Y4612976D01*
X-5366352Y4684456D01*
X-5375544Y4693648D01*
X-5442182Y4780491D01*
X-5493769Y4815687D01*
X-5556177Y4813415D01*
X-5612707Y4760651D01*
X-5936534Y4041035D01*
X-5943098Y3978931D01*
G37*
G04 #@! TO.N,P9_1V8*
G36*
X5670000Y11589493D02*
X5689500Y11530166D01*
X5740395Y11493977D01*
X5808267Y11497106D01*
X5881537Y11527456D01*
X5894084Y11530818D01*
X6010506Y11546145D01*
X6023494Y11546145D01*
X6139916Y11530818D01*
X6152463Y11527456D01*
X6260947Y11482520D01*
X6272199Y11476024D01*
X6319125Y11440016D01*
X6378064Y11419370D01*
X6437757Y11437717D01*
X6474926Y11487901D01*
X6480000Y11519350D01*
X6480000Y14279650D01*
X6460500Y14338977D01*
X6409605Y14375166D01*
X6347164Y14374104D01*
X6319125Y14358984D01*
X6272199Y14322976D01*
X6260947Y14316480D01*
X6152463Y14271544D01*
X6139916Y14268182D01*
X6023494Y14252855D01*
X6010506Y14252855D01*
X5894084Y14268182D01*
X5881537Y14271544D01*
X5808267Y14301894D01*
X5745994Y14306582D01*
X5693083Y14273410D01*
X5670000Y14209507D01*
X5670000Y11589493D01*
G37*
G04 #@! TO.N,P2_1V8*
G36*
X2450000Y10411971D02*
X2469500Y10352644D01*
X2520395Y10316455D01*
X2582836Y10317517D01*
X2629333Y10351095D01*
X2659456Y10390352D01*
X2668648Y10399544D01*
X2761801Y10471024D01*
X2773053Y10477520D01*
X2881537Y10522456D01*
X2894084Y10525818D01*
X3010506Y10541145D01*
X3023494Y10541145D01*
X3139916Y10525818D01*
X3152463Y10522456D01*
X3260947Y10477520D01*
X3272199Y10471024D01*
X3365352Y10399544D01*
X3374544Y10390352D01*
X3446024Y10297199D01*
X3452520Y10285947D01*
X3497456Y10177463D01*
X3500818Y10164916D01*
X3516145Y10048494D01*
X3516145Y10035506D01*
X3500818Y9919084D01*
X3497456Y9906537D01*
X3452520Y9798053D01*
X3446024Y9786801D01*
X3374544Y9693648D01*
X3365352Y9684456D01*
X3283091Y9621334D01*
X3247895Y9569747D01*
X3250167Y9507339D01*
X3283091Y9462666D01*
X3337827Y9420665D01*
X3398703Y9400000D01*
X3635297Y9400000D01*
X3696173Y9420665D01*
X3761801Y9471024D01*
X3773053Y9477520D01*
X3881537Y9522456D01*
X3894084Y9525818D01*
X4010506Y9541145D01*
X4023494Y9541145D01*
X4139916Y9525818D01*
X4152463Y9522456D01*
X4221733Y9493763D01*
X4284006Y9489075D01*
X4336918Y9522247D01*
X4360000Y9586150D01*
X4360000Y10497850D01*
X4340500Y10557177D01*
X4289605Y10593366D01*
X4221733Y10590237D01*
X4152463Y10561544D01*
X4139916Y10558182D01*
X4023494Y10542855D01*
X4010506Y10542855D01*
X3894084Y10558182D01*
X3881537Y10561544D01*
X3773053Y10606480D01*
X3761801Y10612976D01*
X3668648Y10684456D01*
X3659456Y10693648D01*
X3587976Y10786801D01*
X3581480Y10798053D01*
X3536544Y10906537D01*
X3533182Y10919084D01*
X3517855Y11035506D01*
X3517855Y11048494D01*
X3533182Y11164916D01*
X3536544Y11177463D01*
X3581480Y11285947D01*
X3587976Y11297199D01*
X3659456Y11390352D01*
X3668648Y11399544D01*
X3761801Y11471024D01*
X3773053Y11477520D01*
X3881537Y11522456D01*
X3894090Y11525820D01*
X3914843Y11528552D01*
X3971117Y11555629D01*
X4000932Y11614642D01*
X4005180Y11646909D01*
X4008544Y11659463D01*
X4053480Y11767947D01*
X4059976Y11779199D01*
X4131456Y11872352D01*
X4140648Y11881544D01*
X4233801Y11953024D01*
X4245053Y11959520D01*
X4298269Y11981563D01*
X4345618Y12022282D01*
X4360000Y12073950D01*
X4360000Y15820001D01*
X4340500Y15879328D01*
X4260001Y15920000D01*
X3536781Y15920000D01*
X3477454Y15900500D01*
X3441265Y15849605D01*
X3450178Y15770004D01*
X3452520Y15765947D01*
X3497456Y15657463D01*
X3500818Y15644916D01*
X3516145Y15528494D01*
X3516145Y15515506D01*
X3500818Y15399084D01*
X3497456Y15386537D01*
X3452520Y15278053D01*
X3446024Y15266801D01*
X3393135Y15197876D01*
X3372489Y15138938D01*
X3393135Y15076124D01*
X3446024Y15007199D01*
X3452520Y14995947D01*
X3497456Y14887463D01*
X3500818Y14874916D01*
X3516145Y14758494D01*
X3516145Y14745506D01*
X3500818Y14629084D01*
X3497456Y14616537D01*
X3452520Y14508053D01*
X3446024Y14496801D01*
X3374544Y14403648D01*
X3365352Y14394456D01*
X3272199Y14322976D01*
X3260947Y14316480D01*
X3152463Y14271544D01*
X3139916Y14268182D01*
X3023494Y14252855D01*
X3010506Y14252855D01*
X2894084Y14268182D01*
X2881537Y14271544D01*
X2773053Y14316480D01*
X2761801Y14322976D01*
X2668648Y14394456D01*
X2659456Y14403648D01*
X2629333Y14442905D01*
X2577747Y14478101D01*
X2515339Y14475829D01*
X2466448Y14436975D01*
X2450000Y14382029D01*
X2450000Y10411971D01*
G37*
G04 #@! TO.N,P62_1V8*
G36*
X-14510511Y8775994D02*
X-14477340Y8723083D01*
X-14413436Y8700000D01*
X-11562564Y8700000D01*
X-11503237Y8719500D01*
X-11467048Y8770395D01*
X-11470177Y8838267D01*
X-11498455Y8906535D01*
X-11501817Y8919083D01*
X-11505639Y8948116D01*
X-11532716Y9004390D01*
X-11591730Y9034207D01*
X-11621909Y9038180D01*
X-11634463Y9041544D01*
X-11742947Y9086480D01*
X-11754199Y9092976D01*
X-11847352Y9164456D01*
X-11856539Y9173643D01*
X-11892783Y9220877D01*
X-11972118Y9260000D01*
X-14372673Y9260000D01*
X-14432000Y9240500D01*
X-14468189Y9189605D01*
X-14471816Y9146948D01*
X-14458855Y9048501D01*
X-14458855Y9035506D01*
X-14474182Y8919084D01*
X-14477544Y8906537D01*
X-14505823Y8838267D01*
X-14510511Y8775994D01*
G37*
G04 #@! TO.N,P50_3V3*
G36*
X7371046Y-8570395D02*
X7372108Y-8632836D01*
X7387228Y-8660875D01*
X7447024Y-8738801D01*
X7453520Y-8750053D01*
X7498456Y-8858537D01*
X7501818Y-8871084D01*
X7517145Y-8987506D01*
X7517145Y-9000494D01*
X7501818Y-9116916D01*
X7498456Y-9129463D01*
X7453521Y-9237945D01*
X7446560Y-9250002D01*
X7433784Y-9311131D01*
X7459766Y-9367919D01*
X7533162Y-9400000D01*
X15600001Y-9400000D01*
X15659328Y-9380500D01*
X15700000Y-9300001D01*
X15700000Y-8599999D01*
X15680500Y-8540672D01*
X15600001Y-8500000D01*
X7466562Y-8500000D01*
X7407235Y-8519500D01*
X7371046Y-8570395D01*
G37*
G04 #@! TO.N,P66_1V8*
G36*
X-14651521Y7627745D02*
X-14649247Y7565336D01*
X-14610392Y7516447D01*
X-14555448Y7500000D01*
X-14167567Y7500000D01*
X-14129299Y7507612D01*
X-14093463Y7522456D01*
X-14080916Y7525818D01*
X-13964494Y7541145D01*
X-13951506Y7541145D01*
X-13835084Y7525818D01*
X-13822537Y7522456D01*
X-13786701Y7507612D01*
X-13748433Y7500000D01*
X-12227567Y7500000D01*
X-12189299Y7507612D01*
X-12153463Y7522456D01*
X-12140916Y7525818D01*
X-12024494Y7541145D01*
X-12011506Y7541145D01*
X-11895084Y7525818D01*
X-11882537Y7522456D01*
X-11846701Y7507612D01*
X-11808433Y7500000D01*
X-11420552Y7500000D01*
X-11361225Y7519500D01*
X-11325036Y7570395D01*
X-11326098Y7632836D01*
X-11359675Y7679332D01*
X-11366351Y7684455D01*
X-11375544Y7693648D01*
X-11447024Y7786801D01*
X-11453520Y7798053D01*
X-11498456Y7906537D01*
X-11501818Y7919084D01*
X-11517145Y8035506D01*
X-11517145Y8048494D01*
X-11501818Y8164916D01*
X-11498456Y8177463D01*
X-11463550Y8261733D01*
X-11458862Y8324007D01*
X-11492034Y8376918D01*
X-11555937Y8400000D01*
X-14420063Y8400000D01*
X-14479390Y8380500D01*
X-14515579Y8329605D01*
X-14512450Y8261733D01*
X-14477544Y8177463D01*
X-14474182Y8164916D01*
X-14458855Y8048494D01*
X-14458855Y8035506D01*
X-14474182Y7919084D01*
X-14477544Y7906537D01*
X-14522480Y7798053D01*
X-14528976Y7786801D01*
X-14600456Y7693648D01*
X-14609649Y7684455D01*
X-14616325Y7679332D01*
X-14651521Y7627745D01*
G37*
G04 #@! TO.N,DONE*
G36*
X-4400000Y-14300001D02*
X-4380500Y-14359328D01*
X-4300001Y-14400000D01*
X-3499999Y-14400000D01*
X-3440672Y-14380500D01*
X-3400000Y-14300001D01*
X-3400000Y-6343426D01*
X-3420665Y-6282550D01*
X-3447024Y-6248199D01*
X-3453520Y-6236947D01*
X-3498456Y-6128463D01*
X-3501818Y-6115916D01*
X-3517145Y-5999494D01*
X-3517145Y-5986506D01*
X-3501818Y-5870084D01*
X-3498456Y-5857537D01*
X-3451013Y-5743000D01*
X-3452478Y-5742393D01*
X-3441289Y-5688876D01*
X-3467267Y-5632086D01*
X-3540667Y-5600000D01*
X-4300001Y-5600000D01*
X-4359328Y-5619500D01*
X-4400000Y-5699999D01*
X-4400000Y-14300001D01*
G37*
G04 --- BOARD END --- *
G04 #@! TF.MD5,ac90171632013a23283d4043ae70849d*
M02*
