M48
; #@! TF.GenerationSoftware,LibrePCB,LibrePCB,1.1.0
; #@! TF.CreationDate,2024-09-08T17:15:58
; #@! TF.ProjectId,flasher,f4b07f79-14a2-4070-9d7d-1f686dcb10c4,v1
; #@! TF.Part,Single
; #@! TF.SameCoordinates
; #@! TF.FileFunction,Plated,1,13,PTH
FMAT,2
METRIC,TZ
; #@! TA.AperFunction,ViaDrill
T1C0.2
%
G90
G05
M71
T1
X-12.018Y8.042
X-12.018Y9.042
X12.018Y-2.994
X-4.018Y-5.993
X15.746Y2.042
X15.498Y-10.994
X12.018Y-0.994
X7.017Y18.852
X1.5Y6.525
X-18.808Y12.042
X17.308Y-2.994
X-17.268Y11.042
X3.018Y-11.994
X12.017Y4.042
X6.017Y12.042
X13.958Y-11.994
X-14.188Y8.042
X3.017Y13.982
X12.018Y-10.994
X-7.018Y-8.993
X12.017Y2.042
X8.018Y-8.994
X-12.018Y12.042
X2.078Y-13.934
X7.017Y12.042
X12.017Y3.042
X-4.018Y-13.933
X12.017Y12.042
X-12.018Y11.042
X12.018Y-11.994
X-14.188Y9.042
X14.206Y3.042
X-7.018Y-12.993
X14.206Y4.042
X4.017Y12.042
X10.018Y-9.994
X3.018Y-13.934
X15.747Y12.042
X6.017Y13.982
X1.017Y13.982
X12.018Y-1.994
T0
M30
