G04 --- HEADER BEGIN --- *
G04 #@! TF.GenerationSoftware,LibrePCB,LibrePCB,1.1.0*
G04 #@! TF.CreationDate,2024-09-08T17:15:58*
G04 #@! TF.ProjectId,flasher,f4b07f79-14a2-4070-9d7d-1f686dcb10c4,v1*
G04 #@! TF.Part,Single*
G04 #@! TF.SameCoordinates*
G04 #@! TF.FileFunction,Copper,L7,Inr*
G04 #@! TF.FilePolarity,Positive*
%FSLAX66Y66*%
%MOMM*%
G01*
G75*
G04 --- HEADER END --- *
G04 --- APERTURE LIST BEGIN --- *
G04 #@! TA.AperFunction,ComponentPad*
%ADD10C,1.5*%
G04 #@! TA.AperFunction,ViaPad*
%ADD11C,0.7*%
%ADD12C,0.4*%
G04 #@! TA.AperFunction,Conductor*
%ADD13C,0.01*%
G04 #@! TD*
G04 --- APERTURE LIST END --- *
G04 --- BOARD BEGIN --- *
D10*
G04 #@! TO.N,P64_1V8*
G04 #@! TO.C,J2*
G04 #@! TO.P,J2,24,24*
X-24804000Y-10630000D03*
G04 #@! TO.N,P45_1V8*
G04 #@! TO.P,J2,2,2*
X-24804000Y17310000D03*
G04 #@! TO.N,P55_1V8*
G04 #@! TO.P,J2,18,18*
X-24804000Y-3010000D03*
G04 #@! TO.N,P53_1V8*
G04 #@! TO.P,J2,8,8*
X-24804000Y9690000D03*
G04 #@! TO.N,P68_1V8*
G04 #@! TO.P,J2,15,15*
X-27344000Y-470000D03*
G04 #@! TO.N,P61_1V8*
G04 #@! TO.P,J2,3,3*
X-27344000Y14770000D03*
G04 #@! TO.N,P72_1V8*
G04 #@! TO.P,J2,14,14*
X-24804000Y2070000D03*
G04 #@! TO.N,P43_1V8*
G04 #@! TO.P,J2,6,6*
X-24804000Y12230000D03*
G04 #@! TO.N,P49_1V8*
G04 #@! TO.P,J2,22,22*
X-24804000Y-8090000D03*
G04 #@! TO.N,P65_1V8*
G04 #@! TO.P,J2,12,12*
X-24804000Y4610000D03*
G04 #@! TO.N,P62_1V8*
G04 #@! TO.P,J2,26,26*
X-24804000Y-13170000D03*
G04 #@! TO.N,P52_1V8*
G04 #@! TO.P,J2,9,9*
X-27344000Y7150000D03*
G04 #@! TO.N,P46_1V8*
G04 #@! TO.P,J2,1,1*
X-27344000Y17310000D03*
G04 #@! TO.N,P50_1V8*
G04 #@! TO.P,J2,23,23*
X-27344000Y-10630000D03*
G04 #@! TO.N,P56_1V8*
G04 #@! TO.P,J2,13,13*
X-27344000Y2070000D03*
G04 #@! TO.N,P58_1V8*
G04 #@! TO.P,J2,19,19*
X-27344000Y-5550000D03*
G04 #@! TO.N,P59_1V8*
G04 #@! TO.P,J2,11,11*
X-27344000Y4610000D03*
G04 #@! TO.N,P54_1V8*
G04 #@! TO.P,J2,7,7*
X-27344000Y9690000D03*
G04 #@! TO.N,P44_1V8*
G04 #@! TO.P,J2,5,5*
X-27344000Y12230000D03*
G04 #@! TO.N,P60_1V8*
G04 #@! TO.P,J2,4,4*
X-24804000Y14770000D03*
G04 #@! TO.N,P66_1V8*
G04 #@! TO.P,J2,28,28*
X-24804000Y-15710000D03*
G04 #@! TO.N,P69_1V8*
G04 #@! TO.P,J2,29,29*
X-27344000Y-18250000D03*
G04 #@! TO.N,P70_1V8*
G04 #@! TO.P,J2,17,17*
X-27344000Y-3010000D03*
G04 #@! TO.N,P51_1V8*
G04 #@! TO.P,J2,30,30*
X-24804000Y-18250000D03*
G04 #@! TO.N,P71_1V8*
G04 #@! TO.P,J2,16,16*
X-24804000Y-470000D03*
G04 #@! TO.N,P47_1V8*
G04 #@! TO.P,J2,20,20*
X-24804000Y-5550000D03*
G04 #@! TO.N,P48_1V8*
G04 #@! TO.P,J2,21,21*
X-27344000Y-8090000D03*
G04 #@! TO.N,P67_1V8*
G04 #@! TO.P,J2,27,27*
X-27344000Y-15710000D03*
G04 #@! TO.N,P57_1V8*
G04 #@! TO.P,J2,10,10*
X-24804000Y7150000D03*
G04 #@! TO.N,P63_1V8*
G04 #@! TO.P,J2,25,25*
X-27344000Y-13170000D03*
G04 #@! TO.N,GND*
G04 #@! TO.C,J4*
G04 #@! TO.P,J4,2,2*
X-31589000Y19991000D03*
G04 #@! TO.N,+5V*
G04 #@! TO.P,J4,1,1*
X-31589000Y22531000D03*
G04 #@! TO.N,P38_3V3*
G04 #@! TO.C,J6*
G04 #@! TO.P,J6,26,26*
X27340000Y-13170000D03*
G04 #@! TO.N,P1_3V3*
G04 #@! TO.P,J6,4,4*
X27340000Y14770000D03*
G04 #@! TO.N,P24_3V3*
G04 #@! TO.P,J6,14,14*
X27340000Y2070000D03*
G04 #@! TO.N,P44_3V3*
G04 #@! TO.P,J6,21,21*
X24800000Y-8090000D03*
G04 #@! TO.N,P2_3V3*
G04 #@! TO.P,J6,6,6*
X27340000Y12230000D03*
G04 #@! TO.N,P26_3V3*
G04 #@! TO.P,J6,11,11*
X24800000Y4610000D03*
G04 #@! TO.N,P40_3V3*
G04 #@! TO.P,J6,28,28*
X27340000Y-15710000D03*
G04 #@! TO.N,P22_3V3*
G04 #@! TO.P,J6,16,16*
X27340000Y-470000D03*
G04 #@! TO.N,P48_3V3*
G04 #@! TO.P,J6,17,17*
X24800000Y-3010000D03*
G04 #@! TO.N,P7_3V3*
G04 #@! TO.P,J6,9,9*
X24800000Y7150000D03*
G04 #@! TO.N,P23_3V3*
G04 #@! TO.P,J6,13,13*
X24800000Y2070000D03*
G04 #@! TO.N,P3_3V3*
G04 #@! TO.P,J6,5,5*
X24800000Y12230000D03*
G04 #@! TO.N,P0_3V3*
G04 #@! TO.P,J6,2,2*
X27340000Y17310000D03*
G04 #@! TO.N,P45_3V3*
G04 #@! TO.P,J6,22,22*
X27340000Y-8090000D03*
G04 #@! TO.N,P35_3V3*
G04 #@! TO.P,J6,23,23*
X24800000Y-10630000D03*
G04 #@! TO.N,P37_3V3*
G04 #@! TO.P,J6,25,25*
X24800000Y-13170000D03*
G04 #@! TO.N,P9_3V3*
G04 #@! TO.P,J6,8,8*
X27340000Y9690000D03*
G04 #@! TO.N,P43_3V3*
G04 #@! TO.P,J6,18,18*
X27340000Y-3010000D03*
G04 #@! TO.N,P6_3V3*
G04 #@! TO.P,J6,7,7*
X24800000Y9690000D03*
G04 #@! TO.N,P49_3V3*
G04 #@! TO.P,J6,20,20*
X27340000Y-5550000D03*
G04 #@! TO.N,N/C*
G04 #@! TO.P,J6,15,15*
X24800000Y-470000D03*
G04 #@! TO.N,GND*
G04 #@! TO.P,J6,30,30*
X27340000Y-18250000D03*
G04 #@! TO.N,P5_3V3*
G04 #@! TO.P,J6,1,1*
X24800000Y17310000D03*
G04 #@! TO.N,P4_3V3*
G04 #@! TO.P,J6,3,3*
X24800000Y14770000D03*
G04 #@! TO.N,P8_3V3*
G04 #@! TO.P,J6,10,10*
X27340000Y7150000D03*
G04 #@! TO.N,P25_3V3*
G04 #@! TO.P,J6,12,12*
X27340000Y4610000D03*
G04 #@! TO.N,VCC3V3*
G04 #@! TO.P,J6,29,29*
X24800000Y-18250000D03*
G04 #@! TO.N,P42_3V3*
G04 #@! TO.P,J6,19,19*
X24800000Y-5550000D03*
G04 #@! TO.N,P41_3V3*
G04 #@! TO.P,J6,27,27*
X24800000Y-15710000D03*
G04 #@! TO.N,P36_3V3*
G04 #@! TO.P,J6,24,24*
X27340000Y-10630000D03*
G04 #@! TO.N,P29_1V8*
G04 #@! TO.C,J1*
G04 #@! TO.P,J1,42,42*
X26202000Y27340000D03*
G04 #@! TO.N,P41_1V8*
G04 #@! TO.P,J1,9,9*
X-14438000Y24800000D03*
G04 #@! TO.N,P0_1V8*
G04 #@! TO.P,J1,6,6*
X-19518000Y27340000D03*
G04 #@! TO.N,P30_1V8*
G04 #@! TO.P,J1,41,41*
X26202000Y24800000D03*
G04 #@! TO.N,P7_1V8*
G04 #@! TO.P,J1,19,19*
X-1738000Y24800000D03*
G04 #@! TO.N,P11_1V8*
G04 #@! TO.P,J1,26,26*
X5882000Y27340000D03*
G04 #@! TO.N,P1_1V8*
G04 #@! TO.P,J1,5,5*
X-19518000Y24800000D03*
G04 #@! TO.N,P40_1V8*
G04 #@! TO.P,J1,17,17*
X-4278000Y24800000D03*
G04 #@! TO.N,GND*
G04 #@! TO.P,J1,44,44*
X28742000Y27340000D03*
G04 #@! TO.N,P6_1V8*
G04 #@! TO.P,J1,8,8*
X-16978000Y27340000D03*
G04 #@! TO.N,P27_1V8*
G04 #@! TO.P,J1,40,40*
X23662000Y27340000D03*
G04 #@! TO.N,P22_1V8*
G04 #@! TO.P,J1,30,30*
X10962000Y27340000D03*
G04 #@! TO.N,P23_1V8*
G04 #@! TO.P,J1,31,31*
X13502000Y24800000D03*
G04 #@! TO.N,P34_1V8*
G04 #@! TO.P,J1,1,1*
X-24598000Y24800000D03*
G04 #@! TO.N,P21_1V8*
G04 #@! TO.P,J1,29,29*
X10962000Y24800000D03*
G04 #@! TO.N,P31_1V8*
G04 #@! TO.P,J1,34,34*
X16042000Y27340000D03*
G04 #@! TO.N,P32_1V8*
G04 #@! TO.P,J1,3,3*
X-22058000Y24800000D03*
G04 #@! TO.N,P12_1V8*
G04 #@! TO.P,J1,25,25*
X5882000Y24800000D03*
G04 #@! TO.N,P17_1V8*
G04 #@! TO.P,J1,24,24*
X3342000Y27340000D03*
G04 #@! TO.N,P33_1V8*
G04 #@! TO.P,J1,2,2*
X-24598000Y27340000D03*
G04 #@! TO.N,P20_1V8*
G04 #@! TO.P,J1,28,28*
X8422000Y27340000D03*
G04 #@! TO.N,P37_1V8*
G04 #@! TO.P,J1,16,16*
X-6818000Y27340000D03*
G04 #@! TO.N,P13_1V8*
G04 #@! TO.P,J1,22,22*
X802000Y27340000D03*
G04 #@! TO.N,P14_1V8*
G04 #@! TO.P,J1,38,38*
X21122000Y27340000D03*
G04 #@! TO.N,VCC1V8*
G04 #@! TO.P,J1,43,43*
X28742000Y24800000D03*
G04 #@! TO.N,P35_1V8*
G04 #@! TO.P,J1,13,13*
X-9358000Y24800000D03*
G04 #@! TO.N,P25_1V8*
G04 #@! TO.P,J1,33,33*
X16042000Y24800000D03*
G04 #@! TO.N,P2_1V8*
G04 #@! TO.P,J1,4,4*
X-22058000Y27340000D03*
G04 #@! TO.N,P19_1V8*
G04 #@! TO.P,J1,27,27*
X8422000Y24800000D03*
G04 #@! TO.N,P3_1V8*
G04 #@! TO.P,J1,7,7*
X-16978000Y24800000D03*
G04 #@! TO.N,P4_1V8*
G04 #@! TO.P,J1,11,11*
X-11898000Y24800000D03*
G04 #@! TO.N,P15_1V8*
G04 #@! TO.P,J1,35,35*
X18582000Y24800000D03*
G04 #@! TO.N,P8_1V8*
G04 #@! TO.P,J1,20,20*
X-1738000Y27340000D03*
G04 #@! TO.N,P28_1V8*
G04 #@! TO.P,J1,37,37*
X21122000Y24800000D03*
G04 #@! TO.N,P10_1V8*
G04 #@! TO.P,J1,21,21*
X802000Y24800000D03*
G04 #@! TO.N,P38_1V8*
G04 #@! TO.P,J1,18,18*
X-4278000Y27340000D03*
G04 #@! TO.N,P16_1V8*
G04 #@! TO.P,J1,36,36*
X18582000Y27340000D03*
G04 #@! TO.N,P18_1V8*
G04 #@! TO.P,J1,23,23*
X3342000Y24800000D03*
G04 #@! TO.N,P39_1V8*
G04 #@! TO.P,J1,15,15*
X-6818000Y24800000D03*
G04 #@! TO.N,P24_1V8*
G04 #@! TO.P,J1,32,32*
X13502000Y27340000D03*
G04 #@! TO.N,P9_1V8*
G04 #@! TO.P,J1,12,12*
X-11898000Y27340000D03*
G04 #@! TO.N,P36_1V8*
G04 #@! TO.P,J1,14,14*
X-9358000Y27340000D03*
G04 #@! TO.N,P26_1V8*
G04 #@! TO.P,J1,39,39*
X23662000Y24800000D03*
G04 #@! TO.N,P42_1V8*
G04 #@! TO.P,J1,10,10*
X-14438000Y27340000D03*
G04 #@! TO.N,GND*
G04 #@! TO.C,J8*
G04 #@! TO.P,J8,2,2*
X15040000Y-20070000D03*
G04 #@! TO.N,PROGRAM_B*
G04 #@! TO.P,J8,1,1*
X15040000Y-17530000D03*
G04 #@! TO.N,P57_3V3*
G04 #@! TO.C,J3*
G04 #@! TO.P,J3,24,24*
X33070000Y-10630000D03*
G04 #@! TO.N,P13_3V3*
G04 #@! TO.P,J3,2,2*
X33070000Y17310000D03*
G04 #@! TO.N,P33_3V3*
G04 #@! TO.P,J3,18,18*
X33070000Y-3010000D03*
G04 #@! TO.N,P11_3V3*
G04 #@! TO.P,J3,8,8*
X33070000Y9690000D03*
G04 #@! TO.N,P15_3V3*
G04 #@! TO.P,J3,15,15*
X30530000Y-470000D03*
G04 #@! TO.N,P27_3V3*
G04 #@! TO.P,J3,3,3*
X30530000Y14770000D03*
G04 #@! TO.N,P21_3V3*
G04 #@! TO.P,J3,14,14*
X33070000Y2070000D03*
G04 #@! TO.N,P10_3V3*
G04 #@! TO.P,J3,6,6*
X33070000Y12230000D03*
G04 #@! TO.N,P51_3V3*
G04 #@! TO.P,J3,22,22*
X33070000Y-8090000D03*
G04 #@! TO.N,P19_3V3*
G04 #@! TO.P,J3,12,12*
X33070000Y4610000D03*
G04 #@! TO.N,P55_3V3*
G04 #@! TO.P,J3,26,26*
X33070000Y-13170000D03*
G04 #@! TO.N,P18_3V3*
G04 #@! TO.P,J3,9,9*
X30530000Y7150000D03*
G04 #@! TO.N,N/C*
G04 #@! TO.P,J3,1,1*
X30530000Y17310000D03*
G04 #@! TO.N,P54_3V3*
G04 #@! TO.P,J3,23,23*
X30530000Y-10630000D03*
G04 #@! TO.N,P30_3V3*
G04 #@! TO.P,J3,13,13*
X30530000Y2070000D03*
G04 #@! TO.N,P29_3V3*
G04 #@! TO.P,J3,19,19*
X30530000Y-5550000D03*
G04 #@! TO.N,P20_3V3*
G04 #@! TO.P,J3,11,11*
X30530000Y4610000D03*
G04 #@! TO.N,P16_3V3*
G04 #@! TO.P,J3,7,7*
X30530000Y9690000D03*
G04 #@! TO.N,P12_3V3*
G04 #@! TO.P,J3,5,5*
X30530000Y12230000D03*
G04 #@! TO.N,P14_3V3*
G04 #@! TO.P,J3,4,4*
X33070000Y14770000D03*
G04 #@! TO.N,N/C*
G04 #@! TO.P,J3,28,28*
X33070000Y-15710000D03*
G04 #@! TO.N,P47_3V3*
G04 #@! TO.P,J3,29,29*
X30530000Y-18250000D03*
G04 #@! TO.N,P32_3V3*
G04 #@! TO.P,J3,17,17*
X30530000Y-3010000D03*
G04 #@! TO.N,P46_3V3*
G04 #@! TO.P,J3,30,30*
X33070000Y-18250000D03*
G04 #@! TO.N,P34_3V3*
G04 #@! TO.P,J3,16,16*
X33070000Y-470000D03*
G04 #@! TO.N,P31_3V3*
G04 #@! TO.P,J3,20,20*
X33070000Y-5550000D03*
G04 #@! TO.N,P50_3V3*
G04 #@! TO.P,J3,21,21*
X30530000Y-8090000D03*
G04 #@! TO.N,P52_3V3*
G04 #@! TO.P,J3,27,27*
X30530000Y-15710000D03*
G04 #@! TO.N,P17_3V3*
G04 #@! TO.P,J3,10,10*
X33070000Y7150000D03*
G04 #@! TO.N,P56_3V3*
G04 #@! TO.P,J3,25,25*
X30530000Y-13170000D03*
G04 #@! TO.N,N23*
G04 #@! TO.C,J5*
G04 #@! TO.P,J5,9,9*
X2817000Y-20270000D03*
G04 #@! TO.N,FLASH_VCC*
G04 #@! TO.P,J5,1,1*
X-7343000Y-20270000D03*
G04 #@! TO.N,GND*
G04 #@! TO.P,J5,4,4*
X-4803000Y-17730000D03*
G04 #@! TO.N,FLASH_SCK*
G04 #@! TO.P,J5,5,5*
X-2263000Y-20270000D03*
G04 #@! TO.N,VCC3V3*
G04 #@! TO.P,J5,2,2*
X-7343000Y-17730000D03*
G04 #@! TO.N,FLASH_VSS*
G04 #@! TO.P,J5,3,3*
X-4803000Y-20270000D03*
G04 #@! TO.N,CCLK*
G04 #@! TO.P,J5,6,6*
X-2263000Y-17730000D03*
G04 #@! TO.N,D0*
G04 #@! TO.P,J5,10,10*
X2817000Y-17730000D03*
G04 #@! TO.N,FLASH_CS*
G04 #@! TO.P,J5,11,11*
X5357000Y-20270000D03*
G04 #@! TO.N,FCS_B*
G04 #@! TO.P,J5,12,12*
X5357000Y-17730000D03*
G04 #@! TO.N,D1*
G04 #@! TO.P,J5,8,8*
X277000Y-17730000D03*
G04 #@! TO.N,N13*
G04 #@! TO.P,J5,7,7*
X277000Y-20270000D03*
D11*
G04 #@! TD.C*
G04 #@! TD.P*
G04 #@! TO.N,GND*
X-11651028Y-1955000D03*
D12*
G04 #@! TO.N,VCC3V3*
X-4500000Y12400000D03*
G04 #@! TO.N,GND*
X-4500000Y10600000D03*
X32500000Y26600000D03*
G04 #@! TO.N,P31_1V8*
X11017000Y10042000D03*
G04 #@! TO.N,GND*
X-300000Y-6476000D03*
G04 #@! TO.N,VCC3V3*
X-9855000Y325000D03*
G04 #@! TO.N,P71_1V8*
X-8500000Y6524000D03*
G04 #@! TO.N,P45_3V3*
X9018000Y-11994000D03*
G04 #@! TO.N,P28_1V8*
X10017000Y11042000D03*
G04 #@! TO.N,P70_1V8*
X-9500000Y6524000D03*
G04 #@! TO.N,GND*
X-14200000Y2700000D03*
G04 #@! TO.N,P55_3V3*
X9018000Y-9994000D03*
G04 #@! TO.N,P63_1V8*
X-14958000Y9042000D03*
G04 #@! TO.N,P33_1V8*
X2017000Y6042000D03*
G04 #@! TO.N,VCC3V3*
X10497000Y3528000D03*
G04 #@! TO.N,P36_1V8*
X3017000Y9042000D03*
G04 #@! TO.N,PGOOD1*
X-5700000Y-3800000D03*
G04 #@! TO.N,GND*
X-7168028Y3947000D03*
G04 #@! TO.N,VCC1V0*
X-4018000Y-4993000D03*
G04 #@! TO.N,VCC3V3*
X5825000Y-5776000D03*
G04 #@! TO.N,GND*
X31100000Y28000000D03*
X7575000Y-5776000D03*
X32500000Y28000000D03*
G04 #@! TO.N,MODE/SYNC/1.8V*
X-4993000Y4261000D03*
G04 #@! TO.N,VCC1V8*
X7500000Y12524000D03*
G04 #@! TO.N,P59_1V8*
X-9500000Y9525000D03*
G04 #@! TO.N,P11_1V8*
X7017000Y19622000D03*
G04 #@! TO.N,P3_3V3*
X15746000Y3042000D03*
G04 #@! TO.N,GND*
X7575000Y-5176000D03*
G04 #@! TO.N,P58_1V8*
X-18038000Y10042000D03*
G04 #@! TO.N,VCC1V8*
X8017000Y13042000D03*
G04 #@! TO.N,P54_1V8*
X-20348000Y12042000D03*
G04 #@! TO.N,GND*
X7701000Y-471000D03*
G04 #@! TO.N,P17_1V8*
X9017000Y14752000D03*
G04 #@! TO.N,VCC1V8*
X-5018000Y5042000D03*
G04 #@! TO.N,INIT_B*
X-3018000Y-4993000D03*
G04 #@! TO.N,INTVCC*
X-2617000Y5959000D03*
G04 #@! TO.N,VCC1V8*
X-4500000Y-3475000D03*
X-5018000Y-3993000D03*
G04 #@! TO.N,P30_1V8*
X16517000Y10042000D03*
G04 #@! TO.N,+5V*
X-9855000Y-5525000D03*
G04 #@! TO.N,VCC3V3*
X8501000Y-471000D03*
G04 #@! TO.N,GND*
X-7138028Y4557000D03*
G04 #@! TO.N,P8_1V8*
X6017000Y11047000D03*
D11*
G04 #@! TO.N,GND*
X-12621028Y-1955000D03*
D12*
G04 #@! TO.N,P67_1V8*
X-11018000Y8042000D03*
G04 #@! TO.N,GND*
X-18300000Y-1025000D03*
G04 #@! TO.N,P1_1V8*
X4017000Y11042000D03*
G04 #@! TO.N,P65_1V8*
X-7500000Y8524000D03*
G04 #@! TO.N,P33_1V8*
X1017000Y14752000D03*
G04 #@! TO.N,VCC1V0*
X-2501000Y4525000D03*
X-3018000Y5042000D03*
G04 #@! TO.N,P69_1V8*
X-12018000Y7042000D03*
G04 #@! TO.N,P53_1V8*
X-10018000Y12042000D03*
G04 #@! TO.N,VCC1V8*
X-11499000Y9522000D03*
G04 #@! TO.N,P7_3V3*
X9017000Y2042000D03*
G04 #@! TO.N,P18_1V8*
X9017000Y12042000D03*
G04 #@! TO.N,P18_3V3*
X15768000Y-994000D03*
G04 #@! TO.N,VCC3V3*
X14097000Y-13514000D03*
G04 #@! TO.N,P55_3V3*
X14728000Y-9994000D03*
G04 #@! TO.N,GND*
X-6300000Y10600000D03*
X31800000Y28000000D03*
G04 #@! TO.N,VCC1V0*
X-500000Y-5480000D03*
X-1018000Y-5993000D03*
G04 #@! TO.N,D2*
X500000Y-475000D03*
X1018000Y-22282000D03*
G04 #@! TO.N,P29_1V8*
X11017000Y11042000D03*
G04 #@! TO.N,VCC3V3*
X12500000Y-12475000D03*
D11*
G04 #@! TO.N,GND*
X-13591028Y-3273000D03*
D12*
G04 #@! TO.N,VCC3V3*
X11665000Y7674000D03*
G04 #@! TO.N,P52_3V3*
X6500000Y-10476000D03*
G04 #@! TO.N,P68_1V8*
X-9500000Y7524000D03*
G04 #@! TO.N,P44_3V3*
X14728000Y-11994000D03*
G04 #@! TO.N,VCC3V3*
X5809000Y2564000D03*
G04 #@! TO.N,P17_3V3*
X11018000Y-994000D03*
G04 #@! TO.N,P12_3V3*
X9500000Y524000D03*
G04 #@! TO.N,+5V*
X-7063000Y-5641000D03*
G04 #@! TO.N,P0_1V8*
X3017000Y15522000D03*
G04 #@! TO.N,P57_1V8*
X-10018000Y11042000D03*
G04 #@! TO.N,VFB2*
X-15655000Y3735000D03*
G04 #@! TO.N,P17_3V3*
X14998000Y-994000D03*
G04 #@! TO.N,P18_1V8*
X9017000Y13982000D03*
G04 #@! TO.N,VCC1V8*
X31800000Y25400000D03*
G04 #@! TO.N,INTVCC*
X-3400000Y5390000D03*
G04 #@! TO.N,+5V*
X-19934000Y-5605000D03*
G04 #@! TO.N,P69_1V8*
X-13958000Y7042000D03*
G04 #@! TO.N,P44_3V3*
X10018000Y-11994000D03*
G04 #@! TO.N,VCC1V0*
X-1499000Y-4476000D03*
G04 #@! TO.N,GND*
X-5613000Y-5641000D03*
G04 #@! TO.N,P8_3V3*
X16516000Y2042000D03*
G04 #@! TO.N,P49_3V3*
X17038000Y-10994000D03*
G04 #@! TO.N,VCC3V3*
X5501000Y-11476000D03*
G04 #@! TO.N,PGOOD1*
X-10900000Y-3800000D03*
G04 #@! TO.N,VCC1V8*
X31100000Y24000000D03*
X32500000Y24000000D03*
G04 #@! TO.N,P7_1V8*
X6017000Y10042000D03*
G04 #@! TO.N,P60_1V8*
X-8500000Y9525000D03*
G04 #@! TO.N,VCC1V0*
X-1018000Y-1993000D03*
G04 #@! TO.N,P34_3V3*
X8500000Y-2476000D03*
G04 #@! TO.N,P72_1V8*
X-9018000Y8042000D03*
G04 #@! TO.N,P32_1V8*
X1017000Y15522000D03*
G04 #@! TO.N,P40_1V8*
X4500000Y7524000D03*
G04 #@! TO.N,P57_3V3*
X6018000Y-8994000D03*
G04 #@! TO.N,P37_1V8*
X4017000Y9042000D03*
G04 #@! TO.N,P7_1V8*
X6017000Y15522000D03*
G04 #@! TO.N,P41_1V8*
X2500000Y6524000D03*
G04 #@! TO.N,VCC3V3*
X-18520000Y6385000D03*
G04 #@! TO.N,P57_1V8*
X-18808000Y11042000D03*
G04 #@! TO.N,P15_1V8*
X7500000Y10525000D03*
G04 #@! TO.N,GND*
X31800000Y26600000D03*
G04 #@! TO.N,VCC3V3*
X-6300000Y12400000D03*
G04 #@! TO.N,D3*
X-2982000Y-24500000D03*
X500000Y524000D03*
G04 #@! TO.N,P54_3V3*
X15498000Y-9994000D03*
G04 #@! TO.N,VCC3V3*
X-2700000Y12200000D03*
G04 #@! TO.N,MODE/SYNC/1.8V*
X-3400000Y6975000D03*
G04 #@! TO.N,CFGBVS*
X2018000Y-8994000D03*
G04 #@! TO.N,D1*
X2018000Y-15474000D03*
G04 #@! TO.N,P51_3V3*
X14728000Y-8994000D03*
G04 #@! TO.N,P8_1V8*
X6017000Y14752000D03*
G04 #@! TO.N,P19_3V3*
X9018000Y-1994000D03*
G04 #@! TO.N,VCC1V8*
X500000Y6524000D03*
G04 #@! TO.N,GND*
X-2700000Y10800000D03*
G04 #@! TO.N,+5V*
X-14088000Y5461000D03*
G04 #@! TO.N,CLK_27MHZ*
X6500000Y8524000D03*
G04 #@! TO.N,VCC3V3*
X8500000Y-10472000D03*
G04 #@! TO.N,P13_3V3*
X7017000Y3042000D03*
G04 #@! TO.N,P14_3V3*
X6497000Y1522000D03*
G04 #@! TO.N,P51_3V3*
X7018000Y-8994000D03*
G04 #@! TO.N,VCC1V0*
X-1476000Y3500000D03*
X-2018000Y4042000D03*
G04 #@! TO.N,P29_1V8*
X16517000Y11042000D03*
G04 #@! TO.N,VCC1V8*
X31100000Y25400000D03*
G04 #@! TO.N,VCC1V0*
X-3018000Y3042000D03*
G04 #@! TO.N,VCC3V3*
X11501000Y524000D03*
G04 #@! TO.N,VCC1V8*
X-10500000Y6524000D03*
X-11018000Y7042000D03*
X-13018000Y13042000D03*
G04 #@! TO.N,GND*
X-6943000Y-2489000D03*
G04 #@! TO.N,VCC1V0*
X-1018000Y1042000D03*
X-500000Y524000D03*
G04 #@! TO.N,GND*
X-18325000Y800000D03*
G04 #@! TO.N,VCC3V3*
X-1718000Y-13938000D03*
G04 #@! TO.N,VCC1V8*
X31100000Y24700000D03*
G04 #@! TO.N,INTVCC*
X-3614000Y4911000D03*
G04 #@! TO.N,VCC1V0*
X-3500000Y1525000D03*
G04 #@! TO.N,P38_1V8*
X5017000Y9042000D03*
G04 #@! TO.N,VCC1V8*
X8499000Y9522000D03*
X-5018000Y1042000D03*
X-4500000Y524000D03*
G04 #@! TO.N,P0_1V8*
X3017000Y10042000D03*
G04 #@! TO.N,VCC1V8*
X-7018000Y5042000D03*
G04 #@! TO.N,P35_1V8*
X1500000Y7525000D03*
G04 #@! TO.N,VCC3V3*
X7497000Y-7472000D03*
G04 #@! TO.N,P1_1V8*
X3017000Y14752000D03*
G04 #@! TO.N,P23_3V3*
X11018000Y-2994000D03*
G04 #@! TO.N,CLK_3V3_29.5MHZ*
X7500000Y525000D03*
G04 #@! TO.N,P22_3V3*
X10018000Y-2994000D03*
G04 #@! TO.N,VFB2*
X-15405000Y-975000D03*
G04 #@! TO.N,P31_1V8*
X14977000Y10042000D03*
G04 #@! TO.N,VCC1V8*
X2500000Y7525000D03*
X3017000Y8042000D03*
G04 #@! TO.N,VCC3V3*
X8092000Y5812000D03*
G04 #@! TO.N,P2_3V3*
X14976000Y3042000D03*
G04 #@! TO.N,P30_3V3*
X5500000Y524000D03*
G04 #@! TO.N,P58_1V8*
X-11018000Y10042000D03*
G04 #@! TO.N,+5V*
X-9213000Y4261000D03*
G04 #@! TO.N,P16_1V8*
X7500000Y11524000D03*
G04 #@! TO.N,VCC1V0*
X-4018000Y2042000D03*
G04 #@! TO.N,P48_3V3*
X16268000Y-10994000D03*
G04 #@! TO.N,P29_3V3*
X4500000Y524000D03*
G04 #@! TO.N,P39_1V8*
X3500000Y7524000D03*
G04 #@! TO.N,GND*
X-6648028Y3947000D03*
G04 #@! TO.N,VCC1V8*
X-12500000Y12522000D03*
G04 #@! TO.N,P45_3V3*
X15498000Y-11994000D03*
G04 #@! TO.N,VCC1V8*
X12017000Y11042000D03*
G04 #@! TO.N,MODE/SYNC/1.8V*
X-3875000Y7600000D03*
G04 #@! TO.N,VCC1V8*
X-8018000Y8042000D03*
G04 #@! TO.N,P46_3V3*
X7500000Y-11476000D03*
G04 #@! TO.N,VCC1V0*
X-1500000Y-2476000D03*
X-2018000Y-2993000D03*
G04 #@! TO.N,VCC1V8*
X-7493000Y7523000D03*
G04 #@! TO.N,P56_3V3*
X8018000Y-9994000D03*
G04 #@! TO.N,P49_3V3*
X10018000Y-10994000D03*
G04 #@! TO.N,LED1*
X-18536000Y-8000D03*
G04 #@! TO.N,VCC1V0*
X-2499000Y2524000D03*
X-3018000Y-3993000D03*
G04 #@! TO.N,P31_3V3*
X5500000Y-475000D03*
G04 #@! TO.N,VCC3V3*
X4499000Y-8472000D03*
G04 #@! TO.N,CFGBVS*
X3018000Y-14704000D03*
G04 #@! TO.N,FLASH_SCK*
X-2263000Y-22570000D03*
G04 #@! TO.N,VCC3V3*
X-21800000Y-2650000D03*
G04 #@! TO.N,P42_1V8*
X3500000Y6524000D03*
G04 #@! TO.N,VCC3V3*
X5825000Y-5176000D03*
G04 #@! TO.N,P67_1V8*
X-14958000Y8042000D03*
G04 #@! TO.N,VCC3V3*
X-7000000Y1225000D03*
G04 #@! TO.N,GND*
X5806000Y1764000D03*
G04 #@! TO.N,VCC1V8*
X4489000Y11524000D03*
G04 #@! TO.N,GND*
X32500000Y27300000D03*
G04 #@! TO.N,VCC1V8*
X-9018000Y11042000D03*
G04 #@! TO.N,VCC3V3*
X14097000Y-12914000D03*
G04 #@! TO.N,VCC1V8*
X32500000Y25400000D03*
X-12018000Y10042000D03*
G04 #@! TO.N,VCC1V0*
X-2500000Y-3475000D03*
G04 #@! TO.N,P50_3V3*
X15498000Y-8994000D03*
G04 #@! TO.N,VCC1V8*
X31800000Y24700000D03*
G04 #@! TO.N,VCC1V0*
X-3500000Y-475000D03*
G04 #@! TO.N,FCS_B*
X4500000Y-476000D03*
G04 #@! TO.N,VCC1V0*
X-4018000Y-2993000D03*
G04 #@! TO.N,GND*
X-7678028Y3957000D03*
G04 #@! TO.N,VCC1V0*
X-475000Y4500000D03*
X-1018000Y5042000D03*
G04 #@! TO.N,P54_1V8*
X-9018000Y12042000D03*
G04 #@! TO.N,VCC1V0*
X-3501000Y-2475000D03*
G04 #@! TO.N,VCC1V8*
X-5018000Y3042000D03*
X-4500000Y2524000D03*
G04 #@! TO.N,P56_1V8*
X-18038000Y11042000D03*
G04 #@! TO.N,VCC1V0*
X-2018000Y-4993000D03*
X-1018000Y3042000D03*
X-500000Y2524000D03*
G04 #@! TO.N,VCC3V3*
X-14105000Y3735000D03*
G04 #@! TO.N,VCC1V0*
X-3500000Y-4475000D03*
G04 #@! TO.N,P3_3V3*
X10017000Y3042000D03*
G04 #@! TO.N,VCC1V8*
X5017000Y12042000D03*
X-4500000Y-1476000D03*
X-5018000Y-1993000D03*
G04 #@! TO.N,GND*
X31100000Y26600000D03*
G04 #@! TO.N,CCLK*
X-500000Y5524000D03*
G04 #@! TO.N,FLASH_SCK*
X1482000Y-26213000D03*
G04 #@! TO.N,P53_1V8*
X-19578000Y12042000D03*
G04 #@! TO.N,P23_3V3*
X18078000Y-2994000D03*
G04 #@! TO.N,VCC1V8*
X9017000Y10042000D03*
G04 #@! TO.N,P8_3V3*
X11017000Y2042000D03*
G04 #@! TO.N,P26_1V8*
X11017000Y12042000D03*
G04 #@! TO.N,P47_3V3*
X6500000Y-11476000D03*
G04 #@! TO.N,GND*
X31100000Y27300000D03*
G04 #@! TO.N,P16_3V3*
X10018000Y-994000D03*
G04 #@! TO.N,P27_3V3*
X8017000Y2042000D03*
G04 #@! TO.N,P64_1V8*
X-15728000Y9042000D03*
G04 #@! TO.N,GND*
X31800000Y27300000D03*
G04 #@! TO.N,VCC1V0*
X-4018000Y-993000D03*
G04 #@! TO.N,VFB2*
X-17005000Y4824000D03*
G04 #@! TO.N,P10_3V3*
X10500000Y525000D03*
G04 #@! TO.N,VCC3V3*
X3499000Y-5475000D03*
G04 #@! TO.N,P32_3V3*
X6500000Y-1476000D03*
G04 #@! TO.N,D1*
X2018000Y-1994000D03*
G04 #@! TO.N,FLASH_CS*
X-4418000Y-33833000D03*
G04 #@! TO.N,P20_3V3*
X10018000Y-1994000D03*
G04 #@! TO.N,VCC3V3*
X5499000Y-1475000D03*
G04 #@! TO.N,P21_3V3*
X17308000Y-1994000D03*
G04 #@! TO.N,+5V*
X-8393000Y-2489000D03*
G04 #@! TO.N,VCC3V3*
X1500000Y525000D03*
G04 #@! TO.N,P64_1V8*
X-9018000Y9042000D03*
G04 #@! TO.N,GND*
X-18560000Y-5605000D03*
G04 #@! TO.N,VCC1V8*
X11500000Y10524000D03*
G04 #@! TO.N,P56_1V8*
X-11018000Y11042000D03*
G04 #@! TO.N,GND*
X15847000Y-12914000D03*
G04 #@! TO.N,P15_3V3*
X6500000Y-476000D03*
G04 #@! TO.N,P17_1V8*
X9017000Y11042000D03*
G04 #@! TO.N,VCC1V8*
X-8470000Y10507000D03*
X32500000Y24700000D03*
G04 #@! TO.N,P7_3V3*
X17286000Y2042000D03*
G04 #@! TO.N,GND*
X-17200000Y-5605000D03*
G04 #@! TO.N,P32_1V8*
X1017000Y6042000D03*
G04 #@! TO.N,P48_3V3*
X11018000Y-10994000D03*
G04 #@! TO.N,P11_3V3*
X8500000Y525000D03*
G04 #@! TO.N,VCC1V8*
X31800000Y24000000D03*
G04 #@! TO.N,GND*
X15847000Y-13514000D03*
X11700000Y-12475000D03*
X2300000Y525000D03*
G04 #@! TO.N,VCC1V8*
X6017000Y9042000D03*
G04 #@! TO.N,P4_1V8*
X5017000Y14752000D03*
G04 #@! TO.N,FLASH_CS*
X5357000Y-22570000D03*
G04 #@! TO.N,GND*
X-22186000Y-558000D03*
G04 #@! TO.N,P2_3V3*
X11017000Y3042000D03*
G04 #@! TO.N,P33_3V3*
X7500000Y-1476000D03*
G04 #@! TO.N,P11_1V8*
X7017000Y10042000D03*
G04 #@! TO.N,D0*
X500000Y-1475000D03*
G04 #@! TO.N,VCC1V0*
X-3501000Y3525000D03*
X-4018000Y4042000D03*
G04 #@! TO.N,PGOOD1*
X-15400000Y-6200000D03*
G04 #@! TO.N,VFB2*
X-17070000Y6385000D03*
X-15490000Y1950000D03*
D11*
G04 #@! TO.N,GND*
X-13591028Y-1955000D03*
D12*
G04 #@! TO.N,P22_3V3*
X18848000Y-2994000D03*
G04 #@! TO.N,P30_1V8*
X10017000Y10042000D03*
G04 #@! TO.N,P20_3V3*
X16538000Y-1994000D03*
G04 #@! TO.N,+5V*
X-9855000Y-2275000D03*
G04 #@! TO.N,P63_1V8*
X-11018000Y9042000D03*
G04 #@! TO.N,VCC1V0*
X-1018000Y-3993000D03*
X-500000Y-3476000D03*
G04 #@! TO.N,P4_1V8*
X5017000Y10042000D03*
G04 #@! TO.N,P14_1V8*
X7500000Y9524000D03*
G04 #@! TO.N,GND*
X-15538000Y5461000D03*
G04 #@! TO.N,P26_1V8*
X16517000Y12042000D03*
G04 #@! TO.N,P61_1V8*
X-7500000Y9524000D03*
G04 #@! TO.N,VCC3V3*
X-8000000Y1225000D03*
D13*
G04 #@! TA.AperFunction,Conductor*
G04 #@! TO.N,CFGBVS*
G36*
X1600000Y-14967120D02*
X1619500Y-15026447D01*
X1670395Y-15062636D01*
X1732836Y-15061574D01*
X1760873Y-15046456D01*
X1762803Y-15044975D01*
X1774053Y-15038480D01*
X1882537Y-14993544D01*
X1895084Y-14990182D01*
X2011506Y-14974855D01*
X2024494Y-14974855D01*
X2140916Y-14990182D01*
X2153463Y-14993544D01*
X2261947Y-15038480D01*
X2273199Y-15044976D01*
X2366352Y-15116456D01*
X2375544Y-15125648D01*
X2447024Y-15218801D01*
X2453520Y-15230053D01*
X2498456Y-15338537D01*
X2501818Y-15351084D01*
X2517145Y-15467506D01*
X2517145Y-15480494D01*
X2501818Y-15596916D01*
X2498456Y-15609463D01*
X2453520Y-15717947D01*
X2447024Y-15729199D01*
X2375544Y-15822352D01*
X2366352Y-15831544D01*
X2276270Y-15900667D01*
X2241074Y-15952253D01*
X2243346Y-16014662D01*
X2282201Y-16063552D01*
X2337146Y-16080000D01*
X3130001Y-16080000D01*
X3189328Y-16060500D01*
X3230000Y-15980001D01*
X3230000Y-5942747D01*
X3190877Y-5863413D01*
X3150648Y-5832544D01*
X3141456Y-5823352D01*
X3069976Y-5730199D01*
X3063480Y-5718947D01*
X3018544Y-5610463D01*
X3015182Y-5597916D01*
X2999855Y-5481494D01*
X2999855Y-5468506D01*
X3015182Y-5352084D01*
X3018544Y-5339537D01*
X3063480Y-5231053D01*
X3069976Y-5219801D01*
X3141456Y-5126648D01*
X3150648Y-5117456D01*
X3190877Y-5086587D01*
X3230000Y-5007253D01*
X3230000Y-499999D01*
X3210500Y-440672D01*
X3130001Y-400000D01*
X1699999Y-400000D01*
X1640672Y-419500D01*
X1600000Y-499999D01*
X1600000Y-1487120D01*
X1619500Y-1546447D01*
X1670395Y-1582636D01*
X1732836Y-1581574D01*
X1760873Y-1566456D01*
X1762803Y-1564975D01*
X1774053Y-1558480D01*
X1882537Y-1513544D01*
X1895084Y-1510182D01*
X2011506Y-1494855D01*
X2024494Y-1494855D01*
X2140916Y-1510182D01*
X2153463Y-1513544D01*
X2261947Y-1558480D01*
X2273199Y-1564976D01*
X2366352Y-1636456D01*
X2375544Y-1645648D01*
X2447024Y-1738801D01*
X2453520Y-1750053D01*
X2498456Y-1858537D01*
X2501818Y-1871084D01*
X2517145Y-1987506D01*
X2517145Y-2000494D01*
X2501818Y-2116916D01*
X2498456Y-2129463D01*
X2453520Y-2237947D01*
X2447024Y-2249199D01*
X2375544Y-2342352D01*
X2366352Y-2351544D01*
X2273199Y-2423024D01*
X2261947Y-2429520D01*
X2153463Y-2474456D01*
X2140916Y-2477818D01*
X2024494Y-2493145D01*
X2011506Y-2493145D01*
X1895084Y-2477818D01*
X1882537Y-2474456D01*
X1774053Y-2429520D01*
X1762803Y-2423025D01*
X1760873Y-2421544D01*
X1759259Y-2420979D01*
X1757124Y-2419746D01*
X1756891Y-2420149D01*
X1701934Y-2400900D01*
X1642241Y-2419248D01*
X1605073Y-2469433D01*
X1600000Y-2500880D01*
X1600000Y-14967120D01*
G37*
G04 #@! TO.N,VFB2*
G36*
X-17967568Y6974905D02*
X-17300091Y4400351D01*
X-17299909Y4399623D01*
X-15918474Y-1323465D01*
X-15885598Y-1376560D01*
X-15821267Y-1400000D01*
X-14030483Y-1400000D01*
X-13971156Y-1380500D01*
X-13934967Y-1329605D01*
X-13933922Y-1274004D01*
X-14599946Y1199799D01*
X-14600054Y1200208D01*
X-15299935Y3899749D01*
X-15300088Y3900352D01*
X-15549674Y4898700D01*
X-15582980Y4951527D01*
X-15633636Y4973591D01*
X-15660916Y4977182D01*
X-15673463Y4980544D01*
X-15781947Y5025480D01*
X-15793199Y5031976D01*
X-15886352Y5103456D01*
X-15895544Y5112648D01*
X-15967024Y5205801D01*
X-15973520Y5217053D01*
X-16018456Y5325537D01*
X-16021818Y5338084D01*
X-16037145Y5454506D01*
X-16037145Y5467494D01*
X-16021818Y5583916D01*
X-16018456Y5596463D01*
X-15973520Y5704947D01*
X-15967024Y5716199D01*
X-15895544Y5809352D01*
X-15886355Y5818541D01*
X-15848861Y5847312D01*
X-15813665Y5898899D01*
X-15812725Y5950899D01*
X-16081064Y7024254D01*
X-16114370Y7077081D01*
X-16178077Y7100000D01*
X-17870769Y7100000D01*
X-17930096Y7080500D01*
X-17966285Y7029605D01*
X-17967568Y6974905D01*
G37*
G04 #@! TO.N,P33_1V8*
G36*
X450000Y7118280D02*
X469500Y7058953D01*
X536946Y7019137D01*
X622909Y7007820D01*
X635463Y7004456D01*
X743947Y6959520D01*
X755199Y6953024D01*
X848352Y6881544D01*
X857544Y6872352D01*
X929024Y6779199D01*
X935520Y6767947D01*
X980456Y6659463D01*
X983818Y6646916D01*
X987273Y6620671D01*
X1014350Y6564397D01*
X1073365Y6534579D01*
X1139916Y6525818D01*
X1152463Y6522456D01*
X1260947Y6477520D01*
X1272199Y6471024D01*
X1365352Y6399544D01*
X1374544Y6390352D01*
X1446024Y6297199D01*
X1452520Y6285947D01*
X1497456Y6177463D01*
X1500818Y6164916D01*
X1516145Y6048494D01*
X1516145Y6035506D01*
X1500818Y5919084D01*
X1497456Y5906537D01*
X1452520Y5798053D01*
X1446024Y5786801D01*
X1374544Y5693648D01*
X1365352Y5684456D01*
X1272199Y5612976D01*
X1260946Y5606479D01*
X1226922Y5592386D01*
X1179573Y5551667D01*
X1165615Y5490797D01*
X1190492Y5433516D01*
X1265190Y5400000D01*
X2260001Y5400000D01*
X2319328Y5419500D01*
X2360000Y5499999D01*
X2360000Y5978607D01*
X2340500Y6037934D01*
X2298268Y6070994D01*
X2256055Y6088478D01*
X2244801Y6094976D01*
X2151648Y6166456D01*
X2142456Y6175648D01*
X2070976Y6268801D01*
X2064480Y6280053D01*
X2019544Y6388537D01*
X2016182Y6401084D01*
X2000855Y6517506D01*
X2000855Y6530494D01*
X2016182Y6646916D01*
X2019544Y6659463D01*
X2064480Y6767947D01*
X2070976Y6779199D01*
X2142456Y6872352D01*
X2151648Y6881544D01*
X2234561Y6945166D01*
X2269757Y6996752D01*
X2267485Y7059161D01*
X2234561Y7103834D01*
X2151648Y7167456D01*
X2142456Y7176648D01*
X2079334Y7258909D01*
X2027747Y7294105D01*
X1965339Y7291833D01*
X1920666Y7258909D01*
X1857544Y7176648D01*
X1848352Y7167456D01*
X1755199Y7095976D01*
X1743947Y7089480D01*
X1635463Y7044544D01*
X1622916Y7041182D01*
X1506494Y7025855D01*
X1493506Y7025855D01*
X1377084Y7041182D01*
X1364537Y7044544D01*
X1256053Y7089480D01*
X1244801Y7095976D01*
X1151648Y7167456D01*
X1142456Y7176648D01*
X1070976Y7269801D01*
X1064480Y7281053D01*
X1019544Y7389537D01*
X1016182Y7402084D01*
X1000855Y7518506D01*
X1000855Y7531494D01*
X1016182Y7647916D01*
X1019544Y7660463D01*
X1064480Y7768947D01*
X1070976Y7780199D01*
X1142456Y7873352D01*
X1151648Y7882544D01*
X1244801Y7954024D01*
X1256053Y7960520D01*
X1364537Y8005456D01*
X1377084Y8008818D01*
X1493506Y8024145D01*
X1506494Y8024145D01*
X1622916Y8008818D01*
X1635463Y8005456D01*
X1743947Y7960520D01*
X1755199Y7954024D01*
X1848352Y7882544D01*
X1857544Y7873352D01*
X1920666Y7791091D01*
X1972253Y7755895D01*
X2034661Y7758167D01*
X2079334Y7791091D01*
X2142456Y7873352D01*
X2151648Y7882544D01*
X2244801Y7954024D01*
X2256055Y7960522D01*
X2298268Y7978006D01*
X2345617Y8018724D01*
X2360000Y8070393D01*
X2360000Y10010799D01*
X2340500Y10070126D01*
X2317950Y10092296D01*
X2298398Y10106199D01*
X2293192Y10110456D01*
X2242640Y10157819D01*
X2233021Y10170234D01*
X2186696Y10254952D01*
X2183071Y10263315D01*
X2166238Y10314527D01*
X2164373Y10322212D01*
X2150628Y10408048D01*
X2150000Y10415943D01*
X2150000Y15148385D01*
X2150528Y15155637D01*
X2162073Y15234456D01*
X2163645Y15241551D01*
X2178179Y15290102D01*
X2180266Y15295792D01*
X2205104Y15352590D01*
X2213165Y15365323D01*
X2276792Y15438388D01*
X2283383Y15444689D01*
X2322217Y15475551D01*
X2360000Y15553839D01*
X2360000Y15820001D01*
X2340500Y15879328D01*
X2260001Y15920000D01*
X1536781Y15920000D01*
X1477454Y15900500D01*
X1441265Y15849605D01*
X1450178Y15770004D01*
X1452520Y15765947D01*
X1497456Y15657463D01*
X1500818Y15644916D01*
X1516145Y15528494D01*
X1516145Y15515506D01*
X1500818Y15399084D01*
X1497456Y15386537D01*
X1452520Y15278053D01*
X1446024Y15266801D01*
X1374544Y15173648D01*
X1365352Y15164456D01*
X1272199Y15092976D01*
X1260947Y15086480D01*
X1152463Y15041544D01*
X1139916Y15038182D01*
X1023494Y15022855D01*
X1010506Y15022855D01*
X894084Y15038182D01*
X881537Y15041544D01*
X773053Y15086480D01*
X761801Y15092976D01*
X668648Y15164456D01*
X659456Y15173648D01*
X629333Y15212905D01*
X577747Y15248101D01*
X515339Y15245829D01*
X466448Y15206975D01*
X450000Y15152029D01*
X450000Y7118280D01*
G37*
G04 #@! TO.N,FLASH_SCK*
G36*
X-2700000Y-23458579D02*
X-2670711Y-23529289D01*
X470711Y-26670711D01*
X541421Y-26700000D01*
X1900001Y-26700000D01*
X1959328Y-26680500D01*
X2000000Y-26600001D01*
X2000000Y-25899999D01*
X1980500Y-25840672D01*
X1900001Y-25800000D01*
X919891Y-25800000D01*
X885935Y-25785935D01*
X-1785935Y-23114065D01*
X-1800000Y-23080109D01*
X-1800000Y-22199999D01*
X-1819500Y-22140672D01*
X-1899999Y-22100000D01*
X-2600001Y-22100000D01*
X-2659328Y-22119500D01*
X-2700000Y-22199999D01*
X-2700000Y-23458579D01*
G37*
G04 #@! TO.N,P1_1V8*
G36*
X2450000Y10411971D02*
X2469500Y10352644D01*
X2520395Y10316455D01*
X2582836Y10317517D01*
X2629333Y10351095D01*
X2659456Y10390352D01*
X2668648Y10399544D01*
X2761801Y10471024D01*
X2773053Y10477520D01*
X2881537Y10522456D01*
X2894084Y10525818D01*
X3010506Y10541145D01*
X3023494Y10541145D01*
X3139916Y10525818D01*
X3152463Y10522456D01*
X3260947Y10477520D01*
X3272199Y10471024D01*
X3365352Y10399544D01*
X3374544Y10390352D01*
X3446024Y10297199D01*
X3452520Y10285947D01*
X3497456Y10177463D01*
X3500818Y10164916D01*
X3516145Y10048494D01*
X3516145Y10035506D01*
X3500818Y9919084D01*
X3497456Y9906537D01*
X3452520Y9798053D01*
X3446024Y9786801D01*
X3374544Y9693648D01*
X3365352Y9684456D01*
X3283091Y9621334D01*
X3247895Y9569747D01*
X3250167Y9507339D01*
X3283091Y9462666D01*
X3337827Y9420665D01*
X3398703Y9400000D01*
X3635297Y9400000D01*
X3696173Y9420665D01*
X3761801Y9471024D01*
X3773053Y9477520D01*
X3881537Y9522456D01*
X3894084Y9525818D01*
X4010506Y9541145D01*
X4023494Y9541145D01*
X4139916Y9525818D01*
X4152463Y9522456D01*
X4221733Y9493763D01*
X4284006Y9489075D01*
X4336918Y9522247D01*
X4360000Y9586150D01*
X4360000Y10974050D01*
X4340500Y11033377D01*
X4298269Y11066437D01*
X4245053Y11088480D01*
X4233801Y11094976D01*
X4140648Y11166456D01*
X4131456Y11175648D01*
X4059976Y11268801D01*
X4053480Y11280053D01*
X4008544Y11388537D01*
X4005182Y11401084D01*
X3989855Y11517506D01*
X3989855Y11530494D01*
X4005182Y11646916D01*
X4008544Y11659463D01*
X4053480Y11767947D01*
X4059976Y11779199D01*
X4131456Y11872352D01*
X4140648Y11881544D01*
X4233801Y11953024D01*
X4245053Y11959520D01*
X4298269Y11981563D01*
X4345618Y12022282D01*
X4360000Y12073950D01*
X4360000Y15820001D01*
X4340500Y15879328D01*
X4260001Y15920000D01*
X3536781Y15920000D01*
X3477454Y15900500D01*
X3441265Y15849605D01*
X3450178Y15770004D01*
X3452520Y15765947D01*
X3497456Y15657463D01*
X3500818Y15644916D01*
X3516145Y15528494D01*
X3516145Y15515506D01*
X3500818Y15399084D01*
X3497456Y15386537D01*
X3452520Y15278053D01*
X3446024Y15266801D01*
X3374544Y15173648D01*
X3365352Y15164456D01*
X3272199Y15092976D01*
X3260947Y15086480D01*
X3152463Y15041544D01*
X3139916Y15038182D01*
X3023494Y15022855D01*
X3010506Y15022855D01*
X2894084Y15038182D01*
X2881537Y15041544D01*
X2773053Y15086480D01*
X2761801Y15092976D01*
X2668648Y15164456D01*
X2659456Y15173648D01*
X2629333Y15212905D01*
X2577747Y15248101D01*
X2515339Y15245829D01*
X2466448Y15206975D01*
X2450000Y15152029D01*
X2450000Y10411971D01*
G37*
G04 #@! TO.N,PGOOD1*
G36*
X-15900000Y-6700001D02*
X-15880500Y-6759328D01*
X-15800001Y-6800000D01*
X-14331316Y-6800000D01*
X-14274277Y-6782137D01*
X-10712562Y-4308723D01*
X-10684707Y-4300000D01*
X-5577062Y-4300000D01*
X-5517735Y-4280500D01*
X-5481546Y-4229605D01*
X-5484675Y-4161733D01*
X-5498456Y-4128463D01*
X-5501818Y-4115916D01*
X-5517145Y-3999494D01*
X-5517145Y-3986506D01*
X-5501818Y-3870084D01*
X-5498456Y-3857537D01*
X-5453520Y-3749053D01*
X-5447024Y-3737801D01*
X-5375544Y-3644648D01*
X-5366352Y-3635456D01*
X-5293212Y-3579333D01*
X-5258016Y-3527746D01*
X-5260288Y-3465338D01*
X-5299143Y-3416448D01*
X-5354088Y-3400000D01*
X-10968684Y-3400000D01*
X-11025723Y-3417863D01*
X-14587438Y-5891277D01*
X-14615293Y-5900000D01*
X-15800001Y-5900000D01*
X-15859328Y-5919500D01*
X-15900000Y-5999999D01*
X-15900000Y-6700001D01*
G37*
G04 #@! TO.N,INTVCC*
G36*
X-6000000Y4599999D02*
X-5980500Y4540672D01*
X-5900001Y4500000D01*
X-5483767Y4500000D01*
X-5404432Y4539124D01*
X-5377414Y4574335D01*
X-5356769Y4633273D01*
X-5377415Y4696086D01*
X-5447024Y4786801D01*
X-5453520Y4798053D01*
X-5498456Y4906537D01*
X-5501818Y4919084D01*
X-5517145Y5035506D01*
X-5517145Y5048494D01*
X-5501818Y5164916D01*
X-5498456Y5177463D01*
X-5453520Y5285947D01*
X-5447024Y5297199D01*
X-5375544Y5390352D01*
X-5366352Y5399544D01*
X-5273199Y5471024D01*
X-5261947Y5477520D01*
X-5153463Y5522456D01*
X-5140916Y5525818D01*
X-5024494Y5541145D01*
X-5011506Y5541145D01*
X-4895084Y5525818D01*
X-4882537Y5522456D01*
X-4774053Y5477520D01*
X-4762801Y5471024D01*
X-4669648Y5399544D01*
X-4660456Y5390352D01*
X-4588976Y5297199D01*
X-4582480Y5285947D01*
X-4537544Y5177463D01*
X-4534182Y5164916D01*
X-4518855Y5048494D01*
X-4518855Y5035506D01*
X-4534182Y4919084D01*
X-4537544Y4906537D01*
X-4582480Y4798053D01*
X-4588976Y4786801D01*
X-4633585Y4728666D01*
X-4654231Y4669727D01*
X-4633585Y4606914D01*
X-4581567Y4539123D01*
X-4502233Y4500000D01*
X-4227567Y4500000D01*
X-4189299Y4507612D01*
X-4153463Y4522456D01*
X-4140916Y4525818D01*
X-4024494Y4541145D01*
X-4011506Y4541145D01*
X-3895084Y4525818D01*
X-3882537Y4522456D01*
X-3846701Y4507612D01*
X-3808433Y4500000D01*
X-3420552Y4500000D01*
X-3361225Y4519500D01*
X-3325036Y4570395D01*
X-3326098Y4632836D01*
X-3359675Y4679332D01*
X-3366351Y4684455D01*
X-3375544Y4693648D01*
X-3447024Y4786801D01*
X-3453520Y4798053D01*
X-3498456Y4906537D01*
X-3501818Y4919084D01*
X-3517145Y5035506D01*
X-3517145Y5048494D01*
X-3501818Y5164916D01*
X-3498456Y5177463D01*
X-3453520Y5285947D01*
X-3447024Y5297199D01*
X-3375544Y5390352D01*
X-3366352Y5399544D01*
X-3273199Y5471024D01*
X-3261947Y5477520D01*
X-3153463Y5522456D01*
X-3140916Y5525818D01*
X-3024494Y5541145D01*
X-3011506Y5541145D01*
X-2895084Y5525818D01*
X-2882537Y5522456D01*
X-2774053Y5477520D01*
X-2762801Y5471024D01*
X-2669648Y5399544D01*
X-2660456Y5390352D01*
X-2588976Y5297199D01*
X-2582480Y5285947D01*
X-2537544Y5177463D01*
X-2534182Y5164916D01*
X-2526038Y5103054D01*
X-2498961Y5046779D01*
X-2439946Y5016962D01*
X-2378084Y5008818D01*
X-2365537Y5005456D01*
X-2257053Y4960520D01*
X-2245801Y4954024D01*
X-2160875Y4888857D01*
X-2101937Y4868211D01*
X-2042243Y4886557D01*
X-2005074Y4936742D01*
X-2000000Y4968191D01*
X-2000000Y6100001D01*
X-2019500Y6159328D01*
X-2099999Y6200000D01*
X-5900001Y6200000D01*
X-5959328Y6180500D01*
X-6000000Y6100001D01*
X-6000000Y4599999D01*
G37*
G04 #@! TO.N,P48_3V3*
G36*
X10444574Y-10670395D02*
X10452737Y-10743286D01*
X10451013Y-10744000D01*
X10453486Y-10749970D01*
X10453489Y-10749999D01*
X10453520Y-10750053D01*
X10498456Y-10858537D01*
X10501818Y-10871084D01*
X10517145Y-10987506D01*
X10517145Y-11000494D01*
X10501818Y-11116916D01*
X10498456Y-11129463D01*
X10485089Y-11161733D01*
X10480401Y-11224006D01*
X10513573Y-11276918D01*
X10577476Y-11300000D01*
X14970754Y-11300000D01*
X14980957Y-11301055D01*
X15091015Y-11324058D01*
X15100791Y-11327179D01*
X15165286Y-11355370D01*
X15173241Y-11359747D01*
X15207469Y-11382867D01*
X15263442Y-11400000D01*
X16522838Y-11400000D01*
X16582165Y-11380500D01*
X16618354Y-11329605D01*
X16609440Y-11250002D01*
X16602479Y-11237945D01*
X16557544Y-11129463D01*
X16554182Y-11116916D01*
X16538855Y-11000494D01*
X16538855Y-10987506D01*
X16554182Y-10871084D01*
X16557544Y-10858537D01*
X16602480Y-10750053D01*
X16608976Y-10738801D01*
X16668772Y-10660875D01*
X16689418Y-10601937D01*
X16671072Y-10542243D01*
X16620888Y-10505074D01*
X16589438Y-10500000D01*
X15236380Y-10500000D01*
X15188920Y-10516237D01*
X15187239Y-10513163D01*
X15095543Y-10563304D01*
X15087180Y-10566929D01*
X15035968Y-10583762D01*
X15028283Y-10585627D01*
X14942447Y-10599372D01*
X14934552Y-10600000D01*
X10540090Y-10600000D01*
X10480763Y-10619500D01*
X10444574Y-10670395D01*
G37*
G04 #@! TO.N,P44_3V3*
G36*
X9357374Y-12398063D02*
X9375720Y-12457757D01*
X9425904Y-12494926D01*
X9457354Y-12500000D01*
X11109011Y-12500000D01*
X11168338Y-12480500D01*
X11208154Y-12413054D01*
X11216180Y-12352091D01*
X11219544Y-12339537D01*
X11264480Y-12231053D01*
X11270976Y-12219801D01*
X11342456Y-12126648D01*
X11351648Y-12117456D01*
X11444801Y-12045976D01*
X11456053Y-12039480D01*
X11564537Y-11994544D01*
X11577084Y-11991182D01*
X11693506Y-11975855D01*
X11706494Y-11975855D01*
X11822916Y-11991182D01*
X11835463Y-11994544D01*
X11943947Y-12039480D01*
X11955199Y-12045976D01*
X12039124Y-12110375D01*
X12098062Y-12131021D01*
X12160876Y-12110375D01*
X12244801Y-12045976D01*
X12256053Y-12039480D01*
X12364537Y-11994544D01*
X12377084Y-11991182D01*
X12493506Y-11975855D01*
X12506494Y-11975855D01*
X12622916Y-11991182D01*
X12635463Y-11994544D01*
X12743947Y-12039480D01*
X12755199Y-12045976D01*
X12848352Y-12117456D01*
X12857544Y-12126648D01*
X12929024Y-12219801D01*
X12935520Y-12231053D01*
X12980456Y-12339537D01*
X12983820Y-12352091D01*
X12991846Y-12413054D01*
X13018923Y-12469328D01*
X13090989Y-12500000D01*
X13788985Y-12500000D01*
X13838985Y-12486603D01*
X13853059Y-12478477D01*
X13961537Y-12433544D01*
X13974084Y-12430182D01*
X14090506Y-12414855D01*
X14103494Y-12414855D01*
X14219916Y-12430182D01*
X14232463Y-12433544D01*
X14340941Y-12478477D01*
X14355015Y-12486603D01*
X14405015Y-12500000D01*
X15058646Y-12500000D01*
X15117973Y-12480500D01*
X15154162Y-12429605D01*
X15153100Y-12367164D01*
X15137980Y-12339125D01*
X15068976Y-12249199D01*
X15062480Y-12237947D01*
X15017544Y-12129463D01*
X15014182Y-12116916D01*
X14998855Y-12000494D01*
X14998855Y-11987506D01*
X15014182Y-11871084D01*
X15017544Y-11858537D01*
X15062480Y-11750053D01*
X15062511Y-11749999D01*
X15062520Y-11749956D01*
X15064987Y-11744000D01*
X15063862Y-11743534D01*
X15075288Y-11688870D01*
X15049307Y-11632082D01*
X14975910Y-11600000D01*
X9540090Y-11600000D01*
X9480763Y-11619500D01*
X9444574Y-11670395D01*
X9452737Y-11743286D01*
X9451013Y-11744000D01*
X9453486Y-11749970D01*
X9453489Y-11749999D01*
X9453520Y-11750053D01*
X9498456Y-11858537D01*
X9501818Y-11871084D01*
X9517145Y-11987506D01*
X9517145Y-12000494D01*
X9501818Y-12116916D01*
X9498456Y-12129463D01*
X9453520Y-12237947D01*
X9447024Y-12249199D01*
X9378020Y-12339125D01*
X9357374Y-12398063D01*
G37*
G04 #@! TO.N,P23_3V3*
G36*
X10403414Y-3338063D02*
X10421760Y-3397757D01*
X10471944Y-3434926D01*
X10503394Y-3440000D01*
X18362606Y-3440000D01*
X18421933Y-3420500D01*
X18458122Y-3369605D01*
X18457060Y-3307164D01*
X18441940Y-3279125D01*
X18418976Y-3249198D01*
X18412480Y-3237947D01*
X18367544Y-3129463D01*
X18364182Y-3116916D01*
X18348855Y-3000494D01*
X18348855Y-2987506D01*
X18364182Y-2871084D01*
X18367544Y-2858537D01*
X18404935Y-2768267D01*
X18409623Y-2705993D01*
X18376451Y-2653082D01*
X18312548Y-2630000D01*
X16835498Y-2630000D01*
X16819687Y-2631258D01*
X16769015Y-2639372D01*
X16761120Y-2640000D01*
X10557594Y-2640000D01*
X10498267Y-2659500D01*
X10462078Y-2710395D01*
X10465207Y-2778267D01*
X10498456Y-2858537D01*
X10501818Y-2871084D01*
X10517145Y-2987506D01*
X10517145Y-3000494D01*
X10501818Y-3116916D01*
X10498456Y-3129463D01*
X10453520Y-3237947D01*
X10447024Y-3249198D01*
X10424060Y-3279125D01*
X10403414Y-3338063D01*
G37*
G04 #@! TO.N,P2_3V3*
G36*
X10452063Y2745993D02*
X10485235Y2693082D01*
X10549138Y2670000D01*
X15213862Y2670000D01*
X15273189Y2689500D01*
X15309378Y2740395D01*
X15306249Y2808267D01*
X15265544Y2906537D01*
X15262182Y2919084D01*
X15246855Y3035506D01*
X15246855Y3048494D01*
X15262182Y3164916D01*
X15265544Y3177463D01*
X15292166Y3241733D01*
X15296854Y3304006D01*
X15263682Y3356918D01*
X15199779Y3380000D01*
X11039080Y3380000D01*
X10979753Y3360500D01*
X10946693Y3318269D01*
X10932520Y3284053D01*
X10926024Y3272801D01*
X10854544Y3179648D01*
X10845352Y3170456D01*
X10752199Y3098976D01*
X10740947Y3092480D01*
X10632463Y3047544D01*
X10619909Y3044180D01*
X10591553Y3040447D01*
X10535279Y3013370D01*
X10505463Y2954357D01*
X10500820Y2919091D01*
X10497456Y2906537D01*
X10456751Y2808267D01*
X10452063Y2745993D01*
G37*
G04 #@! TO.N,P56_1V8*
G36*
X-18419516Y10701936D02*
X-18401169Y10642242D01*
X-18350985Y10605074D01*
X-18319536Y10600000D01*
X-10506464Y10600000D01*
X-10447137Y10619500D01*
X-10410948Y10670395D01*
X-10412010Y10732836D01*
X-10427129Y10760874D01*
X-10447024Y10786802D01*
X-10453520Y10798053D01*
X-10498456Y10906537D01*
X-10501818Y10919084D01*
X-10517145Y11035506D01*
X-10517145Y11048494D01*
X-10501818Y11164913D01*
X-10499352Y11174117D01*
X-10502831Y11236470D01*
X-10542624Y11284600D01*
X-10595943Y11300000D01*
X-18230057Y11300000D01*
X-18289384Y11280500D01*
X-18325573Y11229605D01*
X-18326648Y11174117D01*
X-18324182Y11164913D01*
X-18308855Y11048494D01*
X-18308855Y11035506D01*
X-18324182Y10919084D01*
X-18327544Y10906537D01*
X-18372480Y10798053D01*
X-18378976Y10786802D01*
X-18398871Y10760874D01*
X-18419516Y10701936D01*
G37*
G04 #@! TO.N,P11_1V8*
G36*
X6700000Y9499999D02*
X6719500Y9440672D01*
X6799999Y9400000D01*
X6902298Y9400000D01*
X6961625Y9419500D01*
X6997814Y9470395D01*
X7001442Y9513049D01*
X7000856Y9517503D01*
X7000855Y9530496D01*
X7016182Y9646916D01*
X7019544Y9659463D01*
X7064480Y9767947D01*
X7070976Y9779199D01*
X7142456Y9872352D01*
X7151648Y9881544D01*
X7234561Y9945166D01*
X7269757Y9996752D01*
X7267485Y10059161D01*
X7234561Y10103834D01*
X7151648Y10167456D01*
X7142456Y10176648D01*
X7070976Y10269801D01*
X7064480Y10281053D01*
X7019544Y10389537D01*
X7016182Y10402084D01*
X7000855Y10518506D01*
X7000855Y10531494D01*
X7016182Y10647916D01*
X7019544Y10660463D01*
X7064480Y10768947D01*
X7070976Y10780199D01*
X7142456Y10873352D01*
X7151648Y10882544D01*
X7233258Y10945166D01*
X7268454Y10996752D01*
X7266182Y11059161D01*
X7233258Y11103834D01*
X7151648Y11166456D01*
X7142456Y11175648D01*
X7070976Y11268801D01*
X7064480Y11280053D01*
X7019544Y11388537D01*
X7016182Y11401084D01*
X7000855Y11517506D01*
X7000855Y11530494D01*
X7016182Y11646916D01*
X7019544Y11659463D01*
X7064480Y11767947D01*
X7070976Y11779199D01*
X7142456Y11872352D01*
X7151648Y11881544D01*
X7233909Y11944666D01*
X7269105Y11996253D01*
X7266833Y12058661D01*
X7233909Y12103334D01*
X7151648Y12166456D01*
X7142456Y12175648D01*
X7070976Y12268801D01*
X7064480Y12280053D01*
X7019544Y12388537D01*
X7016182Y12401084D01*
X7000855Y12517506D01*
X7000855Y12530494D01*
X7016182Y12646916D01*
X7019544Y12659463D01*
X7064480Y12767947D01*
X7070976Y12779199D01*
X7142456Y12872352D01*
X7151648Y12881544D01*
X7244801Y12953024D01*
X7256053Y12959520D01*
X7364537Y13004456D01*
X7377091Y13007820D01*
X7423054Y13013871D01*
X7479328Y13040948D01*
X7510000Y13113014D01*
X7510000Y19820001D01*
X7490500Y19879328D01*
X7410001Y19920000D01*
X6799999Y19920000D01*
X6740672Y19900500D01*
X6700000Y19820001D01*
X6700000Y15311416D01*
X6712261Y15263439D01*
X6743304Y15206669D01*
X6746929Y15198306D01*
X6763762Y15147094D01*
X6765627Y15139409D01*
X6779372Y15053573D01*
X6780000Y15045678D01*
X6780000Y10516355D01*
X6779840Y10512348D01*
X6776330Y10468563D01*
X6775851Y10464587D01*
X6772048Y10441016D01*
X6768777Y10429613D01*
X6718322Y10309851D01*
X6713124Y10300732D01*
X6700000Y10251209D01*
X6700000Y9499999D01*
G37*
G04 #@! TO.N,P26_1V8*
G36*
X9630000Y11719999D02*
X9649500Y11660672D01*
X9729999Y11620000D01*
X17450001Y11620000D01*
X17509328Y11639500D01*
X17550000Y11719999D01*
X17550000Y12330001D01*
X17530500Y12389328D01*
X17450001Y12430000D01*
X9729999Y12430000D01*
X9670672Y12410500D01*
X9630000Y12330001D01*
X9630000Y11719999D01*
G37*
G04 #@! TO.N,P51_3V3*
G36*
X6371046Y-8570395D02*
X6372108Y-8632836D01*
X6387228Y-8660875D01*
X6447024Y-8738801D01*
X6453520Y-8750053D01*
X6498456Y-8858537D01*
X6501818Y-8871084D01*
X6517145Y-8987506D01*
X6517145Y-9000494D01*
X6501818Y-9116916D01*
X6498456Y-9129463D01*
X6453521Y-9237945D01*
X6446560Y-9250002D01*
X6433784Y-9311131D01*
X6459766Y-9367919D01*
X6533162Y-9400000D01*
X8242234Y-9400000D01*
X8289694Y-9383763D01*
X8291375Y-9386837D01*
X8383071Y-9336696D01*
X8391434Y-9333071D01*
X8442646Y-9316238D01*
X8450331Y-9314373D01*
X8536167Y-9300628D01*
X8544062Y-9300000D01*
X14938524Y-9300000D01*
X14997851Y-9280500D01*
X15034040Y-9229605D01*
X15030911Y-9161733D01*
X15017544Y-9129463D01*
X15014182Y-9116916D01*
X14998855Y-9000494D01*
X14998855Y-8987506D01*
X15014182Y-8871084D01*
X15017544Y-8858537D01*
X15062480Y-8750053D01*
X15068976Y-8738801D01*
X15128772Y-8660875D01*
X15149418Y-8601937D01*
X15131072Y-8542243D01*
X15080888Y-8505074D01*
X15049438Y-8500000D01*
X6466562Y-8500000D01*
X6407235Y-8519500D01*
X6371046Y-8570395D01*
G37*
G04 #@! TO.N,P17_3V3*
G36*
X10394066Y-600395D02*
X10395128Y-662836D01*
X10410248Y-690875D01*
X10447024Y-738801D01*
X10453520Y-750053D01*
X10498456Y-858537D01*
X10501818Y-871084D01*
X10517145Y-987506D01*
X10517145Y-1000495D01*
X10501814Y-1116949D01*
X10513404Y-1178314D01*
X10559140Y-1220836D01*
X10600958Y-1230000D01*
X15185042Y-1230000D01*
X15244369Y-1210500D01*
X15280558Y-1159605D01*
X15284186Y-1116949D01*
X15268855Y-1000495D01*
X15268855Y-987506D01*
X15284182Y-871084D01*
X15287544Y-858537D01*
X15332480Y-750053D01*
X15338976Y-738801D01*
X15375752Y-690875D01*
X15396398Y-631937D01*
X15378052Y-572243D01*
X15327868Y-535074D01*
X15296418Y-530000D01*
X10489582Y-530000D01*
X10430255Y-549500D01*
X10394066Y-600395D01*
G37*
G04 #@! TO.N,P8_1V8*
G36*
X5670000Y10584493D02*
X5689500Y10525166D01*
X5740395Y10488977D01*
X5808267Y10492106D01*
X5881537Y10522456D01*
X5894084Y10525818D01*
X6010506Y10541145D01*
X6023494Y10541145D01*
X6139916Y10525818D01*
X6152463Y10522456D01*
X6260947Y10477520D01*
X6272199Y10471024D01*
X6319125Y10435016D01*
X6378064Y10414370D01*
X6437757Y10432717D01*
X6474926Y10482901D01*
X6480000Y10514350D01*
X6480000Y15049650D01*
X6460500Y15108977D01*
X6409605Y15145166D01*
X6347164Y15144104D01*
X6319125Y15128984D01*
X6272199Y15092976D01*
X6260947Y15086480D01*
X6152463Y15041544D01*
X6139916Y15038182D01*
X6023494Y15022855D01*
X6010506Y15022855D01*
X5894084Y15038182D01*
X5881537Y15041544D01*
X5808267Y15071894D01*
X5745994Y15076582D01*
X5693083Y15043410D01*
X5670000Y14979507D01*
X5670000Y10584493D01*
G37*
G04 #@! TO.N,P67_1V8*
G36*
X-18300000Y7599999D02*
X-18280500Y7540672D01*
X-18200001Y7500000D01*
X-14167567Y7500000D01*
X-14129299Y7507612D01*
X-14093463Y7522456D01*
X-14080916Y7525818D01*
X-13964494Y7541145D01*
X-13951506Y7541145D01*
X-13835084Y7525818D01*
X-13822537Y7522456D01*
X-13786701Y7507612D01*
X-13748433Y7500000D01*
X-12227567Y7500000D01*
X-12189299Y7507612D01*
X-12153463Y7522456D01*
X-12140916Y7525818D01*
X-12024494Y7541145D01*
X-12011506Y7541145D01*
X-11895084Y7525818D01*
X-11882537Y7522456D01*
X-11846701Y7507612D01*
X-11808433Y7500000D01*
X-11227567Y7500000D01*
X-11189299Y7507612D01*
X-11153463Y7522456D01*
X-11140916Y7525818D01*
X-11024494Y7541145D01*
X-11011506Y7541145D01*
X-10895084Y7525818D01*
X-10882537Y7522456D01*
X-10846701Y7507612D01*
X-10808433Y7500000D01*
X-10399999Y7500000D01*
X-10340672Y7519500D01*
X-10300000Y7599999D01*
X-10300000Y8260001D01*
X-10319500Y8319328D01*
X-10399999Y8360000D01*
X-15195667Y8360000D01*
X-15204276Y8360748D01*
X-15297657Y8377096D01*
X-15305993Y8379313D01*
X-15346802Y8394053D01*
X-15380773Y8400000D01*
X-18200001Y8400000D01*
X-18259328Y8380500D01*
X-18300000Y8300001D01*
X-18300000Y7599999D01*
G37*
G04 #@! TO.N,P8_3V3*
G36*
X9374790Y1661937D02*
X9393136Y1602243D01*
X9443320Y1565074D01*
X9474770Y1560000D01*
X16828230Y1560000D01*
X16887557Y1579500D01*
X16923746Y1630395D01*
X16922684Y1692836D01*
X16907564Y1720875D01*
X16856976Y1786801D01*
X16850480Y1798053D01*
X16805544Y1906537D01*
X16802182Y1919084D01*
X16786855Y2035506D01*
X16786855Y2048494D01*
X16802182Y2164916D01*
X16805544Y2177463D01*
X16828024Y2231733D01*
X16832712Y2294006D01*
X16799541Y2346917D01*
X16735637Y2370000D01*
X9567363Y2370000D01*
X9508036Y2350500D01*
X9471847Y2299605D01*
X9474976Y2231733D01*
X9497456Y2177463D01*
X9500818Y2164916D01*
X9516145Y2048494D01*
X9516145Y2035506D01*
X9500818Y1919084D01*
X9497456Y1906537D01*
X9452520Y1798053D01*
X9446024Y1786801D01*
X9395436Y1720875D01*
X9374790Y1661937D01*
G37*
G04 #@! TO.N,P31_1V8*
G36*
X10405484Y9701936D02*
X10423831Y9642242D01*
X10474015Y9605074D01*
X10505464Y9600000D01*
X16028536Y9600000D01*
X16087863Y9619500D01*
X16124052Y9670395D01*
X16122990Y9732836D01*
X16107871Y9760874D01*
X16087976Y9786802D01*
X16081480Y9798053D01*
X16036544Y9906537D01*
X16033182Y9919084D01*
X16017855Y10035506D01*
X16017855Y10048494D01*
X16033182Y10164916D01*
X16036544Y10177463D01*
X16075592Y10271733D01*
X16080280Y10334007D01*
X16047108Y10386918D01*
X15983205Y10410000D01*
X12056163Y10410000D01*
X11996836Y10390500D01*
X11963776Y10348269D01*
X11935520Y10280053D01*
X11929024Y10268801D01*
X11857544Y10175648D01*
X11848352Y10166456D01*
X11755199Y10094976D01*
X11743947Y10088480D01*
X11635463Y10043544D01*
X11622916Y10040182D01*
X11506494Y10024855D01*
X11493506Y10024855D01*
X11377084Y10040182D01*
X11364537Y10043544D01*
X11256053Y10088480D01*
X11244801Y10094976D01*
X11151648Y10166456D01*
X11142456Y10175648D01*
X11070976Y10268801D01*
X11064480Y10280053D01*
X11036224Y10348269D01*
X10995505Y10395618D01*
X10943837Y10410000D01*
X10550795Y10410000D01*
X10491468Y10390500D01*
X10455279Y10339605D01*
X10458408Y10271733D01*
X10497456Y10177463D01*
X10500818Y10164916D01*
X10516145Y10048494D01*
X10516145Y10035506D01*
X10500818Y9919084D01*
X10497456Y9906537D01*
X10452520Y9798053D01*
X10446024Y9786802D01*
X10426129Y9760874D01*
X10405484Y9701936D01*
G37*
G04 #@! TO.N,P53_1V8*
G36*
X-19959516Y11701936D02*
X-19941169Y11642242D01*
X-19890985Y11605074D01*
X-19859536Y11600000D01*
X-9506464Y11600000D01*
X-9447137Y11619500D01*
X-9410948Y11670395D01*
X-9412010Y11732836D01*
X-9427129Y11760874D01*
X-9447024Y11786802D01*
X-9453520Y11798053D01*
X-9498456Y11906537D01*
X-9501818Y11919084D01*
X-9517145Y12035506D01*
X-9517145Y12048494D01*
X-9501818Y12164916D01*
X-9498456Y12177463D01*
X-9463550Y12261733D01*
X-9458862Y12324007D01*
X-9492034Y12376918D01*
X-9555937Y12400000D01*
X-11947150Y12400000D01*
X-12006477Y12380500D01*
X-12039537Y12338270D01*
X-12064481Y12278051D01*
X-12070976Y12266801D01*
X-12142456Y12173648D01*
X-12151648Y12164456D01*
X-12244801Y12092976D01*
X-12256053Y12086480D01*
X-12364537Y12041544D01*
X-12377084Y12038182D01*
X-12493506Y12022855D01*
X-12506494Y12022855D01*
X-12622916Y12038182D01*
X-12635463Y12041544D01*
X-12743947Y12086480D01*
X-12755199Y12092976D01*
X-12848352Y12164456D01*
X-12857544Y12173648D01*
X-12929024Y12266801D01*
X-12935519Y12278051D01*
X-12960463Y12338270D01*
X-13001183Y12385618D01*
X-13052850Y12400000D01*
X-19810063Y12400000D01*
X-19869390Y12380500D01*
X-19905579Y12329605D01*
X-19902450Y12261733D01*
X-19867544Y12177463D01*
X-19864182Y12164916D01*
X-19848855Y12048494D01*
X-19848855Y12035506D01*
X-19864182Y11919084D01*
X-19867544Y11906537D01*
X-19912480Y11798053D01*
X-19918976Y11786802D01*
X-19938871Y11760874D01*
X-19959516Y11701936D01*
G37*
G04 #@! TO.N,P20_3V3*
G36*
X9394066Y-1600395D02*
X9395128Y-1662836D01*
X9410248Y-1690875D01*
X9447024Y-1738801D01*
X9453520Y-1750053D01*
X9498456Y-1858537D01*
X9501818Y-1871084D01*
X9517145Y-1987506D01*
X9517145Y-2000494D01*
X9501818Y-2116916D01*
X9498456Y-2129463D01*
X9468521Y-2201733D01*
X9463833Y-2264007D01*
X9497005Y-2316918D01*
X9560908Y-2340000D01*
X16765092Y-2340000D01*
X16824419Y-2320500D01*
X16860608Y-2269605D01*
X16857479Y-2201733D01*
X16827544Y-2129463D01*
X16824182Y-2116916D01*
X16808855Y-2000494D01*
X16808855Y-1987506D01*
X16824182Y-1871084D01*
X16827544Y-1858537D01*
X16872480Y-1750053D01*
X16878976Y-1738801D01*
X16915752Y-1690875D01*
X16936398Y-1631937D01*
X16918052Y-1572243D01*
X16867868Y-1535074D01*
X16836418Y-1530000D01*
X9489582Y-1530000D01*
X9430255Y-1549500D01*
X9394066Y-1600395D01*
G37*
G04 #@! TO.N,P55_3V3*
G36*
X8444574Y-9670395D02*
X8452737Y-9743286D01*
X8451013Y-9744000D01*
X8453486Y-9749970D01*
X8453489Y-9749999D01*
X8453520Y-9750053D01*
X8498456Y-9858537D01*
X8501820Y-9871091D01*
X8505356Y-9897949D01*
X8532433Y-9954224D01*
X8591447Y-9984040D01*
X8622917Y-9988183D01*
X8635466Y-9991545D01*
X8743947Y-10036480D01*
X8755199Y-10042976D01*
X8848352Y-10114456D01*
X8857544Y-10123648D01*
X8929024Y-10216801D01*
X8935519Y-10228051D01*
X8939752Y-10238270D01*
X8980472Y-10285618D01*
X9032139Y-10300000D01*
X14938524Y-10300000D01*
X14997851Y-10280500D01*
X15034040Y-10229605D01*
X15030911Y-10161733D01*
X15017544Y-10129463D01*
X15014182Y-10116916D01*
X14998855Y-10000494D01*
X14998855Y-9987506D01*
X15014182Y-9871084D01*
X15017544Y-9858537D01*
X15062480Y-9750053D01*
X15062511Y-9749999D01*
X15062520Y-9749956D01*
X15064987Y-9744000D01*
X15063862Y-9743534D01*
X15075288Y-9688870D01*
X15049307Y-9632082D01*
X14975910Y-9600000D01*
X8540090Y-9600000D01*
X8480763Y-9619500D01*
X8444574Y-9670395D01*
G37*
G04 #@! TO.N,P18_1V8*
G36*
X8620000Y11562358D02*
X8639500Y11503031D01*
X8690395Y11466842D01*
X8766839Y11475402D01*
X8767000Y11475013D01*
X8768347Y11475571D01*
X8769999Y11475756D01*
X8773059Y11477523D01*
X8881537Y11522456D01*
X8894084Y11525818D01*
X9010506Y11541145D01*
X9023494Y11541145D01*
X9139916Y11525818D01*
X9152466Y11522455D01*
X9191734Y11506190D01*
X9254007Y11501502D01*
X9306918Y11534674D01*
X9330000Y11598577D01*
X9330000Y14195423D01*
X9310500Y14254750D01*
X9259605Y14290939D01*
X9191734Y14287810D01*
X9152466Y14271545D01*
X9139916Y14268182D01*
X9023494Y14252855D01*
X9010506Y14252855D01*
X8894084Y14268182D01*
X8881537Y14271544D01*
X8773059Y14316477D01*
X8769999Y14318244D01*
X8767566Y14318752D01*
X8767000Y14318987D01*
X8766956Y14318880D01*
X8708870Y14331020D01*
X8652081Y14305038D01*
X8620000Y14231642D01*
X8620000Y11562358D01*
G37*
G04 #@! TO.N,P63_1V8*
G36*
X-15297079Y8735993D02*
X-15263907Y8683082D01*
X-15200004Y8660000D01*
X-9545996Y8660000D01*
X-9486669Y8679500D01*
X-9450480Y8730395D01*
X-9453609Y8798267D01*
X-9498456Y8906537D01*
X-9501818Y8919084D01*
X-9506024Y8951035D01*
X-9533101Y9007309D01*
X-9592115Y9037126D01*
X-9622909Y9041180D01*
X-9635463Y9044544D01*
X-9743947Y9089480D01*
X-9755199Y9095976D01*
X-9848352Y9167456D01*
X-9857539Y9176643D01*
X-9891481Y9220877D01*
X-9970816Y9260000D01*
X-11025882Y9260000D01*
X-11105217Y9220877D01*
X-11141461Y9173643D01*
X-11150648Y9164456D01*
X-11243801Y9092976D01*
X-11255053Y9086480D01*
X-11363537Y9041544D01*
X-11376084Y9038182D01*
X-11492506Y9022855D01*
X-11505494Y9022855D01*
X-11621916Y9038182D01*
X-11634463Y9041544D01*
X-11742947Y9086480D01*
X-11754199Y9092976D01*
X-11847352Y9164456D01*
X-11856539Y9173643D01*
X-11892783Y9220877D01*
X-11972118Y9260000D01*
X-15142673Y9260000D01*
X-15202000Y9240500D01*
X-15238189Y9189605D01*
X-15241816Y9146948D01*
X-15228855Y9048501D01*
X-15228855Y9035506D01*
X-15244182Y8919084D01*
X-15247544Y8906537D01*
X-15292391Y8798267D01*
X-15297079Y8735993D01*
G37*
G04 --- BOARD END --- *
G04 #@! TF.MD5,c37271211b9a33707e5feeee46c965ea*
M02*
