G04 --- HEADER BEGIN --- *
G04 #@! TF.GenerationSoftware,LibrePCB,LibrePCB,1.1.0*
G04 #@! TF.CreationDate,2024-09-08T17:15:58*
G04 #@! TF.ProjectId,flasher,f4b07f79-14a2-4070-9d7d-1f686dcb10c4,v1*
G04 #@! TF.Part,Single*
G04 #@! TF.SameCoordinates*
G04 #@! TF.FileFunction,Copper,L13,Bot*
G04 #@! TF.FilePolarity,Positive*
%FSLAX66Y66*%
%MOMM*%
G01*
G75*
G04 --- HEADER END --- *
G04 --- APERTURE LIST BEGIN --- *
G04 #@! TA.AperFunction,SMDPad,CuDef*
%ADD10R,0.95X1.25*%
%ADD11R,0.4X0.5*%
%ADD12R,0.5X0.7*%
%ADD13R,1.05X0.45*%
%ADD14R,2.74X4.75*%
G04 #@! TA.AperFunction,ComponentPad*
%ADD15O,2.19X1.587*%
%ADD16R,2.19X1.587*%
G04 #@! TA.AperFunction,SMDPad,CuDef*
%ADD17R,0.5X0.4*%
%ADD18R,1.25X0.95*%
%ADD19R,2.0X0.95*%
%ADD20R,0.889X0.42*%
%ADD21R,1.68X1.88*%
%ADD22R,0.8X0.75*%
%ADD23R,0.8X0.7*%
%AMOUTLINE24*4,1,5,-0.35,0.4,0.125,0.4,0.35,0.175,0.35,-0.4,-0.35,-0.4,-0.35,0.4,270.0*%
%ADD24OUTLINE24*%
%ADD25R,0.75X0.8*%
%ADD26R,0.2X0.2*%
%ADD27R,0.85X0.8*%
%ADD28R,0.8X0.85*%
%ADD29R,1.25X0.75*%
G04 #@! TA.AperFunction,ComponentPad*
%ADD30O,1.587X2.19*%
%ADD31R,1.587X2.19*%
G04 #@! TA.AperFunction,SMDPad,CuDef*
%ADD32R,1.3X2.4*%
%ADD33R,0.56X0.95*%
G04 #@! TA.AperFunction,ViaPad*
%ADD34C,0.7*%
%ADD35C,0.4*%
G04 #@! TA.AperFunction,Conductor*
%ADD36C,0.08*%
%ADD37C,0.2*%
%ADD38C,0.01*%
G04 #@! TD*
G04 --- APERTURE LIST END --- *
G04 --- BOARD BEGIN --- *
D10*
G04 #@! TO.N,VCC3V3*
G04 #@! TO.C,C66*
G04 #@! TO.P,C66,1,1*
X14097000Y-13214000D03*
G04 #@! TO.N,GND*
G04 #@! TO.P,C66,2,2*
X15847000Y-13214000D03*
D11*
G04 #@! TO.N,VCC1V0*
G04 #@! TO.C,C43*
G04 #@! TO.P,C43,1,1*
X-1499000Y-4476000D03*
G04 #@! TO.N,GND*
G04 #@! TO.P,C43,2,2*
X-2299000Y-4476000D03*
G04 #@! TO.N,VCC1V0*
G04 #@! TO.C,C44*
G04 #@! TO.P,C44,1,1*
X-3500000Y-4475000D03*
G04 #@! TO.N,GND*
G04 #@! TO.P,C44,2,2*
X-4300000Y-4475000D03*
D12*
G04 #@! TO.N,CLK_29.5MHZ_RSET*
G04 #@! TO.C,XTAL2*
G04 #@! TO.P,XTAL2,3,SET*
X9917000Y3862000D03*
G04 #@! TO.N,CLK_3V3_29.5MHZ*
G04 #@! TO.P,XTAL2,5,OUT*
X8017000Y1242000D03*
G04 #@! TO.N,GND*
G04 #@! TO.P,XTAL2,4,DIV*
X9917000Y1242000D03*
G04 #@! TO.P,XTAL2,2,GND*
X8967000Y3862000D03*
G04 #@! TO.N,VCC3V3*
G04 #@! TO.P,XTAL2,1,V+*
X8017000Y3862000D03*
D11*
G04 #@! TO.N,VCC1V0*
G04 #@! TO.C,C71*
G04 #@! TO.P,C71,1,1*
X-500000Y-5480000D03*
G04 #@! TO.N,GND*
G04 #@! TO.P,C71,2,2*
X300000Y-5480000D03*
D13*
G04 #@! TO.N,BOOST2*
G04 #@! TO.C,VREG1*
G04 #@! TO.P,VREG1,20,BOOST2*
X-9855028Y-2925000D03*
G04 #@! TO.N,ITH2*
G04 #@! TO.P,VREG1,14,ITH2*
X-15405028Y325000D03*
G04 #@! TO.N,TRACKSS1*
G04 #@! TO.P,VREG1,2,TRACKSS1*
X-15405028Y-7475000D03*
G04 #@! TO.N,PGOOD2*
G04 #@! TO.P,VREG1,11,PGOOD2*
X-15405028Y-1625000D03*
G04 #@! TO.N,INT3V3*
G04 #@! TO.P,VREG1,22,INTVCC*
X-9855028Y-4225000D03*
G04 #@! TO.N,ITH1*
G04 #@! TO.P,VREG1,1,ITH1*
X-15405028Y-8125000D03*
G04 #@! TO.N,SW1*
G04 #@! TO.P,VREG1,26,SW1*
X-9855028Y-6825000D03*
G04 #@! TO.N,PGOOD*
G04 #@! TO.P,VREG1,9,RUN2*
X-15405028Y-2925000D03*
G04 #@! TO.N,INT3V3*
G04 #@! TO.P,VREG1,21,V2P5*
X-9855028Y-3575000D03*
G04 #@! TO.N,SW2*
G04 #@! TO.P,VREG1,17,SW_2*
X-9855028Y-975000D03*
G04 #@! TO.N,PHMODE*
G04 #@! TO.P,VREG1,5,PHMODE*
X-15405028Y-5525000D03*
G04 #@! TO.N,SW2*
G04 #@! TO.P,VREG1,16,SW2*
X-9855028Y-325000D03*
G04 #@! TO.N,VFB1*
G04 #@! TO.P,VREG1,3,VFB1*
X-15405028Y-6825000D03*
G04 #@! TO.N,+5V*
G04 #@! TO.P,VREG1,19,VIN_2*
X-9855028Y-2275000D03*
G04 #@! TO.N,VCC1V0*
G04 #@! TO.P,VREG1,28,VON1*
X-9855028Y-8125000D03*
G04 #@! TO.N,VCC3V3*
G04 #@! TO.P,VREG1,15,VON2*
X-9855028Y325000D03*
G04 #@! TO.N,BOOST1*
G04 #@! TO.P,VREG1,23,BOOST1*
X-9855028Y-4875000D03*
G04 #@! TO.N,TRACKSS2*
G04 #@! TO.P,VREG1,13,TRACKSS2*
X-15405028Y-325000D03*
G04 #@! TO.N,VFB2*
G04 #@! TO.P,VREG1,12,VFB2*
X-15405028Y-975000D03*
D14*
G04 #@! TO.N,GND*
G04 #@! TO.P,VREG1,29,PGND*
X-12630028Y-3900000D03*
D13*
G04 #@! TO.N,SW1*
G04 #@! TO.P,VREG1,27,SW_1*
X-9855028Y-7475000D03*
G04 #@! TO.N,+5V*
G04 #@! TO.P,VREG1,25,VIN_1*
X-9855028Y-6175000D03*
G04 #@! TO.N,N4*
G04 #@! TO.P,VREG1,6,RUN1*
X-15405028Y-4875000D03*
G04 #@! TO.N,PGOOD1*
G04 #@! TO.P,VREG1,4,PGOOD1*
X-15405028Y-6175000D03*
G04 #@! TO.N,+5V*
G04 #@! TO.P,VREG1,24,VIN1*
X-9855028Y-5525000D03*
G04 #@! TO.N,MODE/SYNC*
G04 #@! TO.P,VREG1,7,MODE/SYNC*
X-15405028Y-4225000D03*
G04 #@! TO.N,GND*
G04 #@! TO.P,VREG1,10,SGND*
X-15405028Y-2275000D03*
G04 #@! TO.N,RT*
G04 #@! TO.P,VREG1,8,RT*
X-15405028Y-3575000D03*
G04 #@! TO.N,+5V*
G04 #@! TO.P,VREG1,18,VIN2*
X-9855028Y-1625000D03*
D15*
G04 #@! TO.N,P64_1V8*
G04 #@! TO.C,J2*
G04 #@! TO.P,J2,24,24*
X-24804000Y-10630000D03*
G04 #@! TO.N,P45_1V8*
G04 #@! TO.P,J2,2,2*
X-24804000Y17310000D03*
G04 #@! TO.N,P55_1V8*
G04 #@! TO.P,J2,18,18*
X-24804000Y-3010000D03*
G04 #@! TO.N,P53_1V8*
G04 #@! TO.P,J2,8,8*
X-24804000Y9690000D03*
G04 #@! TO.N,P68_1V8*
G04 #@! TO.P,J2,15,15*
X-27344000Y-470000D03*
G04 #@! TO.N,P61_1V8*
G04 #@! TO.P,J2,3,3*
X-27344000Y14770000D03*
G04 #@! TO.N,P72_1V8*
G04 #@! TO.P,J2,14,14*
X-24804000Y2070000D03*
G04 #@! TO.N,P43_1V8*
G04 #@! TO.P,J2,6,6*
X-24804000Y12230000D03*
G04 #@! TO.N,P49_1V8*
G04 #@! TO.P,J2,22,22*
X-24804000Y-8090000D03*
G04 #@! TO.N,P65_1V8*
G04 #@! TO.P,J2,12,12*
X-24804000Y4610000D03*
G04 #@! TO.N,P62_1V8*
G04 #@! TO.P,J2,26,26*
X-24804000Y-13170000D03*
G04 #@! TO.N,P52_1V8*
G04 #@! TO.P,J2,9,9*
X-27344000Y7150000D03*
D16*
G04 #@! TO.N,P46_1V8*
G04 #@! TO.P,J2,1,1*
X-27344000Y17310000D03*
D15*
G04 #@! TO.N,P50_1V8*
G04 #@! TO.P,J2,23,23*
X-27344000Y-10630000D03*
G04 #@! TO.N,P56_1V8*
G04 #@! TO.P,J2,13,13*
X-27344000Y2070000D03*
G04 #@! TO.N,P58_1V8*
G04 #@! TO.P,J2,19,19*
X-27344000Y-5550000D03*
G04 #@! TO.N,P59_1V8*
G04 #@! TO.P,J2,11,11*
X-27344000Y4610000D03*
G04 #@! TO.N,P54_1V8*
G04 #@! TO.P,J2,7,7*
X-27344000Y9690000D03*
G04 #@! TO.N,P44_1V8*
G04 #@! TO.P,J2,5,5*
X-27344000Y12230000D03*
G04 #@! TO.N,P60_1V8*
G04 #@! TO.P,J2,4,4*
X-24804000Y14770000D03*
G04 #@! TO.N,P66_1V8*
G04 #@! TO.P,J2,28,28*
X-24804000Y-15710000D03*
G04 #@! TO.N,P69_1V8*
G04 #@! TO.P,J2,29,29*
X-27344000Y-18250000D03*
G04 #@! TO.N,P70_1V8*
G04 #@! TO.P,J2,17,17*
X-27344000Y-3010000D03*
G04 #@! TO.N,P51_1V8*
G04 #@! TO.P,J2,30,30*
X-24804000Y-18250000D03*
G04 #@! TO.N,P71_1V8*
G04 #@! TO.P,J2,16,16*
X-24804000Y-470000D03*
G04 #@! TO.N,P47_1V8*
G04 #@! TO.P,J2,20,20*
X-24804000Y-5550000D03*
G04 #@! TO.N,P48_1V8*
G04 #@! TO.P,J2,21,21*
X-27344000Y-8090000D03*
G04 #@! TO.N,P67_1V8*
G04 #@! TO.P,J2,27,27*
X-27344000Y-15710000D03*
G04 #@! TO.N,P57_1V8*
G04 #@! TO.P,J2,10,10*
X-24804000Y7150000D03*
G04 #@! TO.N,P63_1V8*
G04 #@! TO.P,J2,25,25*
X-27344000Y-13170000D03*
D11*
G04 #@! TO.N,VCC1V8*
G04 #@! TO.C,C59*
G04 #@! TO.P,C59,1,1*
X-11499000Y9522000D03*
G04 #@! TO.N,GND*
G04 #@! TO.P,C59,2,2*
X-12299000Y9522000D03*
D17*
G04 #@! TO.N,VCC3V3*
G04 #@! TO.C,C6*
G04 #@! TO.P,C6,1,1*
X3499000Y-5475000D03*
G04 #@! TO.N,GND*
G04 #@! TO.P,C6,2,2*
X3499000Y-4675000D03*
D18*
G04 #@! TO.N,VCC3V3*
G04 #@! TO.C,C24*
G04 #@! TO.P,C24,1,1*
X-6300000Y12375000D03*
G04 #@! TO.N,GND*
G04 #@! TO.P,C24,2,2*
X-6300000Y10625000D03*
D19*
G04 #@! TO.N,VCC1V8*
G04 #@! TO.C,L4*
G04 #@! TO.P,L4,2,2*
X-12098000Y5486000D03*
G04 #@! TO.N,SW*
G04 #@! TO.P,L4,1,1*
X-12098000Y3236000D03*
D11*
G04 #@! TO.N,VCC1V8*
G04 #@! TO.C,C78*
G04 #@! TO.P,C78,1,1*
X-4500000Y2525000D03*
G04 #@! TO.N,GND*
G04 #@! TO.P,C78,2,2*
X-3700000Y2525000D03*
D20*
G04 #@! TO.N,SW*
G04 #@! TO.C,VREG2*
G04 #@! TO.P,VREG2,1,SW*
X-9213028Y3611000D03*
G04 #@! TO.N,PGOOD*
G04 #@! TO.P,VREG2,4,PGOOD*
X-9213028Y5561000D03*
G04 #@! TO.N,MODE/SYNC/1.8V*
G04 #@! TO.P,VREG2,7,MODE/SYNC*
X-4993028Y4261000D03*
G04 #@! TO.N,FB*
G04 #@! TO.P,VREG2,5,FB*
X-4993028Y5561000D03*
G04 #@! TO.N,PGOOD1*
G04 #@! TO.P,VREG2,3,RUN*
X-9213028Y4911000D03*
G04 #@! TO.N,INTVCC*
G04 #@! TO.P,VREG2,6,INTVCC*
X-4993028Y4911000D03*
G04 #@! TO.N,GND*
G04 #@! TO.P,VREG2,8,SGND*
X-4993028Y3611000D03*
D21*
G04 #@! TO.P,VREG2,9,GND*
X-7103028Y4586000D03*
D20*
G04 #@! TO.N,+5V*
G04 #@! TO.P,VREG2,2,VIN*
X-9213028Y4261000D03*
D17*
G04 #@! TO.N,VCC1V0*
G04 #@! TO.C,C88*
G04 #@! TO.P,C88,1,1*
X9600000Y-6900000D03*
G04 #@! TO.N,GND*
G04 #@! TO.P,C88,2,2*
X9600000Y-7700000D03*
D22*
G04 #@! TO.N,ITH1*
G04 #@! TO.C,R10*
G04 #@! TO.P,R10,2,2*
X-18900000Y-8425000D03*
G04 #@! TO.N,ITH1_CAP*
G04 #@! TO.P,R10,1,1*
X-18900000Y-6875000D03*
D11*
G04 #@! TO.N,VCC3V3*
G04 #@! TO.C,C56*
G04 #@! TO.P,C56,1,1*
X8501000Y-471000D03*
G04 #@! TO.N,GND*
G04 #@! TO.P,C56,2,2*
X7701000Y-471000D03*
D23*
G04 #@! TO.N,CLK_27MHZ*
G04 #@! TO.C,OSC1*
G04 #@! TO.P,OSC1,3,OUT*
X6500000Y8524000D03*
G04 #@! TO.N,GND*
G04 #@! TO.P,OSC1,2,GND*
X6500000Y7274000D03*
G04 #@! TO.N,VCC1V8*
G04 #@! TO.P,OSC1,4,VDD*
X8150000Y8524000D03*
D24*
G04 #@! TO.N,N/C*
G04 #@! TO.P,OSC1,1,STDBY*
X8150000Y7274000D03*
D11*
G04 #@! TO.N,VCC3V3*
G04 #@! TO.C,C53*
G04 #@! TO.P,C53,1,1*
X11457000Y3528000D03*
G04 #@! TO.N,GND*
G04 #@! TO.P,C53,2,2*
X12257000Y3528000D03*
G04 #@! TO.N,VCC1V0*
G04 #@! TO.C,C40*
G04 #@! TO.P,C40,1,1*
X-3501000Y-2475000D03*
G04 #@! TO.N,GND*
G04 #@! TO.P,C40,2,2*
X-2701000Y-2475000D03*
D19*
G04 #@! TO.N,VCC1V0*
G04 #@! TO.C,L2*
G04 #@! TO.P,L2,2,2*
X-7500000Y-9525000D03*
G04 #@! TO.N,SW1*
G04 #@! TO.P,L2,1,1*
X-7500000Y-7275000D03*
D17*
G04 #@! TO.N,VCC1V8*
G04 #@! TO.C,C99*
G04 #@! TO.P,C99,1,1*
X-7000000Y14700000D03*
G04 #@! TO.N,GND*
G04 #@! TO.P,C99,2,2*
X-7000000Y13900000D03*
D18*
G04 #@! TO.N,VCC1V0*
G04 #@! TO.C,C18*
G04 #@! TO.P,C18,1,1*
X-12500000Y-12625000D03*
G04 #@! TO.N,GND*
G04 #@! TO.P,C18,2,2*
X-12500000Y-14375000D03*
D11*
G04 #@! TO.N,VCC1V8*
G04 #@! TO.C,C32*
G04 #@! TO.P,C32,1,1*
X-6393000Y2500000D03*
G04 #@! TO.N,FB*
G04 #@! TO.P,C32,2,2*
X-5593000Y2500000D03*
D17*
G04 #@! TO.N,VCC1V8*
G04 #@! TO.C,C75*
G04 #@! TO.P,C75,1,1*
X-4500000Y-3475000D03*
G04 #@! TO.N,GND*
G04 #@! TO.P,C75,2,2*
X-4500000Y-2675000D03*
G04 #@! TO.N,VCC1V0*
G04 #@! TO.C,C90*
G04 #@! TO.P,C90,1,1*
X11400000Y-6900000D03*
G04 #@! TO.N,GND*
G04 #@! TO.P,C90,2,2*
X11400000Y-7700000D03*
D25*
G04 #@! TO.N,VCC1V8*
G04 #@! TO.C,R18*
G04 #@! TO.P,R18,2,2*
X-3157000Y9240000D03*
G04 #@! TO.N,FB*
G04 #@! TO.P,R18,1,1*
X-4707000Y9240000D03*
G04 #@! TO.N,VFB2*
G04 #@! TO.C,R14*
G04 #@! TO.P,R14,2,2*
X-18555000Y4824000D03*
G04 #@! TO.N,GND*
G04 #@! TO.P,R14,1,1*
X-17005000Y4824000D03*
D17*
G04 #@! TO.N,VCC1V0*
G04 #@! TO.C,C47*
G04 #@! TO.P,C47,1,1*
X-3500000Y1525000D03*
G04 #@! TO.N,GND*
G04 #@! TO.P,C47,2,2*
X-3500000Y725000D03*
G04 #@! TO.N,VCC1V0*
G04 #@! TO.C,C91*
G04 #@! TO.P,C91,1,1*
X12300000Y-6900000D03*
G04 #@! TO.N,GND*
G04 #@! TO.P,C91,2,2*
X12300000Y-7700000D03*
G04 #@! TO.N,VCC1V0*
G04 #@! TO.C,C92*
G04 #@! TO.P,C92,1,1*
X13200000Y-6900000D03*
G04 #@! TO.N,GND*
G04 #@! TO.P,C92,2,2*
X13200000Y-7700000D03*
G04 #@! TO.N,VCC1V8*
G04 #@! TO.C,C54*
G04 #@! TO.P,C54,1,1*
X-8470000Y10507000D03*
G04 #@! TO.N,GND*
G04 #@! TO.P,C54,2,2*
X-8470000Y11307000D03*
D22*
G04 #@! TO.N,RT*
G04 #@! TO.C,R4*
G04 #@! TO.P,R4,2,2*
X-18560000Y-4055000D03*
G04 #@! TO.N,GND*
G04 #@! TO.P,R4,1,1*
X-18560000Y-5605000D03*
D26*
G04 #@! TO.N,INTVCC*
G04 #@! TO.C,R15*
G04 #@! TO.P,R15,1,1*
X-3400000Y6000000D03*
G04 #@! TO.N,MODE/SYNC/1.8V*
G04 #@! TO.P,R15,2,2*
X-3400000Y6400000D03*
D17*
G04 #@! TO.N,TRACKSS1*
G04 #@! TO.C,C14*
G04 #@! TO.P,C14,1,1*
X-14000000Y-9800000D03*
G04 #@! TO.N,GND*
G04 #@! TO.P,C14,2,2*
X-14000000Y-10600000D03*
G04 #@! TO.N,VCC1V0*
G04 #@! TO.C,C4*
G04 #@! TO.P,C4,1,1*
X-1476000Y3500000D03*
G04 #@! TO.N,GND*
G04 #@! TO.P,C4,2,2*
X-1476000Y2700000D03*
D11*
G04 #@! TO.N,VCC1V0*
G04 #@! TO.C,C72*
G04 #@! TO.P,C72,1,1*
X-501000Y-3476000D03*
G04 #@! TO.N,GND*
G04 #@! TO.P,C72,2,2*
X299000Y-3476000D03*
D22*
G04 #@! TO.N,PHMODE*
G04 #@! TO.C,R7*
G04 #@! TO.P,R7,2,2*
X-12735000Y-9625000D03*
G04 #@! TO.N,GND*
G04 #@! TO.P,R7,1,1*
X-12735000Y-11175000D03*
D27*
G04 #@! TO.N,VFB2*
G04 #@! TO.C,C22*
G04 #@! TO.P,C22,2,2*
X-17070000Y6385000D03*
G04 #@! TO.N,VCC3V3*
G04 #@! TO.P,C22,1,1*
X-18520000Y6385000D03*
D17*
G04 #@! TO.N,VCC1V8*
G04 #@! TO.C,C102*
G04 #@! TO.P,C102,1,1*
X-4000000Y14700000D03*
G04 #@! TO.N,GND*
G04 #@! TO.P,C102,2,2*
X-4000000Y13900000D03*
G04 #@! TO.N,TRACKSS2*
G04 #@! TO.C,C37*
G04 #@! TO.P,C37,1,1*
X-14200000Y1900000D03*
G04 #@! TO.N,GND*
G04 #@! TO.P,C37,2,2*
X-14200000Y2700000D03*
D11*
G04 #@! TO.N,VCC3V3*
G04 #@! TO.C,C94*
G04 #@! TO.P,C94,1,1*
X12500000Y-12475000D03*
G04 #@! TO.N,GND*
G04 #@! TO.P,C94,2,2*
X11700000Y-12475000D03*
D25*
G04 #@! TO.N,VCC1V0*
G04 #@! TO.C,R11*
G04 #@! TO.P,R11,2,2*
X-16948000Y-11056000D03*
G04 #@! TO.N,VFB1*
G04 #@! TO.P,R11,1,1*
X-15398000Y-11056000D03*
D26*
G04 #@! TO.N,VCC3V3*
G04 #@! TO.C,R28*
G04 #@! TO.P,R28,1,1*
X-2418000Y-14538000D03*
G04 #@! TO.N,INIT_B*
G04 #@! TO.P,R28,2,2*
X-2818000Y-14538000D03*
D17*
G04 #@! TO.N,VCC1V0*
G04 #@! TO.C,C87*
G04 #@! TO.P,C87,1,1*
X14100000Y-5300000D03*
G04 #@! TO.N,GND*
G04 #@! TO.P,C87,2,2*
X14100000Y-6100000D03*
D28*
G04 #@! TO.C,C36*
G04 #@! TO.P,C36,2,2*
X-19670000Y-11527972D03*
G04 #@! TO.N,VCC1V8*
G04 #@! TO.P,C36,1,1*
X-19670000Y-10077972D03*
D18*
G04 #@! TO.C,C34*
G04 #@! TO.P,C34,1,1*
X-21270000Y-10128000D03*
G04 #@! TO.N,GND*
G04 #@! TO.P,C34,2,2*
X-21270000Y-11878000D03*
D28*
G04 #@! TO.N,BOOST1*
G04 #@! TO.C,C15*
G04 #@! TO.P,C15,2,2*
X-4200000Y-5675000D03*
G04 #@! TO.N,SW1*
G04 #@! TO.P,C15,1,1*
X-4200000Y-7125000D03*
D17*
G04 #@! TO.N,VCC1V8*
G04 #@! TO.C,C65*
G04 #@! TO.P,C65,1,1*
X5200000Y8427000D03*
G04 #@! TO.N,GND*
G04 #@! TO.P,C65,2,2*
X5200000Y7627000D03*
D18*
G04 #@! TO.N,VCC3V3*
G04 #@! TO.C,C25*
G04 #@! TO.P,C25,1,1*
X-4500000Y12375000D03*
G04 #@! TO.N,GND*
G04 #@! TO.P,C25,2,2*
X-4500000Y10625000D03*
D28*
G04 #@! TO.N,SW2*
G04 #@! TO.C,C21*
G04 #@! TO.P,C21,2,2*
X-5600000Y-1075000D03*
G04 #@! TO.N,BOOST2*
G04 #@! TO.P,C21,1,1*
X-5600000Y-2525000D03*
D17*
G04 #@! TO.N,VCC1V0*
G04 #@! TO.C,C84*
G04 #@! TO.P,C84,1,1*
X11400000Y-5300000D03*
G04 #@! TO.N,GND*
G04 #@! TO.P,C84,2,2*
X11400000Y-6100000D03*
D26*
G04 #@! TO.N,PGOOD*
G04 #@! TO.C,R17*
G04 #@! TO.P,R17,1,1*
X-7670000Y6490000D03*
G04 #@! TO.N,INTVCC*
G04 #@! TO.P,R17,2,2*
X-7270000Y6490000D03*
D11*
G04 #@! TO.N,VFB2*
G04 #@! TO.C,C23*
G04 #@! TO.P,C23,1,1*
X-15495000Y1975000D03*
G04 #@! TO.N,GND*
G04 #@! TO.P,C23,2,2*
X-16295000Y1975000D03*
D17*
G04 #@! TO.N,VCC1V8*
G04 #@! TO.C,C100*
G04 #@! TO.P,C100,1,1*
X-6000000Y14700000D03*
G04 #@! TO.N,GND*
G04 #@! TO.P,C100,2,2*
X-6000000Y13900000D03*
D11*
G04 #@! TO.N,VCC1V0*
G04 #@! TO.C,C41*
G04 #@! TO.P,C41,1,1*
X-3500000Y-475000D03*
G04 #@! TO.N,GND*
G04 #@! TO.P,C41,2,2*
X-4300000Y-475000D03*
D22*
G04 #@! TO.N,+5V*
G04 #@! TO.C,R3*
G04 #@! TO.P,R3,2,2*
X-19934000Y-5605000D03*
G04 #@! TO.N,N4*
G04 #@! TO.P,R3,1,1*
X-19934000Y-4055000D03*
D17*
G04 #@! TO.N,VCC1V0*
G04 #@! TO.C,C82*
G04 #@! TO.P,C82,1,1*
X13200000Y-5300000D03*
G04 #@! TO.N,GND*
G04 #@! TO.P,C82,2,2*
X13200000Y-6100000D03*
D25*
G04 #@! TO.N,VFB1*
G04 #@! TO.C,R12*
G04 #@! TO.P,R12,2,2*
X-15398000Y-12387000D03*
G04 #@! TO.N,GND*
G04 #@! TO.P,R12,1,1*
X-16948000Y-12387000D03*
D28*
G04 #@! TO.C,C9*
G04 #@! TO.P,C9,2,2*
X-8400000Y-5525000D03*
G04 #@! TO.N,INT3V3*
G04 #@! TO.P,C9,1,1*
X-8400000Y-4075000D03*
D15*
G04 #@! TO.N,GND*
G04 #@! TO.C,J4*
G04 #@! TO.P,J4,2,2*
X-31589000Y19991000D03*
D16*
G04 #@! TO.N,+5V*
G04 #@! TO.P,J4,1,1*
X-31589000Y22531000D03*
D17*
G04 #@! TO.N,VCC1V8*
G04 #@! TO.C,C98*
G04 #@! TO.P,C98,1,1*
X-2500000Y-700000D03*
G04 #@! TO.N,GND*
G04 #@! TO.P,C98,2,2*
X-2500000Y-1500000D03*
D11*
G04 #@! TO.N,VCC3V3*
G04 #@! TO.C,C60*
G04 #@! TO.P,C60,1,1*
X8500000Y-10472000D03*
G04 #@! TO.N,GND*
G04 #@! TO.P,C60,2,2*
X7700000Y-10472000D03*
D27*
G04 #@! TO.C,C30*
G04 #@! TO.P,C30,2,2*
X-15538000Y5461000D03*
G04 #@! TO.N,+5V*
G04 #@! TO.P,C30,1,1*
X-14088000Y5461000D03*
D11*
G04 #@! TO.N,GND*
G04 #@! TO.C,C31*
G04 #@! TO.P,C31,1,1*
X-1817000Y5959000D03*
G04 #@! TO.N,INTVCC*
G04 #@! TO.P,C31,2,2*
X-2617000Y5959000D03*
D25*
G04 #@! TO.N,PGOOD1*
G04 #@! TO.C,R5*
G04 #@! TO.P,R5,2,2*
X-5725000Y-3800000D03*
G04 #@! TO.N,INT3V3*
G04 #@! TO.P,R5,1,1*
X-7275000Y-3800000D03*
D22*
G04 #@! TO.N,MODE/SYNC*
G04 #@! TO.C,R8*
G04 #@! TO.P,R8,2,2*
X-17200000Y-4055000D03*
G04 #@! TO.N,GND*
G04 #@! TO.P,R8,1,1*
X-17200000Y-5605000D03*
D17*
G04 #@! TO.N,VCC1V0*
G04 #@! TO.C,C1*
G04 #@! TO.P,C1,1,1*
X-2499000Y2524000D03*
G04 #@! TO.N,GND*
G04 #@! TO.P,C1,2,2*
X-2499000Y1724000D03*
D25*
G04 #@! TO.N,FB*
G04 #@! TO.C,R19*
G04 #@! TO.P,R19,2,2*
X-4953000Y7920000D03*
G04 #@! TO.N,GND*
G04 #@! TO.P,R19,1,1*
X-6503000Y7920000D03*
D17*
G04 #@! TO.N,VCC1V0*
G04 #@! TO.C,C2*
G04 #@! TO.P,C2,1,1*
X-474000Y4500000D03*
G04 #@! TO.N,GND*
G04 #@! TO.P,C2,2,2*
X-474000Y3700000D03*
D28*
G04 #@! TO.C,C20*
G04 #@! TO.P,C20,2,2*
X-8500000Y-14225000D03*
G04 #@! TO.N,VCC1V0*
G04 #@! TO.P,C20,1,1*
X-8500000Y-12775000D03*
D11*
G04 #@! TO.N,VCC1V8*
G04 #@! TO.C,C69*
G04 #@! TO.P,C69,1,1*
X-7493000Y7523000D03*
G04 #@! TO.N,GND*
G04 #@! TO.P,C69,2,2*
X-8293000Y7523000D03*
D27*
G04 #@! TO.N,VFB1*
G04 #@! TO.C,C16*
G04 #@! TO.P,C16,2,2*
X-15377000Y-13714000D03*
G04 #@! TO.N,VCC1V0*
G04 #@! TO.P,C16,1,1*
X-16827000Y-13714000D03*
D15*
G04 #@! TO.N,P38_3V3*
G04 #@! TO.C,J6*
G04 #@! TO.P,J6,26,26*
X27340000Y-13170000D03*
G04 #@! TO.N,P1_3V3*
G04 #@! TO.P,J6,4,4*
X27340000Y14770000D03*
G04 #@! TO.N,P24_3V3*
G04 #@! TO.P,J6,14,14*
X27340000Y2070000D03*
G04 #@! TO.N,P44_3V3*
G04 #@! TO.P,J6,21,21*
X24800000Y-8090000D03*
G04 #@! TO.N,P2_3V3*
G04 #@! TO.P,J6,6,6*
X27340000Y12230000D03*
G04 #@! TO.N,P26_3V3*
G04 #@! TO.P,J6,11,11*
X24800000Y4610000D03*
G04 #@! TO.N,P40_3V3*
G04 #@! TO.P,J6,28,28*
X27340000Y-15710000D03*
G04 #@! TO.N,P22_3V3*
G04 #@! TO.P,J6,16,16*
X27340000Y-470000D03*
G04 #@! TO.N,P48_3V3*
G04 #@! TO.P,J6,17,17*
X24800000Y-3010000D03*
G04 #@! TO.N,P7_3V3*
G04 #@! TO.P,J6,9,9*
X24800000Y7150000D03*
G04 #@! TO.N,P23_3V3*
G04 #@! TO.P,J6,13,13*
X24800000Y2070000D03*
G04 #@! TO.N,P3_3V3*
G04 #@! TO.P,J6,5,5*
X24800000Y12230000D03*
G04 #@! TO.N,P0_3V3*
G04 #@! TO.P,J6,2,2*
X27340000Y17310000D03*
G04 #@! TO.N,P45_3V3*
G04 #@! TO.P,J6,22,22*
X27340000Y-8090000D03*
G04 #@! TO.N,P35_3V3*
G04 #@! TO.P,J6,23,23*
X24800000Y-10630000D03*
G04 #@! TO.N,P37_3V3*
G04 #@! TO.P,J6,25,25*
X24800000Y-13170000D03*
G04 #@! TO.N,P9_3V3*
G04 #@! TO.P,J6,8,8*
X27340000Y9690000D03*
G04 #@! TO.N,P43_3V3*
G04 #@! TO.P,J6,18,18*
X27340000Y-3010000D03*
G04 #@! TO.N,P6_3V3*
G04 #@! TO.P,J6,7,7*
X24800000Y9690000D03*
G04 #@! TO.N,P49_3V3*
G04 #@! TO.P,J6,20,20*
X27340000Y-5550000D03*
G04 #@! TO.N,N/C*
G04 #@! TO.P,J6,15,15*
X24800000Y-470000D03*
G04 #@! TO.N,GND*
G04 #@! TO.P,J6,30,30*
X27340000Y-18250000D03*
D16*
G04 #@! TO.N,P5_3V3*
G04 #@! TO.P,J6,1,1*
X24800000Y17310000D03*
D15*
G04 #@! TO.N,P4_3V3*
G04 #@! TO.P,J6,3,3*
X24800000Y14770000D03*
G04 #@! TO.N,P8_3V3*
G04 #@! TO.P,J6,10,10*
X27340000Y7150000D03*
G04 #@! TO.N,P25_3V3*
G04 #@! TO.P,J6,12,12*
X27340000Y4610000D03*
G04 #@! TO.N,VCC3V3*
G04 #@! TO.P,J6,29,29*
X24800000Y-18250000D03*
G04 #@! TO.N,P42_3V3*
G04 #@! TO.P,J6,19,19*
X24800000Y-5550000D03*
G04 #@! TO.N,P41_3V3*
G04 #@! TO.P,J6,27,27*
X24800000Y-15710000D03*
G04 #@! TO.N,P36_3V3*
G04 #@! TO.P,J6,24,24*
X27340000Y-10630000D03*
D11*
G04 #@! TO.N,VCC1V8*
G04 #@! TO.C,C63*
G04 #@! TO.P,C63,1,1*
X7500000Y12524000D03*
G04 #@! TO.N,GND*
G04 #@! TO.P,C63,2,2*
X8300000Y12524000D03*
D27*
G04 #@! TO.C,C39*
G04 #@! TO.P,C39,2,2*
X11175000Y9124000D03*
G04 #@! TO.N,VCC1V8*
G04 #@! TO.P,C39,1,1*
X9725000Y9124000D03*
D10*
G04 #@! TO.N,VCC3V3*
G04 #@! TO.C,C49*
G04 #@! TO.P,C49,1,1*
X5825000Y-5476000D03*
G04 #@! TO.N,GND*
G04 #@! TO.P,C49,2,2*
X7575000Y-5476000D03*
D17*
G04 #@! TO.N,VCC1V8*
G04 #@! TO.C,C62*
G04 #@! TO.P,C62,1,1*
X2500000Y7525000D03*
G04 #@! TO.N,GND*
G04 #@! TO.P,C62,2,2*
X2500000Y8325000D03*
G04 #@! TO.N,VCC1V0*
G04 #@! TO.C,C46*
G04 #@! TO.P,C46,1,1*
X-500000Y2524000D03*
G04 #@! TO.N,GND*
G04 #@! TO.P,C46,2,2*
X-500000Y1724000D03*
D27*
G04 #@! TO.C,C28*
G04 #@! TO.P,C28,2,2*
X-5613000Y-5641000D03*
G04 #@! TO.N,+5V*
G04 #@! TO.P,C28,1,1*
X-7063000Y-5641000D03*
D11*
G04 #@! TO.N,ITH1_CAP*
G04 #@! TO.C,C13*
G04 #@! TO.P,C13,1,1*
X-17800000Y-6700000D03*
G04 #@! TO.N,GND*
G04 #@! TO.P,C13,2,2*
X-17000000Y-6700000D03*
D17*
G04 #@! TO.N,VCC1V8*
G04 #@! TO.C,C79*
G04 #@! TO.P,C79,1,1*
X-9618000Y2549000D03*
G04 #@! TO.N,GND*
G04 #@! TO.P,C79,2,2*
X-9618000Y1749000D03*
D11*
G04 #@! TO.N,VCC1V8*
G04 #@! TO.C,C64*
G04 #@! TO.P,C64,1,1*
X11500000Y10524000D03*
G04 #@! TO.N,GND*
G04 #@! TO.P,C64,2,2*
X10700000Y10524000D03*
D25*
G04 #@! TO.N,VCC3V3*
G04 #@! TO.C,R21*
G04 #@! TO.P,R21,2,2*
X-21800000Y-2650000D03*
G04 #@! TO.N,PGOOD2*
G04 #@! TO.P,R21,1,1*
X-20250000Y-2650000D03*
D29*
G04 #@! TO.N,VCC3V3*
G04 #@! TO.C,R27*
G04 #@! TO.P,R27,2,2*
X11665000Y7674000D03*
G04 #@! TO.N,CLK_29.5MHZ_RSET*
G04 #@! TO.P,R27,1,1*
X11665000Y5724000D03*
D11*
G04 #@! TO.N,VCC1V0*
G04 #@! TO.C,C5*
G04 #@! TO.P,C5,1,1*
X-3501000Y3525000D03*
G04 #@! TO.N,GND*
G04 #@! TO.P,C5,2,2*
X-2701000Y3525000D03*
D17*
G04 #@! TO.N,ITH1*
G04 #@! TO.C,C12*
G04 #@! TO.P,C12,1,1*
X-17000000Y-8300000D03*
G04 #@! TO.N,GND*
G04 #@! TO.P,C12,2,2*
X-17000000Y-7500000D03*
D10*
G04 #@! TO.N,VCC1V8*
G04 #@! TO.C,C8*
G04 #@! TO.P,C8,1,1*
X3875000Y5000000D03*
G04 #@! TO.N,GND*
G04 #@! TO.P,C8,2,2*
X2125000Y5000000D03*
D17*
G04 #@! TO.N,VCC1V0*
G04 #@! TO.C,C86*
G04 #@! TO.P,C86,1,1*
X9600000Y-5300000D03*
G04 #@! TO.N,GND*
G04 #@! TO.P,C86,2,2*
X9600000Y-6100000D03*
G04 #@! TO.N,VCC1V0*
G04 #@! TO.C,C81*
G04 #@! TO.P,C81,1,1*
X15000000Y-6900000D03*
G04 #@! TO.N,GND*
G04 #@! TO.P,C81,2,2*
X15000000Y-7700000D03*
D11*
G04 #@! TO.N,VCC1V8*
G04 #@! TO.C,C68*
G04 #@! TO.P,C68,1,1*
X-12500000Y12522000D03*
G04 #@! TO.N,GND*
G04 #@! TO.P,C68,2,2*
X-11700000Y12522000D03*
D28*
G04 #@! TO.C,C11*
G04 #@! TO.P,C11,2,2*
X-18300000Y-1025000D03*
G04 #@! TO.N,ITH2_CAP*
G04 #@! TO.P,C11,1,1*
X-18300000Y-2475000D03*
D11*
G04 #@! TO.N,VCC1V8*
G04 #@! TO.C,C50*
G04 #@! TO.P,C50,1,1*
X-10500000Y6524000D03*
G04 #@! TO.N,GND*
G04 #@! TO.P,C50,2,2*
X-11300000Y6524000D03*
G04 #@! TO.N,VCC1V8*
G04 #@! TO.C,C70*
G04 #@! TO.P,C70,1,1*
X-8100000Y2500000D03*
G04 #@! TO.N,GND*
G04 #@! TO.P,C70,2,2*
X-7300000Y2500000D03*
G04 #@! TO.N,VCC3V3*
G04 #@! TO.C,C38*
G04 #@! TO.P,C38,1,1*
X8092000Y4812000D03*
G04 #@! TO.N,GND*
G04 #@! TO.P,C38,2,2*
X8892000Y4812000D03*
D26*
G04 #@! TO.C,R16*
G04 #@! TO.P,R16,1,1*
X-2900000Y7600000D03*
G04 #@! TO.N,MODE/SYNC/1.8V*
G04 #@! TO.P,R16,2,2*
X-3300000Y7600000D03*
D17*
G04 #@! TO.N,VCC1V0*
G04 #@! TO.C,C93*
G04 #@! TO.P,C93,1,1*
X14100000Y-6900000D03*
G04 #@! TO.N,GND*
G04 #@! TO.P,C93,2,2*
X14100000Y-7700000D03*
D11*
G04 #@! TO.N,VCC1V8*
G04 #@! TO.C,C77*
G04 #@! TO.P,C77,1,1*
X-4500000Y524000D03*
G04 #@! TO.N,GND*
G04 #@! TO.P,C77,2,2*
X-5300000Y524000D03*
D30*
G04 #@! TO.N,P29_1V8*
G04 #@! TO.C,J1*
G04 #@! TO.P,J1,42,42*
X26202000Y27340000D03*
G04 #@! TO.N,P41_1V8*
G04 #@! TO.P,J1,9,9*
X-14438000Y24800000D03*
G04 #@! TO.N,P0_1V8*
G04 #@! TO.P,J1,6,6*
X-19518000Y27340000D03*
G04 #@! TO.N,P30_1V8*
G04 #@! TO.P,J1,41,41*
X26202000Y24800000D03*
G04 #@! TO.N,P7_1V8*
G04 #@! TO.P,J1,19,19*
X-1738000Y24800000D03*
G04 #@! TO.N,P11_1V8*
G04 #@! TO.P,J1,26,26*
X5882000Y27340000D03*
G04 #@! TO.N,P1_1V8*
G04 #@! TO.P,J1,5,5*
X-19518000Y24800000D03*
G04 #@! TO.N,P40_1V8*
G04 #@! TO.P,J1,17,17*
X-4278000Y24800000D03*
G04 #@! TO.N,GND*
G04 #@! TO.P,J1,44,44*
X28742000Y27340000D03*
G04 #@! TO.N,P6_1V8*
G04 #@! TO.P,J1,8,8*
X-16978000Y27340000D03*
G04 #@! TO.N,P27_1V8*
G04 #@! TO.P,J1,40,40*
X23662000Y27340000D03*
G04 #@! TO.N,P22_1V8*
G04 #@! TO.P,J1,30,30*
X10962000Y27340000D03*
G04 #@! TO.N,P23_1V8*
G04 #@! TO.P,J1,31,31*
X13502000Y24800000D03*
D31*
G04 #@! TO.N,P34_1V8*
G04 #@! TO.P,J1,1,1*
X-24598000Y24800000D03*
D30*
G04 #@! TO.N,P21_1V8*
G04 #@! TO.P,J1,29,29*
X10962000Y24800000D03*
G04 #@! TO.N,P31_1V8*
G04 #@! TO.P,J1,34,34*
X16042000Y27340000D03*
G04 #@! TO.N,P32_1V8*
G04 #@! TO.P,J1,3,3*
X-22058000Y24800000D03*
G04 #@! TO.N,P12_1V8*
G04 #@! TO.P,J1,25,25*
X5882000Y24800000D03*
G04 #@! TO.N,P17_1V8*
G04 #@! TO.P,J1,24,24*
X3342000Y27340000D03*
G04 #@! TO.N,P33_1V8*
G04 #@! TO.P,J1,2,2*
X-24598000Y27340000D03*
G04 #@! TO.N,P20_1V8*
G04 #@! TO.P,J1,28,28*
X8422000Y27340000D03*
G04 #@! TO.N,P37_1V8*
G04 #@! TO.P,J1,16,16*
X-6818000Y27340000D03*
G04 #@! TO.N,P13_1V8*
G04 #@! TO.P,J1,22,22*
X802000Y27340000D03*
G04 #@! TO.N,P14_1V8*
G04 #@! TO.P,J1,38,38*
X21122000Y27340000D03*
G04 #@! TO.N,VCC1V8*
G04 #@! TO.P,J1,43,43*
X28742000Y24800000D03*
G04 #@! TO.N,P35_1V8*
G04 #@! TO.P,J1,13,13*
X-9358000Y24800000D03*
G04 #@! TO.N,P25_1V8*
G04 #@! TO.P,J1,33,33*
X16042000Y24800000D03*
G04 #@! TO.N,P2_1V8*
G04 #@! TO.P,J1,4,4*
X-22058000Y27340000D03*
G04 #@! TO.N,P19_1V8*
G04 #@! TO.P,J1,27,27*
X8422000Y24800000D03*
G04 #@! TO.N,P3_1V8*
G04 #@! TO.P,J1,7,7*
X-16978000Y24800000D03*
G04 #@! TO.N,P4_1V8*
G04 #@! TO.P,J1,11,11*
X-11898000Y24800000D03*
G04 #@! TO.N,P15_1V8*
G04 #@! TO.P,J1,35,35*
X18582000Y24800000D03*
G04 #@! TO.N,P8_1V8*
G04 #@! TO.P,J1,20,20*
X-1738000Y27340000D03*
G04 #@! TO.N,P28_1V8*
G04 #@! TO.P,J1,37,37*
X21122000Y24800000D03*
G04 #@! TO.N,P10_1V8*
G04 #@! TO.P,J1,21,21*
X802000Y24800000D03*
G04 #@! TO.N,P38_1V8*
G04 #@! TO.P,J1,18,18*
X-4278000Y27340000D03*
G04 #@! TO.N,P16_1V8*
G04 #@! TO.P,J1,36,36*
X18582000Y27340000D03*
G04 #@! TO.N,P18_1V8*
G04 #@! TO.P,J1,23,23*
X3342000Y24800000D03*
G04 #@! TO.N,P39_1V8*
G04 #@! TO.P,J1,15,15*
X-6818000Y24800000D03*
G04 #@! TO.N,P24_1V8*
G04 #@! TO.P,J1,32,32*
X13502000Y27340000D03*
G04 #@! TO.N,P9_1V8*
G04 #@! TO.P,J1,12,12*
X-11898000Y27340000D03*
G04 #@! TO.N,P36_1V8*
G04 #@! TO.P,J1,14,14*
X-9358000Y27340000D03*
G04 #@! TO.N,P26_1V8*
G04 #@! TO.P,J1,39,39*
X23662000Y24800000D03*
G04 #@! TO.N,P42_1V8*
G04 #@! TO.P,J1,10,10*
X-14438000Y27340000D03*
D28*
G04 #@! TO.N,GND*
G04 #@! TO.C,C95*
G04 #@! TO.P,C95,2,2*
X-21400000Y-5555000D03*
G04 #@! TO.N,N4*
G04 #@! TO.P,C95,1,1*
X-21400000Y-4105000D03*
D11*
G04 #@! TO.N,VCC1V8*
G04 #@! TO.C,C76*
G04 #@! TO.P,C76,1,1*
X-4500000Y-1475000D03*
G04 #@! TO.N,GND*
G04 #@! TO.P,C76,2,2*
X-3700000Y-1475000D03*
D27*
G04 #@! TO.C,C27*
G04 #@! TO.P,C27,2,2*
X-6943000Y-2489000D03*
G04 #@! TO.N,+5V*
G04 #@! TO.P,C27,1,1*
X-8393000Y-2489000D03*
D11*
G04 #@! TO.N,VCC1V0*
G04 #@! TO.C,C3*
G04 #@! TO.P,C3,1,1*
X-2501000Y4525000D03*
G04 #@! TO.N,GND*
G04 #@! TO.P,C3,2,2*
X-1701000Y4525000D03*
D17*
G04 #@! TO.N,VCC3V3*
G04 #@! TO.C,C52*
G04 #@! TO.P,C52,1,1*
X5501000Y-11476000D03*
G04 #@! TO.N,GND*
G04 #@! TO.P,C52,2,2*
X5501000Y-10676000D03*
G04 #@! TO.N,VCC3V3*
G04 #@! TO.C,C58*
G04 #@! TO.P,C58,1,1*
X5809000Y2564000D03*
G04 #@! TO.N,GND*
G04 #@! TO.P,C58,2,2*
X5809000Y1764000D03*
D18*
G04 #@! TO.N,VCC1V0*
G04 #@! TO.C,C19*
G04 #@! TO.P,C19,1,1*
X-10500000Y-12625000D03*
G04 #@! TO.N,GND*
G04 #@! TO.P,C19,2,2*
X-10500000Y-14375000D03*
D27*
G04 #@! TO.C,C17*
G04 #@! TO.P,C17,2,2*
X-16927000Y-9723000D03*
G04 #@! TO.N,VFB1*
G04 #@! TO.P,C17,1,1*
X-15477000Y-9723000D03*
D17*
G04 #@! TO.N,VCC1V8*
G04 #@! TO.C,C51*
G04 #@! TO.P,C51,1,1*
X8500000Y9525000D03*
G04 #@! TO.N,GND*
G04 #@! TO.P,C51,2,2*
X8500000Y10325000D03*
D32*
G04 #@! TO.C,C80*
G04 #@! TO.P,C80,2,-*
X-2775000Y-11000000D03*
G04 #@! TO.N,VCC1V0*
G04 #@! TO.P,C80,1,+*
X2975000Y-11000000D03*
D17*
G04 #@! TO.N,VCC3V3*
G04 #@! TO.C,C7*
G04 #@! TO.P,C7,1,1*
X4499000Y-8472000D03*
G04 #@! TO.N,GND*
G04 #@! TO.P,C7,2,2*
X4499000Y-7672000D03*
G04 #@! TO.N,VCC3V3*
G04 #@! TO.C,C55*
G04 #@! TO.P,C55,1,1*
X5499000Y-1475000D03*
G04 #@! TO.N,GND*
G04 #@! TO.P,C55,2,2*
X5499000Y-2275000D03*
D15*
G04 #@! TO.C,J8*
G04 #@! TO.P,J8,2,2*
X15040000Y-20070000D03*
D16*
G04 #@! TO.N,PROGRAM_B*
G04 #@! TO.P,J8,1,1*
X15040000Y-17530000D03*
D28*
G04 #@! TO.N,GND*
G04 #@! TO.C,C35*
G04 #@! TO.P,C35,2,2*
X-18270000Y-11528000D03*
G04 #@! TO.N,VCC1V8*
G04 #@! TO.P,C35,1,1*
X-18270000Y-10078000D03*
D11*
G04 #@! TO.N,VCC1V0*
G04 #@! TO.C,C45*
G04 #@! TO.P,C45,1,1*
X-2500000Y-3475000D03*
G04 #@! TO.N,GND*
G04 #@! TO.P,C45,2,2*
X-3300000Y-3475000D03*
G04 #@! TO.N,FB*
G04 #@! TO.C,C33*
G04 #@! TO.P,C33,1,1*
X-5593000Y6771000D03*
G04 #@! TO.N,GND*
G04 #@! TO.P,C33,2,2*
X-6393000Y6771000D03*
G04 #@! TO.N,VCC3V3*
G04 #@! TO.C,C57*
G04 #@! TO.P,C57,1,1*
X11501000Y524000D03*
G04 #@! TO.N,GND*
G04 #@! TO.P,C57,2,2*
X12301000Y524000D03*
D19*
G04 #@! TO.N,VCC3V3*
G04 #@! TO.C,L3*
G04 #@! TO.P,L3,2,2*
X-7500000Y1225000D03*
G04 #@! TO.N,SW2*
G04 #@! TO.P,L3,1,1*
X-7500000Y-1025000D03*
D11*
G04 #@! TO.N,VCC3V3*
G04 #@! TO.C,C61*
G04 #@! TO.P,C61,1,1*
X1500000Y525000D03*
G04 #@! TO.N,GND*
G04 #@! TO.P,C61,2,2*
X2300000Y525000D03*
D10*
G04 #@! TO.N,VCC1V8*
G04 #@! TO.C,C103*
G04 #@! TO.P,C103,1,1*
X-11275000Y-10600000D03*
G04 #@! TO.N,GND*
G04 #@! TO.P,C103,2,2*
X-9525000Y-10600000D03*
D25*
G04 #@! TO.N,VCC3V3*
G04 #@! TO.C,R13*
G04 #@! TO.P,R13,2,2*
X-14105000Y3735000D03*
G04 #@! TO.N,VFB2*
G04 #@! TO.P,R13,1,1*
X-15655000Y3735000D03*
D17*
G04 #@! TO.N,VCC1V0*
G04 #@! TO.C,C85*
G04 #@! TO.P,C85,1,1*
X10500000Y-5300000D03*
G04 #@! TO.N,GND*
G04 #@! TO.P,C85,2,2*
X10500000Y-6100000D03*
G04 #@! TO.N,VCC1V8*
G04 #@! TO.C,C97*
G04 #@! TO.P,C97,1,1*
X-2500000Y1000000D03*
G04 #@! TO.N,GND*
G04 #@! TO.P,C97,2,2*
X-2500000Y200000D03*
D33*
G04 #@! TO.N,LED1*
G04 #@! TO.C,T3*
G04 #@! TO.P,T3,3,D*
X-21236000Y1392028D03*
G04 #@! TO.N,GND*
G04 #@! TO.P,T3,2,S*
X-22186000Y-557972D03*
G04 #@! TO.N,PGOOD2*
G04 #@! TO.P,T3,1,G*
X-20286000Y-557972D03*
D11*
G04 #@! TO.N,VCC3V3*
G04 #@! TO.C,C48*
G04 #@! TO.P,C48,1,1*
X7497000Y-7472000D03*
G04 #@! TO.N,GND*
G04 #@! TO.P,C48,2,2*
X6697000Y-7472000D03*
D17*
G04 #@! TO.N,VCC1V0*
G04 #@! TO.C,C83*
G04 #@! TO.P,C83,1,1*
X12300000Y-5300000D03*
G04 #@! TO.N,GND*
G04 #@! TO.P,C83,2,2*
X12300000Y-6100000D03*
G04 #@! TO.N,VCC1V0*
G04 #@! TO.C,C89*
G04 #@! TO.P,C89,1,1*
X10500000Y-6900000D03*
G04 #@! TO.N,GND*
G04 #@! TO.P,C89,2,2*
X10500000Y-7700000D03*
D15*
G04 #@! TO.N,P57_3V3*
G04 #@! TO.C,J3*
G04 #@! TO.P,J3,24,24*
X33070000Y-10630000D03*
G04 #@! TO.N,P13_3V3*
G04 #@! TO.P,J3,2,2*
X33070000Y17310000D03*
G04 #@! TO.N,P33_3V3*
G04 #@! TO.P,J3,18,18*
X33070000Y-3010000D03*
G04 #@! TO.N,P11_3V3*
G04 #@! TO.P,J3,8,8*
X33070000Y9690000D03*
G04 #@! TO.N,P15_3V3*
G04 #@! TO.P,J3,15,15*
X30530000Y-470000D03*
G04 #@! TO.N,P27_3V3*
G04 #@! TO.P,J3,3,3*
X30530000Y14770000D03*
G04 #@! TO.N,P21_3V3*
G04 #@! TO.P,J3,14,14*
X33070000Y2070000D03*
G04 #@! TO.N,P10_3V3*
G04 #@! TO.P,J3,6,6*
X33070000Y12230000D03*
G04 #@! TO.N,P51_3V3*
G04 #@! TO.P,J3,22,22*
X33070000Y-8090000D03*
G04 #@! TO.N,P19_3V3*
G04 #@! TO.P,J3,12,12*
X33070000Y4610000D03*
G04 #@! TO.N,P55_3V3*
G04 #@! TO.P,J3,26,26*
X33070000Y-13170000D03*
G04 #@! TO.N,P18_3V3*
G04 #@! TO.P,J3,9,9*
X30530000Y7150000D03*
D16*
G04 #@! TO.N,N/C*
G04 #@! TO.P,J3,1,1*
X30530000Y17310000D03*
D15*
G04 #@! TO.N,P54_3V3*
G04 #@! TO.P,J3,23,23*
X30530000Y-10630000D03*
G04 #@! TO.N,P30_3V3*
G04 #@! TO.P,J3,13,13*
X30530000Y2070000D03*
G04 #@! TO.N,P29_3V3*
G04 #@! TO.P,J3,19,19*
X30530000Y-5550000D03*
G04 #@! TO.N,P20_3V3*
G04 #@! TO.P,J3,11,11*
X30530000Y4610000D03*
G04 #@! TO.N,P16_3V3*
G04 #@! TO.P,J3,7,7*
X30530000Y9690000D03*
G04 #@! TO.N,P12_3V3*
G04 #@! TO.P,J3,5,5*
X30530000Y12230000D03*
G04 #@! TO.N,P14_3V3*
G04 #@! TO.P,J3,4,4*
X33070000Y14770000D03*
G04 #@! TO.N,N/C*
G04 #@! TO.P,J3,28,28*
X33070000Y-15710000D03*
G04 #@! TO.N,P47_3V3*
G04 #@! TO.P,J3,29,29*
X30530000Y-18250000D03*
G04 #@! TO.N,P32_3V3*
G04 #@! TO.P,J3,17,17*
X30530000Y-3010000D03*
G04 #@! TO.N,P46_3V3*
G04 #@! TO.P,J3,30,30*
X33070000Y-18250000D03*
G04 #@! TO.N,P34_3V3*
G04 #@! TO.P,J3,16,16*
X33070000Y-470000D03*
G04 #@! TO.N,P31_3V3*
G04 #@! TO.P,J3,20,20*
X33070000Y-5550000D03*
G04 #@! TO.N,P50_3V3*
G04 #@! TO.P,J3,21,21*
X30530000Y-8090000D03*
G04 #@! TO.N,P52_3V3*
G04 #@! TO.P,J3,27,27*
X30530000Y-15710000D03*
G04 #@! TO.N,P17_3V3*
G04 #@! TO.P,J3,10,10*
X33070000Y7150000D03*
G04 #@! TO.N,P56_3V3*
G04 #@! TO.P,J3,25,25*
X30530000Y-13170000D03*
D11*
G04 #@! TO.N,VCC1V8*
G04 #@! TO.C,C67*
G04 #@! TO.P,C67,1,1*
X4489000Y11524000D03*
G04 #@! TO.N,GND*
G04 #@! TO.P,C67,2,2*
X5289000Y11524000D03*
D30*
G04 #@! TO.N,N23*
G04 #@! TO.C,J5*
G04 #@! TO.P,J5,9,9*
X2817000Y-20270000D03*
D31*
G04 #@! TO.N,FLASH_VCC*
G04 #@! TO.P,J5,1,1*
X-7343000Y-20270000D03*
D30*
G04 #@! TO.N,GND*
G04 #@! TO.P,J5,4,4*
X-4803000Y-17730000D03*
G04 #@! TO.N,FLASH_SCK*
G04 #@! TO.P,J5,5,5*
X-2263000Y-20270000D03*
G04 #@! TO.N,VCC3V3*
G04 #@! TO.P,J5,2,2*
X-7343000Y-17730000D03*
G04 #@! TO.N,FLASH_VSS*
G04 #@! TO.P,J5,3,3*
X-4803000Y-20270000D03*
G04 #@! TO.N,CCLK*
G04 #@! TO.P,J5,6,6*
X-2263000Y-17730000D03*
G04 #@! TO.N,D0*
G04 #@! TO.P,J5,10,10*
X2817000Y-17730000D03*
G04 #@! TO.N,FLASH_CS*
G04 #@! TO.P,J5,11,11*
X5357000Y-20270000D03*
G04 #@! TO.N,FCS_B*
G04 #@! TO.P,J5,12,12*
X5357000Y-17730000D03*
G04 #@! TO.N,D1*
G04 #@! TO.P,J5,8,8*
X277000Y-17730000D03*
G04 #@! TO.N,N13*
G04 #@! TO.P,J5,7,7*
X277000Y-20270000D03*
D10*
G04 #@! TO.N,VCC1V0*
G04 #@! TO.C,C73*
G04 #@! TO.P,C73,1,1*
X2151000Y3013000D03*
G04 #@! TO.N,GND*
G04 #@! TO.P,C73,2,2*
X3901000Y3013000D03*
D28*
G04 #@! TO.C,C26*
G04 #@! TO.P,C26,2,2*
X-2700000Y10775000D03*
G04 #@! TO.N,VCC3V3*
G04 #@! TO.P,C26,1,1*
X-2700000Y12225000D03*
D17*
G04 #@! TO.N,VCC1V8*
G04 #@! TO.C,C101*
G04 #@! TO.P,C101,1,1*
X-5000000Y14700000D03*
G04 #@! TO.N,GND*
G04 #@! TO.P,C101,2,2*
X-5000000Y13900000D03*
D27*
G04 #@! TO.C,C10*
G04 #@! TO.P,C10,2,2*
X-18325000Y800000D03*
G04 #@! TO.N,ITH2*
G04 #@! TO.P,C10,1,1*
X-16875000Y800000D03*
D22*
G04 #@! TO.C,R9*
G04 #@! TO.P,R9,2,2*
X-16900000Y-947000D03*
G04 #@! TO.N,ITH2_CAP*
G04 #@! TO.P,R9,1,1*
X-16900000Y-2497000D03*
D17*
G04 #@! TO.N,VCC1V0*
G04 #@! TO.C,C42*
G04 #@! TO.P,C42,1,1*
X-1500000Y-1676000D03*
G04 #@! TO.N,GND*
G04 #@! TO.P,C42,2,2*
X-1500000Y-2476000D03*
D11*
G04 #@! TO.N,VCC1V0*
G04 #@! TO.C,C74*
G04 #@! TO.P,C74,1,1*
X-500000Y524000D03*
G04 #@! TO.N,GND*
G04 #@! TO.P,C74,2,2*
X-1300000Y524000D03*
D34*
G04 #@! TD.C*
G04 #@! TD.P*
X-11651028Y-1955000D03*
D35*
X5501000Y-10676000D03*
X11200000Y9100000D03*
G04 #@! TO.N,VCC3V3*
X-4500000Y12400000D03*
G04 #@! TO.N,GND*
X-4500000Y10600000D03*
G04 #@! TO.N,P56_3V3*
X13958000Y-9994000D03*
D36*
X28460000Y-12100000D02*
X29460000Y-12100000D01*
X29460000Y-12100000D02*
X30530000Y-13170000D01*
X28460000Y-12100000D02*
X16064000Y-12100000D01*
X13958000Y-9994000D02*
X16064000Y-12100000D01*
X28460000Y-12100000D02*
X28420000Y-12100000D01*
D35*
G04 #@! TO.N,GND*
X-300000Y-6476000D03*
X-15405000Y-2275000D03*
X4499000Y-7672000D03*
G04 #@! TO.N,VCC3V3*
X-9855000Y325000D03*
G04 #@! TO.N,GND*
X11400000Y-6100000D03*
G04 #@! TO.N,VCC1V0*
X-9855000Y-8125000D03*
G04 #@! TO.N,P71_1V8*
X-8500000Y6524000D03*
D36*
X-20625000Y4625000D02*
X-22500000Y2750000D01*
X-22500000Y2750000D02*
X-22500000Y2300000D01*
X-20400000Y6600000D02*
X-20400000Y4850000D01*
X-12000000Y7700000D02*
X-10300000Y7700000D01*
X-15500000Y8100000D02*
X-15800000Y8100000D01*
X-15500000Y8100000D02*
X-18900000Y8100000D01*
X-8500000Y6600000D02*
X-8900000Y7000000D01*
X-8900000Y7000000D02*
X-9600000Y7000000D01*
X-20625000Y4625000D02*
X-20400000Y4850000D01*
X-18900000Y8100000D02*
X-20400000Y6600000D01*
X-23300000Y600000D02*
X-22500000Y1400000D01*
X-9600000Y7000000D02*
X-10300000Y7700000D01*
X-23300000Y600000D02*
X-23734000Y600000D01*
X-23734000Y600000D02*
X-24804000Y-470000D01*
X-12000000Y7700000D02*
X-12400000Y8100000D01*
X-15500000Y8100000D02*
X-12400000Y8100000D01*
X-8500000Y6524000D02*
X-8500000Y6600000D01*
X-22500000Y2300000D02*
X-22500000Y1400000D01*
D35*
G04 #@! TO.N,VCC1V0*
X9600000Y-5300000D03*
G04 #@! TO.N,P28_1V8*
X10017000Y11042000D03*
D36*
X21122000Y23442000D02*
X21122000Y24800000D01*
X10666000Y13550000D02*
X10666000Y12698000D01*
X19480000Y21800000D02*
X21122000Y23442000D01*
X10666000Y13550000D02*
X18916000Y21800000D01*
X10666000Y13550000D02*
X10666000Y13589000D01*
X10017000Y11042000D02*
X10017000Y12049000D01*
X18916000Y21800000D02*
X19480000Y21800000D01*
X10017000Y12049000D02*
X10666000Y12698000D01*
D35*
G04 #@! TO.N,P70_1V8*
X-9500000Y6524000D03*
D36*
X-10200000Y7000000D02*
X-10400000Y7200000D01*
X-20900000Y300000D02*
X-21200000Y0D01*
X-25051000Y-1750000D02*
X-26084000Y-1750000D01*
X-20050000Y5600000D02*
X-20050000Y5650000D01*
X-9500000Y6524000D02*
X-9724000Y6524000D01*
X-18700000Y7800000D02*
X-20050000Y6450000D01*
X-21200000Y0D02*
X-21200000Y-500000D01*
X-20050000Y2570000D02*
X-20050000Y1150000D01*
X-22000000Y-1750000D02*
X-25051000Y-1750000D01*
X-26084000Y-1750000D02*
X-27344000Y-3010000D01*
X-20050000Y5600000D02*
X-20050000Y6450000D01*
X-10500000Y7300000D02*
X-12500000Y7300000D01*
X-21200000Y-950000D02*
X-22000000Y-1750000D01*
X-10200000Y7000000D02*
X-10500000Y7300000D01*
X-25051000Y-1750000D02*
X-25244000Y-1750000D01*
X-21200000Y-500000D02*
X-21200000Y-950000D01*
X-20050000Y5600000D02*
X-20050000Y2570000D01*
X-10200000Y7000000D02*
X-9724000Y6524000D01*
X-20050000Y1150000D02*
X-20900000Y300000D01*
X-20050000Y5600000D02*
X-20050000Y5650000D01*
X-12500000Y7300000D02*
X-13000000Y7800000D01*
X-13000000Y7800000D02*
X-18700000Y7800000D01*
D35*
G04 #@! TO.N,VCC1V0*
X2975000Y-11800000D03*
G04 #@! TO.N,GND*
X-14200000Y2700000D03*
G04 #@! TO.N,VCC1V8*
X-6000000Y14700000D03*
G04 #@! TO.N,VCC3V3*
X10497000Y3528000D03*
D36*
X11457000Y3528000D02*
X10497000Y3528000D01*
D35*
G04 #@! TO.N,GND*
X2125000Y5300000D03*
G04 #@! TO.N,VCC1V8*
X-7000000Y14700000D03*
G04 #@! TO.N,GND*
X-8400000Y-5525000D03*
G04 #@! TO.N,P36_1V8*
X3017000Y9042000D03*
D36*
X-200000Y19567000D02*
X-816500Y20183500D01*
X-816500Y20183500D02*
X-2695000Y22062000D01*
X3017000Y9042000D02*
X-200000Y12259000D01*
X-200000Y12259000D02*
X-200000Y13900000D01*
X-7183000Y22062000D02*
X-8035000Y22914000D01*
X-200000Y13900000D02*
X-200000Y19567000D01*
X-2695000Y22062000D02*
X-7183000Y22062000D01*
X-8035000Y22914000D02*
X-8035000Y26017000D01*
X-8035000Y26017000D02*
X-9358000Y27340000D01*
D35*
G04 #@! TO.N,VCC1V0*
X-8000000Y-9525000D03*
G04 #@! TO.N,PGOOD1*
X-5700000Y-3800000D03*
G04 #@! TO.N,GND*
X-7168028Y3947000D03*
X7700000Y-10472000D03*
G04 #@! TO.N,VCC3V3*
X5825000Y-5776000D03*
G04 #@! TO.N,GND*
X7575000Y-5776000D03*
G04 #@! TO.N,VCC1V8*
X-2500000Y1000000D03*
G04 #@! TO.N,VCC1V0*
X-16948000Y-11056000D03*
G04 #@! TO.N,GND*
X12300000Y-7700000D03*
G04 #@! TO.N,SW2*
X-7000000Y-1025000D03*
G04 #@! TO.N,VCC1V0*
X14100000Y-5300000D03*
G04 #@! TO.N,MODE/SYNC/1.8V*
X-4993000Y4261000D03*
G04 #@! TO.N,VCC1V0*
X11400000Y-5300000D03*
G04 #@! TO.N,VCC1V8*
X7500000Y12524000D03*
G04 #@! TO.N,ITH2*
X-15400000Y300000D03*
G04 #@! TO.N,VFB1*
X-15405000Y-6825000D03*
G04 #@! TO.N,P59_1V8*
X-9500000Y9525000D03*
D36*
X-24707000Y5950000D02*
X-23600000Y5950000D01*
X-10137500Y10162500D02*
X-9500000Y9525000D01*
X-10137500Y10162500D02*
X-10975000Y11000000D01*
X-17800000Y11000000D02*
X-18550000Y11000000D01*
X-10975000Y11000000D02*
X-17800000Y11000000D01*
X-19250000Y10300000D02*
X-20550000Y9000000D01*
X-26004000Y5950000D02*
X-27344000Y4610000D01*
X-10137500Y10162500D02*
X-10275000Y10300000D01*
X-20550000Y9000000D02*
X-23600000Y5950000D01*
X-24707000Y5950000D02*
X-26004000Y5950000D01*
X-18550000Y11000000D02*
X-19250000Y10300000D01*
D35*
G04 #@! TO.N,GND*
X-8500000Y-14225000D03*
X7575000Y-5176000D03*
X3499000Y-4675000D03*
X-1300000Y524000D03*
X7701000Y-471000D03*
D36*
G04 #@! TO.N,PGOOD*
X-8599000Y5561000D02*
X-7670000Y6490000D01*
X-9213028Y5561000D02*
X-8599000Y5561000D01*
D35*
G04 #@! TO.N,INIT_B*
X-3018000Y-4993000D03*
D36*
X-4218000Y-8700000D02*
X-4218000Y-9200000D01*
X-4218000Y-8618000D02*
X-4218000Y-8700000D01*
X-4218000Y-9200000D02*
X-4218000Y-9146000D01*
X-4218000Y-12020000D02*
X-4218000Y-13138000D01*
X-3018000Y-7218000D02*
X-3018000Y-7418000D01*
X-3018000Y-4993000D02*
X-3018000Y-7218000D01*
X-4218000Y-13138000D02*
X-2818000Y-14538000D01*
X-3900000Y-8300000D02*
X-4218000Y-8618000D01*
X-4218000Y-9200000D02*
X-4218000Y-12020000D01*
X-3018000Y-7418000D02*
X-3900000Y-8300000D01*
D35*
G04 #@! TO.N,INTVCC*
X-2617000Y5959000D03*
G04 #@! TO.N,GND*
X9600000Y-6100000D03*
D34*
X-13591028Y-5905000D03*
D35*
G04 #@! TO.N,VCC1V8*
X-4500000Y-3475000D03*
G04 #@! TO.N,P16_3V3*
X14228000Y-994000D03*
D36*
X16940000Y5390000D02*
X22300000Y10750000D01*
X22300000Y10750000D02*
X23550000Y10750000D01*
X16940000Y1718000D02*
X16940000Y5390000D01*
X23550000Y10750000D02*
X29470000Y10750000D01*
X14228000Y-994000D02*
X16940000Y1718000D01*
X29470000Y10750000D02*
X30530000Y9690000D01*
D35*
G04 #@! TO.N,+5V*
X-9855000Y-5525000D03*
D37*
X-9855000Y-5525000D02*
X-9855000Y-6174972D01*
D36*
X-9855000Y-6174972D02*
X-9855028Y-6175000D01*
D35*
G04 #@! TO.N,VCC3V3*
X8501000Y-471000D03*
G04 #@! TO.N,GND*
X-7138028Y4557000D03*
X-6393000Y6771000D03*
G04 #@! TO.N,VCC1V0*
X10500000Y-5300000D03*
D34*
G04 #@! TO.N,GND*
X-12621028Y-1955000D03*
D35*
G04 #@! TO.N,P57_3V3*
X13958000Y-8994000D03*
D36*
X17650000Y-10300000D02*
X22800000Y-10300000D01*
X22800000Y-10300000D02*
X23800000Y-9300000D01*
X30650000Y-9300000D02*
X31740000Y-9300000D01*
X16950000Y-9600000D02*
X17650000Y-10300000D01*
X13958000Y-8994000D02*
X14564000Y-9600000D01*
X14564000Y-9600000D02*
X16950000Y-9600000D01*
X31740000Y-9300000D02*
X33070000Y-10630000D01*
X30650000Y-9300000D02*
X23800000Y-9300000D01*
D35*
G04 #@! TO.N,GND*
X9917000Y1242000D03*
X-18300000Y-1025000D03*
G04 #@! TO.N,P65_1V8*
X-7500000Y8524000D03*
D36*
X-23629000Y5700000D02*
X-23300000Y5700000D01*
X-17600000Y10600000D02*
X-18400000Y10600000D01*
X-11000000Y10300000D02*
X-11300000Y10600000D01*
X-11000000Y9800000D02*
X-10200000Y9000000D01*
X-7500000Y8524000D02*
X-7976000Y9000000D01*
X-11300000Y10600000D02*
X-17600000Y10600000D01*
X-7976000Y9000000D02*
X-10200000Y9000000D01*
X-19100000Y9900000D02*
X-23300000Y5700000D01*
X-11000000Y10300000D02*
X-11000000Y9800000D01*
X-18400000Y10600000D02*
X-19100000Y9900000D01*
X-23714000Y5700000D02*
X-24804000Y4610000D01*
X-23629000Y5700000D02*
X-23714000Y5700000D01*
D35*
G04 #@! TO.N,VCC1V0*
X-2501000Y4525000D03*
X15000000Y-6900000D03*
G04 #@! TO.N,VCC1V8*
X8125000Y8524000D03*
G04 #@! TO.N,FB*
X-5593000Y6771000D03*
G04 #@! TO.N,GND*
X12301000Y524000D03*
G04 #@! TO.N,VCC1V8*
X-11499000Y9522000D03*
G04 #@! TO.N,GND*
X-18270000Y-11503000D03*
X2125000Y4700000D03*
G04 #@! TO.N,P18_3V3*
X15768000Y-994000D03*
D36*
X15768000Y-994000D02*
X17900000Y1138000D01*
X17900000Y1138000D02*
X17900000Y2900000D01*
X23200000Y8200000D02*
X29480000Y8200000D01*
X29480000Y8200000D02*
X30530000Y7150000D01*
X17900000Y2900000D02*
X23200000Y8200000D01*
D35*
G04 #@! TO.N,VCC3V3*
X14097000Y-13514000D03*
G04 #@! TO.N,GND*
X-2775000Y-11800000D03*
X14100000Y-6100000D03*
G04 #@! TO.N,P55_3V3*
X14728000Y-9994000D03*
D36*
X30030000Y-11800000D02*
X16534000Y-11800000D01*
X30030000Y-11800000D02*
X31700000Y-11800000D01*
X14728000Y-9994000D02*
X16534000Y-11800000D01*
X31700000Y-11800000D02*
X33070000Y-13170000D01*
D35*
G04 #@! TO.N,GND*
X-6300000Y10600000D03*
G04 #@! TO.N,VCC1V0*
X-500000Y-5480000D03*
D34*
G04 #@! TO.N,GND*
X-12621028Y-4589000D03*
D35*
X-9618000Y1749000D03*
G04 #@! TO.N,D2*
X500000Y-475000D03*
X1018000Y-22282000D03*
D36*
X0Y-2100000D02*
X0Y-975000D01*
X100000Y-15518000D02*
X391000Y-15809000D01*
X800000Y-6227000D02*
X100000Y-6927000D01*
X800000Y-4100000D02*
X800000Y-6227000D01*
X100000Y-7600000D02*
X100000Y-15518000D01*
X0Y-2200000D02*
X800000Y-3000000D01*
X1592000Y-21134000D02*
X1592000Y-21708000D01*
X0Y-2100000D02*
X0Y-2200000D01*
X1592000Y-17010000D02*
X1592000Y-21134000D01*
X500000Y-475000D02*
X0Y-975000D01*
X391000Y-15809000D02*
X1028000Y-16446000D01*
X800000Y-3300000D02*
X800000Y-4100000D01*
X800000Y-3300000D02*
X800000Y-3000000D01*
X1592000Y-21708000D02*
X1018000Y-22282000D01*
X100000Y-6927000D02*
X100000Y-7600000D01*
X1028000Y-16446000D02*
X1592000Y-17010000D01*
G04 #@! TO.N,PHMODE*
X-13180000Y-8020000D02*
X-12735000Y-8465000D01*
X-14200000Y-7000000D02*
X-13180000Y-8020000D01*
X-14575000Y-5525000D02*
X-14400000Y-5700000D01*
X-13180000Y-8020000D02*
X-13180000Y-8100000D01*
X-12735000Y-8465000D02*
X-12735000Y-9625000D01*
X-15405028Y-5525000D02*
X-14575000Y-5525000D01*
X-14400000Y-5700000D02*
X-14400000Y-6800000D01*
X-14400000Y-6800000D02*
X-14200000Y-7000000D01*
G04 #@! TO.N,PGOOD*
X-9213000Y5561000D02*
X-9439000Y5561000D01*
X-13300000Y400000D02*
X-13400000Y300000D01*
X-9700000Y5300000D02*
X-9900000Y5100000D01*
X-10500000Y4500000D02*
X-10500000Y1700000D01*
X-13400000Y300000D02*
X-14400000Y-700000D01*
X-11800000Y400000D02*
X-13300000Y400000D01*
X-14400000Y-2600000D02*
X-14400000Y-700000D01*
X-10500000Y1700000D02*
X-11800000Y400000D01*
X-9900000Y5100000D02*
X-10500000Y4500000D01*
X-15405028Y-2925000D02*
X-14725000Y-2925000D01*
X-14725000Y-2925000D02*
X-14400000Y-2600000D01*
X-9439000Y5561000D02*
X-9700000Y5300000D01*
D35*
G04 #@! TO.N,GND*
X5499000Y-2275000D03*
G04 #@! TO.N,VCC3V3*
X12500000Y-12475000D03*
G04 #@! TO.N,INT3V3*
X-8400000Y-4075000D03*
G04 #@! TO.N,SW*
X-11602000Y3314000D03*
G04 #@! TO.N,GND*
X-16295000Y1975000D03*
D34*
X-13591028Y-3273000D03*
D35*
G04 #@! TO.N,VCC3V3*
X11665000Y7674000D03*
G04 #@! TO.N,VCC1V0*
X10500000Y-6900000D03*
G04 #@! TO.N,P52_3V3*
X6500000Y-10476000D03*
D36*
X7900000Y-11000000D02*
X7024000Y-11000000D01*
X6500000Y-10476000D02*
X7024000Y-11000000D01*
X28240000Y-14600000D02*
X11500000Y-14600000D01*
X7900000Y-11000000D02*
X11500000Y-14600000D01*
X28240000Y-14600000D02*
X29420000Y-14600000D01*
X29420000Y-14600000D02*
X30530000Y-15710000D01*
D35*
G04 #@! TO.N,P68_1V8*
X-9500000Y7524000D03*
D36*
X-20700000Y6300000D02*
X-20700000Y6700000D01*
X-9500000Y7524000D02*
X-10018000Y8042000D01*
X-19100000Y8300000D02*
X-20700000Y6700000D01*
X-18400000Y8600000D02*
X-18800000Y8600000D01*
X-10700000Y8042000D02*
X-10942000Y8042000D01*
X-20700000Y5200000D02*
X-20700000Y6300000D01*
X-23000000Y1800000D02*
X-23900000Y900000D01*
X-18800000Y8600000D02*
X-19100000Y8300000D01*
X-23000000Y2400000D02*
X-23000000Y1800000D01*
X-25208000Y900000D02*
X-25974000Y900000D01*
X-10700000Y8042000D02*
X-10018000Y8042000D01*
X-25974000Y900000D02*
X-27344000Y-470000D01*
X-10942000Y8042000D02*
X-11500000Y8600000D01*
X-10700000Y8042000D02*
X-10925000Y8042000D01*
X-23000000Y2900000D02*
X-23000000Y2400000D01*
X-18400000Y8600000D02*
X-11500000Y8600000D01*
X-20700000Y5200000D02*
X-23000000Y2900000D01*
X-23900000Y900000D02*
X-25208000Y900000D01*
D35*
G04 #@! TO.N,GND*
X-6644028Y5197000D03*
G04 #@! TO.N,VCC3V3*
X5809000Y2564000D03*
G04 #@! TO.N,GND*
X-7300000Y2500000D03*
G04 #@! TO.N,P12_3V3*
X9500000Y524000D03*
D36*
X13500000Y50000D02*
X15900000Y2450000D01*
X29490000Y13270000D02*
X30530000Y12230000D01*
X23130000Y12980000D02*
X15900000Y5750000D01*
X23130000Y12980000D02*
X23420000Y13270000D01*
X9500000Y524000D02*
X9974000Y50000D01*
X15900000Y2450000D02*
X15900000Y5750000D01*
X9974000Y50000D02*
X13500000Y50000D01*
X23420000Y13270000D02*
X29490000Y13270000D01*
D35*
G04 #@! TO.N,+5V*
X-7063000Y-5641000D03*
G04 #@! TO.N,VCC1V8*
X-5000000Y14700000D03*
G04 #@! TO.N,FB*
X-4953000Y7920000D03*
G04 #@! TO.N,GND*
X300000Y-5480000D03*
G04 #@! TO.N,VFB2*
X-15655000Y3735000D03*
G04 #@! TO.N,P17_3V3*
X14998000Y-994000D03*
D36*
X17400000Y1408000D02*
X17400000Y3200000D01*
X17400000Y3200000D02*
X22750000Y8550000D01*
X22750000Y8550000D02*
X27200000Y8550000D01*
X31670000Y8550000D02*
X33070000Y7150000D01*
X14998000Y-994000D02*
X17400000Y1408000D01*
X27200000Y8550000D02*
X31670000Y8550000D01*
D35*
G04 #@! TO.N,GND*
X-7000000Y13900000D03*
G04 #@! TO.N,INTVCC*
X-3400000Y5390000D03*
D36*
X-3400000Y6000000D02*
X-3400000Y5390000D01*
D35*
G04 #@! TO.N,GND*
X-19670000Y-11503000D03*
G04 #@! TO.N,+5V*
X-19934000Y-5605000D03*
G04 #@! TO.N,GND*
X10500000Y-6100000D03*
G04 #@! TO.N,VCC1V0*
X-8500000Y-12775000D03*
X-1499000Y-4476000D03*
G04 #@! TO.N,VCC1V8*
X5200000Y8427000D03*
G04 #@! TO.N,GND*
X-5613000Y-5641000D03*
G04 #@! TO.N,VCC3V3*
X5501000Y-11476000D03*
G04 #@! TO.N,PGOOD1*
X-10900000Y-3800000D03*
D36*
X-9213028Y4911000D02*
X-8631000Y4911000D01*
X-10470000Y1050000D02*
X-9556000Y1050000D01*
X-8981000Y1320000D02*
X-8981000Y2539000D01*
X-8440000Y4720000D02*
X-8440000Y3080000D01*
X-9251000Y1050000D02*
X-8981000Y1320000D01*
X-10900000Y-3800000D02*
X-10900000Y-700000D01*
X-10900000Y620000D02*
X-10470000Y1050000D01*
X-9556000Y1050000D02*
X-9251000Y1050000D01*
X-8981000Y2539000D02*
X-8440000Y3080000D01*
X-10900000Y620000D02*
X-10900000Y-700000D01*
X-8631000Y4911000D02*
X-8440000Y4720000D01*
D35*
G04 #@! TO.N,P60_1V8*
X-8500000Y9525000D03*
D36*
X-17800000Y15860000D02*
X-22798000Y15860000D01*
X-10900000Y11470000D02*
X-11000000Y11470000D01*
X-14340000Y12400000D02*
X-17800000Y15860000D01*
X-10445000Y11470000D02*
X-10900000Y11470000D01*
X-22798000Y15860000D02*
X-23714000Y15860000D01*
X-23714000Y15860000D02*
X-24804000Y14770000D01*
X-13600000Y12400000D02*
X-14340000Y12400000D01*
X-8500000Y9525000D02*
X-10445000Y11470000D01*
X-11000000Y11470000D02*
X-11630000Y11470000D01*
X-11000000Y11470000D02*
X-12670000Y11470000D01*
X-12670000Y11470000D02*
X-13600000Y12400000D01*
D35*
G04 #@! TO.N,P34_3V3*
X8500000Y-2476000D03*
D36*
X22272000Y581000D02*
X22650000Y959000D01*
X31440000Y959000D02*
X31641000Y959000D01*
X31440000Y959000D02*
X22650000Y959000D01*
X8500000Y-2476000D02*
X8683000Y-2659000D01*
X18920000Y-2659000D02*
X19032000Y-2659000D01*
X19032000Y-2659000D02*
X22272000Y581000D01*
X31641000Y959000D02*
X33070000Y-470000D01*
X8683000Y-2659000D02*
X18920000Y-2659000D01*
D34*
G04 #@! TO.N,GND*
X-13591028Y-4589000D03*
D35*
G04 #@! TO.N,P72_1V8*
X-9018000Y8042000D03*
D36*
X-23729000Y3150000D02*
X-23729000Y3145000D01*
X-23729000Y3145000D02*
X-24804000Y2070000D01*
X-9342000Y8042000D02*
X-9700000Y8400000D01*
X-9700000Y8400000D02*
X-10500000Y8400000D01*
X-10500000Y8400000D02*
X-10900000Y8800000D01*
X-21050000Y6750000D02*
X-21050000Y5450000D01*
X-9018000Y8042000D02*
X-9342000Y8042000D01*
X-18800000Y9000000D02*
X-20700000Y7100000D01*
X-10900000Y8800000D02*
X-11100000Y9000000D01*
X-21050000Y5450000D02*
X-23350000Y3150000D01*
X-20700000Y7100000D02*
X-21050000Y6750000D01*
X-23729000Y3150000D02*
X-23350000Y3150000D01*
X-11100000Y9000000D02*
X-18400000Y9000000D01*
X-18400000Y9000000D02*
X-18800000Y9000000D01*
D35*
G04 #@! TO.N,P40_1V8*
X4500000Y7524000D03*
D36*
X4500000Y9100000D02*
X3900000Y9700000D01*
X4500000Y7524000D02*
X4500000Y9100000D01*
X-4278000Y23837000D02*
X-4278000Y24800000D01*
X700000Y12900000D02*
X700000Y13600000D01*
X-1684000Y22370000D02*
X-2033000Y22719000D01*
X700000Y13600000D02*
X700000Y19986000D01*
X-3160000Y22719000D02*
X-4278000Y23837000D01*
X700000Y19986000D02*
X443000Y20243000D01*
X-3160000Y22719000D02*
X-2033000Y22719000D01*
X3900000Y9700000D02*
X700000Y12900000D01*
X443000Y20243000D02*
X-1684000Y22370000D01*
D35*
G04 #@! TO.N,P37_1V8*
X4017000Y9042000D03*
D36*
X-4844000Y22497000D02*
X-4930000Y22497000D01*
X400000Y13200000D02*
X400000Y19786000D01*
X400000Y12659000D02*
X400000Y13200000D01*
X-5530000Y26052000D02*
X-6818000Y27340000D01*
X-1889000Y22075000D02*
X-2311000Y22497000D01*
X4017000Y9042000D02*
X400000Y12659000D01*
X400000Y19786000D02*
X-7000Y20193000D01*
X-5530000Y24860000D02*
X-5530000Y26052000D01*
X-2311000Y22497000D02*
X-4844000Y22497000D01*
X-5530000Y23097000D02*
X-5530000Y24860000D01*
X-4930000Y22497000D02*
X-5530000Y23097000D01*
X-7000Y20193000D02*
X-1889000Y22075000D01*
G04 #@! TO.N,RT*
X-18100000Y-3300000D02*
X-16300000Y-3300000D01*
X-16025000Y-3575000D02*
X-16300000Y-3300000D01*
X-18100000Y-3300000D02*
X-18480000Y-3680000D01*
X-18480000Y-3680000D02*
X-18560000Y-4055000D01*
X-15405028Y-3575000D02*
X-16025000Y-3575000D01*
D35*
G04 #@! TO.N,P41_1V8*
X2500000Y6524000D03*
D36*
X1032000Y6524000D02*
X-740000Y6524000D01*
X-2000000Y13850000D02*
X-4650000Y16500000D01*
X-1783000Y9820000D02*
X-1783000Y13633000D01*
X1032000Y6524000D02*
X723000Y6524000D01*
X-1502000Y9539000D02*
X-1783000Y9820000D01*
X-11247000Y19595000D02*
X-14438000Y22786000D01*
X1032000Y6524000D02*
X2500000Y6524000D01*
X-740000Y6524000D02*
X-1502000Y7286000D01*
X-8000000Y19595000D02*
X-11247000Y19595000D01*
X-4650000Y16500000D02*
X-7745000Y19595000D01*
X-1502000Y7286000D02*
X-1502000Y9539000D01*
X-1783000Y13633000D02*
X-2000000Y13850000D01*
X-7745000Y19595000D02*
X-8000000Y19595000D01*
X-14438000Y22786000D02*
X-14438000Y24800000D01*
D35*
G04 #@! TO.N,VCC3V3*
X-18520000Y6385000D03*
G04 #@! TO.N,P15_1V8*
X7500000Y10525000D03*
D36*
X8886000Y11813000D02*
X9649000Y12576000D01*
X16816500Y21127500D02*
X9649000Y13960000D01*
X16816500Y21127500D02*
X16873000Y21184000D01*
X9649000Y12576000D02*
X9649000Y13960000D01*
X7500000Y10525000D02*
X7500000Y11061000D01*
X18582000Y22893000D02*
X18582000Y24800000D01*
X16873000Y21184000D02*
X18582000Y22893000D01*
X8774000Y11701000D02*
X8886000Y11813000D01*
X7500000Y11061000D02*
X8140000Y11701000D01*
X8140000Y11701000D02*
X8774000Y11701000D01*
D35*
G04 #@! TO.N,VCC1V8*
X-9618000Y2549000D03*
G04 #@! TO.N,GND*
X-4500000Y-2675000D03*
G04 #@! TO.N,VFB1*
X-15377000Y-13714000D03*
G04 #@! TO.N,VCC3V3*
X-6300000Y12400000D03*
G04 #@! TO.N,D3*
X-2982000Y-24500000D03*
X500000Y524000D03*
D36*
X4200000Y-6200000D02*
X4200000Y-3841000D01*
X4000000Y-9000000D02*
X4000000Y-8100000D01*
X4144000Y-17730000D02*
X4144000Y-9144000D01*
X4144000Y-17730000D02*
X4144000Y-21856000D01*
X3800000Y-6600000D02*
X4200000Y-6200000D01*
X500000Y524000D02*
X913000Y111000D01*
X4144000Y-9144000D02*
X4000000Y-9000000D01*
X4000000Y-8100000D02*
X3800000Y-7900000D01*
X3365000Y-2259000D02*
X3365000Y-3006000D01*
X4144000Y-21856000D02*
X3000000Y-23000000D01*
X-1482000Y-23000000D02*
X-2982000Y-24500000D01*
X4200000Y-3841000D02*
X4144000Y-3785000D01*
X913000Y111000D02*
X3365000Y-2341000D01*
X3800000Y-7900000D02*
X3800000Y-6600000D01*
X3927000Y-3568000D02*
X4144000Y-3785000D01*
X3365000Y-3006000D02*
X3365000Y-2341000D01*
X3000000Y-23000000D02*
X-1482000Y-23000000D01*
X3365000Y-3006000D02*
X3927000Y-3568000D01*
D35*
G04 #@! TO.N,P54_3V3*
X15498000Y-9994000D03*
D36*
X29500000Y-9600000D02*
X30530000Y-10630000D01*
X16104000Y-10600000D02*
X23000000Y-10600000D01*
X28540000Y-9600000D02*
X29500000Y-9600000D01*
X23000000Y-10600000D02*
X24000000Y-9600000D01*
X15498000Y-9994000D02*
X16104000Y-10600000D01*
X28540000Y-9600000D02*
X24000000Y-9600000D01*
D35*
G04 #@! TO.N,VCC1V8*
X-19670000Y-10003000D03*
G04 #@! TO.N,VCC3V3*
X-2700000Y12200000D03*
G04 #@! TO.N,GND*
X-16948000Y-12387000D03*
G04 #@! TO.N,MODE/SYNC/1.8V*
X-3400000Y6975000D03*
D36*
X-3400000Y6400000D02*
X-3400000Y6975000D01*
D35*
G04 #@! TO.N,GND*
X-5300000Y524000D03*
X-2325000Y7600000D03*
D36*
X-2325000Y7600000D02*
X-2900000Y7600000D01*
D35*
G04 #@! TO.N,P51_3V3*
X14728000Y-8994000D03*
D36*
X31730000Y-6750000D02*
X33070000Y-8090000D01*
X14728000Y-8994000D02*
X16972000Y-6750000D01*
X30700000Y-6750000D02*
X16972000Y-6750000D01*
X30700000Y-6750000D02*
X31730000Y-6750000D01*
D34*
G04 #@! TO.N,GND*
X-12621028Y-3273000D03*
D35*
X-2700000Y10800000D03*
G04 #@! TO.N,+5V*
X-14088000Y5461000D03*
G04 #@! TO.N,VCC1V8*
X-8100000Y2500000D03*
G04 #@! TO.N,CLK_27MHZ*
X6500000Y8524000D03*
G04 #@! TO.N,CLK_29.5MHZ_RSET*
X11665000Y5724000D03*
G04 #@! TO.N,VCC1V8*
X-21270000Y-10103000D03*
G04 #@! TO.N,VCC1V0*
X-16827000Y-13714000D03*
G04 #@! TO.N,VCC3V3*
X8500000Y-10472000D03*
G04 #@! TO.N,GND*
X-10500000Y-14375000D03*
G04 #@! TO.N,P13_3V3*
X7017000Y3042000D03*
D36*
X23260000Y18560000D02*
X30080000Y18560000D01*
X13555000Y6682000D02*
X14332000Y6682000D01*
X7017000Y4917000D02*
X7017000Y5717000D01*
X14332000Y6682000D02*
X14438000Y6788000D01*
X31820000Y18560000D02*
X33070000Y17310000D01*
X9503000Y6682000D02*
X13555000Y6682000D01*
X22400000Y17700000D02*
X23260000Y18560000D01*
X7677000Y6377000D02*
X8471000Y6377000D01*
X16550000Y8900000D02*
X21400000Y13750000D01*
X9198000Y6377000D02*
X9503000Y6682000D01*
X7017000Y3042000D02*
X7017000Y4917000D01*
X30080000Y18560000D02*
X31820000Y18560000D01*
X21400000Y13750000D02*
X21400000Y16700000D01*
X7500000Y6200000D02*
X7677000Y6377000D01*
X21400000Y16700000D02*
X22400000Y17700000D01*
X8471000Y6377000D02*
X9198000Y6377000D01*
X7017000Y5717000D02*
X7500000Y6200000D01*
X14438000Y6788000D02*
X16550000Y8900000D01*
D35*
G04 #@! TO.N,GND*
X-2701000Y3525000D03*
G04 #@! TO.N,P14_3V3*
X6497000Y1522000D03*
D36*
X13060000Y2490000D02*
X13490000Y2490000D01*
X15300000Y6710000D02*
X22650000Y14060000D01*
X13060000Y2490000D02*
X8770000Y2490000D01*
X6497000Y1522000D02*
X7465000Y2490000D01*
X29920000Y16190000D02*
X31650000Y16190000D01*
X22650000Y14060000D02*
X22650000Y15230000D01*
X13490000Y2490000D02*
X14490000Y3490000D01*
X14490000Y5900000D02*
X15300000Y6710000D01*
X7465000Y2490000D02*
X8770000Y2490000D01*
X22650000Y15230000D02*
X23610000Y16190000D01*
X14490000Y3490000D02*
X14490000Y5900000D01*
X23610000Y16190000D02*
X29920000Y16190000D01*
X31650000Y16190000D02*
X33070000Y14770000D01*
D35*
G04 #@! TO.N,GND*
X13200000Y-6100000D03*
D37*
G04 #@! TO.N,INT3V3*
X-9855028Y-3575000D02*
X-9855028Y-4225000D01*
D35*
G04 #@! TO.N,GND*
X-1701000Y4525000D03*
X15000000Y-7700000D03*
G04 #@! TO.N,VCC1V0*
X-1476000Y3500000D03*
D36*
G04 #@! TO.N,TRACKSS1*
X-14000000Y-9800000D02*
X-14000000Y-8200000D01*
X-15405028Y-7475000D02*
X-14725000Y-7475000D01*
X-14725000Y-7475000D02*
X-14000000Y-8200000D01*
D35*
G04 #@! TO.N,VCC3V3*
X11501000Y524000D03*
G04 #@! TO.N,VCC1V8*
X-10500000Y6524000D03*
G04 #@! TO.N,GND*
X8892000Y5812000D03*
X-6943000Y-2489000D03*
X13200000Y-7700000D03*
G04 #@! TO.N,BOOST2*
X-5600000Y-2525000D03*
G04 #@! TO.N,VCC1V0*
X-500000Y524000D03*
G04 #@! TO.N,GND*
X6697000Y-7472000D03*
G04 #@! TO.N,VCC1V8*
X-11300000Y-10600000D03*
G04 #@! TO.N,GND*
X-18325000Y800000D03*
G04 #@! TO.N,VCC3V3*
X-1718000Y-13938000D03*
D36*
X-2318000Y-14538000D02*
X-1718000Y-13938000D01*
X-2418000Y-14538000D02*
X-2318000Y-14538000D01*
D35*
G04 #@! TO.N,INTVCC*
X-3614000Y4911000D03*
D36*
X-7270000Y6490000D02*
X-6680000Y5900000D01*
X-5900000Y5700000D02*
X-5900000Y5200000D01*
X-3614000Y4911000D02*
X-4014000Y4911000D01*
X-4993028Y4911000D02*
X-4014000Y4911000D01*
X-6600000Y5900000D02*
X-6100000Y5900000D01*
X-5900000Y5200000D02*
X-5611000Y4911000D01*
X-6100000Y5900000D02*
X-5900000Y5700000D01*
X-6680000Y5900000D02*
X-6600000Y5900000D01*
X-5611000Y4911000D02*
X-4993028Y4911000D01*
D37*
G04 #@! TO.N,+5V*
X-9855028Y-2275000D02*
X-9855028Y-1625000D01*
D35*
G04 #@! TO.N,GND*
X12257000Y3528000D03*
G04 #@! TO.N,VCC1V0*
X-3500000Y1525000D03*
G04 #@! TO.N,GND*
X8500000Y10325000D03*
G04 #@! TO.N,FB*
X-5593000Y2503000D03*
G04 #@! TO.N,P38_1V8*
X5017000Y9042000D03*
D36*
X-3020000Y23554000D02*
X-3020000Y25330000D01*
X-1801000Y22959000D02*
X-2425000Y22959000D01*
X1000000Y13400000D02*
X1000000Y20158000D01*
X5017000Y9042000D02*
X1000000Y13059000D01*
X-3020000Y25330000D02*
X-3020000Y26082000D01*
X-3020000Y26082000D02*
X-4278000Y27340000D01*
X1000000Y20158000D02*
X829000Y20329000D01*
X829000Y20329000D02*
X-1801000Y22959000D01*
X1000000Y13059000D02*
X1000000Y13400000D01*
X-2425000Y22959000D02*
X-3020000Y23554000D01*
D35*
G04 #@! TO.N,VCC1V8*
X8499000Y9522000D03*
X-4500000Y524000D03*
G04 #@! TO.N,GND*
X-17000000Y-6700000D03*
G04 #@! TO.N,SW2*
X-8000000Y-1025000D03*
D34*
G04 #@! TO.N,GND*
X-12621028Y-5905000D03*
D35*
G04 #@! TO.N,P35_1V8*
X1500000Y7525000D03*
D36*
X-9358000Y23200000D02*
X-9358000Y24800000D01*
X-745000Y9879000D02*
X-1032000Y10166000D01*
X-1032000Y10166000D02*
X-1032000Y13909000D01*
X1500000Y7525000D02*
X-438000Y7525000D01*
X-9358000Y23200000D02*
X-9358000Y22620000D01*
X-1261500Y14138500D02*
X-7723000Y20600000D01*
X-745000Y7832000D02*
X-745000Y9879000D01*
X-7723000Y20600000D02*
X-9358000Y22235000D01*
X-9358000Y22235000D02*
X-9358000Y23200000D01*
X-1261500Y14138500D02*
X-1032000Y13909000D01*
X-1261500Y14138500D02*
X-1273000Y14150000D01*
X-438000Y7525000D02*
X-745000Y7832000D01*
D35*
G04 #@! TO.N,FB*
X-4707000Y9239000D03*
G04 #@! TO.N,GND*
X3901000Y3013000D03*
X-12299000Y9522000D03*
G04 #@! TO.N,VCC3V3*
X7497000Y-7472000D03*
G04 #@! TO.N,GND*
X-7164028Y5197000D03*
X5289000Y11524000D03*
X-3700000Y-1475000D03*
G04 #@! TO.N,CLK_3V3_29.5MHZ*
X7500000Y525000D03*
G04 #@! TO.N,GND*
X10700000Y10524000D03*
G04 #@! TO.N,VFB2*
X-15405000Y-975000D03*
G04 #@! TO.N,VCC1V8*
X2500000Y7525000D03*
X-12602000Y5564000D03*
G04 #@! TO.N,VCC3V3*
X8092000Y5812000D03*
G04 #@! TO.N,VCC1V8*
X-4000000Y14700000D03*
G04 #@! TO.N,P30_3V3*
X5500000Y524000D03*
D36*
X19778000Y-1369000D02*
X22203000Y1056000D01*
X9663000Y-1900000D02*
X10000000Y-2237000D01*
X10000000Y-2237000D02*
X12227000Y-2237000D01*
X28443000Y3141000D02*
X23373000Y3141000D01*
X9172000Y-114000D02*
X9663000Y-605000D01*
X22203000Y1971000D02*
X23373000Y3141000D01*
X9663000Y-605000D02*
X9663000Y-1900000D01*
X12359000Y-2369000D02*
X16083000Y-2369000D01*
X12227000Y-2237000D02*
X12359000Y-2369000D01*
X5995000Y29000D02*
X9029000Y29000D01*
X29459000Y3141000D02*
X30530000Y2070000D01*
X9172000Y-114000D02*
X9029000Y29000D01*
X22203000Y1056000D02*
X22203000Y1971000D01*
X28443000Y3141000D02*
X29459000Y3141000D01*
X9172000Y-114000D02*
X9258000Y-200000D01*
X16083000Y-2369000D02*
X18778000Y-2369000D01*
X5500000Y524000D02*
X5995000Y29000D01*
X18778000Y-2369000D02*
X19778000Y-1369000D01*
D35*
G04 #@! TO.N,GND*
X-2775000Y-11000000D03*
G04 #@! TO.N,+5V*
X-9213000Y4261000D03*
D36*
X-9213028Y4261000D02*
X-9213000Y4261000D01*
D35*
G04 #@! TO.N,P16_1V8*
X7500000Y11524000D03*
D36*
X17280000Y26038000D02*
X18582000Y27340000D01*
X7500000Y11524000D02*
X8012000Y12036000D01*
X16391000Y21235000D02*
X17280000Y22124000D01*
X17280000Y24110000D02*
X17280000Y26038000D01*
X17280000Y22124000D02*
X17280000Y24110000D01*
X8012000Y12036000D02*
X8572000Y12036000D01*
X16362000Y21206000D02*
X9433000Y14277000D01*
X8572000Y12036000D02*
X9203000Y12667000D01*
X16362000Y21206000D02*
X16391000Y21235000D01*
X9203000Y14047000D02*
X9433000Y14277000D01*
X9203000Y12667000D02*
X9203000Y14047000D01*
D35*
G04 #@! TO.N,GND*
X-17000000Y-7500000D03*
X-6000000Y13900000D03*
G04 #@! TO.N,P29_3V3*
X4500000Y524000D03*
D36*
X29480000Y-4500000D02*
X30530000Y-5550000D01*
X6612000Y-4500000D02*
X7100000Y-4500000D01*
X18350000Y-4500000D02*
X20650000Y-4500000D01*
X4558000Y-2446000D02*
X6612000Y-4500000D01*
X7100000Y-4500000D02*
X18350000Y-4500000D01*
X4500000Y524000D02*
X4998000Y26000D01*
X4558000Y-1267000D02*
X4558000Y-2446000D01*
X4998000Y26000D02*
X4998000Y-827000D01*
X20650000Y-4500000D02*
X29480000Y-4500000D01*
X4998000Y-827000D02*
X4558000Y-1267000D01*
D35*
G04 #@! TO.N,P39_1V8*
X3500000Y7524000D03*
D36*
X-2559000Y22304000D02*
X-5889000Y22304000D01*
X3500000Y9100000D02*
X400000Y12200000D01*
X400000Y12200000D02*
X100000Y12500000D01*
X-377500Y20122500D02*
X-2047000Y21792000D01*
X-2047000Y21792000D02*
X-2559000Y22304000D01*
X3500000Y7524000D02*
X3500000Y9100000D01*
X-5889000Y22304000D02*
X-6818000Y23233000D01*
X100000Y16100000D02*
X100000Y19645000D01*
X100000Y19645000D02*
X-377500Y20122500D01*
X100000Y12500000D02*
X100000Y16100000D01*
X-6818000Y23233000D02*
X-6818000Y24800000D01*
D35*
G04 #@! TO.N,GND*
X-6648028Y3947000D03*
D36*
X-6312028Y3611000D02*
X-6648028Y3947000D01*
X-4993028Y3611000D02*
X-6312028Y3611000D01*
D35*
G04 #@! TO.N,VCC1V8*
X-12500000Y12522000D03*
G04 #@! TO.N,MODE/SYNC/1.8V*
X-3875000Y7600000D03*
D36*
X-3300000Y7600000D02*
X-3875000Y7600000D01*
D35*
G04 #@! TO.N,VCC1V0*
X14100000Y-6900000D03*
G04 #@! TO.N,P46_3V3*
X7500000Y-11476000D03*
D36*
X11524000Y-15500000D02*
X20600000Y-15500000D01*
X31720000Y-16900000D02*
X33070000Y-18250000D01*
X20600000Y-15500000D02*
X22000000Y-16900000D01*
X29770000Y-16900000D02*
X26100000Y-16900000D01*
X7500000Y-11476000D02*
X11524000Y-15500000D01*
X29770000Y-16900000D02*
X31720000Y-16900000D01*
X22000000Y-16900000D02*
X26100000Y-16900000D01*
D35*
G04 #@! TO.N,VCC1V0*
X-1500000Y-2476000D03*
G04 #@! TO.N,VCC1V8*
X-7493000Y7523000D03*
G04 #@! TO.N,VCC1V0*
X-2499000Y2524000D03*
G04 #@! TO.N,VFB1*
X-15398000Y-11056000D03*
G04 #@! TO.N,GND*
X-8470000Y11307000D03*
G04 #@! TO.N,P31_3V3*
X5500000Y-475000D03*
D36*
X6099000Y-2107000D02*
X6863000Y-2871000D01*
X6099000Y-1074000D02*
X6099000Y-2107000D01*
X5500000Y-475000D02*
X6007000Y-982000D01*
X20800000Y-4200000D02*
X31720000Y-4200000D01*
X7654000Y-4200000D02*
X18000000Y-4200000D01*
X6863000Y-3600000D02*
X7463000Y-4200000D01*
X7463000Y-4200000D02*
X7654000Y-4200000D01*
X18000000Y-4200000D02*
X20800000Y-4200000D01*
X31720000Y-4200000D02*
X33070000Y-5550000D01*
X6863000Y-2871000D02*
X6863000Y-3600000D01*
X6007000Y-982000D02*
X6099000Y-1074000D01*
D35*
G04 #@! TO.N,VFB1*
X-15477000Y-9723000D03*
G04 #@! TO.N,VCC3V3*
X4499000Y-8472000D03*
G04 #@! TO.N,VCC1V0*
X-10500000Y-12625000D03*
X-12500000Y-12625000D03*
G04 #@! TO.N,VCC3V3*
X-21800000Y-2650000D03*
G04 #@! TO.N,P42_1V8*
X3500000Y6524000D03*
D36*
X810000Y7046000D02*
X771000Y7046000D01*
X-1115000Y7515000D02*
X-1115000Y9668000D01*
X-7523500Y19824500D02*
X-8100000Y19824500D01*
X-13062000Y22175000D02*
X-13160000Y22273000D01*
X-1379000Y13680000D02*
X-1725000Y14026000D01*
X-646000Y7046000D02*
X-1115000Y7515000D01*
X810000Y7046000D02*
X2979000Y7046000D01*
X-10711500Y19824500D02*
X-13062000Y22175000D01*
X810000Y7046000D02*
X-646000Y7046000D01*
X-13160000Y25130000D02*
X-13160000Y26062000D01*
X-1115000Y9668000D02*
X-1379000Y9932000D01*
X3500000Y6524000D02*
X2979000Y7045000D01*
X-8100000Y19824500D02*
X-10711500Y19824500D01*
X-1379000Y9932000D02*
X-1379000Y13680000D01*
X2979000Y7045000D02*
X2979000Y7046000D01*
X-13160000Y22273000D02*
X-13160000Y25130000D01*
X-1725000Y14026000D02*
X-7523500Y19824500D01*
X-13160000Y26062000D02*
X-14438000Y27340000D01*
D35*
G04 #@! TO.N,VCC1V8*
X-3157000Y9240000D03*
G04 #@! TO.N,GND*
X-9500000Y-10600000D03*
G04 #@! TO.N,VCC3V3*
X5825000Y-5176000D03*
G04 #@! TO.N,GND*
X11400000Y-7700000D03*
G04 #@! TO.N,VCC1V0*
X13200000Y-6900000D03*
G04 #@! TO.N,GND*
X5200000Y7627000D03*
X-1476000Y2700000D03*
G04 #@! TO.N,VCC3V3*
X-7000000Y1225000D03*
G04 #@! TO.N,GND*
X5806000Y1764000D03*
G04 #@! TO.N,VCC1V8*
X-6393000Y2503000D03*
G04 #@! TO.N,GND*
X-14000000Y-10600000D03*
G04 #@! TO.N,VCC1V8*
X4489000Y11524000D03*
G04 #@! TO.N,GND*
X8300000Y12524000D03*
G04 #@! TO.N,VCC3V3*
X14097000Y-12914000D03*
G04 #@! TO.N,GND*
X-12500000Y-14375000D03*
X-4300000Y-475000D03*
D34*
X-11651028Y-5905000D03*
D35*
G04 #@! TO.N,VCC1V0*
X-2500000Y-3475000D03*
G04 #@! TO.N,GND*
X-8293000Y7523000D03*
G04 #@! TO.N,P50_3V3*
X15498000Y-8994000D03*
D36*
X28960000Y-7050000D02*
X17442000Y-7050000D01*
X15498000Y-8994000D02*
X17442000Y-7050000D01*
X28960000Y-7050000D02*
X29490000Y-7050000D01*
X29490000Y-7050000D02*
X30530000Y-8090000D01*
G04 #@! TO.N,MODE/SYNC*
X-17030000Y-4225000D02*
X-17200000Y-4055000D01*
X-15405028Y-4225000D02*
X-17030000Y-4225000D01*
D35*
G04 #@! TO.N,GND*
X-6503000Y7920000D03*
X-2500000Y-1500000D03*
G04 #@! TO.N,VCC1V0*
X13200000Y-5300000D03*
X-3500000Y-475000D03*
G04 #@! TO.N,GND*
X-21270000Y-11903000D03*
G04 #@! TO.N,FCS_B*
X4500000Y-476000D03*
D36*
X5015000Y-9855000D02*
X4508000Y-10362000D01*
X5357000Y-15664000D02*
X5357000Y-17730000D01*
X4158000Y-2715000D02*
X5015000Y-3572000D01*
X4508000Y-10362000D02*
X4508000Y-14815000D01*
X4508000Y-14815000D02*
X5357000Y-15664000D01*
X5015000Y-3572000D02*
X5015000Y-9855000D01*
X4158000Y-818000D02*
X4158000Y-2715000D01*
X4500000Y-476000D02*
X4158000Y-818000D01*
D35*
G04 #@! TO.N,GND*
X-7664028Y4577000D03*
X-7678028Y3957000D03*
G04 #@! TO.N,SW2*
X-5600000Y-1075000D03*
G04 #@! TO.N,VCC1V0*
X-475000Y4500000D03*
G04 #@! TO.N,GND*
X-3300000Y-3475000D03*
X12300000Y-6100000D03*
G04 #@! TO.N,VCC1V0*
X-3501000Y-2475000D03*
G04 #@! TO.N,VCC1V8*
X-4500000Y2524000D03*
X9700000Y9100000D03*
D36*
G04 #@! TO.N,BOOST1*
X-8855000Y-4875000D02*
X-6600000Y-4875000D01*
X-5000000Y-4875000D02*
X-4200000Y-5675000D01*
X-9855028Y-4875000D02*
X-8855000Y-4875000D01*
X-6100000Y-4875000D02*
X-5000000Y-4875000D01*
X-6600000Y-4875000D02*
X-6100000Y-4875000D01*
G04 #@! TO.N,TRACKSS2*
X-14200000Y1900000D02*
X-14200000Y100000D01*
X-15405028Y-325000D02*
X-14625000Y-325000D01*
X-14300000Y0D02*
X-14625000Y-325000D01*
X-14200000Y100000D02*
X-14300000Y0D01*
D35*
G04 #@! TO.N,GND*
X-18555000Y4824000D03*
G04 #@! TO.N,VCC1V0*
X-500000Y2524000D03*
G04 #@! TO.N,VCC3V3*
X-14105000Y3735000D03*
G04 #@! TO.N,VCC1V0*
X-3500000Y-4475000D03*
G04 #@! TO.N,VFB1*
X-15398000Y-12387000D03*
G04 #@! TO.N,GND*
X-1500000Y-1676000D03*
G04 #@! TO.N,VCC1V8*
X-4500000Y-1476000D03*
G04 #@! TO.N,CCLK*
X-500000Y5524000D03*
D36*
X-176000Y5200000D02*
X800000Y4224000D01*
X-170000Y-111000D02*
X-645000Y-586000D01*
X-700000Y-4300000D02*
X-700000Y-4700000D01*
X-645000Y-586000D02*
X-645000Y-2628000D01*
X-1300000Y-5300000D02*
X-1300000Y-14316000D01*
X-1542000Y-14558000D02*
X-2064000Y-15080000D01*
X-645000Y-2628000D02*
X-1175000Y-3158000D01*
X800000Y1900000D02*
X0Y1088000D01*
X-700000Y-4700000D02*
X-1300000Y-5300000D01*
X800000Y2800000D02*
X800000Y2900000D01*
X-1175000Y-3191000D02*
X-1175000Y-3825000D01*
X800000Y2800000D02*
X800000Y1900000D01*
X0Y1088000D02*
X0Y59000D01*
X800000Y4224000D02*
X800000Y2800000D01*
X-1175000Y-3158000D02*
X-1175000Y-3191000D01*
X-2064000Y-15080000D02*
X-2263000Y-15279000D01*
X-1175000Y-3825000D02*
X-700000Y-4300000D01*
X0Y59000D02*
X-170000Y-111000D01*
X-2263000Y-15525000D02*
X-2263000Y-17730000D01*
X-1300000Y-14316000D02*
X-1542000Y-14558000D01*
X-2263000Y-15279000D02*
X-2263000Y-15525000D01*
X-500000Y5524000D02*
X-176000Y5200000D01*
D35*
G04 #@! TO.N,P47_3V3*
X6500000Y-11476000D03*
D36*
X20300000Y-15900000D02*
X21600000Y-17200000D01*
X26340000Y-17200000D02*
X21600000Y-17200000D01*
X29480000Y-17200000D02*
X30530000Y-18250000D01*
X10911000Y-15900000D02*
X20300000Y-15900000D01*
X26340000Y-17200000D02*
X29480000Y-17200000D01*
X6500000Y-11476000D02*
X10911000Y-15900000D01*
D35*
G04 #@! TO.N,GND*
X-3500000Y725000D03*
G04 #@! TO.N,VCC1V8*
X-2500000Y-700000D03*
G04 #@! TO.N,VCC1V0*
X2975000Y-10200000D03*
G04 #@! TO.N,P27_3V3*
X8017000Y2042000D03*
D36*
X29420000Y15880000D02*
X30530000Y14770000D01*
X10780000Y2042000D02*
X13612000Y2042000D01*
X10780000Y2042000D02*
X8017000Y2042000D01*
X23010000Y15040000D02*
X23850000Y15880000D01*
X13612000Y2042000D02*
X14120000Y2550000D01*
X14870000Y5750000D02*
X23010000Y13890000D01*
X23010000Y14760000D02*
X23010000Y15040000D01*
X10780000Y2042000D02*
X11198000Y2042000D01*
X23850000Y15880000D02*
X29420000Y15880000D01*
X14120000Y2550000D02*
X14870000Y3300000D01*
X14870000Y3300000D02*
X14870000Y5750000D01*
X23010000Y13890000D02*
X23010000Y14760000D01*
D35*
G04 #@! TO.N,VCC1V0*
X-7000000Y-9525000D03*
G04 #@! TO.N,VCC1V8*
X3875000Y4700000D03*
G04 #@! TO.N,SW2*
X-9855000Y-975000D03*
D36*
X-9855000Y-975000D02*
X-9855028Y-975000D01*
D37*
X-9855000Y-975000D02*
X-9855028Y-325000D01*
D35*
G04 #@! TO.N,VCC1V0*
X9600000Y-6900000D03*
G04 #@! TO.N,GND*
X-474000Y3700000D03*
G04 #@! TO.N,VCC1V0*
X12300000Y-5300000D03*
G04 #@! TO.N,VFB2*
X-17005000Y4824000D03*
G04 #@! TO.N,P10_3V3*
X10500000Y525000D03*
D36*
X16900000Y7300000D02*
X23250000Y13650000D01*
X10500000Y525000D02*
X10975000Y1000000D01*
X15250000Y2400000D02*
X15250000Y5650000D01*
X31650000Y13650000D02*
X33070000Y12230000D01*
X13850000Y1000000D02*
X15250000Y2400000D01*
X23250000Y13650000D02*
X31650000Y13650000D01*
X15250000Y5650000D02*
X16900000Y7300000D01*
X10975000Y1000000D02*
X13850000Y1000000D01*
D35*
G04 #@! TO.N,ITH2*
X-16900000Y-947000D03*
G04 #@! TO.N,VCC3V3*
X3499000Y-5475000D03*
G04 #@! TO.N,P32_3V3*
X6500000Y-1476000D03*
D36*
X29470000Y-1950000D02*
X30530000Y-3010000D01*
X6500000Y-1476000D02*
X7210000Y-2186000D01*
X7210000Y-2186000D02*
X7210000Y-3121000D01*
X7618000Y-3700000D02*
X20300000Y-3700000D01*
X7210000Y-3121000D02*
X7210000Y-3292000D01*
X20300000Y-3700000D02*
X22050000Y-1950000D01*
X22050000Y-1950000D02*
X29470000Y-1950000D01*
X7210000Y-3292000D02*
X7618000Y-3700000D01*
D35*
G04 #@! TO.N,GND*
X-11700000Y12522000D03*
G04 #@! TO.N,VCC3V3*
X5499000Y-1475000D03*
G04 #@! TO.N,GND*
X-2299000Y-4476000D03*
X-500000Y1724000D03*
X6500000Y7274000D03*
X-2701000Y-2475000D03*
G04 #@! TO.N,P21_3V3*
X17308000Y-1994000D03*
D36*
X22752000Y3450000D02*
X31690000Y3450000D01*
X17308000Y-1994000D02*
X22752000Y3450000D01*
X31690000Y3450000D02*
X33070000Y2070000D01*
D35*
G04 #@! TO.N,LED1*
X-21236000Y1392000D03*
D34*
G04 #@! TO.N,GND*
X-11651028Y-4589000D03*
D35*
G04 #@! TO.N,VCC1V0*
X12300000Y-6900000D03*
G04 #@! TO.N,+5V*
X-8393000Y-2489000D03*
G04 #@! TO.N,VCC3V3*
X1500000Y525000D03*
G04 #@! TO.N,GND*
X-18560000Y-5605000D03*
G04 #@! TO.N,VCC1V8*
X11500000Y10524000D03*
G04 #@! TO.N,GND*
X-3700000Y2525000D03*
G04 #@! TO.N,VCC1V8*
X-11602000Y5564000D03*
G04 #@! TO.N,GND*
X15847000Y-12914000D03*
X-5000000Y13900000D03*
X10500000Y-7700000D03*
G04 #@! TO.N,P15_3V3*
X6500000Y-476000D03*
D36*
X7656000Y-1022000D02*
X8042000Y-1408000D01*
X8042000Y-2237000D02*
X8042000Y-2692000D01*
X22900000Y600000D02*
X29460000Y600000D01*
X6500000Y-476000D02*
X7046000Y-1022000D01*
X29460000Y600000D02*
X30530000Y-470000D01*
X8042000Y-2692000D02*
X8450000Y-3100000D01*
X8450000Y-3100000D02*
X19200000Y-3100000D01*
X7046000Y-1022000D02*
X7656000Y-1022000D01*
X19200000Y-3100000D02*
X22900000Y600000D01*
X8042000Y-1408000D02*
X8042000Y-2237000D01*
D35*
G04 #@! TO.N,SW*
X-9213000Y3611000D03*
G04 #@! TO.N,VCC1V8*
X-8470000Y10507000D03*
G04 #@! TO.N,BOOST2*
X-9855000Y-2925000D03*
G04 #@! TO.N,GND*
X-2500000Y200000D03*
X-17200000Y-5605000D03*
X2500000Y8325000D03*
G04 #@! TO.N,VCC1V0*
X2975000Y-11000000D03*
G04 #@! TO.N,P19_3V3*
X15768000Y-1994000D03*
D36*
X22650000Y6000000D02*
X31680000Y6000000D01*
X18762000Y1000000D02*
X18762000Y2112000D01*
X18762000Y2112000D02*
X21950000Y5300000D01*
X15768000Y-1994000D02*
X18762000Y1000000D01*
X21950000Y5300000D02*
X22650000Y6000000D01*
X31680000Y6000000D02*
X33070000Y4610000D01*
D35*
G04 #@! TO.N,GND*
X-2499000Y1724000D03*
X-11300000Y6524000D03*
X-2775000Y-10200000D03*
G04 #@! TO.N,ITH2*
X-16875000Y800000D03*
G04 #@! TO.N,P11_3V3*
X8500000Y525000D03*
D36*
X23450000Y11050000D02*
X31710000Y11050000D01*
X23450000Y11050000D02*
X23400000Y11050000D01*
X8500000Y525000D02*
X8880000Y525000D01*
X16300000Y2150000D02*
X16300000Y5500000D01*
X16300000Y5500000D02*
X17400000Y6600000D01*
X9338000Y67000D02*
X9605000Y-200000D01*
X9605000Y-200000D02*
X13950000Y-200000D01*
X21850000Y11050000D02*
X23400000Y11050000D01*
X31710000Y11050000D02*
X33070000Y9690000D01*
X8880000Y525000D02*
X9338000Y67000D01*
X17400000Y6600000D02*
X21850000Y11050000D01*
X13950000Y-200000D02*
X16300000Y2150000D01*
D35*
G04 #@! TO.N,INT3V3*
X-7275000Y-3800000D03*
G04 #@! TO.N,VCC1V0*
X11400000Y-6900000D03*
G04 #@! TO.N,VCC1V8*
X-18170000Y-10103000D03*
G04 #@! TO.N,GND*
X15847000Y-13514000D03*
X11700000Y-12475000D03*
X2300000Y525000D03*
X9600000Y-7700000D03*
G04 #@! TO.N,VCC1V8*
X3875000Y5300000D03*
G04 #@! TO.N,GND*
X-22186000Y-558000D03*
G04 #@! TO.N,P33_3V3*
X7500000Y-1476000D03*
D36*
X31660000Y-1600000D02*
X33070000Y-3010000D01*
X7500000Y-2663000D02*
X8187000Y-3350000D01*
X20150000Y-3350000D02*
X21900000Y-1600000D01*
X7500000Y-1476000D02*
X7500000Y-2663000D01*
X8187000Y-3350000D02*
X20150000Y-3350000D01*
X21900000Y-1600000D02*
X31660000Y-1600000D01*
G04 #@! TO.N,N4*
X-15405028Y-4875000D02*
X-19114000Y-4875000D01*
X-19114000Y-4875000D02*
X-19934000Y-4055000D01*
D35*
G04 #@! TO.N,GND*
X-1817000Y5959000D03*
G04 #@! TO.N,D0*
X500000Y-1475000D03*
D36*
X500000Y-1475000D02*
X1246000Y-2221000D01*
X1246000Y-13897000D02*
X2817000Y-15468000D01*
X2817000Y-15468000D02*
X2817000Y-17730000D01*
X1246000Y-2221000D02*
X1246000Y-13897000D01*
D35*
G04 #@! TO.N,VCC1V0*
X-3501000Y3525000D03*
G04 #@! TO.N,PGOOD1*
X-15400000Y-6200000D03*
G04 #@! TO.N,VFB2*
X-17070000Y6385000D03*
X-15490000Y1950000D03*
G04 #@! TO.N,GND*
X14100000Y-7700000D03*
D34*
X-13591028Y-1955000D03*
D35*
G04 #@! TO.N,P20_3V3*
X16538000Y-1994000D03*
D36*
X29540000Y5600000D02*
X30530000Y4610000D01*
X19200000Y668000D02*
X19200000Y1800000D01*
X23000000Y5600000D02*
X29540000Y5600000D01*
X19200000Y1800000D02*
X23000000Y5600000D01*
X16538000Y-1994000D02*
X19200000Y668000D01*
D35*
G04 #@! TO.N,+5V*
X-9855000Y-2275000D03*
G04 #@! TO.N,VCC1V0*
X-500000Y-3476000D03*
G04 #@! TO.N,GND*
X-7674028Y5197000D03*
G04 #@! TO.N,SW*
X-12602000Y3314000D03*
G04 #@! TO.N,GND*
X-4300000Y-4475000D03*
G04 #@! TO.N,FB*
X-4993000Y5561000D03*
D36*
G04 #@! TO.N,PGOOD2*
X-18600000Y-1800000D02*
X-18700000Y-1900000D01*
X-16300000Y-1700000D02*
X-17300000Y-1700000D01*
X-18700000Y-1900000D02*
X-19380000Y-1900000D01*
X-15405028Y-1625000D02*
X-16225000Y-1625000D01*
X-17400000Y-1800000D02*
X-18600000Y-1800000D01*
X-19500000Y-1900000D02*
X-20250000Y-2650000D01*
X-19380000Y-1900000D02*
X-19500000Y-1900000D01*
X-16225000Y-1625000D02*
X-16300000Y-1700000D01*
X-17300000Y-1700000D02*
X-17400000Y-1800000D01*
D35*
G04 #@! TO.N,P14_1V8*
X7500000Y9524000D03*
D36*
X10064000Y12593000D02*
X10064000Y13548000D01*
X7846000Y10850000D02*
X8275000Y11279000D01*
X8750000Y11279000D02*
X10064000Y12593000D01*
X10155000Y13639000D02*
X19832000Y23316000D01*
X10064000Y13548000D02*
X10155000Y13639000D01*
X19832000Y23316000D02*
X19832000Y26050000D01*
X19832000Y26050000D02*
X21122000Y27340000D01*
X7500000Y9524000D02*
X7846000Y9870000D01*
X8275000Y11279000D02*
X8750000Y11279000D01*
X7846000Y10162000D02*
X7846000Y10850000D01*
X7846000Y9870000D02*
X7846000Y10162000D01*
D35*
G04 #@! TO.N,GND*
X-16927000Y-9723000D03*
X-15538000Y5461000D03*
X299000Y-3476000D03*
X-4000000Y13900000D03*
G04 #@! TO.N,INT3V3*
X-9855000Y-4225000D03*
D34*
G04 #@! TO.N,GND*
X-11651028Y-3273000D03*
D35*
G04 #@! TO.N,P61_1V8*
X-7500000Y9524000D03*
D36*
X-7500000Y11000000D02*
X-7500000Y12400000D01*
X-24557000Y16160000D02*
X-25954000Y16160000D01*
X-7500000Y11000000D02*
X-7500000Y11200000D01*
X-9300000Y14200000D02*
X-11600000Y14200000D01*
X-14700000Y16160000D02*
X-14660000Y16160000D01*
X-11600000Y14200000D02*
X-12050000Y14650000D01*
X-12050000Y14650000D02*
X-13560000Y16160000D01*
X-25954000Y16160000D02*
X-27344000Y14770000D01*
X-13560000Y16160000D02*
X-14700000Y16160000D01*
X-7500000Y11000000D02*
X-7500000Y9524000D01*
X-7500000Y12400000D02*
X-9300000Y14200000D01*
X-14700000Y16160000D02*
X-24557000Y16160000D01*
D35*
G04 #@! TO.N,VCC3V3*
X-8000000Y1225000D03*
G04 #@! TO.N,VCC1V0*
X2151000Y3013000D03*
D38*
G04 #@! TA.AperFunction,Conductor*
G04 #@! TO.N,CLK_3V3_29.5MHZ*
G36*
X7200000Y468999D02*
X7219500Y409672D01*
X7299999Y369000D01*
X7700001Y369000D01*
X7759328Y388500D01*
X7800000Y468999D01*
X7800000Y783987D01*
X7801566Y788752D01*
X7823828Y800000D01*
X8036857Y800000D01*
X8116191Y839123D01*
X8142456Y873352D01*
X8151648Y882544D01*
X8244801Y954024D01*
X8250001Y957026D01*
X8291630Y1003577D01*
X8300000Y1043627D01*
X8300000Y1472997D01*
X8280500Y1532324D01*
X8229605Y1568513D01*
X8161733Y1565384D01*
X8152463Y1561544D01*
X8139916Y1558182D01*
X8023494Y1542855D01*
X8010506Y1542855D01*
X7894084Y1558182D01*
X7881537Y1561544D01*
X7807074Y1592388D01*
X7768806Y1600000D01*
X7299999Y1600000D01*
X7240672Y1580500D01*
X7200000Y1500001D01*
X7200000Y468999D01*
G37*
G04 #@! TO.N,GND*
G36*
X8700000Y4562000D02*
X8755728Y4562000D01*
X8761495Y4544455D01*
X8804166Y4513563D01*
X8816995Y4488172D01*
X8816995Y4212000D01*
X8717000Y4212000D01*
X8717000Y3512000D01*
X9200000Y3512000D01*
X9200000Y4212000D01*
X9103272Y4212000D01*
X9097505Y4229545D01*
X9054834Y4260437D01*
X9042005Y4285828D01*
X9042005Y4562000D01*
X9092000Y4562000D01*
X9092000Y5062000D01*
X9042005Y5062000D01*
X9042005Y5345987D01*
X9043572Y5350753D01*
X9045097Y5351524D01*
X9089255Y5395683D01*
X9100000Y5440777D01*
X9100000Y5937001D01*
X9080500Y5996328D01*
X9000001Y6037000D01*
X8799999Y6037000D01*
X8740672Y6017500D01*
X8700000Y5937001D01*
X8700000Y5442934D01*
X8714553Y5398659D01*
X8712068Y5397404D01*
X8741995Y5338172D01*
X8741995Y5062000D01*
X8700000Y5062000D01*
X8700000Y4562000D01*
G37*
G04 #@! TO.N,N4*
G36*
X-21900000Y-4500001D02*
X-21880500Y-4559328D01*
X-21800001Y-4600000D01*
X-19499999Y-4600000D01*
X-19440672Y-4580500D01*
X-19400000Y-4500001D01*
X-19400000Y-3699999D01*
X-19419500Y-3640672D01*
X-19499999Y-3600000D01*
X-21800001Y-3600000D01*
X-21859328Y-3619500D01*
X-21900000Y-3699999D01*
X-21900000Y-4500001D01*
G37*
G04 #@! TO.N,VCC1V8*
G36*
X7800000Y8299999D02*
X7819500Y8240672D01*
X7899999Y8200000D01*
X10000001Y8200000D01*
X10059328Y8219500D01*
X10100000Y8299999D01*
X10100000Y9400001D01*
X10080500Y9459328D01*
X10000001Y9500000D01*
X9399999Y9500000D01*
X9340672Y9480500D01*
X9300000Y9400001D01*
X9300000Y8816013D01*
X9298434Y8811248D01*
X9276172Y8800000D01*
X7899999Y8800000D01*
X7840672Y8780500D01*
X7800000Y8700001D01*
X7800000Y8299999D01*
G37*
G04 #@! TO.N,ITH2_CAP*
G36*
X-18700000Y-2800001D02*
X-18680500Y-2859328D01*
X-18600001Y-2900000D01*
X-16599999Y-2900000D01*
X-16540672Y-2880500D01*
X-16500000Y-2800001D01*
X-16500000Y-2199999D01*
X-16519500Y-2140672D01*
X-16599999Y-2100000D01*
X-17220749Y-2100000D01*
X-17251647Y-2104893D01*
X-17263602Y-2108777D01*
X-17278103Y-2114784D01*
X-17287921Y-2119787D01*
X-17302704Y-2124590D01*
X-17313590Y-2126314D01*
X-17328847Y-2129977D01*
X-17339327Y-2133382D01*
X-17354682Y-2135814D01*
X-17365699Y-2135814D01*
X-17381342Y-2137045D01*
X-17396117Y-2139385D01*
X-17403931Y-2140000D01*
X-18423666Y-2140000D01*
X-18487179Y-2166308D01*
X-18488220Y-2164875D01*
X-18494189Y-2169211D01*
X-18494376Y-2169289D01*
X-18494590Y-2169503D01*
X-18507165Y-2178639D01*
X-18516978Y-2183639D01*
X-18530360Y-2191839D01*
X-18539276Y-2198317D01*
X-18553125Y-2205374D01*
X-18563612Y-2208781D01*
X-18578111Y-2214787D01*
X-18587924Y-2219787D01*
X-18602705Y-2224590D01*
X-18613589Y-2226314D01*
X-18628860Y-2229981D01*
X-18630915Y-2230649D01*
X-18681307Y-2267534D01*
X-18700000Y-2325750D01*
X-18700000Y-2800001D01*
G37*
G04 #@! TO.N,PGOOD2*
G36*
X-20700000Y-1850001D02*
X-20680500Y-1909328D01*
X-20600001Y-1950000D01*
X-20416018Y-1950000D01*
X-20411253Y-1951566D01*
X-20400005Y-1973828D01*
X-20400005Y-2250000D01*
X-20625000Y-2250000D01*
X-20625000Y-3050000D01*
X-19875000Y-3050000D01*
X-19875000Y-2250000D01*
X-20099995Y-2250000D01*
X-20099995Y-1966013D01*
X-20098429Y-1961248D01*
X-20076167Y-1950000D01*
X-19899999Y-1950000D01*
X-19840672Y-1930500D01*
X-19800000Y-1850001D01*
X-19800000Y-1417429D01*
X-19819500Y-1358102D01*
X-19870395Y-1321913D01*
X-19915642Y-1318661D01*
X-20002118Y-1332357D01*
X-20009931Y-1332972D01*
X-20119982Y-1332972D01*
X-20124747Y-1331406D01*
X-20135995Y-1309144D01*
X-20135995Y-1032972D01*
X-20006000Y-1032972D01*
X-20006000Y-100000D01*
X-20566000Y-100000D01*
X-20566000Y-1032972D01*
X-20436005Y-1032972D01*
X-20436005Y-1316959D01*
X-20437571Y-1321724D01*
X-20459833Y-1332972D01*
X-20562069Y-1332972D01*
X-20569877Y-1332358D01*
X-20584356Y-1330064D01*
X-20646003Y-1340042D01*
X-20689710Y-1384649D01*
X-20700000Y-1428832D01*
X-20700000Y-1850001D01*
G37*
G04 #@! TO.N,SW1*
G36*
X-10400000Y-7500001D02*
X-10380500Y-7559328D01*
X-10300001Y-7600000D01*
X-9333959Y-7600000D01*
X-9326146Y-7600615D01*
X-9245097Y-7613452D01*
X-9230310Y-7618256D01*
X-9160702Y-7653723D01*
X-9148129Y-7662858D01*
X-9140276Y-7670711D01*
X-9069566Y-7700000D01*
X-3822253Y-7700000D01*
X-3751543Y-7670711D01*
X-3729289Y-7648457D01*
X-3700000Y-7577747D01*
X-3700000Y-6699999D01*
X-3719500Y-6640672D01*
X-3799999Y-6600000D01*
X-9069566Y-6600000D01*
X-9140276Y-6629289D01*
X-9148129Y-6637142D01*
X-9160702Y-6646277D01*
X-9230310Y-6681744D01*
X-9245097Y-6686548D01*
X-9326146Y-6699385D01*
X-9333959Y-6700000D01*
X-10300001Y-6700000D01*
X-10359328Y-6719500D01*
X-10400000Y-6799999D01*
X-10400000Y-7500001D01*
G37*
G04 #@! TO.N,VCC3V3*
G36*
X7767000Y3512000D02*
X8267000Y3512000D01*
X8267000Y4212000D01*
X8167005Y4212000D01*
X8167005Y4495987D01*
X8168571Y4500752D01*
X8187101Y4510114D01*
X8231260Y4554273D01*
X8233101Y4562000D01*
X8292000Y4562000D01*
X8292000Y5062000D01*
X8242005Y5062000D01*
X8242005Y5345987D01*
X8243572Y5350753D01*
X8245097Y5351524D01*
X8289255Y5395683D01*
X8300000Y5440777D01*
X8300000Y5937001D01*
X8280500Y5996328D01*
X8200001Y6037000D01*
X7999999Y6037000D01*
X7940672Y6017500D01*
X7900000Y5937001D01*
X7900000Y5442934D01*
X7914553Y5398659D01*
X7912068Y5397404D01*
X7941995Y5338172D01*
X7941995Y5062000D01*
X7900000Y5062000D01*
X7900000Y4562000D01*
X7941995Y4562000D01*
X7941995Y4278013D01*
X7940429Y4273248D01*
X7921899Y4263886D01*
X7877740Y4219727D01*
X7875899Y4212000D01*
X7767000Y4212000D01*
X7767000Y3512000D01*
G37*
G04 #@! TO.N,ITH1_CAP*
G36*
X-19400000Y-7200001D02*
X-19380500Y-7259328D01*
X-19300001Y-7300000D01*
X-18499999Y-7300000D01*
X-18440672Y-7280500D01*
X-18400000Y-7200001D01*
X-18400000Y-7016013D01*
X-18398434Y-7011248D01*
X-18376172Y-7000000D01*
X-17599999Y-7000000D01*
X-17540672Y-6980500D01*
X-17500000Y-6900001D01*
X-17500000Y-6499999D01*
X-17519500Y-6440672D01*
X-17599999Y-6400000D01*
X-19300001Y-6400000D01*
X-19359328Y-6419500D01*
X-19400000Y-6499999D01*
X-19400000Y-7200001D01*
G37*
G04 #@! TO.N,ITH1*
G36*
X-19700000Y-8700001D02*
X-19680500Y-8759328D01*
X-19600001Y-8800000D01*
X-14899999Y-8800000D01*
X-14840672Y-8780500D01*
X-14800000Y-8700001D01*
X-14800000Y-8099999D01*
X-14819500Y-8040672D01*
X-14899999Y-8000000D01*
X-15926097Y-8000000D01*
X-15933910Y-7999385D01*
X-16014959Y-7986548D01*
X-16029746Y-7981744D01*
X-16099354Y-7946277D01*
X-16111927Y-7937142D01*
X-16119780Y-7929289D01*
X-16190490Y-7900000D01*
X-16489538Y-7900000D01*
X-16560248Y-7929289D01*
X-16568101Y-7937142D01*
X-16580674Y-7946277D01*
X-16650282Y-7981744D01*
X-16665069Y-7986548D01*
X-16746118Y-7999385D01*
X-16753931Y-8000000D01*
X-17246069Y-8000000D01*
X-17253882Y-7999385D01*
X-17334931Y-7986548D01*
X-17349718Y-7981744D01*
X-17419326Y-7946277D01*
X-17431899Y-7937142D01*
X-17439752Y-7929289D01*
X-17510462Y-7900000D01*
X-19600001Y-7900000D01*
X-19659328Y-7919500D01*
X-19700000Y-7999999D01*
X-19700000Y-8700001D01*
G37*
G04 --- BOARD END --- *
G04 #@! TF.MD5,601400989e6bc0d928a3afdb0f8c63fe*
M02*
