M48
; #@! TF.GenerationSoftware,LibrePCB,LibrePCB,1.1.0
; #@! TF.CreationDate,2024-09-08T17:15:58
; #@! TF.ProjectId,flasher,f4b07f79-14a2-4070-9d7d-1f686dcb10c4,v1
; #@! TF.Part,Single
; #@! TF.SameCoordinates
; #@! TF.FileFunction,Plated,1,13,PTH
FMAT,2
METRIC,TZ
; #@! TA.AperFunction,ViaDrill
T1C0.2
; #@! TA.AperFunction,ViaDrill
T2C0.3
%
G90
G05
M71
T1
X-22.186Y-0.558
X2.3Y0.525
X11.7Y-12.475
X15.847Y-13.514
X15.847Y-12.914
X-7.678028Y3.957
X5.806Y1.764
X-18.325Y0.8
X-2.7Y10.8
X-6.3Y10.6
X-18.3Y-1.025
X-7.138028Y4.557
X7.701Y-0.471
X7.575Y-5.176
X7.575Y-5.776
X-14.2Y2.7
X-0.3Y-6.476
X-4.5Y10.6
T2
X-13.591028Y-3.273
X-11.651028Y-1.955
T0
M30
