M48
; #@! TF.GenerationSoftware,LibrePCB,LibrePCB,1.1.0
; #@! TF.CreationDate,2024-09-08T17:15:58
; #@! TF.ProjectId,flasher,f4b07f79-14a2-4070-9d7d-1f686dcb10c4,v1
; #@! TF.Part,Single
; #@! TF.SameCoordinates
; #@! TF.FileFunction,Plated,1,13,PTH
FMAT,2
METRIC,TZ
; #@! TA.AperFunction,ViaDrill
T1C0.2
%
G90
G05
M71
T1
X6.017Y9.042
X31.8Y24.0
X32.5Y24.7
X9.017Y10.042
X-5.018Y-1.993
X5.017Y12.042
X-5.018Y3.042
X31.8Y24.7
X-12.018Y10.042
X32.5Y25.4
X-9.018Y11.042
X-8.018Y8.042
X12.017Y11.042
X3.017Y8.042
X-7.018Y5.042
X-5.018Y1.042
X31.1Y24.7
X-13.018Y13.042
X-11.018Y7.042
X31.1Y25.4
X0.5Y6.524
X32.5Y24.0
X31.1Y24.0
X31.8Y25.4
X-5.018Y-3.993
X-5.018Y5.042
X8.017Y13.042
T0
M30
