M48
; #@! TF.GenerationSoftware,LibrePCB,LibrePCB,1.1.0
; #@! TF.CreationDate,2024-09-08T17:15:58
; #@! TF.ProjectId,flasher,f4b07f79-14a2-4070-9d7d-1f686dcb10c4,v1
; #@! TF.Part,Single
; #@! TF.SameCoordinates
; #@! TF.FileFunction,Plated,1,13,PTH
FMAT,2
METRIC,TZ
; #@! TA.AperFunction,ViaDrill
T1C0.2
%
G90
G05
M71
T1
X-9.855Y-4.225
X-4.993Y5.561
X-12.602Y3.314
X-7.275Y-3.8
X-16.875Y0.8
X15.768Y-1.994
X-9.855Y-2.925
X-9.213Y3.611
X-21.236Y1.392
X-16.9Y-0.947
X-9.855Y-0.975
X-15.398Y-12.387
X-5.6Y-1.075
X-15.477Y-9.723
X-15.398Y-11.056
X-4.707Y9.239
X-8.0Y-1.025
X-5.593Y2.503
X-5.6Y-2.525
X11.665Y5.724
X-15.377Y-13.714
X-4.953Y7.92
X-11.602Y3.314
X-8.4Y-4.075
X-5.593Y6.771
X13.958Y-8.994
X14.228Y-0.994
X-15.405Y-6.825
X-15.4Y0.3
X-7.0Y-1.025
X13.958Y-9.994
T0
M30
