M48
; #@! TF.GenerationSoftware,LibrePCB,LibrePCB,1.1.0
; #@! TF.CreationDate,2024-09-08T17:15:58
; #@! TF.ProjectId,flasher,f4b07f79-14a2-4070-9d7d-1f686dcb10c4,v1
; #@! TF.Part,Single
; #@! TF.SameCoordinates
; #@! TF.FileFunction,Plated,1,13,PTH
FMAT,2
METRIC,TZ
; #@! TA.AperFunction,ViaDrill
T1C0.2
%
G90
G05
M71
T1
X11.017Y4.042
X6.018Y-11.994
X8.018Y-7.994
X2.017Y1.042
X24.1Y-21.2
X9.018Y-10.994
X4.018Y-5.994
X-8.718Y-27.483
X-8.043Y-15.68
X-8.043Y-14.98
X-7.343Y-22.57
X1.018Y-6.994
X-7.343Y-23.47
X12.017Y1.042
X-6.643Y-15.68
X24.8Y-20.5
X-7.343Y-14.98
X25.5Y-20.5
X4.76Y-15.21
X25.5Y-21.2
X-8.043Y-23.47
X5.018Y-8.994
X13.018Y-12.994
X-0.94Y-15.04
X9.018Y-0.994
X8.017Y3.042
X-6.643Y-22.57
X6.018Y-1.994
X-8.918Y-33.833
X-6.643Y-23.47
X-7.343Y-15.68
X-6.643Y-14.98
X-8.043Y-22.57
X-16.586Y2.942
X-2.813Y-15.638
X-3.018Y-5.993
X-8.754Y-13.928
X24.8Y-21.2
X24.1Y-20.5
T0
M30
