M48
; #@! TF.GenerationSoftware,LibrePCB,LibrePCB,1.1.0
; #@! TF.CreationDate,2024-09-08T17:15:58
; #@! TF.ProjectId,flasher,f4b07f79-14a2-4070-9d7d-1f686dcb10c4,v1
; #@! TF.Part,Single
; #@! TF.SameCoordinates
; #@! TF.FileFunction,Plated,1,13,PTH
FMAT,2
METRIC,TZ
; #@! TA.AperFunction,ViaDrill
T1C0.2
; #@! TA.AperFunction,ComponentDrill
T2C1.0
%
G90
G05
M71
T1
X-7.5Y9.524
X7.5Y9.524
X-0.5Y-3.476
X-3.501Y3.525
X0.5Y-1.475
X7.5Y-1.476
X8.5Y0.525
X-8.47Y10.507
X6.5Y-0.476
X11.5Y10.524
X1.5Y0.525
X5.499Y-1.475
X6.5Y-1.476
X3.499Y-5.475
X10.5Y0.525
X8.017Y2.042
X6.5Y-11.476
X-0.5Y5.524
X-4.5Y-1.476
X-3.5Y-4.475
X-0.5Y2.524
X-4.5Y2.524
X-3.501Y-2.475
X-0.475Y4.5
X4.5Y-0.476
X-3.5Y-0.475
X-2.5Y-3.475
X4.489Y11.524
X3.5Y6.524
X4.499Y-8.472
X5.5Y-0.475
X-2.499Y2.524
X-7.493Y7.523
X-1.5Y-2.476
X7.5Y-11.476
X-12.5Y12.522
X3.5Y7.524
X4.5Y0.524
X7.5Y11.524
X5.5Y0.524
X2.5Y7.525
X7.5Y0.525
X7.497Y-7.472
X1.5Y7.525
X-4.5Y0.524
X8.499Y9.522
X5.017Y9.042
X-3.5Y1.525
X-0.5Y0.524
X-10.5Y6.524
X11.501Y0.524
X-1.476Y3.5
X6.497Y1.522
X7.017Y3.042
X8.5Y-10.472
X6.5Y8.524
X0.5Y0.524
X-2.982Y-24.5
X7.5Y10.525
X2.5Y6.524
X4.017Y9.042
X4.5Y7.524
X-9.018Y8.042
X8.5Y-2.476
X-8.5Y9.525
X5.501Y-11.476
X-1.499Y-4.476
X9.5Y0.524
X-9.5Y7.524
X6.5Y-10.476
X12.5Y-12.475
X1.018Y-22.282
X0.5Y-0.475
X-0.5Y-5.48
X-11.499Y9.522
X-2.501Y4.525
X-7.5Y8.524
X8.501Y-0.471
X-4.5Y-3.475
X-3.018Y-4.993
X-9.5Y9.525
X7.5Y12.524
X3.017Y9.042
X10.497Y3.528
X-9.5Y6.524
X10.017Y11.042
X-8.5Y6.524
T2
X0.277Y-20.27
X0.277Y-17.73
X5.357Y-17.73
X5.357Y-20.27
X2.817Y-17.73
X-2.263Y-17.73
X-4.803Y-20.27
X-7.343Y-17.73
X-2.263Y-20.27
X-4.803Y-17.73
X-7.343Y-20.27
X2.817Y-20.27
X30.53Y-13.17
X33.07Y7.15
X30.53Y-15.71
X30.53Y-8.09
X33.07Y-5.55
X33.07Y-0.47
X33.07Y-18.25
X30.53Y-3.01
X30.53Y-18.25
X33.07Y-15.71
X33.07Y14.77
X30.53Y12.23
X30.53Y9.69
X30.53Y4.61
X30.53Y-5.55
X30.53Y2.07
X30.53Y-10.63
X30.53Y17.31
X30.53Y7.15
X33.07Y-13.17
X33.07Y4.61
X33.07Y-8.09
X33.07Y12.23
X33.07Y2.07
X30.53Y14.77
X30.53Y-0.47
X33.07Y9.69
X33.07Y-3.01
X33.07Y17.31
X33.07Y-10.63
X15.04Y-17.53
X15.04Y-20.07
X-14.438Y27.34
X23.662Y24.8
X-9.358Y27.34
X-11.898Y27.34
X13.502Y27.34
X-6.818Y24.8
X3.342Y24.8
X18.582Y27.34
X-4.278Y27.34
X0.802Y24.8
X21.122Y24.8
X-1.738Y27.34
X18.582Y24.8
X-11.898Y24.8
X-16.978Y24.8
X8.422Y24.8
X-22.058Y27.34
X16.042Y24.8
X-9.358Y24.8
X28.742Y24.8
X21.122Y27.34
X0.802Y27.34
X-6.818Y27.34
X8.422Y27.34
X-24.598Y27.34
X3.342Y27.34
X5.882Y24.8
X-22.058Y24.8
X16.042Y27.34
X10.962Y24.8
X-24.598Y24.8
X13.502Y24.8
X10.962Y27.34
X23.662Y27.34
X-16.978Y27.34
X28.742Y27.34
X-4.278Y24.8
X-19.518Y24.8
X5.882Y27.34
X-1.738Y24.8
X26.202Y24.8
X-19.518Y27.34
X-14.438Y24.8
X26.202Y27.34
X27.34Y-10.63
X24.8Y-15.71
X24.8Y-5.55
X24.8Y-18.25
X27.34Y4.61
X27.34Y7.15
X24.8Y14.77
X24.8Y17.31
X27.34Y-18.25
X24.8Y-0.47
X27.34Y-5.55
X24.8Y9.69
X27.34Y-3.01
X27.34Y9.69
X24.8Y-13.17
X24.8Y-10.63
X27.34Y-8.09
X27.34Y17.31
X24.8Y12.23
X24.8Y2.07
X24.8Y7.15
X24.8Y-3.01
X27.34Y-0.47
X27.34Y-15.71
X24.8Y4.61
X27.34Y12.23
X24.8Y-8.09
X27.34Y2.07
X27.34Y14.77
X27.34Y-13.17
X-31.589Y22.531
X-31.589Y19.991
X-27.344Y-13.17
X-24.804Y7.15
X-27.344Y-15.71
X-27.344Y-8.09
X-24.804Y-5.55
X-24.804Y-0.47
X-24.804Y-18.25
X-27.344Y-3.01
X-27.344Y-18.25
X-24.804Y-15.71
X-24.804Y14.77
X-27.344Y12.23
X-27.344Y9.69
X-27.344Y4.61
X-27.344Y-5.55
X-27.344Y2.07
X-27.344Y-10.63
X-27.344Y17.31
X-27.344Y7.15
X-24.804Y-13.17
X-24.804Y4.61
X-24.804Y-8.09
X-24.804Y12.23
X-24.804Y2.07
X-27.344Y14.77
X-27.344Y-0.47
X-24.804Y9.69
X-24.804Y-3.01
X-24.804Y17.31
X-24.804Y-10.63
T0
M30
