M48
; #@! TF.GenerationSoftware,LibrePCB,LibrePCB,1.1.0
; #@! TF.CreationDate,2024-09-08T17:15:58
; #@! TF.ProjectId,flasher,f4b07f79-14a2-4070-9d7d-1f686dcb10c4,v1
; #@! TF.Part,Single
; #@! TF.SameCoordinates
; #@! TF.FileFunction,Plated,1,13,PTH
FMAT,2
METRIC,TZ
; #@! TA.AperFunction,ViaDrill
T1C0.2
%
G90
G05
M71
T1
X-6.018Y-8.993
X2.017Y10.042
X-5.018Y10.042
X3.018Y-12.994
X7.017Y1.042
X-1.018Y-10.993
X-10.018Y-1.993
X-4.018Y13.042
X1.017Y9.042
X-3.018Y-2.993
X-5.018Y2.042
X-29.692Y20.808
X12.018Y-4.994
X-2.018Y7.042
X-2.018Y-5.993
X-2.018Y9.042
X-5.018Y11.042
X-11.018Y-8.993
X-1.018Y7.042
X-3.018Y-9.993
X-12.018Y5.042
X-5.018Y-8.993
X-6.018Y12.042
X13.018Y-7.994
X-2.018Y-6.993
X-13.018Y8.042
X-2.018Y-12.993
X-4.018Y8.042
X1.017Y8.042
X-13.018Y-12.993
X-4.018Y-3.993
X-3.018Y-6.993
X10.017Y12.042
X-8.018Y-7.993
X-6.018Y9.042
X1.018Y-7.994
X10.017Y2.042
X8.018Y-12.994
X-7.018Y11.042
X-5.018Y-2.993
X-1.018Y10.042
X-4.018Y-12.993
X1.017Y12.042
X-2.018Y-8.993
X12.017Y6.042
X1.018Y-11.994
X-1.018Y11.042
X-5.018Y-0.993
X13.017Y3.042
X3.018Y-10.994
X-2.018Y13.042
X-5.018Y4.042
X-4.018Y-6.993
X-10.018Y9.042
X-8.018Y-12.993
X-6.018Y13.042
X-4.018Y-8.993
X-12.018Y-5.993
X4.017Y10.042
X-8.018Y-10.993
X-8.018Y12.042
X-10.018Y-11.993
X-6.018Y-12.993
X2.017Y11.042
X-9.018Y6.042
X2.018Y-0.994
X-2.018Y3.042
X-8.018Y13.042
X-4.018Y9.042
X10.018Y-8.994
X-2.018Y-7.993
X-4.018Y-11.993
X-1.018Y4.042
X-6.018Y-3.993
X-6.018Y-11.993
X9.017Y5.042
X-1.018Y-0.993
X1.017Y13.042
X-1.018Y-2.993
X-2.018Y-3.993
X1.018Y-8.994
X-8.018Y11.042
X9.018Y-5.994
X13.017Y13.042
X2.018Y-11.994
X-27.692Y20.108
X-3.018Y4.042
X-2.018Y-11.993
X-27.992Y19.508
X6.017Y4.042
X-5.018Y-5.993
X-1.018Y-9.993
X3.017Y3.042
X11.017Y9.042
X-11.018Y12.042
X-5.018Y-10.993
X-4.018Y-7.993
X-8.018Y3.042
X7.017Y11.042
X-5.018Y8.042
X-2.018Y8.042
X-3.018Y10.042
X-3.018Y-10.993
X-4.018Y12.042
X-5.018Y-7.993
X3.017Y12.042
X6.018Y-6.994
X7.175Y-15.852
X5.017Y7.042
X-28.692Y20.608
X5.018Y-3.994
X-1.018Y2.042
X2.018Y-10.994
X11.018Y-1.994
X-7.018Y-9.993
X-29.692Y20.108
X-5.018Y9.042
X-12.735Y-11.175
X-4.018Y1.042
X-9.018Y-4.993
X-4.018Y7.042
X3.017Y13.042
X1.018Y-12.994
X8.017Y8.042
X-2.018Y12.042
X-3.018Y7.042
X4.018Y-0.994
X-4.018Y-1.993
X3.017Y11.042
X2.018Y-4.994
X-8.018Y-11.993
X-2.018Y5.042
X-1.018Y-6.993
X-28.692Y19.508
X-5.018Y-6.993
X-3.018Y11.042
X-27.692Y20.808
X-7.018Y-10.993
X8.018Y-2.994
X2.017Y9.042
X-7.018Y9.042
X-1.018Y-4.993
X-11.018Y2.042
X11.018Y-11.994
X7.018Y-9.994
X2.017Y12.042
X-5.018Y-9.993
X2.018Y-9.994
X-4.018Y3.042
X-13.018Y-2.993
X3.018Y-7.994
X-7.018Y10.042
X-29.392Y19.508
T0
M30
