M48
; #@! TF.GenerationSoftware,LibrePCB,LibrePCB,1.1.0
; #@! TF.CreationDate,2024-09-08T17:15:58
; #@! TF.ProjectId,flasher,f4b07f79-14a2-4070-9d7d-1f686dcb10c4,v1
; #@! TF.Part,Single
; #@! TF.SameCoordinates
; #@! TF.FileFunction,Plated,1,13,PTH
FMAT,2
METRIC,TZ
; #@! TA.AperFunction,ViaDrill
T1C0.2
%
G90
G05
M71
T1
X3.875Y5.3
X-18.17Y-10.103
X-11.602Y5.564
X3.875Y4.7
X-2.5Y-0.7
X9.7Y9.1
X-6.393Y2.503
X-3.157Y9.24
X-4.0Y14.7
X-12.602Y5.564
X-11.3Y-10.6
X-21.27Y-10.103
X-8.1Y2.5
X-19.67Y-10.003
X-9.618Y2.549
X5.2Y8.427
X-5.0Y14.7
X8.125Y8.524
X-2.5Y1.0
X-7.0Y14.7
X-6.0Y14.7
T0
M30
