M48
; #@! TF.GenerationSoftware,LibrePCB,LibrePCB,1.1.0
; #@! TF.CreationDate,2024-09-08T17:15:58
; #@! TF.ProjectId,flasher,f4b07f79-14a2-4070-9d7d-1f686dcb10c4,v1
; #@! TF.Part,Single
; #@! TF.SameCoordinates
; #@! TF.FileFunction,Plated,1,13,PTH
FMAT,2
METRIC,TZ
; #@! TA.AperFunction,ViaDrill
T1C0.2
%
G90
G05
M71
T1
X5.017Y10.042
X10.017Y10.042
X18.848Y-2.994
X5.357Y-22.57
X5.017Y14.752
X1.017Y6.042
X17.286Y2.042
X9.017Y11.042
X-9.018Y9.042
X-4.418Y-33.833
X2.018Y-1.994
X-15.728Y9.042
X10.018Y-0.994
X10.017Y3.042
X-9.018Y12.042
X-18.536Y-0.008
X10.018Y-10.994
X8.018Y-9.994
X15.498Y-11.994
X-11.018Y10.042
X10.018Y-2.994
X3.017Y10.042
X16.517Y11.042
X9.018Y-1.994
X2.018Y-15.474
X-18.808Y11.042
X6.017Y15.522
X6.018Y-8.994
X1.017Y15.522
X6.017Y10.042
X17.038Y-10.994
X-13.958Y7.042
X-10.018Y11.042
X3.017Y15.522
X11.017Y11.042
X9.017Y2.042
X-12.018Y7.042
X16.517Y10.042
X9.017Y14.752
X-20.348Y12.042
X-18.038Y10.042
X15.746Y3.042
X9.018Y-11.994
T0
M30
