G04 --- HEADER BEGIN --- *
G04 #@! TF.GenerationSoftware,LibrePCB,LibrePCB,1.1.0*
G04 #@! TF.CreationDate,2024-09-08T17:15:58*
G04 #@! TF.ProjectId,flasher,f4b07f79-14a2-4070-9d7d-1f686dcb10c4,v1*
G04 #@! TF.Part,Single*
G04 #@! TF.SameCoordinates*
G04 #@! TF.FileFunction,Copper,L1,Top*
G04 #@! TF.FilePolarity,Positive*
%FSLAX66Y66*%
%MOMM*%
G01*
G75*
G04 --- HEADER END --- *
G04 --- APERTURE LIST BEGIN --- *
G04 #@! TA.AperFunction,BGAPad,CuDef*
%AMOUTLINE10*4,1,21,0.078986,-0.401543,0.148445,-0.36144,0.2,-0.3,0.3,-0.15,0.339409,-0.046086,0.343884,0.06496,0.312964,0.171709,0.249832,0.263172,0.160985,0.329936,0.055568,0.365129,-0.055568,0.365129,-0.160985,0.329936,-0.249832,0.263172,-0.312964,0.171708,-0.343884,0.06496,-0.339409,-0.046086,-0.3,-0.15,-0.2,-0.3,-0.148445,-0.36144,-0.078986,-0.401543,0.0,-0.41547,0.078986,-0.401543,45.0*%
%ADD10OUTLINE10*%
%AMOUTLINE11*4,1,21,0.078986,-0.401543,0.148445,-0.36144,0.2,-0.3,0.3,-0.15,0.339409,-0.046086,0.343884,0.06496,0.312964,0.171709,0.249832,0.263172,0.160985,0.329936,0.055568,0.365129,-0.055568,0.365129,-0.160985,0.329936,-0.249832,0.263172,-0.312964,0.171708,-0.343884,0.06496,-0.339409,-0.046086,-0.3,-0.15,-0.2,-0.3,-0.148445,-0.36144,-0.078986,-0.401543,0.0,-0.41547,0.078986,-0.401543,135.0*%
%ADD11OUTLINE11*%
%AMOUTLINE12*4,1,21,0.078986,-0.401543,0.148445,-0.36144,0.2,-0.3,0.3,-0.15,0.339409,-0.046086,0.343884,0.06496,0.312964,0.171709,0.249832,0.263172,0.160985,0.329936,0.055568,0.365129,-0.055568,0.365129,-0.160985,0.329936,-0.249832,0.263172,-0.312964,0.171708,-0.343884,0.06496,-0.339409,-0.046086,-0.3,-0.15,-0.2,-0.3,-0.148445,-0.36144,-0.078986,-0.401543,0.0,-0.41547,0.078986,-0.401543,315.0*%
%ADD12OUTLINE12*%
%AMOUTLINE13*4,1,21,0.078986,-0.401543,0.148445,-0.36144,0.2,-0.3,0.3,-0.15,0.339409,-0.046086,0.343884,0.06496,0.312964,0.171709,0.249832,0.263172,0.160985,0.329936,0.055568,0.365129,-0.055568,0.365129,-0.160985,0.329936,-0.249832,0.263172,-0.312964,0.171708,-0.343884,0.06496,-0.339409,-0.046086,-0.3,-0.15,-0.2,-0.3,-0.148445,-0.36144,-0.078986,-0.401543,0.0,-0.41547,0.078986,-0.401543,225.0*%
%ADD13OUTLINE13*%
G04 #@! TA.AperFunction,ComponentPad*
%ADD14O,2.19X1.587*%
%ADD15R,2.19X1.587*%
G04 #@! TA.AperFunction,SMDPad,CuDef*
%ADD16R,0.6X0.43*%
%ADD17R,0.2X0.2*%
%ADD18R,0.8X0.85*%
%ADD19R,0.8X0.75*%
G04 #@! TA.AperFunction,ComponentPad*
%ADD20O,1.587X2.19*%
%ADD21R,1.587X2.19*%
G04 #@! TA.AperFunction,SMDPad,CuDef*
%ADD22R,0.75X1.25*%
G04 #@! TA.AperFunction,ViaPad*
%ADD23C,0.4*%
G04 #@! TA.AperFunction,Conductor*
%ADD24C,0.083*%
%ADD25C,0.08*%
%ADD26C,0.01*%
G04 #@! TD*
G04 --- APERTURE LIST END --- *
G04 --- BOARD BEGIN --- *
D10*
G04 #@! TO.N,N/C*
G04 #@! TO.C,LOGIC1*
G04 #@! TO.P,LOGIC1,W21,W21_IO_L14P_T2_SRCC_13*
X7500000Y-5475500D03*
D11*
G04 #@! TO.N,GND*
G04 #@! TO.P,LOGIC1,C20,C20_GND*
X6500000Y10524500D03*
G04 #@! TO.N,N/C*
G04 #@! TO.P,LOGIC1,E25,E25_IO_L20P_T3_A20_15*
X11500000Y8524500D03*
D12*
G04 #@! TO.P,LOGIC1,U5,U5_IO_L21N_T3_DQS_34*
X-8500000Y-3475500D03*
D11*
G04 #@! TO.N,P14_3V3*
G04 #@! TO.P,LOGIC1,M20,M20_IO_L8P_T1_D11_14*
X6500000Y1524500D03*
D13*
G04 #@! TO.N,GND*
G04 #@! TO.P,LOGIC1,C13,C13_GND*
X-500000Y10524500D03*
D10*
G04 #@! TO.N,N/C*
G04 #@! TO.P,LOGIC1,AB26,AB26_IO_L3P_T0_DQS_13*
X12500000Y-8475500D03*
D13*
G04 #@! TO.P,LOGIC1,L4,L4_IO_L3N_T0_DQS_34*
X-9500000Y2524500D03*
G04 #@! TO.N,GND*
G04 #@! TO.P,LOGIC1,E12,E12_GND*
X-1500000Y8524500D03*
D10*
G04 #@! TO.N,N/C*
G04 #@! TO.P,LOGIC1,W23,W23_IO_L10N_T1_13*
X9500000Y-5475500D03*
D12*
G04 #@! TO.N,VCC1V0*
G04 #@! TO.P,LOGIC1,T10,T10_VCCINT*
X-3500000Y-2475500D03*
D11*
G04 #@! TO.N,P21_1V8*
G04 #@! TO.P,LOGIC1,A24,A24_IO_L21N_T3_DQS_16*
X10500000Y12524500D03*
D10*
G04 #@! TO.N,P45_3V3*
G04 #@! TO.P,LOGIC1,AE22,AE22_IO_L9P_T1_DQS_12*
X8500000Y-11475500D03*
D12*
G04 #@! TO.N,N/C*
G04 #@! TO.P,LOGIC1,Y2,Y2_IO_L8P_T1_33*
X-11500000Y-6475500D03*
D11*
G04 #@! TO.N,VCC1V8*
G04 #@! TO.P,LOGIC1,B18,B18_VCCO_16*
X4500000Y11524500D03*
D12*
G04 #@! TO.N,N/C*
G04 #@! TO.P,LOGIC1,AE7,AE7_MGTPTXP3_213*
X-6500000Y-11475500D03*
D10*
G04 #@! TO.N,P41_3V3*
G04 #@! TO.P,LOGIC1,AF20,AF20_IO_L8N_T1_12*
X6500000Y-12475500D03*
D13*
G04 #@! TO.N,GND*
G04 #@! TO.P,LOGIC1,E9,E9_GND*
X-4500000Y8524500D03*
D10*
G04 #@! TO.N,D1*
G04 #@! TO.P,LOGIC1,R15,R15_IO_L1N_T0_D01_DIN_14*
X1500000Y-1475500D03*
G04 #@! TO.N,N/C*
G04 #@! TO.P,LOGIC1,AB25,AB25_IO_L7N_T1_13*
X11500000Y-8475500D03*
G04 #@! TO.P,LOGIC1,AE18,AE18_IO_L16P_T2_12*
X4500000Y-11475500D03*
D13*
G04 #@! TO.N,GND*
G04 #@! TO.P,LOGIC1,M9,M9_GND*
X-4500000Y1524500D03*
D10*
G04 #@! TO.N,N/C*
G04 #@! TO.P,LOGIC1,T19,T19_IO_L17P_T2_13*
X5500000Y-2475500D03*
D13*
G04 #@! TO.N,P71_1V8*
G04 #@! TO.P,LOGIC1,G5,G5_IO_L12P_T1_MRCC_35*
X-8500000Y6524500D03*
G04 #@! TO.N,VCC1V8*
G04 #@! TO.P,LOGIC1,N9,N9_VCCAUX*
X-4500000Y524500D03*
G04 #@! TO.N,GND*
G04 #@! TO.P,LOGIC1,K11,K11_GND*
X-2500000Y3524500D03*
G04 #@! TO.N,N/C*
G04 #@! TO.P,LOGIC1,B9,B9_MGTPTXP2_216*
X-4500000Y11524500D03*
D10*
G04 #@! TO.N,VCC3V3*
G04 #@! TO.P,LOGIC1,AA21,AA21_VCCO_12*
X7500000Y-7475500D03*
D12*
G04 #@! TO.N,GND*
G04 #@! TO.P,LOGIC1,W2,W2_GND*
X-11500000Y-5475500D03*
G04 #@! TO.P,LOGIC1,AF1,AF1_GND*
X-12500000Y-12475500D03*
G04 #@! TO.N,N/C*
G04 #@! TO.P,LOGIC1,AC1,AC1_IO_L7N_T1_33*
X-12500000Y-9475500D03*
D13*
G04 #@! TO.P,LOGIC1,N12,N12_VP_0*
X-1500000Y524500D03*
D12*
G04 #@! TO.P,LOGIC1,U2,U2_IO_L18P_T2_34*
X-11500000Y-3475500D03*
D10*
G04 #@! TO.P,LOGIC1,R16,R16_IO_L5P_T0_D06_14*
X2500000Y-1475500D03*
D12*
G04 #@! TO.P,LOGIC1,V3,V3_IO_L3P_T0_DQS_33*
X-10500000Y-4475500D03*
D13*
G04 #@! TO.N,GND*
G04 #@! TO.P,LOGIC1,M3,M3_GND*
X-10500000Y1524500D03*
D12*
G04 #@! TO.P,LOGIC1,T13,T13_GND*
X-500000Y-2475500D03*
D11*
G04 #@! TO.N,N/C*
G04 #@! TO.P,LOGIC1,L18,L18_IO_L9N_T1_AD10N_15*
X4500000Y2524500D03*
D13*
G04 #@! TO.N,P63_1V8*
G04 #@! TO.P,LOGIC1,E3,E3_IO_L18N_T2_35*
X-10500000Y8524500D03*
D11*
G04 #@! TO.N,GND*
G04 #@! TO.P,LOGIC1,E14,E14_GND*
X500000Y8524500D03*
D10*
G04 #@! TO.P,LOGIC1,AC15,AC15_GND*
X1500000Y-9475500D03*
D13*
G04 #@! TO.N,N/C*
G04 #@! TO.P,LOGIC1,L2,L2_IO_L11N_T1_SRCC_34*
X-11500000Y2524500D03*
D10*
G04 #@! TO.P,LOGIC1,Y25,Y25_IO_L5P_T0_13*
X11500000Y-6475500D03*
D13*
G04 #@! TO.N,P54_1V8*
G04 #@! TO.P,LOGIC1,B5,B5_IO_L15P_T2_DQS_35*
X-8500000Y11524500D03*
G04 #@! TO.N,N/C*
G04 #@! TO.P,LOGIC1,G8,G8IO_L2N_T0_AD12N_35*
X-5500000Y6524500D03*
D11*
G04 #@! TO.N,P10_1V8*
G04 #@! TO.P,LOGIC1,A19,A19_IO_L10N_T1_16*
X5500000Y12524500D03*
D12*
G04 #@! TO.N,VCC3V3*
G04 #@! TO.P,LOGIC1,W11,W11_VCCO_0*
X-2500000Y-5475500D03*
D13*
G04 #@! TO.N,P57_1V8*
G04 #@! TO.P,LOGIC1,C4,C4_IO_L14N_T2_SRCC_35*
X-9500000Y10524500D03*
D12*
G04 #@! TO.N,N/C*
G04 #@! TO.P,LOGIC1,R3,R3_IO_L13P_T2_MRCC_34*
X-10500000Y-1475500D03*
D13*
G04 #@! TO.N,VCC1V0*
G04 #@! TO.P,LOGIC1,K12,K12_VCCINT*
X-1500000Y3524500D03*
D12*
G04 #@! TO.N,N/C*
G04 #@! TO.P,LOGIC1,AB6,AB6_IO_L24P_T3_33*
X-7500000Y-8475500D03*
G04 #@! TO.P,LOGIC1,AA8,AA8_IO_L23N_T3_33*
X-5500000Y-7475500D03*
G04 #@! TO.N,GND*
G04 #@! TO.P,LOGIC1,AF10,AF10_GND*
X-3500000Y-12475500D03*
D11*
G04 #@! TO.P,LOGIC1,E15,E15_GND*
X1500000Y8524500D03*
D13*
G04 #@! TO.N,N/C*
G04 #@! TO.P,LOGIC1,E11,E11_MGTREFCLK0N_216*
X-2500000Y8524500D03*
G04 #@! TO.N,GND*
G04 #@! TO.P,LOGIC1,E10,E10_GND*
X-3500000Y8524500D03*
G04 #@! TO.P,LOGIC1,F1,F1_GND*
X-12500000Y7524500D03*
D11*
G04 #@! TO.N,P2_1V8*
G04 #@! TO.P,LOGIC1,B17,B17_IO_L7N_T1_16*
X3500000Y11524500D03*
D13*
G04 #@! TO.N,N/C*
G04 #@! TO.P,LOGIC1,H1,H1_IO_L10N_T1_34*
X-12500000Y5524500D03*
D10*
G04 #@! TO.P,LOGIC1,V26,V26_IO_L2P_T0_13*
X12500000Y-4475500D03*
D12*
G04 #@! TO.P,LOGIC1,Y7,Y7_IO_L19P_T3_33*
X-6500000Y-6475500D03*
D10*
G04 #@! TO.N,P20_3V3*
G04 #@! TO.P,LOGIC1,R23,R23_IO_L24N_T3_A00_D16_14*
X9500000Y-1475500D03*
G04 #@! TO.N,P46_3V3*
G04 #@! TO.P,LOGIC1,AE21,AE21_IO_L7N_T1_12*
X7500000Y-11475500D03*
G04 #@! TO.N,N/C*
G04 #@! TO.P,LOGIC1,AC17,AC17_IO_L20P_T3_12*
X3500000Y-9475500D03*
D12*
G04 #@! TO.N,GND*
G04 #@! TO.P,LOGIC1,AE10,AE10_MGTAVTT_G10*
X-3500000Y-11475500D03*
D13*
G04 #@! TO.N,N/C*
G04 #@! TO.P,LOGIC1,N11,N11_VREFN_0*
X-2500000Y524500D03*
D12*
G04 #@! TO.P,LOGIC1,V8,V8_IO_L21P_T3_DQS_33*
X-5500000Y-4475500D03*
D13*
G04 #@! TO.P,LOGIC1,H9,H9_IO_L6P_T0_35*
X-4500000Y5524500D03*
D11*
G04 #@! TO.P,LOGIC1,E26,E26_IO_L21P_T3_DQS_15*
X12500000Y8524500D03*
G04 #@! TO.N,GND*
G04 #@! TO.P,LOGIC1,L16,L16_GND*
X2500000Y2524500D03*
G04 #@! TO.N,N/C*
G04 #@! TO.P,LOGIC1,H19,H19_IO_L7N_T1_AD2N_15*
X5500000Y5524500D03*
D10*
G04 #@! TO.P,LOGIC1,Y16,Y16_IO_L21P_T3_DQS_12*
X2500000Y-6475500D03*
D11*
G04 #@! TO.P,LOGIC1,F20,F20_IO_L5N_T0_16*
X6500000Y7524500D03*
D10*
G04 #@! TO.N,P52_3V3*
G04 #@! TO.P,LOGIC1,AD20,AD20_IO_L10P_T1_12*
X6500000Y-10475500D03*
D12*
G04 #@! TO.N,N/C*
G04 #@! TO.P,LOGIC1,AE2,AE2_IO_L10P_T1_33*
X-11500000Y-11475500D03*
G04 #@! TO.P,LOGIC1,AA3,AA3_IO_L12P_T1_MRCC_33*
X-10500000Y-7475500D03*
D11*
G04 #@! TO.P,LOGIC1,G24,G24_IO_L19P_T3_A22_15*
X10500000Y6524500D03*
D10*
G04 #@! TO.N,P33_3V3*
G04 #@! TO.P,LOGIC1,R21,R21_IO_L18N_T2_A11_D27_14*
X7500000Y-1475500D03*
D12*
G04 #@! TO.N,N/C*
G04 #@! TO.P,LOGIC1,W7,W7_VCCO_33*
X-6500000Y-5475500D03*
D11*
G04 #@! TO.N,P30_3V3*
G04 #@! TO.P,LOGIC1,N19,N19_IO_L16N_T2_A15_D31_14*
X5500000Y524500D03*
D10*
G04 #@! TO.N,P56_3V3*
G04 #@! TO.P,LOGIC1,AC21,AC21_IO_L11N_T1_SRCC_12*
X7500000Y-9475500D03*
G04 #@! TO.N,P48_3V3*
G04 #@! TO.P,LOGIC1,AD24,AD24_IO_L6N_T0_VREF_12*
X10500000Y-10475500D03*
G04 #@! TO.N,P24_3V3*
G04 #@! TO.P,LOGIC1,T25,T25_IO_L21N_T3_DQS_A06_D22_14*
X11500000Y-2475500D03*
G04 #@! TO.N,N/C*
G04 #@! TO.P,LOGIC1,Y18,Y18_IO_L17P_T2_12*
X4500000Y-6475500D03*
D13*
G04 #@! TO.N,GND*
G04 #@! TO.P,LOGIC1,G10,G10_GND*
X-3500000Y6524500D03*
G04 #@! TO.N,N/C*
G04 #@! TO.P,LOGIC1,D12,D12_MGTPRXP3_216*
X-1500000Y9524500D03*
D12*
G04 #@! TO.P,LOGIC1,AA7,AA7_IO_L19N_T3_VREF_33*
X-6500000Y-7475500D03*
D11*
G04 #@! TO.N,GND*
G04 #@! TO.P,LOGIC1,B23,B23_GND*
X9500000Y11524500D03*
D10*
G04 #@! TO.N,N/C*
G04 #@! TO.P,LOGIC1,AF19,AF19_IO_L8P_T1_12*
X5500000Y-12475500D03*
D13*
G04 #@! TO.N,GND*
G04 #@! TO.P,LOGIC1,E8,E8_GND*
X-5500000Y8524500D03*
G04 #@! TO.N,VCC1V8*
G04 #@! TO.P,LOGIC1,J7,J7_VCCO_35*
X-6500000Y4524500D03*
G04 #@! TO.N,VCC1V0*
G04 #@! TO.P,LOGIC1,M10,M10_VCCINT*
X-3500000Y1524500D03*
D11*
G04 #@! TO.N,P23_1V8*
G04 #@! TO.P,LOGIC1,B26,B26_IO_L22N_T3_16*
X12500000Y11524500D03*
G04 #@! TO.N,N/C*
G04 #@! TO.P,LOGIC1,H20,H20_VCCO_15*
X6500000Y5524500D03*
G04 #@! TO.N,P7_3V3*
G04 #@! TO.P,LOGIC1,M22,M22_IO_L12N_T1_MRCC_14*
X8500000Y1524500D03*
D13*
G04 #@! TO.N,P67_1V8*
G04 #@! TO.P,LOGIC1,F3,F3_IO_L18P_T2_35*
X-10500000Y7524500D03*
D10*
G04 #@! TO.N,P35_3V3*
G04 #@! TO.P,LOGIC1,AE26,AE26_IO_L1N_T0_12*
X12500000Y-11475500D03*
D11*
G04 #@! TO.N,P13_1V8*
G04 #@! TO.P,LOGIC1,A20,A20_IO_L15N_T2_DQS_16*
X6500000Y12524500D03*
D13*
G04 #@! TO.N,N/C*
G04 #@! TO.P,LOGIC1,K8,K8_IO_L8N_T1_AD14N_35*
X-5500000Y3524500D03*
D10*
G04 #@! TO.N,P18_3V3*
G04 #@! TO.P,LOGIC1,P25,P25_IO_L19N_T3_A09_D25_VREF_14*
X11500000Y-475500D03*
D12*
G04 #@! TO.N,N/C*
G04 #@! TO.P,LOGIC1,R5,R5_IO_L20N_T3_34*
X-8500000Y-1475500D03*
D10*
G04 #@! TO.P,LOGIC1,AC14,AC14_MGTPRXP2_213*
X500000Y-9475500D03*
D13*
G04 #@! TO.N,P61_1V8*
G04 #@! TO.P,LOGIC1,D6,D6_IO_L1N_T0_AD4N_35*
X-7500000Y9524500D03*
D12*
G04 #@! TO.N,N/C*
G04 #@! TO.P,LOGIC1,AF13,AF13_MGTPRXN1_213*
X-500000Y-12475500D03*
D13*
G04 #@! TO.P,LOGIC1,K6,K6_IO_L10N_T1_AD15N_35*
X-7500000Y3524500D03*
D10*
G04 #@! TO.P,LOGIC1,AA25,AA25_IO_L5N_T0_13*
X11500000Y-7475500D03*
D13*
G04 #@! TO.N,VCC1V8*
G04 #@! TO.P,LOGIC1,A1,A1_VCCO_35*
X-12500000Y12524500D03*
G04 #@! TO.N,N/C*
G04 #@! TO.P,LOGIC1,L7,L7_IO_L2N_T0_34*
X-6500000Y2524500D03*
D11*
G04 #@! TO.N,GND*
G04 #@! TO.P,LOGIC1,L26,L26_GND*
X12500000Y2524500D03*
D12*
G04 #@! TO.P,LOGIC1,P13,P13_GND*
X-500000Y-475500D03*
D10*
G04 #@! TO.N,N/C*
G04 #@! TO.P,LOGIC1,W24,W24_IO_L6N_T0_VREF_13*
X10500000Y-5475500D03*
D11*
G04 #@! TO.N,P8_1V8*
G04 #@! TO.P,LOGIC1,C19,C19_IO_L13N_T2_MRCC_16*
X5500000Y10524500D03*
D12*
G04 #@! TO.N,GND*
G04 #@! TO.P,LOGIC1,AF8,AF8_GND*
X-5500000Y-12475500D03*
G04 #@! TO.P,LOGIC1,Y9,Y9_M1_0*
X-4500000Y-6475500D03*
D11*
G04 #@! TO.N,P27_3V3*
G04 #@! TO.P,LOGIC1,M21,M21_IO_L12P_T1_MRCC_14*
X7500000Y1524500D03*
D12*
G04 #@! TO.N,N/C*
G04 #@! TO.P,LOGIC1,Y6,Y6_IO_L20P_T3_33*
X-7500000Y-6475500D03*
D11*
G04 #@! TO.P,LOGIC1,F22,F22_IO_L15N_T2_DQS_ADV_B_15*
X8500000Y7524500D03*
G04 #@! TO.N,GND*
G04 #@! TO.P,LOGIC1,B16,B16_GND*
X2500000Y11524500D03*
D13*
G04 #@! TO.N,P48_1V8*
G04 #@! TO.P,LOGIC1,C1,C1_IO_L21P_T3_DQS_35*
X-12500000Y10524500D03*
D10*
G04 #@! TO.N,N/C*
G04 #@! TO.P,LOGIC1,AC26,AC26_IO_L3N_T0_DQS_13*
X12500000Y-9475500D03*
D13*
G04 #@! TO.P,LOGIC1,M1,M1_IO_L9N_T1_DQS_34*
X-12500000Y1524500D03*
G04 #@! TO.P,LOGIC1,F11,F11_MGTREFCLK0P_216*
X-2500000Y7524500D03*
D10*
G04 #@! TO.P,LOGIC1,U25,U25_IO_L1P_T0_13*
X11500000Y-3475500D03*
D11*
G04 #@! TO.N,P29_1V8*
G04 #@! TO.P,LOGIC1,C24,C24_IO_L23P_T3_16*
X10500000Y10524500D03*
D10*
G04 #@! TO.N,P36_3V3*
G04 #@! TO.P,LOGIC1,AE25,AE25_IO_L1P_T0_12*
X11500000Y-11475500D03*
G04 #@! TO.N,N/C*
G04 #@! TO.P,LOGIC1,AA24,AA24_IO_L7P_T1_13*
X10500000Y-7475500D03*
D12*
G04 #@! TO.N,M0*
G04 #@! TO.P,LOGIC1,AB7,AB7_M0_0*
X-6500000Y-8475500D03*
D13*
G04 #@! TO.N,P64_1V8*
G04 #@! TO.P,LOGIC1,E5,E5_IO_L13P_T2_MRCC_35*
X-8500000Y8524500D03*
G04 #@! TO.N,P65_1V8*
G04 #@! TO.P,LOGIC1,E6,E6_IO_L1P_T0_AD4P_35*
X-7500000Y8524500D03*
D12*
G04 #@! TO.N,VCC1V0*
G04 #@! TO.P,LOGIC1,T12,T12_VCCINT*
X-1500000Y-2475500D03*
D10*
G04 #@! TO.N,N/C*
G04 #@! TO.P,LOGIC1,W25,W25_IO_L4P_T0_13*
X11500000Y-5475500D03*
D12*
G04 #@! TO.N,VCC1V0*
G04 #@! TO.P,LOGIC1,U13,U13_VCCBRAM*
X-500000Y-3475500D03*
D11*
G04 #@! TO.N,P1_1V8*
G04 #@! TO.P,LOGIC1,C17,C17_IO_L7P_T1_16*
X3500000Y10524500D03*
G04 #@! TO.N,VCC1V8*
G04 #@! TO.P,LOGIC1,A21,A21_VCCO_16*
X7500000Y12524500D03*
D13*
G04 #@! TO.N,N/C*
G04 #@! TO.P,LOGIC1,J4,J4_IO_L9P_T1_DQS_AD7P_35*
X-9500000Y4524500D03*
D10*
G04 #@! TO.N,GND*
G04 #@! TO.P,LOGIC1,Y19,Y19_GND*
X5500000Y-6475500D03*
D12*
G04 #@! TO.P,LOGIC1,Y11,Y11_GND*
X-2500000Y-6475500D03*
G04 #@! TO.N,N/C*
G04 #@! TO.P,LOGIC1,P7,P7_GND*
X-6500000Y-475500D03*
D10*
G04 #@! TO.N,GND*
G04 #@! TO.P,LOGIC1,V25,V25_GND*
X11500000Y-4475500D03*
D13*
G04 #@! TO.N,N/C*
G04 #@! TO.P,LOGIC1,N8,N8_IO_0_34*
X-5500000Y524500D03*
D12*
G04 #@! TO.P,LOGIC1,AA11,AA11_MGTREFCLK1P_213*
X-2500000Y-7475500D03*
D11*
G04 #@! TO.N,P17_1V8*
G04 #@! TO.P,LOGIC1,C22,C22_IO_L19P_T3_16*
X8500000Y10524500D03*
D12*
G04 #@! TO.N,N/C*
G04 #@! TO.P,LOGIC1,P8,P8_IO_L22N_T3_34*
X-5500000Y-475500D03*
D13*
G04 #@! TO.N,GND*
G04 #@! TO.P,LOGIC1,D13,D13_MGTAVCC_G11*
X-500000Y9524500D03*
D10*
G04 #@! TO.N,N/C*
G04 #@! TO.P,LOGIC1,U19,U19_IO_L17N_T2_13*
X5500000Y-3475500D03*
D12*
G04 #@! TO.P,LOGIC1,R8,R8_IO_L22P_T3_34*
X-5500000Y-1475500D03*
G04 #@! TO.N,GND*
G04 #@! TO.P,LOGIC1,W12,W12_GND*
X-1500000Y-5475500D03*
D11*
G04 #@! TO.N,N/C*
G04 #@! TO.P,LOGIC1,J18,J18_IO_L10P_T1_AD11P_15*
X4500000Y4524500D03*
D13*
G04 #@! TO.N,GND*
G04 #@! TO.P,LOGIC1,B6,B6_GND*
X-7500000Y11524500D03*
D11*
G04 #@! TO.N,N/C*
G04 #@! TO.P,LOGIC1,K14,K14_VCCO_15*
X500000Y3524500D03*
D10*
G04 #@! TO.N,GND*
G04 #@! TO.P,LOGIC1,T21,T21_GND*
X7500000Y-2475500D03*
G04 #@! TO.N,N/C*
G04 #@! TO.P,LOGIC1,T15,T15_IO_L20N_T3_13*
X1500000Y-2475500D03*
G04 #@! TO.P,LOGIC1,Y21,Y21_IO_L14N_T2_SRCC_13*
X7500000Y-6475500D03*
D13*
G04 #@! TO.N,GND*
G04 #@! TO.P,LOGIC1,E7,E7_GND*
X-6500000Y8524500D03*
D11*
G04 #@! TO.N,N/C*
G04 #@! TO.P,LOGIC1,M19,M19_IO_0_14*
X5500000Y1524500D03*
G04 #@! TO.P,LOGIC1,L14,L14_IO_L4N_T0_15*
X500000Y2524500D03*
D12*
G04 #@! TO.P,LOGIC1,T5,T5_IO_L20P_T3_34*
X-8500000Y-2475500D03*
D11*
G04 #@! TO.N,P9_1V8*
G04 #@! TO.P,LOGIC1,B19,B19_IO_L10P_T1_16*
X5500000Y11524500D03*
D10*
G04 #@! TO.N,N/C*
G04 #@! TO.P,LOGIC1,W19,W19_IO_L18N_T2_13*
X5500000Y-5475500D03*
G04 #@! TO.P,LOGIC1,AC18,AC18_IO_L15P_T2_DQS_12*
X4500000Y-9475500D03*
D13*
G04 #@! TO.N,GND*
G04 #@! TO.P,LOGIC1,B12,B12_MGTAVTT_G11*
X-1500000Y11524500D03*
D10*
G04 #@! TO.N,P47_3V3*
G04 #@! TO.P,LOGIC1,AE20,AE20_IO_L10N_T1_12*
X6500000Y-11475500D03*
D12*
G04 #@! TO.N,N/C*
G04 #@! TO.P,LOGIC1,AE9,AE9_MGTPTXP1_213*
X-4500000Y-11475500D03*
G04 #@! TO.P,LOGIC1,V7,V7_IO_L6N_T0_VREF_33*
X-6500000Y-4475500D03*
D10*
G04 #@! TO.N,P31_3V3*
G04 #@! TO.P,LOGIC1,P19,P19_IO_L16P_T2_CSI_B_14*
X5500000Y-475500D03*
G04 #@! TO.N,N/C*
G04 #@! TO.P,LOGIC1,AB17,AB17_IO_L19N_T3_VREF_12*
X3500000Y-8475500D03*
D13*
G04 #@! TO.N,GND*
G04 #@! TO.P,LOGIC1,L12,L12_GND*
X-1500000Y2524500D03*
D12*
G04 #@! TO.N,N/C*
G04 #@! TO.P,LOGIC1,AF4,AF4_IO_L17N_T2_33*
X-9500000Y-12475500D03*
D11*
G04 #@! TO.N,P19_1V8*
G04 #@! TO.P,LOGIC1,A22,A22_IO_L17N_T2_16*
X8500000Y12524500D03*
D10*
G04 #@! TO.N,N/C*
G04 #@! TO.P,LOGIC1,T20,T20_IO_L15P_T2_DQS_13*
X6500000Y-2475500D03*
D12*
G04 #@! TO.N,VCC1V0*
G04 #@! TO.P,LOGIC1,R13,R13_VCCBRAM*
X-500000Y-1475500D03*
D10*
G04 #@! TO.N,N/C*
G04 #@! TO.P,LOGIC1,U15,U15_IO_L22P_T3_13*
X1500000Y-3475500D03*
D11*
G04 #@! TO.P,LOGIC1,E22,E22_IO_25_16*
X8500000Y8524500D03*
G04 #@! TO.N,GND*
G04 #@! TO.P,LOGIC1,M23,M23_GND*
X9500000Y1524500D03*
D10*
G04 #@! TO.N,N/C*
G04 #@! TO.P,LOGIC1,R17,R17_IO_L5N_T0_D07_14*
X3500000Y-1475500D03*
G04 #@! TO.P,LOGIC1,AF17,AF17_IO_L18N_T2_12*
X3500000Y-12475500D03*
G04 #@! TO.N,P21_3V3*
G04 #@! TO.P,LOGIC1,R25,R25_IO_L19P_T3_A10_D26_14*
X11500000Y-1475500D03*
D11*
G04 #@! TO.N,P40_1V8*
G04 #@! TO.P,LOGIC1,F18,F18_IO_L3P_T0_DQS_16*
X4500000Y7524500D03*
G04 #@! TO.N,P33_1V8*
G04 #@! TO.P,LOGIC1,H15,H15_IO_L1N_T0_16*
X1500000Y5524500D03*
G04 #@! TO.N,P9_3V3*
G04 #@! TO.P,LOGIC1,N26,N26_IO_L20P_T3_A08_D24_14*
X12500000Y524500D03*
D13*
G04 #@! TO.N,VCC1V8*
G04 #@! TO.P,LOGIC1,J9,J9_VCCAUX*
X-4500000Y4524500D03*
G04 #@! TO.N,N/C*
G04 #@! TO.P,LOGIC1,H6,H6_IO_L5P_T0_AD13P_35*
X-7500000Y5524500D03*
G04 #@! TO.P,LOGIC1,J6,J6_IO_L7P_T1_AD6P_35*
X-7500000Y4524500D03*
G04 #@! TO.P,LOGIC1,M5,M5_IO_L6N_T0_VREF_34*
X-8500000Y1524500D03*
D12*
G04 #@! TO.N,GND*
G04 #@! TO.P,LOGIC1,AC13,AC13_MGTAVCC_G10*
X-500000Y-9475500D03*
G04 #@! TO.N,DONE*
G04 #@! TO.P,LOGIC1,W10,W10_DONE_0*
X-3500000Y-5475500D03*
D11*
G04 #@! TO.N,N/C*
G04 #@! TO.P,LOGIC1,J26,J26_IO_L24N_T3_RS0_15*
X12500000Y4524500D03*
D12*
G04 #@! TO.P,LOGIC1,AB4,AB4_IO_L13N_T2_MRCC_33*
X-9500000Y-8475500D03*
G04 #@! TO.P,LOGIC1,U6,U6_IO_L21P_T3_DQS_34*
X-7500000Y-3475500D03*
D11*
G04 #@! TO.N,P2_3V3*
G04 #@! TO.P,LOGIC1,L24,L24_IO_L9P_T1_DQS_14*
X10500000Y2524500D03*
G04 #@! TO.N,N/C*
G04 #@! TO.P,LOGIC1,G23,G23_VCCO_15*
X9500000Y6524500D03*
D10*
G04 #@! TO.P,LOGIC1,AB24,AB24_IO_L9P_T1_DQS_13*
X10500000Y-8475500D03*
D11*
G04 #@! TO.N,D3*
G04 #@! TO.P,LOGIC1,N14,N14_IO_L2N_T0_D03_14*
X500000Y524500D03*
D10*
G04 #@! TO.N,GND*
G04 #@! TO.P,LOGIC1,AC20,AC20_GND*
X6500000Y-9475500D03*
D12*
G04 #@! TO.N,INIT_B*
G04 #@! TO.P,LOGIC1,V11,V11_INIT_B_0*
X-2500000Y-4475500D03*
G04 #@! TO.N,N/C*
G04 #@! TO.P,LOGIC1,W3,W3_IO_L5P_T0_33*
X-10500000Y-5475500D03*
D10*
G04 #@! TO.P,LOGIC1,V19,V19_IO_L18P_T2_13*
X5500000Y-4475500D03*
D13*
G04 #@! TO.P,LOGIC1,H11,H11_TMS_0*
X-2500000Y5524500D03*
G04 #@! TO.N,P45_1V8*
G04 #@! TO.P,LOGIC1,A4,A4_IO_L16N_T2_35*
X-9500000Y12524500D03*
G04 #@! TO.N,VCC1V0*
G04 #@! TO.P,LOGIC1,N13,N13_VCCBRAM*
X-500000Y524500D03*
D10*
G04 #@! TO.N,N/C*
G04 #@! TO.P,LOGIC1,Y22,Y22_IO_L11P_T1_SRCC_13*
X8500000Y-6475500D03*
D12*
G04 #@! TO.N,GND*
G04 #@! TO.P,LOGIC1,AC9,AC9_MGTAVCC_G10*
X-4500000Y-9475500D03*
D13*
G04 #@! TO.N,N/C*
G04 #@! TO.P,LOGIC1,F8,F8_IO_L4P_T0_35*
X-5500000Y7524500D03*
G04 #@! TO.P,LOGIC1,A13,A13_MGTPRXN2_216*
X-500000Y12524500D03*
D11*
G04 #@! TO.N,P15_1V8*
G04 #@! TO.P,LOGIC1,C21,C21_IO_L16P_T2_16*
X7500000Y10524500D03*
D13*
G04 #@! TO.N,GND*
G04 #@! TO.P,LOGIC1,C7,C7_MGTAVTT_G11*
X-6500000Y10524500D03*
G04 #@! TO.P,LOGIC1,A8,A8_GND*
X-5500000Y12524500D03*
D11*
G04 #@! TO.N,N/C*
G04 #@! TO.P,LOGIC1,J20,J20_IO_L9N_T1_DQS_AD3N_15*
X6500000Y4524500D03*
D12*
G04 #@! TO.P,LOGIC1,Y3,Y3_IO_L5N_T0_33*
X-10500000Y-6475500D03*
D11*
G04 #@! TO.N,P30_1V8*
G04 #@! TO.P,LOGIC1,D23,D23_IO_L24P_T3_16*
X9500000Y9524500D03*
D12*
G04 #@! TO.N,GND*
G04 #@! TO.P,LOGIC1,Y13,Y13_GND*
X-500000Y-6475500D03*
D10*
G04 #@! TO.N,P17_3V3*
G04 #@! TO.P,LOGIC1,P24,P24_IO_L17N_T2_A13_D29_14*
X10500000Y-475500D03*
D11*
G04 #@! TO.N,P42_1V8*
G04 #@! TO.P,LOGIC1,G17,G17_IO_L2P_T0_16*
X3500000Y6524500D03*
D13*
G04 #@! TO.N,CCLK*
G04 #@! TO.P,LOGIC1,H13,H13_CCLK_0*
X-500000Y5524500D03*
G04 #@! TO.N,N/C*
G04 #@! TO.P,LOGIC1,C10,C10_MGTPTXN3_216*
X-3500000Y10524500D03*
D10*
G04 #@! TO.P,LOGIC1,AD18,AD18_IO_L15N_T2_DQS_12*
X4500000Y-10475500D03*
D12*
G04 #@! TO.N,GND*
G04 #@! TO.P,LOGIC1,T1,T1_GND*
X-12500000Y-2475500D03*
D11*
G04 #@! TO.N,N/C*
G04 #@! TO.P,LOGIC1,H17,H17_IO_0_16*
X3500000Y5524500D03*
G04 #@! TO.P,LOGIC1,J23,J23_IO_L14P_T2_SRCC_15*
X9500000Y4524500D03*
G04 #@! TO.N,P6_1V8*
G04 #@! TO.P,LOGIC1,A18,A18_IO_L9N_T1_DQS_16*
X4500000Y12524500D03*
D13*
G04 #@! TO.N,N/C*
G04 #@! TO.P,LOGIC1,A9,A9_MGTPTXN2_216*
X-4500000Y12524500D03*
G04 #@! TO.N,GND*
G04 #@! TO.P,LOGIC1,E4,E4_GND*
X-9500000Y8524500D03*
D12*
G04 #@! TO.N,N/C*
G04 #@! TO.P,LOGIC1,P3,P3_IO_L13N_T2_MRCC_34*
X-10500000Y-475500D03*
D10*
G04 #@! TO.P,LOGIC1,U16,U16_IO_L22N_T3_13*
X2500000Y-3475500D03*
D13*
G04 #@! TO.N,VCC1V8*
G04 #@! TO.P,LOGIC1,L9,L9_VCCAUX*
X-4500000Y2524500D03*
D10*
G04 #@! TO.N,GND*
G04 #@! TO.P,LOGIC1,AA14,AA14_GND*
X500000Y-7475500D03*
G04 #@! TO.N,PROGRAM_B*
G04 #@! TO.P,LOGIC1,AE16,AE16_PROGRAM_B_0*
X2500000Y-11475500D03*
D11*
G04 #@! TO.N,N/C*
G04 #@! TO.P,LOGIC1,L17,L17_IO_L8P_T1_AD10P_15*
X3500000Y2524500D03*
G04 #@! TO.N,VCC3V3*
G04 #@! TO.P,LOGIC1,K24,K24_VCCO_14*
X10500000Y3524500D03*
D13*
G04 #@! TO.N,N/C*
G04 #@! TO.P,LOGIC1,H2,H2_IO_L10P_T1_34*
X-11500000Y5524500D03*
D12*
G04 #@! TO.P,LOGIC1,AB13,AB13_MGTREFCLK0N_213*
X-500000Y-8475500D03*
D11*
G04 #@! TO.N,P38_1V8*
G04 #@! TO.P,LOGIC1,E18,E18_IO_L11N_T1_SRCC_16*
X4500000Y8524500D03*
D10*
G04 #@! TO.N,N/C*
G04 #@! TO.P,LOGIC1,T17,T17_IO_L21P_T3_DQS_13*
X3500000Y-2475500D03*
D13*
G04 #@! TO.P,LOGIC1,M8,M8_VCCO_34*
X-5500000Y1524500D03*
G04 #@! TO.N,GND*
G04 #@! TO.P,LOGIC1,L10,L10_GND*
X-3500000Y2524500D03*
D11*
G04 #@! TO.N,N/C*
G04 #@! TO.P,LOGIC1,E21,E21_IO_L18P_T2_16*
X7500000Y8524500D03*
D10*
G04 #@! TO.P,LOGIC1,W15,W15_IO_L24N_T3_12*
X1500000Y-5475500D03*
D12*
G04 #@! TO.N,GND*
G04 #@! TO.P,LOGIC1,AC7,AC7_GND*
X-6500000Y-9475500D03*
G04 #@! TO.P,LOGIC1,T9,T9_GND*
X-4500000Y-2475500D03*
D11*
G04 #@! TO.N,VCC1V8*
G04 #@! TO.P,LOGIC1,G14,G14_VCCBATT_0*
X500000Y6524500D03*
D12*
G04 #@! TO.N,N/C*
G04 #@! TO.P,LOGIC1,AC4,AC4_IO_L18P_T2_33*
X-9500000Y-9475500D03*
D11*
G04 #@! TO.N,P35_1V8*
G04 #@! TO.P,LOGIC1,F15,F15_IO_L4N_T0_16*
X1500000Y7524500D03*
D13*
G04 #@! TO.N,N/C*
G04 #@! TO.P,LOGIC1,E13,E13_MGTREFCLK1N_216*
X-500000Y8524500D03*
D11*
G04 #@! TO.P,LOGIC1,J19,J19_IO_L7P_T1_AD2P_15*
X5500000Y4524500D03*
D13*
G04 #@! TO.N,GND*
G04 #@! TO.P,LOGIC1,F12,F12_MGTAVCC_G11*
X-1500000Y7524500D03*
D12*
G04 #@! TO.P,LOGIC1,AA9,AA9_GND*
X-4500000Y-7475500D03*
D13*
G04 #@! TO.N,N/C*
G04 #@! TO.P,LOGIC1,N1,N1_IO_L9P_T1_DQS_34*
X-12500000Y524500D03*
D12*
G04 #@! TO.N,GND*
G04 #@! TO.P,LOGIC1,AB9,AB9_GND*
X-4500000Y-8475500D03*
D13*
G04 #@! TO.N,N/C*
G04 #@! TO.P,LOGIC1,M6,M6_IO_L6P_T0_34*
X-7500000Y1524500D03*
G04 #@! TO.N,VCC1V8*
G04 #@! TO.P,LOGIC1,C5,C5_VCCO_35*
X-8500000Y10524500D03*
D12*
G04 #@! TO.N,N/C*
G04 #@! TO.P,LOGIC1,AC10,AC10_MGTPTXP0_213*
X-3500000Y-9475500D03*
D13*
G04 #@! TO.P,LOGIC1,K1,K1_IO_L7P_T1_34*
X-12500000Y3524500D03*
D11*
G04 #@! TO.N,P26_1V8*
G04 #@! TO.P,LOGIC1,B24,B24_IO_L23N_T3_16*
X10500000Y11524500D03*
G04 #@! TO.N,N/C*
G04 #@! TO.P,LOGIC1,F19,F19_IO_L3N_T0_DQS_16*
X5500000Y7524500D03*
D10*
G04 #@! TO.P,LOGIC1,U23,U23_VCCO_13*
X9500000Y-3475500D03*
D12*
G04 #@! TO.P,LOGIC1,AD2,AD2VCCO_33*
X-11500000Y-10475500D03*
D10*
G04 #@! TO.N,GND*
G04 #@! TO.P,LOGIC1,V15,V15_GND*
X1500000Y-4475500D03*
D11*
G04 #@! TO.N,P13_3V3*
G04 #@! TO.P,LOGIC1,L20,L20_IO_L8N_T1_D12_14*
X6500000Y2524500D03*
D12*
G04 #@! TO.N,N/C*
G04 #@! TO.P,LOGIC1,AB5,AB5_IO_L22N_T3_33*
X-8500000Y-8475500D03*
D10*
G04 #@! TO.N,P19_3V3*
G04 #@! TO.P,LOGIC1,R22,R22_IO_L23N_T3_A02_D18_14*
X8500000Y-1475500D03*
G04 #@! TO.N,N/C*
G04 #@! TO.P,LOGIC1,V14,V14_IO_L23N_T3_13*
X500000Y-4475500D03*
D13*
G04 #@! TO.P,LOGIC1,C12,C12_MGTPRXN3_216*
X-1500000Y10524500D03*
D10*
G04 #@! TO.P,LOGIC1,W14,W14_IO_L24P_T3_12*
X500000Y-5475500D03*
D13*
G04 #@! TO.P,LOGIC1,M2,M2_IO_L11P_T1_SRCC_34*
X-11500000Y1524500D03*
D12*
G04 #@! TO.P,LOGIC1,AE3,AE3_IO_L16P_T2_33*
X-10500000Y-11475500D03*
D10*
G04 #@! TO.P,LOGIC1,AA18,AA18_IO_L17N_T2_12*
X4500000Y-7475500D03*
D12*
G04 #@! TO.P,LOGIC1,AC12,AC12_MGTPRXP0_213*
X-1500000Y-9475500D03*
D13*
G04 #@! TO.N,GND*
G04 #@! TO.P,LOGIC1,N10,N10_GND*
X-3500000Y524500D03*
D12*
G04 #@! TO.N,N/C*
G04 #@! TO.P,LOGIC1,AC8,AC8_MGTPTXP2_213*
X-5500000Y-9475500D03*
D11*
G04 #@! TO.P,LOGIC1,M15,M15_IO_L5P_T0_AD9P_15*
X1500000Y1524500D03*
D13*
G04 #@! TO.N,GND*
G04 #@! TO.P,LOGIC1,C9,C9_GND*
X-4500000Y10524500D03*
G04 #@! TO.N,N/C*
G04 #@! TO.P,LOGIC1,J10,J10_TDO_0*
X-3500000Y4524500D03*
G04 #@! TO.N,VCC1V0*
G04 #@! TO.P,LOGIC1,L13,L13_VCCINT*
X-500000Y2524500D03*
D11*
G04 #@! TO.N,N/C*
G04 #@! TO.P,LOGIC1,J15,J15_IO_L2N_T0_AD8N_15*
X1500000Y4524500D03*
D13*
G04 #@! TO.P,LOGIC1,H12,H12_TCK_0*
X-1500000Y5524500D03*
D12*
G04 #@! TO.P,LOGIC1,T6,T6_VCCO_34*
X-7500000Y-2475500D03*
G04 #@! TO.P,LOGIC1,AF9,AF9_MGTPTXN1_213*
X-4500000Y-12475500D03*
D13*
G04 #@! TO.P,LOGIC1,D10,D10_MGTPTXP3_216*
X-3500000Y9524500D03*
D12*
G04 #@! TO.P,LOGIC1,P6,P6_IO_L19P_T3_34*
X-7500000Y-475500D03*
D13*
G04 #@! TO.N,VCC1V0*
G04 #@! TO.P,LOGIC1,J11,J11_VCCINT*
X-2500000Y4524500D03*
D12*
G04 #@! TO.N,N/C*
G04 #@! TO.P,LOGIC1,V6,V6_IO_L4P_T0_33*
X-7500000Y-4475500D03*
D10*
G04 #@! TO.N,GND*
G04 #@! TO.P,LOGIC1,AA16,AA16_GND*
X2500000Y-7475500D03*
D13*
G04 #@! TO.N,N/C*
G04 #@! TO.P,LOGIC1,N6,N6_IO_L5N_T0_34*
X-7500000Y524500D03*
G04 #@! TO.N,P66_1V8*
G04 #@! TO.P,LOGIC1,F2,F2_IO_L22P_T3_35*
X-11500000Y7524500D03*
D11*
G04 #@! TO.N,VCC3V3*
G04 #@! TO.P,LOGIC1,N15,N15_VCCO_14*
X1500000Y524500D03*
G04 #@! TO.N,P24_1V8*
G04 #@! TO.P,LOGIC1,C26,C26_IO_L22P_T3_16*
X12500000Y10524500D03*
G04 #@! TO.N,N/C*
G04 #@! TO.P,LOGIC1,G25,G25_IO_L23P_T3_FOE_B_15*
X11500000Y6524500D03*
D12*
G04 #@! TO.P,LOGIC1,Y8,Y8_IO_L23P_T3_33*
X-5500000Y-6475500D03*
G04 #@! TO.N,GND*
G04 #@! TO.P,LOGIC1,AE12,AE12_MGTAVTT_G10*
X-1500000Y-11475500D03*
D10*
G04 #@! TO.N,N/C*
G04 #@! TO.P,LOGIC1,AD14,AD14_MGTPRXN2_213*
X500000Y-10475500D03*
D11*
G04 #@! TO.N,P6_3V3*
G04 #@! TO.P,LOGIC1,M25,M25_IO_L10N_T1_D15_14*
X11500000Y1524500D03*
D13*
G04 #@! TO.N,GND*
G04 #@! TO.P,LOGIC1,G12,G12_GND*
X-1500000Y6524500D03*
G04 #@! TO.N,N/C*
G04 #@! TO.P,LOGIC1,G7,G7_IO_L3N_T0_DQS_AD5N_35*
X-6500000Y6524500D03*
D11*
G04 #@! TO.P,LOGIC1,L15,L15_IO_L5N_T0_AD9N_15*
X1500000Y2524500D03*
D12*
G04 #@! TO.N,GND*
G04 #@! TO.P,LOGIC1,Y10,Y10_GND*
X-3500000Y-6475500D03*
D13*
G04 #@! TO.P,LOGIC1,J2,J2_GND*
X-11500000Y4524500D03*
D10*
G04 #@! TO.N,N/C*
G04 #@! TO.P,LOGIC1,V21,V21_IO_L13N_T2_MRCC_13*
X7500000Y-4475500D03*
G04 #@! TO.P,LOGIC1,AF15,AF15_MGTRREF_213*
X1500000Y-12475500D03*
D12*
G04 #@! TO.P,LOGIC1,W6,W6_IO_L4N_T0_33*
X-7500000Y-5475500D03*
D11*
G04 #@! TO.N,P29_3V3*
G04 #@! TO.P,LOGIC1,N18,N18_IO_L6N_T0_D08_VREF_14*
X4500000Y524500D03*
D12*
G04 #@! TO.N,N/C*
G04 #@! TO.P,LOGIC1,AD8,AD8_MGTPTXN2_213*
X-5500000Y-10475500D03*
D13*
G04 #@! TO.P,LOGIC1,H10,H10_TDI_0*
X-3500000Y5524500D03*
D12*
G04 #@! TO.N,GND*
G04 #@! TO.P,LOGIC1,V5,V5_GND*
X-8500000Y-4475500D03*
D11*
G04 #@! TO.N,P27_1V8*
G04 #@! TO.P,LOGIC1,B25,B25_IO_L20P_T3_16*
X11500000Y11524500D03*
G04 #@! TO.N,GND*
G04 #@! TO.P,LOGIC1,F21,F21_GND*
X7500000Y7524500D03*
D13*
G04 #@! TO.P,LOGIC1,K13,K13_GND*
X-500000Y3524500D03*
D10*
G04 #@! TO.N,N/C*
G04 #@! TO.P,LOGIC1,P16,P16_IO_L3N_T0_DQS_EMCCLK_14*
X2500000Y-475500D03*
D12*
G04 #@! TO.P,LOGIC1,V2,V2_IO_L3N_T0_DQS_33*
X-11500000Y-4475500D03*
D13*
G04 #@! TO.N,P43_1V8*
G04 #@! TO.P,LOGIC1,A2,A2_IO_L20N_T3_35*
X-11500000Y12524500D03*
D10*
G04 #@! TO.N,GND*
G04 #@! TO.P,LOGIC1,U18,U18_GND*
X4500000Y-3475500D03*
D12*
G04 #@! TO.P,LOGIC1,Y12,Y12_GND*
X-1500000Y-6475500D03*
D13*
G04 #@! TO.P,LOGIC1,G11,G11_GND*
X-2500000Y6524500D03*
D12*
G04 #@! TO.N,N/C*
G04 #@! TO.P,LOGIC1,T7,T7_IO_L24N_T3_34*
X-6500000Y-2475500D03*
G04 #@! TO.N,GND*
G04 #@! TO.P,LOGIC1,AA12,AA12_MGTAVCC_G10*
X-1500000Y-7475500D03*
D13*
G04 #@! TO.N,N/C*
G04 #@! TO.P,LOGIC1,D8,D8_MGTPTXP1_216*
X-5500000Y9524500D03*
D11*
G04 #@! TO.N,GND*
G04 #@! TO.P,LOGIC1,F14,F14_GND*
X500000Y7524500D03*
G04 #@! TO.N,N/C*
G04 #@! TO.P,LOGIC1,J21,J21_IO_L12N_T1_MRCC_15*
X7500000Y4524500D03*
G04 #@! TO.N,P25_1V8*
G04 #@! TO.P,LOGIC1,D26,D26_IO_L21N_T3_DQS_A18_15*
X12500000Y9524500D03*
D10*
G04 #@! TO.N,P25_3V3*
G04 #@! TO.P,LOGIC1,P26,P26_IO_L22N_T3_A04_D20_14*
X12500000Y-475500D03*
D11*
G04 #@! TO.N,GND*
G04 #@! TO.P,LOGIC1,J22,J22_GND*
X8500000Y4524500D03*
G04 #@! TO.N,P22_1V8*
G04 #@! TO.P,LOGIC1,A25,A25_IO_L20N_T3_16*
X11500000Y12524500D03*
G04 #@! TO.N,P37_1V8*
G04 #@! TO.P,LOGIC1,E17,E17_IO_L11P_T1_SRCC_16*
X3500000Y8524500D03*
D12*
G04 #@! TO.N,N/C*
G04 #@! TO.P,LOGIC1,AD10,AD10_MGTPTXN0_213*
X-3500000Y-10475500D03*
G04 #@! TO.P,LOGIC1,V4,V4_IO_0_33*
X-9500000Y-4475500D03*
D11*
G04 #@! TO.N,N50*
G04 #@! TO.P,LOGIC1,D25,D25_IO_L20N_T3_A19_15*
X11500000Y9524500D03*
G04 #@! TO.N,N/C*
G04 #@! TO.P,LOGIC1,M16,M16_IO_L6P_T0_15*
X2500000Y1524500D03*
D13*
G04 #@! TO.N,P68_1V8*
G04 #@! TO.P,LOGIC1,F4,F4_IO_L11N_T1_SRCC_35*
X-9500000Y7524500D03*
D12*
G04 #@! TO.N,N/C*
G04 #@! TO.P,LOGIC1,P12,P12_VREFP_0*
X-1500000Y-475500D03*
D10*
G04 #@! TO.N,P38_3V3*
G04 #@! TO.P,LOGIC1,AF24,AF24_IO_L3P_T0_DQS_12*
X10500000Y-12475500D03*
D12*
G04 #@! TO.N,N/C*
G04 #@! TO.P,LOGIC1,T4,T4_IO_L16P_T2_34*
X-9500000Y-2475500D03*
G04 #@! TO.P,LOGIC1,U4,U4_IO_25_34*
X-9500000Y-3475500D03*
G04 #@! TO.N,VCC1V0*
G04 #@! TO.P,LOGIC1,U11,U11_VCCINT*
X-2500000Y-3475500D03*
G04 #@! TO.N,N/C*
G04 #@! TO.P,LOGIC1,W5,W5_IO_L2P_T0_33*
X-8500000Y-5475500D03*
D13*
G04 #@! TO.N,VCC1V0*
G04 #@! TO.P,LOGIC1,K10,K10_VCCINT*
X-3500000Y3524500D03*
D11*
G04 #@! TO.N,N/C*
G04 #@! TO.P,LOGIC1,L22,L22_IO_L11P_T1_SRCC_14*
X8500000Y2524500D03*
D13*
G04 #@! TO.N,VCC1V0*
G04 #@! TO.P,LOGIC1,L11,L11_VCCINT*
X-2500000Y2524500D03*
D10*
G04 #@! TO.N,VCC3V3*
G04 #@! TO.P,LOGIC1,AB18,AB18_VCCO_12*
X4500000Y-8475500D03*
D12*
G04 #@! TO.N,VCC1V0*
G04 #@! TO.P,LOGIC1,W13,W13_VCCBRAM*
X-500000Y-5475500D03*
G04 #@! TO.N,GND*
G04 #@! TO.P,LOGIC1,AD11,AD11_GND*
X-2500000Y-10475500D03*
D11*
G04 #@! TO.N,N/C*
G04 #@! TO.P,LOGIC1,H23,H23_IO_L14N_T2_SRCC_15*
X9500000Y5524500D03*
D10*
G04 #@! TO.P,LOGIC1,T16,T16_VCCO_13*
X2500000Y-2475500D03*
D13*
G04 #@! TO.N,GND*
G04 #@! TO.P,LOGIC1,B8,B8_MGTAVTT_G11*
X-5500000Y11524500D03*
G04 #@! TO.N,N/C*
G04 #@! TO.P,LOGIC1,A7,A7_MGTPTXN0_216*
X-6500000Y12524500D03*
G04 #@! TO.N,GND*
G04 #@! TO.P,LOGIC1,A12,A12_GND*
X-1500000Y12524500D03*
D10*
G04 #@! TO.N,P55_3V3*
G04 #@! TO.P,LOGIC1,AC22,AC22_IO_L2P_T0_12*
X8500000Y-9475500D03*
G04 #@! TO.N,N/C*
G04 #@! TO.P,LOGIC1,W18,W18_IO_L19N_T3_VREF_13*
X4500000Y-5475500D03*
D13*
G04 #@! TO.P,LOGIC1,F13,F13_MGTREFCLK1P_216*
X-500000Y7524500D03*
D11*
G04 #@! TO.P,LOGIC1,J24,J24_IO_L16P_T2_A28_15*
X10500000Y4524500D03*
D10*
G04 #@! TO.N,P53_3V3*
G04 #@! TO.P,LOGIC1,AD21,AD21_IO_L7P_T1_12*
X7500000Y-10475500D03*
D11*
G04 #@! TO.N,P3_1V8*
G04 #@! TO.P,LOGIC1,A17,A17_IO_L9P_T1_DQS_16*
X3500000Y12524500D03*
D13*
G04 #@! TO.N,GND*
G04 #@! TO.P,LOGIC1,H5,H5_GND*
X-8500000Y5524500D03*
G04 #@! TO.P,LOGIC1,D9,D9_MGTAVCC_G11*
X-4500000Y9524500D03*
D10*
G04 #@! TO.N,VCC3V3*
G04 #@! TO.P,LOGIC1,AD22,AD22_VCCO_12*
X8500000Y-10475500D03*
G04 #@! TO.N,P15_3V3*
G04 #@! TO.P,LOGIC1,P20,P20_IO_L14P_T2_SRCC_14*
X6500000Y-475500D03*
D12*
G04 #@! TO.N,N/C*
G04 #@! TO.P,LOGIC1,AF5,AF5_IO_L17P_T2_33*
X-8500000Y-12475500D03*
D13*
G04 #@! TO.P,LOGIC1,N4,N4_IO_L14N_T2_SRCC_34*
X-9500000Y524500D03*
G04 #@! TO.P,LOGIC1,K5,K5_IO_L4N_T0_34*
X-8500000Y3524500D03*
D11*
G04 #@! TO.P,LOGIC1,K16,K16_IO_L3P_T0_DQS_AD1P_15*
X2500000Y3524500D03*
D10*
G04 #@! TO.P,LOGIC1,AD19,AD19_IO_L14N_T2_SRCC_12*
X5500000Y-10475500D03*
G04 #@! TO.N,P50_3V3*
G04 #@! TO.P,LOGIC1,AB21,AB21_IO_L11P_T1_SRCC_12*
X7500000Y-8475500D03*
G04 #@! TO.N,N/C*
G04 #@! TO.P,LOGIC1,P21,P21_IO_L14N_T2_SRCC_14*
X7500000Y-475500D03*
D11*
G04 #@! TO.N,P20_1V8*
G04 #@! TO.P,LOGIC1,A23,A23_IO_L21P_T3_DQS_16*
X9500000Y12524500D03*
D13*
G04 #@! TO.N,N/C*
G04 #@! TO.P,LOGIC1,J1,J1_IO_L7N_T1_34*
X-12500000Y4524500D03*
D11*
G04 #@! TO.P,LOGIC1,F26,F26_VCCO_15*
X12500000Y7524500D03*
D12*
G04 #@! TO.P,LOGIC1,AC6,AC6_IO_L24N_T3_33*
X-7500000Y-9475500D03*
D11*
G04 #@! TO.N,P10_3V3*
G04 #@! TO.P,LOGIC1,N24,N24_IO_L15N_T2_DQS_DOUT_CSO_B_14*
X10500000Y524500D03*
D10*
G04 #@! TO.N,N/C*
G04 #@! TO.P,LOGIC1,AA17,AA17_IO_L19P_T3_12*
X3500000Y-7475500D03*
D13*
G04 #@! TO.N,VCC1V8*
G04 #@! TO.P,LOGIC1,D2,D2_VCCO_35*
X-11500000Y9524500D03*
D11*
G04 #@! TO.N,P28_1V8*
G04 #@! TO.P,LOGIC1,C23,C23_IO_L19N_T3_VREF_16*
X9500000Y10524500D03*
G04 #@! TO.N,N/C*
G04 #@! TO.P,LOGIC1,E23,E23_IO_L17N_T2_A25_15*
X9500000Y8524500D03*
G04 #@! TO.P,LOGIC1,G26,G26_IO_L22N_T3_A16_15*
X12500000Y6524500D03*
D10*
G04 #@! TO.N,P26_3V3*
G04 #@! TO.P,LOGIC1,R26,R26_IO_L22P_T3_A05_D21_14*
X12500000Y-1475500D03*
G04 #@! TO.N,VCC3V3*
G04 #@! TO.P,LOGIC1,W17,W17_VCCO_12*
X3500000Y-5475500D03*
G04 #@! TO.N,GND*
G04 #@! TO.P,LOGIC1,AB14,AB14_GND*
X500000Y-8475500D03*
G04 #@! TO.N,N/C*
G04 #@! TO.P,LOGIC1,T14,T14_IO_L20P_T3_13*
X500000Y-2475500D03*
G04 #@! TO.P,LOGIC1,AC19,AC19_IO_L14P_T2_SRCC_12*
X5500000Y-9475500D03*
D12*
G04 #@! TO.P,LOGIC1,AE13,AE13_MGTPRXP1_213*
X-500000Y-11475500D03*
D11*
G04 #@! TO.P,LOGIC1,G19,G19_IO_L5P_T0_16*
X5500000Y6524500D03*
D13*
G04 #@! TO.N,GND*
G04 #@! TO.P,LOGIC1,C11,C11_GND*
X-2500000Y10524500D03*
D10*
G04 #@! TO.N,N/C*
G04 #@! TO.P,LOGIC1,R18,R18_IO_25_14*
X4500000Y-1475500D03*
G04 #@! TO.N,P43_3V3*
G04 #@! TO.P,LOGIC1,AD25,AD25_IO_L4P_T0_12*
X11500000Y-10475500D03*
D12*
G04 #@! TO.N,N/C*
G04 #@! TO.P,LOGIC1,R2,R2_IO_L17N_T2_34*
X-11500000Y-1475500D03*
D13*
G04 #@! TO.N,P53_1V8*
G04 #@! TO.P,LOGIC1,B4,B4_IO_L16P_T2_35*
X-9500000Y11524500D03*
D12*
G04 #@! TO.N,GND*
G04 #@! TO.P,LOGIC1,AA10,AA10_MGTAVCC_G10*
X-3500000Y-7475500D03*
D10*
G04 #@! TO.N,N/C*
G04 #@! TO.P,LOGIC1,Y23,Y23_IO_L11N_T1_SRCC_13*
X9500000Y-6475500D03*
D12*
G04 #@! TO.N,GND*
G04 #@! TO.P,LOGIC1,U8,U8_GND*
X-5500000Y-3475500D03*
D11*
G04 #@! TO.N,P12_1V8*
G04 #@! TO.P,LOGIC1,B20,B20_IO_L15P_T2_DQS_16*
X6500000Y11524500D03*
G04 #@! TO.N,N/C*
G04 #@! TO.P,LOGIC1,H22,H22_IO_L13N_T2_MRCC_15*
X8500000Y5524500D03*
D12*
G04 #@! TO.P,LOGIC1,AF3,AF3_IO_L16N_T2_33*
X-10500000Y-12475500D03*
D10*
G04 #@! TO.P,LOGIC1,AC25,AC25_VCCO_13*
X11500000Y-9475500D03*
G04 #@! TO.P,LOGIC1,U20,U20_IO_L15N_T2_DQS_13*
X6500000Y-3475500D03*
G04 #@! TO.P,LOGIC1,AB22,AB22_IO_0_12*
X8500000Y-8475500D03*
G04 #@! TO.P,LOGIC1,T18,T18_IO_L21N_T3_DQS_13*
X4500000Y-2475500D03*
D11*
G04 #@! TO.N,VCC3V3*
G04 #@! TO.P,LOGIC1,L21,L21_VCCO_14*
X7500000Y2524500D03*
G04 #@! TO.N,VCC1V8*
G04 #@! TO.P,LOGIC1,F16,F16_VCCO_16*
X2500000Y7524500D03*
D12*
G04 #@! TO.N,N/C*
G04 #@! TO.P,LOGIC1,T3,T3_IO_L16N_T2_34*
X-10500000Y-2475500D03*
D13*
G04 #@! TO.P,LOGIC1,K3,K3_IO_L1P_T0_34*
X-10500000Y3524500D03*
D11*
G04 #@! TO.N,GND*
G04 #@! TO.P,LOGIC1,D15,D15_GND*
X1500000Y9524500D03*
G04 #@! TO.N,P5_3V3*
G04 #@! TO.P,LOGIC1,M26,M26_IO_L20N_T3_A07_D23_14*
X12500000Y1524500D03*
D13*
G04 #@! TO.N,N/C*
G04 #@! TO.P,LOGIC1,M11,M11_GNDADC_0*
X-2500000Y1524500D03*
D12*
G04 #@! TO.P,LOGIC1,V9,V9_IO_25_33*
X-4500000Y-4475500D03*
D10*
G04 #@! TO.N,P51_3V3*
G04 #@! TO.P,LOGIC1,AB20,AB20_IO_L12N_T1_MRCC_12*
X6500000Y-8475500D03*
D13*
G04 #@! TO.N,N/C*
G04 #@! TO.P,LOGIC1,B13,B13_MGTPTXP2_216*
X-500000Y11524500D03*
G04 #@! TO.N,GND*
G04 #@! TO.P,LOGIC1,K9,K9_GND*
X-4500000Y3524500D03*
D10*
G04 #@! TO.N,P49_3V3*
G04 #@! TO.P,LOGIC1,AD23,AD23_IO_L6P_T0_12*
X9500000Y-10475500D03*
D11*
G04 #@! TO.N,P31_1V8*
G04 #@! TO.P,LOGIC1,D24,D24_IO_L24N_T3_16*
X10500000Y9524500D03*
D10*
G04 #@! TO.N,N/C*
G04 #@! TO.P,LOGIC1,V17,V17_IO_L24N_T3_13*
X3500000Y-4475500D03*
D11*
G04 #@! TO.P,LOGIC1,F23,F23_IO_L17P_T2_A26_15*
X9500000Y7524500D03*
G04 #@! TO.P,LOGIC1,K17,K17_IO_L3N_T0_DQS_AD1N_15*
X3500000Y3524500D03*
D13*
G04 #@! TO.P,LOGIC1,K7,K7_IO_L10P_T1_AD15P_35*
X-6500000Y3524500D03*
D12*
G04 #@! TO.P,LOGIC1,AD1,AD1_IO_L9P_T1_DQS_33*
X-12500000Y-10475500D03*
G04 #@! TO.P,LOGIC1,AD12,AD12_MGTPRXN0_213*
X-1500000Y-10475500D03*
D13*
G04 #@! TO.N,P59_1V8*
G04 #@! TO.P,LOGIC1,D4,D4_IO_L14P_T2_SRCC_35*
X-9500000Y9524500D03*
D12*
G04 #@! TO.N,N/C*
G04 #@! TO.P,LOGIC1,AC3,AC3_IO_L14P_T2_SRCC_33*
X-10500000Y-9475500D03*
D11*
G04 #@! TO.N,P18_1V8*
G04 #@! TO.P,LOGIC1,B22,B22_IO_L17P_T2_16*
X8500000Y11524500D03*
D13*
G04 #@! TO.N,P60_1V8*
G04 #@! TO.P,LOGIC1,D5,D5_IO_L13N_T2_MRCC_35*
X-8500000Y9524500D03*
D10*
G04 #@! TO.N,GND*
G04 #@! TO.P,LOGIC1,AB23,AB23_GND*
X9500000Y-8475500D03*
D13*
G04 #@! TO.N,N/C*
G04 #@! TO.P,LOGIC1,B11,B11_MGTPRXP0_216*
X-2500000Y11524500D03*
D10*
G04 #@! TO.N,P44_3V3*
G04 #@! TO.P,LOGIC1,AE23,AE23_IO_L5P_T0_12*
X9500000Y-11475500D03*
D12*
G04 #@! TO.N,N/C*
G04 #@! TO.P,LOGIC1,P1,P1_IO_L15N_T2_DQS_34*
X-12500000Y-475500D03*
D13*
G04 #@! TO.N,VCC1V0*
G04 #@! TO.P,LOGIC1,J13,J13_VCCINT*
X-500000Y4524500D03*
D11*
G04 #@! TO.N,N/C*
G04 #@! TO.P,LOGIC1,F24,F24_IO_L19N_T3_A21_VREF_15*
X10500000Y7524500D03*
D12*
G04 #@! TO.N,GND*
G04 #@! TO.P,LOGIC1,U10,U10_GND*
X-3500000Y-3475500D03*
D10*
G04 #@! TO.N,P23_3V3*
G04 #@! TO.P,LOGIC1,T24,T24_IO_L21P_T3_DQS_14*
X10500000Y-2475500D03*
D12*
G04 #@! TO.N,N/C*
G04 #@! TO.P,LOGIC1,AF7,AF7_MGTPTXN3_213*
X-6500000Y-12475500D03*
G04 #@! TO.P,LOGIC1,AB2,AB2_IO_L11P_T1_SRCC_33*
X-11500000Y-8475500D03*
G04 #@! TO.P,LOGIC1,P2,P2_VCCO_34*
X-11500000Y-475500D03*
G04 #@! TO.N,GND*
G04 #@! TO.P,LOGIC1,AF6,AF6_GND*
X-7500000Y-12475500D03*
D10*
G04 #@! TO.P,LOGIC1,W22,W22_GND*
X8500000Y-5475500D03*
D12*
G04 #@! TO.N,N/C*
G04 #@! TO.P,LOGIC1,AC5,AC5_VCCO_33*
X-8500000Y-9475500D03*
D13*
G04 #@! TO.N,P44_1V8*
G04 #@! TO.P,LOGIC1,A3,A3_IO_L20P_T3_35*
X-10500000Y12524500D03*
D11*
G04 #@! TO.N,P32_1V8*
G04 #@! TO.P,LOGIC1,H14,H14_IO_L1P_T0_16*
X500000Y5524500D03*
G04 #@! TO.N,N/C*
G04 #@! TO.P,LOGIC1,K22,K22_IO_L18P_T2_A24_15*
X8500000Y3524500D03*
D13*
G04 #@! TO.P,LOGIC1,J8,J8_IO_0_35*
X-5500000Y4524500D03*
D10*
G04 #@! TO.P,LOGIC1,V22,V22_IO_L12N_T1_MRCC_13*
X8500000Y-4475500D03*
D11*
G04 #@! TO.P,LOGIC1,H21,H21_IO_L13P_T2_MRCC_15*
X7500000Y5524500D03*
D13*
G04 #@! TO.P,LOGIC1,F7,F7_IO_L4N_T0_35*
X-6500000Y7524500D03*
D12*
G04 #@! TO.P,LOGIC1,AF11,AF11_MGTPRXN3_213*
X-2500000Y-12475500D03*
D13*
G04 #@! TO.P,LOGIC1,H3,H3_IO_25_35*
X-10500000Y5524500D03*
D10*
G04 #@! TO.N,VCC3V3*
G04 #@! TO.P,LOGIC1,P22,P22_VCCO_14*
X8500000Y-475500D03*
D13*
G04 #@! TO.N,N/C*
G04 #@! TO.P,LOGIC1,N3,N3_IO_L12P_T1_MRCC_34*
X-10500000Y524500D03*
D10*
G04 #@! TO.N,VCC3V3*
G04 #@! TO.P,LOGIC1,R19,R19_VCCO_14*
X5500000Y-1475500D03*
G04 #@! TO.N,N/C*
G04 #@! TO.P,LOGIC1,U24,U24_IO_0_13*
X10500000Y-3475500D03*
D12*
G04 #@! TO.P,LOGIC1,U7,U7_IO_L6P_T0_33*
X-6500000Y-3475500D03*
D13*
G04 #@! TO.P,LOGIC1,M12,M12_VCCADC_0*
X-1500000Y1524500D03*
G04 #@! TO.P,LOGIC1,G6,G6_IO_L5N_T0_AD13N_35*
X-7500000Y6524500D03*
G04 #@! TO.N,GND*
G04 #@! TO.P,LOGIC1,A10,A10_GND*
X-3500000Y12524500D03*
D11*
G04 #@! TO.P,LOGIC1,C16,C16_GND*
X2500000Y10524500D03*
D10*
G04 #@! TO.N,N/C*
G04 #@! TO.P,LOGIC1,V16,V16_IO_L24P_T3_13*
X2500000Y-4475500D03*
D13*
G04 #@! TO.N,P52_1V8*
G04 #@! TO.P,LOGIC1,B2,B2_IO_L19N_T3_VREF_35*
X-11500000Y11524500D03*
G04 #@! TO.N,GND*
G04 #@! TO.P,LOGIC1,J12,J12_GND*
X-1500000Y4524500D03*
D12*
G04 #@! TO.P,LOGIC1,AD7,AD7_MGTAVTT_G10*
X-6500000Y-10475500D03*
G04 #@! TO.P,LOGIC1,AC11,AC11_MGTAVCC_G10*
X-2500000Y-9475500D03*
D10*
G04 #@! TO.N,P16_3V3*
G04 #@! TO.P,LOGIC1,P23,P23_IO_L17P_T2_A14_D30_14*
X9500000Y-475500D03*
G04 #@! TO.N,N/C*
G04 #@! TO.P,LOGIC1,V20,V20_VCCO_13*
X6500000Y-4475500D03*
D12*
G04 #@! TO.P,LOGIC1,W8,W8_IO_L21N_T3_DQS_33*
X-5500000Y-5475500D03*
G04 #@! TO.N,GND*
G04 #@! TO.P,LOGIC1,AF12,AF12_GND*
X-1500000Y-12475500D03*
D11*
G04 #@! TO.N,N/C*
G04 #@! TO.P,LOGIC1,D14,D14_MGTPRXP1_216*
X500000Y9524500D03*
D10*
G04 #@! TO.P,LOGIC1,U21,U21_IO_L13P_T2_MRCC_13*
X7500000Y-3475500D03*
D11*
G04 #@! TO.N,P11_3V3*
G04 #@! TO.P,LOGIC1,N22,N22_IO_L13N_T2_MRCC_14*
X8500000Y524500D03*
G04 #@! TO.N,P0_3V3*
G04 #@! TO.P,LOGIC1,K26,K26_IO_L7N_T1_D10_14*
X12500000Y3524500D03*
D12*
G04 #@! TO.N,N/C*
G04 #@! TO.P,LOGIC1,AC2,AC2_IO_L11N_T1_SRCC_33*
X-11500000Y-9475500D03*
D11*
G04 #@! TO.N,P8_3V3*
G04 #@! TO.P,LOGIC1,M24,M24_IO_L10P_T1_D14_14*
X10500000Y1524500D03*
D13*
G04 #@! TO.N,N/C*
G04 #@! TO.P,LOGIC1,N5,N5_VCCO_34*
X-8500000Y524500D03*
G04 #@! TO.P,LOGIC1,K2,K2_IO_L8N_T1_34*
X-11500000Y3524500D03*
D11*
G04 #@! TO.N,VCC3V3*
G04 #@! TO.P,LOGIC1,N25,N25_VCCO_14*
X11500000Y524500D03*
G04 #@! TO.N,N/C*
G04 #@! TO.P,LOGIC1,L19,L19_IO_25_15*
X5500000Y2524500D03*
D12*
G04 #@! TO.N,GND*
G04 #@! TO.P,LOGIC1,P9,P9_GND*
X-4500000Y-475500D03*
D10*
G04 #@! TO.N,N/C*
G04 #@! TO.P,LOGIC1,Y20,Y20_IO_L16N_T2_13*
X6500000Y-6475500D03*
D11*
G04 #@! TO.P,LOGIC1,G20,G20_IO_L11P_T1_SRCC_15*
X6500000Y6524500D03*
D12*
G04 #@! TO.P,LOGIC1,AA5,AA5_IO_L22P_T3_33*
X-8500000Y-7475500D03*
D13*
G04 #@! TO.N,GND*
G04 #@! TO.P,LOGIC1,A6,A6_GND*
X-7500000Y12524500D03*
D10*
G04 #@! TO.N,N/C*
G04 #@! TO.P,LOGIC1,W20,W20_IO_L16P_T2_13*
X6500000Y-5475500D03*
D12*
G04 #@! TO.P,LOGIC1,AE5,AE5_IO_L15N_T2_DQS_33*
X-8500000Y-11475500D03*
D11*
G04 #@! TO.N,P41_1V8*
G04 #@! TO.P,LOGIC1,G16,G16_IO_L6N_T0_VREF_16*
X2500000Y6524500D03*
G04 #@! TO.N,P7_1V8*
G04 #@! TO.P,LOGIC1,D19,D19_IO_L13P_T2_MRCC_16*
X5500000Y9524500D03*
D10*
G04 #@! TO.N,N/C*
G04 #@! TO.P,LOGIC1,W16,W16_IO_25_12*
X2500000Y-5475500D03*
D13*
G04 #@! TO.N,GND*
G04 #@! TO.P,LOGIC1,D7,D7_GND*
X-6500000Y9524500D03*
D12*
G04 #@! TO.P,LOGIC1,AD9,AD9_GND*
X-4500000Y-10475500D03*
D10*
G04 #@! TO.P,LOGIC1,P15,P15_IO_L3P_T0_DQS_PUDC_B_14*
X1500000Y-475500D03*
D13*
G04 #@! TO.N,P49_1V8*
G04 #@! TO.P,LOGIC1,D1,D1_IO_L23N_T3_35*
X-12500000Y9524500D03*
D11*
G04 #@! TO.N,P39_1V8*
G04 #@! TO.P,LOGIC1,F17,F17_IO_L2N_T0_16*
X3500000Y7524500D03*
D10*
G04 #@! TO.N,GND*
G04 #@! TO.P,LOGIC1,AD15,AD15_MGTAVTT_G10*
X1500000Y-10475500D03*
D11*
G04 #@! TO.N,P16_1V8*
G04 #@! TO.P,LOGIC1,B21,B21_IO_L16N_T2_16*
X7500000Y11524500D03*
G04 #@! TO.N,P5_1V8*
G04 #@! TO.P,LOGIC1,C18,C18_IO_L12N_T1_MRCC_16*
X4500000Y10524500D03*
D10*
G04 #@! TO.N,P40_3V3*
G04 #@! TO.P,LOGIC1,AF22,AF22_IO_L9N_T1_DQS_12*
X8500000Y-12475500D03*
G04 #@! TO.N,N/C*
G04 #@! TO.P,LOGIC1,V18,V18_IO_L19P_T3_13*
X4500000Y-4475500D03*
G04 #@! TO.P,LOGIC1,Y15,Y15_IO_L23P_T3_12*
X1500000Y-6475500D03*
G04 #@! TO.P,LOGIC1,AE17,AE17_IO_L18P_T2_12*
X3500000Y-11475500D03*
D11*
G04 #@! TO.P,LOGIC1,G22,G22_IO_L15P_T2_DQS_15*
X8500000Y6524500D03*
G04 #@! TO.P,LOGIC1,M14,M14_IO_L4P_T0_15*
X500000Y1524500D03*
D12*
G04 #@! TO.P,LOGIC1,Y4,Y4_VCCO_33*
X-9500000Y-6475500D03*
D11*
G04 #@! TO.P,LOGIC1,K18,K18_IO_0_15*
X4500000Y3524500D03*
G04 #@! TO.P,LOGIC1,H24,H24_IO_L16N_T2_A27_15*
X10500000Y5524500D03*
D12*
G04 #@! TO.P,LOGIC1,AD5,AD5_IO_L15P_T2_DQS_33*
X-8500000Y-10475500D03*
D10*
G04 #@! TO.N,GND*
G04 #@! TO.P,LOGIC1,AF16,AF16_GND*
X2500000Y-12475500D03*
G04 #@! TO.N,P37_3V3*
G04 #@! TO.P,LOGIC1,AF23,AF23_IO_L5N_T0_12*
X9500000Y-12475500D03*
D11*
G04 #@! TO.N,GND*
G04 #@! TO.P,LOGIC1,D17,D17_GND*
X3500000Y9524500D03*
D13*
G04 #@! TO.N,VCC1V8*
G04 #@! TO.P,LOGIC1,F6,F6_VCCO_35*
X-7500000Y7524500D03*
D12*
G04 #@! TO.N,N/C*
G04 #@! TO.P,LOGIC1,AA13,AA13_MGTREFCLK0P_213*
X-500000Y-7475500D03*
D10*
G04 #@! TO.P,LOGIC1,U22,U22_IO_L12P_T1_MRCC_13*
X8500000Y-3475500D03*
D12*
G04 #@! TO.P,LOGIC1,P4,P4_IO_L14P_T2_SRCC_34*
X-9500000Y-475500D03*
D11*
G04 #@! TO.P,LOGIC1,M17,M17_IO_L6N_T0_VREF_15*
X3500000Y1524500D03*
D12*
G04 #@! TO.P,LOGIC1,T8,T8_IO_L24P_T3_34*
X-5500000Y-2475500D03*
G04 #@! TO.P,LOGIC1,R1,R1_IO_L15P_T2_DQS_34*
X-12500000Y-1475500D03*
D11*
G04 #@! TO.N,P36_1V8*
G04 #@! TO.P,LOGIC1,E16,E16_IO_L8P_T1_16*
X2500000Y8524500D03*
D10*
G04 #@! TO.N,VCC3V3*
G04 #@! TO.P,LOGIC1,Y14,Y14_VCCO_0*
X500000Y-6475500D03*
G04 #@! TO.N,CFGBVS*
G04 #@! TO.P,LOGIC1,AB15,AB15_CFGBVS_0*
X1500000Y-8475500D03*
D11*
G04 #@! TO.N,P3_3V3*
G04 #@! TO.P,LOGIC1,L23,L23_IO_L11N_T1_SRCC_14*
X9500000Y2524500D03*
G04 #@! TO.N,P4_3V3*
G04 #@! TO.P,LOGIC1,L25,L25_IO_L9N_T1_DQS_D13_14*
X11500000Y2524500D03*
D12*
G04 #@! TO.N,GND*
G04 #@! TO.P,LOGIC1,R4,R4_GND*
X-9500000Y-1475500D03*
D10*
G04 #@! TO.N,N/C*
G04 #@! TO.P,LOGIC1,U17,U17_IO_25_13*
X3500000Y-3475500D03*
G04 #@! TO.P,LOGIC1,U26,U26_IO_L1N_T0_13*
X12500000Y-3475500D03*
G04 #@! TO.N,VCC3V3*
G04 #@! TO.P,LOGIC1,AF26,AF26_VCCO_12*
X12500000Y-12475500D03*
D12*
G04 #@! TO.N,N/C*
G04 #@! TO.P,LOGIC1,AE1,AE1_IO_L9N_T1_DQS_33*
X-12500000Y-11475500D03*
D10*
G04 #@! TO.N,GND*
G04 #@! TO.P,LOGIC1,AE24,AE24_GND*
X10500000Y-11475500D03*
D13*
G04 #@! TO.N,N/C*
G04 #@! TO.P,LOGIC1,H8,H8_IO_L2P_T0_AD12P_35*
X-5500000Y5524500D03*
G04 #@! TO.P,LOGIC1,L8,L8_IO_L8P_T1_AD14P_35*
X-5500000Y2524500D03*
D10*
G04 #@! TO.N,N46*
G04 #@! TO.P,LOGIC1,T26,T26_VCCO_13*
X12500000Y-2475500D03*
G04 #@! TO.N,N/C*
G04 #@! TO.P,LOGIC1,Y26,Y26_IO_L4N_T0_13*
X12500000Y-6475500D03*
G04 #@! TO.P,LOGIC1,AA23,AA23_IO_L8N_T1_13*
X9500000Y-7475500D03*
D13*
G04 #@! TO.N,P56_1V8*
G04 #@! TO.P,LOGIC1,C3,C3_IO_L17N_T2_35*
X-10500000Y10524500D03*
D12*
G04 #@! TO.N,GND*
G04 #@! TO.P,LOGIC1,AB12,AB12_GND*
X-1500000Y-8475500D03*
G04 #@! TO.N,VCC1V8*
G04 #@! TO.P,LOGIC1,U9,U9_VCCAUX*
X-4500000Y-3475500D03*
D11*
G04 #@! TO.N,CLK_27MHZ*
G04 #@! TO.P,LOGIC1,E20,E20_IO_L14P_T2_SRCC_16*
X6500000Y8524500D03*
D13*
G04 #@! TO.N,N/C*
G04 #@! TO.P,LOGIC1,L3,L3_IO_L8P_T1_34*
X-10500000Y2524500D03*
D10*
G04 #@! TO.N,P57_3V3*
G04 #@! TO.P,LOGIC1,AB19,AB19_IO_L13N_T2_MRCC_12*
X5500000Y-8475500D03*
D13*
G04 #@! TO.N,N/C*
G04 #@! TO.P,LOGIC1,H7,H7_IO_L3P_T0_DQS_AD5P_35*
X-6500000Y5524500D03*
G04 #@! TO.P,LOGIC1,N7,N7_IO_L5P_T0_34*
X-6500000Y524500D03*
G04 #@! TO.N,P69_1V8*
G04 #@! TO.P,LOGIC1,G2,G2_IO_L24P_T3_35*
X-11500000Y6524500D03*
D11*
G04 #@! TO.N,GND*
G04 #@! TO.P,LOGIC1,N20,N20_GND*
X6500000Y524500D03*
D12*
G04 #@! TO.N,N/C*
G04 #@! TO.P,LOGIC1,W4,W4_IO_L2N_T0_33*
X-9500000Y-5475500D03*
D11*
G04 #@! TO.N,P34_1V8*
G04 #@! TO.P,LOGIC1,G15,G15_IO_L4P_T0_16*
X1500000Y6524500D03*
D12*
G04 #@! TO.N,N/C*
G04 #@! TO.P,LOGIC1,Y1,Y1_IO_L8N_T1_33*
X-12500000Y-6475500D03*
D10*
G04 #@! TO.P,LOGIC1,AA20,AA20_IO_L12P_T1_MRCC_12*
X6500000Y-7475500D03*
D11*
G04 #@! TO.N,P14_1V8*
G04 #@! TO.P,LOGIC1,D21,D21_IO_L18N_T2_16*
X7500000Y9524500D03*
D10*
G04 #@! TO.N,GND*
G04 #@! TO.P,LOGIC1,AF21,AF21_GND*
X7500000Y-12475500D03*
D13*
G04 #@! TO.P,LOGIC1,C6,C6_GND*
X-7500000Y10524500D03*
D12*
G04 #@! TO.P,LOGIC1,W9,W9_M2_0*
X-4500000Y-5475500D03*
D10*
G04 #@! TO.P,LOGIC1,AA26,AA26_GND*
X12500000Y-7475500D03*
D13*
G04 #@! TO.N,P50_1V8*
G04 #@! TO.P,LOGIC1,E1,E1_IO_L23P_T3_35*
X-12500000Y8524500D03*
D11*
G04 #@! TO.N,N/C*
G04 #@! TO.P,LOGIC1,M18,M18_VCCO_15*
X4500000Y1524500D03*
D12*
G04 #@! TO.N,GND*
G04 #@! TO.P,LOGIC1,T11,T11_GND*
X-2500000Y-2475500D03*
D11*
G04 #@! TO.P,LOGIC1,H25,H25_GND*
X11500000Y5524500D03*
D13*
G04 #@! TO.N,N/C*
G04 #@! TO.P,LOGIC1,K4,K4_VCCO_34*
X-9500000Y3524500D03*
D10*
G04 #@! TO.P,LOGIC1,AA22,AA22_IO_L8P_T1_13*
X8500000Y-7475500D03*
D11*
G04 #@! TO.N,P1_3V3*
G04 #@! TO.P,LOGIC1,K25,K25_IO_L7P_T1_D09_14*
X11500000Y3524500D03*
D12*
G04 #@! TO.N,N/C*
G04 #@! TO.P,LOGIC1,AB11,AB11_MGTREFCLK1N_213*
X-2500000Y-8475500D03*
G04 #@! TO.N,GND*
G04 #@! TO.P,LOGIC1,AD6,AD6_GND*
X-7500000Y-10475500D03*
D11*
G04 #@! TO.N,N/C*
G04 #@! TO.P,LOGIC1,K15,K15_IO_L1P_T0_AD0P_15*
X1500000Y3524500D03*
D12*
G04 #@! TO.P,LOGIC1,R6,R6_IO_L23N_T3_34*
X-7500000Y-1475500D03*
D10*
G04 #@! TO.N,P42_3V3*
G04 #@! TO.P,LOGIC1,AD26,AD26_IO_L4N_T0_12*
X12500000Y-10475500D03*
G04 #@! TO.N,N/C*
G04 #@! TO.P,LOGIC1,AC24,AC24_IO_L9N_T1_DQS_13*
X10500000Y-9475500D03*
D11*
G04 #@! TO.P,LOGIC1,N17,N17_IO_L4N_T0_D05_14*
X3500000Y524500D03*
D12*
G04 #@! TO.N,GND*
G04 #@! TO.P,LOGIC1,AD13,AD13_GND*
X-500000Y-10475500D03*
D10*
G04 #@! TO.N,FCS_B*
G04 #@! TO.P,LOGIC1,P18,P18_IO_L6P_T0_FCS_B_14*
X4500000Y-475500D03*
D13*
G04 #@! TO.N,P70_1V8*
G04 #@! TO.P,LOGIC1,G4,G4_IO_L11P_T1_SRCC_35*
X-9500000Y6524500D03*
G04 #@! TO.N,N/C*
G04 #@! TO.P,LOGIC1,G9,G9_IO_L6N_T0_VREF_35*
X-4500000Y6524500D03*
G04 #@! TO.P,LOGIC1,M7,M7_IO_L2P_T0_34*
X-6500000Y1524500D03*
D11*
G04 #@! TO.N,GND*
G04 #@! TO.P,LOGIC1,B15,B15_GND*
X1500000Y11524500D03*
G04 #@! TO.N,N/C*
G04 #@! TO.P,LOGIC1,J25,J25_IO_L24P_T3_RS1_15*
X11500000Y4524500D03*
D12*
G04 #@! TO.P,LOGIC1,R7,R7_IO_L23P_T3_34*
X-6500000Y-1475500D03*
G04 #@! TO.P,LOGIC1,AA4,AA4_IO_L13P_T2_MRCC_33*
X-9500000Y-7475500D03*
G04 #@! TO.P,LOGIC1,R11,R11_DXN_0*
X-2500000Y-1475500D03*
D13*
G04 #@! TO.N,P47_1V8*
G04 #@! TO.P,LOGIC1,B1,B1_IO_L21N_T3_DQS_35*
X-12500000Y11524500D03*
D12*
G04 #@! TO.N,N/C*
G04 #@! TO.P,LOGIC1,W1,W1_IO_L1N_T0_33*
X-12500000Y-5475500D03*
D10*
G04 #@! TO.P,LOGIC1,U14,U14_IO_L23P_T3_13*
X500000Y-3475500D03*
G04 #@! TO.P,LOGIC1,V24,V24_IO_L6P_T0_13*
X10500000Y-4475500D03*
D13*
G04 #@! TO.N,GND*
G04 #@! TO.P,LOGIC1,F10,F10_MGTAVCC_G11*
X-3500000Y7524500D03*
G04 #@! TO.N,N/C*
G04 #@! TO.P,LOGIC1,A11,A11_MGTPRXN0_216*
X-2500000Y12524500D03*
D11*
G04 #@! TO.N,P4_1V8*
G04 #@! TO.P,LOGIC1,D18,D18_IO_L12P_T1_MRCC_16*
X4500000Y9524500D03*
D10*
G04 #@! TO.N,N/C*
G04 #@! TO.P,LOGIC1,AA15,AA15_IO_L23N_T3_12*
X1500000Y-7475500D03*
D11*
G04 #@! TO.N,CLK_3V3_29.5MHZ*
G04 #@! TO.P,LOGIC1,N21,N21_IO_L13P_T2_MRCC_14*
X7500000Y524500D03*
D12*
G04 #@! TO.N,GND*
G04 #@! TO.P,LOGIC1,AA6,AA6_GND*
X-7500000Y-7475500D03*
D10*
G04 #@! TO.N,N/C*
G04 #@! TO.P,LOGIC1,V23,V23_IO_L10P_T1_13*
X9500000Y-4475500D03*
D12*
G04 #@! TO.P,LOGIC1,Y5,Y5_IO_L20N_T3_33*
X-8500000Y-6475500D03*
G04 #@! TO.P,LOGIC1,T2,T2_IO_L17P_T2_34*
X-11500000Y-2475500D03*
D11*
G04 #@! TO.N,GND*
G04 #@! TO.P,LOGIC1,A14,A14_GND*
X500000Y12524500D03*
D12*
G04 #@! TO.N,N/C*
G04 #@! TO.P,LOGIC1,R12,R12_DXP_0*
X-1500000Y-1475500D03*
D13*
G04 #@! TO.N,GND*
G04 #@! TO.P,LOGIC1,L6,L6_GND*
X-7500000Y2524500D03*
D12*
G04 #@! TO.N,N/C*
G04 #@! TO.P,LOGIC1,AA1,AA1_VCCO_33*
X-12500000Y-7475500D03*
D13*
G04 #@! TO.N,GND*
G04 #@! TO.P,LOGIC1,D11,D11_MGTAVCC_G11*
X-2500000Y9524500D03*
D11*
G04 #@! TO.N,VCC1V8*
G04 #@! TO.P,LOGIC1,E19,E19_VCCO_16*
X5500000Y8524500D03*
G04 #@! TO.N,P12_3V3*
G04 #@! TO.P,LOGIC1,N23,N23_IO_L15P_T2_DQS_RDWR_B_14*
X9500000Y524500D03*
G04 #@! TO.N,N/C*
G04 #@! TO.P,LOGIC1,K23,K23_IO_L18N_T2_A23_15*
X9500000Y3524500D03*
D10*
G04 #@! TO.P,LOGIC1,W26,W26_IO_L2N_T0_13*
X12500000Y-5475500D03*
D11*
G04 #@! TO.N,GND*
G04 #@! TO.P,LOGIC1,C15,C15_MGTAVTT_G11*
X1500000Y10524500D03*
D13*
G04 #@! TO.N,N/C*
G04 #@! TO.P,LOGIC1,M4,M4_IO_L3P_T0_DQS_34*
X-9500000Y1524500D03*
D12*
G04 #@! TO.N,GND*
G04 #@! TO.P,LOGIC1,AE6,AE6_GND*
X-7500000Y-11475500D03*
G04 #@! TO.N,VCC1V0*
G04 #@! TO.P,LOGIC1,P10,P10_VCCINT*
X-3500000Y-475500D03*
D11*
G04 #@! TO.N,P11_1V8*
G04 #@! TO.P,LOGIC1,D20,D20_IO_L14N_T2_SRCC_16*
X6500000Y9524500D03*
D12*
G04 #@! TO.N,N/C*
G04 #@! TO.P,LOGIC1,P11,P11_VN_0*
X-2500000Y-475500D03*
D10*
G04 #@! TO.N,GND*
G04 #@! TO.P,LOGIC1,P17,P17_GND*
X3500000Y-475500D03*
G04 #@! TO.N,N/C*
G04 #@! TO.P,LOGIC1,AD17,AD17_IO_L20N_T3_12*
X3500000Y-10475500D03*
D11*
G04 #@! TO.N,VCC1V8*
G04 #@! TO.P,LOGIC1,C25,C25_VCCO_16*
X11500000Y10524500D03*
D13*
G04 #@! TO.N,P46_1V8*
G04 #@! TO.P,LOGIC1,A5,A5_IO_L15N_T2_DQS_35*
X-8500000Y12524500D03*
D12*
G04 #@! TO.N,VCC1V8*
G04 #@! TO.P,LOGIC1,R9,R9_VCCAUX*
X-4500000Y-1475500D03*
D13*
G04 #@! TO.N,GND*
G04 #@! TO.P,LOGIC1,G13,G13_GND*
X-500000Y6524500D03*
D11*
G04 #@! TO.N,N/C*
G04 #@! TO.P,LOGIC1,C14,C14_MGTPRXN1_216*
X500000Y10524500D03*
D12*
G04 #@! TO.N,GND*
G04 #@! TO.P,LOGIC1,R10,R10_GND*
X-3500000Y-1475500D03*
G04 #@! TO.N,VCC1V0*
G04 #@! TO.P,LOGIC1,V12,V12_VCCINT*
X-1500000Y-4475500D03*
G04 #@! TO.P,LOGIC1,V10,V10_VCCINT*
X-3500000Y-4475500D03*
D11*
G04 #@! TO.N,GND*
G04 #@! TO.P,LOGIC1,A26,A26_GND*
X12500000Y12524500D03*
D12*
G04 #@! TO.N,N/C*
G04 #@! TO.P,LOGIC1,AB1,AB1_IO_L7P_T1_33*
X-12500000Y-8475500D03*
D11*
G04 #@! TO.N,GND*
G04 #@! TO.P,LOGIC1,E24,E24_GND*
X10500000Y8524500D03*
G04 #@! TO.P,LOGIC1,G18,G18_GND*
X4500000Y6524500D03*
D13*
G04 #@! TO.N,P72_1V8*
G04 #@! TO.P,LOGIC1,F5,F5_IO_L12N_T1_MRCC_35*
X-8500000Y7524500D03*
D11*
G04 #@! TO.N,N/C*
G04 #@! TO.P,LOGIC1,K20,K20_IO_L9P_T1_DQS_AD3P_15*
X6500000Y3524500D03*
D12*
G04 #@! TO.P,LOGIC1,U1,U1_IO_L18N_T2_34*
X-12500000Y-3475500D03*
D13*
G04 #@! TO.N,GND*
G04 #@! TO.P,LOGIC1,M13,M13_GND*
X-500000Y1524500D03*
D10*
G04 #@! TO.N,P34_3V3*
G04 #@! TO.P,LOGIC1,T22,T22_IO_L23P_T3_A03_D19_14*
X8500000Y-2475500D03*
G04 #@! TO.N,N/C*
G04 #@! TO.P,LOGIC1,AC16,AC16_IO_L22N_T3_12*
X2500000Y-9475500D03*
D13*
G04 #@! TO.P,LOGIC1,N2,N2_IO_L12N_T1_MRCC_34*
X-11500000Y524500D03*
D10*
G04 #@! TO.N,P39_3V3*
G04 #@! TO.P,LOGIC1,AF25,AF25_IO_L3N_T0_DQS_12*
X11500000Y-12475500D03*
D12*
G04 #@! TO.N,N/C*
G04 #@! TO.P,LOGIC1,P5,P5_IO_L19N_T3_VREF_34*
X-8500000Y-475500D03*
G04 #@! TO.N,GND*
G04 #@! TO.P,LOGIC1,AE4,AE4_GND*
X-9500000Y-11475500D03*
D11*
G04 #@! TO.N,N/C*
G04 #@! TO.P,LOGIC1,G21,G21_IO_L11N_T1_SRCC_15*
X7500000Y6524500D03*
D10*
G04 #@! TO.P,LOGIC1,AF18,AF18_IO_L16N_T2_12*
X4500000Y-12475500D03*
D13*
G04 #@! TO.P,LOGIC1,L5,L5_IO_L4P_T0_34*
X-8500000Y2524500D03*
D11*
G04 #@! TO.P,LOGIC1,F25,F25_IO_L23N_T3_FWE_B_15*
X11500000Y7524500D03*
D13*
G04 #@! TO.N,GND*
G04 #@! TO.P,LOGIC1,B3,B3_GND*
X-10500000Y11524500D03*
D11*
G04 #@! TO.N,N/C*
G04 #@! TO.P,LOGIC1,H26,H26_IO_L22P_T3_A17_15*
X12500000Y5524500D03*
G04 #@! TO.N,GND*
G04 #@! TO.P,LOGIC1,B14,B14_MGTAVTT_G11*
X500000Y11524500D03*
D10*
G04 #@! TO.N,P22_3V3*
G04 #@! TO.P,LOGIC1,T23,T23_IO_L24P_T3_A01_D17_14*
X9500000Y-2475500D03*
D13*
G04 #@! TO.N,N/C*
G04 #@! TO.P,LOGIC1,C8,C8_MGTPTXN1_216*
X-5500000Y10524500D03*
G04 #@! TO.N,VCC1V8*
G04 #@! TO.P,LOGIC1,G3,G3_VCCO_35*
X-10500000Y6524500D03*
G04 #@! TO.N,P62_1V8*
G04 #@! TO.P,LOGIC1,E2,E2_IO_L22N_T3_35*
X-11500000Y8524500D03*
D12*
G04 #@! TO.N,N/C*
G04 #@! TO.P,LOGIC1,AD4,AD4_IO_L18N_T2_33*
X-9500000Y-10475500D03*
D13*
G04 #@! TO.P,LOGIC1,L1,L1_VCCO_34*
X-12500000Y2524500D03*
G04 #@! TO.P,LOGIC1,B7,B7_MGTPTXP0_216*
X-6500000Y11524500D03*
G04 #@! TO.N,P55_1V8*
G04 #@! TO.P,LOGIC1,C2,C2_IO_L19P_T3_35*
X-11500000Y10524500D03*
D11*
G04 #@! TO.N,N/C*
G04 #@! TO.P,LOGIC1,A15,A15_MGTRREF_216*
X1500000Y12524500D03*
D10*
G04 #@! TO.N,D2*
G04 #@! TO.P,LOGIC1,P14,P14_IO_L2P_T0_D02_14*
X500000Y-475500D03*
G04 #@! TO.N,VCC3V3*
G04 #@! TO.P,LOGIC1,AE19,AE19_VCCO_12*
X5500000Y-11475500D03*
G04 #@! TO.N,GND*
G04 #@! TO.P,LOGIC1,AD16,AD16_GND*
X2500000Y-10475500D03*
D12*
G04 #@! TO.N,N/C*
G04 #@! TO.P,LOGIC1,V1,V1_IO_L1P_T0_33*
X-12500000Y-4475500D03*
D10*
G04 #@! TO.P,LOGIC1,Y17,Y17_IO_L21N_T3_DQS_12*
X3500000Y-6475500D03*
D11*
G04 #@! TO.P,LOGIC1,J17,J17_VCCO_15*
X3500000Y4524500D03*
D12*
G04 #@! TO.N,GND*
G04 #@! TO.P,LOGIC1,AB8,AB8_GND*
X-5500000Y-8475500D03*
G04 #@! TO.P,LOGIC1,AB10,AB10_GND*
X-3500000Y-8475500D03*
D13*
G04 #@! TO.N,N/C*
G04 #@! TO.P,LOGIC1,J3,J3_IO_L1N_T0_34*
X-10500000Y4524500D03*
D11*
G04 #@! TO.P,LOGIC1,N16,N16_IO_L4P_T0_D04_14*
X2500000Y524500D03*
G04 #@! TO.P,LOGIC1,J14,J14_IO_L2P_T0_AD8P_15*
X500000Y4524500D03*
D12*
G04 #@! TO.N,GND*
G04 #@! TO.P,LOGIC1,AB3,AB3_GND*
X-10500000Y-8475500D03*
D13*
G04 #@! TO.P,LOGIC1,B10,B10_MGTAVTT_G11*
X-3500000Y11524500D03*
D10*
G04 #@! TO.P,LOGIC1,AF14,AF14_GND*
X500000Y-12475500D03*
D12*
G04 #@! TO.N,N/C*
G04 #@! TO.P,LOGIC1,AF2,AF2_IO_L10N_T1_33*
X-11500000Y-12475500D03*
D10*
G04 #@! TO.N,P32_3V3*
G04 #@! TO.P,LOGIC1,R20,R20_IO_L18P_T2_A12_D28_14*
X6500000Y-1475500D03*
D13*
G04 #@! TO.N,P58_1V8*
G04 #@! TO.P,LOGIC1,D3,D3_IO_L17P_T2_35*
X-10500000Y9524500D03*
D12*
G04 #@! TO.N,GND*
G04 #@! TO.P,LOGIC1,U12,U12_GND*
X-1500000Y-3475500D03*
D11*
G04 #@! TO.N,VCC1V8*
G04 #@! TO.P,LOGIC1,D22,D22_VCCO_16*
X8500000Y9524500D03*
D13*
G04 #@! TO.N,N/C*
G04 #@! TO.P,LOGIC1,H4,H4_IO_L9N_T1_DQS_AD7N_35*
X-9500000Y5524500D03*
G04 #@! TO.P,LOGIC1,J5,J5_IO_L7N_T1_AD6N_35*
X-8500000Y4524500D03*
G04 #@! TO.N,GND*
G04 #@! TO.P,LOGIC1,F9,F9_GND*
X-4500000Y7524500D03*
D11*
G04 #@! TO.P,LOGIC1,K19,K19_GND*
X5500000Y3524500D03*
D12*
G04 #@! TO.N,N/C*
G04 #@! TO.P,LOGIC1,AE11,AE11_MGTPRXP3_213*
X-2500000Y-11475500D03*
D10*
G04 #@! TO.N,P54_3V3*
G04 #@! TO.P,LOGIC1,AC23,AC23_IO_L2N_T0_12*
X9500000Y-9475500D03*
D11*
G04 #@! TO.N,GND*
G04 #@! TO.P,LOGIC1,A16,A16_GND*
X2500000Y12524500D03*
D10*
G04 #@! TO.P,LOGIC1,AE15,AE15_GND*
X1500000Y-11475500D03*
D11*
G04 #@! TO.N,P0_1V8*
G04 #@! TO.P,LOGIC1,D16,D16_IO_L8N_T1_16*
X2500000Y9524500D03*
G04 #@! TO.N,N/C*
G04 #@! TO.P,LOGIC1,K21,K21_IO_L12P_T1_MRCC_15*
X7500000Y3524500D03*
D10*
G04 #@! TO.P,LOGIC1,Y24,Y24_VCCO_13*
X10500000Y-6475500D03*
D12*
G04 #@! TO.P,LOGIC1,AA2,AA2_IO_L12N_T1_MRCC_33*
X-11500000Y-7475500D03*
G04 #@! TO.N,GND*
G04 #@! TO.P,LOGIC1,AE8,AE8_MGTAVTT_G10*
X-5500000Y-11475500D03*
D10*
G04 #@! TO.N,N/C*
G04 #@! TO.P,LOGIC1,AA19,AA19_IO_L13P_T2_MRCC_12*
X5500000Y-7475500D03*
G04 #@! TO.P,LOGIC1,AB16,AB16_IO_L22P_T3_12*
X2500000Y-8475500D03*
D12*
G04 #@! TO.P,LOGIC1,U3,U3_VCCO_33*
X-10500000Y-3475500D03*
G04 #@! TO.P,LOGIC1,AD3,AD3_IO_L14N_T2_SRCC_33*
X-10500000Y-10475500D03*
D11*
G04 #@! TO.P,LOGIC1,H16,H16_IO_L6P_T0_16*
X2500000Y5524500D03*
G04 #@! TO.P,LOGIC1,J16,J16_IO_L1N_T0_AD0N_15*
X2500000Y4524500D03*
D10*
G04 #@! TO.N,GND*
G04 #@! TO.P,LOGIC1,AE14,AE14_MGTAVTT_G10*
X500000Y-11475500D03*
D12*
G04 #@! TO.P,LOGIC1,V13,V13_GND*
X-500000Y-4475500D03*
D13*
G04 #@! TO.N,P51_1V8*
G04 #@! TO.P,LOGIC1,G1,G1_IO_L24N_T3_35*
X-12500000Y6524500D03*
D11*
G04 #@! TO.N,N/C*
G04 #@! TO.P,LOGIC1,H18,H18_IO_L10N_T1_AD11N_15*
X4500000Y5524500D03*
D10*
G04 #@! TO.N,GND*
G04 #@! TO.P,LOGIC1,R24,R24_GND*
X10500000Y-1475500D03*
G04 #@! TO.N,D0*
G04 #@! TO.P,LOGIC1,R14,R14_IO_L1P_T0_D00_MOSI_14*
X500000Y-1475500D03*
D14*
G04 #@! TO.N,P64_1V8*
G04 #@! TO.C,J2*
G04 #@! TO.P,J2,24,24*
X-24804000Y-10630000D03*
G04 #@! TO.N,P45_1V8*
G04 #@! TO.P,J2,2,2*
X-24804000Y17310000D03*
G04 #@! TO.N,P55_1V8*
G04 #@! TO.P,J2,18,18*
X-24804000Y-3010000D03*
G04 #@! TO.N,P53_1V8*
G04 #@! TO.P,J2,8,8*
X-24804000Y9690000D03*
G04 #@! TO.N,P68_1V8*
G04 #@! TO.P,J2,15,15*
X-27344000Y-470000D03*
G04 #@! TO.N,P61_1V8*
G04 #@! TO.P,J2,3,3*
X-27344000Y14770000D03*
G04 #@! TO.N,P72_1V8*
G04 #@! TO.P,J2,14,14*
X-24804000Y2070000D03*
G04 #@! TO.N,P43_1V8*
G04 #@! TO.P,J2,6,6*
X-24804000Y12230000D03*
G04 #@! TO.N,P49_1V8*
G04 #@! TO.P,J2,22,22*
X-24804000Y-8090000D03*
G04 #@! TO.N,P65_1V8*
G04 #@! TO.P,J2,12,12*
X-24804000Y4610000D03*
G04 #@! TO.N,P62_1V8*
G04 #@! TO.P,J2,26,26*
X-24804000Y-13170000D03*
G04 #@! TO.N,P52_1V8*
G04 #@! TO.P,J2,9,9*
X-27344000Y7150000D03*
D15*
G04 #@! TO.N,P46_1V8*
G04 #@! TO.P,J2,1,1*
X-27344000Y17310000D03*
D14*
G04 #@! TO.N,P50_1V8*
G04 #@! TO.P,J2,23,23*
X-27344000Y-10630000D03*
G04 #@! TO.N,P56_1V8*
G04 #@! TO.P,J2,13,13*
X-27344000Y2070000D03*
G04 #@! TO.N,P58_1V8*
G04 #@! TO.P,J2,19,19*
X-27344000Y-5550000D03*
G04 #@! TO.N,P59_1V8*
G04 #@! TO.P,J2,11,11*
X-27344000Y4610000D03*
G04 #@! TO.N,P54_1V8*
G04 #@! TO.P,J2,7,7*
X-27344000Y9690000D03*
G04 #@! TO.N,P44_1V8*
G04 #@! TO.P,J2,5,5*
X-27344000Y12230000D03*
G04 #@! TO.N,P60_1V8*
G04 #@! TO.P,J2,4,4*
X-24804000Y14770000D03*
G04 #@! TO.N,P66_1V8*
G04 #@! TO.P,J2,28,28*
X-24804000Y-15710000D03*
G04 #@! TO.N,P69_1V8*
G04 #@! TO.P,J2,29,29*
X-27344000Y-18250000D03*
G04 #@! TO.N,P70_1V8*
G04 #@! TO.P,J2,17,17*
X-27344000Y-3010000D03*
G04 #@! TO.N,P51_1V8*
G04 #@! TO.P,J2,30,30*
X-24804000Y-18250000D03*
G04 #@! TO.N,P71_1V8*
G04 #@! TO.P,J2,16,16*
X-24804000Y-470000D03*
G04 #@! TO.N,P47_1V8*
G04 #@! TO.P,J2,20,20*
X-24804000Y-5550000D03*
G04 #@! TO.N,P48_1V8*
G04 #@! TO.P,J2,21,21*
X-27344000Y-8090000D03*
G04 #@! TO.N,P67_1V8*
G04 #@! TO.P,J2,27,27*
X-27344000Y-15710000D03*
G04 #@! TO.N,P57_1V8*
G04 #@! TO.P,J2,10,10*
X-24804000Y7150000D03*
G04 #@! TO.N,P63_1V8*
G04 #@! TO.P,J2,25,25*
X-27344000Y-13170000D03*
D16*
G04 #@! TO.N,N/C*
G04 #@! TO.C,FLASH1*
G04 #@! TO.P,FLASH1,12,DNU*
X3482000Y-31293000D03*
G04 #@! TO.P,FLASH1,13*
X3482000Y-30023000D03*
G04 #@! TO.N,FLASH_WP#/IO2*
G04 #@! TO.P,FLASH1,9,WP#/IO2*
X3482000Y-35103000D03*
G04 #@! TO.N,N/C*
G04 #@! TO.P,FLASH1,3,RESET#/RFU*
X-6418000Y-28753000D03*
G04 #@! TO.N,FLASH_VSS*
G04 #@! TO.P,FLASH1,10,VSS*
X3482000Y-33833000D03*
G04 #@! TO.N,N/C*
G04 #@! TO.P,FLASH1,11,DNU*
X3482000Y-32563000D03*
G04 #@! TO.P,FLASH1,4,DNU*
X-6418000Y-30023000D03*
G04 #@! TO.N,FLASH_VCC*
G04 #@! TO.P,FLASH1,2,VCC*
X-6418000Y-27483000D03*
G04 #@! TO.N,FLASH_SO/IO1*
G04 #@! TO.P,FLASH1,8,SO/IO1*
X-6418000Y-35103000D03*
G04 #@! TO.N,FLASH_SI/IO0*
G04 #@! TO.P,FLASH1,15,SI/IO0*
X3482000Y-27483000D03*
G04 #@! TO.N,FLASH_CS*
G04 #@! TO.P,FLASH1,7,CS#*
X-6418000Y-33833000D03*
G04 #@! TO.N,FLASH_SCK*
G04 #@! TO.P,FLASH1,16,SCK*
X3482000Y-26213000D03*
G04 #@! TO.N,N/C*
G04 #@! TO.P,FLASH1,6,RFU*
X-6418000Y-32563000D03*
G04 #@! TO.N,FLASH_HOLD#/IO3*
G04 #@! TO.P,FLASH1,1,HOLD#/IO3*
X-6418000Y-26213000D03*
G04 #@! TO.N,N/C*
G04 #@! TO.P,FLASH1,5,DNU*
X-6418000Y-31293000D03*
G04 #@! TO.P,FLASH1,14,VIO/RFU*
X3482000Y-28753000D03*
D17*
G04 #@! TO.N,FLASH_WP#/IO2*
G04 #@! TO.C,R31*
G04 #@! TO.P,R31,1,1*
X0Y-23700000D03*
G04 #@! TO.N,D2*
G04 #@! TO.P,R31,2,2*
X0Y-23300000D03*
D14*
G04 #@! TO.N,GND*
G04 #@! TO.C,J4*
G04 #@! TO.P,J4,2,2*
X-31589000Y19991000D03*
D15*
G04 #@! TO.N,+5V*
G04 #@! TO.P,J4,1,1*
X-31589000Y22531000D03*
D17*
G04 #@! TO.N,FLASH_HOLD#/IO3*
G04 #@! TO.C,R32*
G04 #@! TO.P,R32,1,1*
X-4080000Y-24500000D03*
G04 #@! TO.N,D3*
G04 #@! TO.P,R32,2,2*
X-3680000Y-24500000D03*
D18*
G04 #@! TO.N,GND*
G04 #@! TO.C,C29*
G04 #@! TO.P,C29,2,2*
X-28692000Y20613000D03*
G04 #@! TO.N,+5V*
G04 #@! TO.P,C29,1,1*
X-28692000Y22063000D03*
D14*
G04 #@! TO.N,P38_3V3*
G04 #@! TO.C,J6*
G04 #@! TO.P,J6,26,26*
X27340000Y-13170000D03*
G04 #@! TO.N,P1_3V3*
G04 #@! TO.P,J6,4,4*
X27340000Y14770000D03*
G04 #@! TO.N,P24_3V3*
G04 #@! TO.P,J6,14,14*
X27340000Y2070000D03*
G04 #@! TO.N,P44_3V3*
G04 #@! TO.P,J6,21,21*
X24800000Y-8090000D03*
G04 #@! TO.N,P2_3V3*
G04 #@! TO.P,J6,6,6*
X27340000Y12230000D03*
G04 #@! TO.N,P26_3V3*
G04 #@! TO.P,J6,11,11*
X24800000Y4610000D03*
G04 #@! TO.N,P40_3V3*
G04 #@! TO.P,J6,28,28*
X27340000Y-15710000D03*
G04 #@! TO.N,P22_3V3*
G04 #@! TO.P,J6,16,16*
X27340000Y-470000D03*
G04 #@! TO.N,P48_3V3*
G04 #@! TO.P,J6,17,17*
X24800000Y-3010000D03*
G04 #@! TO.N,P7_3V3*
G04 #@! TO.P,J6,9,9*
X24800000Y7150000D03*
G04 #@! TO.N,P23_3V3*
G04 #@! TO.P,J6,13,13*
X24800000Y2070000D03*
G04 #@! TO.N,P3_3V3*
G04 #@! TO.P,J6,5,5*
X24800000Y12230000D03*
G04 #@! TO.N,P0_3V3*
G04 #@! TO.P,J6,2,2*
X27340000Y17310000D03*
G04 #@! TO.N,P45_3V3*
G04 #@! TO.P,J6,22,22*
X27340000Y-8090000D03*
G04 #@! TO.N,P35_3V3*
G04 #@! TO.P,J6,23,23*
X24800000Y-10630000D03*
G04 #@! TO.N,P37_3V3*
G04 #@! TO.P,J6,25,25*
X24800000Y-13170000D03*
G04 #@! TO.N,P9_3V3*
G04 #@! TO.P,J6,8,8*
X27340000Y9690000D03*
G04 #@! TO.N,P43_3V3*
G04 #@! TO.P,J6,18,18*
X27340000Y-3010000D03*
G04 #@! TO.N,P6_3V3*
G04 #@! TO.P,J6,7,7*
X24800000Y9690000D03*
G04 #@! TO.N,P49_3V3*
G04 #@! TO.P,J6,20,20*
X27340000Y-5550000D03*
G04 #@! TO.N,N/C*
G04 #@! TO.P,J6,15,15*
X24800000Y-470000D03*
G04 #@! TO.N,GND*
G04 #@! TO.P,J6,30,30*
X27340000Y-18250000D03*
D15*
G04 #@! TO.N,P5_3V3*
G04 #@! TO.P,J6,1,1*
X24800000Y17310000D03*
D14*
G04 #@! TO.N,P4_3V3*
G04 #@! TO.P,J6,3,3*
X24800000Y14770000D03*
G04 #@! TO.N,P8_3V3*
G04 #@! TO.P,J6,10,10*
X27340000Y7150000D03*
G04 #@! TO.N,P25_3V3*
G04 #@! TO.P,J6,12,12*
X27340000Y4610000D03*
G04 #@! TO.N,VCC3V3*
G04 #@! TO.P,J6,29,29*
X24800000Y-18250000D03*
G04 #@! TO.N,P42_3V3*
G04 #@! TO.P,J6,19,19*
X24800000Y-5550000D03*
G04 #@! TO.N,P41_3V3*
G04 #@! TO.P,J6,27,27*
X24800000Y-15710000D03*
G04 #@! TO.N,P36_3V3*
G04 #@! TO.P,J6,24,24*
X27340000Y-10630000D03*
D17*
G04 #@! TO.N,FLASH_CS*
G04 #@! TO.C,R37*
G04 #@! TO.P,R37,1,1*
X-7718000Y-33833000D03*
G04 #@! TO.N,FLASH_VCC*
G04 #@! TO.P,R37,2,2*
X-8118000Y-33833000D03*
G04 #@! TO.N,N23*
G04 #@! TO.C,R29*
G04 #@! TO.P,R29,1,1*
X910000Y-23300000D03*
G04 #@! TO.N,FLASH_SI/IO0*
G04 #@! TO.P,R29,2,2*
X910000Y-23700000D03*
D19*
G04 #@! TO.N,LED1*
G04 #@! TO.C,LED1*
G04 #@! TO.P,LED1,C,C*
X-18536000Y-7972D03*
G04 #@! TO.N,N38*
G04 #@! TO.P,LED1,A,A*
X-18536000Y1542028D03*
D20*
G04 #@! TO.N,P29_1V8*
G04 #@! TO.C,J1*
G04 #@! TO.P,J1,42,42*
X26202000Y27340000D03*
G04 #@! TO.N,P41_1V8*
G04 #@! TO.P,J1,9,9*
X-14438000Y24800000D03*
G04 #@! TO.N,P0_1V8*
G04 #@! TO.P,J1,6,6*
X-19518000Y27340000D03*
G04 #@! TO.N,P30_1V8*
G04 #@! TO.P,J1,41,41*
X26202000Y24800000D03*
G04 #@! TO.N,P7_1V8*
G04 #@! TO.P,J1,19,19*
X-1738000Y24800000D03*
G04 #@! TO.N,P11_1V8*
G04 #@! TO.P,J1,26,26*
X5882000Y27340000D03*
G04 #@! TO.N,P1_1V8*
G04 #@! TO.P,J1,5,5*
X-19518000Y24800000D03*
G04 #@! TO.N,P40_1V8*
G04 #@! TO.P,J1,17,17*
X-4278000Y24800000D03*
G04 #@! TO.N,GND*
G04 #@! TO.P,J1,44,44*
X28742000Y27340000D03*
G04 #@! TO.N,P6_1V8*
G04 #@! TO.P,J1,8,8*
X-16978000Y27340000D03*
G04 #@! TO.N,P27_1V8*
G04 #@! TO.P,J1,40,40*
X23662000Y27340000D03*
G04 #@! TO.N,P22_1V8*
G04 #@! TO.P,J1,30,30*
X10962000Y27340000D03*
G04 #@! TO.N,P23_1V8*
G04 #@! TO.P,J1,31,31*
X13502000Y24800000D03*
D21*
G04 #@! TO.N,P34_1V8*
G04 #@! TO.P,J1,1,1*
X-24598000Y24800000D03*
D20*
G04 #@! TO.N,P21_1V8*
G04 #@! TO.P,J1,29,29*
X10962000Y24800000D03*
G04 #@! TO.N,P31_1V8*
G04 #@! TO.P,J1,34,34*
X16042000Y27340000D03*
G04 #@! TO.N,P32_1V8*
G04 #@! TO.P,J1,3,3*
X-22058000Y24800000D03*
G04 #@! TO.N,P12_1V8*
G04 #@! TO.P,J1,25,25*
X5882000Y24800000D03*
G04 #@! TO.N,P17_1V8*
G04 #@! TO.P,J1,24,24*
X3342000Y27340000D03*
G04 #@! TO.N,P33_1V8*
G04 #@! TO.P,J1,2,2*
X-24598000Y27340000D03*
G04 #@! TO.N,P20_1V8*
G04 #@! TO.P,J1,28,28*
X8422000Y27340000D03*
G04 #@! TO.N,P37_1V8*
G04 #@! TO.P,J1,16,16*
X-6818000Y27340000D03*
G04 #@! TO.N,P13_1V8*
G04 #@! TO.P,J1,22,22*
X802000Y27340000D03*
G04 #@! TO.N,P14_1V8*
G04 #@! TO.P,J1,38,38*
X21122000Y27340000D03*
G04 #@! TO.N,VCC1V8*
G04 #@! TO.P,J1,43,43*
X28742000Y24800000D03*
G04 #@! TO.N,P35_1V8*
G04 #@! TO.P,J1,13,13*
X-9358000Y24800000D03*
G04 #@! TO.N,P25_1V8*
G04 #@! TO.P,J1,33,33*
X16042000Y24800000D03*
G04 #@! TO.N,P2_1V8*
G04 #@! TO.P,J1,4,4*
X-22058000Y27340000D03*
G04 #@! TO.N,P19_1V8*
G04 #@! TO.P,J1,27,27*
X8422000Y24800000D03*
G04 #@! TO.N,P3_1V8*
G04 #@! TO.P,J1,7,7*
X-16978000Y24800000D03*
G04 #@! TO.N,P4_1V8*
G04 #@! TO.P,J1,11,11*
X-11898000Y24800000D03*
G04 #@! TO.N,P15_1V8*
G04 #@! TO.P,J1,35,35*
X18582000Y24800000D03*
G04 #@! TO.N,P8_1V8*
G04 #@! TO.P,J1,20,20*
X-1738000Y27340000D03*
G04 #@! TO.N,P28_1V8*
G04 #@! TO.P,J1,37,37*
X21122000Y24800000D03*
G04 #@! TO.N,P10_1V8*
G04 #@! TO.P,J1,21,21*
X802000Y24800000D03*
G04 #@! TO.N,P38_1V8*
G04 #@! TO.P,J1,18,18*
X-4278000Y27340000D03*
G04 #@! TO.N,P16_1V8*
G04 #@! TO.P,J1,36,36*
X18582000Y27340000D03*
G04 #@! TO.N,P18_1V8*
G04 #@! TO.P,J1,23,23*
X3342000Y24800000D03*
G04 #@! TO.N,P39_1V8*
G04 #@! TO.P,J1,15,15*
X-6818000Y24800000D03*
G04 #@! TO.N,P24_1V8*
G04 #@! TO.P,J1,32,32*
X13502000Y27340000D03*
G04 #@! TO.N,P9_1V8*
G04 #@! TO.P,J1,12,12*
X-11898000Y27340000D03*
G04 #@! TO.N,P36_1V8*
G04 #@! TO.P,J1,14,14*
X-9358000Y27340000D03*
G04 #@! TO.N,P26_1V8*
G04 #@! TO.P,J1,39,39*
X23662000Y24800000D03*
G04 #@! TO.N,P42_1V8*
G04 #@! TO.P,J1,10,10*
X-14438000Y27340000D03*
D17*
G04 #@! TO.N,CFGBVS*
G04 #@! TO.C,R25*
G04 #@! TO.P,R25,1,1*
X3560000Y-15210000D03*
G04 #@! TO.N,VCC3V3*
G04 #@! TO.P,R25,2,2*
X3960000Y-15210000D03*
G04 #@! TO.N,DONE*
G04 #@! TO.C,R34*
G04 #@! TO.P,R34,1,1*
X-2813000Y-14538000D03*
G04 #@! TO.N,VCC3V3*
G04 #@! TO.P,R34,2,2*
X-2813000Y-14938000D03*
G04 #@! TO.N,N13*
G04 #@! TO.C,R30*
G04 #@! TO.P,R30,1,1*
X-890000Y-23300000D03*
G04 #@! TO.N,FLASH_SO/IO1*
G04 #@! TO.P,R30,2,2*
X-890000Y-23700000D03*
D14*
G04 #@! TO.N,GND*
G04 #@! TO.C,J8*
G04 #@! TO.P,J8,2,2*
X15040000Y-20070000D03*
D15*
G04 #@! TO.N,PROGRAM_B*
G04 #@! TO.P,J8,1,1*
X15040000Y-17530000D03*
D22*
G04 #@! TO.N,VCC3V3*
G04 #@! TO.C,R20*
G04 #@! TO.P,R20,2,2*
X-16586000Y2942000D03*
G04 #@! TO.N,N38*
G04 #@! TO.P,R20,1,1*
X-18536000Y2942000D03*
D17*
G04 #@! TO.N,M0*
G04 #@! TO.C,R26*
G04 #@! TO.P,R26,1,1*
X-7854000Y-13928000D03*
G04 #@! TO.N,VCC3V3*
G04 #@! TO.P,R26,2,2*
X-8254000Y-13928000D03*
G04 #@! TO.C,R33*
G04 #@! TO.P,R33,1,1*
X-340000Y-15040000D03*
G04 #@! TO.N,PROGRAM_B*
G04 #@! TO.P,R33,2,2*
X60000Y-15040000D03*
D14*
G04 #@! TO.N,P57_3V3*
G04 #@! TO.C,J3*
G04 #@! TO.P,J3,24,24*
X33070000Y-10630000D03*
G04 #@! TO.N,P13_3V3*
G04 #@! TO.P,J3,2,2*
X33070000Y17310000D03*
G04 #@! TO.N,P33_3V3*
G04 #@! TO.P,J3,18,18*
X33070000Y-3010000D03*
G04 #@! TO.N,P11_3V3*
G04 #@! TO.P,J3,8,8*
X33070000Y9690000D03*
G04 #@! TO.N,P15_3V3*
G04 #@! TO.P,J3,15,15*
X30530000Y-470000D03*
G04 #@! TO.N,P27_3V3*
G04 #@! TO.P,J3,3,3*
X30530000Y14770000D03*
G04 #@! TO.N,P21_3V3*
G04 #@! TO.P,J3,14,14*
X33070000Y2070000D03*
G04 #@! TO.N,P10_3V3*
G04 #@! TO.P,J3,6,6*
X33070000Y12230000D03*
G04 #@! TO.N,P51_3V3*
G04 #@! TO.P,J3,22,22*
X33070000Y-8090000D03*
G04 #@! TO.N,P19_3V3*
G04 #@! TO.P,J3,12,12*
X33070000Y4610000D03*
G04 #@! TO.N,P55_3V3*
G04 #@! TO.P,J3,26,26*
X33070000Y-13170000D03*
G04 #@! TO.N,P18_3V3*
G04 #@! TO.P,J3,9,9*
X30530000Y7150000D03*
D15*
G04 #@! TO.N,N/C*
G04 #@! TO.P,J3,1,1*
X30530000Y17310000D03*
D14*
G04 #@! TO.N,P54_3V3*
G04 #@! TO.P,J3,23,23*
X30530000Y-10630000D03*
G04 #@! TO.N,P30_3V3*
G04 #@! TO.P,J3,13,13*
X30530000Y2070000D03*
G04 #@! TO.N,P29_3V3*
G04 #@! TO.P,J3,19,19*
X30530000Y-5550000D03*
G04 #@! TO.N,P20_3V3*
G04 #@! TO.P,J3,11,11*
X30530000Y4610000D03*
G04 #@! TO.N,P16_3V3*
G04 #@! TO.P,J3,7,7*
X30530000Y9690000D03*
G04 #@! TO.N,P12_3V3*
G04 #@! TO.P,J3,5,5*
X30530000Y12230000D03*
G04 #@! TO.N,P14_3V3*
G04 #@! TO.P,J3,4,4*
X33070000Y14770000D03*
G04 #@! TO.N,N/C*
G04 #@! TO.P,J3,28,28*
X33070000Y-15710000D03*
G04 #@! TO.N,P47_3V3*
G04 #@! TO.P,J3,29,29*
X30530000Y-18250000D03*
G04 #@! TO.N,P32_3V3*
G04 #@! TO.P,J3,17,17*
X30530000Y-3010000D03*
G04 #@! TO.N,P46_3V3*
G04 #@! TO.P,J3,30,30*
X33070000Y-18250000D03*
G04 #@! TO.N,P34_3V3*
G04 #@! TO.P,J3,16,16*
X33070000Y-470000D03*
G04 #@! TO.N,P31_3V3*
G04 #@! TO.P,J3,20,20*
X33070000Y-5550000D03*
G04 #@! TO.N,P50_3V3*
G04 #@! TO.P,J3,21,21*
X30530000Y-8090000D03*
G04 #@! TO.N,P52_3V3*
G04 #@! TO.P,J3,27,27*
X30530000Y-15710000D03*
G04 #@! TO.N,P17_3V3*
G04 #@! TO.P,J3,10,10*
X33070000Y7150000D03*
G04 #@! TO.N,P56_3V3*
G04 #@! TO.P,J3,25,25*
X30530000Y-13170000D03*
D20*
G04 #@! TO.N,N23*
G04 #@! TO.C,J5*
G04 #@! TO.P,J5,9,9*
X2817000Y-20270000D03*
D21*
G04 #@! TO.N,FLASH_VCC*
G04 #@! TO.P,J5,1,1*
X-7343000Y-20270000D03*
D20*
G04 #@! TO.N,GND*
G04 #@! TO.P,J5,4,4*
X-4803000Y-17730000D03*
G04 #@! TO.N,FLASH_SCK*
G04 #@! TO.P,J5,5,5*
X-2263000Y-20270000D03*
G04 #@! TO.N,VCC3V3*
G04 #@! TO.P,J5,2,2*
X-7343000Y-17730000D03*
G04 #@! TO.N,FLASH_VSS*
G04 #@! TO.P,J5,3,3*
X-4803000Y-20270000D03*
G04 #@! TO.N,CCLK*
G04 #@! TO.P,J5,6,6*
X-2263000Y-17730000D03*
G04 #@! TO.N,D0*
G04 #@! TO.P,J5,10,10*
X2817000Y-17730000D03*
G04 #@! TO.N,FLASH_CS*
G04 #@! TO.P,J5,11,11*
X5357000Y-20270000D03*
G04 #@! TO.N,FCS_B*
G04 #@! TO.P,J5,12,12*
X5357000Y-17730000D03*
G04 #@! TO.N,D1*
G04 #@! TO.P,J5,8,8*
X277000Y-17730000D03*
G04 #@! TO.N,N13*
G04 #@! TO.P,J5,7,7*
X277000Y-20270000D03*
D18*
G04 #@! TO.N,FLASH_VSS*
G04 #@! TO.C,C96*
G04 #@! TO.P,C96,2,2*
X-8718000Y-28933000D03*
G04 #@! TO.N,FLASH_VCC*
G04 #@! TO.P,C96,1,1*
X-8718000Y-27483000D03*
D23*
G04 #@! TD.C*
G04 #@! TD.P*
G04 #@! TO.N,GND*
X32500000Y26600000D03*
G04 #@! TO.N,P31_1V8*
X11017000Y10042000D03*
D24*
X10500000Y9525000D02*
X11017000Y10042000D01*
X10500000Y9524500D02*
X10500000Y9525000D01*
D23*
G04 #@! TO.N,GND*
X-29392000Y19508000D03*
X26700000Y-20500000D03*
G04 #@! TO.N,VCC3V3*
X24100000Y-20500000D03*
G04 #@! TO.N,P71_1V8*
X-8500000Y6524000D03*
G04 #@! TO.N,P45_3V3*
X9018000Y-11994000D03*
D25*
X8500000Y-11476000D02*
X9018000Y-11994000D01*
X8500000Y-11475500D02*
X8500000Y-11476000D01*
D23*
G04 #@! TO.N,P28_1V8*
X10017000Y11042000D03*
D24*
X9500000Y10524500D02*
X9500000Y10525000D01*
X9500000Y10525000D02*
X10017000Y11042000D01*
D23*
G04 #@! TO.N,P70_1V8*
X-9500000Y6524000D03*
G04 #@! TO.N,P21_3V3*
X12018000Y-1994000D03*
D24*
X11500000Y-1475500D02*
X11500000Y-1476000D01*
X11500000Y-1476000D02*
X12018000Y-1994000D01*
D23*
G04 #@! TO.N,VCC3V3*
X24800000Y-21200000D03*
G04 #@! TO.N,GND*
X-7018000Y10042000D03*
D24*
X-6500000Y9524500D02*
X-6500500Y9524500D01*
X-6500500Y9524500D02*
X-7018000Y10042000D01*
D23*
X3018000Y-7994000D03*
D24*
X2500000Y-7475500D02*
X2500000Y-7476000D01*
X2500000Y-7476000D02*
X3018000Y-7994000D01*
D23*
X-13018000Y-2993000D03*
D24*
X-12500000Y-2475500D02*
X-12500500Y-2475500D01*
X-12500000Y-2475500D02*
X-12500500Y-2475500D01*
X-12500500Y-2475500D02*
X-13018000Y-2993000D01*
D23*
G04 #@! TO.N,P34_1V8*
X1017000Y13982000D03*
D25*
X-5191000Y20190000D02*
X-19965000Y20190000D01*
X1017000Y13982000D02*
X-5191000Y20190000D01*
X-24598000Y22073000D02*
X-24598000Y24800000D01*
X-19965000Y20190000D02*
X-22715000Y20190000D01*
X-22715000Y20190000D02*
X-24443000Y21918000D01*
X-24443000Y21918000D02*
X-24598000Y22073000D01*
D23*
G04 #@! TO.N,GND*
X-4018000Y3042000D03*
D24*
X-3500500Y2524500D02*
X-4018000Y3042000D01*
X-3500000Y2524500D02*
X-3500500Y2524500D01*
D25*
G04 #@! TO.N,P19_1V8*
X9600000Y13624500D02*
X9600000Y21166000D01*
X9600000Y21166000D02*
X8422000Y22344000D01*
X8500000Y12524500D02*
X9600000Y13624500D01*
X8422000Y22344000D02*
X8422000Y24800000D01*
D23*
G04 #@! TO.N,P55_3V3*
X9018000Y-9994000D03*
D25*
X8500000Y-9475500D02*
X8500000Y-9476000D01*
X8500000Y-9476000D02*
X9018000Y-9994000D01*
D23*
G04 #@! TO.N,P63_1V8*
X-14958000Y9042000D03*
D25*
X-15510000Y8720000D02*
X-18900000Y5330000D01*
X-20600000Y-10650000D02*
X-21750000Y-11800000D01*
X-18900000Y5330000D02*
X-20300000Y3930000D01*
X-25774000Y-11800000D02*
X-25974000Y-11800000D01*
X-20300000Y-10350000D02*
X-20600000Y-10650000D01*
X-25974000Y-11800000D02*
X-27344000Y-13170000D01*
X-20300000Y3930000D02*
X-20300000Y2050000D01*
X-20300000Y-8450000D02*
X-20300000Y-10350000D01*
X-20300000Y-8450000D02*
X-20300000Y2050000D01*
X-25774000Y-11800000D02*
X-21750000Y-11800000D01*
X-14958000Y9042000D02*
X-15280000Y8720000D01*
X-15280000Y8720000D02*
X-15510000Y8720000D01*
D23*
G04 #@! TO.N,GND*
X2018000Y-9994000D03*
D24*
X1500000Y-9476000D02*
X2018000Y-9994000D01*
X1500000Y-9475500D02*
X1500000Y-9476000D01*
D23*
G04 #@! TO.N,P33_1V8*
X2017000Y6042000D03*
D25*
X2017000Y6041500D02*
X2017000Y6042000D01*
X1500000Y5524500D02*
X2017000Y6041500D01*
D23*
G04 #@! TO.N,GND*
X-5018000Y-9993000D03*
D25*
X-4500500Y-9475500D02*
X-5018000Y-9993000D01*
X-4500000Y-9475500D02*
X-4500500Y-9475500D01*
D23*
G04 #@! TO.N,P9_1V8*
X6017000Y13982000D03*
D25*
X-10000000Y23027000D02*
X-10626000Y23653000D01*
X-1392000Y23027000D02*
X-5365000Y23027000D01*
X-10626000Y26068000D02*
X-11898000Y27340000D01*
X5490000Y14509000D02*
X5490000Y16145000D01*
X-5365000Y23027000D02*
X-10000000Y23027000D01*
X-10626000Y23653000D02*
X-10626000Y26068000D01*
X5490000Y16145000D02*
X-1392000Y23027000D01*
X6017000Y13982000D02*
X5490000Y14509000D01*
D23*
G04 #@! TO.N,VCC3V3*
X10497000Y3528000D03*
G04 #@! TO.N,GND*
X2017000Y12042000D03*
D24*
X1500000Y11525000D02*
X2017000Y12042000D01*
X1500000Y11524500D02*
X1500000Y11525000D01*
D23*
G04 #@! TO.N,P36_1V8*
X3017000Y9042000D03*
D25*
X2500000Y8524500D02*
X2500000Y8525000D01*
X2500000Y8525000D02*
X3017000Y9042000D01*
D23*
G04 #@! TO.N,GND*
X7018000Y-9994000D03*
D24*
X6500000Y-9476000D02*
X7018000Y-9994000D01*
X6500000Y-9475500D02*
X6500000Y-9476000D01*
D23*
X11018000Y-11994000D03*
D24*
X10500000Y-11476000D02*
X11018000Y-11994000D01*
X10500000Y-11475500D02*
X10500000Y-11476000D01*
D23*
G04 #@! TO.N,VCC1V0*
X-4018000Y-4993000D03*
D24*
X-3500000Y-4475500D02*
X-3500000Y-4475500D01*
X-3500000Y-4475500D02*
X-4018000Y-4993000D01*
D23*
G04 #@! TO.N,GND*
X-11018000Y2042000D03*
D24*
X-10500500Y1524500D02*
X-11018000Y2042000D01*
X-10500000Y1524500D02*
X-10500500Y1524500D01*
D23*
X-1018000Y-4993000D03*
D24*
X-500000Y-4475500D02*
X-500500Y-4475500D01*
X-500500Y-4475500D02*
X-1018000Y-4993000D01*
D23*
X31100000Y28000000D03*
X-7018000Y9042000D03*
D24*
X-6500500Y8524500D02*
X-7018000Y9042000D01*
X-6500000Y8524500D02*
X-6500500Y8524500D01*
D23*
X32500000Y28000000D03*
G04 #@! TO.N,VCC3V3*
X-8754000Y-13928000D03*
D25*
X-8254000Y-13928000D02*
X-8754000Y-13928000D01*
D23*
G04 #@! TO.N,P27_1V8*
X15747000Y12042000D03*
D25*
X18218000Y18300000D02*
X18218000Y18951000D01*
X15747000Y12042000D02*
X18218000Y14513000D01*
X18218000Y18951000D02*
X20197000Y20930000D01*
X20197000Y20930000D02*
X21590000Y20930000D01*
X22420000Y21780000D02*
X22420000Y25820000D01*
X22420000Y25820000D02*
X22420000Y26098000D01*
X21590000Y20930000D02*
X22430000Y21770000D01*
X22430000Y21770000D02*
X22420000Y21780000D01*
X18218000Y14513000D02*
X18218000Y18300000D01*
X22420000Y26098000D02*
X23662000Y27340000D01*
D23*
G04 #@! TO.N,GND*
X2017000Y9042000D03*
D24*
X1500000Y8525000D02*
X2017000Y9042000D01*
X1500000Y8524500D02*
X1500000Y8525000D01*
D23*
X8018000Y-2994000D03*
D24*
X7500000Y-2475500D02*
X7500000Y-2476000D01*
X7500000Y-2476000D02*
X8018000Y-2994000D01*
D23*
G04 #@! TO.N,PROGRAM_B*
X3018000Y-13934000D03*
D25*
X5410000Y-13300000D02*
X7750000Y-15640000D01*
X3018000Y-13934000D02*
X3652000Y-13300000D01*
X4200000Y-13300000D02*
X5410000Y-13300000D01*
X13150000Y-15640000D02*
X15040000Y-17530000D01*
X3652000Y-13300000D02*
X4000000Y-13300000D01*
D24*
X4000000Y-13300000D02*
X4200000Y-13300000D01*
D25*
X12160000Y-15640000D02*
X13150000Y-15640000D01*
D24*
X4000000Y-13300000D02*
X3652000Y-13300000D01*
X7750000Y-15640000D02*
X12160000Y-15640000D01*
D23*
G04 #@! TO.N,GND*
X-7018000Y-10993000D03*
D25*
X-6500500Y-10475500D02*
X-7018000Y-10993000D01*
X-6500000Y-10475500D02*
X-6500500Y-10475500D01*
D23*
G04 #@! TO.N,VCC3V3*
X-3018000Y-5993000D03*
D24*
X-2500500Y-5475500D02*
X-3018000Y-5993000D01*
X-2500000Y-5475500D02*
X-2500500Y-5475500D01*
D25*
G04 #@! TO.N,P9_3V3*
X21950000Y11050000D02*
X25980000Y11050000D01*
X16300000Y3100000D02*
X16300000Y5400000D01*
X15800000Y2600000D02*
X16300000Y3100000D01*
X16300000Y5400000D02*
X21950000Y11050000D01*
X15700000Y2600000D02*
X15800000Y2600000D01*
X14575500Y2600000D02*
X15700000Y2600000D01*
X25980000Y11050000D02*
X27340000Y9690000D01*
X13575500Y1600000D02*
X14575500Y2600000D01*
X12500000Y524500D02*
X13575500Y1600000D01*
D23*
G04 #@! TO.N,VCC1V8*
X7500000Y12524000D03*
G04 #@! TO.N,P59_1V8*
X-9500000Y9525000D03*
G04 #@! TO.N,GND*
X-27692000Y20808000D03*
G04 #@! TO.N,P54_3V3*
X10018000Y-9994000D03*
D25*
X9500000Y-9476000D02*
X10018000Y-9994000D01*
X9500000Y-9475500D02*
X9500000Y-9476000D01*
D23*
G04 #@! TO.N,P11_1V8*
X7017000Y19622000D03*
D25*
X7017000Y25950000D02*
X7017000Y19622000D01*
X7017000Y25950000D02*
X7017000Y26088000D01*
X7017000Y25950000D02*
X7017000Y26205000D01*
X7017000Y26205000D02*
X5882000Y27340000D01*
D23*
G04 #@! TO.N,GND*
X-3018000Y11042000D03*
D24*
X-2500500Y10524500D02*
X-3018000Y11042000D01*
X-2500000Y10524500D02*
X-2500500Y10524500D01*
D23*
G04 #@! TO.N,P3_3V3*
X15746000Y3042000D03*
D25*
X21995000Y11745000D02*
X22480000Y12230000D01*
X21995000Y11745000D02*
X15746000Y5496000D01*
X15746000Y3042000D02*
X15746000Y5496000D01*
X22480000Y12230000D02*
X24800000Y12230000D01*
D23*
G04 #@! TO.N,VCC3V3*
X-2813000Y-15638000D03*
D25*
X-2813000Y-15638000D02*
X-2813000Y-14938000D01*
D23*
G04 #@! TO.N,GND*
X-5018000Y-6993000D03*
D24*
X-4500000Y-6475500D02*
X-4500500Y-6475500D01*
X-4500500Y-6475500D02*
X-5018000Y-6993000D01*
D25*
G04 #@! TO.N,P10_1V8*
X896500Y22406500D02*
X865000Y22438000D01*
X5500000Y12524500D02*
X6744000Y13768500D01*
X802000Y22501000D02*
X802000Y24800000D01*
X6744000Y13768500D02*
X6744000Y15982000D01*
X896500Y22406500D02*
X6744000Y16559000D01*
X896500Y22406500D02*
X802000Y22501000D01*
X6744000Y15982000D02*
X6744000Y16559000D01*
D23*
G04 #@! TO.N,GND*
X-28692000Y19508000D03*
G04 #@! TO.N,P58_1V8*
X-18038000Y10042000D03*
D25*
X-21200000Y6880000D02*
X-22467000Y5613000D01*
X-22467000Y1842000D02*
X-22467000Y-3500000D01*
X-23248000Y-4281000D02*
X-26075000Y-4281000D01*
X-18038000Y10042000D02*
X-21200000Y6880000D01*
X-26075000Y-4281000D02*
X-27344000Y-5550000D01*
X-22467000Y-3500000D02*
X-23248000Y-4281000D01*
X-22467000Y5613000D02*
X-22467000Y1842000D01*
D23*
G04 #@! TO.N,VCC1V8*
X8017000Y13042000D03*
D25*
X7500000Y12525000D02*
X8017000Y13042000D01*
X7500000Y12524500D02*
X7500000Y12525000D01*
D23*
G04 #@! TO.N,P54_1V8*
X-20348000Y12042000D03*
D25*
X-25572000Y11080000D02*
X-21310000Y11080000D01*
X-25954000Y11080000D02*
X-27344000Y9690000D01*
X-25572000Y11080000D02*
X-25954000Y11080000D01*
X-20348000Y12042000D02*
X-21310000Y11080000D01*
D23*
G04 #@! TO.N,GND*
X-1018000Y-6993000D03*
D24*
X-500000Y-6475500D02*
X-500500Y-6475500D01*
X-500500Y-6475500D02*
X-1018000Y-6993000D01*
D23*
X-2018000Y5042000D03*
D24*
X-1500500Y4524500D02*
X-2018000Y5042000D01*
X-1500000Y4524500D02*
X-1500500Y4524500D01*
D23*
G04 #@! TO.N,+5V*
X-28692000Y22058000D03*
G04 #@! TO.N,FLASH_VSS*
X-4103000Y-23470000D03*
D25*
G04 #@! TO.N,P24_1V8*
X14796000Y26046000D02*
X13502000Y27340000D01*
X14796000Y21672000D02*
X14796000Y26046000D01*
X12500000Y10524500D02*
X13770000Y11794500D01*
X13770000Y20646000D02*
X14796000Y21672000D01*
X13770000Y11794500D02*
X13770000Y20646000D01*
D23*
G04 #@! TO.N,P17_1V8*
X9017000Y14752000D03*
D25*
X4600000Y26082000D02*
X3342000Y27340000D01*
X9017000Y14752000D02*
X7800000Y15969000D01*
X7800000Y15969000D02*
X7800000Y17000000D01*
X4600000Y22800000D02*
X4600000Y26082000D01*
X4600000Y20200000D02*
X4600000Y22800000D01*
X7800000Y17000000D02*
X4600000Y20200000D01*
D23*
G04 #@! TO.N,VCC1V8*
X-5018000Y5042000D03*
D25*
X-4500500Y4524500D02*
X-4500000Y4524500D01*
X-5018000Y5042000D02*
X-4500500Y4524500D01*
D23*
G04 #@! TO.N,INIT_B*
X-3018000Y-4993000D03*
D25*
X-3018000Y-4993000D02*
X-2500000Y-4475500D01*
D23*
G04 #@! TO.N,P2_1V8*
X4017000Y12042000D03*
D24*
X3500000Y11525000D02*
X4017000Y12042000D01*
X3500000Y11524500D02*
X3500000Y11525000D01*
D23*
G04 #@! TO.N,VCC1V8*
X-4500000Y-3475000D03*
X-5018000Y-3993000D03*
D25*
X-5018000Y-3993000D02*
X-4500000Y-3475000D01*
D23*
G04 #@! TO.N,GND*
X-5503000Y-14980000D03*
G04 #@! TO.N,P30_1V8*
X16517000Y10042000D03*
D25*
X22680000Y20060000D02*
X26202000Y23582000D01*
X16517000Y10042000D02*
X19261000Y12786000D01*
X20858000Y20060000D02*
X22680000Y20060000D01*
X19261000Y12786000D02*
X19261000Y18463000D01*
X19261000Y18463000D02*
X20858000Y20060000D01*
X26202000Y23582000D02*
X26202000Y24800000D01*
D23*
G04 #@! TO.N,VCC3V3*
X-16586000Y2942000D03*
X8501000Y-471000D03*
G04 #@! TO.N,GND*
X-8018000Y-11993000D03*
D24*
X-7500000Y-11475500D02*
X-7500500Y-11475500D01*
X-7500500Y-11475500D02*
X-8018000Y-11993000D01*
D23*
G04 #@! TO.N,P8_1V8*
X6017000Y11047000D03*
D24*
X5500000Y10530000D02*
X6017000Y11047000D01*
X5500000Y10524500D02*
X5500000Y10530000D01*
D23*
G04 #@! TO.N,GND*
X2018000Y-4994000D03*
D24*
X1500000Y-4476000D02*
X2018000Y-4994000D01*
X1500000Y-4475500D02*
X1500000Y-4476000D01*
D23*
X3017000Y11042000D03*
D24*
X2987500Y11012500D02*
X2500000Y10525000D01*
X3017000Y11042000D02*
X2987500Y11012500D01*
X2987500Y11012500D02*
X3017000Y11042000D01*
X2500000Y10524500D02*
X2500000Y10525000D01*
D23*
X26700000Y-21200000D03*
G04 #@! TO.N,P67_1V8*
X-11018000Y8042000D03*
D25*
X-10500000Y7524500D02*
X-11017500Y8042000D01*
X-11017500Y8042000D02*
X-11018000Y8042000D01*
D23*
G04 #@! TO.N,GND*
X-4018000Y-1993000D03*
D24*
X-3500500Y-1475500D02*
X-4018000Y-1993000D01*
X-3500000Y-1475500D02*
X-3500500Y-1475500D01*
G04 #@! TO.N,FLASH_WP#/IO2*
X3482000Y-35103000D02*
X0Y-31621000D01*
X0Y-31621000D02*
X0Y-24440000D01*
X0Y-23700000D02*
X0Y-24440000D01*
D25*
G04 #@! TO.N,FLASH_HOLD#/IO3*
X-4705000Y-24500000D02*
X-4080000Y-24500000D01*
X-6418000Y-26213000D02*
X-4705000Y-24500000D01*
D23*
G04 #@! TO.N,GND*
X4018000Y-994000D03*
D24*
X3500000Y-476000D02*
X4018000Y-994000D01*
X3500000Y-475500D02*
X3500000Y-476000D01*
D23*
G04 #@! TO.N,P1_3V3*
X14206000Y4042000D03*
D25*
X23600000Y16120000D02*
X25230000Y16120000D01*
X14206000Y5706000D02*
X22800000Y14300000D01*
X22800000Y14300000D02*
X22800000Y15320000D01*
X25230000Y16120000D02*
X25990000Y16120000D01*
X14206000Y4042000D02*
X14206000Y5706000D01*
X25990000Y16120000D02*
X27340000Y14770000D01*
X22800000Y15320000D02*
X23600000Y16120000D01*
D23*
G04 #@! TO.N,M0*
X-7018000Y-12993000D03*
D25*
X-7018000Y-13092000D02*
X-7854000Y-13928000D01*
X-7018000Y-12993000D02*
X-7018000Y-13092000D01*
D23*
G04 #@! TO.N,P1_1V8*
X4017000Y11042000D03*
D24*
X3500000Y10525000D02*
X4017000Y11042000D01*
X3500000Y10524500D02*
X3500000Y10525000D01*
D23*
G04 #@! TO.N,P4_3V3*
X14206000Y3042000D03*
D25*
X14650000Y5650000D02*
X23770000Y14770000D01*
X14650000Y3486000D02*
X14650000Y5650000D01*
X14206000Y3042000D02*
X14650000Y3486000D01*
X23770000Y14770000D02*
X24800000Y14770000D01*
D23*
G04 #@! TO.N,P65_1V8*
X-7500000Y8524000D03*
G04 #@! TO.N,GND*
X-3018000Y7042000D03*
D24*
X-2500500Y6524500D02*
X-3018000Y7042000D01*
X-2500000Y6524500D02*
X-2500500Y6524500D01*
D23*
G04 #@! TO.N,P33_1V8*
X1017000Y14752000D03*
D25*
X-4656000Y20435000D02*
X-18518000Y20435000D01*
X1017000Y14752000D02*
X-4656000Y20435000D01*
X-23227000Y22287000D02*
X-23290000Y22350000D01*
X-18518000Y20435000D02*
X-21375000Y20435000D01*
X-21375000Y20435000D02*
X-23227000Y22287000D01*
X-23290000Y22350000D02*
X-23290000Y25441000D01*
X-23290000Y26032000D02*
X-24598000Y27340000D01*
X-23290000Y25441000D02*
X-23290000Y26032000D01*
D23*
G04 #@! TO.N,VCC1V0*
X-2501000Y4525000D03*
X-3018000Y5042000D03*
D24*
X-2500000Y4524500D02*
X-2501000Y4525000D01*
X-2501000Y4525000D02*
X-3018000Y5042000D01*
D23*
G04 #@! TO.N,P69_1V8*
X-12018000Y7042000D03*
D25*
X-11500000Y6524500D02*
X-12017500Y7042000D01*
X-12017500Y7042000D02*
X-12018000Y7042000D01*
D23*
G04 #@! TO.N,P53_1V8*
X-10018000Y12042000D03*
D25*
X-10017500Y12042000D02*
X-10018000Y12042000D01*
X-9500000Y11524500D02*
X-10017500Y12042000D01*
D23*
G04 #@! TO.N,VCC1V8*
X-11499000Y9522000D03*
G04 #@! TO.N,P7_3V3*
X9017000Y2042000D03*
D24*
X8500000Y1525000D02*
X9017000Y2042000D01*
X8500000Y1524500D02*
X8500000Y1525000D01*
D23*
G04 #@! TO.N,P18_1V8*
X9017000Y12042000D03*
D24*
X8500000Y11524500D02*
X8500000Y11525000D01*
X8500000Y11525000D02*
X9017000Y12042000D01*
D23*
G04 #@! TO.N,GND*
X-2018000Y12042000D03*
D25*
X-1500500Y11524500D02*
X-2018000Y12042000D01*
X-1500000Y11524500D02*
X-1500500Y11524500D01*
D23*
G04 #@! TO.N,FLASH_VCC*
X-8043000Y-22570000D03*
G04 #@! TO.N,GND*
X31800000Y28000000D03*
G04 #@! TO.N,VCC1V0*
X-500000Y-5480000D03*
X-1018000Y-5993000D03*
D25*
X-1018000Y-5993000D02*
X-500500Y-5475500D01*
X-500500Y-5475500D02*
X-500000Y-5480000D01*
D23*
G04 #@! TO.N,P62_1V8*
X-14188000Y9042000D03*
D25*
X-18480000Y5390000D02*
X-19700000Y4170000D01*
X-23784000Y-12150000D02*
X-24804000Y-13170000D01*
X-17710000Y6160000D02*
X-18480000Y5390000D01*
X-19700000Y4170000D02*
X-19700000Y2050000D01*
X-19700000Y-10350000D02*
X-21500000Y-12150000D01*
X-14760000Y8470000D02*
X-15400000Y8470000D01*
X-23730000Y-12150000D02*
X-23784000Y-12150000D01*
X-19700000Y2050000D02*
X-19700000Y-10350000D01*
X-23730000Y-12150000D02*
X-21500000Y-12150000D01*
X-14188000Y9042000D02*
X-14760000Y8470000D01*
X-17710000Y6160000D02*
X-15400000Y8470000D01*
D23*
G04 #@! TO.N,P36_3V3*
X12018000Y-11994000D03*
D25*
X11500000Y-11476000D02*
X12018000Y-11994000D01*
X11500000Y-11475500D02*
X11500000Y-11476000D01*
D23*
G04 #@! TO.N,D2*
X500000Y-475000D03*
X1018000Y-22282000D03*
D25*
X1018000Y-22282000D02*
X1018000Y-22282000D01*
X0Y-23300000D02*
X1018000Y-22282000D01*
D23*
G04 #@! TO.N,P55_1V8*
X-12018000Y11042000D03*
D25*
X-12017500Y11042000D02*
X-12018000Y11042000D01*
X-11500000Y10524500D02*
X-12017500Y11042000D01*
D23*
G04 #@! TO.N,GND*
X8017000Y8042000D03*
D24*
X7500000Y7525000D02*
X8017000Y8042000D01*
X7500000Y7524500D02*
X7500000Y7525000D01*
D23*
G04 #@! TO.N,VCC3V3*
X-6643000Y-14980000D03*
X-7343000Y-15680000D03*
D25*
G04 #@! TO.N,P35_3V3*
X22700000Y-12000000D02*
X24070000Y-10630000D01*
X12500000Y-11475500D02*
X14024500Y-13000000D01*
X19000000Y-13000000D02*
X21700000Y-13000000D01*
X21700000Y-13000000D02*
X22700000Y-12000000D01*
X14024500Y-13000000D02*
X19000000Y-13000000D01*
X24070000Y-10630000D02*
X24800000Y-10630000D01*
D23*
G04 #@! TO.N,GND*
X1018000Y-12994000D03*
D24*
X500000Y-12476000D02*
X1018000Y-12994000D01*
X500000Y-12475500D02*
X500000Y-12476000D01*
D23*
X3017000Y13042000D03*
D24*
X2500000Y12524500D02*
X2500000Y12525000D01*
X2500000Y12525000D02*
X3017000Y13042000D01*
D23*
G04 #@! TO.N,P29_1V8*
X11017000Y11042000D03*
D24*
X10500000Y10524500D02*
X10500000Y10525000D01*
X10500000Y10525000D02*
X11017000Y11042000D01*
D23*
G04 #@! TO.N,GND*
X-4018000Y7042000D03*
D24*
X-3500500Y6524500D02*
X-4018000Y7042000D01*
X-3500000Y6524500D02*
X-3500500Y6524500D01*
D23*
G04 #@! TO.N,VCC3V3*
X12500000Y-12475000D03*
D25*
G04 #@! TO.N,P5_3V3*
X22230000Y14230000D02*
X22230000Y16210000D01*
X13575500Y2600000D02*
X13750000Y2774500D01*
X22230000Y16210000D02*
X23330000Y17310000D01*
X13750000Y2774500D02*
X13750000Y4700000D01*
X13750000Y5750000D02*
X22230000Y14230000D01*
X12500000Y1524500D02*
X13575500Y2600000D01*
X13750000Y4700000D02*
X13750000Y5750000D01*
X23330000Y17310000D02*
X24800000Y17310000D01*
D23*
G04 #@! TO.N,P52_3V3*
X6500000Y-10476000D03*
G04 #@! TO.N,P68_1V8*
X-9500000Y7524000D03*
G04 #@! TO.N,GND*
X-9018000Y-4993000D03*
D24*
X-8500500Y-4475500D02*
X-9018000Y-4993000D01*
X-8500000Y-4475500D02*
X-8500500Y-4475500D01*
D23*
G04 #@! TO.N,P44_3V3*
X14728000Y-11994000D03*
D25*
X15134000Y-12400000D02*
X16200000Y-12400000D01*
X16200000Y-12400000D02*
X18800000Y-12400000D01*
X23110000Y-8090000D02*
X24800000Y-8090000D01*
X18800000Y-12400000D02*
X22200000Y-9000000D01*
X22200000Y-9000000D02*
X23110000Y-8090000D01*
X14728000Y-11994000D02*
X15134000Y-12400000D01*
D23*
G04 #@! TO.N,P27_1V8*
X12017000Y12042000D03*
D24*
X11500000Y11525000D02*
X12017000Y12042000D01*
X11500000Y11524500D02*
X11500000Y11525000D01*
D23*
G04 #@! TO.N,DONE*
X-4018000Y-13933000D03*
D25*
X-3151000Y-14200000D02*
X-2813000Y-14538000D01*
X-3300000Y-14200000D02*
X-3151000Y-14200000D01*
X-3751000Y-14200000D02*
X-3300000Y-14200000D01*
X-4018000Y-13933000D02*
X-3751000Y-14200000D01*
D23*
G04 #@! TO.N,FLASH_VCC*
X-6643000Y-23470000D03*
G04 #@! TO.N,P17_3V3*
X11018000Y-994000D03*
D25*
X10500000Y-476000D02*
X11018000Y-994000D01*
X10500000Y-475500D02*
X10500000Y-476000D01*
D23*
G04 #@! TO.N,GND*
X-4018000Y1042000D03*
D24*
X-3500000Y524500D02*
X-3500500Y524500D01*
X-3500500Y524500D02*
X-4018000Y1042000D01*
D23*
G04 #@! TO.N,P12_3V3*
X9500000Y524000D03*
D25*
G04 #@! TO.N,P40_3V3*
X25930000Y-14300000D02*
X27340000Y-15710000D01*
X10324500Y-14300000D02*
X25930000Y-14300000D01*
X8500000Y-12475500D02*
X10324500Y-14300000D01*
D23*
G04 #@! TO.N,GND*
X-12735000Y-11175000D03*
G04 #@! TO.N,P0_1V8*
X3017000Y15522000D03*
D25*
X-18226000Y23052000D02*
X-18226000Y25058000D01*
X3017000Y15522000D02*
X3017000Y15984000D01*
X-16945000Y21771000D02*
X-18138000Y22964000D01*
X-18226000Y26048000D02*
X-19518000Y27340000D01*
X-13867000Y21771000D02*
X-16945000Y21771000D01*
X-12743000Y21771000D02*
X-13867000Y21771000D01*
X-18138000Y22964000D02*
X-18226000Y23052000D01*
X-18226000Y25058000D02*
X-18226000Y26048000D01*
X-12743000Y21771000D02*
X-2770000Y21771000D01*
X3017000Y15984000D02*
X-2770000Y21771000D01*
D23*
G04 #@! TO.N,+5V*
X-27692000Y21858000D03*
G04 #@! TO.N,P57_1V8*
X-10018000Y11042000D03*
D25*
X-10017500Y11042000D02*
X-10018000Y11042000D01*
X-9500000Y10524500D02*
X-10017500Y11042000D01*
D23*
G04 #@! TO.N,FLASH_VCC*
X-8918000Y-33833000D03*
D24*
X-8118000Y-33833000D02*
X-8918000Y-33833000D01*
D23*
G04 #@! TO.N,P4_3V3*
X12017000Y3042000D03*
D24*
X11500000Y2524500D02*
X11500000Y2525000D01*
X11500000Y2525000D02*
X12017000Y3042000D01*
D23*
G04 #@! TO.N,FLASH_VSS*
X-4103000Y-22570000D03*
G04 #@! TO.N,P12_1V8*
X7017000Y12042000D03*
D24*
X6500000Y11524500D02*
X6500000Y11525000D01*
X6500000Y11525000D02*
X7017000Y12042000D01*
D23*
G04 #@! TO.N,GND*
X-5018000Y9042000D03*
D24*
X-4500000Y8524500D02*
X-4500500Y8524500D01*
X-4500500Y8524500D02*
X-5018000Y9042000D01*
D23*
G04 #@! TO.N,P18_1V8*
X9017000Y13982000D03*
D25*
X9017000Y13982000D02*
X7400000Y15599000D01*
X7400000Y15599000D02*
X7400000Y16800000D01*
X3342000Y20858000D02*
X3342000Y24800000D01*
X7400000Y16800000D02*
X3342000Y20858000D01*
D23*
G04 #@! TO.N,VCC1V8*
X31800000Y25400000D03*
G04 #@! TO.N,GND*
X-29692000Y20108000D03*
D24*
G04 #@! TO.N,FLASH_SI/IO0*
X910000Y-24911000D02*
X910000Y-23700000D01*
X910000Y-24911000D02*
X910000Y-27030000D01*
X1363000Y-27483000D02*
X910000Y-27030000D01*
X3482000Y-27483000D02*
X1363000Y-27483000D01*
D23*
G04 #@! TO.N,P69_1V8*
X-13958000Y7042000D03*
D25*
X-20790000Y-16617000D02*
X-21169000Y-16996000D01*
X-21169000Y-16996000D02*
X-24525000Y-16996000D01*
X-17816000Y-13643000D02*
X-17400000Y-13227000D01*
X-16300000Y6200000D02*
X-17200000Y5300000D01*
X-26090000Y-16996000D02*
X-27344000Y-18250000D01*
X-17400000Y-13227000D02*
X-17400000Y1200000D01*
X-16300000Y6200000D02*
X-16300000Y6200000D01*
X-17200000Y5300000D02*
X-17400000Y5100000D01*
X-24525000Y-16996000D02*
X-26090000Y-16996000D01*
X-17400000Y5100000D02*
X-17400000Y1200000D01*
X-13958000Y7042000D02*
X-14958000Y7042000D01*
X-16300000Y6200000D02*
X-15458000Y7042000D01*
X-17816000Y-13643000D02*
X-20790000Y-16617000D01*
X-14958000Y7042000D02*
X-15458000Y7042000D01*
D23*
G04 #@! TO.N,P44_3V3*
X10018000Y-11994000D03*
D25*
X9500000Y-11475500D02*
X9500000Y-11476000D01*
X9500000Y-11476000D02*
X10018000Y-11994000D01*
D23*
G04 #@! TO.N,GND*
X-7018000Y-9993000D03*
D24*
X-6500500Y-9475500D02*
X-7018000Y-9993000D01*
X-6500000Y-9475500D02*
X-6500500Y-9475500D01*
D23*
X11018000Y-1994000D03*
D24*
X10500000Y-1475500D02*
X10500000Y-1476000D01*
X10500000Y-1476000D02*
X11018000Y-1994000D01*
D23*
G04 #@! TO.N,VCC1V0*
X-1499000Y-4476000D03*
G04 #@! TO.N,GND*
X2018000Y-10994000D03*
D25*
X1500000Y-10476000D02*
X2018000Y-10994000D01*
X1500000Y-10475500D02*
X1500000Y-10476000D01*
D23*
G04 #@! TO.N,VCC3V3*
X6018000Y-1994000D03*
D24*
X5500000Y-1475500D02*
X5500000Y-1476000D01*
X5500000Y-1476000D02*
X6018000Y-1994000D01*
D23*
G04 #@! TO.N,P8_3V3*
X16516000Y2042000D03*
D25*
X25940000Y8550000D02*
X27340000Y7150000D01*
X21624000Y7150000D02*
X23024000Y8550000D01*
X23024000Y8550000D02*
X25940000Y8550000D01*
X16516000Y2042000D02*
X21624000Y7150000D01*
D23*
G04 #@! TO.N,P49_3V3*
X17038000Y-10994000D03*
D25*
X21900000Y-6550000D02*
X21900000Y-5750000D01*
X17456000Y-10994000D02*
X17038000Y-10994000D01*
X17456000Y-10994000D02*
X21900000Y-6550000D01*
X23450000Y-4200000D02*
X25990000Y-4200000D01*
X25990000Y-4200000D02*
X27340000Y-5550000D01*
X21900000Y-5750000D02*
X23450000Y-4200000D01*
D23*
G04 #@! TO.N,FLASH_VCC*
X-6643000Y-22570000D03*
G04 #@! TO.N,GND*
X-1018000Y2042000D03*
D24*
X-500000Y1524500D02*
X-500500Y1524500D01*
X-500500Y1524500D02*
X-1018000Y2042000D01*
D23*
G04 #@! TO.N,VCC3V3*
X8017000Y3042000D03*
D24*
X7500000Y2524500D02*
X7500000Y2525000D01*
X7500000Y2525000D02*
X8017000Y3042000D01*
D23*
X5501000Y-11476000D03*
G04 #@! TO.N,+5V*
X-28692000Y23158000D03*
G04 #@! TO.N,GND*
X5018000Y-3994000D03*
D24*
X4500000Y-3475500D02*
X4500000Y-3476000D01*
X4500000Y-3476000D02*
X5018000Y-3994000D01*
D23*
G04 #@! TO.N,VCC1V8*
X31100000Y24000000D03*
G04 #@! TO.N,GND*
X-28692000Y20608000D03*
G04 #@! TO.N,VCC1V8*
X32500000Y24000000D03*
G04 #@! TO.N,P7_1V8*
X6017000Y10042000D03*
D24*
X5500000Y9525000D02*
X6017000Y10042000D01*
X5500000Y9524500D02*
X5500000Y9525000D01*
D23*
G04 #@! TO.N,P60_1V8*
X-8500000Y9525000D03*
G04 #@! TO.N,GND*
X5017000Y7042000D03*
D24*
X4500000Y6524500D02*
X4500000Y6525000D01*
X4500000Y6525000D02*
X5017000Y7042000D01*
D23*
G04 #@! TO.N,VCC1V0*
X-1018000Y-1993000D03*
D25*
X-500500Y-1475500D02*
X-1018000Y-1993000D01*
X-500000Y-1475500D02*
X-500500Y-1475500D01*
D23*
G04 #@! TO.N,P34_3V3*
X8500000Y-2476000D03*
G04 #@! TO.N,PROGRAM_B*
X2078000Y-13934000D03*
D25*
X972000Y-15040000D02*
X2078000Y-13934000D01*
X60000Y-15040000D02*
X972000Y-15040000D01*
D23*
G04 #@! TO.N,VCC3V3*
X9018000Y-994000D03*
D24*
X8500000Y-475500D02*
X8500000Y-476000D01*
X8500000Y-476000D02*
X9018000Y-994000D01*
D23*
G04 #@! TO.N,GND*
X7175000Y-15852000D03*
D25*
X11393000Y-20070000D02*
X7175000Y-15852000D01*
X15040000Y-20070000D02*
X11393000Y-20070000D01*
D23*
G04 #@! TO.N,VCC3V3*
X-940000Y-15040000D03*
D25*
X-940000Y-15040000D02*
X-340000Y-15040000D01*
D23*
G04 #@! TO.N,P72_1V8*
X-9018000Y8042000D03*
D25*
X-8500000Y7524500D02*
X-9017500Y8042000D01*
X-9017500Y8042000D02*
X-9018000Y8042000D01*
D23*
G04 #@! TO.N,VCC3V3*
X13018000Y-12994000D03*
D25*
X12500000Y-12475500D02*
X13018000Y-12993500D01*
X13018000Y-12993500D02*
X13018000Y-12994000D01*
D23*
G04 #@! TO.N,P32_1V8*
X1017000Y15522000D03*
D25*
X-22059000Y22252000D02*
X-22059000Y24799000D01*
X-17127000Y20744000D02*
X-20551000Y20744000D01*
X-17127000Y20744000D02*
X-4205000Y20744000D01*
X-22059000Y24799000D02*
X-22058000Y24800000D01*
X-17127000Y20744000D02*
X-17159000Y20744000D01*
X1017000Y15522000D02*
X-4205000Y20744000D01*
X-20551000Y20744000D02*
X-22059000Y22252000D01*
D23*
G04 #@! TO.N,FLASH_VSS*
X-8718000Y-28933000D03*
G04 #@! TO.N,P40_1V8*
X4500000Y7524000D03*
G04 #@! TO.N,P57_3V3*
X6018000Y-8994000D03*
D25*
X5500000Y-8476000D02*
X6018000Y-8994000D01*
X5500000Y-8475500D02*
X5500000Y-8476000D01*
D23*
G04 #@! TO.N,GND*
X6018000Y-6994000D03*
D24*
X5500000Y-6475500D02*
X5500000Y-6476000D01*
X5500000Y-6476000D02*
X6018000Y-6994000D01*
D23*
G04 #@! TO.N,P37_1V8*
X4017000Y9042000D03*
D25*
X3500000Y8524500D02*
X3500000Y8525000D01*
X3500000Y8525000D02*
X4017000Y9042000D01*
D23*
G04 #@! TO.N,P7_1V8*
X6017000Y15522000D03*
D25*
X-1099000Y23261000D02*
X6017000Y16145000D01*
X6017000Y15522000D02*
X6017000Y16145000D01*
X-1099000Y23261000D02*
X-1738000Y23900000D01*
X-1738000Y23900000D02*
X-1738000Y24800000D01*
X-1099000Y23261000D02*
X-1166000Y23328000D01*
D23*
G04 #@! TO.N,GND*
X3017000Y12042000D03*
D24*
X2500000Y11524500D02*
X2500000Y11525000D01*
X2500000Y11525000D02*
X3017000Y12042000D01*
D23*
G04 #@! TO.N,P52_1V8*
X-12018000Y12042000D03*
D25*
X-12017500Y12042000D02*
X-12018000Y12042000D01*
X-11500000Y11524500D02*
X-12017500Y12042000D01*
D23*
G04 #@! TO.N,GND*
X-5018000Y-7993000D03*
D24*
X-4500500Y-7475500D02*
X-5018000Y-7993000D01*
X-4500000Y-7475500D02*
X-4500500Y-7475500D01*
D25*
G04 #@! TO.N,P38_3V3*
X23500000Y-11800000D02*
X25970000Y-11800000D01*
X11424500Y-13400000D02*
X17000000Y-13400000D01*
X25970000Y-11800000D02*
X27340000Y-13170000D01*
X17000000Y-13400000D02*
X21900000Y-13400000D01*
X10500000Y-12475500D02*
X11424500Y-13400000D01*
X21900000Y-13400000D02*
X23500000Y-11800000D01*
D23*
G04 #@! TO.N,GND*
X-4018000Y12042000D03*
D25*
X-3500000Y11524500D02*
X-3500500Y11524500D01*
X-3500500Y11524500D02*
X-4018000Y12042000D01*
D23*
X-3018000Y-10993000D03*
D24*
X-2500000Y-10475500D02*
X-2500500Y-10475500D01*
X-2500500Y-10475500D02*
X-3018000Y-10993000D01*
D23*
X-3018000Y10042000D03*
D25*
X-2500500Y9524500D02*
X-3018000Y10042000D01*
X-2500000Y9524500D02*
X-2500500Y9524500D01*
D23*
X-2018000Y8042000D03*
D25*
X-1500000Y7524500D02*
X-1500500Y7524500D01*
X-1500500Y7524500D02*
X-2018000Y8042000D01*
D23*
G04 #@! TO.N,P41_1V8*
X2500000Y6524000D03*
G04 #@! TO.N,VCC3V3*
X5018000Y-8994000D03*
D25*
X4500000Y-8476000D02*
X5018000Y-8994000D01*
X4500000Y-8475500D02*
X4500000Y-8476000D01*
D23*
G04 #@! TO.N,GND*
X-5018000Y8042000D03*
D24*
X-4500500Y7524500D02*
X-5018000Y8042000D01*
X-4500000Y7524500D02*
X-4500500Y7524500D01*
D23*
X7017000Y11042000D03*
D24*
X6500000Y10525000D02*
X7017000Y11042000D01*
X6500000Y10524500D02*
X6500000Y10525000D01*
D23*
G04 #@! TO.N,P57_1V8*
X-18808000Y11042000D03*
D25*
X-21330000Y8520000D02*
X-21670000Y8180000D01*
X-23200000Y8180000D02*
X-21670000Y8180000D01*
X-18808000Y11042000D02*
X-21330000Y8520000D01*
X-23774000Y8180000D02*
X-24804000Y7150000D01*
X-23200000Y8180000D02*
X-23774000Y8180000D01*
D23*
G04 #@! TO.N,GND*
X-8018000Y3042000D03*
D24*
X-7500500Y2524500D02*
X-8018000Y3042000D01*
X-7500000Y2524500D02*
X-7500500Y2524500D01*
D23*
G04 #@! TO.N,P15_1V8*
X7500000Y10525000D03*
G04 #@! TO.N,GND*
X-4018000Y-7993000D03*
D25*
X-3500500Y-7475500D02*
X-4018000Y-7993000D01*
X-3500000Y-7475500D02*
X-3500500Y-7475500D01*
D23*
X31800000Y26600000D03*
G04 #@! TO.N,FLASH_VCC*
X-8043000Y-23470000D03*
G04 #@! TO.N,D3*
X-2982000Y-24500000D03*
X500000Y524000D03*
D25*
X-2982000Y-24500000D02*
X-3680000Y-24500000D01*
D23*
G04 #@! TO.N,VCC3V3*
X25500000Y-21200000D03*
G04 #@! TO.N,GND*
X-5018000Y-10993000D03*
D24*
X-4500500Y-10475500D02*
X-5018000Y-10993000D01*
X-4500000Y-10475500D02*
X-4500500Y-10475500D01*
D23*
G04 #@! TO.N,P50_3V3*
X8018000Y-8994000D03*
D25*
X7500000Y-8475500D02*
X7500000Y-8476000D01*
X7500000Y-8476000D02*
X8018000Y-8994000D01*
D23*
G04 #@! TO.N,GND*
X-11018000Y12042000D03*
D24*
X-10500000Y11524500D02*
X-10500500Y11524500D01*
X-10500500Y11524500D02*
X-11018000Y12042000D01*
D23*
G04 #@! TO.N,CFGBVS*
X2018000Y-8994000D03*
D24*
X1500000Y-8476000D02*
X2018000Y-8994000D01*
X1500000Y-8475500D02*
X1500000Y-8476000D01*
D23*
G04 #@! TO.N,D1*
X2018000Y-15474000D03*
D25*
X277000Y-17215000D02*
X277000Y-17730000D01*
X2018000Y-15474000D02*
X277000Y-17215000D01*
D23*
G04 #@! TO.N,GND*
X11017000Y9042000D03*
D24*
X10500000Y8525000D02*
X11017000Y9042000D01*
X10500000Y8524500D02*
X10500000Y8525000D01*
D23*
G04 #@! TO.N,P8_1V8*
X6017000Y14752000D03*
D25*
X-476000Y23265000D02*
X-476000Y26073000D01*
X6418000Y16371000D02*
X-476000Y23265000D01*
X-476000Y26073000D02*
X-476000Y26078000D01*
X-476000Y26078000D02*
X-1738000Y27340000D01*
X6017000Y14752000D02*
X6418000Y15153000D01*
X6418000Y15153000D02*
X6418000Y16371000D01*
D23*
G04 #@! TO.N,GND*
X3017000Y3042000D03*
D25*
X2500000Y2525000D02*
X3017000Y3042000D01*
X2500000Y2524500D02*
X2500000Y2525000D01*
D23*
G04 #@! TO.N,P19_3V3*
X9018000Y-1994000D03*
D24*
X8500000Y-1475500D02*
X8500000Y-1476000D01*
X8500000Y-1476000D02*
X9018000Y-1994000D01*
D23*
G04 #@! TO.N,VCC1V8*
X500000Y6524000D03*
G04 #@! TO.N,+5V*
X-29392000Y23158000D03*
G04 #@! TO.N,GND*
X-1018000Y-9993000D03*
D25*
X-500500Y-9475500D02*
X-1018000Y-9993000D01*
X-500000Y-9475500D02*
X-500500Y-9475500D01*
D23*
X-5018000Y-5993000D03*
D24*
X-4500000Y-5475500D02*
X-4500500Y-5475500D01*
X-4500500Y-5475500D02*
X-5018000Y-5993000D01*
D23*
G04 #@! TO.N,CLK_27MHZ*
X6500000Y8524000D03*
G04 #@! TO.N,FLASH_VSS*
X-5503000Y-22570000D03*
G04 #@! TO.N,VCC3V3*
X8500000Y-10472000D03*
G04 #@! TO.N,P13_3V3*
X7017000Y3042000D03*
D24*
X6500000Y2525000D02*
X7017000Y3042000D01*
X6500000Y2524500D02*
X6500000Y2525000D01*
D23*
G04 #@! TO.N,GND*
X-4103000Y-14980000D03*
G04 #@! TO.N,P14_3V3*
X6497000Y1522000D03*
G04 #@! TO.N,GND*
X6017000Y4042000D03*
D24*
X5500000Y3525000D02*
X6017000Y4042000D01*
X5500000Y3524500D02*
X5500000Y3525000D01*
D23*
G04 #@! TO.N,P51_3V3*
X7018000Y-8994000D03*
D25*
X6500000Y-8475500D02*
X6500000Y-8476000D01*
X6500000Y-8476000D02*
X7018000Y-8994000D01*
D23*
G04 #@! TO.N,GND*
X-27992000Y19508000D03*
X-2018000Y-11993000D03*
D25*
X-1500000Y-11475500D02*
X-1500500Y-11475500D01*
X-1500500Y-11475500D02*
X-2018000Y-11993000D01*
D23*
G04 #@! TO.N,VCC1V0*
X-1476000Y3500000D03*
X-2018000Y4042000D03*
D24*
X-1500000Y3524500D02*
X-1476000Y3500000D01*
X-1476000Y3500000D02*
X-2018000Y4042000D01*
D23*
G04 #@! TO.N,VCC3V3*
X4760000Y-15210000D03*
D24*
X4760000Y-15210000D02*
X3960000Y-15210000D01*
D23*
X25500000Y-20500000D03*
G04 #@! TO.N,P29_1V8*
X16517000Y11042000D03*
D25*
X16517000Y11042000D02*
X18887000Y13412000D01*
X24930000Y22820000D02*
X24930000Y25810000D01*
X18887000Y13412000D02*
X18887000Y17567000D01*
X18887000Y17567000D02*
X18887000Y18545000D01*
X18887000Y18545000D02*
X20672000Y20330000D01*
X22440000Y20330000D02*
X21970000Y20330000D01*
X24930000Y26068000D02*
X26202000Y27340000D01*
X22440000Y20330000D02*
X24930000Y22820000D01*
X20672000Y20330000D02*
X21970000Y20330000D01*
X24930000Y25810000D02*
X24930000Y26068000D01*
X22440000Y20330000D02*
X22480000Y20330000D01*
D23*
G04 #@! TO.N,GND*
X-3018000Y4042000D03*
D24*
X-2500500Y3524500D02*
X-3018000Y4042000D01*
X-2500000Y3524500D02*
X-2500500Y3524500D01*
D23*
G04 #@! TO.N,VCC1V8*
X31100000Y25400000D03*
G04 #@! TO.N,VCC1V0*
X-3018000Y3042000D03*
D24*
X-2500500Y2524500D02*
X-3018000Y3042000D01*
X-2500000Y2524500D02*
X-2500500Y2524500D01*
D23*
G04 #@! TO.N,P6_3V3*
X12017000Y2042000D03*
D24*
X11500000Y1525000D02*
X12017000Y2042000D01*
X11500000Y1524500D02*
X11500000Y1525000D01*
D23*
G04 #@! TO.N,VCC3V3*
X11501000Y524000D03*
G04 #@! TO.N,VCC1V8*
X-10500000Y6524000D03*
X-11018000Y7042000D03*
D25*
X-11018000Y7042000D02*
X-10500000Y6524000D01*
X-10500000Y6524000D02*
X-10500000Y6524500D01*
D23*
X-13018000Y13042000D03*
D25*
X-13017500Y13042000D02*
X-13018000Y13042000D01*
X-12500000Y12524500D02*
X-13017500Y13042000D01*
D23*
G04 #@! TO.N,VCC1V0*
X-1018000Y1042000D03*
X-500000Y524000D03*
D25*
X-1018000Y1042000D02*
X-500000Y524000D01*
D23*
G04 #@! TO.N,GND*
X-27692000Y20108000D03*
D25*
G04 #@! TO.N,P21_1V8*
X10962000Y12986500D02*
X10962000Y24800000D01*
X10500000Y12524500D02*
X10962000Y12986500D01*
D23*
G04 #@! TO.N,M0*
X-7018000Y-8993000D03*
D24*
X-6500500Y-8475500D02*
X-7018000Y-8993000D01*
X-6500000Y-8475500D02*
X-6500500Y-8475500D01*
D23*
G04 #@! TO.N,VCC1V8*
X31100000Y24700000D03*
G04 #@! TO.N,VCC1V0*
X-3500000Y1525000D03*
G04 #@! TO.N,GND*
X2018000Y-11994000D03*
D24*
X1500000Y-11475500D02*
X1500000Y-11476000D01*
X1500000Y-11476000D02*
X2018000Y-11994000D01*
D23*
G04 #@! TO.N,FLASH_VSS*
X-5503000Y-23470000D03*
G04 #@! TO.N,GND*
X13017000Y13042000D03*
D24*
X12500000Y12524500D02*
X12500000Y12525000D01*
X12500000Y12525000D02*
X13017000Y13042000D01*
D23*
X9018000Y-5994000D03*
D24*
X8500000Y-5475500D02*
X8500000Y-5476000D01*
X8500000Y-5476000D02*
X9018000Y-5994000D01*
D23*
G04 #@! TO.N,P38_1V8*
X5017000Y9042000D03*
D25*
X4500000Y8524500D02*
X4500000Y8525000D01*
X4500000Y8525000D02*
X5017000Y9042000D01*
D23*
G04 #@! TO.N,VCC1V8*
X8499000Y9522000D03*
X-5018000Y1042000D03*
X-4500000Y524000D03*
D25*
X-5018000Y1042000D02*
X-4500000Y524000D01*
D23*
G04 #@! TO.N,GND*
X-8018000Y11042000D03*
D24*
X-7500000Y10524500D02*
X-7500500Y10524500D01*
X-7500500Y10524500D02*
X-8018000Y11042000D01*
D23*
X1018000Y-8994000D03*
D24*
X500000Y-8476000D02*
X1018000Y-8994000D01*
X500000Y-8475500D02*
X500000Y-8476000D01*
D23*
G04 #@! TO.N,P43_3V3*
X12018000Y-10994000D03*
D25*
X11500000Y-10475500D02*
X11500000Y-10476000D01*
X11500000Y-10476000D02*
X12018000Y-10994000D01*
D24*
G04 #@! TO.N,FLASH_SO/IO1*
X-2240000Y-33560000D02*
X-890000Y-32210000D01*
X-6418000Y-35103000D02*
X-3783000Y-35103000D01*
X-3783000Y-35103000D02*
X-2240000Y-33560000D01*
X-890000Y-32210000D02*
X-890000Y-23700000D01*
D23*
G04 #@! TO.N,P0_1V8*
X3017000Y10042000D03*
D24*
X2500000Y9524500D02*
X2500000Y9525000D01*
X2500000Y9525000D02*
X3017000Y10042000D01*
D23*
G04 #@! TO.N,GND*
X-4103000Y-15680000D03*
X-2018000Y-3993000D03*
D24*
X-1500500Y-3475500D02*
X-2018000Y-3993000D01*
X-1500000Y-3475500D02*
X-1500500Y-3475500D01*
D23*
G04 #@! TO.N,VCC1V8*
X-7018000Y5042000D03*
D25*
X-6500000Y4524500D02*
X-6500500Y4524500D01*
X-6500500Y4524500D02*
X-7018000Y5042000D01*
D23*
G04 #@! TO.N,GND*
X-1018000Y-2993000D03*
D24*
X-500500Y-2475500D02*
X-1018000Y-2993000D01*
X-500000Y-2475500D02*
X-500500Y-2475500D01*
D25*
G04 #@! TO.N,P47_1V8*
X-22129000Y5311000D02*
X-22129000Y2295000D01*
X-13045500Y12070000D02*
X-14700000Y12070000D01*
X-22129000Y-4638000D02*
X-22592000Y-5101000D01*
X-20850000Y6590000D02*
X-22129000Y5311000D01*
X-12500000Y11524500D02*
X-13045500Y12070000D01*
X-22592000Y-5101000D02*
X-23041000Y-5550000D01*
X-19310000Y8130000D02*
X-20850000Y6590000D01*
X-22129000Y2295000D02*
X-22129000Y-4638000D01*
X-23041000Y-5550000D02*
X-24804000Y-5550000D01*
X-14700000Y12070000D02*
X-15370000Y12070000D01*
X-15370000Y12070000D02*
X-19310000Y8130000D01*
D23*
G04 #@! TO.N,P35_1V8*
X1500000Y7525000D03*
G04 #@! TO.N,GND*
X1017000Y13042000D03*
D24*
X500000Y12524500D02*
X500000Y12525000D01*
X500000Y12525000D02*
X1017000Y13042000D01*
D23*
X-1018000Y-993000D03*
D24*
X-500500Y-475500D02*
X-1018000Y-993000D01*
X-500000Y-475500D02*
X-500500Y-475500D01*
D23*
X9017000Y5042000D03*
D24*
X8500000Y4524500D02*
X8500000Y4525000D01*
X8500000Y4525000D02*
X9017000Y5042000D01*
D23*
G04 #@! TO.N,VCC3V3*
X7497000Y-7472000D03*
X-7343000Y-14980000D03*
G04 #@! TO.N,P1_1V8*
X3017000Y14752000D03*
D25*
X-14389000Y21412000D02*
X-15114000Y21412000D01*
X-18260000Y21412000D02*
X-19518000Y22670000D01*
X2086000Y15683000D02*
X2086000Y15970000D01*
X-14389000Y21412000D02*
X-2982000Y21412000D01*
X3017000Y14752000D02*
X2086000Y15683000D01*
X2086000Y15970000D02*
X2086000Y16344000D01*
X2086000Y16344000D02*
X-2982000Y21412000D01*
X-15114000Y21412000D02*
X-18260000Y21412000D01*
X-19518000Y22670000D02*
X-19518000Y24800000D01*
D23*
G04 #@! TO.N,GND*
X-6018000Y-11993000D03*
D25*
X-5500000Y-11475500D02*
X-5500500Y-11475500D01*
X-5500500Y-11475500D02*
X-6018000Y-11993000D01*
D23*
X-6018000Y-3993000D03*
D24*
X-5500000Y-3475500D02*
X-5500500Y-3475500D01*
X-5500500Y-3475500D02*
X-6018000Y-3993000D01*
D23*
X-1018000Y4042000D03*
G04 #@! TO.N,P23_3V3*
X11018000Y-2994000D03*
D24*
X10500000Y-2476000D02*
X11018000Y-2994000D01*
X10500000Y-2475500D02*
X10500000Y-2476000D01*
D23*
G04 #@! TO.N,GND*
X-4018000Y-11993000D03*
D25*
X-3500500Y-11475500D02*
X-4018000Y-11993000D01*
X-3500000Y-11475500D02*
X-3500500Y-11475500D01*
D24*
G04 #@! TO.N,N23*
X910000Y-23300000D02*
X2817000Y-21393000D01*
X2817000Y-21393000D02*
X2817000Y-20270000D01*
D23*
G04 #@! TO.N,FLASH_VSS*
X-4803000Y-22570000D03*
D24*
G04 #@! TO.N,N13*
X277000Y-22133000D02*
X277000Y-20270000D01*
X-890000Y-23300000D02*
X277000Y-22133000D01*
D23*
G04 #@! TO.N,GND*
X-2018000Y-7993000D03*
D25*
X-1500000Y-7475500D02*
X-1500500Y-7475500D01*
X-1500500Y-7475500D02*
X-2018000Y-7993000D01*
D23*
G04 #@! TO.N,CLK_3V3_29.5MHZ*
X7500000Y525000D03*
G04 #@! TO.N,P22_3V3*
X10018000Y-2994000D03*
D24*
X9500000Y-2476000D02*
X10018000Y-2994000D01*
X9500000Y-2475500D02*
X9500000Y-2476000D01*
D23*
G04 #@! TO.N,GND*
X10018000Y-8994000D03*
D24*
X9500000Y-8475500D02*
X9500000Y-8476000D01*
X9500000Y-8476000D02*
X10018000Y-8994000D01*
D25*
G04 #@! TO.N,P0_3V3*
X16650000Y9100000D02*
X21350000Y13800000D01*
X24580000Y19050000D02*
X23550000Y19050000D01*
X13362750Y5812750D02*
X16650000Y9100000D01*
X13362750Y4387250D02*
X13362750Y5812750D01*
X21350000Y13800000D02*
X21350000Y16850000D01*
X24580000Y19050000D02*
X25600000Y19050000D01*
D24*
X13362750Y4387250D02*
X13375500Y4400000D01*
D25*
X25600000Y19050000D02*
X27340000Y17310000D01*
D24*
X13362750Y4387250D02*
X12500000Y3524500D01*
D25*
X22400000Y17900000D02*
X23550000Y19050000D01*
X21350000Y16850000D02*
X22400000Y17900000D01*
D23*
G04 #@! TO.N,P31_1V8*
X14977000Y10042000D03*
D25*
X17338000Y26044000D02*
X16042000Y27340000D01*
X14977000Y20876000D02*
X17338000Y23237000D01*
X14977000Y10042000D02*
X14977000Y20876000D01*
X17338000Y23237000D02*
X17338000Y26044000D01*
D23*
G04 #@! TO.N,VCC1V8*
X2500000Y7525000D03*
X3017000Y8042000D03*
D24*
X2500000Y7525000D02*
X3017000Y8042000D01*
X2500000Y7524500D02*
X2500000Y7525000D01*
D23*
G04 #@! TO.N,GND*
X-4018000Y9042000D03*
D24*
X-3500500Y8524500D02*
X-4018000Y9042000D01*
X-3500000Y8524500D02*
X-3500500Y8524500D01*
D23*
X-8018000Y13042000D03*
D24*
X-7500000Y12524500D02*
X-7500500Y12524500D01*
X-7500500Y12524500D02*
X-8018000Y13042000D01*
D25*
G04 #@! TO.N,P22_1V8*
X11800000Y12824500D02*
X12178000Y13202500D01*
X12178000Y23058000D02*
X12178000Y13202500D01*
X12178000Y23058000D02*
X12178000Y26124000D01*
X11636250Y12660750D02*
X11500000Y12524500D01*
X11636250Y12660750D02*
X11800000Y12824500D01*
X12178000Y26124000D02*
X10962000Y27340000D01*
D23*
G04 #@! TO.N,P2_3V3*
X14976000Y3042000D03*
D25*
X25940000Y13630000D02*
X27340000Y12230000D01*
X22660000Y13110000D02*
X14976000Y5426000D01*
X25580000Y13630000D02*
X25940000Y13630000D01*
X22660000Y13110000D02*
X23180000Y13630000D01*
X14976000Y3042000D02*
X14976000Y5426000D01*
X23180000Y13630000D02*
X25580000Y13630000D01*
G04 #@! TO.N,P49_1V8*
X-21510000Y2169000D02*
X-21510000Y-7045000D01*
X-21510000Y4890000D02*
X-21510000Y2169000D01*
X-12875500Y9900000D02*
X-16500000Y9900000D01*
X-16500000Y9900000D02*
X-20100000Y6300000D01*
X-22555000Y-8090000D02*
X-24804000Y-8090000D01*
X-20100000Y6300000D02*
X-21510000Y4890000D01*
X-21748000Y-7283000D02*
X-22555000Y-8090000D01*
X-21510000Y-7045000D02*
X-21748000Y-7283000D01*
X-12500000Y9524500D02*
X-12875500Y9900000D01*
D23*
G04 #@! TO.N,VCC3V3*
X24800000Y-20500000D03*
G04 #@! TO.N,P30_3V3*
X5500000Y524000D03*
G04 #@! TO.N,GND*
X-2018000Y3042000D03*
D24*
X-1500500Y2524500D02*
X-2018000Y3042000D01*
X-1500000Y2524500D02*
X-1500500Y2524500D01*
D23*
G04 #@! TO.N,P58_1V8*
X-11018000Y10042000D03*
D25*
X-10500000Y9524500D02*
X-11017500Y10042000D01*
X-11017500Y10042000D02*
X-11018000Y10042000D01*
D23*
G04 #@! TO.N,P16_1V8*
X7500000Y11524000D03*
G04 #@! TO.N,GND*
X2018000Y-994000D03*
D24*
X1500000Y-476000D02*
X2018000Y-994000D01*
X1500000Y-475500D02*
X1500000Y-476000D01*
D23*
G04 #@! TO.N,VCC1V0*
X-4018000Y2042000D03*
D24*
X-3500500Y1524500D02*
X-4018000Y2042000D01*
X-3500000Y1524500D02*
X-3500500Y1524500D01*
D23*
G04 #@! TO.N,VCC3V3*
X-6643000Y-15680000D03*
G04 #@! TO.N,P48_3V3*
X16268000Y-10994000D03*
D25*
X21650000Y-4450000D02*
X21650000Y-3990000D01*
X22630000Y-3010000D02*
X24800000Y-3010000D01*
X21650000Y-3990000D02*
X22630000Y-3010000D01*
X16268000Y-10994000D02*
X16762000Y-10500000D01*
X21650000Y-6050000D02*
X21650000Y-4450000D01*
X21650000Y-6200000D02*
X21650000Y-6050000D01*
X16762000Y-10500000D02*
X17350000Y-10500000D01*
X17350000Y-10500000D02*
X21650000Y-6200000D01*
D23*
G04 #@! TO.N,GND*
X-9018000Y6042000D03*
D24*
X-8500500Y5524500D02*
X-9018000Y6042000D01*
X-8500000Y5524500D02*
X-8500500Y5524500D01*
D23*
G04 #@! TO.N,P29_3V3*
X4500000Y524000D03*
G04 #@! TO.N,P39_1V8*
X3500000Y7524000D03*
D25*
G04 #@! TO.N,P46_1V8*
X-27344000Y18546000D02*
X-27344000Y17310000D01*
X-10891000Y14561000D02*
X-16040000Y19710000D01*
X-10536500Y14561000D02*
X-10891000Y14561000D01*
X-26610000Y19280000D02*
X-27344000Y18546000D01*
X-8500000Y12524500D02*
X-10536500Y14561000D01*
X-16040000Y19710000D02*
X-26180000Y19710000D01*
X-26180000Y19710000D02*
X-26610000Y19280000D01*
D23*
G04 #@! TO.N,VCC1V8*
X-12500000Y12522000D03*
G04 #@! TO.N,GND*
X2017000Y11042000D03*
D25*
X1500000Y10525000D02*
X2017000Y11042000D01*
X1500000Y10524500D02*
X1500000Y10525000D01*
D23*
G04 #@! TO.N,P45_3V3*
X15498000Y-11994000D03*
D25*
X15498000Y-11994000D02*
X18556000Y-11994000D01*
X21950000Y-8600000D02*
X21950000Y-7750000D01*
X21950000Y-7750000D02*
X22950000Y-6750000D01*
X18556000Y-11994000D02*
X21950000Y-8600000D01*
X26000000Y-6750000D02*
X27340000Y-8090000D01*
X22950000Y-6750000D02*
X26000000Y-6750000D01*
D23*
G04 #@! TO.N,GND*
X-6018000Y-12993000D03*
D24*
X-5500500Y-12475500D02*
X-6018000Y-12993000D01*
X-5500000Y-12475500D02*
X-5500500Y-12475500D01*
D23*
G04 #@! TO.N,VCC1V8*
X12017000Y11042000D03*
D24*
X11500000Y10524500D02*
X11500000Y10525000D01*
X11500000Y10525000D02*
X12017000Y11042000D01*
D23*
G04 #@! TO.N,GND*
X-10018000Y-11993000D03*
D24*
X-9500500Y-11475500D02*
X-10018000Y-11993000D01*
X-9500000Y-11475500D02*
X-9500500Y-11475500D01*
D23*
G04 #@! TO.N,VCC1V8*
X-8018000Y8042000D03*
D25*
X-7500000Y7524500D02*
X-8017500Y8042000D01*
X-8017500Y8042000D02*
X-8018000Y8042000D01*
D23*
G04 #@! TO.N,GND*
X-8018000Y12042000D03*
D24*
X-7500000Y11524500D02*
X-7500500Y11524500D01*
X-7500500Y11524500D02*
X-8018000Y12042000D01*
D23*
G04 #@! TO.N,P46_3V3*
X7500000Y-11476000D03*
G04 #@! TO.N,VCC1V0*
X-1500000Y-2476000D03*
X-2018000Y-2993000D03*
D24*
X-1500000Y-2476000D02*
X-2018000Y-2993000D01*
X-1500000Y-2475500D02*
X-1500000Y-2476000D01*
D25*
G04 #@! TO.N,P48_1V8*
X-20500000Y6330000D02*
X-21814000Y5016000D01*
X-15840000Y10990000D02*
X-20010000Y6820000D01*
X-12500000Y10524500D02*
X-12965500Y10990000D01*
X-20010000Y6820000D02*
X-20500000Y6330000D01*
X-21814000Y-5882000D02*
X-22756000Y-6824000D01*
X-12965500Y10990000D02*
X-14730000Y10990000D01*
X-14730000Y10990000D02*
X-15840000Y10990000D01*
X-21814000Y5016000D02*
X-21814000Y1187000D01*
X-21814000Y1187000D02*
X-21814000Y-5882000D01*
X-22756000Y-6824000D02*
X-26078000Y-6824000D01*
X-26078000Y-6824000D02*
X-27344000Y-8090000D01*
D23*
G04 #@! TO.N,VCC1V8*
X-7493000Y7523000D03*
G04 #@! TO.N,P2_1V8*
X3017000Y13982000D03*
D25*
X-3471000Y21021000D02*
X-15774000Y21021000D01*
X3017000Y13982000D02*
X1613000Y15386000D01*
X-20027000Y21021000D02*
X-20612000Y21606000D01*
X-20771000Y25120000D02*
X-20771000Y26053000D01*
X-20771000Y26053000D02*
X-22058000Y27340000D01*
X-15774000Y21021000D02*
X-20027000Y21021000D01*
X-20612000Y21606000D02*
X-20771000Y21765000D01*
X1613000Y15386000D02*
X1613000Y15937000D01*
X-20771000Y21765000D02*
X-20771000Y25120000D01*
X1613000Y15937000D02*
X-3471000Y21021000D01*
D23*
G04 #@! TO.N,P56_3V3*
X8018000Y-9994000D03*
D25*
X7500000Y-9476000D02*
X8018000Y-9994000D01*
X7500000Y-9475500D02*
X7500000Y-9476000D01*
D23*
G04 #@! TO.N,GND*
X-8018000Y-10993000D03*
D24*
X-7500000Y-10475500D02*
X-7500500Y-10475500D01*
X-7500500Y-10475500D02*
X-8018000Y-10993000D01*
D23*
G04 #@! TO.N,P66_1V8*
X-14188000Y8042000D03*
D25*
X-15650000Y7400000D02*
X-17485000Y5565000D01*
X-19467000Y-14842000D02*
X-20335000Y-15710000D01*
X-17800000Y5250000D02*
X-17800000Y1200000D01*
X-14188000Y8042000D02*
X-14830000Y7400000D01*
X-20335000Y-15710000D02*
X-24804000Y-15710000D01*
X-18184500Y-13559500D02*
X-19467000Y-14842000D01*
X-17800000Y-13175000D02*
X-18184500Y-13559500D01*
X-17800000Y1200000D02*
X-17800000Y-13175000D01*
X-18184500Y-13559500D02*
X-18113000Y-13488000D01*
X-17624000Y5426000D02*
X-17800000Y5250000D01*
X-14830000Y7400000D02*
X-15650000Y7400000D01*
X-17485000Y5565000D02*
X-17624000Y5426000D01*
D23*
G04 #@! TO.N,P49_3V3*
X10018000Y-10994000D03*
D25*
X9500000Y-10476000D02*
X10018000Y-10994000D01*
X9500000Y-10475500D02*
X9500000Y-10476000D01*
D23*
G04 #@! TO.N,LED1*
X-18536000Y-8000D03*
G04 #@! TO.N,VCC1V0*
X-2499000Y2524000D03*
X-3018000Y-3993000D03*
D24*
X-2500000Y-3475500D02*
X-2500500Y-3475500D01*
X-2500500Y-3475500D02*
X-3018000Y-3993000D01*
D23*
G04 #@! TO.N,GND*
X4017000Y10042000D03*
D24*
X3500000Y9524500D02*
X3500000Y9525000D01*
X3500000Y9525000D02*
X4017000Y10042000D01*
D23*
G04 #@! TO.N,P31_3V3*
X5500000Y-475000D03*
G04 #@! TO.N,VCC3V3*
X4499000Y-8472000D03*
G04 #@! TO.N,GND*
X-12018000Y-5993000D03*
D24*
X-11500500Y-5475500D02*
X-12018000Y-5993000D01*
X-11500000Y-5475500D02*
X-11500500Y-5475500D01*
D23*
G04 #@! TO.N,CFGBVS*
X3018000Y-14704000D03*
D24*
X3524000Y-15210000D02*
X3560000Y-15210000D01*
X3018000Y-14704000D02*
X3524000Y-15210000D01*
D23*
G04 #@! TO.N,FLASH_SCK*
X-2263000Y-22570000D03*
D24*
X-2263000Y-22570000D02*
X-2263000Y-20270000D01*
D23*
G04 #@! TO.N,GND*
X-4018000Y-8993000D03*
D24*
X-3500000Y-8475500D02*
X-3500500Y-8475500D01*
X-3500500Y-8475500D02*
X-4018000Y-8993000D01*
D23*
X-6018000Y13042000D03*
D24*
X-5500000Y12524500D02*
X-5500500Y12524500D01*
X-5500500Y12524500D02*
X-6018000Y13042000D01*
D23*
G04 #@! TO.N,P42_1V8*
X3500000Y6524000D03*
D25*
G04 #@! TO.N,P13_1V8*
X2006000Y21711000D02*
X2006000Y26136000D01*
X6500000Y12524500D02*
X7045000Y13069500D01*
X7045000Y16672000D02*
X2006000Y21711000D01*
X7045000Y13069500D02*
X7045000Y15970000D01*
X7045000Y15970000D02*
X7045000Y16672000D01*
X2006000Y26136000D02*
X802000Y27340000D01*
D23*
G04 #@! TO.N,P36_3V3*
X13958000Y-11994000D03*
D25*
X23800000Y-9300000D02*
X26010000Y-9300000D01*
X14664000Y-12700000D02*
X20100000Y-12700000D01*
X13958000Y-11994000D02*
X14664000Y-12700000D01*
X23800000Y-9300000D02*
X22500000Y-10600000D01*
X20400000Y-12700000D02*
X22500000Y-10600000D01*
X20100000Y-12700000D02*
X20400000Y-12700000D01*
X26010000Y-9300000D02*
X27340000Y-10630000D01*
D23*
G04 #@! TO.N,GND*
X-8018000Y-12993000D03*
D24*
X-7500000Y-12475500D02*
X-7500500Y-12475500D01*
X-7500500Y-12475500D02*
X-8018000Y-12993000D01*
D23*
X-10018000Y9042000D03*
D24*
X-9500000Y8524500D02*
X-9500500Y8524500D01*
X-9500500Y8524500D02*
X-10018000Y9042000D01*
D25*
G04 #@! TO.N,P37_3V3*
X24270000Y-13700000D02*
X24800000Y-13170000D01*
X22000000Y-13700000D02*
X24270000Y-13700000D01*
X10724500Y-13700000D02*
X22000000Y-13700000D01*
X9500000Y-12475500D02*
X10724500Y-13700000D01*
D23*
G04 #@! TO.N,GND*
X-4018000Y-6993000D03*
D24*
X-3500500Y-6475500D02*
X-4018000Y-6993000D01*
X-3500000Y-6475500D02*
X-3500500Y-6475500D01*
D23*
X-5018000Y4042000D03*
D24*
X-4500000Y3524500D02*
X-4500500Y3524500D01*
X-4500500Y3524500D02*
X-5018000Y4042000D01*
D23*
G04 #@! TO.N,P67_1V8*
X-14958000Y8042000D03*
D25*
X-17869000Y5631000D02*
X-15850000Y7650000D01*
X-25845000Y-14300000D02*
X-21250000Y-14300000D01*
X-17869000Y5631000D02*
X-17900000Y5600000D01*
X-15350000Y7650000D02*
X-15850000Y7650000D01*
X-19200000Y-12250000D02*
X-21250000Y-14300000D01*
X-19200000Y1850000D02*
X-19200000Y-12250000D01*
X-25934000Y-14300000D02*
X-27344000Y-15710000D01*
X-14958000Y8042000D02*
X-15350000Y7650000D01*
X-17869000Y5631000D02*
X-19200000Y4300000D01*
X-19200000Y4300000D02*
X-19200000Y1850000D01*
X-25845000Y-14300000D02*
X-25934000Y-14300000D01*
D23*
G04 #@! TO.N,GND*
X-2018000Y13042000D03*
D24*
X-1500000Y12524500D02*
X-1500500Y12524500D01*
X-1500500Y12524500D02*
X-2018000Y13042000D01*
D23*
G04 #@! TO.N,P9_1V8*
X6017000Y12042000D03*
D24*
X5500000Y11524500D02*
X5500000Y11525000D01*
X5500000Y11525000D02*
X6017000Y12042000D01*
D23*
G04 #@! TO.N,P1_3V3*
X12017000Y4042000D03*
D24*
X11500000Y3525000D02*
X12017000Y4042000D01*
X11500000Y3524500D02*
X11500000Y3525000D01*
D23*
G04 #@! TO.N,VCC1V8*
X4489000Y11524000D03*
G04 #@! TO.N,GND*
X3018000Y-10994000D03*
D24*
X2500000Y-10475500D02*
X2500000Y-10476000D01*
X2500000Y-10476000D02*
X3018000Y-10994000D01*
D23*
X32500000Y27300000D03*
G04 #@! TO.N,VCC1V8*
X-9018000Y11042000D03*
D25*
X-9017500Y11042000D02*
X-9018000Y11042000D01*
X-8500000Y10524500D02*
X-9017500Y11042000D01*
G04 #@! TO.N,P41_3V3*
X23690000Y-14600000D02*
X24800000Y-15710000D01*
X6500000Y-12475500D02*
X8624500Y-14600000D01*
X8624500Y-14600000D02*
X23690000Y-14600000D01*
D23*
G04 #@! TO.N,VCC1V8*
X32500000Y25400000D03*
X-12018000Y10042000D03*
D25*
X-11500000Y9524500D02*
X-12017500Y10042000D01*
X-12017500Y10042000D02*
X-12018000Y10042000D01*
D23*
G04 #@! TO.N,GND*
X13017000Y3042000D03*
D24*
X12500000Y2524500D02*
X12500000Y2525000D01*
X12500000Y2525000D02*
X13017000Y3042000D01*
D23*
G04 #@! TO.N,VCC1V0*
X-2500000Y-3475000D03*
G04 #@! TO.N,+5V*
X-27692000Y22558000D03*
G04 #@! TO.N,VCC1V8*
X31800000Y24700000D03*
G04 #@! TO.N,GND*
X-5018000Y-993000D03*
D24*
X-4500500Y-475500D02*
X-5018000Y-993000D01*
X-4500000Y-475500D02*
X-4500500Y-475500D01*
D23*
G04 #@! TO.N,FLASH_VSS*
X5020000Y-33833000D03*
G04 #@! TO.N,GND*
X-1018000Y11042000D03*
D24*
X-500000Y10524500D02*
X-500500Y10524500D01*
X-500500Y10524500D02*
X-1018000Y11042000D01*
D23*
X1018000Y-11994000D03*
D25*
X500000Y-11475500D02*
X500000Y-11476000D01*
X500000Y-11476000D02*
X1018000Y-11994000D01*
D23*
G04 #@! TO.N,VCC1V0*
X-3500000Y-475000D03*
G04 #@! TO.N,FCS_B*
X4500000Y-476000D03*
G04 #@! TO.N,VCC1V0*
X-4018000Y-2993000D03*
D25*
X-3500000Y-2476000D02*
X-3500000Y-2475500D01*
X-4018000Y-2993000D02*
X-3500000Y-2476000D01*
D23*
G04 #@! TO.N,GND*
X28100000Y-21200000D03*
G04 #@! TO.N,VCC1V0*
X-475000Y4500000D03*
X-1018000Y5042000D03*
D24*
X-500000Y4524500D02*
X-475000Y4500000D01*
X-475000Y4500000D02*
X-1018000Y5042000D01*
D23*
G04 #@! TO.N,PROGRAM_B*
X3018000Y-11994000D03*
D24*
X2500000Y-11475500D02*
X2500000Y-11476000D01*
X2500000Y-11476000D02*
X3018000Y-11994000D01*
D25*
G04 #@! TO.N,P6_1V8*
X4350000Y14528000D02*
X4350000Y15807000D01*
X-9251000Y22350000D02*
X-12279000Y22350000D01*
X-14929000Y22350000D02*
X-15556000Y22977000D01*
X-2193000Y22350000D02*
X-9251000Y22350000D01*
X-15727000Y23148000D02*
X-15727000Y25350000D01*
X-15727000Y26089000D02*
X-16978000Y27340000D01*
X4500000Y12524500D02*
X5027000Y13051500D01*
X5027000Y13051500D02*
X5027000Y13851000D01*
X-12279000Y22350000D02*
X-14929000Y22350000D01*
X4350000Y15807000D02*
X-2193000Y22350000D01*
X-15556000Y22977000D02*
X-15727000Y23148000D01*
X5027000Y13851000D02*
X4350000Y14528000D01*
X-15727000Y25350000D02*
X-15727000Y26089000D01*
D23*
G04 #@! TO.N,P54_1V8*
X-9018000Y12042000D03*
D25*
X-8500000Y11524500D02*
X-9017500Y12042000D01*
X-9017500Y12042000D02*
X-9018000Y12042000D01*
D23*
G04 #@! TO.N,FLASH_VSS*
X-4803000Y-23470000D03*
G04 #@! TO.N,GND*
X12017000Y6042000D03*
D24*
X11500000Y5525000D02*
X12017000Y6042000D01*
X11500000Y5524500D02*
X11500000Y5525000D01*
D23*
G04 #@! TO.N,VCC1V0*
X-3501000Y-2475000D03*
G04 #@! TO.N,VCC3V3*
X12017000Y1042000D03*
D24*
X11500000Y524500D02*
X11500000Y525000D01*
X11500000Y525000D02*
X12017000Y1042000D01*
D23*
G04 #@! TO.N,P55_1V8*
X-17268000Y11042000D03*
D25*
X-22804000Y5806000D02*
X-22804000Y4744000D01*
X-23924000Y-3010000D02*
X-24804000Y-3010000D01*
X-22804000Y4744000D02*
X-22804000Y-1890000D01*
X-22939000Y-2025000D02*
X-23924000Y-3010000D01*
X-22804000Y-1890000D02*
X-22939000Y-2025000D01*
X-17268000Y11042000D02*
X-17930000Y10380000D01*
X-17930000Y10380000D02*
X-18230000Y10380000D01*
X-18230000Y10380000D02*
X-22804000Y5806000D01*
D23*
G04 #@! TO.N,VCC1V8*
X-5018000Y3042000D03*
X-4500000Y2524000D03*
D25*
X-5018000Y3042000D02*
X-4500000Y2524000D01*
D23*
G04 #@! TO.N,GND*
X-2018000Y-8993000D03*
D24*
X-1500000Y-8475500D02*
X-1500500Y-8475500D01*
X-1500500Y-8475500D02*
X-2018000Y-8993000D01*
D23*
X1017000Y12042000D03*
D25*
X500000Y11525000D02*
X1017000Y12042000D01*
X500000Y11524500D02*
X500000Y11525000D01*
D23*
X-4018000Y-12993000D03*
D24*
X-3500000Y-12475500D02*
X-3500500Y-12475500D01*
X-3500500Y-12475500D02*
X-4018000Y-12993000D01*
D23*
G04 #@! TO.N,P56_1V8*
X-18038000Y11042000D03*
D25*
X-23142000Y4309000D02*
X-24143000Y3308000D01*
X-24143000Y3308000D02*
X-26106000Y3308000D01*
X-23142000Y5938000D02*
X-23142000Y4309000D01*
X-26106000Y3308000D02*
X-27344000Y2070000D01*
X-18038000Y11042000D02*
X-23142000Y5938000D01*
D23*
G04 #@! TO.N,GND*
X-1018000Y10042000D03*
D25*
X-500500Y9524500D02*
X-1018000Y10042000D01*
X-500000Y9524500D02*
X-500500Y9524500D01*
D23*
G04 #@! TO.N,VCC1V0*
X-2018000Y-4993000D03*
D24*
X-1500500Y-4475500D02*
X-2018000Y-4993000D01*
X-1500000Y-4475500D02*
X-1500500Y-4475500D01*
D23*
G04 #@! TO.N,GND*
X-5018000Y-2993000D03*
D24*
X-4500500Y-2475500D02*
X-5018000Y-2993000D01*
X-4500000Y-2475500D02*
X-4500500Y-2475500D01*
D23*
X-7018000Y11042000D03*
X8018000Y-12994000D03*
D24*
X7500000Y-12475500D02*
X7500000Y-12476000D01*
X7500000Y-12476000D02*
X8018000Y-12994000D01*
D23*
G04 #@! TO.N,VCC1V0*
X-1018000Y3042000D03*
X-500000Y2524000D03*
D24*
X-500000Y2524500D02*
X-500000Y2524000D01*
X-500000Y2524000D02*
X-1018000Y3042000D01*
D23*
X-3500000Y-4475000D03*
G04 #@! TO.N,GND*
X10017000Y2042000D03*
D24*
X9500000Y1524500D02*
X9500000Y1525000D01*
X9500000Y1525000D02*
X10017000Y2042000D01*
D23*
G04 #@! TO.N,FLASH_VCC*
X-7343000Y-23470000D03*
G04 #@! TO.N,P3_3V3*
X10017000Y3042000D03*
D24*
X9500000Y2525000D02*
X10017000Y3042000D01*
X9500000Y2524500D02*
X9500000Y2525000D01*
D23*
G04 #@! TO.N,GND*
X1018000Y-7994000D03*
D24*
X500000Y-7476000D02*
X1018000Y-7994000D01*
X500000Y-7475500D02*
X500000Y-7476000D01*
D23*
G04 #@! TO.N,VCC1V8*
X5017000Y12042000D03*
D24*
X4500000Y11525000D02*
X5017000Y12042000D01*
X4500000Y11524500D02*
X4500000Y11525000D01*
D23*
X-4500000Y-1476000D03*
X-5018000Y-1993000D03*
D25*
X-4500000Y-1476000D02*
X-5017000Y-1993000D01*
X-5017000Y-1993000D02*
X-5018000Y-1993000D01*
D23*
G04 #@! TO.N,GND*
X31100000Y26600000D03*
G04 #@! TO.N,CCLK*
X-500000Y5524000D03*
G04 #@! TO.N,VCC3V3*
X1018000Y-6994000D03*
D24*
X500000Y-6475500D02*
X500000Y-6476000D01*
X500000Y-6476000D02*
X1018000Y-6994000D01*
D23*
G04 #@! TO.N,FLASH_SCK*
X1482000Y-26213000D03*
D24*
X1482000Y-26213000D02*
X3482000Y-26213000D01*
D25*
G04 #@! TO.N,P23_1V8*
X13502000Y12526500D02*
X13502000Y24800000D01*
X12500000Y11524500D02*
X13502000Y12526500D01*
D23*
G04 #@! TO.N,GND*
X-6018000Y9042000D03*
D24*
X-5500500Y8524500D02*
X-6018000Y9042000D01*
X-5500000Y8524500D02*
X-5500500Y8524500D01*
D23*
G04 #@! TO.N,P24_3V3*
X17308000Y-2994000D03*
D25*
X20950000Y648000D02*
X23752000Y3450000D01*
X23752000Y3450000D02*
X25210000Y3450000D01*
X20950000Y648000D02*
X20950000Y648000D01*
X25210000Y3450000D02*
X25960000Y3450000D01*
X25960000Y3450000D02*
X27340000Y2070000D01*
X20950000Y648000D02*
X17308000Y-2994000D01*
D23*
G04 #@! TO.N,GND*
X-8018000Y-7993000D03*
D24*
X-7500500Y-7475500D02*
X-8018000Y-7993000D01*
X-7500000Y-7475500D02*
X-7500500Y-7475500D01*
D23*
G04 #@! TO.N,P53_1V8*
X-19578000Y12042000D03*
D25*
X-22939000Y10780000D02*
X-20840000Y10780000D01*
X-22939000Y10780000D02*
X-23714000Y10780000D01*
X-19578000Y12042000D02*
X-20560000Y11060000D01*
X-20560000Y11060000D02*
X-20840000Y10780000D01*
X-23714000Y10780000D02*
X-24804000Y9690000D01*
D23*
G04 #@! TO.N,P23_3V3*
X18078000Y-2994000D03*
D25*
X23142000Y2070000D02*
X24800000Y2070000D01*
X21400000Y328000D02*
X23142000Y2070000D01*
X18078000Y-2994000D02*
X21400000Y328000D01*
D23*
G04 #@! TO.N,VCC1V8*
X9017000Y10042000D03*
D24*
X8500000Y9525000D02*
X9017000Y10042000D01*
X8500000Y9524500D02*
X8500000Y9525000D01*
D23*
G04 #@! TO.N,P8_3V3*
X11017000Y2042000D03*
D24*
X10500000Y1525000D02*
X11017000Y2042000D01*
X10500000Y1524500D02*
X10500000Y1525000D01*
D23*
G04 #@! TO.N,P26_1V8*
X11017000Y12042000D03*
D24*
X10500000Y11524500D02*
X10500000Y11525000D01*
X10500000Y11525000D02*
X11017000Y12042000D01*
D23*
G04 #@! TO.N,P47_3V3*
X6500000Y-11476000D03*
G04 #@! TO.N,FLASH_VCC*
X-7343000Y-22570000D03*
G04 #@! TO.N,GND*
X-4803000Y-15680000D03*
X31100000Y27300000D03*
X-4803000Y-14980000D03*
G04 #@! TO.N,P16_3V3*
X10018000Y-994000D03*
D25*
X9500000Y-475500D02*
X9500000Y-476000D01*
X9500000Y-476000D02*
X10018000Y-994000D01*
D23*
G04 #@! TO.N,P27_3V3*
X8017000Y2042000D03*
D25*
X8017000Y2041500D02*
X8017000Y2042000D01*
X7500000Y1524500D02*
X8017000Y2041500D01*
D23*
G04 #@! TO.N,GND*
X10017000Y12042000D03*
D24*
X9500000Y11525000D02*
X10017000Y12042000D01*
X9500000Y11524500D02*
X9500000Y11525000D01*
D23*
G04 #@! TO.N,VCC3V3*
X-8043000Y-14980000D03*
D25*
G04 #@! TO.N,P50_1V8*
X-21168000Y-7469000D02*
X-21915000Y-8216000D01*
X-12500000Y8524500D02*
X-13375500Y9400000D01*
X-21168000Y-297000D02*
X-21168000Y-7469000D01*
X-16300000Y9400000D02*
X-19700000Y6000000D01*
X-21915000Y-8216000D02*
X-22999000Y-9300000D01*
X-22999000Y-9300000D02*
X-25613000Y-9300000D01*
X-25613000Y-9300000D02*
X-26014000Y-9300000D01*
X-26014000Y-9300000D02*
X-27344000Y-10630000D01*
X-13375500Y9400000D02*
X-16300000Y9400000D01*
X-19700000Y6000000D02*
X-21168000Y4532000D01*
X-21168000Y4532000D02*
X-21168000Y-297000D01*
D23*
G04 #@! TO.N,P52_1V8*
X-18808000Y12042000D03*
D25*
X-20110000Y10740000D02*
X-22360000Y8490000D01*
X-24829000Y8490000D02*
X-26004000Y8490000D01*
X-18808000Y12042000D02*
X-20110000Y10740000D01*
X-24829000Y8490000D02*
X-22360000Y8490000D01*
X-26004000Y8490000D02*
X-27344000Y7150000D01*
D23*
G04 #@! TO.N,GND*
X-3018000Y-6993000D03*
D24*
X-2500500Y-6475500D02*
X-3018000Y-6993000D01*
X-2500000Y-6475500D02*
X-2500500Y-6475500D01*
D25*
G04 #@! TO.N,P44_1V8*
X-12467500Y14492000D02*
X-12725500Y14750000D01*
X-22250000Y13690000D02*
X-22340000Y13600000D01*
X-21190000Y14750000D02*
X-22250000Y13690000D01*
X-25785000Y13600000D02*
X-25974000Y13600000D01*
X-12725500Y14750000D02*
X-20090000Y14750000D01*
X-25974000Y13600000D02*
X-27344000Y12230000D01*
X-20090000Y14750000D02*
X-21190000Y14750000D01*
X-12427750Y14452250D02*
X-12467500Y14492000D01*
X-12427750Y14452250D02*
X-10500000Y12524500D01*
X-25785000Y13600000D02*
X-22340000Y13600000D01*
D23*
G04 #@! TO.N,GND*
X-4018000Y-3993000D03*
D24*
X-3500000Y-3475500D02*
X-3500500Y-3475500D01*
X-3500500Y-3475500D02*
X-4018000Y-3993000D01*
D23*
X-13018000Y-12993000D03*
D24*
X-12500000Y-12475500D02*
X-12500500Y-12475500D01*
X-12500500Y-12475500D02*
X-13018000Y-12993000D01*
D23*
G04 #@! TO.N,P64_1V8*
X-15728000Y9042000D03*
D25*
X-24019000Y-9600000D02*
X-24804000Y-10385000D01*
X-24019000Y-9600000D02*
X-22750000Y-9600000D01*
X-24804000Y-10385000D02*
X-24804000Y-10630000D01*
X-19250000Y5520000D02*
X-20750000Y4020000D01*
X-20750000Y-7600000D02*
X-22750000Y-9600000D01*
X-15728000Y9042000D02*
X-19250000Y5520000D01*
X-20750000Y-7600000D02*
X-20750000Y2000000D01*
X-20750000Y4020000D02*
X-20750000Y2000000D01*
D23*
G04 #@! TO.N,VCC3V3*
X-8043000Y-15680000D03*
G04 #@! TO.N,GND*
X1017000Y8042000D03*
D24*
X500000Y7524500D02*
X500000Y7525000D01*
X500000Y7525000D02*
X1017000Y8042000D01*
D23*
G04 #@! TO.N,FLASH_VCC*
X-8718000Y-27483000D03*
G04 #@! TO.N,GND*
X-4018000Y8042000D03*
D25*
X-3500000Y7524500D02*
X-3500500Y7524500D01*
X-3500500Y7524500D02*
X-4018000Y8042000D01*
D23*
X31800000Y27300000D03*
G04 #@! TO.N,VCC1V0*
X-4018000Y-993000D03*
D24*
X-3500000Y-475500D02*
X-3500000Y-475000D01*
X-3500000Y-475000D02*
X-4018000Y-993000D01*
D23*
G04 #@! TO.N,GND*
X-2018000Y-12993000D03*
D24*
X-1500000Y-12475500D02*
X-1500500Y-12475500D01*
X-1500500Y-12475500D02*
X-2018000Y-12993000D01*
D23*
X-13018000Y8042000D03*
D24*
X-12500000Y7524500D02*
X-12500500Y7524500D01*
X-12500500Y7524500D02*
X-13018000Y8042000D01*
D23*
X-2018000Y-6993000D03*
D24*
X-1500500Y-6475500D02*
X-2018000Y-6993000D01*
X-1500000Y-6475500D02*
X-1500500Y-6475500D01*
D23*
X13018000Y-7994000D03*
D24*
X12500000Y-7476000D02*
X13018000Y-7994000D01*
X12500000Y-7475500D02*
X12500000Y-7476000D01*
D23*
G04 #@! TO.N,P34_1V8*
X1500000Y6525000D03*
G04 #@! TO.N,GND*
X-6018000Y12042000D03*
D25*
X-5500500Y11524500D02*
X-6018000Y12042000D01*
X-5500000Y11524500D02*
X-5500500Y11524500D01*
D23*
G04 #@! TO.N,P10_3V3*
X10500000Y525000D03*
G04 #@! TO.N,VCC3V3*
X4018000Y-5994000D03*
D25*
X3500000Y-5476000D02*
X4018000Y-5994000D01*
X3500000Y-5475500D02*
X3500000Y-5476000D01*
D23*
X3499000Y-5475000D03*
G04 #@! TO.N,GND*
X-5018000Y-8993000D03*
D24*
X-4500000Y-8475500D02*
X-4500500Y-8475500D01*
X-4500500Y-8475500D02*
X-5018000Y-8993000D01*
D23*
X-12018000Y5042000D03*
D24*
X-11500000Y4524500D02*
X-11500500Y4524500D01*
X-11500000Y4524500D02*
X-11500500Y4524500D01*
X-11500500Y4524500D02*
X-12018000Y5042000D01*
D23*
X-3018000Y-9993000D03*
D25*
X-2500500Y-9475500D02*
X-3018000Y-9993000D01*
X-2500000Y-9475500D02*
X-2500500Y-9475500D01*
D23*
G04 #@! TO.N,P32_3V3*
X6500000Y-1476000D03*
D25*
G04 #@! TO.N,P25_1V8*
X16019000Y24777000D02*
X16042000Y24800000D01*
X12500000Y9524500D02*
X14063000Y11087500D01*
X14063000Y19767000D02*
X14063000Y20516000D01*
X14063000Y20516000D02*
X16019000Y22472000D01*
X16019000Y22472000D02*
X16019000Y24777000D01*
X14063000Y11087500D02*
X14063000Y19767000D01*
D23*
G04 #@! TO.N,GND*
X-1018000Y7042000D03*
D24*
X-500000Y6524500D02*
X-500500Y6524500D01*
X-500500Y6524500D02*
X-1018000Y7042000D01*
D23*
G04 #@! TO.N,D1*
X2018000Y-1994000D03*
D24*
X1500000Y-1475500D02*
X1500000Y-1476000D01*
X1500000Y-1476000D02*
X2018000Y-1994000D01*
D23*
G04 #@! TO.N,FLASH_CS*
X-4418000Y-33833000D03*
D24*
X-4418000Y-33833000D02*
X-6418000Y-33833000D01*
X-6418000Y-33833000D02*
X-7718000Y-33833000D01*
D23*
G04 #@! TO.N,GND*
X-11018000Y-8993000D03*
D24*
X-10500500Y-8475500D02*
X-11018000Y-8993000D01*
X-10500000Y-8475500D02*
X-10500500Y-8475500D01*
D23*
G04 #@! TO.N,+5V*
X-29692000Y21858000D03*
G04 #@! TO.N,P20_3V3*
X10018000Y-1994000D03*
D24*
X9500000Y-1475500D02*
X9500000Y-1476000D01*
X9500000Y-1476000D02*
X10018000Y-1994000D01*
D23*
G04 #@! TO.N,VCC3V3*
X9018000Y-10994000D03*
D25*
X8500000Y-10476000D02*
X9018000Y-10994000D01*
X8500000Y-10475500D02*
X8500000Y-10476000D01*
D23*
X5499000Y-1475000D03*
G04 #@! TO.N,GND*
X-5018000Y11042000D03*
D24*
X-4500500Y10524500D02*
X-5018000Y11042000D01*
X-4500000Y10524500D02*
X-4500500Y10524500D01*
D25*
G04 #@! TO.N,P20_1V8*
X9710000Y26052000D02*
X8422000Y27340000D01*
X9710000Y22544000D02*
X9710000Y26052000D01*
X9500000Y12524500D02*
X10000000Y13024500D01*
X10000000Y13024500D02*
X10000000Y22254000D01*
X10000000Y22254000D02*
X9710000Y22544000D01*
D23*
G04 #@! TO.N,VCC3V3*
X24100000Y-21200000D03*
G04 #@! TO.N,GND*
X27400000Y-21200000D03*
G04 #@! TO.N,+5V*
X-27992000Y23158000D03*
X-29692000Y22558000D03*
G04 #@! TO.N,GND*
X-2018000Y9042000D03*
D24*
X-1500500Y8524500D02*
X-2018000Y9042000D01*
X-1500000Y8524500D02*
X-1500500Y8524500D01*
D23*
G04 #@! TO.N,VCC3V3*
X2017000Y1042000D03*
X1500000Y525000D03*
D24*
X1500000Y524500D02*
X1500000Y525000D01*
X1500000Y525000D02*
X2017000Y1042000D01*
D23*
G04 #@! TO.N,P12_1V8*
X7017000Y18852000D03*
D25*
X5882000Y19987000D02*
X5882000Y24800000D01*
X7017000Y18852000D02*
X5882000Y19987000D01*
D23*
G04 #@! TO.N,P64_1V8*
X-9018000Y9042000D03*
D25*
X-8500000Y8524500D02*
X-9017500Y9042000D01*
X-9017500Y9042000D02*
X-9018000Y9042000D01*
D23*
G04 #@! TO.N,VCC1V8*
X11500000Y10524000D03*
G04 #@! TO.N,GND*
X-2018000Y-5993000D03*
D24*
X-1500000Y-5475500D02*
X-1500500Y-5475500D01*
X-1500500Y-5475500D02*
X-2018000Y-5993000D01*
D23*
G04 #@! TO.N,P56_1V8*
X-11018000Y11042000D03*
D25*
X-11018000Y11042000D02*
X-10500500Y10524500D01*
X-10500500Y10524500D02*
X-10500000Y10524500D01*
D23*
G04 #@! TO.N,P18_3V3*
X12018000Y-994000D03*
D25*
X11500000Y-475500D02*
X11500000Y-476000D01*
X11500000Y-476000D02*
X12018000Y-994000D01*
D23*
G04 #@! TO.N,GND*
X-2018000Y7042000D03*
D24*
X-1500500Y6524500D02*
X-2018000Y7042000D01*
X-1500000Y6524500D02*
X-1500500Y6524500D01*
D23*
X12018000Y-4994000D03*
D24*
X11500000Y-4476000D02*
X12018000Y-4994000D01*
X11500000Y-4475500D02*
X11500000Y-4476000D01*
D23*
G04 #@! TO.N,P15_3V3*
X6500000Y-476000D03*
G04 #@! TO.N,P17_1V8*
X9017000Y11042000D03*
D24*
X8500000Y10524500D02*
X8500000Y10525000D01*
X8500000Y10525000D02*
X9017000Y11042000D01*
D25*
G04 #@! TO.N,P51_1V8*
X-16421000Y-21000D02*
X-16421000Y-74000D01*
X-16421000Y-12660000D02*
X-20635000Y-16874000D01*
X-13868500Y6524500D02*
X-15500000Y4893000D01*
X-22011000Y-18250000D02*
X-24804000Y-18250000D01*
X-12500000Y6524500D02*
X-12975500Y7000000D01*
X-15500000Y900000D02*
X-16421000Y-21000D01*
X-12975500Y7000000D02*
X-13393000Y7000000D01*
X-16421000Y-74000D02*
X-16421000Y-12660000D01*
X-15500000Y4893000D02*
X-15500000Y900000D01*
X-20635000Y-16874000D02*
X-22011000Y-18250000D01*
X-13393000Y7000000D02*
X-13868500Y6524500D01*
D23*
G04 #@! TO.N,GND*
X-29692000Y20808000D03*
G04 #@! TO.N,VCC3V3*
X8018000Y-7994000D03*
D25*
X7500000Y-7476000D02*
X8018000Y-7994000D01*
X7500000Y-7475500D02*
X7500000Y-7476000D01*
D23*
G04 #@! TO.N,VCC1V8*
X-8470000Y10507000D03*
X32500000Y24700000D03*
G04 #@! TO.N,GND*
X-5503000Y-15680000D03*
G04 #@! TO.N,P7_3V3*
X17286000Y2042000D03*
D25*
X17992000Y2042000D02*
X22750000Y6800000D01*
X17286000Y2042000D02*
X17992000Y2042000D01*
X22750000Y6800000D02*
X23100000Y7150000D01*
X23100000Y7150000D02*
X24800000Y7150000D01*
G04 #@! TO.N,P43_1V8*
X-23764000Y13270000D02*
X-24804000Y12230000D01*
X-11500000Y12524500D02*
X-13450500Y14475000D01*
X-21900000Y13590000D02*
X-22220000Y13270000D01*
X-13450500Y14475000D02*
X-13910000Y14475000D01*
X-23253000Y13270000D02*
X-22220000Y13270000D01*
X-13910000Y14475000D02*
X-21015000Y14475000D01*
X-21015000Y14475000D02*
X-21900000Y13590000D01*
X-23253000Y13270000D02*
X-23764000Y13270000D01*
D23*
G04 #@! TO.N,P43_3V3*
X15498000Y-10994000D03*
D25*
X16342000Y-10150000D02*
X17200000Y-10150000D01*
X17200000Y-10150000D02*
X21350000Y-6000000D01*
X24940000Y-1630000D02*
X25960000Y-1630000D01*
X15498000Y-10994000D02*
X16342000Y-10150000D01*
X21350000Y-6000000D02*
X21350000Y-3600000D01*
X23320000Y-1630000D02*
X24940000Y-1630000D01*
X25960000Y-1630000D02*
X27340000Y-3010000D01*
X21350000Y-3600000D02*
X23320000Y-1630000D01*
D23*
G04 #@! TO.N,GND*
X-5018000Y2042000D03*
D24*
X-4500500Y1524500D02*
X-5018000Y2042000D01*
X-4500000Y1524500D02*
X-4500500Y1524500D01*
D23*
G04 #@! TO.N,P6_3V3*
X15746000Y2042000D03*
D25*
X15746000Y2042000D02*
X16700000Y2996000D01*
X16700000Y5250000D02*
X21140000Y9690000D01*
X16700000Y2996000D02*
X16700000Y5250000D01*
X21140000Y9690000D02*
X24800000Y9690000D01*
D23*
G04 #@! TO.N,P32_1V8*
X1017000Y6042000D03*
D25*
X500000Y5524500D02*
X1017000Y6041500D01*
X1017000Y6041500D02*
X1017000Y6042000D01*
D23*
G04 #@! TO.N,GND*
X-3018000Y-2993000D03*
D24*
X-2500500Y-2475500D02*
X-3018000Y-2993000D01*
X-2500000Y-2475500D02*
X-2500500Y-2475500D01*
D23*
X1017000Y9042000D03*
D24*
X500000Y8524500D02*
X500000Y8525000D01*
X500000Y8525000D02*
X1017000Y9042000D01*
D23*
G04 #@! TO.N,VCC3V3*
X6018000Y-11994000D03*
D25*
X5500000Y-11475500D02*
X5500000Y-11476000D01*
X5500000Y-11476000D02*
X6018000Y-11994000D01*
D23*
G04 #@! TO.N,P48_3V3*
X11018000Y-10994000D03*
D25*
X10500000Y-10475500D02*
X10500000Y-10476000D01*
X10500000Y-10476000D02*
X11018000Y-10994000D01*
D23*
G04 #@! TO.N,P11_3V3*
X8500000Y525000D03*
G04 #@! TO.N,GND*
X-4018000Y13042000D03*
D24*
X-3500000Y12524500D02*
X-3500500Y12524500D01*
X-3500500Y12524500D02*
X-4018000Y13042000D01*
D23*
G04 #@! TO.N,VCC1V8*
X31800000Y24000000D03*
X6017000Y9042000D03*
D24*
X5500000Y8524500D02*
X5500000Y8525000D01*
X5500000Y8525000D02*
X6017000Y9042000D01*
D23*
G04 #@! TO.N,P4_1V8*
X5017000Y14752000D03*
D25*
X5017000Y14752000D02*
X5017000Y15716000D01*
X-11898000Y23363000D02*
X-11898000Y24800000D01*
X-7094000Y22638000D02*
X-11173000Y22638000D01*
X-1905000Y22638000D02*
X-7094000Y22638000D01*
X-11173000Y22638000D02*
X-11898000Y23363000D01*
X5017000Y15716000D02*
X-1905000Y22638000D01*
D23*
G04 #@! TO.N,GND*
X28100000Y-20500000D03*
G04 #@! TO.N,FLASH_CS*
X5357000Y-22570000D03*
D24*
X5357000Y-22570000D02*
X5357000Y-20270000D01*
D23*
G04 #@! TO.N,DONE*
X-4018000Y-5993000D03*
D25*
X-3500500Y-5475500D02*
X-4018000Y-5993000D01*
X-3500000Y-5475500D02*
X-3500500Y-5475500D01*
D23*
G04 #@! TO.N,P2_3V3*
X11017000Y3042000D03*
D24*
X10500000Y2525000D02*
X11017000Y3042000D01*
X10500000Y2524500D02*
X10500000Y2525000D01*
D23*
G04 #@! TO.N,GND*
X27400000Y-20500000D03*
G04 #@! TO.N,P33_3V3*
X7500000Y-1476000D03*
G04 #@! TO.N,GND*
X-10018000Y-1993000D03*
D24*
X-9500500Y-1475500D02*
X-10018000Y-1993000D01*
X-9500000Y-1475500D02*
X-9500500Y-1475500D01*
D23*
G04 #@! TO.N,VCC3V3*
X11017000Y4042000D03*
D24*
X10500000Y3524500D02*
X10500000Y3525000D01*
X10500000Y3525000D02*
X11017000Y4042000D01*
D23*
G04 #@! TO.N,GND*
X-1018000Y-10993000D03*
D24*
X-500000Y-10475500D02*
X-500500Y-10475500D01*
X-500500Y-10475500D02*
X-1018000Y-10993000D01*
D23*
G04 #@! TO.N,P11_1V8*
X7017000Y10042000D03*
D24*
X6500000Y9524500D02*
X6500000Y9525000D01*
X6500000Y9525000D02*
X7017000Y10042000D01*
D23*
G04 #@! TO.N,D0*
X500000Y-1475000D03*
D25*
G04 #@! TO.N,P42_3V3*
X13524500Y-11500000D02*
X14900000Y-11500000D01*
X23350000Y-5550000D02*
X24800000Y-5550000D01*
X18950000Y-9950000D02*
X17400000Y-11500000D01*
X12500000Y-10475500D02*
X13524500Y-11500000D01*
X22350000Y-6550000D02*
X23350000Y-5550000D01*
X18950000Y-9950000D02*
X22350000Y-6550000D01*
X18950000Y-9950000D02*
X19000000Y-9900000D01*
X14900000Y-11500000D02*
X17400000Y-11500000D01*
D23*
G04 #@! TO.N,VCC1V0*
X-3501000Y3525000D03*
X-4018000Y4042000D03*
D24*
X-3500000Y3524500D02*
X-3501000Y3525000D01*
X-3501000Y3525000D02*
X-4018000Y4042000D01*
D23*
G04 #@! TO.N,P24_3V3*
X12018000Y-2994000D03*
D24*
X11500000Y-2476000D02*
X12018000Y-2994000D01*
X11500000Y-2475500D02*
X11500000Y-2476000D01*
D25*
G04 #@! TO.N,P26_3V3*
X13524500Y-2500000D02*
X15950000Y-2500000D01*
X19350000Y1800000D02*
X22160000Y4610000D01*
X12500000Y-1475500D02*
X13524500Y-2500000D01*
X15950000Y-2500000D02*
X18900000Y450000D01*
X19350000Y900000D02*
X19350000Y1800000D01*
X22160000Y4610000D02*
X24800000Y4610000D01*
X18900000Y450000D02*
X19350000Y900000D01*
D23*
G04 #@! TO.N,GND*
X7017000Y1042000D03*
D25*
X6500000Y525000D02*
X7017000Y1042000D01*
X6500000Y524500D02*
X6500000Y525000D01*
D23*
G04 #@! TO.N,P22_3V3*
X18848000Y-2994000D03*
D25*
X18848000Y-2994000D02*
X22792000Y950000D01*
X22792000Y950000D02*
X25920000Y950000D01*
X25920000Y950000D02*
X27340000Y-470000D01*
D23*
G04 #@! TO.N,P30_1V8*
X10017000Y10042000D03*
D24*
X9500000Y9525000D02*
X10017000Y10042000D01*
X9500000Y9524500D02*
X9500000Y9525000D01*
D23*
G04 #@! TO.N,P63_1V8*
X-11018000Y9042000D03*
D25*
X-10500500Y8524500D02*
X-10500000Y8524500D01*
X-11018000Y9042000D02*
X-10500500Y8524500D01*
D23*
G04 #@! TO.N,VCC1V0*
X-1018000Y-3993000D03*
X-500000Y-3476000D03*
D25*
X-1018000Y-3993000D02*
X-501000Y-3476000D01*
X-501000Y-3476000D02*
X-500000Y-3476000D01*
D23*
G04 #@! TO.N,GND*
X3018000Y-12994000D03*
D24*
X2500000Y-12475500D02*
X2500000Y-12476000D01*
X2500000Y-12476000D02*
X3018000Y-12994000D01*
D25*
G04 #@! TO.N,P3_1V8*
X3500000Y12524500D02*
X4000000Y13024500D01*
X-13335000Y22037000D02*
X-16147000Y22037000D01*
X-2570000Y22037000D02*
X-10630000Y22037000D01*
X-16147000Y22037000D02*
X-16978000Y22868000D01*
X-10630000Y22037000D02*
X-13335000Y22037000D01*
X4000000Y15467000D02*
X-1692000Y21159000D01*
X-1692000Y21159000D02*
X-2570000Y22037000D01*
X4000000Y13024500D02*
X4000000Y15467000D01*
X-16978000Y22868000D02*
X-16978000Y24800000D01*
D23*
G04 #@! TO.N,P4_1V8*
X5017000Y10042000D03*
D24*
X4500000Y9524500D02*
X4500000Y9525000D01*
X4500000Y9525000D02*
X5017000Y10042000D01*
D23*
G04 #@! TO.N,P62_1V8*
X-12018000Y9042000D03*
D25*
X-12018000Y9042000D02*
X-11500500Y8524500D01*
X-11500500Y8524500D02*
X-11500000Y8524500D01*
D23*
G04 #@! TO.N,P66_1V8*
X-12018000Y8042000D03*
D25*
X-12017500Y8042000D02*
X-12018000Y8042000D01*
X-11500000Y7524500D02*
X-12017500Y8042000D01*
D23*
G04 #@! TO.N,P14_1V8*
X7500000Y9524000D03*
D25*
G04 #@! TO.N,P45_1V8*
X-9500000Y12524500D02*
X-11496500Y14521000D01*
X-22885000Y19200000D02*
X-16175500Y19200000D01*
X-22885000Y19200000D02*
X-22914000Y19200000D01*
X-22914000Y19200000D02*
X-24804000Y17310000D01*
X-11496500Y14521000D02*
X-16175500Y19200000D01*
G04 #@! TO.N,P25_3V3*
X18850000Y1250000D02*
X18850000Y2100000D01*
X13474500Y-1450000D02*
X16150000Y-1450000D01*
X12500000Y-475500D02*
X13474500Y-1450000D01*
X16150000Y-1450000D02*
X18850000Y1250000D01*
X25950000Y6000000D02*
X27340000Y4610000D01*
X18850000Y2100000D02*
X22750000Y6000000D01*
X22750000Y6000000D02*
X25950000Y6000000D01*
D23*
G04 #@! TO.N,P26_1V8*
X16517000Y12042000D03*
D25*
X18561000Y14086000D02*
X18561000Y18039000D01*
X18561000Y18660000D02*
X18561000Y18724000D01*
X21900000Y20660000D02*
X21960000Y20660000D01*
X18561000Y18660000D02*
X18561000Y18811000D01*
X16517000Y12042000D02*
X18561000Y14086000D01*
X18561000Y18660000D02*
X18561000Y18039000D01*
X20410000Y20660000D02*
X21900000Y20660000D01*
X23662000Y22362000D02*
X23662000Y24800000D01*
X18561000Y18811000D02*
X20040000Y20290000D01*
X21960000Y20660000D02*
X23662000Y22362000D01*
X20040000Y20290000D02*
X20410000Y20660000D01*
D23*
G04 #@! TO.N,GND*
X-5018000Y10042000D03*
D25*
X-4500500Y9524500D02*
X-5018000Y10042000D01*
X-4500000Y9524500D02*
X-4500500Y9524500D01*
D23*
G04 #@! TO.N,P61_1V8*
X-7500000Y9524000D03*
G04 #@! TO.N,GND*
X2017000Y10042000D03*
D24*
X1500000Y9525000D02*
X2017000Y10042000D01*
X1500000Y9524500D02*
X1500000Y9525000D01*
D23*
X-6018000Y-8993000D03*
D24*
X-5500500Y-8475500D02*
X-6018000Y-8993000D01*
X-5500000Y-8475500D02*
X-5500500Y-8475500D01*
D26*
G04 #@! TA.AperFunction,Conductor*
G04 #@! TO.N,+5V*
G36*
X-32900000Y21599999D02*
X-32880500Y21540672D01*
X-32800001Y21500000D01*
X-27499999Y21500000D01*
X-27440672Y21519500D01*
X-27400000Y21599999D01*
X-27400000Y23400001D01*
X-27419500Y23459328D01*
X-27499999Y23500000D01*
X-32800001Y23500000D01*
X-32859328Y23480500D01*
X-32900000Y23400001D01*
X-32900000Y21599999D01*
G37*
G04 #@! TO.N,FLASH_VCC*
G36*
X-8500000Y-23800001D02*
X-8480500Y-23859328D01*
X-8400001Y-23900000D01*
X-6299999Y-23900000D01*
X-6240672Y-23880500D01*
X-6200000Y-23800001D01*
X-6200000Y-19299999D01*
X-6219500Y-19240672D01*
X-6299999Y-19200000D01*
X-8400001Y-19200000D01*
X-8459328Y-19219500D01*
X-8500000Y-19299999D01*
X-8500000Y-23800001D01*
G37*
G04 #@! TO.N,VCC3V3*
G36*
X23700000Y-21500001D02*
X23719500Y-21559328D01*
X23799999Y-21600000D01*
X25800001Y-21600000D01*
X25859328Y-21580500D01*
X25900000Y-21500001D01*
X25900000Y-17399999D01*
X25880500Y-17340672D01*
X25800001Y-17300000D01*
X23799999Y-17300000D01*
X23740672Y-17319500D01*
X23700000Y-17399999D01*
X23700000Y-21500001D01*
G37*
G36*
X-8500000Y-18700001D02*
X-8480500Y-18759328D01*
X-8400001Y-18800000D01*
X-6299999Y-18800000D01*
X-6240672Y-18780500D01*
X-6200000Y-18700001D01*
X-6200000Y-14699999D01*
X-6219500Y-14640672D01*
X-6299999Y-14600000D01*
X-8400001Y-14600000D01*
X-8459328Y-14619500D01*
X-8500000Y-14699999D01*
X-8500000Y-18700001D01*
G37*
G04 #@! TO.N,GND*
G36*
X-5900000Y-18700001D02*
X-5880500Y-18759328D01*
X-5800001Y-18800000D01*
X-3699999Y-18800000D01*
X-3640672Y-18780500D01*
X-3600000Y-18700001D01*
X-3600000Y-14699999D01*
X-3619500Y-14640672D01*
X-3699999Y-14600000D01*
X-5800001Y-14600000D01*
X-5859328Y-14619500D01*
X-5900000Y-14699999D01*
X-5900000Y-18700001D01*
G37*
G04 #@! TO.N,VCC1V8*
G36*
X27800000Y23699999D02*
X27819500Y23640672D01*
X27899999Y23600000D01*
X33000001Y23600000D01*
X33059328Y23619500D01*
X33100000Y23699999D01*
X33100000Y25800001D01*
X33080500Y25859328D01*
X33000001Y25900000D01*
X27899999Y25900000D01*
X27840672Y25880500D01*
X27800000Y25800001D01*
X27800000Y23699999D01*
G37*
G04 #@! TO.N,FLASH_VCC*
G36*
X-9100000Y-27700001D02*
X-9080500Y-27759328D01*
X-9000001Y-27800000D01*
X-6199999Y-27800000D01*
X-6140672Y-27780500D01*
X-6100000Y-27700001D01*
X-6100000Y-27299999D01*
X-6119500Y-27240672D01*
X-6199999Y-27200000D01*
X-9000001Y-27200000D01*
X-9059328Y-27219500D01*
X-9100000Y-27299999D01*
X-9100000Y-27700001D01*
G37*
G04 #@! TO.N,N38*
G36*
X-18936000Y1200000D02*
X-18136000Y1200000D01*
X-18136000Y1917028D01*
X-18385995Y1917028D01*
X-18385995Y2317000D01*
X-18161000Y2317000D01*
X-18161000Y3567000D01*
X-18911000Y3567000D01*
X-18911000Y2317000D01*
X-18686005Y2317000D01*
X-18686005Y1917028D01*
X-18936000Y1917028D01*
X-18936000Y1200000D01*
G37*
G04 #@! TO.N,GND*
G36*
X-32900000Y19099999D02*
X-32880500Y19040672D01*
X-32800001Y19000000D01*
X-27499999Y19000000D01*
X-27440672Y19019500D01*
X-27400000Y19099999D01*
X-27400000Y21100001D01*
X-27419500Y21159328D01*
X-27499999Y21200000D01*
X-32800001Y21200000D01*
X-32859328Y21180500D01*
X-32900000Y21100001D01*
X-32900000Y19099999D01*
G37*
G04 #@! TO.N,FLASH_VSS*
G36*
X3100000Y-34000001D02*
X3119500Y-34059328D01*
X3199999Y-34100000D01*
X5200001Y-34100000D01*
X5259328Y-34080500D01*
X5300000Y-34000001D01*
X5300000Y-33699999D01*
X5280500Y-33640672D01*
X5200001Y-33600000D01*
X3199999Y-33600000D01*
X3140672Y-33619500D01*
X3100000Y-33699999D01*
X3100000Y-34000001D01*
G37*
G04 #@! TO.N,GND*
G36*
X27800000Y26299999D02*
X27819500Y26240672D01*
X27899999Y26200000D01*
X33000001Y26200000D01*
X33059328Y26219500D01*
X33100000Y26299999D01*
X33100000Y28400001D01*
X33080500Y28459328D01*
X33000001Y28500000D01*
X27899999Y28500000D01*
X27840672Y28480500D01*
X27800000Y28400001D01*
X27800000Y26299999D01*
G37*
G36*
X26200000Y-21500001D02*
X26219500Y-21559328D01*
X26299999Y-21600000D01*
X28400001Y-21600000D01*
X28459328Y-21580500D01*
X28500000Y-21500001D01*
X28500000Y-17399999D01*
X28480500Y-17340672D01*
X28400001Y-17300000D01*
X26299999Y-17300000D01*
X26240672Y-17319500D01*
X26200000Y-17399999D01*
X26200000Y-21500001D01*
G37*
G04 #@! TO.N,FLASH_VSS*
G36*
X-5900000Y-23800001D02*
X-5880500Y-23859328D01*
X-5800001Y-23900000D01*
X-3699999Y-23900000D01*
X-3640672Y-23880500D01*
X-3600000Y-23800001D01*
X-3600000Y-19299999D01*
X-3619500Y-19240672D01*
X-3699999Y-19200000D01*
X-5800001Y-19200000D01*
X-5859328Y-19219500D01*
X-5900000Y-19299999D01*
X-5900000Y-23800001D01*
G37*
G04 --- BOARD END --- *
G04 #@! TF.MD5,0044379ccb59d68f1c421c18f5e42d34*
M02*
