M48
; #@! TF.GenerationSoftware,LibrePCB,LibrePCB,1.1.0
; #@! TF.CreationDate,2024-09-08T17:15:58
; #@! TF.ProjectId,flasher,f4b07f79-14a2-4070-9d7d-1f686dcb10c4,v1
; #@! TF.Part,Single
; #@! TF.SameCoordinates
; #@! TF.FileFunction,Plated,1,13,PTH
FMAT,2
METRIC,TZ
; #@! TA.AperFunction,ViaDrill
T1C0.2
; #@! TA.AperFunction,ViaDrill
T2C0.3
%
G90
G05
M71
T1
X-4.0Y13.9
X-7.674028Y5.197
X-1.817Y5.959
X-11.3Y6.524
X-2.5Y0.2
X-5.0Y13.9
X-3.7Y2.525
X-11.7Y12.522
X-7.664028Y4.577
X-21.27Y-11.903
X-2.5Y-1.5
X-6.503Y7.92
X-8.293Y7.523
X-9.5Y-10.6
X-8.47Y11.307
X-6.0Y13.9
X10.7Y10.524
X-3.7Y-1.475
X-12.299Y9.522
X8.5Y10.325
X6.697Y-7.472
X-2.325Y7.6
X-5.3Y0.524
X-4.5Y-2.675
X-19.67Y-11.503
X-7.0Y13.9
X-7.3Y2.5
X-9.618Y1.749
X2.125Y4.7
X-18.27Y-11.503
X-6.393Y6.771
X3.499Y-4.675
X7.7Y-10.472
X2.125Y5.3
X4.499Y-7.672
X11.2Y9.1
X5.501Y-10.676
T2
X-11.651028Y-3.273
X-11.651028Y-5.905
X-12.621028Y-3.273
X-13.591028Y-4.589
T0
M30
