M48
; #@! TF.GenerationSoftware,LibrePCB,LibrePCB,1.1.0
; #@! TF.CreationDate,2024-09-08T17:15:58
; #@! TF.ProjectId,flasher,f4b07f79-14a2-4070-9d7d-1f686dcb10c4,v1
; #@! TF.Part,Single
; #@! TF.SameCoordinates
; #@! TF.FileFunction,Plated,1,13,PTH
FMAT,2
METRIC,TZ
; #@! TA.AperFunction,ViaDrill
T1C0.2
%
G90
G05
M71
T1
X16.517Y12.042
X-11.018Y9.042
X7.017Y10.042
X11.017Y3.042
X11.018Y-10.994
X-11.018Y11.042
X10.018Y-1.994
X11.017Y12.042
X11.017Y2.042
X18.078Y-2.994
X-19.578Y12.042
X1.482Y-26.213
X-18.038Y11.042
X-14.958Y8.042
X-2.263Y-22.57
X3.018Y-14.704
X16.268Y-10.994
X14.976Y3.042
X14.977Y10.042
X11.018Y-2.994
X3.017Y14.752
X7.018Y-8.994
X6.017Y14.752
X2.018Y-8.994
X16.516Y2.042
X10.018Y-11.994
X9.017Y13.982
X11.018Y-0.994
X14.728Y-11.994
X9.017Y12.042
X-10.018Y12.042
X1.017Y14.752
X4.017Y11.042
X-11.018Y8.042
X6.017Y11.047
X7.017Y19.622
X2.017Y6.042
X-14.958Y9.042
X9.018Y-9.994
X11.017Y10.042
T0
M30
