G04 --- HEADER BEGIN --- *
G04 #@! TF.GenerationSoftware,LibrePCB,LibrePCB,1.1.0*
G04 #@! TF.CreationDate,2024-09-08T17:15:58*
G04 #@! TF.ProjectId,flasher,f4b07f79-14a2-4070-9d7d-1f686dcb10c4,v1*
G04 #@! TF.Part,Single*
G04 #@! TF.SameCoordinates*
G04 #@! TF.FileFunction,Legend,Top*
G04 #@! TF.FilePolarity,Positive*
%FSLAX66Y66*%
%MOMM*%
G01*
G75*
G04 --- HEADER END --- *
G04 --- APERTURE LIST BEGIN --- *
%ADD10C,0.1*%
%ADD11C,0.01*%
%ADD12C,0.25*%
%ADD13C,0.3*%
%ADD14C,0.2*%
%ADD15C,0.15*%
%AMOUTLINE16*4,1,42,0.09635,-0.500024,0.128987,-0.488145,0.198446,-0.448042,0.225049,-0.425719,0.276604,-0.364279,0.283205,-0.35547,0.383205,-0.20547,0.393502,-0.18546,0.432911,-0.081546,0.439328,-0.050113,0.443803,0.060933,0.439936,0.092782,0.409016,0.199531,0.395263,0.228515,0.332131,0.319978,0.309906,0.343116,0.221059,0.40988,0.192652,0.42479,0.087235,0.459983,0.055568,0.465129,-0.055568,0.465129,-0.087235,0.459983,-0.192652,0.42479,-0.221059,0.40988,-0.309906,0.343116,-0.332131,0.319978,-0.395263,0.228514,-0.409016,0.19953,-0.439936,0.092782,-0.443803,0.060933,-0.439328,-0.050113,-0.432911,-0.081546,-0.393502,-0.18546,-0.383205,-0.20547,-0.283205,-0.35547,-0.276604,-0.364279,-0.225049,-0.425719,-0.198446,-0.448042,-0.128987,-0.488145,-0.09635,-0.500024,-0.017364,-0.513951,0.017364,-0.513951,0.09635,-0.500024,45.0*%
%ADD16OUTLINE16*%
%AMOUTLINE17*4,1,42,0.09635,-0.500024,0.128987,-0.488145,0.198446,-0.448042,0.225049,-0.425719,0.276604,-0.364279,0.283205,-0.35547,0.383205,-0.20547,0.393502,-0.18546,0.432911,-0.081546,0.439328,-0.050113,0.443803,0.060933,0.439936,0.092782,0.409016,0.199531,0.395263,0.228515,0.332131,0.319978,0.309906,0.343116,0.221059,0.40988,0.192652,0.42479,0.087235,0.459983,0.055568,0.465129,-0.055568,0.465129,-0.087235,0.459983,-0.192652,0.42479,-0.221059,0.40988,-0.309906,0.343116,-0.332131,0.319978,-0.395263,0.228514,-0.409016,0.19953,-0.439936,0.092782,-0.443803,0.060933,-0.439328,-0.050113,-0.432911,-0.081546,-0.393502,-0.18546,-0.383205,-0.20547,-0.283205,-0.35547,-0.276604,-0.364279,-0.225049,-0.425719,-0.198446,-0.448042,-0.128987,-0.488145,-0.09635,-0.500024,-0.017364,-0.513951,0.017364,-0.513951,0.09635,-0.500024,135.0*%
%ADD17OUTLINE17*%
%AMOUTLINE18*4,1,42,0.09635,-0.500024,0.128987,-0.488145,0.198446,-0.448042,0.225049,-0.425719,0.276604,-0.364279,0.283205,-0.35547,0.383205,-0.20547,0.393502,-0.18546,0.432911,-0.081546,0.439328,-0.050113,0.443803,0.060933,0.439936,0.092782,0.409016,0.199531,0.395263,0.228515,0.332131,0.319978,0.309906,0.343116,0.221059,0.40988,0.192652,0.42479,0.087235,0.459983,0.055568,0.465129,-0.055568,0.465129,-0.087235,0.459983,-0.192652,0.42479,-0.221059,0.40988,-0.309906,0.343116,-0.332131,0.319978,-0.395263,0.228514,-0.409016,0.19953,-0.439936,0.092782,-0.443803,0.060933,-0.439328,-0.050113,-0.432911,-0.081546,-0.393502,-0.18546,-0.383205,-0.20547,-0.283205,-0.35547,-0.276604,-0.364279,-0.225049,-0.425719,-0.198446,-0.448042,-0.128987,-0.488145,-0.09635,-0.500024,-0.017364,-0.513951,0.017364,-0.513951,0.09635,-0.500024,315.0*%
%ADD18OUTLINE18*%
%AMOUTLINE19*4,1,42,0.09635,-0.500024,0.128987,-0.488145,0.198446,-0.448042,0.225049,-0.425719,0.276604,-0.364279,0.283205,-0.35547,0.383205,-0.20547,0.393502,-0.18546,0.432911,-0.081546,0.439328,-0.050113,0.443803,0.060933,0.439936,0.092782,0.409016,0.199531,0.395263,0.228515,0.332131,0.319978,0.309906,0.343116,0.221059,0.40988,0.192652,0.42479,0.087235,0.459983,0.055568,0.465129,-0.055568,0.465129,-0.087235,0.459983,-0.192652,0.42479,-0.221059,0.40988,-0.309906,0.343116,-0.332131,0.319978,-0.395263,0.228514,-0.409016,0.19953,-0.439936,0.092782,-0.443803,0.060933,-0.439328,-0.050113,-0.432911,-0.081546,-0.393502,-0.18546,-0.383205,-0.20547,-0.283205,-0.35547,-0.276604,-0.364279,-0.225049,-0.425719,-0.198446,-0.448042,-0.128987,-0.488145,-0.09635,-0.500024,-0.017364,-0.513951,0.017364,-0.513951,0.09635,-0.500024,225.0*%
%ADD19OUTLINE19*%
%ADD20O,2.39X1.787*%
%AMROUNDEDRECT21*20,1,1.787,-1.095,0.0,1.095,0.0,0.0*20,1,1.587,-1.195,0.0,1.195,0.0,0.0*1,1,0.2,-1.095,0.7935*1,1,0.2,1.095,0.7935*1,1,0.2,1.095,-0.7935*1,1,0.2,-1.095,-0.7935*%
%ADD21ROUNDEDRECT21*%
%AMROUNDEDRECT22*20,1,0.63,-0.3,0.0,0.3,0.0,0.0*20,1,0.43,-0.4,0.0,0.4,0.0,0.0*1,1,0.2,-0.3,0.215*1,1,0.2,0.3,0.215*1,1,0.2,0.3,-0.215*1,1,0.2,-0.3,-0.215*%
%ADD22ROUNDEDRECT22*%
%AMROUNDEDRECT23*20,1,0.4,-0.1,0.0,0.1,0.0,0.0*20,1,0.2,-0.2,0.0,0.2,0.0,0.0*1,1,0.2,-0.1,0.1*1,1,0.2,0.1,0.1*1,1,0.2,0.1,-0.1*1,1,0.2,-0.1,-0.1*%
%ADD23ROUNDEDRECT23*%
%AMROUNDEDRECT24*20,1,1.0,-0.425,0.0,0.425,0.0,90.0*20,1,0.8,-0.525,0.0,0.525,0.0,90.0*1,1,0.2,-0.4,-0.425*1,1,0.2,-0.4,0.425*1,1,0.2,0.4,0.425*1,1,0.2,0.4,-0.425*%
%ADD24ROUNDEDRECT24*%
%AMROUNDEDRECT25*20,1,0.95,-0.4,0.0,0.4,0.0,0.0*20,1,0.75,-0.5,0.0,0.5,0.0,0.0*1,1,0.2,-0.4,0.375*1,1,0.2,0.4,0.375*1,1,0.2,0.4,-0.375*1,1,0.2,-0.4,-0.375*%
%ADD25ROUNDEDRECT25*%
%ADD26O,1.787X2.39*%
%AMROUNDEDRECT27*20,1,1.787,-1.095,0.0,1.095,0.0,90.0*20,1,1.587,-1.195,0.0,1.195,0.0,90.0*1,1,0.2,-0.7935,-1.095*1,1,0.2,-0.7935,1.095*1,1,0.2,0.7935,1.095*1,1,0.2,0.7935,-1.095*%
%ADD27ROUNDEDRECT27*%
%AMROUNDEDRECT28*20,1,0.95,-0.625,0.0,0.625,0.0,90.0*20,1,0.75,-0.725,0.0,0.725,0.0,90.0*1,1,0.2,-0.375,-0.625*1,1,0.2,-0.375,0.625*1,1,0.2,0.375,0.625*1,1,0.2,0.375,-0.625*%
%ADD28ROUNDEDRECT28*%
%ADD29C,5.2*%
G04 --- APERTURE LIST END --- *
G04 --- BOARD BEGIN --- *
D10*
G04 #@! TO.C,LOGIC1*
X-13500000Y13500000D02*
X13500000Y13500000D01*
X13500000Y-13500000D01*
X-13500000Y-13500000D01*
X-13500000Y13500000D01*
D11*
G36*
X-14120000Y12590000D02*
G02*
X-14620000Y12590000I-250000J0D01*
G01*
G02*
X-14120000Y12590000I250000J0D01*
G01*
G37*
D12*
G04 #@! TO.C,J2*
X-23409000Y18435000D02*
X-23409000Y16310000D01*
X-23679000Y16040000D01*
X-23409000Y15770000D01*
X-23409000Y13770000D01*
X-23679000Y13500000D01*
X-23409000Y13230000D01*
X-23409000Y11230000D01*
X-23679000Y10960000D01*
X-23409000Y10690000D01*
X-23409000Y8690000D01*
X-23679000Y8420000D01*
X-23409000Y8150000D01*
X-23409000Y6150000D01*
X-23679000Y5880000D01*
X-23409000Y5610000D01*
X-23409000Y3610000D01*
X-23679000Y3340000D01*
X-23409000Y3070000D01*
X-23409000Y1070000D01*
X-23679000Y800000D01*
X-23409000Y530000D01*
X-23409000Y-1470000D01*
X-23679000Y-1740000D01*
X-23409000Y-2010000D01*
X-23409000Y-4010000D01*
X-23679000Y-4280000D01*
X-23409000Y-4550000D01*
X-23409000Y-6550000D01*
X-23679000Y-6820000D01*
X-23409000Y-7090000D01*
X-23409000Y-9090000D01*
X-23679000Y-9360000D01*
X-23409000Y-9630000D01*
X-23409000Y-11630000D01*
X-23679000Y-11900000D01*
X-23409000Y-12170000D01*
X-23409000Y-14170000D01*
X-23679000Y-14440000D01*
X-23409000Y-14710000D01*
X-23409000Y-16710000D01*
X-23679000Y-16980000D01*
X-23409000Y-17250000D01*
X-23409000Y-19375000D01*
X-23679000Y-19645000D01*
X-28469000Y-19645000D01*
X-28739000Y-19375000D01*
X-28739000Y-17250000D01*
X-28469000Y-16980000D01*
X-28739000Y-16710000D01*
X-28739000Y-14710000D01*
X-28469000Y-14440000D01*
X-28739000Y-14170000D01*
X-28739000Y-12170000D01*
X-28469000Y-11900000D01*
X-28739000Y-11630000D01*
X-28739000Y-9630000D01*
X-28469000Y-9360000D01*
X-28739000Y-9090000D01*
X-28739000Y-7090000D01*
X-28469000Y-6820000D01*
X-28739000Y-6550000D01*
X-28739000Y-4550000D01*
X-28469000Y-4280000D01*
X-28739000Y-4010000D01*
X-28739000Y-2010000D01*
X-28469000Y-1740000D01*
X-28739000Y-1470000D01*
X-28739000Y530000D01*
X-28469000Y800000D01*
X-28739000Y1070000D01*
X-28739000Y3070000D01*
X-28469000Y3340000D01*
X-28739000Y3610000D01*
X-28739000Y5610000D01*
X-28469000Y5880000D01*
X-28739000Y6150000D01*
X-28739000Y8150000D01*
X-28469000Y8420000D01*
X-28739000Y8690000D01*
X-28739000Y10690000D01*
X-28469000Y10960000D01*
X-28739000Y11230000D01*
X-28739000Y13230000D01*
X-28469000Y13500000D01*
X-28739000Y13770000D01*
X-28739000Y15770000D01*
X-28469000Y16040000D01*
X-28739000Y16310000D01*
X-28739000Y18435000D01*
X-28469000Y18705000D01*
X-23679000Y18705000D01*
X-23409000Y18435000D01*
D13*
G04 #@! TO.C,FLASH1*
X-5218000Y-25508000D02*
X2282000Y-25508000D01*
X2282000Y-35808000D01*
X-5218000Y-35808000D01*
X-5218000Y-25508000D01*
D11*
G04 #@! TO.C,LOGO2*
G36*
X-24197000Y35093000D02*
X-23777000Y35093000D01*
X-23777000Y34893000D01*
X-24197000Y34893000D01*
X-24197000Y35093000D01*
G37*
G36*
X-25357000Y36453000D02*
X-25157000Y36453000D01*
X-25157000Y36873000D01*
X-25357000Y36873000D01*
X-25357000Y36453000D01*
G37*
G36*
X-25757000Y36453000D02*
X-25557000Y36453000D01*
X-25557000Y36873000D01*
X-25757000Y36873000D01*
X-25757000Y36453000D01*
G37*
G36*
X-26317000Y35893000D02*
X-26737000Y35893000D01*
X-26737000Y35693000D01*
X-26317000Y35693000D01*
X-26317000Y35893000D01*
G37*
G36*
X-25357000Y34333000D02*
X-25157000Y34333000D01*
X-25157000Y33913000D01*
X-25357000Y33913000D01*
X-25357000Y34333000D01*
G37*
G36*
X-25892000Y36240000D02*
X-24622000Y36240000D01*
G02*
X-24410000Y36028000I0J-212000D01*
G01*
X-24410000Y34758000D01*
G02*
X-24622000Y34546000I-212000J0D01*
G01*
X-25892000Y34546000D01*
G02*
X-26104000Y34758000I0J212000D01*
G01*
X-26104000Y35858000D01*
X-25889000Y35858000D01*
G03*
X-25722000Y35691000I167000J0D01*
G01*
G03*
X-25555000Y35858000I0J167000D01*
G01*
G03*
X-25722000Y36025000I-167000J0D01*
G01*
G03*
X-25889000Y35858000I0J-167000D01*
G01*
X-26104000Y35858000D01*
X-26104000Y36028000D01*
G02*
X-25892000Y36240000I212000J0D01*
G01*
G37*
G36*
X-24197000Y35893000D02*
X-23777000Y35893000D01*
X-23777000Y35693000D01*
X-24197000Y35693000D01*
X-24197000Y35893000D01*
G37*
G36*
X-24957000Y36453000D02*
X-24757000Y36453000D01*
X-24757000Y36873000D01*
X-24957000Y36873000D01*
X-24957000Y36453000D01*
G37*
G36*
X-26317000Y35493000D02*
X-26737000Y35493000D01*
X-26737000Y35293000D01*
X-26317000Y35293000D01*
X-26317000Y35493000D01*
G37*
G36*
X-25757000Y34333000D02*
X-25557000Y34333000D01*
X-25557000Y33913000D01*
X-25757000Y33913000D01*
X-25757000Y34333000D01*
G37*
G36*
X-26317000Y35093000D02*
X-26737000Y35093000D01*
X-26737000Y34893000D01*
X-26317000Y34893000D01*
X-26317000Y35093000D01*
G37*
G36*
X-24957000Y34333000D02*
X-24757000Y34333000D01*
X-24757000Y33913000D01*
X-24957000Y33913000D01*
X-24957000Y34333000D01*
G37*
G36*
X-24197000Y35493000D02*
X-23777000Y35493000D01*
X-23777000Y35293000D01*
X-24197000Y35293000D01*
X-24197000Y35493000D01*
G37*
D14*
X-23157000Y35633000D02*
X-23157000Y36633000D01*
X-22823667Y35918556D01*
X-22490333Y36633000D01*
X-22490333Y35633000D01*
X-21613666Y35633000D02*
X-21613666Y36156333D01*
X-21661444Y36251889D01*
X-21757000Y36299667D01*
X-21947000Y36299667D01*
X-22042555Y36251889D01*
X-21613666Y35680778D02*
X-21709222Y35633000D01*
X-21947000Y35633000D01*
X-22042555Y35680778D01*
X-22090333Y35776333D01*
X-22090333Y35870778D01*
X-22042555Y35966333D01*
X-21947000Y36014111D01*
X-21709222Y36014111D01*
X-21613666Y36061889D01*
X-20736999Y35633000D02*
X-20736999Y36633000D01*
X-20736999Y35680778D02*
X-20832555Y35633000D01*
X-21023666Y35633000D01*
X-21118110Y35680778D01*
X-21165888Y35728556D01*
X-21213666Y35823000D01*
X-21213666Y36109667D01*
X-21165888Y36204111D01*
X-21118110Y36251889D01*
X-21023666Y36299667D01*
X-20832555Y36299667D01*
X-20736999Y36251889D01*
X-19908110Y35680778D02*
X-20003666Y35633000D01*
X-20193666Y35633000D01*
X-20289221Y35680778D01*
X-20336999Y35776333D01*
X-20336999Y36156333D01*
X-20289221Y36251889D01*
X-20193666Y36299667D01*
X-20003666Y36299667D01*
X-19908110Y36251889D01*
X-19860332Y36156333D01*
X-19860332Y36061889D01*
X-20336999Y35966333D01*
X-18660333Y36633000D02*
X-18422555Y35633000D01*
X-18231444Y36347444D01*
X-18041444Y35633000D01*
X-17803666Y36633000D01*
X-17355888Y35633000D02*
X-17355888Y36299667D01*
X-17355888Y36633000D02*
X-17403666Y36585222D01*
X-17355888Y36537444D01*
X-17308110Y36585222D01*
X-17355888Y36633000D01*
X-17355888Y36537444D01*
X-16908110Y36299667D02*
X-16526999Y36299667D01*
X-16764777Y36633000D02*
X-16764777Y35776333D01*
X-16718110Y35680778D01*
X-16622554Y35633000D01*
X-16526999Y35633000D01*
X-16126999Y35633000D02*
X-16126999Y36633000D01*
X-15698110Y35633000D02*
X-15698110Y36156333D01*
X-15745888Y36251889D01*
X-15841443Y36299667D01*
X-15983666Y36299667D01*
X-16079221Y36251889D01*
X-16126999Y36204111D01*
X-22680333Y34153000D02*
X-23157000Y34153000D01*
X-23157000Y35153000D01*
X-22232555Y34153000D02*
X-22232555Y34819667D01*
X-22232555Y35153000D02*
X-22280333Y35105222D01*
X-22232555Y35057444D01*
X-22184777Y35105222D01*
X-22232555Y35153000D01*
X-22232555Y35057444D01*
X-21784777Y34153000D02*
X-21784777Y35153000D01*
X-21784777Y34771889D02*
X-21689221Y34819667D01*
X-21499221Y34819667D01*
X-21403666Y34771889D01*
X-21355888Y34724111D01*
X-21308110Y34629667D01*
X-21308110Y34343000D01*
X-21355888Y34248556D01*
X-21403666Y34200778D01*
X-21499221Y34153000D01*
X-21689221Y34153000D01*
X-21784777Y34200778D01*
X-20908110Y34153000D02*
X-20908110Y34819667D01*
X-20908110Y34629667D02*
X-20860332Y34724111D01*
X-20812554Y34771889D01*
X-20718110Y34819667D01*
X-20622554Y34819667D01*
X-19793665Y34200778D02*
X-19889221Y34153000D01*
X-20079221Y34153000D01*
X-20174776Y34200778D01*
X-20222554Y34296333D01*
X-20222554Y34676333D01*
X-20174776Y34771889D01*
X-20079221Y34819667D01*
X-19889221Y34819667D01*
X-19793665Y34771889D01*
X-19745887Y34676333D01*
X-19745887Y34581889D01*
X-20222554Y34486333D01*
X-19345887Y34153000D02*
X-19345887Y35153000D01*
X-18964776Y35153000D01*
X-18869220Y35105222D01*
X-18822554Y35057444D01*
X-18774776Y34963000D01*
X-18774776Y34819667D01*
X-18822554Y34724111D01*
X-18869220Y34676333D01*
X-18964776Y34629667D01*
X-19345887Y34629667D01*
X-17755887Y34248556D02*
X-17803665Y34200778D01*
X-17945887Y34153000D01*
X-18041443Y34153000D01*
X-18184776Y34200778D01*
X-18279220Y34296333D01*
X-18326998Y34390778D01*
X-18374776Y34581889D01*
X-18374776Y34724111D01*
X-18326998Y34915222D01*
X-18279220Y35009667D01*
X-18184776Y35105222D01*
X-18041443Y35153000D01*
X-17945887Y35153000D01*
X-17803665Y35105222D01*
X-17755887Y35057444D01*
X-17022554Y34676333D02*
X-16879220Y34629667D01*
X-16832554Y34581889D01*
X-16784776Y34486333D01*
X-16784776Y34343000D01*
X-16832554Y34248556D01*
X-16879220Y34200778D01*
X-16974776Y34153000D01*
X-17355887Y34153000D01*
X-17355887Y35153000D01*
X-17022554Y35153000D01*
X-16926998Y35105222D01*
X-16879220Y35057444D01*
X-16832554Y34963000D01*
X-16832554Y34867444D01*
X-16879220Y34771889D01*
X-16926998Y34724111D01*
X-17022554Y34676333D01*
X-17355887Y34676333D01*
D12*
G04 #@! TO.C,J4*
X-32984000Y23926000D02*
X-30194000Y23926000D01*
X-30194000Y18596000D01*
X-32984000Y18596000D01*
X-32984000Y23926000D01*
D15*
G04 #@! TO.C,C29*
X-29167000Y21413000D02*
X-29167000Y21263000D01*
X-28217000Y21413000D02*
X-28217000Y21263000D01*
D12*
G04 #@! TO.C,J6*
X23405000Y18705000D02*
X28735000Y18705000D01*
X28735000Y-19645000D01*
X23405000Y-19645000D01*
X23405000Y18705000D01*
D10*
G04 #@! TO.C,LED1*
X-18936000Y-32972D02*
X-18936000Y1567028D01*
X-18136000Y1567028D01*
X-18136000Y-32972D01*
X-18936000Y-32972D01*
D11*
X-18836000Y1062028D02*
X-18836000Y892028D01*
X-18651000Y892028D01*
X-18651000Y572028D01*
X-18461000Y572028D01*
X-18461000Y892028D01*
X-18236000Y892028D01*
X-18236000Y1062028D01*
X-18836000Y1062028D01*
G36*
X-18836000Y1062028D02*
X-18836000Y892028D01*
X-18651000Y892028D01*
X-18651000Y572028D01*
X-18461000Y572028D01*
X-18461000Y892028D01*
X-18236000Y892028D01*
X-18236000Y1062028D01*
X-18836000Y1062028D01*
G37*
D12*
G04 #@! TO.C,J1*
X-25723000Y28735000D02*
X-23598000Y28735000D01*
X-23328000Y28465000D01*
X-23058000Y28735000D01*
X-21058000Y28735000D01*
X-20788000Y28465000D01*
X-20518000Y28735000D01*
X-18518000Y28735000D01*
X-18248000Y28465000D01*
X-17978000Y28735000D01*
X-15978000Y28735000D01*
X-15708000Y28465000D01*
X-15438000Y28735000D01*
X-13438000Y28735000D01*
X-13168000Y28465000D01*
X-12898000Y28735000D01*
X-10898000Y28735000D01*
X-10628000Y28465000D01*
X-10358000Y28735000D01*
X-8358000Y28735000D01*
X-8088000Y28465000D01*
X-7818000Y28735000D01*
X-5818000Y28735000D01*
X-5548000Y28465000D01*
X-5278000Y28735000D01*
X-3278000Y28735000D01*
X-3008000Y28465000D01*
X-2738000Y28735000D01*
X-738000Y28735000D01*
X-468000Y28465000D01*
X-198000Y28735000D01*
X1802000Y28735000D01*
X2072000Y28465000D01*
X2342000Y28735000D01*
X4342000Y28735000D01*
X4612000Y28465000D01*
X4882000Y28735000D01*
X6882000Y28735000D01*
X7152000Y28465000D01*
X7422000Y28735000D01*
X9422000Y28735000D01*
X9692000Y28465000D01*
X9962000Y28735000D01*
X11962000Y28735000D01*
X12232000Y28465000D01*
X12502000Y28735000D01*
X14502000Y28735000D01*
X14772000Y28465000D01*
X15042000Y28735000D01*
X17042000Y28735000D01*
X17312000Y28465000D01*
X17582000Y28735000D01*
X19582000Y28735000D01*
X19852000Y28465000D01*
X20122000Y28735000D01*
X22122000Y28735000D01*
X22392000Y28465000D01*
X22662000Y28735000D01*
X24662000Y28735000D01*
X24932000Y28465000D01*
X25202000Y28735000D01*
X27202000Y28735000D01*
X27472000Y28465000D01*
X27742000Y28735000D01*
X29867000Y28735000D01*
X30137000Y28465000D01*
X30137000Y23675000D01*
X29867000Y23405000D01*
X27742000Y23405000D01*
X27472000Y23675000D01*
X27202000Y23405000D01*
X25202000Y23405000D01*
X24932000Y23675000D01*
X24662000Y23405000D01*
X22662000Y23405000D01*
X22392000Y23675000D01*
X22122000Y23405000D01*
X20122000Y23405000D01*
X19852000Y23675000D01*
X19582000Y23405000D01*
X17582000Y23405000D01*
X17312000Y23675000D01*
X17042000Y23405000D01*
X15042000Y23405000D01*
X14772000Y23675000D01*
X14502000Y23405000D01*
X12502000Y23405000D01*
X12232000Y23675000D01*
X11962000Y23405000D01*
X9962000Y23405000D01*
X9692000Y23675000D01*
X9422000Y23405000D01*
X7422000Y23405000D01*
X7152000Y23675000D01*
X6882000Y23405000D01*
X4882000Y23405000D01*
X4612000Y23675000D01*
X4342000Y23405000D01*
X2342000Y23405000D01*
X2072000Y23675000D01*
X1802000Y23405000D01*
X-198000Y23405000D01*
X-468000Y23675000D01*
X-738000Y23405000D01*
X-2738000Y23405000D01*
X-3008000Y23675000D01*
X-3278000Y23405000D01*
X-5278000Y23405000D01*
X-5548000Y23675000D01*
X-5818000Y23405000D01*
X-7818000Y23405000D01*
X-8088000Y23675000D01*
X-8358000Y23405000D01*
X-10358000Y23405000D01*
X-10628000Y23675000D01*
X-10898000Y23405000D01*
X-12898000Y23405000D01*
X-13168000Y23675000D01*
X-13438000Y23405000D01*
X-15438000Y23405000D01*
X-15708000Y23675000D01*
X-15978000Y23405000D01*
X-17978000Y23405000D01*
X-18248000Y23675000D01*
X-18518000Y23405000D01*
X-20518000Y23405000D01*
X-20788000Y23675000D01*
X-21058000Y23405000D01*
X-23058000Y23405000D01*
X-23328000Y23675000D01*
X-23598000Y23405000D01*
X-25723000Y23405000D01*
X-25993000Y23675000D01*
X-25993000Y28465000D01*
X-25723000Y28735000D01*
G04 #@! TO.C,J8*
X16435000Y-16405000D02*
X16435000Y-18530000D01*
X16165000Y-18800000D01*
X16435000Y-19070000D01*
X16435000Y-21195000D01*
X16165000Y-21465000D01*
X13915000Y-21465000D01*
X13645000Y-21195000D01*
X13645000Y-19070000D01*
X13915000Y-18800000D01*
X13645000Y-18530000D01*
X13645000Y-16405000D01*
X13915000Y-16135000D01*
X16165000Y-16135000D01*
X16435000Y-16405000D01*
G04 #@! TO.C,R20*
X-17886000Y2192000D02*
X-17236000Y2192000D01*
X-17886000Y3692000D02*
X-17236000Y3692000D01*
G04 #@! TO.C,J3*
X34465000Y18435000D02*
X34465000Y16310000D01*
X34195000Y16040000D01*
X34465000Y15770000D01*
X34465000Y13770000D01*
X34195000Y13500000D01*
X34465000Y13230000D01*
X34465000Y11230000D01*
X34195000Y10960000D01*
X34465000Y10690000D01*
X34465000Y8690000D01*
X34195000Y8420000D01*
X34465000Y8150000D01*
X34465000Y6150000D01*
X34195000Y5880000D01*
X34465000Y5610000D01*
X34465000Y3610000D01*
X34195000Y3340000D01*
X34465000Y3070000D01*
X34465000Y1070000D01*
X34195000Y800000D01*
X34465000Y530000D01*
X34465000Y-1470000D01*
X34195000Y-1740000D01*
X34465000Y-2010000D01*
X34465000Y-4010000D01*
X34195000Y-4280000D01*
X34465000Y-4550000D01*
X34465000Y-6550000D01*
X34195000Y-6820000D01*
X34465000Y-7090000D01*
X34465000Y-9090000D01*
X34195000Y-9360000D01*
X34465000Y-9630000D01*
X34465000Y-11630000D01*
X34195000Y-11900000D01*
X34465000Y-12170000D01*
X34465000Y-14170000D01*
X34195000Y-14440000D01*
X34465000Y-14710000D01*
X34465000Y-16710000D01*
X34195000Y-16980000D01*
X34465000Y-17250000D01*
X34465000Y-19375000D01*
X34195000Y-19645000D01*
X29405000Y-19645000D01*
X29135000Y-19375000D01*
X29135000Y-17250000D01*
X29405000Y-16980000D01*
X29135000Y-16710000D01*
X29135000Y-14710000D01*
X29405000Y-14440000D01*
X29135000Y-14170000D01*
X29135000Y-12170000D01*
X29405000Y-11900000D01*
X29135000Y-11630000D01*
X29135000Y-9630000D01*
X29405000Y-9360000D01*
X29135000Y-9090000D01*
X29135000Y-7090000D01*
X29405000Y-6820000D01*
X29135000Y-6550000D01*
X29135000Y-4550000D01*
X29405000Y-4280000D01*
X29135000Y-4010000D01*
X29135000Y-2010000D01*
X29405000Y-1740000D01*
X29135000Y-1470000D01*
X29135000Y530000D01*
X29405000Y800000D01*
X29135000Y1070000D01*
X29135000Y3070000D01*
X29405000Y3340000D01*
X29135000Y3610000D01*
X29135000Y5610000D01*
X29405000Y5880000D01*
X29135000Y6150000D01*
X29135000Y8150000D01*
X29405000Y8420000D01*
X29135000Y8690000D01*
X29135000Y10690000D01*
X29405000Y10960000D01*
X29135000Y11230000D01*
X29135000Y13230000D01*
X29405000Y13500000D01*
X29135000Y13770000D01*
X29135000Y15770000D01*
X29405000Y16040000D01*
X29135000Y16310000D01*
X29135000Y18435000D01*
X29405000Y18705000D01*
X34195000Y18705000D01*
X34465000Y18435000D01*
G04 #@! TO.C,J5*
X-8468000Y-16335000D02*
X-6343000Y-16335000D01*
X-6073000Y-16605000D01*
X-5803000Y-16335000D01*
X-3803000Y-16335000D01*
X-3533000Y-16605000D01*
X-3263000Y-16335000D01*
X-1263000Y-16335000D01*
X-993000Y-16605000D01*
X-723000Y-16335000D01*
X1277000Y-16335000D01*
X1547000Y-16605000D01*
X1817000Y-16335000D01*
X3817000Y-16335000D01*
X4087000Y-16605000D01*
X4357000Y-16335000D01*
X6482000Y-16335000D01*
X6752000Y-16605000D01*
X6752000Y-21395000D01*
X6482000Y-21665000D01*
X4357000Y-21665000D01*
X4087000Y-21395000D01*
X3817000Y-21665000D01*
X1817000Y-21665000D01*
X1547000Y-21395000D01*
X1277000Y-21665000D01*
X-723000Y-21665000D01*
X-993000Y-21395000D01*
X-1263000Y-21665000D01*
X-3263000Y-21665000D01*
X-3533000Y-21395000D01*
X-3803000Y-21665000D01*
X-5803000Y-21665000D01*
X-6073000Y-21395000D01*
X-6343000Y-21665000D01*
X-8468000Y-21665000D01*
X-8738000Y-21395000D01*
X-8738000Y-16605000D01*
X-8468000Y-16335000D01*
D15*
G04 #@! TO.C,C96*
X-9193000Y-28133000D02*
X-9193000Y-28283000D01*
X-8243000Y-28133000D02*
X-8243000Y-28283000D01*
D14*
G04 #@! TD*
X-9500000Y-19000000D02*
X7500000Y-19000000D01*
D11*
G36*
X42500000Y17900000D02*
X43300000Y17900000D01*
X43300000Y-18900000D01*
X42600000Y-18900000D01*
X42500000Y17900000D01*
G37*
D10*
X43963334Y1570000D02*
X43963334Y2570000D01*
X44534445Y1570000D01*
X44534445Y2570000D01*
X45405556Y1570000D02*
X44834445Y1570000D01*
X45120001Y1570000D02*
X45120001Y2570000D01*
X45024445Y2426667D01*
X44930001Y2332222D01*
X44834445Y2284444D01*
X45801112Y1570000D02*
X45991112Y1570000D01*
X46086667Y1617778D01*
X46134445Y1665556D01*
X46228889Y1807778D01*
X46276667Y1998889D01*
X46276667Y2380000D01*
X46228889Y2474444D01*
X46182223Y2522222D01*
X46086667Y2570000D01*
X45895556Y2570000D01*
X45801112Y2522222D01*
X45753334Y2474444D01*
X45705556Y2380000D01*
X45705556Y2141111D01*
X45753334Y2046667D01*
X45801112Y1998889D01*
X45895556Y1951111D01*
X46086667Y1951111D01*
X46182223Y1998889D01*
X46228889Y2046667D01*
X46276667Y2141111D01*
X44510556Y-3510000D02*
X44177223Y-3033333D01*
X43939445Y-3510000D02*
X43939445Y-2510000D01*
X44320556Y-2510000D01*
X44416112Y-2557778D01*
X44462778Y-2605556D01*
X44510556Y-2700000D01*
X44510556Y-2843333D01*
X44462778Y-2938889D01*
X44416112Y-2986667D01*
X44320556Y-3033333D01*
X43939445Y-3033333D01*
X44858334Y-2605556D02*
X44906112Y-2557778D01*
X45000556Y-2510000D01*
X45239445Y-2510000D01*
X45333889Y-2557778D01*
X45381667Y-2605556D01*
X45429445Y-2700000D01*
X45429445Y-2795556D01*
X45381667Y-2938889D01*
X44810556Y-3510000D01*
X45429445Y-3510000D01*
X45967223Y-2510000D02*
X46062778Y-2510000D01*
X46158334Y-2557778D01*
X46206112Y-2605556D01*
X46252778Y-2700000D01*
X46300556Y-2891111D01*
X46300556Y-3128889D01*
X46252778Y-3320000D01*
X46206112Y-3414444D01*
X46158334Y-3462222D01*
X46062778Y-3510000D01*
X45967223Y-3510000D01*
X45872778Y-3462222D01*
X45825001Y-3414444D01*
X45777223Y-3320000D01*
X45729445Y-3128889D01*
X45729445Y-2891111D01*
X45777223Y-2700000D01*
X45825001Y-2605556D01*
X45872778Y-2557778D01*
X45967223Y-2510000D01*
X-16763556Y20643334D02*
X-16763556Y21118889D01*
X-16478000Y20547778D02*
X-17478000Y20881111D01*
X-16478000Y21214445D01*
X-16478000Y22085556D02*
X-16478000Y21514445D01*
X-16478000Y21800001D02*
X-17478000Y21800001D01*
X-17334667Y21704445D01*
X-17240222Y21610001D01*
X-17192444Y21514445D01*
X-17478000Y22385556D02*
X-17478000Y23052223D01*
X-16478000Y22623334D01*
X36843334Y14270000D02*
X36366667Y14270000D01*
X36366667Y15270000D01*
X37191112Y15174444D02*
X37238890Y15222222D01*
X37333334Y15270000D01*
X37572223Y15270000D01*
X37666667Y15222222D01*
X37714445Y15174444D01*
X37762223Y15080000D01*
X37762223Y14984444D01*
X37714445Y14841111D01*
X37143334Y14270000D01*
X37762223Y14270000D01*
X38585556Y15270000D02*
X38110001Y15270000D01*
X38062223Y14793333D01*
X38110001Y14841111D01*
X38205556Y14888889D01*
X38443334Y14888889D01*
X38538890Y14841111D01*
X38585556Y14793333D01*
X38633334Y14698889D01*
X38633334Y14460000D01*
X38585556Y14365556D01*
X38538890Y14317778D01*
X38443334Y14270000D01*
X38205556Y14270000D01*
X38110001Y14317778D01*
X38062223Y14365556D01*
X-6841333Y29182778D02*
X-6841333Y29516111D01*
X-6318000Y29659445D02*
X-6318000Y29182778D01*
X-7318000Y29182778D01*
X-7318000Y29659445D01*
X-6318000Y30530556D02*
X-6318000Y29959445D01*
X-6318000Y30245001D02*
X-7318000Y30245001D01*
X-7174667Y30149445D01*
X-7080222Y30055001D01*
X-7032444Y29959445D01*
X-7318000Y30830556D02*
X-7318000Y31497223D01*
X-6318000Y31068334D01*
X39295000Y-13384444D02*
X39770555Y-13384444D01*
X39199444Y-13670000D02*
X39532777Y-12670000D01*
X39866111Y-13670000D01*
X40299444Y-13146667D02*
X39966111Y-13146667D01*
X39966111Y-13670000D02*
X39966111Y-12670000D01*
X40442778Y-12670000D01*
X40590556Y-12765556D02*
X40638334Y-12717778D01*
X40732778Y-12670000D01*
X40971667Y-12670000D01*
X41066111Y-12717778D01*
X41113889Y-12765556D01*
X41161667Y-12860000D01*
X41161667Y-12955556D01*
X41113889Y-13098889D01*
X40542778Y-13670000D01*
X41161667Y-13670000D01*
X41738334Y-13003333D02*
X41738334Y-13670000D01*
X41499445Y-12622222D02*
X41261667Y-13336667D01*
X41880556Y-13336667D01*
X39359445Y14270000D02*
X39359445Y15270000D01*
X39930556Y14270000D02*
X39502778Y14841111D01*
X39930556Y15270000D02*
X39359445Y14698889D01*
X40278334Y15174444D02*
X40326112Y15222222D01*
X40420556Y15270000D01*
X40659445Y15270000D01*
X40753889Y15222222D01*
X40801667Y15174444D01*
X40849445Y15080000D01*
X40849445Y14984444D01*
X40801667Y14841111D01*
X40230556Y14270000D01*
X40849445Y14270000D01*
X41672778Y15270000D02*
X41197223Y15270000D01*
X41149445Y14793333D01*
X41197223Y14841111D01*
X41292778Y14888889D01*
X41530556Y14888889D01*
X41626112Y14841111D01*
X41672778Y14793333D01*
X41720556Y14698889D01*
X41720556Y14460000D01*
X41672778Y14365556D01*
X41626112Y14317778D01*
X41530556Y14270000D01*
X41292778Y14270000D01*
X41197223Y14317778D01*
X41149445Y14365556D01*
X23638667Y20928889D02*
X23685333Y21072223D01*
X23733111Y21118889D01*
X23828667Y21166667D01*
X23972000Y21166667D01*
X24066444Y21118889D01*
X24114222Y21072223D01*
X24162000Y20976667D01*
X24162000Y20595556D01*
X23162000Y20595556D01*
X23162000Y20928889D01*
X23209778Y21024445D01*
X23257556Y21072223D01*
X23352000Y21118889D01*
X23447556Y21118889D01*
X23543111Y21072223D01*
X23590889Y21024445D01*
X23638667Y20928889D01*
X23638667Y20595556D01*
X23257556Y21514445D02*
X23209778Y21562223D01*
X23162000Y21656667D01*
X23162000Y21895556D01*
X23209778Y21990000D01*
X23257556Y22037778D01*
X23352000Y22085556D01*
X23447556Y22085556D01*
X23590889Y22037778D01*
X24162000Y21466667D01*
X24162000Y22085556D01*
X23495333Y22862223D02*
X24162000Y22862223D01*
X23114222Y22623334D02*
X23828667Y22385556D01*
X23828667Y23004445D01*
X5858667Y20952778D02*
X5905333Y21096112D01*
X5953111Y21142778D01*
X6048667Y21190556D01*
X6192000Y21190556D01*
X6286444Y21142778D01*
X6334222Y21096112D01*
X6382000Y21000556D01*
X6382000Y20619445D01*
X5382000Y20619445D01*
X5382000Y20952778D01*
X5429778Y21048334D01*
X5477556Y21096112D01*
X5572000Y21142778D01*
X5667556Y21142778D01*
X5763111Y21096112D01*
X5810889Y21048334D01*
X5858667Y20952778D01*
X5858667Y20619445D01*
X5477556Y21538334D02*
X5429778Y21586112D01*
X5382000Y21680556D01*
X5382000Y21919445D01*
X5429778Y22013889D01*
X5477556Y22061667D01*
X5572000Y22109445D01*
X5667556Y22109445D01*
X5810889Y22061667D01*
X6382000Y21490556D01*
X6382000Y22109445D01*
X5382000Y22647223D02*
X5382000Y22742778D01*
X5429778Y22838334D01*
X5477556Y22886112D01*
X5572000Y22932778D01*
X5763111Y22980556D01*
X6000889Y22980556D01*
X6192000Y22932778D01*
X6286444Y22886112D01*
X6334222Y22838334D01*
X6382000Y22742778D01*
X6382000Y22647223D01*
X6334222Y22552778D01*
X6286444Y22505001D01*
X6192000Y22457223D01*
X6000889Y22409445D01*
X5763111Y22409445D01*
X5572000Y22457223D01*
X5477556Y22505001D01*
X5429778Y22552778D01*
X5382000Y22647223D01*
X1016444Y29207223D02*
X1016444Y29682778D01*
X1302000Y29111667D02*
X302000Y29445000D01*
X1302000Y29778334D01*
X397556Y30126112D02*
X349778Y30173890D01*
X302000Y30268334D01*
X302000Y30507223D01*
X349778Y30601667D01*
X397556Y30649445D01*
X492000Y30697223D01*
X587556Y30697223D01*
X730889Y30649445D01*
X1302000Y30078334D01*
X1302000Y30697223D01*
X302000Y31235001D02*
X302000Y31330556D01*
X349778Y31426112D01*
X397556Y31473890D01*
X492000Y31520556D01*
X683111Y31568334D01*
X920889Y31568334D01*
X1112000Y31520556D01*
X1206444Y31473890D01*
X1254222Y31426112D01*
X1302000Y31330556D01*
X1302000Y31235001D01*
X1254222Y31140556D01*
X1206444Y31092779D01*
X1112000Y31045001D01*
X920889Y30997223D01*
X683111Y30997223D01*
X492000Y31045001D01*
X397556Y31092779D01*
X349778Y31140556D01*
X302000Y31235001D01*
X-32541778Y-2557778D02*
X-32636222Y-2510000D01*
X-32779556Y-2510000D01*
X-32922889Y-2557778D01*
X-33017333Y-2653333D01*
X-33065111Y-2747778D01*
X-33112889Y-2938889D01*
X-33112889Y-3081111D01*
X-33065111Y-3272222D01*
X-33017333Y-3366667D01*
X-32922889Y-3462222D01*
X-32779556Y-3510000D01*
X-32684000Y-3510000D01*
X-32541778Y-3462222D01*
X-32494000Y-3414444D01*
X-32494000Y-3081111D01*
X-32684000Y-3081111D01*
X-31717333Y-2843333D02*
X-31717333Y-3510000D01*
X-31956222Y-2462222D02*
X-32194000Y-3176667D01*
X-31575111Y-3176667D01*
X8636444Y20643334D02*
X8636444Y21118889D01*
X8922000Y20547778D02*
X7922000Y20881111D01*
X8922000Y21214445D01*
X8017556Y21562223D02*
X7969778Y21610001D01*
X7922000Y21704445D01*
X7922000Y21943334D01*
X7969778Y22037778D01*
X8017556Y22085556D01*
X8112000Y22133334D01*
X8207556Y22133334D01*
X8350889Y22085556D01*
X8922000Y21514445D01*
X8922000Y22133334D01*
X8017556Y22481112D02*
X7969778Y22528890D01*
X7922000Y22623334D01*
X7922000Y22862223D01*
X7969778Y22956667D01*
X8017556Y23004445D01*
X8112000Y23052223D01*
X8207556Y23052223D01*
X8350889Y23004445D01*
X8922000Y22433334D01*
X8922000Y23052223D01*
D14*
X-13021333Y-21224166D02*
X-13093000Y-21365833D01*
X-13093000Y-21580833D01*
X-13021333Y-21795833D01*
X-12878000Y-21937500D01*
X-12736333Y-22009166D01*
X-12449667Y-22080833D01*
X-12236333Y-22080833D01*
X-11949667Y-22009166D01*
X-11808000Y-21937500D01*
X-11664667Y-21795833D01*
X-11593000Y-21580833D01*
X-11593000Y-21437500D01*
X-11664667Y-21224166D01*
X-11736333Y-21152500D01*
X-12236333Y-21152500D01*
X-12236333Y-21437500D01*
X-11593000Y-20652500D02*
X-13093000Y-20652500D01*
X-11593000Y-19795833D01*
X-13093000Y-19795833D01*
X-11593000Y-19295833D02*
X-13093000Y-19295833D01*
X-13093000Y-18939166D01*
X-13021333Y-18724166D01*
X-12878000Y-18580833D01*
X-12736333Y-18510833D01*
X-12449667Y-18439166D01*
X-12236333Y-18439166D01*
X-11949667Y-18510833D01*
X-11808000Y-18580833D01*
X-11664667Y-18724166D01*
X-11593000Y-18939166D01*
X-11593000Y-19295833D01*
D10*
X-9381333Y21023889D02*
X-9381333Y20690556D01*
X-8858000Y20690556D02*
X-9858000Y20690556D01*
X-9858000Y21167223D01*
X-8858000Y22038334D02*
X-8858000Y21467223D01*
X-8858000Y21752779D02*
X-9858000Y21752779D01*
X-9714667Y21657223D01*
X-9620222Y21562779D01*
X-9572444Y21467223D01*
X-9858000Y22861667D02*
X-9858000Y22386112D01*
X-9381333Y22338334D01*
X-9429111Y22386112D01*
X-9476889Y22481667D01*
X-9476889Y22719445D01*
X-9429111Y22815001D01*
X-9381333Y22861667D01*
X-9286889Y22909445D01*
X-9048000Y22909445D01*
X-8953556Y22861667D01*
X-8905778Y22815001D01*
X-8858000Y22719445D01*
X-8858000Y22481667D01*
X-8905778Y22386112D01*
X-8953556Y22338334D01*
D14*
X-20180000Y-24595000D02*
X-20680000Y-24595000D01*
X-20680000Y-25380000D02*
X-20680000Y-23880000D01*
X-19965000Y-23880000D01*
X-18750000Y-25380000D02*
X-19465000Y-25380000D01*
X-19465000Y-23880000D01*
X-18106667Y-24951667D02*
X-17393333Y-24951667D01*
X-18250000Y-25380000D02*
X-17750000Y-23880000D01*
X-17250000Y-25380000D01*
X-16750000Y-25308333D02*
X-16535000Y-25380000D01*
X-16178333Y-25380000D01*
X-16035000Y-25308333D01*
X-15965000Y-25236667D01*
X-15893333Y-25095000D01*
X-15893333Y-24951667D01*
X-15965000Y-24808333D01*
X-16035000Y-24736667D01*
X-16178333Y-24665000D01*
X-16465000Y-24595000D01*
X-16606667Y-24523333D01*
X-16678333Y-24451667D01*
X-16750000Y-24308333D01*
X-16750000Y-24165000D01*
X-16678333Y-24023333D01*
X-16606667Y-23951667D01*
X-16465000Y-23880000D01*
X-16106667Y-23880000D01*
X-15893333Y-23951667D01*
X-15393333Y-25380000D02*
X-15393333Y-23880000D01*
X-15393333Y-24595000D02*
X-14536666Y-24595000D01*
X-14536666Y-25380000D02*
X-14536666Y-23880000D01*
X-12936667Y-25380000D02*
X-12936667Y-23880000D01*
X-12365000Y-23880000D01*
X-12221667Y-23951667D01*
X-12151667Y-24023333D01*
X-12080000Y-24165000D01*
X-12080000Y-24380000D01*
X-12151667Y-24523333D01*
X-12221667Y-24595000D01*
X-12365000Y-24665000D01*
X-12936667Y-24665000D01*
X-11223333Y-23880000D02*
X-10936667Y-23880000D01*
X-10795000Y-23951667D01*
X-10651667Y-24095000D01*
X-10580000Y-24380000D01*
X-10580000Y-24880000D01*
X-10651667Y-25165000D01*
X-10795000Y-25308333D01*
X-10936667Y-25380000D01*
X-11223333Y-25380000D01*
X-11365000Y-25308333D01*
X-11508333Y-25165000D01*
X-11580000Y-24880000D01*
X-11580000Y-24380000D01*
X-11508333Y-24095000D01*
X-11365000Y-23951667D01*
X-11223333Y-23880000D01*
X-10080000Y-23880000D02*
X-9723333Y-25380000D01*
X-9436667Y-24308333D01*
X-9151667Y-25380000D01*
X-8795000Y-23880000D01*
X-8295000Y-24595000D02*
X-7795000Y-24595000D01*
X-7580000Y-25380000D02*
X-8295000Y-25380000D01*
X-8295000Y-23880000D01*
X-7580000Y-23880000D01*
X-6223333Y-25380000D02*
X-6723333Y-24665000D01*
X-7080000Y-25380000D02*
X-7080000Y-23880000D01*
X-6508333Y-23880000D01*
X-6365000Y-23951667D01*
X-6295000Y-24023333D01*
X-6223333Y-24165000D01*
X-6223333Y-24380000D01*
X-6295000Y-24523333D01*
X-6365000Y-24595000D01*
X-6508333Y-24665000D01*
X-7080000Y-24665000D01*
D10*
X47550556Y1570000D02*
X47217223Y2046667D01*
X46979445Y1570000D02*
X46979445Y2570000D01*
X47360556Y2570000D01*
X47456112Y2522222D01*
X47502778Y2474444D01*
X47550556Y2380000D01*
X47550556Y2236667D01*
X47502778Y2141111D01*
X47456112Y2093333D01*
X47360556Y2046667D01*
X46979445Y2046667D01*
X47898334Y2474444D02*
X47946112Y2522222D01*
X48040556Y2570000D01*
X48279445Y2570000D01*
X48373889Y2522222D01*
X48421667Y2474444D01*
X48469445Y2380000D01*
X48469445Y2284444D01*
X48421667Y2141111D01*
X47850556Y1570000D01*
X48469445Y1570000D01*
X49292778Y2570000D02*
X48817223Y2570000D01*
X48769445Y2093333D01*
X48817223Y2141111D01*
X48912778Y2188889D01*
X49150556Y2188889D01*
X49246112Y2141111D01*
X49292778Y2093333D01*
X49340556Y1998889D01*
X49340556Y1760000D01*
X49292778Y1665556D01*
X49246112Y1617778D01*
X49150556Y1570000D01*
X48912778Y1570000D01*
X48817223Y1617778D01*
X48769445Y1665556D01*
X36207778Y-3224444D02*
X36683333Y-3224444D01*
X36112222Y-3510000D02*
X36445555Y-2510000D01*
X36778889Y-3510000D01*
X36878889Y-3510000D02*
X36878889Y-2510000D01*
X37116667Y-2510000D01*
X37260000Y-2557778D01*
X37355556Y-2653333D01*
X37402222Y-2747778D01*
X37450000Y-2938889D01*
X37450000Y-3081111D01*
X37402222Y-3272222D01*
X37355556Y-3366667D01*
X37260000Y-3462222D01*
X37116667Y-3510000D01*
X36878889Y-3510000D01*
X37597778Y-2605556D02*
X37645556Y-2557778D01*
X37740000Y-2510000D01*
X37978889Y-2510000D01*
X38073333Y-2557778D01*
X38121111Y-2605556D01*
X38168889Y-2700000D01*
X38168889Y-2795556D01*
X38121111Y-2938889D01*
X37550000Y-3510000D01*
X38168889Y-3510000D01*
X38745556Y-2843333D02*
X38745556Y-3510000D01*
X38506667Y-2462222D02*
X38268889Y-3176667D01*
X38887778Y-3176667D01*
X-22081333Y29468889D02*
X-22034667Y29612223D01*
X-21986889Y29658889D01*
X-21891333Y29706667D01*
X-21748000Y29706667D01*
X-21653556Y29658889D01*
X-21605778Y29612223D01*
X-21558000Y29516667D01*
X-21558000Y29135556D01*
X-22558000Y29135556D01*
X-22558000Y29468889D01*
X-22510222Y29564445D01*
X-22462444Y29612223D01*
X-22368000Y29658889D01*
X-22272444Y29658889D01*
X-22176889Y29612223D01*
X-22129111Y29564445D01*
X-22081333Y29468889D01*
X-22081333Y29135556D01*
X-21558000Y30577778D02*
X-21558000Y30006667D01*
X-21558000Y30292223D02*
X-22558000Y30292223D01*
X-22414667Y30196667D01*
X-22320222Y30102223D01*
X-22272444Y30006667D01*
X-22558000Y30877778D02*
X-22558000Y31544445D01*
X-21558000Y31115556D01*
X-11921333Y29516667D02*
X-11874667Y29660001D01*
X-11826889Y29706667D01*
X-11731333Y29754445D01*
X-11588000Y29754445D01*
X-11493556Y29706667D01*
X-11445778Y29660001D01*
X-11398000Y29564445D01*
X-11398000Y29183334D01*
X-12398000Y29183334D01*
X-12398000Y29516667D01*
X-12350222Y29612223D01*
X-12302444Y29660001D01*
X-12208000Y29706667D01*
X-12112444Y29706667D01*
X-12016889Y29660001D01*
X-11969111Y29612223D01*
X-11921333Y29516667D01*
X-11921333Y29183334D01*
X-11398000Y30625556D02*
X-11398000Y30054445D01*
X-11398000Y30340001D02*
X-12398000Y30340001D01*
X-12254667Y30244445D01*
X-12160222Y30150001D01*
X-12112444Y30054445D01*
X-11398000Y31021112D02*
X-11398000Y31211112D01*
X-11445778Y31306667D01*
X-11493556Y31354445D01*
X-11635778Y31448889D01*
X-11826889Y31496667D01*
X-12208000Y31496667D01*
X-12302444Y31448889D01*
X-12350222Y31402223D01*
X-12398000Y31306667D01*
X-12398000Y31115556D01*
X-12350222Y31021112D01*
X-12302444Y30973334D01*
X-12208000Y30925556D01*
X-11969111Y30925556D01*
X-11874667Y30973334D01*
X-11826889Y31021112D01*
X-11779111Y31115556D01*
X-11779111Y31306667D01*
X-11826889Y31402223D01*
X-11874667Y31448889D01*
X-11969111Y31496667D01*
D14*
X16738334Y-18808333D02*
X17881667Y-18808333D01*
X17310001Y-19380000D02*
X17310001Y-18236667D01*
X18381667Y-17880000D02*
X19310000Y-17880000D01*
X18810000Y-18451667D01*
X19025000Y-18451667D01*
X19166667Y-18523333D01*
X19238334Y-18595000D01*
X19310000Y-18736667D01*
X19310000Y-19095000D01*
X19238334Y-19236667D01*
X19166667Y-19308333D01*
X19025000Y-19380000D01*
X18596667Y-19380000D01*
X18453334Y-19308333D01*
X18381667Y-19236667D01*
X19881667Y-19236667D02*
X19953333Y-19308333D01*
X19881667Y-19380000D01*
X19810000Y-19308333D01*
X19881667Y-19236667D01*
X19881667Y-19380000D01*
X20453333Y-17880000D02*
X21381666Y-17880000D01*
X20881666Y-18451667D01*
X21096666Y-18451667D01*
X21238333Y-18523333D01*
X21310000Y-18595000D01*
X21381666Y-18736667D01*
X21381666Y-19095000D01*
X21310000Y-19236667D01*
X21238333Y-19308333D01*
X21096666Y-19380000D01*
X20668333Y-19380000D01*
X20525000Y-19308333D01*
X20453333Y-19236667D01*
X21881666Y-17880000D02*
X22381666Y-19380000D01*
X22881666Y-17880000D01*
D10*
X-19113556Y21190556D02*
X-19065778Y21142778D01*
X-19018000Y21000556D01*
X-19018000Y20905000D01*
X-19065778Y20761667D01*
X-19161333Y20667223D01*
X-19255778Y20619445D01*
X-19446889Y20571667D01*
X-19589111Y20571667D01*
X-19780222Y20619445D01*
X-19874667Y20667223D01*
X-19970222Y20761667D01*
X-20018000Y20905000D01*
X-20018000Y21000556D01*
X-19970222Y21142778D01*
X-19922444Y21190556D01*
X-19018000Y22061667D02*
X-19018000Y21490556D01*
X-19018000Y21776112D02*
X-20018000Y21776112D01*
X-19874667Y21680556D01*
X-19780222Y21586112D01*
X-19732444Y21490556D01*
X-20018000Y22361667D02*
X-20018000Y23028334D01*
X-19018000Y22599445D01*
X39295000Y-15924444D02*
X39770555Y-15924444D01*
X39199444Y-16210000D02*
X39532777Y-15210000D01*
X39866111Y-16210000D01*
X40299444Y-15686667D02*
X39966111Y-15686667D01*
X39966111Y-16210000D02*
X39966111Y-15210000D01*
X40442778Y-15210000D01*
X40590556Y-15305556D02*
X40638334Y-15257778D01*
X40732778Y-15210000D01*
X40971667Y-15210000D01*
X41066111Y-15257778D01*
X41113889Y-15305556D01*
X41161667Y-15400000D01*
X41161667Y-15495556D01*
X41113889Y-15638889D01*
X40542778Y-16210000D01*
X41161667Y-16210000D01*
X41309445Y-15305556D02*
X41357223Y-15257778D01*
X41451667Y-15210000D01*
X41690556Y-15210000D01*
X41785000Y-15257778D01*
X41832778Y-15305556D01*
X41880556Y-15400000D01*
X41880556Y-15495556D01*
X41832778Y-15638889D01*
X41261667Y-16210000D01*
X41880556Y-16210000D01*
X44486667Y4110000D02*
X44153334Y4586667D01*
X43915556Y4110000D02*
X43915556Y5110000D01*
X44296667Y5110000D01*
X44392223Y5062222D01*
X44438889Y5014444D01*
X44486667Y4920000D01*
X44486667Y4776667D01*
X44438889Y4681111D01*
X44392223Y4633333D01*
X44296667Y4586667D01*
X43915556Y4586667D01*
X44834445Y5014444D02*
X44882223Y5062222D01*
X44976667Y5110000D01*
X45215556Y5110000D01*
X45310000Y5062222D01*
X45357778Y5014444D01*
X45405556Y4920000D01*
X45405556Y4824444D01*
X45357778Y4681111D01*
X44786667Y4110000D01*
X45405556Y4110000D01*
X45705556Y5110000D02*
X46324445Y5110000D01*
X45991112Y4728889D01*
X46134445Y4728889D01*
X46228889Y4681111D01*
X46276667Y4633333D01*
X46324445Y4538889D01*
X46324445Y4300000D01*
X46276667Y4205556D01*
X46228889Y4157778D01*
X46134445Y4110000D01*
X45848889Y4110000D01*
X45753334Y4157778D01*
X45705556Y4205556D01*
X43963334Y-6050000D02*
X43963334Y-5050000D01*
X44534445Y-6050000D01*
X44534445Y-5050000D01*
X45405556Y-6050000D02*
X44834445Y-6050000D01*
X45120001Y-6050000D02*
X45120001Y-5050000D01*
X45024445Y-5193333D01*
X44930001Y-5287778D01*
X44834445Y-5335556D01*
X45895556Y-5478889D02*
X45801112Y-5431111D01*
X45753334Y-5383333D01*
X45705556Y-5287778D01*
X45705556Y-5240000D01*
X45753334Y-5145556D01*
X45801112Y-5097778D01*
X45895556Y-5050000D01*
X46086667Y-5050000D01*
X46182223Y-5097778D01*
X46228889Y-5145556D01*
X46276667Y-5240000D01*
X46276667Y-5287778D01*
X46228889Y-5383333D01*
X46182223Y-5431111D01*
X46086667Y-5478889D01*
X45895556Y-5478889D01*
X45801112Y-5526667D01*
X45753334Y-5573333D01*
X45705556Y-5668889D01*
X45705556Y-5860000D01*
X45753334Y-5954444D01*
X45801112Y-6002222D01*
X45895556Y-6050000D01*
X46086667Y-6050000D01*
X46182223Y-6002222D01*
X46228889Y-5954444D01*
X46276667Y-5860000D01*
X46276667Y-5668889D01*
X46228889Y-5573333D01*
X46182223Y-5526667D01*
X46086667Y-5478889D01*
X-30755667Y12253333D02*
X-30612333Y12206667D01*
X-30565667Y12158889D01*
X-30517889Y12063333D01*
X-30517889Y11920000D01*
X-30565667Y11825556D01*
X-30612333Y11777778D01*
X-30707889Y11730000D01*
X-31089000Y11730000D01*
X-31089000Y12730000D01*
X-30755667Y12730000D01*
X-30660111Y12682222D01*
X-30612333Y12634444D01*
X-30565667Y12540000D01*
X-30565667Y12444444D01*
X-30612333Y12348889D01*
X-30660111Y12301111D01*
X-30755667Y12253333D01*
X-31089000Y12253333D01*
X-29741222Y12396667D02*
X-29741222Y11730000D01*
X-29980111Y12777778D02*
X-30217889Y12063333D01*
X-29599000Y12063333D01*
X11176444Y20643334D02*
X11176444Y21118889D01*
X11462000Y20547778D02*
X10462000Y20881111D01*
X11462000Y21214445D01*
X10557556Y21562223D02*
X10509778Y21610001D01*
X10462000Y21704445D01*
X10462000Y21943334D01*
X10509778Y22037778D01*
X10557556Y22085556D01*
X10652000Y22133334D01*
X10747556Y22133334D01*
X10890889Y22085556D01*
X11462000Y21514445D01*
X11462000Y22133334D01*
X10795333Y22910001D02*
X11462000Y22910001D01*
X10414222Y22671112D02*
X11128667Y22433334D01*
X11128667Y23052223D01*
X-30494000Y-3414444D02*
X-30541778Y-3462222D01*
X-30684000Y-3510000D01*
X-30779556Y-3510000D01*
X-30922889Y-3462222D01*
X-31017333Y-3366667D01*
X-31065111Y-3272222D01*
X-31112889Y-3081111D01*
X-31112889Y-2938889D01*
X-31065111Y-2747778D01*
X-31017333Y-2653333D01*
X-30922889Y-2557778D01*
X-30779556Y-2510000D01*
X-30684000Y-2510000D01*
X-30541778Y-2557778D01*
X-30494000Y-2605556D01*
X-30146222Y-2605556D02*
X-30098444Y-2557778D01*
X-30004000Y-2510000D01*
X-29765111Y-2510000D01*
X-29670667Y-2557778D01*
X-29622889Y-2605556D01*
X-29575111Y-2700000D01*
X-29575111Y-2795556D01*
X-29622889Y-2938889D01*
X-30194000Y-3510000D01*
X-29575111Y-3510000D01*
D14*
X-31171665Y-23150000D02*
X-32028332Y-23150000D01*
X-31599999Y-23150000D02*
X-31599999Y-21650000D01*
X-31743332Y-21865000D01*
X-31884999Y-22006667D01*
X-32028332Y-22078333D01*
X-30671665Y-21650000D02*
X-30171665Y-23150000D01*
X-29671665Y-21650000D01*
X-28886665Y-22293333D02*
X-29028332Y-22221667D01*
X-29099998Y-22150000D01*
X-29171665Y-22006667D01*
X-29171665Y-21935000D01*
X-29099998Y-21793333D01*
X-29028332Y-21721667D01*
X-28886665Y-21650000D01*
X-28599998Y-21650000D01*
X-28456665Y-21721667D01*
X-28386665Y-21793333D01*
X-28314998Y-21935000D01*
X-28314998Y-22006667D01*
X-28386665Y-22150000D01*
X-28456665Y-22221667D01*
X-28599998Y-22293333D01*
X-28886665Y-22293333D01*
X-29028332Y-22365000D01*
X-29099998Y-22435000D01*
X-29171665Y-22578333D01*
X-29171665Y-22865000D01*
X-29099998Y-23006667D01*
X-29028332Y-23078333D01*
X-28886665Y-23150000D01*
X-28599998Y-23150000D01*
X-28456665Y-23078333D01*
X-28386665Y-23006667D01*
X-28314998Y-22865000D01*
X-28314998Y-22578333D01*
X-28386665Y-22435000D01*
X-28456665Y-22365000D01*
X-28599998Y-22293333D01*
X-26714999Y-23150000D02*
X-26714999Y-21650000D01*
X-24929999Y-21578333D02*
X-26214999Y-23506667D01*
X-24073332Y-21650000D02*
X-23786666Y-21650000D01*
X-23644999Y-21721667D01*
X-23501666Y-21865000D01*
X-23429999Y-22150000D01*
X-23429999Y-22650000D01*
X-23501666Y-22935000D01*
X-23644999Y-23078333D01*
X-23786666Y-23150000D01*
X-24073332Y-23150000D01*
X-24214999Y-23078333D01*
X-24358332Y-22935000D01*
X-24429999Y-22650000D01*
X-24429999Y-22150000D01*
X-24358332Y-21865000D01*
X-24214999Y-21721667D01*
X-24073332Y-21650000D01*
D10*
X46931667Y14270000D02*
X46931667Y15270000D01*
X47265000Y14555556D01*
X47598334Y15270000D01*
X47598334Y14270000D01*
X47946112Y15174444D02*
X47993890Y15222222D01*
X48088334Y15270000D01*
X48327223Y15270000D01*
X48421667Y15222222D01*
X48469445Y15174444D01*
X48517223Y15080000D01*
X48517223Y14984444D01*
X48469445Y14841111D01*
X47898334Y14270000D01*
X48517223Y14270000D01*
X49055001Y15270000D02*
X49150556Y15270000D01*
X49246112Y15222222D01*
X49293890Y15174444D01*
X49340556Y15080000D01*
X49388334Y14888889D01*
X49388334Y14651111D01*
X49340556Y14460000D01*
X49293890Y14365556D01*
X49246112Y14317778D01*
X49150556Y14270000D01*
X49055001Y14270000D01*
X48960556Y14317778D01*
X48912779Y14365556D01*
X48865001Y14460000D01*
X48817223Y14651111D01*
X48817223Y14888889D01*
X48865001Y15080000D01*
X48912779Y15174444D01*
X48960556Y15222222D01*
X49055001Y15270000D01*
X-33017889Y-10606667D02*
X-32684556Y-10606667D01*
X-32541222Y-11130000D02*
X-33017889Y-11130000D01*
X-33017889Y-10130000D01*
X-32541222Y-10130000D01*
X-31670111Y-11130000D02*
X-32241222Y-11130000D01*
X-31955666Y-11130000D02*
X-31955666Y-10130000D01*
X-32051222Y-10273333D01*
X-32145666Y-10367778D01*
X-32241222Y-10415556D01*
X39295000Y-8304444D02*
X39770555Y-8304444D01*
X39199444Y-8590000D02*
X39532777Y-7590000D01*
X39866111Y-8590000D01*
X39966111Y-8066667D02*
X40299444Y-8066667D01*
X40442778Y-8590000D02*
X39966111Y-8590000D01*
X39966111Y-7590000D01*
X40442778Y-7590000D01*
X40590556Y-7685556D02*
X40638334Y-7637778D01*
X40732778Y-7590000D01*
X40971667Y-7590000D01*
X41066111Y-7637778D01*
X41113889Y-7685556D01*
X41161667Y-7780000D01*
X41161667Y-7875556D01*
X41113889Y-8018889D01*
X40542778Y-8590000D01*
X41161667Y-8590000D01*
X41309445Y-7685556D02*
X41357223Y-7637778D01*
X41451667Y-7590000D01*
X41690556Y-7590000D01*
X41785000Y-7637778D01*
X41832778Y-7685556D01*
X41880556Y-7780000D01*
X41880556Y-7875556D01*
X41832778Y-8018889D01*
X41261667Y-8590000D01*
X41880556Y-8590000D01*
X-16763556Y29231112D02*
X-16763556Y29706667D01*
X-16478000Y29135556D02*
X-17478000Y29468889D01*
X-16478000Y29802223D01*
X-16478000Y30673334D02*
X-16478000Y30102223D01*
X-16478000Y30387779D02*
X-17478000Y30387779D01*
X-17334667Y30292223D01*
X-17240222Y30197779D01*
X-17192444Y30102223D01*
X-17049111Y31163334D02*
X-17096889Y31068890D01*
X-17144667Y31021112D01*
X-17240222Y30973334D01*
X-17288000Y30973334D01*
X-17382444Y31021112D01*
X-17430222Y31068890D01*
X-17478000Y31163334D01*
X-17478000Y31354445D01*
X-17430222Y31450001D01*
X-17382444Y31496667D01*
X-17288000Y31544445D01*
X-17240222Y31544445D01*
X-17144667Y31496667D01*
X-17096889Y31450001D01*
X-17049111Y31354445D01*
X-17049111Y31163334D01*
X-17001333Y31068890D01*
X-16954667Y31021112D01*
X-16859111Y30973334D01*
X-16668000Y30973334D01*
X-16573556Y31021112D01*
X-16525778Y31068890D01*
X-16478000Y31163334D01*
X-16478000Y31354445D01*
X-16525778Y31450001D01*
X-16573556Y31496667D01*
X-16668000Y31544445D01*
X-16859111Y31544445D01*
X-16954667Y31496667D01*
X-17001333Y31450001D01*
X-17049111Y31354445D01*
X-30494000Y6745556D02*
X-30541778Y6697778D01*
X-30684000Y6650000D01*
X-30779556Y6650000D01*
X-30922889Y6697778D01*
X-31017333Y6793333D01*
X-31065111Y6887778D01*
X-31112889Y7078889D01*
X-31112889Y7221111D01*
X-31065111Y7412222D01*
X-31017333Y7506667D01*
X-30922889Y7602222D01*
X-30779556Y7650000D01*
X-30684000Y7650000D01*
X-30541778Y7602222D01*
X-30494000Y7554444D01*
X-29717333Y7316667D02*
X-29717333Y6650000D01*
X-29956222Y7697778D02*
X-30194000Y6983333D01*
X-29575111Y6983333D01*
X46836667Y-16210000D02*
X46836667Y-15210000D01*
X47407778Y-16210000D01*
X47407778Y-15210000D01*
X48564445Y-15162222D02*
X47707778Y-16447778D01*
X49483334Y-16114444D02*
X49435556Y-16162222D01*
X49293334Y-16210000D01*
X49197778Y-16210000D01*
X49054445Y-16162222D01*
X48960001Y-16066667D01*
X48912223Y-15972222D01*
X48864445Y-15781111D01*
X48864445Y-15638889D01*
X48912223Y-15447778D01*
X48960001Y-15353333D01*
X49054445Y-15257778D01*
X49197778Y-15210000D01*
X49293334Y-15210000D01*
X49435556Y-15257778D01*
X49483334Y-15305556D01*
X46915556Y-10844444D02*
X47391111Y-10844444D01*
X46820000Y-11130000D02*
X47153333Y-10130000D01*
X47486667Y-11130000D01*
X47920000Y-10606667D02*
X48063334Y-10653333D01*
X48110000Y-10701111D01*
X48157778Y-10796667D01*
X48157778Y-10940000D01*
X48110000Y-11034444D01*
X48063334Y-11082222D01*
X47967778Y-11130000D01*
X47586667Y-11130000D01*
X47586667Y-10130000D01*
X47920000Y-10130000D01*
X48015556Y-10177778D01*
X48063334Y-10225556D01*
X48110000Y-10320000D01*
X48110000Y-10415556D01*
X48063334Y-10511111D01*
X48015556Y-10558889D01*
X47920000Y-10606667D01*
X47586667Y-10606667D01*
X48828889Y-11130000D02*
X48257778Y-11130000D01*
X48543334Y-11130000D02*
X48543334Y-10130000D01*
X48447778Y-10273333D01*
X48353334Y-10367778D01*
X48257778Y-10415556D01*
X49024445Y-11130000D02*
X49214445Y-11130000D01*
X49310000Y-11082222D01*
X49357778Y-11034444D01*
X49452222Y-10892222D01*
X49500000Y-10701111D01*
X49500000Y-10320000D01*
X49452222Y-10225556D01*
X49405556Y-10177778D01*
X49310000Y-10130000D01*
X49118889Y-10130000D01*
X49024445Y-10177778D01*
X48976667Y-10225556D01*
X48928889Y-10320000D01*
X48928889Y-10558889D01*
X48976667Y-10653333D01*
X49024445Y-10701111D01*
X49118889Y-10748889D01*
X49310000Y-10748889D01*
X49405556Y-10701111D01*
X49452222Y-10653333D01*
X49500000Y-10558889D01*
X36271667Y9190000D02*
X36271667Y10190000D01*
X36605000Y9475556D01*
X36938334Y10190000D01*
X36938334Y9190000D01*
X37286112Y10094444D02*
X37333890Y10142222D01*
X37428334Y10190000D01*
X37667223Y10190000D01*
X37761667Y10142222D01*
X37809445Y10094444D01*
X37857223Y10000000D01*
X37857223Y9904444D01*
X37809445Y9761111D01*
X37238334Y9190000D01*
X37857223Y9190000D01*
X38680556Y10190000D02*
X38205001Y10190000D01*
X38157223Y9713333D01*
X38205001Y9761111D01*
X38300556Y9808889D01*
X38538334Y9808889D01*
X38633890Y9761111D01*
X38680556Y9713333D01*
X38728334Y9618889D01*
X38728334Y9380000D01*
X38680556Y9285556D01*
X38633890Y9237778D01*
X38538334Y9190000D01*
X38300556Y9190000D01*
X38205001Y9237778D01*
X38157223Y9285556D01*
X36278889Y-15924444D02*
X36754444Y-15924444D01*
X36183333Y-16210000D02*
X36516666Y-15210000D01*
X36850000Y-16210000D01*
X37283333Y-15686667D02*
X36950000Y-15686667D01*
X36950000Y-16210000D02*
X36950000Y-15210000D01*
X37426667Y-15210000D01*
X37574445Y-15305556D02*
X37622223Y-15257778D01*
X37716667Y-15210000D01*
X37955556Y-15210000D01*
X38050000Y-15257778D01*
X38097778Y-15305556D01*
X38145556Y-15400000D01*
X38145556Y-15495556D01*
X38097778Y-15638889D01*
X37526667Y-16210000D01*
X38145556Y-16210000D01*
X38483334Y-15210000D02*
X38578889Y-15210000D01*
X38674445Y-15257778D01*
X38722223Y-15305556D01*
X38768889Y-15400000D01*
X38816667Y-15591111D01*
X38816667Y-15828889D01*
X38768889Y-16020000D01*
X38722223Y-16114444D01*
X38674445Y-16162222D01*
X38578889Y-16210000D01*
X38483334Y-16210000D01*
X38388889Y-16162222D01*
X38341112Y-16114444D01*
X38293334Y-16020000D01*
X38245556Y-15828889D01*
X38245556Y-15591111D01*
X38293334Y-15400000D01*
X38341112Y-15305556D01*
X38388889Y-15257778D01*
X38483334Y-15210000D01*
X43891667Y14270000D02*
X43891667Y15270000D01*
X44225000Y14555556D01*
X44558334Y15270000D01*
X44558334Y14270000D01*
X44906112Y15174444D02*
X44953890Y15222222D01*
X45048334Y15270000D01*
X45287223Y15270000D01*
X45381667Y15222222D01*
X45429445Y15174444D01*
X45477223Y15080000D01*
X45477223Y14984444D01*
X45429445Y14841111D01*
X44858334Y14270000D01*
X45477223Y14270000D01*
X46348334Y14270000D02*
X45777223Y14270000D01*
X46062779Y14270000D02*
X46062779Y15270000D01*
X45967223Y15126667D01*
X45872779Y15032222D01*
X45777223Y14984444D01*
X-32470111Y-8494444D02*
X-32517889Y-8542222D01*
X-32660111Y-8590000D01*
X-32755667Y-8590000D01*
X-32899000Y-8542222D01*
X-32993444Y-8446667D01*
X-33041222Y-8352222D01*
X-33089000Y-8161111D01*
X-33089000Y-8018889D01*
X-33041222Y-7827778D01*
X-32993444Y-7733333D01*
X-32899000Y-7637778D01*
X-32755667Y-7590000D01*
X-32660111Y-7590000D01*
X-32517889Y-7637778D01*
X-32470111Y-7685556D01*
X-31599000Y-8590000D02*
X-32170111Y-8590000D01*
X-31884555Y-8590000D02*
X-31884555Y-7590000D01*
X-31980111Y-7733333D01*
X-32074555Y-7827778D01*
X-32170111Y-7875556D01*
X-33017333Y17095556D02*
X-32541778Y17095556D01*
X-33112889Y16810000D02*
X-32779556Y17810000D01*
X-32446222Y16810000D01*
X-31622889Y17810000D02*
X-32098444Y17810000D01*
X-32146222Y17333333D01*
X-32098444Y17381111D01*
X-32002889Y17428889D01*
X-31765111Y17428889D01*
X-31669555Y17381111D01*
X-31622889Y17333333D01*
X-31575111Y17238889D01*
X-31575111Y17000000D01*
X-31622889Y16905556D01*
X-31669555Y16857778D01*
X-31765111Y16810000D01*
X-32002889Y16810000D01*
X-32098444Y16857778D01*
X-32146222Y16905556D01*
X39359445Y9190000D02*
X39359445Y10190000D01*
X39930556Y9190000D01*
X39930556Y10190000D01*
X40278334Y10094444D02*
X40326112Y10142222D01*
X40420556Y10190000D01*
X40659445Y10190000D01*
X40753889Y10142222D01*
X40801667Y10094444D01*
X40849445Y10000000D01*
X40849445Y9904444D01*
X40801667Y9761111D01*
X40230556Y9190000D01*
X40849445Y9190000D01*
X41626112Y10190000D02*
X41435001Y10190000D01*
X41339445Y10142222D01*
X41292778Y10094444D01*
X41197223Y9952222D01*
X41149445Y9761111D01*
X41149445Y9380000D01*
X41197223Y9285556D01*
X41245001Y9237778D01*
X41339445Y9190000D01*
X41530556Y9190000D01*
X41626112Y9237778D01*
X41672778Y9285556D01*
X41720556Y9380000D01*
X41720556Y9618889D01*
X41672778Y9713333D01*
X41626112Y9761111D01*
X41530556Y9808889D01*
X41339445Y9808889D01*
X41245001Y9761111D01*
X41197223Y9713333D01*
X41149445Y9618889D01*
D14*
X-35000000Y25000000D02*
X-35000000Y26500000D01*
X-34428333Y26500000D01*
X-34285000Y26428333D01*
X-34215000Y26356667D01*
X-34143333Y26215000D01*
X-34143333Y26000000D01*
X-34215000Y25856667D01*
X-34285000Y25785000D01*
X-34428333Y25715000D01*
X-35000000Y25715000D01*
X-33286666Y26500000D02*
X-33000000Y26500000D01*
X-32858333Y26428333D01*
X-32715000Y26285000D01*
X-32643333Y26000000D01*
X-32643333Y25500000D01*
X-32715000Y25215000D01*
X-32858333Y25071667D01*
X-33000000Y25000000D01*
X-33286666Y25000000D01*
X-33428333Y25071667D01*
X-33571666Y25215000D01*
X-33643333Y25500000D01*
X-33643333Y26000000D01*
X-33571666Y26285000D01*
X-33428333Y26428333D01*
X-33286666Y26500000D01*
X-32143333Y26500000D02*
X-31786666Y25000000D01*
X-31500000Y26071667D01*
X-31215000Y25000000D01*
X-30858333Y26500000D01*
X-30358333Y25785000D02*
X-29858333Y25785000D01*
X-29643333Y25000000D02*
X-30358333Y25000000D01*
X-30358333Y26500000D01*
X-29643333Y26500000D01*
X-28286666Y25000000D02*
X-28786666Y25715000D01*
X-29143333Y25000000D02*
X-29143333Y26500000D01*
X-28571666Y26500000D01*
X-28428333Y26428333D01*
X-28358333Y26356667D01*
X-28286666Y26215000D01*
X-28286666Y26000000D01*
X-28358333Y25856667D01*
X-28428333Y25785000D01*
X-28571666Y25715000D01*
X-29143333Y25715000D01*
D10*
X36255000Y-8304444D02*
X36730555Y-8304444D01*
X36159444Y-8590000D02*
X36492777Y-7590000D01*
X36826111Y-8590000D01*
X36926111Y-8066667D02*
X37259444Y-8066667D01*
X37402778Y-8590000D02*
X36926111Y-8590000D01*
X36926111Y-7590000D01*
X37402778Y-7590000D01*
X37550556Y-7685556D02*
X37598334Y-7637778D01*
X37692778Y-7590000D01*
X37931667Y-7590000D01*
X38026111Y-7637778D01*
X38073889Y-7685556D01*
X38121667Y-7780000D01*
X38121667Y-7875556D01*
X38073889Y-8018889D01*
X37502778Y-8590000D01*
X38121667Y-8590000D01*
X38221667Y-7590000D02*
X38840556Y-7590000D01*
X38507223Y-7971111D01*
X38650556Y-7971111D01*
X38745000Y-8018889D01*
X38792778Y-8066667D01*
X38840556Y-8161111D01*
X38840556Y-8400000D01*
X38792778Y-8494444D01*
X38745000Y-8542222D01*
X38650556Y-8590000D01*
X38365000Y-8590000D01*
X38269445Y-8542222D01*
X38221667Y-8494444D01*
X18558667Y29492778D02*
X18605333Y29636112D01*
X18653111Y29682778D01*
X18748667Y29730556D01*
X18892000Y29730556D01*
X18986444Y29682778D01*
X19034222Y29636112D01*
X19082000Y29540556D01*
X19082000Y29159445D01*
X18082000Y29159445D01*
X18082000Y29492778D01*
X18129778Y29588334D01*
X18177556Y29636112D01*
X18272000Y29682778D01*
X18367556Y29682778D01*
X18463111Y29636112D01*
X18510889Y29588334D01*
X18558667Y29492778D01*
X18558667Y29159445D01*
X18177556Y30078334D02*
X18129778Y30126112D01*
X18082000Y30220556D01*
X18082000Y30459445D01*
X18129778Y30553889D01*
X18177556Y30601667D01*
X18272000Y30649445D01*
X18367556Y30649445D01*
X18510889Y30601667D01*
X19082000Y30030556D01*
X19082000Y30649445D01*
X19082000Y31520556D02*
X19082000Y30949445D01*
X19082000Y31235001D02*
X18082000Y31235001D01*
X18225333Y31139445D01*
X18319778Y31045001D01*
X18367556Y30949445D01*
X-1238000Y20643334D02*
X-2238000Y20643334D01*
X-2238000Y20881112D01*
X-2190222Y21024445D01*
X-2094667Y21120001D01*
X-2000222Y21166667D01*
X-1809111Y21214445D01*
X-1666889Y21214445D01*
X-1475778Y21166667D01*
X-1381333Y21120001D01*
X-1285778Y21024445D01*
X-1238000Y20881112D01*
X-1238000Y20643334D01*
X-1238000Y22085556D02*
X-1238000Y21514445D01*
X-1238000Y21800001D02*
X-2238000Y21800001D01*
X-2094667Y21704445D01*
X-2000222Y21610001D01*
X-1952444Y21514445D01*
X-1238000Y22481112D02*
X-1238000Y22671112D01*
X-1285778Y22766667D01*
X-1333556Y22814445D01*
X-1475778Y22908889D01*
X-1666889Y22956667D01*
X-2048000Y22956667D01*
X-2142444Y22908889D01*
X-2190222Y22862223D01*
X-2238000Y22766667D01*
X-2238000Y22575556D01*
X-2190222Y22481112D01*
X-2142444Y22433334D01*
X-2048000Y22385556D01*
X-1809111Y22385556D01*
X-1714667Y22433334D01*
X-1666889Y22481112D01*
X-1619111Y22575556D01*
X-1619111Y22766667D01*
X-1666889Y22862223D01*
X-1714667Y22908889D01*
X-1809111Y22956667D01*
X-30517889Y-17797778D02*
X-30612333Y-17750000D01*
X-30755667Y-17750000D01*
X-30899000Y-17797778D01*
X-30993444Y-17893333D01*
X-31041222Y-17987778D01*
X-31089000Y-18178889D01*
X-31089000Y-18321111D01*
X-31041222Y-18512222D01*
X-30993444Y-18606667D01*
X-30899000Y-18702222D01*
X-30755667Y-18750000D01*
X-30660111Y-18750000D01*
X-30517889Y-18702222D01*
X-30470111Y-18654444D01*
X-30470111Y-18321111D01*
X-30660111Y-18321111D01*
X-29599000Y-18750000D02*
X-30170111Y-18750000D01*
X-29884555Y-18750000D02*
X-29884555Y-17750000D01*
X-29980111Y-17893333D01*
X-30074555Y-17987778D01*
X-30170111Y-18035556D01*
X-19018000Y29183334D02*
X-20018000Y29183334D01*
X-20018000Y29421112D01*
X-19970222Y29564445D01*
X-19874667Y29660001D01*
X-19780222Y29706667D01*
X-19589111Y29754445D01*
X-19446889Y29754445D01*
X-19255778Y29706667D01*
X-19161333Y29660001D01*
X-19065778Y29564445D01*
X-19018000Y29421112D01*
X-19018000Y29183334D01*
X-19018000Y30625556D02*
X-19018000Y30054445D01*
X-19018000Y30340001D02*
X-20018000Y30340001D01*
X-19874667Y30244445D01*
X-19780222Y30150001D01*
X-19732444Y30054445D01*
X-20018000Y31402223D02*
X-20018000Y31211112D01*
X-19970222Y31115556D01*
X-19922444Y31068889D01*
X-19780222Y30973334D01*
X-19589111Y30925556D01*
X-19208000Y30925556D01*
X-19113556Y30973334D01*
X-19065778Y31021112D01*
X-19018000Y31115556D01*
X-19018000Y31306667D01*
X-19065778Y31402223D01*
X-19113556Y31448889D01*
X-19208000Y31496667D01*
X-19446889Y31496667D01*
X-19541333Y31448889D01*
X-19589111Y31402223D01*
X-19636889Y31306667D01*
X-19636889Y31115556D01*
X-19589111Y31021112D01*
X-19541333Y30973334D01*
X-19446889Y30925556D01*
X43939445Y-970000D02*
X43939445Y30000D01*
X44320556Y30000D01*
X44416112Y-17778D01*
X44462778Y-65556D01*
X44510556Y-160000D01*
X44510556Y-303333D01*
X44462778Y-398889D01*
X44416112Y-446667D01*
X44320556Y-493333D01*
X43939445Y-493333D01*
X44858334Y-65556D02*
X44906112Y-17778D01*
X45000556Y30000D01*
X45239445Y30000D01*
X45333889Y-17778D01*
X45381667Y-65556D01*
X45429445Y-160000D01*
X45429445Y-255556D01*
X45381667Y-398889D01*
X44810556Y-970000D01*
X45429445Y-970000D01*
X45967223Y30000D02*
X46062778Y30000D01*
X46158334Y-17778D01*
X46206112Y-65556D01*
X46252778Y-160000D01*
X46300556Y-351111D01*
X46300556Y-588889D01*
X46252778Y-780000D01*
X46206112Y-874444D01*
X46158334Y-922222D01*
X46062778Y-970000D01*
X45967223Y-970000D01*
X45872778Y-922222D01*
X45825001Y-874444D01*
X45777223Y-780000D01*
X45729445Y-588889D01*
X45729445Y-351111D01*
X45777223Y-160000D01*
X45825001Y-65556D01*
X45872778Y-17778D01*
X45967223Y30000D01*
X-32755667Y7173333D02*
X-32612333Y7126667D01*
X-32565667Y7078889D01*
X-32517889Y6983333D01*
X-32517889Y6840000D01*
X-32565667Y6745556D01*
X-32612333Y6697778D01*
X-32707889Y6650000D01*
X-33089000Y6650000D01*
X-33089000Y7650000D01*
X-32755667Y7650000D01*
X-32660111Y7602222D01*
X-32612333Y7554444D01*
X-32565667Y7460000D01*
X-32565667Y7364444D01*
X-32612333Y7268889D01*
X-32660111Y7221111D01*
X-32755667Y7173333D01*
X-33089000Y7173333D01*
X-32170111Y7554444D02*
X-32122333Y7602222D01*
X-32027889Y7650000D01*
X-31789000Y7650000D01*
X-31694556Y7602222D01*
X-31646778Y7554444D01*
X-31599000Y7460000D01*
X-31599000Y7364444D01*
X-31646778Y7221111D01*
X-32217889Y6650000D01*
X-31599000Y6650000D01*
D14*
X-14164667Y-23331666D02*
X-14164667Y-22188333D01*
X-13593000Y-22759999D02*
X-14736333Y-22759999D01*
X-15093000Y-21688333D02*
X-15093000Y-20760000D01*
X-14521333Y-21260000D01*
X-14521333Y-21045000D01*
X-14449667Y-20903333D01*
X-14378000Y-20831666D01*
X-14236333Y-20760000D01*
X-13878000Y-20760000D01*
X-13736333Y-20831666D01*
X-13664667Y-20903333D01*
X-13593000Y-21045000D01*
X-13593000Y-21473333D01*
X-13664667Y-21616666D01*
X-13736333Y-21688333D01*
X-13736333Y-20188333D02*
X-13664667Y-20116667D01*
X-13593000Y-20188333D01*
X-13664667Y-20260000D01*
X-13736333Y-20188333D01*
X-13593000Y-20188333D01*
X-15093000Y-19616667D02*
X-15093000Y-18688334D01*
X-14521333Y-19188334D01*
X-14521333Y-18973334D01*
X-14449667Y-18831667D01*
X-14378000Y-18760000D01*
X-14236333Y-18688334D01*
X-13878000Y-18688334D01*
X-13736333Y-18760000D01*
X-13664667Y-18831667D01*
X-13593000Y-18973334D01*
X-13593000Y-19401667D01*
X-13664667Y-19545000D01*
X-13736333Y-19616667D01*
X-15093000Y-18188334D02*
X-13593000Y-17688334D01*
X-15093000Y-17188334D01*
D10*
X43851667Y-15924444D02*
X44327222Y-15924444D01*
X43756111Y-16210000D02*
X44089444Y-15210000D01*
X44422778Y-16210000D01*
X44522778Y-16210000D02*
X44522778Y-15210000D01*
X44760556Y-15210000D01*
X44903889Y-15257778D01*
X44999445Y-15353333D01*
X45046111Y-15447778D01*
X45093889Y-15638889D01*
X45093889Y-15781111D01*
X45046111Y-15972222D01*
X44999445Y-16066667D01*
X44903889Y-16162222D01*
X44760556Y-16210000D01*
X44522778Y-16210000D01*
X45241667Y-15305556D02*
X45289445Y-15257778D01*
X45383889Y-15210000D01*
X45622778Y-15210000D01*
X45717222Y-15257778D01*
X45765000Y-15305556D01*
X45812778Y-15400000D01*
X45812778Y-15495556D01*
X45765000Y-15638889D01*
X45193889Y-16210000D01*
X45812778Y-16210000D01*
X46150556Y-15210000D02*
X46246111Y-15210000D01*
X46341667Y-15257778D01*
X46389445Y-15305556D01*
X46436111Y-15400000D01*
X46483889Y-15591111D01*
X46483889Y-15828889D01*
X46436111Y-16020000D01*
X46389445Y-16114444D01*
X46341667Y-16162222D01*
X46246111Y-16210000D01*
X46150556Y-16210000D01*
X46056111Y-16162222D01*
X46008334Y-16114444D01*
X45960556Y-16020000D01*
X45912778Y-15828889D01*
X45912778Y-15591111D01*
X45960556Y-15400000D01*
X46008334Y-15305556D01*
X46056111Y-15257778D01*
X46150556Y-15210000D01*
X39359445Y16810000D02*
X39359445Y17810000D01*
X39930556Y16810000D02*
X39502778Y17381111D01*
X39930556Y17810000D02*
X39359445Y17238889D01*
X40278334Y17714444D02*
X40326112Y17762222D01*
X40420556Y17810000D01*
X40659445Y17810000D01*
X40753889Y17762222D01*
X40801667Y17714444D01*
X40849445Y17620000D01*
X40849445Y17524444D01*
X40801667Y17381111D01*
X40230556Y16810000D01*
X40849445Y16810000D01*
X41626112Y17810000D02*
X41435001Y17810000D01*
X41339445Y17762222D01*
X41292778Y17714444D01*
X41197223Y17572222D01*
X41149445Y17381111D01*
X41149445Y17000000D01*
X41197223Y16905556D01*
X41245001Y16857778D01*
X41339445Y16810000D01*
X41530556Y16810000D01*
X41626112Y16857778D01*
X41672778Y16905556D01*
X41720556Y17000000D01*
X41720556Y17238889D01*
X41672778Y17333333D01*
X41626112Y17381111D01*
X41530556Y17428889D01*
X41339445Y17428889D01*
X41245001Y17381111D01*
X41197223Y17333333D01*
X41149445Y17238889D01*
X-31017889Y-10606667D02*
X-30684556Y-10606667D01*
X-30541222Y-11130000D02*
X-31017889Y-11130000D01*
X-31017889Y-10130000D01*
X-30541222Y-10130000D01*
X-29717889Y-10130000D02*
X-30193444Y-10130000D01*
X-30241222Y-10606667D01*
X-30193444Y-10558889D01*
X-30097889Y-10511111D01*
X-29860111Y-10511111D01*
X-29764555Y-10558889D01*
X-29717889Y-10606667D01*
X-29670111Y-10701111D01*
X-29670111Y-10940000D01*
X-29717889Y-11034444D01*
X-29764555Y-11082222D01*
X-29860111Y-11130000D01*
X-30097889Y-11130000D01*
X-30193444Y-11082222D01*
X-30241222Y-11034444D01*
X43796667Y16810000D02*
X43796667Y17810000D01*
X44367778Y16810000D01*
X44367778Y17810000D01*
X45524445Y17857778D02*
X44667778Y16572222D01*
X46443334Y16905556D02*
X46395556Y16857778D01*
X46253334Y16810000D01*
X46157778Y16810000D01*
X46014445Y16857778D01*
X45920001Y16953333D01*
X45872223Y17047778D01*
X45824445Y17238889D01*
X45824445Y17381111D01*
X45872223Y17572222D01*
X45920001Y17666667D01*
X46014445Y17762222D01*
X46157778Y17810000D01*
X46253334Y17810000D01*
X46395556Y17762222D01*
X46443334Y17714444D01*
D14*
X8575333Y-21438333D02*
X8647000Y-21223333D01*
X8647000Y-20866666D01*
X8575333Y-20723333D01*
X8503667Y-20653333D01*
X8362000Y-20581666D01*
X8218667Y-20581666D01*
X8075333Y-20653333D01*
X8003667Y-20723333D01*
X7932000Y-20866666D01*
X7862000Y-21153333D01*
X7790333Y-21295000D01*
X7718667Y-21366666D01*
X7575333Y-21438333D01*
X7432000Y-21438333D01*
X7290333Y-21366666D01*
X7218667Y-21295000D01*
X7147000Y-21153333D01*
X7147000Y-20795000D01*
X7218667Y-20581666D01*
X7147000Y-19724999D02*
X7147000Y-19438333D01*
X7218667Y-19296666D01*
X7362000Y-19153333D01*
X7647000Y-19081666D01*
X8147000Y-19081666D01*
X8432000Y-19153333D01*
X8575333Y-19296666D01*
X8647000Y-19438333D01*
X8647000Y-19724999D01*
X8575333Y-19866666D01*
X8432000Y-20009999D01*
X8147000Y-20081666D01*
X7647000Y-20081666D01*
X7362000Y-20009999D01*
X7218667Y-19866666D01*
X7147000Y-19724999D01*
D10*
X-25050222Y21190556D02*
X-25098000Y21096112D01*
X-25098000Y20952778D01*
X-25050222Y20809445D01*
X-24954667Y20715001D01*
X-24860222Y20667223D01*
X-24669111Y20619445D01*
X-24526889Y20619445D01*
X-24335778Y20667223D01*
X-24241333Y20715001D01*
X-24145778Y20809445D01*
X-24098000Y20952778D01*
X-24098000Y21048334D01*
X-24145778Y21190556D01*
X-24193556Y21238334D01*
X-24526889Y21238334D01*
X-24526889Y21048334D01*
X-24098000Y22109445D02*
X-24098000Y21538334D01*
X-24098000Y21823890D02*
X-25098000Y21823890D01*
X-24954667Y21728334D01*
X-24860222Y21633890D01*
X-24812444Y21538334D01*
X-25098000Y22932778D02*
X-25098000Y22457223D01*
X-24621333Y22409445D01*
X-24669111Y22457223D01*
X-24716889Y22552778D01*
X-24716889Y22790556D01*
X-24669111Y22886112D01*
X-24621333Y22932778D01*
X-24526889Y22980556D01*
X-24288000Y22980556D01*
X-24193556Y22932778D01*
X-24145778Y22886112D01*
X-24098000Y22790556D01*
X-24098000Y22552778D01*
X-24145778Y22457223D01*
X-24193556Y22409445D01*
D14*
X26385834Y-19951667D02*
X26244167Y-19880000D01*
X26029167Y-19880000D01*
X25814167Y-19951667D01*
X25672500Y-20095000D01*
X25600834Y-20236667D01*
X25529167Y-20523333D01*
X25529167Y-20736667D01*
X25600834Y-21023333D01*
X25672500Y-21165000D01*
X25814167Y-21308333D01*
X26029167Y-21380000D01*
X26172500Y-21380000D01*
X26385834Y-21308333D01*
X26457500Y-21236667D01*
X26457500Y-20736667D01*
X26172500Y-20736667D01*
X26957500Y-21380000D02*
X26957500Y-19880000D01*
X27814167Y-21380000D01*
X27814167Y-19880000D01*
X28314167Y-21380000D02*
X28314167Y-19880000D01*
X28670834Y-19880000D01*
X28885834Y-19951667D01*
X29029167Y-20095000D01*
X29099167Y-20236667D01*
X29170834Y-20523333D01*
X29170834Y-20736667D01*
X29099167Y-21023333D01*
X29029167Y-21165000D01*
X28885834Y-21308333D01*
X28670834Y-21380000D01*
X28314167Y-21380000D01*
D10*
X46955556Y6650000D02*
X46955556Y7650000D01*
X47336667Y7650000D01*
X47432223Y7602222D01*
X47478889Y7554444D01*
X47526667Y7460000D01*
X47526667Y7316667D01*
X47478889Y7221111D01*
X47432223Y7173333D01*
X47336667Y7126667D01*
X46955556Y7126667D01*
X47874445Y7554444D02*
X47922223Y7602222D01*
X48016667Y7650000D01*
X48255556Y7650000D01*
X48350000Y7602222D01*
X48397778Y7554444D01*
X48445556Y7460000D01*
X48445556Y7364444D01*
X48397778Y7221111D01*
X47826667Y6650000D01*
X48445556Y6650000D01*
X49222223Y7316667D02*
X49222223Y6650000D01*
X48983334Y7697778D02*
X48745556Y6983333D01*
X49364445Y6983333D01*
X36271667Y16810000D02*
X36271667Y17810000D01*
X36605000Y17095556D01*
X36938334Y17810000D01*
X36938334Y16810000D01*
X37286112Y17714444D02*
X37333890Y17762222D01*
X37428334Y17810000D01*
X37667223Y17810000D01*
X37761667Y17762222D01*
X37809445Y17714444D01*
X37857223Y17620000D01*
X37857223Y17524444D01*
X37809445Y17381111D01*
X37238334Y16810000D01*
X37857223Y16810000D01*
X38633890Y17810000D02*
X38442779Y17810000D01*
X38347223Y17762222D01*
X38300556Y17714444D01*
X38205001Y17572222D01*
X38157223Y17381111D01*
X38157223Y17000000D01*
X38205001Y16905556D01*
X38252779Y16857778D01*
X38347223Y16810000D01*
X38538334Y16810000D01*
X38633890Y16857778D01*
X38680556Y16905556D01*
X38728334Y17000000D01*
X38728334Y17238889D01*
X38680556Y17333333D01*
X38633890Y17381111D01*
X38538334Y17428889D01*
X38347223Y17428889D01*
X38252779Y17381111D01*
X38205001Y17333333D01*
X38157223Y17238889D01*
X47550556Y-3510000D02*
X47217223Y-3033333D01*
X46979445Y-3510000D02*
X46979445Y-2510000D01*
X47360556Y-2510000D01*
X47456112Y-2557778D01*
X47502778Y-2605556D01*
X47550556Y-2700000D01*
X47550556Y-2843333D01*
X47502778Y-2938889D01*
X47456112Y-2986667D01*
X47360556Y-3033333D01*
X46979445Y-3033333D01*
X47898334Y-2605556D02*
X47946112Y-2557778D01*
X48040556Y-2510000D01*
X48279445Y-2510000D01*
X48373889Y-2557778D01*
X48421667Y-2605556D01*
X48469445Y-2700000D01*
X48469445Y-2795556D01*
X48421667Y-2938889D01*
X47850556Y-3510000D01*
X48469445Y-3510000D01*
X49340556Y-3510000D02*
X48769445Y-3510000D01*
X49055001Y-3510000D02*
X49055001Y-2510000D01*
X48959445Y-2653333D01*
X48865001Y-2747778D01*
X48769445Y-2795556D01*
X-32541778Y-17797778D02*
X-32636222Y-17750000D01*
X-32779556Y-17750000D01*
X-32922889Y-17797778D01*
X-33017333Y-17893333D01*
X-33065111Y-17987778D01*
X-33112889Y-18178889D01*
X-33112889Y-18321111D01*
X-33065111Y-18512222D01*
X-33017333Y-18606667D01*
X-32922889Y-18702222D01*
X-32779556Y-18750000D01*
X-32684000Y-18750000D01*
X-32541778Y-18702222D01*
X-32494000Y-18654444D01*
X-32494000Y-18321111D01*
X-32684000Y-18321111D01*
X-32146222Y-17845556D02*
X-32098444Y-17797778D01*
X-32004000Y-17750000D01*
X-31765111Y-17750000D01*
X-31670667Y-17797778D01*
X-31622889Y-17845556D01*
X-31575111Y-17940000D01*
X-31575111Y-18035556D01*
X-31622889Y-18178889D01*
X-32194000Y-18750000D01*
X-31575111Y-18750000D01*
X43898889Y-18464444D02*
X44374444Y-18464444D01*
X43803333Y-18750000D02*
X44136666Y-17750000D01*
X44470000Y-18750000D01*
X44570000Y-18226667D02*
X44903333Y-18226667D01*
X45046667Y-18750000D02*
X44570000Y-18750000D01*
X44570000Y-17750000D01*
X45046667Y-17750000D01*
X45194445Y-17845556D02*
X45242223Y-17797778D01*
X45336667Y-17750000D01*
X45575556Y-17750000D01*
X45670000Y-17797778D01*
X45717778Y-17845556D01*
X45765556Y-17940000D01*
X45765556Y-18035556D01*
X45717778Y-18178889D01*
X45146667Y-18750000D01*
X45765556Y-18750000D01*
X46103334Y-17750000D02*
X46198889Y-17750000D01*
X46294445Y-17797778D01*
X46342223Y-17845556D01*
X46388889Y-17940000D01*
X46436667Y-18131111D01*
X46436667Y-18368889D01*
X46388889Y-18560000D01*
X46342223Y-18654444D01*
X46294445Y-18702222D01*
X46198889Y-18750000D01*
X46103334Y-18750000D01*
X46008889Y-18702222D01*
X45961112Y-18654444D01*
X45913334Y-18560000D01*
X45865556Y-18368889D01*
X45865556Y-18131111D01*
X45913334Y-17940000D01*
X45961112Y-17845556D01*
X46008889Y-17797778D01*
X46103334Y-17750000D01*
X39287778Y6650000D02*
X39287778Y7650000D01*
X39621111Y6935556D01*
X39954445Y7650000D01*
X39954445Y6650000D01*
X40302223Y7554444D02*
X40350001Y7602222D01*
X40444445Y7650000D01*
X40683334Y7650000D01*
X40777778Y7602222D01*
X40825556Y7554444D01*
X40873334Y7460000D01*
X40873334Y7364444D01*
X40825556Y7221111D01*
X40254445Y6650000D01*
X40873334Y6650000D01*
X41650001Y7316667D02*
X41650001Y6650000D01*
X41411112Y7697778D02*
X41173334Y6983333D01*
X41792223Y6983333D01*
X36278889Y-10844444D02*
X36754444Y-10844444D01*
X36183333Y-11130000D02*
X36516666Y-10130000D01*
X36850000Y-11130000D01*
X36950000Y-10606667D02*
X37283333Y-10606667D01*
X37426667Y-11130000D02*
X36950000Y-11130000D01*
X36950000Y-10130000D01*
X37426667Y-10130000D01*
X37574445Y-10225556D02*
X37622223Y-10177778D01*
X37716667Y-10130000D01*
X37955556Y-10130000D01*
X38050000Y-10177778D01*
X38097778Y-10225556D01*
X38145556Y-10320000D01*
X38145556Y-10415556D01*
X38097778Y-10558889D01*
X37526667Y-11130000D01*
X38145556Y-11130000D01*
X38722223Y-10130000D02*
X38531112Y-10130000D01*
X38435556Y-10177778D01*
X38388889Y-10225556D01*
X38293334Y-10367778D01*
X38245556Y-10558889D01*
X38245556Y-10940000D01*
X38293334Y-11034444D01*
X38341112Y-11082222D01*
X38435556Y-11130000D01*
X38626667Y-11130000D01*
X38722223Y-11082222D01*
X38768889Y-11034444D01*
X38816667Y-10940000D01*
X38816667Y-10701111D01*
X38768889Y-10606667D01*
X38722223Y-10558889D01*
X38626667Y-10511111D01*
X38435556Y-10511111D01*
X38341112Y-10558889D01*
X38293334Y-10606667D01*
X38245556Y-10701111D01*
X-32708445Y-15686667D02*
X-33041778Y-15686667D01*
X-33041778Y-16210000D02*
X-33041778Y-15210000D01*
X-32565111Y-15210000D01*
X-32265111Y-15210000D02*
X-31646222Y-15210000D01*
X-31979555Y-15591111D01*
X-31836222Y-15591111D01*
X-31741778Y-15638889D01*
X-31694000Y-15686667D01*
X-31646222Y-15781111D01*
X-31646222Y-16020000D01*
X-31694000Y-16114444D01*
X-31741778Y-16162222D01*
X-31836222Y-16210000D01*
X-32121778Y-16210000D01*
X-32217333Y-16162222D01*
X-32265111Y-16114444D01*
X-31041778Y-13146667D02*
X-30708445Y-13146667D01*
X-30565111Y-13670000D02*
X-31041778Y-13670000D01*
X-31041778Y-12670000D01*
X-30565111Y-12670000D01*
X-30217333Y-12765556D02*
X-30169555Y-12717778D01*
X-30075111Y-12670000D01*
X-29836222Y-12670000D01*
X-29741778Y-12717778D01*
X-29694000Y-12765556D01*
X-29646222Y-12860000D01*
X-29646222Y-12955556D01*
X-29694000Y-13098889D01*
X-30265111Y-13670000D01*
X-29646222Y-13670000D01*
X16542000Y20619445D02*
X15542000Y20619445D01*
X15542000Y20857223D01*
X15589778Y21000556D01*
X15685333Y21096112D01*
X15779778Y21142778D01*
X15970889Y21190556D01*
X16113111Y21190556D01*
X16304222Y21142778D01*
X16398667Y21096112D01*
X16494222Y21000556D01*
X16542000Y20857223D01*
X16542000Y20619445D01*
X15637556Y21538334D02*
X15589778Y21586112D01*
X15542000Y21680556D01*
X15542000Y21919445D01*
X15589778Y22013889D01*
X15637556Y22061667D01*
X15732000Y22109445D01*
X15827556Y22109445D01*
X15970889Y22061667D01*
X16542000Y21490556D01*
X16542000Y22109445D01*
X15542000Y22886112D02*
X15542000Y22695001D01*
X15589778Y22599445D01*
X15637556Y22552778D01*
X15779778Y22457223D01*
X15970889Y22409445D01*
X16352000Y22409445D01*
X16446444Y22457223D01*
X16494222Y22505001D01*
X16542000Y22599445D01*
X16542000Y22790556D01*
X16494222Y22886112D01*
X16446444Y22932778D01*
X16352000Y22980556D01*
X16113111Y22980556D01*
X16018667Y22932778D01*
X15970889Y22886112D01*
X15923111Y22790556D01*
X15923111Y22599445D01*
X15970889Y22505001D01*
X16018667Y22457223D01*
X16113111Y22409445D01*
X3318667Y20928889D02*
X3365333Y21072223D01*
X3413111Y21118889D01*
X3508667Y21166667D01*
X3652000Y21166667D01*
X3746444Y21118889D01*
X3794222Y21072223D01*
X3842000Y20976667D01*
X3842000Y20595556D01*
X2842000Y20595556D01*
X2842000Y20928889D01*
X2889778Y21024445D01*
X2937556Y21072223D01*
X3032000Y21118889D01*
X3127556Y21118889D01*
X3223111Y21072223D01*
X3270889Y21024445D01*
X3318667Y20928889D01*
X3318667Y20595556D01*
X2937556Y21514445D02*
X2889778Y21562223D01*
X2842000Y21656667D01*
X2842000Y21895556D01*
X2889778Y21990000D01*
X2937556Y22037778D01*
X3032000Y22085556D01*
X3127556Y22085556D01*
X3270889Y22037778D01*
X3842000Y21466667D01*
X3842000Y22085556D01*
X2937556Y22433334D02*
X2889778Y22481112D01*
X2842000Y22575556D01*
X2842000Y22814445D01*
X2889778Y22908889D01*
X2937556Y22956667D01*
X3032000Y23004445D01*
X3127556Y23004445D01*
X3270889Y22956667D01*
X3842000Y22385556D01*
X3842000Y23004445D01*
X36890556Y4110000D02*
X36557223Y4586667D01*
X36319445Y4110000D02*
X36319445Y5110000D01*
X36700556Y5110000D01*
X36796112Y5062222D01*
X36842778Y5014444D01*
X36890556Y4920000D01*
X36890556Y4776667D01*
X36842778Y4681111D01*
X36796112Y4633333D01*
X36700556Y4586667D01*
X36319445Y4586667D01*
X37238334Y5014444D02*
X37286112Y5062222D01*
X37380556Y5110000D01*
X37619445Y5110000D01*
X37713889Y5062222D01*
X37761667Y5014444D01*
X37809445Y4920000D01*
X37809445Y4824444D01*
X37761667Y4681111D01*
X37190556Y4110000D01*
X37809445Y4110000D01*
X38586112Y5110000D02*
X38395001Y5110000D01*
X38299445Y5062222D01*
X38252778Y5014444D01*
X38157223Y4872222D01*
X38109445Y4681111D01*
X38109445Y4300000D01*
X38157223Y4205556D01*
X38205001Y4157778D01*
X38299445Y4110000D01*
X38490556Y4110000D01*
X38586112Y4157778D01*
X38632778Y4205556D01*
X38680556Y4300000D01*
X38680556Y4538889D01*
X38632778Y4633333D01*
X38586112Y4681111D01*
X38490556Y4728889D01*
X38299445Y4728889D01*
X38205001Y4681111D01*
X38157223Y4633333D01*
X38109445Y4538889D01*
X-32731778Y12253333D02*
X-32588444Y12206667D01*
X-32541778Y12158889D01*
X-32494000Y12063333D01*
X-32494000Y11920000D01*
X-32541778Y11825556D01*
X-32588444Y11777778D01*
X-32684000Y11730000D01*
X-33065111Y11730000D01*
X-33065111Y12730000D01*
X-32731778Y12730000D01*
X-32636222Y12682222D01*
X-32588444Y12634444D01*
X-32541778Y12540000D01*
X-32541778Y12444444D01*
X-32588444Y12348889D01*
X-32636222Y12301111D01*
X-32731778Y12253333D01*
X-33065111Y12253333D01*
X-31670667Y12730000D02*
X-32146222Y12730000D01*
X-32194000Y12253333D01*
X-32146222Y12301111D01*
X-32050667Y12348889D01*
X-31812889Y12348889D01*
X-31717333Y12301111D01*
X-31670667Y12253333D01*
X-31622889Y12158889D01*
X-31622889Y11920000D01*
X-31670667Y11825556D01*
X-31717333Y11777778D01*
X-31812889Y11730000D01*
X-32050667Y11730000D01*
X-32146222Y11777778D01*
X-32194000Y11825556D01*
D14*
X-37859000Y22142667D02*
X-36715667Y22142667D01*
X-37287333Y21571000D02*
X-37287333Y22714333D01*
X-35430667Y23071000D02*
X-36144000Y23071000D01*
X-36215667Y22356000D01*
X-36144000Y22427667D01*
X-36000667Y22499333D01*
X-35644000Y22499333D01*
X-35500667Y22427667D01*
X-35430667Y22356000D01*
X-35359000Y22214333D01*
X-35359000Y21856000D01*
X-35430667Y21714333D01*
X-35500667Y21642667D01*
X-35644000Y21571000D01*
X-36000667Y21571000D01*
X-36144000Y21642667D01*
X-36215667Y21714333D01*
X-34859000Y23071000D02*
X-34359000Y21571000D01*
X-33859000Y23071000D01*
D10*
X3746444Y29730556D02*
X3794222Y29682778D01*
X3842000Y29540556D01*
X3842000Y29445000D01*
X3794222Y29301667D01*
X3698667Y29207223D01*
X3604222Y29159445D01*
X3413111Y29111667D01*
X3270889Y29111667D01*
X3079778Y29159445D01*
X2985333Y29207223D01*
X2889778Y29301667D01*
X2842000Y29445000D01*
X2842000Y29540556D01*
X2889778Y29682778D01*
X2937556Y29730556D01*
X2937556Y30078334D02*
X2889778Y30126112D01*
X2842000Y30220556D01*
X2842000Y30459445D01*
X2889778Y30553889D01*
X2937556Y30601667D01*
X3032000Y30649445D01*
X3127556Y30649445D01*
X3270889Y30601667D01*
X3842000Y30030556D01*
X3842000Y30649445D01*
X2937556Y30997223D02*
X2889778Y31045001D01*
X2842000Y31139445D01*
X2842000Y31378334D01*
X2889778Y31472778D01*
X2937556Y31520556D01*
X3032000Y31568334D01*
X3127556Y31568334D01*
X3270889Y31520556D01*
X3842000Y30949445D01*
X3842000Y31568334D01*
X-24098000Y29183334D02*
X-25098000Y29183334D01*
X-24621333Y29183334D02*
X-24621333Y29754445D01*
X-24098000Y29754445D02*
X-25098000Y29754445D01*
X-24098000Y30625556D02*
X-24098000Y30054445D01*
X-24098000Y30340001D02*
X-25098000Y30340001D01*
X-24954667Y30244445D01*
X-24860222Y30150001D01*
X-24812444Y30054445D01*
X-25098000Y31448889D02*
X-25098000Y30973334D01*
X-24621333Y30925556D01*
X-24669111Y30973334D01*
X-24716889Y31068889D01*
X-24716889Y31306667D01*
X-24669111Y31402223D01*
X-24621333Y31448889D01*
X-24526889Y31496667D01*
X-24288000Y31496667D01*
X-24193556Y31448889D01*
X-24145778Y31402223D01*
X-24098000Y31306667D01*
X-24098000Y31068889D01*
X-24145778Y30973334D01*
X-24193556Y30925556D01*
X36295556Y2570000D02*
X36866667Y2570000D01*
X36581112Y1570000D02*
X36581112Y2570000D01*
X37214445Y2474444D02*
X37262223Y2522222D01*
X37356667Y2570000D01*
X37595556Y2570000D01*
X37690000Y2522222D01*
X37737778Y2474444D01*
X37785556Y2380000D01*
X37785556Y2284444D01*
X37737778Y2141111D01*
X37166667Y1570000D01*
X37785556Y1570000D01*
X38562223Y2236667D02*
X38562223Y1570000D01*
X38323334Y2617778D02*
X38085556Y1903333D01*
X38704445Y1903333D01*
X39318889Y-10844444D02*
X39794444Y-10844444D01*
X39223333Y-11130000D02*
X39556666Y-10130000D01*
X39890000Y-11130000D01*
X39990000Y-10606667D02*
X40323333Y-10606667D01*
X40466667Y-11130000D02*
X39990000Y-11130000D01*
X39990000Y-10130000D01*
X40466667Y-10130000D01*
X40614445Y-10225556D02*
X40662223Y-10177778D01*
X40756667Y-10130000D01*
X40995556Y-10130000D01*
X41090000Y-10177778D01*
X41137778Y-10225556D01*
X41185556Y-10320000D01*
X41185556Y-10415556D01*
X41137778Y-10558889D01*
X40566667Y-11130000D01*
X41185556Y-11130000D01*
X41808889Y-10130000D02*
X41333334Y-10130000D01*
X41285556Y-10606667D01*
X41333334Y-10558889D01*
X41428889Y-10511111D01*
X41666667Y-10511111D01*
X41762223Y-10558889D01*
X41808889Y-10606667D01*
X41856667Y-10701111D01*
X41856667Y-10940000D01*
X41808889Y-11034444D01*
X41762223Y-11082222D01*
X41666667Y-11130000D01*
X41428889Y-11130000D01*
X41333334Y-11082222D01*
X41285556Y-11034444D01*
X43827778Y-13384444D02*
X44303333Y-13384444D01*
X43732222Y-13670000D02*
X44065555Y-12670000D01*
X44398889Y-13670000D01*
X45117778Y-13574444D02*
X45070000Y-13622222D01*
X44927778Y-13670000D01*
X44832222Y-13670000D01*
X44688889Y-13622222D01*
X44594445Y-13526667D01*
X44546667Y-13432222D01*
X44498889Y-13241111D01*
X44498889Y-13098889D01*
X44546667Y-12907778D01*
X44594445Y-12813333D01*
X44688889Y-12717778D01*
X44832222Y-12670000D01*
X44927778Y-12670000D01*
X45070000Y-12717778D01*
X45117778Y-12765556D01*
X45265556Y-12765556D02*
X45313334Y-12717778D01*
X45407778Y-12670000D01*
X45646667Y-12670000D01*
X45741111Y-12717778D01*
X45788889Y-12765556D01*
X45836667Y-12860000D01*
X45836667Y-12955556D01*
X45788889Y-13098889D01*
X45217778Y-13670000D01*
X45836667Y-13670000D01*
X46507778Y-13670000D02*
X45936667Y-13670000D01*
X46222223Y-13670000D02*
X46222223Y-12670000D01*
X46126667Y-12813333D01*
X46032223Y-12907778D01*
X45936667Y-12955556D01*
X36231667Y-5764444D02*
X36707222Y-5764444D01*
X36136111Y-6050000D02*
X36469444Y-5050000D01*
X36802778Y-6050000D01*
X36902778Y-6050000D02*
X36902778Y-5050000D01*
X37140556Y-5050000D01*
X37283889Y-5097778D01*
X37379445Y-5193333D01*
X37426111Y-5287778D01*
X37473889Y-5478889D01*
X37473889Y-5621111D01*
X37426111Y-5812222D01*
X37379445Y-5906667D01*
X37283889Y-6002222D01*
X37140556Y-6050000D01*
X36902778Y-6050000D01*
X37621667Y-5145556D02*
X37669445Y-5097778D01*
X37763889Y-5050000D01*
X38002778Y-5050000D01*
X38097222Y-5097778D01*
X38145000Y-5145556D01*
X38192778Y-5240000D01*
X38192778Y-5335556D01*
X38145000Y-5478889D01*
X37573889Y-6050000D01*
X38192778Y-6050000D01*
X38769445Y-5050000D02*
X38578334Y-5050000D01*
X38482778Y-5097778D01*
X38436111Y-5145556D01*
X38340556Y-5287778D01*
X38292778Y-5478889D01*
X38292778Y-5860000D01*
X38340556Y-5954444D01*
X38388334Y-6002222D01*
X38482778Y-6050000D01*
X38673889Y-6050000D01*
X38769445Y-6002222D01*
X38816111Y-5954444D01*
X38863889Y-5860000D01*
X38863889Y-5621111D01*
X38816111Y-5526667D01*
X38769445Y-5478889D01*
X38673889Y-5431111D01*
X38482778Y-5431111D01*
X38388334Y-5478889D01*
X38340556Y-5526667D01*
X38292778Y-5621111D01*
X43915556Y9190000D02*
X43915556Y10190000D01*
X44296667Y10190000D01*
X44392223Y10142222D01*
X44438889Y10094444D01*
X44486667Y10000000D01*
X44486667Y9856667D01*
X44438889Y9761111D01*
X44392223Y9713333D01*
X44296667Y9666667D01*
X43915556Y9666667D01*
X44834445Y10094444D02*
X44882223Y10142222D01*
X44976667Y10190000D01*
X45215556Y10190000D01*
X45310000Y10142222D01*
X45357778Y10094444D01*
X45405556Y10000000D01*
X45405556Y9904444D01*
X45357778Y9761111D01*
X44786667Y9190000D01*
X45405556Y9190000D01*
X45705556Y10190000D02*
X46324445Y10190000D01*
X45991112Y9808889D01*
X46134445Y9808889D01*
X46228889Y9761111D01*
X46276667Y9713333D01*
X46324445Y9618889D01*
X46324445Y9380000D01*
X46276667Y9285556D01*
X46228889Y9237778D01*
X46134445Y9190000D01*
X45848889Y9190000D01*
X45753334Y9237778D01*
X45705556Y9285556D01*
X-33089000Y-6050000D02*
X-33089000Y-5050000D01*
X-32851222Y-5050000D01*
X-32707889Y-5097778D01*
X-32612333Y-5193333D01*
X-32565667Y-5287778D01*
X-32517889Y-5478889D01*
X-32517889Y-5621111D01*
X-32565667Y-5812222D01*
X-32612333Y-5906667D01*
X-32707889Y-6002222D01*
X-32851222Y-6050000D01*
X-33089000Y-6050000D01*
X-32217889Y-5050000D02*
X-31599000Y-5050000D01*
X-31932333Y-5431111D01*
X-31789000Y-5431111D01*
X-31694556Y-5478889D01*
X-31646778Y-5526667D01*
X-31599000Y-5621111D01*
X-31599000Y-5860000D01*
X-31646778Y-5954444D01*
X-31694556Y-6002222D01*
X-31789000Y-6050000D01*
X-32074556Y-6050000D01*
X-32170111Y-6002222D01*
X-32217889Y-5954444D01*
D14*
X-9664667Y-22080833D02*
X-9593000Y-21865833D01*
X-9593000Y-21509166D01*
X-9664667Y-21365833D01*
X-9736333Y-21295833D01*
X-9878000Y-21224166D01*
X-10021333Y-21224166D01*
X-10164667Y-21295833D01*
X-10236333Y-21365833D01*
X-10308000Y-21509166D01*
X-10378000Y-21795833D01*
X-10449667Y-21937500D01*
X-10521333Y-22009166D01*
X-10664667Y-22080833D01*
X-10808000Y-22080833D01*
X-10949667Y-22009166D01*
X-11021333Y-21937500D01*
X-11093000Y-21795833D01*
X-11093000Y-21437500D01*
X-11021333Y-21224166D01*
X-9736333Y-19795833D02*
X-9664667Y-19867499D01*
X-9593000Y-20080833D01*
X-9593000Y-20224166D01*
X-9664667Y-20439166D01*
X-9808000Y-20580833D01*
X-9949667Y-20652499D01*
X-10236333Y-20724166D01*
X-10449667Y-20724166D01*
X-10736333Y-20652499D01*
X-10878000Y-20580833D01*
X-11021333Y-20439166D01*
X-11093000Y-20224166D01*
X-11093000Y-20080833D01*
X-11021333Y-19867499D01*
X-10949667Y-19795833D01*
X-9593000Y-19295833D02*
X-11093000Y-19295833D01*
X-9593000Y-18439166D02*
X-10449667Y-19080833D01*
X-11093000Y-18439166D02*
X-10236333Y-19295833D01*
D10*
X-30684556Y2093333D02*
X-31017889Y2093333D01*
X-31017889Y1570000D02*
X-31017889Y2570000D01*
X-30541222Y2570000D01*
X-29717889Y2570000D02*
X-30193444Y2570000D01*
X-30241222Y2093333D01*
X-30193444Y2141111D01*
X-30097889Y2188889D01*
X-29860111Y2188889D01*
X-29764555Y2141111D01*
X-29717889Y2093333D01*
X-29670111Y1998889D01*
X-29670111Y1760000D01*
X-29717889Y1665556D01*
X-29764555Y1617778D01*
X-29860111Y1570000D01*
X-30097889Y1570000D01*
X-30193444Y1617778D01*
X-30241222Y1665556D01*
X43939445Y6650000D02*
X43939445Y7650000D01*
X44320556Y7650000D01*
X44416112Y7602222D01*
X44462778Y7554444D01*
X44510556Y7460000D01*
X44510556Y7316667D01*
X44462778Y7221111D01*
X44416112Y7173333D01*
X44320556Y7126667D01*
X43939445Y7126667D01*
X44858334Y7554444D02*
X44906112Y7602222D01*
X45000556Y7650000D01*
X45239445Y7650000D01*
X45333889Y7602222D01*
X45381667Y7554444D01*
X45429445Y7460000D01*
X45429445Y7364444D01*
X45381667Y7221111D01*
X44810556Y6650000D01*
X45429445Y6650000D01*
X46252778Y7650000D02*
X45777223Y7650000D01*
X45729445Y7173333D01*
X45777223Y7221111D01*
X45872778Y7268889D01*
X46110556Y7268889D01*
X46206112Y7221111D01*
X46252778Y7173333D01*
X46300556Y7078889D01*
X46300556Y6840000D01*
X46252778Y6745556D01*
X46206112Y6697778D01*
X46110556Y6650000D01*
X45872778Y6650000D01*
X45777223Y6697778D01*
X45729445Y6745556D01*
X-33041778Y9713333D02*
X-32708445Y9713333D01*
X-32565111Y9190000D02*
X-33041778Y9190000D01*
X-33041778Y10190000D01*
X-32565111Y10190000D01*
X-32265111Y10190000D02*
X-31646222Y10190000D01*
X-31979555Y9808889D01*
X-31836222Y9808889D01*
X-31741778Y9761111D01*
X-31694000Y9713333D01*
X-31646222Y9618889D01*
X-31646222Y9380000D01*
X-31694000Y9285556D01*
X-31741778Y9237778D01*
X-31836222Y9190000D01*
X-32121778Y9190000D01*
X-32217333Y9237778D01*
X-32265111Y9285556D01*
X-32708445Y-446667D02*
X-33041778Y-446667D01*
X-33041778Y-970000D02*
X-33041778Y30000D01*
X-32565111Y30000D01*
X-31788444Y-303333D02*
X-31788444Y-970000D01*
X-32027333Y77778D02*
X-32265111Y-636667D01*
X-31646222Y-636667D01*
X-4301333Y21023889D02*
X-4301333Y20690556D01*
X-3778000Y20690556D02*
X-4778000Y20690556D01*
X-4778000Y21167223D01*
X-3778000Y22038334D02*
X-3778000Y21467223D01*
X-3778000Y21752779D02*
X-4778000Y21752779D01*
X-4634667Y21657223D01*
X-4540222Y21562779D01*
X-4492444Y21467223D01*
X-4349111Y22528334D02*
X-4396889Y22433890D01*
X-4444667Y22386112D01*
X-4540222Y22338334D01*
X-4588000Y22338334D01*
X-4682444Y22386112D01*
X-4730222Y22433890D01*
X-4778000Y22528334D01*
X-4778000Y22719445D01*
X-4730222Y22815001D01*
X-4682444Y22861667D01*
X-4588000Y22909445D01*
X-4540222Y22909445D01*
X-4444667Y22861667D01*
X-4396889Y22815001D01*
X-4349111Y22719445D01*
X-4349111Y22528334D01*
X-4301333Y22433890D01*
X-4254667Y22386112D01*
X-4159111Y22338334D01*
X-3968000Y22338334D01*
X-3873556Y22386112D01*
X-3825778Y22433890D01*
X-3778000Y22528334D01*
X-3778000Y22719445D01*
X-3825778Y22815001D01*
X-3873556Y22861667D01*
X-3968000Y22909445D01*
X-4159111Y22909445D01*
X-4254667Y22861667D01*
X-4301333Y22815001D01*
X-4349111Y22719445D01*
X-31041778Y9713333D02*
X-30708445Y9713333D01*
X-30565111Y9190000D02*
X-31041778Y9190000D01*
X-31041778Y10190000D01*
X-30565111Y10190000D01*
X-30217333Y10094444D02*
X-30169555Y10142222D01*
X-30075111Y10190000D01*
X-29836222Y10190000D01*
X-29741778Y10142222D01*
X-29694000Y10094444D01*
X-29646222Y10000000D01*
X-29646222Y9904444D01*
X-29694000Y9761111D01*
X-30265111Y9190000D01*
X-29646222Y9190000D01*
X36247778Y6650000D02*
X36247778Y7650000D01*
X36581111Y6935556D01*
X36914445Y7650000D01*
X36914445Y6650000D01*
X37262223Y7554444D02*
X37310001Y7602222D01*
X37404445Y7650000D01*
X37643334Y7650000D01*
X37737778Y7602222D01*
X37785556Y7554444D01*
X37833334Y7460000D01*
X37833334Y7364444D01*
X37785556Y7221111D01*
X37214445Y6650000D01*
X37833334Y6650000D01*
X38181112Y7554444D02*
X38228890Y7602222D01*
X38323334Y7650000D01*
X38562223Y7650000D01*
X38656667Y7602222D01*
X38704445Y7554444D01*
X38752223Y7460000D01*
X38752223Y7364444D01*
X38704445Y7221111D01*
X38133334Y6650000D01*
X38752223Y6650000D01*
X47003334Y-6050000D02*
X47003334Y-5050000D01*
X47384445Y-5050000D01*
X47480001Y-5097778D01*
X47526667Y-5145556D01*
X47574445Y-5240000D01*
X47574445Y-5383333D01*
X47526667Y-5478889D01*
X47480001Y-5526667D01*
X47384445Y-5573333D01*
X47003334Y-5573333D01*
X48445556Y-6050000D02*
X47874445Y-6050000D01*
X48160001Y-6050000D02*
X48160001Y-5050000D01*
X48064445Y-5193333D01*
X47970001Y-5287778D01*
X47874445Y-5335556D01*
X48841112Y-6050000D02*
X49031112Y-6050000D01*
X49126667Y-6002222D01*
X49174445Y-5954444D01*
X49268889Y-5812222D01*
X49316667Y-5621111D01*
X49316667Y-5240000D01*
X49268889Y-5145556D01*
X49222223Y-5097778D01*
X49126667Y-5050000D01*
X48935556Y-5050000D01*
X48841112Y-5097778D01*
X48793334Y-5145556D01*
X48745556Y-5240000D01*
X48745556Y-5478889D01*
X48793334Y-5573333D01*
X48841112Y-5621111D01*
X48935556Y-5668889D01*
X49126667Y-5668889D01*
X49222223Y-5621111D01*
X49268889Y-5573333D01*
X49316667Y-5478889D01*
X-30517889Y-17778D02*
X-30612333Y30000D01*
X-30755667Y30000D01*
X-30899000Y-17778D01*
X-30993444Y-113333D01*
X-31041222Y-207778D01*
X-31089000Y-398889D01*
X-31089000Y-541111D01*
X-31041222Y-732222D01*
X-30993444Y-826667D01*
X-30899000Y-922222D01*
X-30755667Y-970000D01*
X-30660111Y-970000D01*
X-30517889Y-922222D01*
X-30470111Y-874444D01*
X-30470111Y-541111D01*
X-30660111Y-541111D01*
X-29646778Y30000D02*
X-30122333Y30000D01*
X-30170111Y-446667D01*
X-30122333Y-398889D01*
X-30026778Y-351111D01*
X-29789000Y-351111D01*
X-29693444Y-398889D01*
X-29646778Y-446667D01*
X-29599000Y-541111D01*
X-29599000Y-780000D01*
X-29646778Y-874444D01*
X-29693444Y-922222D01*
X-29789000Y-970000D01*
X-30026778Y-970000D01*
X-30122333Y-922222D01*
X-30170111Y-874444D01*
X-21558000Y20619445D02*
X-22558000Y20619445D01*
X-22081333Y20619445D02*
X-22081333Y21190556D01*
X-21558000Y21190556D02*
X-22558000Y21190556D01*
X-21558000Y22061667D02*
X-21558000Y21490556D01*
X-21558000Y21776112D02*
X-22558000Y21776112D01*
X-22414667Y21680556D01*
X-22320222Y21586112D01*
X-22272444Y21490556D01*
X-22224667Y22838334D02*
X-21558000Y22838334D01*
X-22605778Y22599445D02*
X-21891333Y22361667D01*
X-21891333Y22980556D01*
X46843889Y-13384444D02*
X47319444Y-13384444D01*
X46748333Y-13670000D02*
X47081666Y-12670000D01*
X47415000Y-13670000D01*
X48133889Y-13574444D02*
X48086111Y-13622222D01*
X47943889Y-13670000D01*
X47848333Y-13670000D01*
X47705000Y-13622222D01*
X47610556Y-13526667D01*
X47562778Y-13432222D01*
X47515000Y-13241111D01*
X47515000Y-13098889D01*
X47562778Y-12907778D01*
X47610556Y-12813333D01*
X47705000Y-12717778D01*
X47848333Y-12670000D01*
X47943889Y-12670000D01*
X48086111Y-12717778D01*
X48133889Y-12765556D01*
X48281667Y-12765556D02*
X48329445Y-12717778D01*
X48423889Y-12670000D01*
X48662778Y-12670000D01*
X48757222Y-12717778D01*
X48805000Y-12765556D01*
X48852778Y-12860000D01*
X48852778Y-12955556D01*
X48805000Y-13098889D01*
X48233889Y-13670000D01*
X48852778Y-13670000D01*
X49000556Y-12765556D02*
X49048334Y-12717778D01*
X49142778Y-12670000D01*
X49381667Y-12670000D01*
X49476111Y-12717778D01*
X49523889Y-12765556D01*
X49571667Y-12860000D01*
X49571667Y-12955556D01*
X49523889Y-13098889D01*
X48952778Y-13670000D01*
X49571667Y-13670000D01*
X36255000Y-13384444D02*
X36730555Y-13384444D01*
X36159444Y-13670000D02*
X36492777Y-12670000D01*
X36826111Y-13670000D01*
X37259444Y-13146667D02*
X36926111Y-13146667D01*
X36926111Y-13670000D02*
X36926111Y-12670000D01*
X37402778Y-12670000D01*
X37550556Y-12765556D02*
X37598334Y-12717778D01*
X37692778Y-12670000D01*
X37931667Y-12670000D01*
X38026111Y-12717778D01*
X38073889Y-12765556D01*
X38121667Y-12860000D01*
X38121667Y-12955556D01*
X38073889Y-13098889D01*
X37502778Y-13670000D01*
X38121667Y-13670000D01*
X38221667Y-12670000D02*
X38840556Y-12670000D01*
X38507223Y-13051111D01*
X38650556Y-13051111D01*
X38745000Y-13098889D01*
X38792778Y-13146667D01*
X38840556Y-13241111D01*
X38840556Y-13480000D01*
X38792778Y-13574444D01*
X38745000Y-13622222D01*
X38650556Y-13670000D01*
X38365000Y-13670000D01*
X38269445Y-13622222D01*
X38221667Y-13574444D01*
X-11398000Y20643334D02*
X-12398000Y20643334D01*
X-12398000Y20881112D01*
X-12350222Y21024445D01*
X-12254667Y21120001D01*
X-12160222Y21166667D01*
X-11969111Y21214445D01*
X-11826889Y21214445D01*
X-11635778Y21166667D01*
X-11541333Y21120001D01*
X-11445778Y21024445D01*
X-11398000Y20881112D01*
X-11398000Y20643334D01*
X-11398000Y22085556D02*
X-11398000Y21514445D01*
X-11398000Y21800001D02*
X-12398000Y21800001D01*
X-12254667Y21704445D01*
X-12160222Y21610001D01*
X-12112444Y21514445D01*
X-11969111Y22575556D02*
X-12016889Y22481112D01*
X-12064667Y22433334D01*
X-12160222Y22385556D01*
X-12208000Y22385556D01*
X-12302444Y22433334D01*
X-12350222Y22481112D01*
X-12398000Y22575556D01*
X-12398000Y22766667D01*
X-12350222Y22862223D01*
X-12302444Y22908889D01*
X-12208000Y22956667D01*
X-12160222Y22956667D01*
X-12064667Y22908889D01*
X-12016889Y22862223D01*
X-11969111Y22766667D01*
X-11969111Y22575556D01*
X-11921333Y22481112D01*
X-11874667Y22433334D01*
X-11779111Y22385556D01*
X-11588000Y22385556D01*
X-11493556Y22433334D01*
X-11445778Y22481112D01*
X-11398000Y22575556D01*
X-11398000Y22766667D01*
X-11445778Y22862223D01*
X-11493556Y22908889D01*
X-11588000Y22956667D01*
X-11779111Y22956667D01*
X-11874667Y22908889D01*
X-11921333Y22862223D01*
X-11969111Y22766667D01*
X-4301333Y29230556D02*
X-4301333Y29563889D01*
X-3778000Y29707223D02*
X-3778000Y29230556D01*
X-4778000Y29230556D01*
X-4778000Y29707223D01*
X-3778000Y30578334D02*
X-3778000Y30007223D01*
X-3778000Y30292779D02*
X-4778000Y30292779D01*
X-4634667Y30197223D01*
X-4540222Y30102779D01*
X-4492444Y30007223D01*
X-4349111Y31068334D02*
X-4396889Y30973890D01*
X-4444667Y30926112D01*
X-4540222Y30878334D01*
X-4588000Y30878334D01*
X-4682444Y30926112D01*
X-4730222Y30973890D01*
X-4778000Y31068334D01*
X-4778000Y31259445D01*
X-4730222Y31355001D01*
X-4682444Y31401667D01*
X-4588000Y31449445D01*
X-4540222Y31449445D01*
X-4444667Y31401667D01*
X-4396889Y31355001D01*
X-4349111Y31259445D01*
X-4349111Y31068334D01*
X-4301333Y30973890D01*
X-4254667Y30926112D01*
X-4159111Y30878334D01*
X-3968000Y30878334D01*
X-3873556Y30926112D01*
X-3825778Y30973890D01*
X-3778000Y31068334D01*
X-3778000Y31259445D01*
X-3825778Y31355001D01*
X-3873556Y31401667D01*
X-3968000Y31449445D01*
X-4159111Y31449445D01*
X-4254667Y31401667D01*
X-4301333Y31355001D01*
X-4349111Y31259445D01*
X36819445Y11730000D02*
X36342778Y11730000D01*
X36342778Y12730000D01*
X37167223Y12634444D02*
X37215001Y12682222D01*
X37309445Y12730000D01*
X37548334Y12730000D01*
X37642778Y12682222D01*
X37690556Y12634444D01*
X37738334Y12540000D01*
X37738334Y12444444D01*
X37690556Y12301111D01*
X37119445Y11730000D01*
X37738334Y11730000D01*
X38038334Y12730000D02*
X38657223Y12730000D01*
X38323890Y12348889D01*
X38467223Y12348889D01*
X38561667Y12301111D01*
X38609445Y12253333D01*
X38657223Y12158889D01*
X38657223Y11920000D01*
X38609445Y11825556D01*
X38561667Y11777778D01*
X38467223Y11730000D01*
X38181667Y11730000D01*
X38086112Y11777778D01*
X38038334Y11825556D01*
X-14890222Y21190556D02*
X-14938000Y21096112D01*
X-14938000Y20952778D01*
X-14890222Y20809445D01*
X-14794667Y20715001D01*
X-14700222Y20667223D01*
X-14509111Y20619445D01*
X-14366889Y20619445D01*
X-14175778Y20667223D01*
X-14081333Y20715001D01*
X-13985778Y20809445D01*
X-13938000Y20952778D01*
X-13938000Y21048334D01*
X-13985778Y21190556D01*
X-14033556Y21238334D01*
X-14366889Y21238334D01*
X-14366889Y21048334D01*
X-13938000Y22109445D02*
X-13938000Y21538334D01*
X-13938000Y21823890D02*
X-14938000Y21823890D01*
X-14794667Y21728334D01*
X-14700222Y21633890D01*
X-14652444Y21538334D01*
X-14938000Y22886112D02*
X-14938000Y22695001D01*
X-14890222Y22599445D01*
X-14842444Y22552778D01*
X-14700222Y22457223D01*
X-14509111Y22409445D01*
X-14128000Y22409445D01*
X-14033556Y22457223D01*
X-13985778Y22505001D01*
X-13938000Y22599445D01*
X-13938000Y22790556D01*
X-13985778Y22886112D01*
X-14033556Y22932778D01*
X-14128000Y22980556D01*
X-14366889Y22980556D01*
X-14461333Y22932778D01*
X-14509111Y22886112D01*
X-14556889Y22790556D01*
X-14556889Y22599445D01*
X-14509111Y22505001D01*
X-14461333Y22457223D01*
X-14366889Y22409445D01*
D14*
X-36883333Y20208333D02*
X-37025000Y20280000D01*
X-37240000Y20280000D01*
X-37455000Y20208333D01*
X-37596667Y20065000D01*
X-37668333Y19923333D01*
X-37740000Y19636667D01*
X-37740000Y19423333D01*
X-37668333Y19136667D01*
X-37596667Y18995000D01*
X-37455000Y18851667D01*
X-37240000Y18780000D01*
X-37096667Y18780000D01*
X-36883333Y18851667D01*
X-36811667Y18923333D01*
X-36811667Y19423333D01*
X-37096667Y19423333D01*
X-36311667Y18780000D02*
X-36311667Y20280000D01*
X-35455000Y18780000D01*
X-35455000Y20280000D01*
X-34955000Y18780000D02*
X-34955000Y20280000D01*
X-34598333Y20280000D01*
X-34383333Y20208333D01*
X-34240000Y20065000D01*
X-34170000Y19923333D01*
X-34098333Y19636667D01*
X-34098333Y19423333D01*
X-34170000Y19136667D01*
X-34240000Y18995000D01*
X-34383333Y18851667D01*
X-34598333Y18780000D01*
X-34955000Y18780000D01*
D10*
X46891667Y-8304444D02*
X47367222Y-8304444D01*
X46796111Y-8590000D02*
X47129444Y-7590000D01*
X47462778Y-8590000D01*
X47896111Y-8066667D02*
X48039445Y-8113333D01*
X48086111Y-8161111D01*
X48133889Y-8256667D01*
X48133889Y-8400000D01*
X48086111Y-8494444D01*
X48039445Y-8542222D01*
X47943889Y-8590000D01*
X47562778Y-8590000D01*
X47562778Y-7590000D01*
X47896111Y-7590000D01*
X47991667Y-7637778D01*
X48039445Y-7685556D01*
X48086111Y-7780000D01*
X48086111Y-7875556D01*
X48039445Y-7971111D01*
X47991667Y-8018889D01*
X47896111Y-8066667D01*
X47562778Y-8066667D01*
X48281667Y-7685556D02*
X48329445Y-7637778D01*
X48423889Y-7590000D01*
X48662778Y-7590000D01*
X48757222Y-7637778D01*
X48805000Y-7685556D01*
X48852778Y-7780000D01*
X48852778Y-7875556D01*
X48805000Y-8018889D01*
X48233889Y-8590000D01*
X48852778Y-8590000D01*
X49190556Y-7590000D02*
X49286111Y-7590000D01*
X49381667Y-7637778D01*
X49429445Y-7685556D01*
X49476111Y-7780000D01*
X49523889Y-7971111D01*
X49523889Y-8208889D01*
X49476111Y-8400000D01*
X49429445Y-8494444D01*
X49381667Y-8542222D01*
X49286111Y-8590000D01*
X49190556Y-8590000D01*
X49096111Y-8542222D01*
X49048334Y-8494444D01*
X49000556Y-8400000D01*
X48952778Y-8208889D01*
X48952778Y-7971111D01*
X49000556Y-7780000D01*
X49048334Y-7685556D01*
X49096111Y-7637778D01*
X49190556Y-7590000D01*
X46955556Y30000D02*
X47526667Y30000D01*
X47241112Y-970000D02*
X47241112Y30000D01*
X47874445Y-65556D02*
X47922223Y-17778D01*
X48016667Y30000D01*
X48255556Y30000D01*
X48350000Y-17778D01*
X48397778Y-65556D01*
X48445556Y-160000D01*
X48445556Y-255556D01*
X48397778Y-398889D01*
X47826667Y-970000D01*
X48445556Y-970000D01*
X48793334Y-65556D02*
X48841112Y-17778D01*
X48935556Y30000D01*
X49174445Y30000D01*
X49268889Y-17778D01*
X49316667Y-65556D01*
X49364445Y-160000D01*
X49364445Y-255556D01*
X49316667Y-398889D01*
X48745556Y-970000D01*
X49364445Y-970000D01*
X39359445Y4110000D02*
X39359445Y5110000D01*
X39740556Y5110000D01*
X39836112Y5062222D01*
X39882778Y5014444D01*
X39930556Y4920000D01*
X39930556Y4776667D01*
X39882778Y4681111D01*
X39836112Y4633333D01*
X39740556Y4586667D01*
X39359445Y4586667D01*
X40278334Y5014444D02*
X40326112Y5062222D01*
X40420556Y5110000D01*
X40659445Y5110000D01*
X40753889Y5062222D01*
X40801667Y5014444D01*
X40849445Y4920000D01*
X40849445Y4824444D01*
X40801667Y4681111D01*
X40230556Y4110000D01*
X40849445Y4110000D01*
X41626112Y5110000D02*
X41435001Y5110000D01*
X41339445Y5062222D01*
X41292778Y5014444D01*
X41197223Y4872222D01*
X41149445Y4681111D01*
X41149445Y4300000D01*
X41197223Y4205556D01*
X41245001Y4157778D01*
X41339445Y4110000D01*
X41530556Y4110000D01*
X41626112Y4157778D01*
X41672778Y4205556D01*
X41720556Y4300000D01*
X41720556Y4538889D01*
X41672778Y4633333D01*
X41626112Y4681111D01*
X41530556Y4728889D01*
X41339445Y4728889D01*
X41245001Y4681111D01*
X41197223Y4633333D01*
X41149445Y4538889D01*
X13906444Y29754445D02*
X13954222Y29706667D01*
X14002000Y29564445D01*
X14002000Y29468889D01*
X13954222Y29325556D01*
X13858667Y29231112D01*
X13764222Y29183334D01*
X13573111Y29135556D01*
X13430889Y29135556D01*
X13239778Y29183334D01*
X13145333Y29231112D01*
X13049778Y29325556D01*
X13002000Y29468889D01*
X13002000Y29564445D01*
X13049778Y29706667D01*
X13097556Y29754445D01*
X13097556Y30102223D02*
X13049778Y30150001D01*
X13002000Y30244445D01*
X13002000Y30483334D01*
X13049778Y30577778D01*
X13097556Y30625556D01*
X13192000Y30673334D01*
X13287556Y30673334D01*
X13430889Y30625556D01*
X14002000Y30054445D01*
X14002000Y30673334D01*
X13002000Y31450001D02*
X13002000Y31258890D01*
X13049778Y31163334D01*
X13097556Y31116667D01*
X13239778Y31021112D01*
X13430889Y30973334D01*
X13812000Y30973334D01*
X13906444Y31021112D01*
X13954222Y31068890D01*
X14002000Y31163334D01*
X14002000Y31354445D01*
X13954222Y31450001D01*
X13906444Y31496667D01*
X13812000Y31544445D01*
X13573111Y31544445D01*
X13478667Y31496667D01*
X13430889Y31450001D01*
X13383111Y31354445D01*
X13383111Y31163334D01*
X13430889Y31068890D01*
X13478667Y31021112D01*
X13573111Y30973334D01*
X6382000Y29159445D02*
X5382000Y29159445D01*
X5382000Y29397223D01*
X5429778Y29540556D01*
X5525333Y29636112D01*
X5619778Y29682778D01*
X5810889Y29730556D01*
X5953111Y29730556D01*
X6144222Y29682778D01*
X6238667Y29636112D01*
X6334222Y29540556D01*
X6382000Y29397223D01*
X6382000Y29159445D01*
X5477556Y30078334D02*
X5429778Y30126112D01*
X5382000Y30220556D01*
X5382000Y30459445D01*
X5429778Y30553889D01*
X5477556Y30601667D01*
X5572000Y30649445D01*
X5667556Y30649445D01*
X5810889Y30601667D01*
X6382000Y30030556D01*
X6382000Y30649445D01*
X5382000Y31187223D02*
X5382000Y31282778D01*
X5429778Y31378334D01*
X5477556Y31426112D01*
X5572000Y31472778D01*
X5763111Y31520556D01*
X6000889Y31520556D01*
X6192000Y31472778D01*
X6286444Y31426112D01*
X6334222Y31378334D01*
X6382000Y31282778D01*
X6382000Y31187223D01*
X6334222Y31092778D01*
X6286444Y31045001D01*
X6192000Y30997223D01*
X6000889Y30949445D01*
X5763111Y30949445D01*
X5572000Y30997223D01*
X5477556Y31045001D01*
X5429778Y31092778D01*
X5382000Y31187223D01*
X21622000Y29159445D02*
X20622000Y29159445D01*
X20622000Y29397223D01*
X20669778Y29540556D01*
X20765333Y29636112D01*
X20859778Y29682778D01*
X21050889Y29730556D01*
X21193111Y29730556D01*
X21384222Y29682778D01*
X21478667Y29636112D01*
X21574222Y29540556D01*
X21622000Y29397223D01*
X21622000Y29159445D01*
X20717556Y30078334D02*
X20669778Y30126112D01*
X20622000Y30220556D01*
X20622000Y30459445D01*
X20669778Y30553889D01*
X20717556Y30601667D01*
X20812000Y30649445D01*
X20907556Y30649445D01*
X21050889Y30601667D01*
X21622000Y30030556D01*
X21622000Y30649445D01*
X21622000Y31520556D02*
X21622000Y30949445D01*
X21622000Y31235001D02*
X20622000Y31235001D01*
X20765333Y31139445D01*
X20859778Y31045001D01*
X20907556Y30949445D01*
X39271667Y-3224444D02*
X39747222Y-3224444D01*
X39176111Y-3510000D02*
X39509444Y-2510000D01*
X39842778Y-3510000D01*
X39942778Y-3510000D02*
X39942778Y-2510000D01*
X40180556Y-2510000D01*
X40323889Y-2557778D01*
X40419445Y-2653333D01*
X40466111Y-2747778D01*
X40513889Y-2938889D01*
X40513889Y-3081111D01*
X40466111Y-3272222D01*
X40419445Y-3366667D01*
X40323889Y-3462222D01*
X40180556Y-3510000D01*
X39942778Y-3510000D01*
X40661667Y-2605556D02*
X40709445Y-2557778D01*
X40803889Y-2510000D01*
X41042778Y-2510000D01*
X41137222Y-2557778D01*
X41185000Y-2605556D01*
X41232778Y-2700000D01*
X41232778Y-2795556D01*
X41185000Y-2938889D01*
X40613889Y-3510000D01*
X41232778Y-3510000D01*
X41856111Y-2510000D02*
X41380556Y-2510000D01*
X41332778Y-2986667D01*
X41380556Y-2938889D01*
X41476111Y-2891111D01*
X41713889Y-2891111D01*
X41809445Y-2938889D01*
X41856111Y-2986667D01*
X41903889Y-3081111D01*
X41903889Y-3320000D01*
X41856111Y-3414444D01*
X41809445Y-3462222D01*
X41713889Y-3510000D01*
X41476111Y-3510000D01*
X41380556Y-3462222D01*
X41332778Y-3414444D01*
X-33089000Y4110000D02*
X-33089000Y5110000D01*
X-32851222Y5110000D01*
X-32707889Y5062222D01*
X-32612333Y4966667D01*
X-32565667Y4872222D01*
X-32517889Y4681111D01*
X-32517889Y4538889D01*
X-32565667Y4347778D01*
X-32612333Y4253333D01*
X-32707889Y4157778D01*
X-32851222Y4110000D01*
X-33089000Y4110000D01*
X-31741222Y4776667D02*
X-31741222Y4110000D01*
X-31980111Y5157778D02*
X-32217889Y4443333D01*
X-31599000Y4443333D01*
X-31041222Y17095556D02*
X-30565667Y17095556D01*
X-31136778Y16810000D02*
X-30803445Y17810000D01*
X-30470111Y16810000D01*
X-29693444Y17476667D02*
X-29693444Y16810000D01*
X-29932333Y17857778D02*
X-30170111Y17143333D01*
X-29551222Y17143333D01*
X47526667Y4110000D02*
X47193334Y4586667D01*
X46955556Y4110000D02*
X46955556Y5110000D01*
X47336667Y5110000D01*
X47432223Y5062222D01*
X47478889Y5014444D01*
X47526667Y4920000D01*
X47526667Y4776667D01*
X47478889Y4681111D01*
X47432223Y4633333D01*
X47336667Y4586667D01*
X46955556Y4586667D01*
X47874445Y5014444D02*
X47922223Y5062222D01*
X48016667Y5110000D01*
X48255556Y5110000D01*
X48350000Y5062222D01*
X48397778Y5014444D01*
X48445556Y4920000D01*
X48445556Y4824444D01*
X48397778Y4681111D01*
X47826667Y4110000D01*
X48445556Y4110000D01*
X48793334Y5014444D02*
X48841112Y5062222D01*
X48935556Y5110000D01*
X49174445Y5110000D01*
X49268889Y5062222D01*
X49316667Y5014444D01*
X49364445Y4920000D01*
X49364445Y4824444D01*
X49316667Y4681111D01*
X48745556Y4110000D01*
X49364445Y4110000D01*
X-1333556Y29778334D02*
X-1285778Y29730556D01*
X-1238000Y29588334D01*
X-1238000Y29492778D01*
X-1285778Y29349445D01*
X-1381333Y29255001D01*
X-1475778Y29207223D01*
X-1666889Y29159445D01*
X-1809111Y29159445D01*
X-2000222Y29207223D01*
X-2094667Y29255001D01*
X-2190222Y29349445D01*
X-2238000Y29492778D01*
X-2238000Y29588334D01*
X-2190222Y29730556D01*
X-2142444Y29778334D01*
X-1238000Y30649445D02*
X-1238000Y30078334D01*
X-1238000Y30363890D02*
X-2238000Y30363890D01*
X-2094667Y30268334D01*
X-2000222Y30173890D01*
X-1952444Y30078334D01*
X-1238000Y31045001D02*
X-1238000Y31235001D01*
X-1285778Y31330556D01*
X-1333556Y31378334D01*
X-1475778Y31472778D01*
X-1666889Y31520556D01*
X-2048000Y31520556D01*
X-2142444Y31472778D01*
X-2190222Y31426112D01*
X-2238000Y31330556D01*
X-2238000Y31139445D01*
X-2190222Y31045001D01*
X-2142444Y30997223D01*
X-2048000Y30949445D01*
X-1809111Y30949445D01*
X-1714667Y30997223D01*
X-1666889Y31045001D01*
X-1619111Y31139445D01*
X-1619111Y31330556D01*
X-1666889Y31426112D01*
X-1714667Y31472778D01*
X-1809111Y31520556D01*
X-31065111Y-8590000D02*
X-31065111Y-7590000D01*
X-30827333Y-7590000D01*
X-30684000Y-7637778D01*
X-30588444Y-7733333D01*
X-30541778Y-7827778D01*
X-30494000Y-8018889D01*
X-30494000Y-8161111D01*
X-30541778Y-8352222D01*
X-30588444Y-8446667D01*
X-30684000Y-8542222D01*
X-30827333Y-8590000D01*
X-31065111Y-8590000D01*
X-29622889Y-8590000D02*
X-30194000Y-8590000D01*
X-29908444Y-8590000D02*
X-29908444Y-7590000D01*
X-30004000Y-7733333D01*
X-30098444Y-7827778D01*
X-30194000Y-7875556D01*
D14*
X35828336Y-20190000D02*
X36756669Y-20190000D01*
X36256669Y-20761667D01*
X36471669Y-20761667D01*
X36613336Y-20833333D01*
X36685003Y-20905000D01*
X36756669Y-21046667D01*
X36756669Y-21405000D01*
X36685003Y-21546667D01*
X36613336Y-21618333D01*
X36471669Y-21690000D01*
X36043336Y-21690000D01*
X35900003Y-21618333D01*
X35828336Y-21546667D01*
X37256669Y-20190000D02*
X37756669Y-21690000D01*
X38256669Y-20190000D01*
X38756669Y-20190000D02*
X39685002Y-20190000D01*
X39185002Y-20761667D01*
X39400002Y-20761667D01*
X39541669Y-20833333D01*
X39613336Y-20905000D01*
X39685002Y-21046667D01*
X39685002Y-21405000D01*
X39613336Y-21546667D01*
X39541669Y-21618333D01*
X39400002Y-21690000D01*
X38971669Y-21690000D01*
X38828336Y-21618333D01*
X38756669Y-21546667D01*
X41285001Y-21690000D02*
X41285001Y-20190000D01*
X43070001Y-20118333D02*
X41785001Y-22046667D01*
X43926668Y-20190000D02*
X44213334Y-20190000D01*
X44355001Y-20261667D01*
X44498334Y-20405000D01*
X44570001Y-20690000D01*
X44570001Y-21190000D01*
X44498334Y-21475000D01*
X44355001Y-21618333D01*
X44213334Y-21690000D01*
X43926668Y-21690000D01*
X43785001Y-21618333D01*
X43641668Y-21475000D01*
X43570001Y-21190000D01*
X43570001Y-20690000D01*
X43641668Y-20405000D01*
X43785001Y-20261667D01*
X43926668Y-20190000D01*
X30550000Y24760667D02*
X31693333Y24760667D01*
X31121667Y24189000D02*
X31121667Y25332333D01*
X33050000Y24189000D02*
X32193333Y24189000D01*
X32621666Y24189000D02*
X32621666Y25689000D01*
X32478333Y25474000D01*
X32336666Y25332333D01*
X32193333Y25260667D01*
X33621667Y24332333D02*
X33693333Y24260667D01*
X33621667Y24189000D01*
X33550000Y24260667D01*
X33621667Y24332333D01*
X33621667Y24189000D01*
X34478333Y25045667D02*
X34336666Y25117333D01*
X34265000Y25189000D01*
X34193333Y25332333D01*
X34193333Y25404000D01*
X34265000Y25545667D01*
X34336666Y25617333D01*
X34478333Y25689000D01*
X34765000Y25689000D01*
X34908333Y25617333D01*
X34978333Y25545667D01*
X35050000Y25404000D01*
X35050000Y25332333D01*
X34978333Y25189000D01*
X34908333Y25117333D01*
X34765000Y25045667D01*
X34478333Y25045667D01*
X34336666Y24974000D01*
X34265000Y24904000D01*
X34193333Y24760667D01*
X34193333Y24474000D01*
X34265000Y24332333D01*
X34336666Y24260667D01*
X34478333Y24189000D01*
X34765000Y24189000D01*
X34908333Y24260667D01*
X34978333Y24332333D01*
X35050000Y24474000D01*
X35050000Y24760667D01*
X34978333Y24904000D01*
X34908333Y24974000D01*
X34765000Y25045667D01*
X35550000Y25689000D02*
X36050000Y24189000D01*
X36550000Y25689000D01*
D10*
X11176444Y29207223D02*
X11176444Y29682778D01*
X11462000Y29111667D02*
X10462000Y29445000D01*
X11462000Y29778334D01*
X10557556Y30126112D02*
X10509778Y30173890D01*
X10462000Y30268334D01*
X10462000Y30507223D01*
X10509778Y30601667D01*
X10557556Y30649445D01*
X10652000Y30697223D01*
X10747556Y30697223D01*
X10890889Y30649445D01*
X11462000Y30078334D01*
X11462000Y30697223D01*
X10462000Y31520556D02*
X10462000Y31045001D01*
X10938667Y30997223D01*
X10890889Y31045001D01*
X10843111Y31140556D01*
X10843111Y31378334D01*
X10890889Y31473890D01*
X10938667Y31520556D01*
X11033111Y31568334D01*
X11272000Y31568334D01*
X11366444Y31520556D01*
X11414222Y31473890D01*
X11462000Y31378334D01*
X11462000Y31140556D01*
X11414222Y31045001D01*
X11366444Y30997223D01*
D14*
X-2171665Y34350000D02*
X-3028332Y34350000D01*
X-2599999Y34350000D02*
X-2599999Y35850000D01*
X-2743332Y35635000D01*
X-2884999Y35493333D01*
X-3028332Y35421667D01*
X-1671665Y35850000D02*
X-1171665Y34350000D01*
X-671665Y35850000D01*
X113335Y35206667D02*
X-28332Y35278333D01*
X-99998Y35350000D01*
X-171665Y35493333D01*
X-171665Y35565000D01*
X-99998Y35706667D01*
X-28332Y35778333D01*
X113335Y35850000D01*
X400002Y35850000D01*
X543335Y35778333D01*
X613335Y35706667D01*
X685002Y35565000D01*
X685002Y35493333D01*
X613335Y35350000D01*
X543335Y35278333D01*
X400002Y35206667D01*
X113335Y35206667D01*
X-28332Y35135000D01*
X-99998Y35065000D01*
X-171665Y34921667D01*
X-171665Y34635000D01*
X-99998Y34493333D01*
X-28332Y34421667D01*
X113335Y34350000D01*
X400002Y34350000D01*
X543335Y34421667D01*
X613335Y34493333D01*
X685002Y34635000D01*
X685002Y34921667D01*
X613335Y35065000D01*
X543335Y35135000D01*
X400002Y35206667D01*
X2285001Y34350000D02*
X2285001Y35850000D01*
X4070001Y35921667D02*
X2785001Y33993333D01*
X4926668Y35850000D02*
X5213334Y35850000D01*
X5355001Y35778333D01*
X5498334Y35635000D01*
X5570001Y35350000D01*
X5570001Y34850000D01*
X5498334Y34565000D01*
X5355001Y34421667D01*
X5213334Y34350000D01*
X4926668Y34350000D01*
X4785001Y34421667D01*
X4641668Y34565000D01*
X4570001Y34850000D01*
X4570001Y35350000D01*
X4641668Y35635000D01*
X4785001Y35778333D01*
X4926668Y35850000D01*
D10*
X-33065111Y14270000D02*
X-33065111Y15270000D01*
X-32827333Y15270000D01*
X-32684000Y15222222D01*
X-32588444Y15126667D01*
X-32541778Y15032222D01*
X-32494000Y14841111D01*
X-32494000Y14698889D01*
X-32541778Y14507778D01*
X-32588444Y14413333D01*
X-32684000Y14317778D01*
X-32827333Y14270000D01*
X-33065111Y14270000D01*
X-31717333Y15270000D02*
X-31908444Y15270000D01*
X-32004000Y15222222D01*
X-32050667Y15174444D01*
X-32146222Y15032222D01*
X-32194000Y14841111D01*
X-32194000Y14460000D01*
X-32146222Y14365556D01*
X-32098444Y14317778D01*
X-32004000Y14270000D01*
X-31812889Y14270000D01*
X-31717333Y14317778D01*
X-31670667Y14365556D01*
X-31622889Y14460000D01*
X-31622889Y14698889D01*
X-31670667Y14793333D01*
X-31717333Y14841111D01*
X-31812889Y14888889D01*
X-32004000Y14888889D01*
X-32098444Y14841111D01*
X-32146222Y14793333D01*
X-32194000Y14698889D01*
X-9381333Y29230556D02*
X-9381333Y29563889D01*
X-8858000Y29707223D02*
X-8858000Y29230556D01*
X-9858000Y29230556D01*
X-9858000Y29707223D01*
X-8858000Y30578334D02*
X-8858000Y30007223D01*
X-8858000Y30292779D02*
X-9858000Y30292779D01*
X-9714667Y30197223D01*
X-9620222Y30102779D01*
X-9572444Y30007223D01*
X-9858000Y31355001D02*
X-9858000Y31163890D01*
X-9810222Y31068334D01*
X-9762444Y31021667D01*
X-9620222Y30926112D01*
X-9429111Y30878334D01*
X-9048000Y30878334D01*
X-8953556Y30926112D01*
X-8905778Y30973890D01*
X-8858000Y31068334D01*
X-8858000Y31259445D01*
X-8905778Y31355001D01*
X-8953556Y31401667D01*
X-9048000Y31449445D01*
X-9286889Y31449445D01*
X-9381333Y31401667D01*
X-9429111Y31355001D01*
X-9476889Y31259445D01*
X-9476889Y31068334D01*
X-9429111Y30973890D01*
X-9381333Y30926112D01*
X-9286889Y30878334D01*
X-30731778Y-5526667D02*
X-30588444Y-5573333D01*
X-30541778Y-5621111D01*
X-30494000Y-5716667D01*
X-30494000Y-5860000D01*
X-30541778Y-5954444D01*
X-30588444Y-6002222D01*
X-30684000Y-6050000D01*
X-31065111Y-6050000D01*
X-31065111Y-5050000D01*
X-30731778Y-5050000D01*
X-30636222Y-5097778D01*
X-30588444Y-5145556D01*
X-30541778Y-5240000D01*
X-30541778Y-5335556D01*
X-30588444Y-5431111D01*
X-30636222Y-5478889D01*
X-30731778Y-5526667D01*
X-31065111Y-5526667D01*
X-29622889Y-6050000D02*
X-30194000Y-6050000D01*
X-29908444Y-6050000D02*
X-29908444Y-5050000D01*
X-30004000Y-5193333D01*
X-30098444Y-5287778D01*
X-30194000Y-5335556D01*
D14*
X31585834Y28157333D02*
X31444167Y28229000D01*
X31229167Y28229000D01*
X31014167Y28157333D01*
X30872500Y28014000D01*
X30800834Y27872333D01*
X30729167Y27585667D01*
X30729167Y27372333D01*
X30800834Y27085667D01*
X30872500Y26944000D01*
X31014167Y26800667D01*
X31229167Y26729000D01*
X31372500Y26729000D01*
X31585834Y26800667D01*
X31657500Y26872333D01*
X31657500Y27372333D01*
X31372500Y27372333D01*
X32157500Y26729000D02*
X32157500Y28229000D01*
X33014167Y26729000D01*
X33014167Y28229000D01*
X33514167Y26729000D02*
X33514167Y28229000D01*
X33870834Y28229000D01*
X34085834Y28157333D01*
X34229167Y28014000D01*
X34299167Y27872333D01*
X34370834Y27585667D01*
X34370834Y27372333D01*
X34299167Y27085667D01*
X34229167Y26944000D01*
X34085834Y26800667D01*
X33870834Y26729000D01*
X33514167Y26729000D01*
X-20180000Y-15195000D02*
X-19965000Y-15265000D01*
X-19895000Y-15336667D01*
X-19823333Y-15480000D01*
X-19823333Y-15695000D01*
X-19895000Y-15836667D01*
X-19965000Y-15908333D01*
X-20108333Y-15980000D01*
X-20680000Y-15980000D01*
X-20680000Y-14480000D01*
X-20180000Y-14480000D01*
X-20036667Y-14551667D01*
X-19965000Y-14623333D01*
X-19895000Y-14765000D01*
X-19895000Y-14908333D01*
X-19965000Y-15051667D01*
X-20036667Y-15123333D01*
X-20180000Y-15195000D01*
X-20680000Y-15195000D01*
X-18966666Y-14480000D02*
X-18680000Y-14480000D01*
X-18538333Y-14551667D01*
X-18395000Y-14695000D01*
X-18323333Y-14980000D01*
X-18323333Y-15480000D01*
X-18395000Y-15765000D01*
X-18538333Y-15908333D01*
X-18680000Y-15980000D01*
X-18966666Y-15980000D01*
X-19108333Y-15908333D01*
X-19251666Y-15765000D01*
X-19323333Y-15480000D01*
X-19323333Y-14980000D01*
X-19251666Y-14695000D01*
X-19108333Y-14551667D01*
X-18966666Y-14480000D01*
X-17680000Y-15551667D02*
X-16966666Y-15551667D01*
X-17823333Y-15980000D02*
X-17323333Y-14480000D01*
X-16823333Y-15980000D01*
X-15466666Y-15980000D02*
X-15966666Y-15265000D01*
X-16323333Y-15980000D02*
X-16323333Y-14480000D01*
X-15751666Y-14480000D01*
X-15608333Y-14551667D01*
X-15538333Y-14623333D01*
X-15466666Y-14765000D01*
X-15466666Y-14980000D01*
X-15538333Y-15123333D01*
X-15608333Y-15195000D01*
X-15751666Y-15265000D01*
X-16323333Y-15265000D01*
X-14966666Y-15980000D02*
X-14966666Y-14480000D01*
X-14609999Y-14480000D01*
X-14394999Y-14551667D01*
X-14251666Y-14695000D01*
X-14181666Y-14836667D01*
X-14109999Y-15123333D01*
X-14109999Y-15336667D01*
X-14181666Y-15623333D01*
X-14251666Y-15765000D01*
X-14394999Y-15908333D01*
X-14609999Y-15980000D01*
X-14966666Y-15980000D01*
X-12510000Y-15980000D02*
X-12510000Y-14480000D01*
X-11938333Y-14480000D01*
X-11795000Y-14551667D01*
X-11725000Y-14623333D01*
X-11653333Y-14765000D01*
X-11653333Y-14980000D01*
X-11725000Y-15123333D01*
X-11795000Y-15195000D01*
X-11938333Y-15265000D01*
X-12510000Y-15265000D01*
X-10796666Y-14480000D02*
X-10510000Y-14480000D01*
X-10368333Y-14551667D01*
X-10225000Y-14695000D01*
X-10153333Y-14980000D01*
X-10153333Y-15480000D01*
X-10225000Y-15765000D01*
X-10368333Y-15908333D01*
X-10510000Y-15980000D01*
X-10796666Y-15980000D01*
X-10938333Y-15908333D01*
X-11081666Y-15765000D01*
X-11153333Y-15480000D01*
X-11153333Y-14980000D01*
X-11081666Y-14695000D01*
X-10938333Y-14551667D01*
X-10796666Y-14480000D01*
X-9653333Y-14480000D02*
X-9296666Y-15980000D01*
X-9010000Y-14908333D01*
X-8725000Y-15980000D01*
X-8368333Y-14480000D01*
X-7868333Y-15195000D02*
X-7368333Y-15195000D01*
X-7153333Y-15980000D02*
X-7868333Y-15980000D01*
X-7868333Y-14480000D01*
X-7153333Y-14480000D01*
X-5796666Y-15980000D02*
X-6296666Y-15265000D01*
X-6653333Y-15980000D02*
X-6653333Y-14480000D01*
X-6081666Y-14480000D01*
X-5938333Y-14551667D01*
X-5868333Y-14623333D01*
X-5796666Y-14765000D01*
X-5796666Y-14980000D01*
X-5868333Y-15123333D01*
X-5938333Y-15195000D01*
X-6081666Y-15265000D01*
X-6653333Y-15265000D01*
D10*
X43803889Y-10844444D02*
X44279444Y-10844444D01*
X43708333Y-11130000D02*
X44041666Y-10130000D01*
X44375000Y-11130000D01*
X45093889Y-11034444D02*
X45046111Y-11082222D01*
X44903889Y-11130000D01*
X44808333Y-11130000D01*
X44665000Y-11082222D01*
X44570556Y-10986667D01*
X44522778Y-10892222D01*
X44475000Y-10701111D01*
X44475000Y-10558889D01*
X44522778Y-10367778D01*
X44570556Y-10273333D01*
X44665000Y-10177778D01*
X44808333Y-10130000D01*
X44903889Y-10130000D01*
X45046111Y-10177778D01*
X45093889Y-10225556D01*
X45241667Y-10225556D02*
X45289445Y-10177778D01*
X45383889Y-10130000D01*
X45622778Y-10130000D01*
X45717222Y-10177778D01*
X45765000Y-10225556D01*
X45812778Y-10320000D01*
X45812778Y-10415556D01*
X45765000Y-10558889D01*
X45193889Y-11130000D01*
X45812778Y-11130000D01*
X45912778Y-10130000D02*
X46531667Y-10130000D01*
X46198334Y-10511111D01*
X46341667Y-10511111D01*
X46436111Y-10558889D01*
X46483889Y-10606667D01*
X46531667Y-10701111D01*
X46531667Y-10940000D01*
X46483889Y-11034444D01*
X46436111Y-11082222D01*
X46341667Y-11130000D01*
X46056111Y-11130000D01*
X45960556Y-11082222D01*
X45912778Y-11034444D01*
X36176667Y-970000D02*
X36176667Y30000D01*
X36747778Y-970000D01*
X36747778Y30000D01*
X37904445Y77778D02*
X37047778Y-1207778D01*
X38823334Y-874444D02*
X38775556Y-922222D01*
X38633334Y-970000D01*
X38537778Y-970000D01*
X38394445Y-922222D01*
X38300001Y-826667D01*
X38252223Y-732222D01*
X38204445Y-541111D01*
X38204445Y-398889D01*
X38252223Y-207778D01*
X38300001Y-113333D01*
X38394445Y-17778D01*
X38537778Y30000D01*
X38633334Y30000D01*
X38775556Y-17778D01*
X38823334Y-65556D01*
X39335556Y30000D02*
X39906667Y30000D01*
X39621112Y-970000D02*
X39621112Y30000D01*
X40254445Y-65556D02*
X40302223Y-17778D01*
X40396667Y30000D01*
X40635556Y30000D01*
X40730000Y-17778D01*
X40777778Y-65556D01*
X40825556Y-160000D01*
X40825556Y-255556D01*
X40777778Y-398889D01*
X40206667Y-970000D01*
X40825556Y-970000D01*
X41125556Y30000D02*
X41744445Y30000D01*
X41411112Y-351111D01*
X41554445Y-351111D01*
X41648889Y-398889D01*
X41696667Y-446667D01*
X41744445Y-541111D01*
X41744445Y-780000D01*
X41696667Y-874444D01*
X41648889Y-922222D01*
X41554445Y-970000D01*
X41268889Y-970000D01*
X41173334Y-922222D01*
X41125556Y-874444D01*
X46955556Y11730000D02*
X46955556Y12730000D01*
X47526667Y11730000D01*
X47526667Y12730000D01*
X47874445Y12634444D02*
X47922223Y12682222D01*
X48016667Y12730000D01*
X48255556Y12730000D01*
X48350000Y12682222D01*
X48397778Y12634444D01*
X48445556Y12540000D01*
X48445556Y12444444D01*
X48397778Y12301111D01*
X47826667Y11730000D01*
X48445556Y11730000D01*
X49222223Y12396667D02*
X49222223Y11730000D01*
X48983334Y12777778D02*
X48745556Y12063333D01*
X49364445Y12063333D01*
X39247778Y-5764444D02*
X39723333Y-5764444D01*
X39152222Y-6050000D02*
X39485555Y-5050000D01*
X39818889Y-6050000D01*
X39918889Y-6050000D02*
X39918889Y-5050000D01*
X40156667Y-5050000D01*
X40300000Y-5097778D01*
X40395556Y-5193333D01*
X40442222Y-5287778D01*
X40490000Y-5478889D01*
X40490000Y-5621111D01*
X40442222Y-5812222D01*
X40395556Y-5906667D01*
X40300000Y-6002222D01*
X40156667Y-6050000D01*
X39918889Y-6050000D01*
X40637778Y-5145556D02*
X40685556Y-5097778D01*
X40780000Y-5050000D01*
X41018889Y-5050000D01*
X41113333Y-5097778D01*
X41161111Y-5145556D01*
X41208889Y-5240000D01*
X41208889Y-5335556D01*
X41161111Y-5478889D01*
X40590000Y-6050000D01*
X41208889Y-6050000D01*
X41308889Y-5050000D02*
X41927778Y-5050000D01*
X41594445Y-5431111D01*
X41737778Y-5431111D01*
X41832222Y-5478889D01*
X41880000Y-5526667D01*
X41927778Y-5621111D01*
X41927778Y-5860000D01*
X41880000Y-5954444D01*
X41832222Y-6002222D01*
X41737778Y-6050000D01*
X41452222Y-6050000D01*
X41356667Y-6002222D01*
X41308889Y-5954444D01*
X47503334Y16810000D02*
X47026667Y16810000D01*
X47026667Y17810000D01*
X47851112Y17714444D02*
X47898890Y17762222D01*
X47993334Y17810000D01*
X48232223Y17810000D01*
X48326667Y17762222D01*
X48374445Y17714444D01*
X48422223Y17620000D01*
X48422223Y17524444D01*
X48374445Y17381111D01*
X47803334Y16810000D01*
X48422223Y16810000D01*
X48960001Y17810000D02*
X49055556Y17810000D01*
X49151112Y17762222D01*
X49198890Y17714444D01*
X49245556Y17620000D01*
X49293334Y17428889D01*
X49293334Y17191111D01*
X49245556Y17000000D01*
X49198890Y16905556D01*
X49151112Y16857778D01*
X49055556Y16810000D01*
X48960001Y16810000D01*
X48865556Y16857778D01*
X48817779Y16905556D01*
X48770001Y17000000D01*
X48722223Y17191111D01*
X48722223Y17428889D01*
X48770001Y17620000D01*
X48817779Y17714444D01*
X48865556Y17762222D01*
X48960001Y17810000D01*
X16542000Y29135556D02*
X15542000Y29135556D01*
X15542000Y29373334D01*
X15589778Y29516667D01*
X15685333Y29612223D01*
X15779778Y29658889D01*
X15970889Y29706667D01*
X16113111Y29706667D01*
X16304222Y29658889D01*
X16398667Y29612223D01*
X16494222Y29516667D01*
X16542000Y29373334D01*
X16542000Y29135556D01*
X15637556Y30054445D02*
X15589778Y30102223D01*
X15542000Y30196667D01*
X15542000Y30435556D01*
X15589778Y30530000D01*
X15637556Y30577778D01*
X15732000Y30625556D01*
X15827556Y30625556D01*
X15970889Y30577778D01*
X16542000Y30006667D01*
X16542000Y30625556D01*
X15875333Y31402223D02*
X16542000Y31402223D01*
X15494222Y31163334D02*
X16208667Y30925556D01*
X16208667Y31544445D01*
X43915556Y11730000D02*
X43915556Y12730000D01*
X44486667Y11730000D01*
X44486667Y12730000D01*
X44834445Y12634444D02*
X44882223Y12682222D01*
X44976667Y12730000D01*
X45215556Y12730000D01*
X45310000Y12682222D01*
X45357778Y12634444D01*
X45405556Y12540000D01*
X45405556Y12444444D01*
X45357778Y12301111D01*
X44786667Y11730000D01*
X45405556Y11730000D01*
X45705556Y12730000D02*
X46324445Y12730000D01*
X45991112Y12348889D01*
X46134445Y12348889D01*
X46228889Y12301111D01*
X46276667Y12253333D01*
X46324445Y12158889D01*
X46324445Y11920000D01*
X46276667Y11825556D01*
X46228889Y11777778D01*
X46134445Y11730000D01*
X45848889Y11730000D01*
X45753334Y11777778D01*
X45705556Y11825556D01*
D14*
X10575333Y-20938333D02*
X10647000Y-20723333D01*
X10647000Y-20366666D01*
X10575333Y-20223333D01*
X10503667Y-20153333D01*
X10362000Y-20081666D01*
X10218667Y-20081666D01*
X10075333Y-20153333D01*
X10003667Y-20223333D01*
X9932000Y-20366666D01*
X9862000Y-20653333D01*
X9790333Y-20795000D01*
X9718667Y-20866666D01*
X9575333Y-20938333D01*
X9432000Y-20938333D01*
X9290333Y-20866666D01*
X9218667Y-20795000D01*
X9147000Y-20653333D01*
X9147000Y-20295000D01*
X9218667Y-20081666D01*
X10647000Y-19581666D02*
X9147000Y-19581666D01*
D10*
X46938889Y-18464444D02*
X47414444Y-18464444D01*
X46843333Y-18750000D02*
X47176666Y-17750000D01*
X47510000Y-18750000D01*
X47610000Y-18226667D02*
X47943333Y-18226667D01*
X48086667Y-18750000D02*
X47610000Y-18750000D01*
X47610000Y-17750000D01*
X48086667Y-17750000D01*
X48234445Y-17845556D02*
X48282223Y-17797778D01*
X48376667Y-17750000D01*
X48615556Y-17750000D01*
X48710000Y-17797778D01*
X48757778Y-17845556D01*
X48805556Y-17940000D01*
X48805556Y-18035556D01*
X48757778Y-18178889D01*
X48186667Y-18750000D01*
X48805556Y-18750000D01*
X49476667Y-18750000D02*
X48905556Y-18750000D01*
X49191112Y-18750000D02*
X49191112Y-17750000D01*
X49095556Y-17893333D01*
X49001112Y-17987778D01*
X48905556Y-18035556D01*
X-14890222Y29682778D02*
X-14938000Y29588334D01*
X-14938000Y29445000D01*
X-14890222Y29301667D01*
X-14794667Y29207223D01*
X-14700222Y29159445D01*
X-14509111Y29111667D01*
X-14366889Y29111667D01*
X-14175778Y29159445D01*
X-14081333Y29207223D01*
X-13985778Y29301667D01*
X-13938000Y29445000D01*
X-13938000Y29540556D01*
X-13985778Y29682778D01*
X-14033556Y29730556D01*
X-14366889Y29730556D01*
X-14366889Y29540556D01*
X-13938000Y30601667D02*
X-13938000Y30030556D01*
X-13938000Y30316112D02*
X-14938000Y30316112D01*
X-14794667Y30220556D01*
X-14700222Y30126112D01*
X-14652444Y30030556D01*
X-14938000Y30901667D02*
X-14938000Y31568334D01*
X-13938000Y31139445D01*
D14*
X14016667Y-23500000D02*
X13516667Y-22785000D01*
X13160000Y-23500000D02*
X13160000Y-22000000D01*
X13731667Y-22000000D01*
X13875000Y-22071667D01*
X13945000Y-22143333D01*
X14016667Y-22285000D01*
X14016667Y-22500000D01*
X13945000Y-22643333D01*
X13875000Y-22715000D01*
X13731667Y-22785000D01*
X13160000Y-22785000D01*
X14516667Y-23428333D02*
X14731667Y-23500000D01*
X15088334Y-23500000D01*
X15231667Y-23428333D01*
X15301667Y-23356667D01*
X15373334Y-23215000D01*
X15373334Y-23071667D01*
X15301667Y-22928333D01*
X15231667Y-22856667D01*
X15088334Y-22785000D01*
X14801667Y-22715000D01*
X14660000Y-22643333D01*
X14588334Y-22571667D01*
X14516667Y-22428333D01*
X14516667Y-22285000D01*
X14588334Y-22143333D01*
X14660000Y-22071667D01*
X14801667Y-22000000D01*
X15160000Y-22000000D01*
X15373334Y-22071667D01*
X15873334Y-22000000D02*
X16730001Y-22000000D01*
X16301667Y-23500000D02*
X16301667Y-22000000D01*
D10*
X-31017889Y4633333D02*
X-30684556Y4633333D01*
X-30541222Y4110000D02*
X-31017889Y4110000D01*
X-31017889Y5110000D01*
X-30541222Y5110000D01*
X-29764555Y5110000D02*
X-29955666Y5110000D01*
X-30051222Y5062222D01*
X-30097889Y5014444D01*
X-30193444Y4872222D01*
X-30241222Y4681111D01*
X-30241222Y4300000D01*
X-30193444Y4205556D01*
X-30145666Y4157778D01*
X-30051222Y4110000D01*
X-29860111Y4110000D01*
X-29764555Y4157778D01*
X-29717889Y4205556D01*
X-29670111Y4300000D01*
X-29670111Y4538889D01*
X-29717889Y4633333D01*
X-29764555Y4681111D01*
X-29860111Y4728889D01*
X-30051222Y4728889D01*
X-30145666Y4681111D01*
X-30193444Y4633333D01*
X-30241222Y4538889D01*
X23638667Y29492778D02*
X23685333Y29636112D01*
X23733111Y29682778D01*
X23828667Y29730556D01*
X23972000Y29730556D01*
X24066444Y29682778D01*
X24114222Y29636112D01*
X24162000Y29540556D01*
X24162000Y29159445D01*
X23162000Y29159445D01*
X23162000Y29492778D01*
X23209778Y29588334D01*
X23257556Y29636112D01*
X23352000Y29682778D01*
X23447556Y29682778D01*
X23543111Y29636112D01*
X23590889Y29588334D01*
X23638667Y29492778D01*
X23638667Y29159445D01*
X23257556Y30078334D02*
X23209778Y30126112D01*
X23162000Y30220556D01*
X23162000Y30459445D01*
X23209778Y30553889D01*
X23257556Y30601667D01*
X23352000Y30649445D01*
X23447556Y30649445D01*
X23590889Y30601667D01*
X24162000Y30030556D01*
X24162000Y30649445D01*
X23162000Y31472778D02*
X23162000Y30997223D01*
X23638667Y30949445D01*
X23590889Y30997223D01*
X23543111Y31092778D01*
X23543111Y31330556D01*
X23590889Y31426112D01*
X23638667Y31472778D01*
X23733111Y31520556D01*
X23972000Y31520556D01*
X24066444Y31472778D01*
X24114222Y31426112D01*
X24162000Y31330556D01*
X24162000Y31092778D01*
X24114222Y30997223D01*
X24066444Y30949445D01*
X-21900000Y-2000000D02*
X-21900000Y-1000000D01*
X-21518889Y-1000000D01*
X-21423333Y-1047778D01*
X-21376667Y-1095556D01*
X-21328889Y-1190000D01*
X-21328889Y-1333333D01*
X-21376667Y-1428889D01*
X-21423333Y-1476667D01*
X-21518889Y-1523333D01*
X-21900000Y-1523333D01*
X-21028889Y-1000000D02*
X-20791111Y-2000000D01*
X-20600000Y-1285556D01*
X-20410000Y-2000000D01*
X-20172222Y-1000000D01*
X-19301111Y-2000000D02*
X-19634444Y-1523333D01*
X-19872222Y-2000000D02*
X-19872222Y-1000000D01*
X-19491111Y-1000000D01*
X-19395555Y-1047778D01*
X-19348889Y-1095556D01*
X-19301111Y-1190000D01*
X-19301111Y-1333333D01*
X-19348889Y-1428889D01*
X-19395555Y-1476667D01*
X-19491111Y-1523333D01*
X-19872222Y-1523333D01*
X-19001111Y-2095556D02*
X-18238889Y-2095556D01*
X-17701111Y-1000000D02*
X-17510000Y-1000000D01*
X-17415556Y-1047778D01*
X-17320000Y-1143333D01*
X-17272222Y-1333333D01*
X-17272222Y-1666667D01*
X-17320000Y-1856667D01*
X-17415556Y-1952222D01*
X-17510000Y-2000000D01*
X-17701111Y-2000000D01*
X-17795556Y-1952222D01*
X-17891111Y-1856667D01*
X-17938889Y-1666667D01*
X-17938889Y-1333333D01*
X-17891111Y-1143333D01*
X-17795556Y-1047778D01*
X-17701111Y-1000000D01*
X-16972222Y-2000000D02*
X-16972222Y-1000000D01*
X-16401111Y-2000000D02*
X-16828889Y-1428889D01*
X-16401111Y-1000000D02*
X-16972222Y-1571111D01*
X26606444Y29730556D02*
X26654222Y29682778D01*
X26702000Y29540556D01*
X26702000Y29445000D01*
X26654222Y29301667D01*
X26558667Y29207223D01*
X26464222Y29159445D01*
X26273111Y29111667D01*
X26130889Y29111667D01*
X25939778Y29159445D01*
X25845333Y29207223D01*
X25749778Y29301667D01*
X25702000Y29445000D01*
X25702000Y29540556D01*
X25749778Y29682778D01*
X25797556Y29730556D01*
X25797556Y30078334D02*
X25749778Y30126112D01*
X25702000Y30220556D01*
X25702000Y30459445D01*
X25749778Y30553889D01*
X25797556Y30601667D01*
X25892000Y30649445D01*
X25987556Y30649445D01*
X26130889Y30601667D01*
X26702000Y30030556D01*
X26702000Y30649445D01*
X26035333Y31426112D02*
X26702000Y31426112D01*
X25654222Y31187223D02*
X26368667Y30949445D01*
X26368667Y31568334D01*
X-30708445Y-15686667D02*
X-31041778Y-15686667D01*
X-31041778Y-16210000D02*
X-31041778Y-15210000D01*
X-30565111Y-15210000D01*
X-30217333Y-15305556D02*
X-30169555Y-15257778D01*
X-30075111Y-15210000D01*
X-29836222Y-15210000D01*
X-29741778Y-15257778D01*
X-29694000Y-15305556D01*
X-29646222Y-15400000D01*
X-29646222Y-15495556D01*
X-29694000Y-15638889D01*
X-30265111Y-16210000D01*
X-29646222Y-16210000D01*
X-33041778Y-13146667D02*
X-32708445Y-13146667D01*
X-32565111Y-13670000D02*
X-33041778Y-13670000D01*
X-33041778Y-12670000D01*
X-32565111Y-12670000D01*
X-32265111Y-12670000D02*
X-31646222Y-12670000D01*
X-31979555Y-13051111D01*
X-31836222Y-13051111D01*
X-31741778Y-13098889D01*
X-31694000Y-13146667D01*
X-31646222Y-13241111D01*
X-31646222Y-13480000D01*
X-31694000Y-13574444D01*
X-31741778Y-13622222D01*
X-31836222Y-13670000D01*
X-32121778Y-13670000D01*
X-32217333Y-13622222D01*
X-32265111Y-13574444D01*
X8636444Y29183334D02*
X8636444Y29658889D01*
X8922000Y29087778D02*
X7922000Y29421111D01*
X8922000Y29754445D01*
X8017556Y30102223D02*
X7969778Y30150001D01*
X7922000Y30244445D01*
X7922000Y30483334D01*
X7969778Y30577778D01*
X8017556Y30625556D01*
X8112000Y30673334D01*
X8207556Y30673334D01*
X8350889Y30625556D01*
X8922000Y30054445D01*
X8922000Y30673334D01*
X7922000Y30973334D02*
X7922000Y31592223D01*
X8303111Y31258890D01*
X8303111Y31402223D01*
X8350889Y31496667D01*
X8398667Y31544445D01*
X8493111Y31592223D01*
X8732000Y31592223D01*
X8826444Y31544445D01*
X8874222Y31496667D01*
X8922000Y31402223D01*
X8922000Y31116667D01*
X8874222Y31021112D01*
X8826444Y30973334D01*
X39859445Y11730000D02*
X39382778Y11730000D01*
X39382778Y12730000D01*
X40207223Y12634444D02*
X40255001Y12682222D01*
X40349445Y12730000D01*
X40588334Y12730000D01*
X40682778Y12682222D01*
X40730556Y12634444D01*
X40778334Y12540000D01*
X40778334Y12444444D01*
X40730556Y12301111D01*
X40159445Y11730000D01*
X40778334Y11730000D01*
X41555001Y12396667D02*
X41555001Y11730000D01*
X41316112Y12777778D02*
X41078334Y12063333D01*
X41697223Y12063333D01*
X13478667Y20952778D02*
X13525333Y21096112D01*
X13573111Y21142778D01*
X13668667Y21190556D01*
X13812000Y21190556D01*
X13906444Y21142778D01*
X13954222Y21096112D01*
X14002000Y21000556D01*
X14002000Y20619445D01*
X13002000Y20619445D01*
X13002000Y20952778D01*
X13049778Y21048334D01*
X13097556Y21096112D01*
X13192000Y21142778D01*
X13287556Y21142778D01*
X13383111Y21096112D01*
X13430889Y21048334D01*
X13478667Y20952778D01*
X13478667Y20619445D01*
X13097556Y21538334D02*
X13049778Y21586112D01*
X13002000Y21680556D01*
X13002000Y21919445D01*
X13049778Y22013889D01*
X13097556Y22061667D01*
X13192000Y22109445D01*
X13287556Y22109445D01*
X13430889Y22061667D01*
X14002000Y21490556D01*
X14002000Y22109445D01*
X13002000Y22886112D02*
X13002000Y22695001D01*
X13049778Y22599445D01*
X13097556Y22552778D01*
X13239778Y22457223D01*
X13430889Y22409445D01*
X13812000Y22409445D01*
X13906444Y22457223D01*
X13954222Y22505001D01*
X14002000Y22599445D01*
X14002000Y22790556D01*
X13954222Y22886112D01*
X13906444Y22932778D01*
X13812000Y22980556D01*
X13573111Y22980556D01*
X13478667Y22932778D01*
X13430889Y22886112D01*
X13383111Y22790556D01*
X13383111Y22599445D01*
X13430889Y22505001D01*
X13478667Y22457223D01*
X13573111Y22409445D01*
X43851667Y-8304444D02*
X44327222Y-8304444D01*
X43756111Y-8590000D02*
X44089444Y-7590000D01*
X44422778Y-8590000D01*
X44856111Y-8066667D02*
X44999445Y-8113333D01*
X45046111Y-8161111D01*
X45093889Y-8256667D01*
X45093889Y-8400000D01*
X45046111Y-8494444D01*
X44999445Y-8542222D01*
X44903889Y-8590000D01*
X44522778Y-8590000D01*
X44522778Y-7590000D01*
X44856111Y-7590000D01*
X44951667Y-7637778D01*
X44999445Y-7685556D01*
X45046111Y-7780000D01*
X45046111Y-7875556D01*
X44999445Y-7971111D01*
X44951667Y-8018889D01*
X44856111Y-8066667D01*
X44522778Y-8066667D01*
X45241667Y-7685556D02*
X45289445Y-7637778D01*
X45383889Y-7590000D01*
X45622778Y-7590000D01*
X45717222Y-7637778D01*
X45765000Y-7685556D01*
X45812778Y-7780000D01*
X45812778Y-7875556D01*
X45765000Y-8018889D01*
X45193889Y-8590000D01*
X45812778Y-8590000D01*
X46483889Y-8590000D02*
X45912778Y-8590000D01*
X46198334Y-8590000D02*
X46198334Y-7590000D01*
X46102778Y-7733333D01*
X46008334Y-7827778D01*
X45912778Y-7875556D01*
X-31065111Y14270000D02*
X-31065111Y15270000D01*
X-30827333Y15270000D01*
X-30684000Y15222222D01*
X-30588444Y15126667D01*
X-30541778Y15032222D01*
X-30494000Y14841111D01*
X-30494000Y14698889D01*
X-30541778Y14507778D01*
X-30588444Y14413333D01*
X-30684000Y14317778D01*
X-30827333Y14270000D01*
X-31065111Y14270000D01*
X-29670667Y15270000D02*
X-30146222Y15270000D01*
X-30194000Y14793333D01*
X-30146222Y14841111D01*
X-30050667Y14888889D01*
X-29812889Y14888889D01*
X-29717333Y14841111D01*
X-29670667Y14793333D01*
X-29622889Y14698889D01*
X-29622889Y14460000D01*
X-29670667Y14365556D01*
X-29717333Y14317778D01*
X-29812889Y14270000D01*
X-30050667Y14270000D01*
X-30146222Y14317778D01*
X-30194000Y14365556D01*
X1016444Y20691112D02*
X1016444Y21166667D01*
X1302000Y20595556D02*
X302000Y20928889D01*
X1302000Y21262223D01*
X1302000Y22133334D02*
X1302000Y21562223D01*
X1302000Y21847779D02*
X302000Y21847779D01*
X445333Y21752223D01*
X539778Y21657779D01*
X587556Y21562223D01*
X1302000Y22528890D02*
X1302000Y22718890D01*
X1254222Y22814445D01*
X1206444Y22862223D01*
X1064222Y22956667D01*
X873111Y23004445D01*
X492000Y23004445D01*
X397556Y22956667D01*
X349778Y22910001D01*
X302000Y22814445D01*
X302000Y22623334D01*
X349778Y22528890D01*
X397556Y22481112D01*
X492000Y22433334D01*
X730889Y22433334D01*
X825333Y22481112D01*
X873111Y22528890D01*
X920889Y22623334D01*
X920889Y22814445D01*
X873111Y22910001D01*
X825333Y22956667D01*
X730889Y23004445D01*
X39359445Y2570000D02*
X39930556Y2570000D01*
X39645001Y1570000D02*
X39645001Y2570000D01*
X40278334Y2474444D02*
X40326112Y2522222D01*
X40420556Y2570000D01*
X40659445Y2570000D01*
X40753889Y2522222D01*
X40801667Y2474444D01*
X40849445Y2380000D01*
X40849445Y2284444D01*
X40801667Y2141111D01*
X40230556Y1570000D01*
X40849445Y1570000D01*
X41672778Y2570000D02*
X41197223Y2570000D01*
X41149445Y2093333D01*
X41197223Y2141111D01*
X41292778Y2188889D01*
X41530556Y2188889D01*
X41626112Y2141111D01*
X41672778Y2093333D01*
X41720556Y1998889D01*
X41720556Y1760000D01*
X41672778Y1665556D01*
X41626112Y1617778D01*
X41530556Y1570000D01*
X41292778Y1570000D01*
X41197223Y1617778D01*
X41149445Y1665556D01*
X-32494000Y1665556D02*
X-32541778Y1617778D01*
X-32684000Y1570000D01*
X-32779556Y1570000D01*
X-32922889Y1617778D01*
X-33017333Y1713333D01*
X-33065111Y1807778D01*
X-33112889Y1998889D01*
X-33112889Y2141111D01*
X-33065111Y2332222D01*
X-33017333Y2426667D01*
X-32922889Y2522222D01*
X-32779556Y2570000D01*
X-32684000Y2570000D01*
X-32541778Y2522222D01*
X-32494000Y2474444D01*
X-32194000Y2570000D02*
X-31575111Y2570000D01*
X-31908444Y2188889D01*
X-31765111Y2188889D01*
X-31670667Y2141111D01*
X-31622889Y2093333D01*
X-31575111Y1998889D01*
X-31575111Y1760000D01*
X-31622889Y1665556D01*
X-31670667Y1617778D01*
X-31765111Y1570000D01*
X-32050667Y1570000D01*
X-32146222Y1617778D01*
X-32194000Y1665556D01*
X26702000Y20595556D02*
X25702000Y20595556D01*
X25702000Y20833334D01*
X25749778Y20976667D01*
X25845333Y21072223D01*
X25939778Y21118889D01*
X26130889Y21166667D01*
X26273111Y21166667D01*
X26464222Y21118889D01*
X26558667Y21072223D01*
X26654222Y20976667D01*
X26702000Y20833334D01*
X26702000Y20595556D01*
X25797556Y21514445D02*
X25749778Y21562223D01*
X25702000Y21656667D01*
X25702000Y21895556D01*
X25749778Y21990000D01*
X25797556Y22037778D01*
X25892000Y22085556D01*
X25987556Y22085556D01*
X26130889Y22037778D01*
X26702000Y21466667D01*
X26702000Y22085556D01*
X25702000Y22385556D02*
X25702000Y23004445D01*
X26083111Y22671112D01*
X26083111Y22814445D01*
X26130889Y22908889D01*
X26178667Y22956667D01*
X26273111Y23004445D01*
X26512000Y23004445D01*
X26606444Y22956667D01*
X26654222Y22908889D01*
X26702000Y22814445D01*
X26702000Y22528889D01*
X26654222Y22433334D01*
X26606444Y22385556D01*
X-6841333Y20976111D02*
X-6841333Y20642778D01*
X-6318000Y20642778D02*
X-7318000Y20642778D01*
X-7318000Y21119445D01*
X-6318000Y21990556D02*
X-6318000Y21419445D01*
X-6318000Y21705001D02*
X-7318000Y21705001D01*
X-7174667Y21609445D01*
X-7080222Y21515001D01*
X-7032444Y21419445D01*
X-7318000Y22290556D02*
X-7318000Y22957223D01*
X-6318000Y22528334D01*
X21526444Y21190556D02*
X21574222Y21142778D01*
X21622000Y21000556D01*
X21622000Y20905000D01*
X21574222Y20761667D01*
X21478667Y20667223D01*
X21384222Y20619445D01*
X21193111Y20571667D01*
X21050889Y20571667D01*
X20859778Y20619445D01*
X20765333Y20667223D01*
X20669778Y20761667D01*
X20622000Y20905000D01*
X20622000Y21000556D01*
X20669778Y21142778D01*
X20717556Y21190556D01*
X20717556Y21538334D02*
X20669778Y21586112D01*
X20622000Y21680556D01*
X20622000Y21919445D01*
X20669778Y22013889D01*
X20717556Y22061667D01*
X20812000Y22109445D01*
X20907556Y22109445D01*
X21050889Y22061667D01*
X21622000Y21490556D01*
X21622000Y22109445D01*
X20622000Y22409445D02*
X20622000Y23028334D01*
X21003111Y22695001D01*
X21003111Y22838334D01*
X21050889Y22932778D01*
X21098667Y22980556D01*
X21193111Y23028334D01*
X21432000Y23028334D01*
X21526444Y22980556D01*
X21574222Y22932778D01*
X21622000Y22838334D01*
X21622000Y22552778D01*
X21574222Y22457223D01*
X21526444Y22409445D01*
X18986444Y21214445D02*
X19034222Y21166667D01*
X19082000Y21024445D01*
X19082000Y20928889D01*
X19034222Y20785556D01*
X18938667Y20691112D01*
X18844222Y20643334D01*
X18653111Y20595556D01*
X18510889Y20595556D01*
X18319778Y20643334D01*
X18225333Y20691112D01*
X18129778Y20785556D01*
X18082000Y20928889D01*
X18082000Y21024445D01*
X18129778Y21166667D01*
X18177556Y21214445D01*
X18177556Y21562223D02*
X18129778Y21610001D01*
X18082000Y21704445D01*
X18082000Y21943334D01*
X18129778Y22037778D01*
X18177556Y22085556D01*
X18272000Y22133334D01*
X18367556Y22133334D01*
X18510889Y22085556D01*
X19082000Y21514445D01*
X19082000Y22133334D01*
X19082000Y23004445D02*
X19082000Y22433334D01*
X19082000Y22718890D02*
X18082000Y22718890D01*
X18225333Y22623334D01*
X18319778Y22528890D01*
X18367556Y22433334D01*
D14*
X12503667Y-20474167D02*
X12575333Y-20545833D01*
X12647000Y-20759167D01*
X12647000Y-20902500D01*
X12575333Y-21117500D01*
X12432000Y-21259167D01*
X12290333Y-21330833D01*
X12003667Y-21402500D01*
X11790333Y-21402500D01*
X11503667Y-21330833D01*
X11362000Y-21259167D01*
X11218667Y-21117500D01*
X11147000Y-20902500D01*
X11147000Y-20759167D01*
X11218667Y-20545833D01*
X11290333Y-20474167D01*
X12575333Y-19974167D02*
X12647000Y-19759167D01*
X12647000Y-19402500D01*
X12575333Y-19259167D01*
X12503667Y-19189167D01*
X12362000Y-19117500D01*
X12218667Y-19117500D01*
X12075333Y-19189167D01*
X12003667Y-19259167D01*
X11932000Y-19402500D01*
X11862000Y-19689167D01*
X11790333Y-19830834D01*
X11718667Y-19902500D01*
X11575333Y-19974167D01*
X11432000Y-19974167D01*
X11290333Y-19902500D01*
X11218667Y-19830834D01*
X11147000Y-19689167D01*
X11147000Y-19330834D01*
X11218667Y-19117500D01*
D10*
X46955556Y9190000D02*
X46955556Y10190000D01*
X47526667Y9190000D01*
X47526667Y10190000D01*
X47874445Y10094444D02*
X47922223Y10142222D01*
X48016667Y10190000D01*
X48255556Y10190000D01*
X48350000Y10142222D01*
X48397778Y10094444D01*
X48445556Y10000000D01*
X48445556Y9904444D01*
X48397778Y9761111D01*
X47826667Y9190000D01*
X48445556Y9190000D01*
X48793334Y10094444D02*
X48841112Y10142222D01*
X48935556Y10190000D01*
X49174445Y10190000D01*
X49268889Y10142222D01*
X49316667Y10094444D01*
X49364445Y10000000D01*
X49364445Y9904444D01*
X49316667Y9761111D01*
X48745556Y9190000D01*
X49364445Y9190000D01*
D14*
G04 #@! TO.C,LOGIC1*
X-12679444Y15420000D02*
X-13156111Y15420000D01*
X-13156111Y16420000D01*
X-12041666Y16420000D02*
X-11850555Y16420000D01*
X-11756111Y16372222D01*
X-11660555Y16276667D01*
X-11612777Y16086667D01*
X-11612777Y15753333D01*
X-11660555Y15563333D01*
X-11756111Y15467778D01*
X-11850555Y15420000D01*
X-12041666Y15420000D01*
X-12136111Y15467778D01*
X-12231666Y15563333D01*
X-12279444Y15753333D01*
X-12279444Y16086667D01*
X-12231666Y16276667D01*
X-12136111Y16372222D01*
X-12041666Y16420000D01*
X-10641666Y16372222D02*
X-10736110Y16420000D01*
X-10879444Y16420000D01*
X-11022777Y16372222D01*
X-11117221Y16276667D01*
X-11164999Y16182222D01*
X-11212777Y15991111D01*
X-11212777Y15848889D01*
X-11164999Y15657778D01*
X-11117221Y15563333D01*
X-11022777Y15467778D01*
X-10879444Y15420000D01*
X-10783888Y15420000D01*
X-10641666Y15467778D01*
X-10593888Y15515556D01*
X-10593888Y15848889D01*
X-10783888Y15848889D01*
X-10193888Y15420000D02*
X-10193888Y16420000D01*
X-9174999Y15515556D02*
X-9222777Y15467778D01*
X-9364999Y15420000D01*
X-9460555Y15420000D01*
X-9603888Y15467778D01*
X-9698332Y15563333D01*
X-9746110Y15657778D01*
X-9793888Y15848889D01*
X-9793888Y15991111D01*
X-9746110Y16182222D01*
X-9698332Y16276667D01*
X-9603888Y16372222D01*
X-9460555Y16420000D01*
X-9364999Y16420000D01*
X-9222777Y16372222D01*
X-9174999Y16324444D01*
X-8203888Y15420000D02*
X-8774999Y15420000D01*
X-8489443Y15420000D02*
X-8489443Y16420000D01*
X-8584999Y16276667D01*
X-8679443Y16182222D01*
X-8774999Y16134444D01*
D10*
G04 #@! TO.C,FLASH1*
X-3466334Y-36634667D02*
X-3799667Y-36634667D01*
X-3799667Y-37158000D02*
X-3799667Y-36158000D01*
X-3323000Y-36158000D01*
X-2546333Y-37158000D02*
X-3023000Y-37158000D01*
X-3023000Y-36158000D01*
X-2150777Y-36872444D02*
X-1675222Y-36872444D01*
X-2246333Y-37158000D02*
X-1913000Y-36158000D01*
X-1579666Y-37158000D01*
X-1279666Y-37110222D02*
X-1136333Y-37158000D01*
X-898555Y-37158000D01*
X-802999Y-37110222D01*
X-756333Y-37062444D01*
X-708555Y-36968000D01*
X-708555Y-36872444D01*
X-756333Y-36776889D01*
X-802999Y-36729111D01*
X-898555Y-36681333D01*
X-1089666Y-36634667D01*
X-1184110Y-36586889D01*
X-1231888Y-36539111D01*
X-1279666Y-36443556D01*
X-1279666Y-36348000D01*
X-1231888Y-36253556D01*
X-1184110Y-36205778D01*
X-1089666Y-36158000D01*
X-850777Y-36158000D01*
X-708555Y-36205778D01*
X-408555Y-37158000D02*
X-408555Y-36158000D01*
X-408555Y-36634667D02*
X162556Y-36634667D01*
X162556Y-37158000D02*
X162556Y-36158000D01*
X1033667Y-37158000D02*
X462556Y-37158000D01*
X748112Y-37158000D02*
X748112Y-36158000D01*
X652556Y-36301333D01*
X558112Y-36395778D01*
X462556Y-36443556D01*
D11*
G04 #@! TO.C,R31*
X-300000Y-23560944D02*
X-347667Y-23594277D01*
X-300000Y-23618055D02*
X-400000Y-23618055D01*
X-400000Y-23579944D01*
X-395222Y-23570388D01*
X-390444Y-23565722D01*
X-381000Y-23560944D01*
X-366667Y-23560944D01*
X-357111Y-23565722D01*
X-352333Y-23570388D01*
X-347667Y-23579944D01*
X-347667Y-23618055D01*
X-400000Y-23530944D02*
X-400000Y-23469055D01*
X-361889Y-23502388D01*
X-361889Y-23488055D01*
X-357111Y-23478611D01*
X-352333Y-23473833D01*
X-342889Y-23469055D01*
X-319000Y-23469055D01*
X-309556Y-23473833D01*
X-304778Y-23478611D01*
X-300000Y-23488055D01*
X-300000Y-23516611D01*
X-304778Y-23526166D01*
X-309556Y-23530944D01*
X-300000Y-23381944D02*
X-300000Y-23439055D01*
X-300000Y-23410499D02*
X-400000Y-23410499D01*
X-385667Y-23420055D01*
X-376222Y-23429499D01*
X-371444Y-23439055D01*
G04 #@! TO.C,R32*
X-3943333Y-24200000D02*
X-3976666Y-24152333D01*
X-4000444Y-24200000D02*
X-4000444Y-24100000D01*
X-3962333Y-24100000D01*
X-3952777Y-24104778D01*
X-3948111Y-24109556D01*
X-3943333Y-24119000D01*
X-3943333Y-24133333D01*
X-3948111Y-24142889D01*
X-3952777Y-24147667D01*
X-3962333Y-24152333D01*
X-4000444Y-24152333D01*
X-3913333Y-24100000D02*
X-3851444Y-24100000D01*
X-3884777Y-24138111D01*
X-3870444Y-24138111D01*
X-3861000Y-24142889D01*
X-3856222Y-24147667D01*
X-3851444Y-24157111D01*
X-3851444Y-24181000D01*
X-3856222Y-24190444D01*
X-3861000Y-24195222D01*
X-3870444Y-24200000D01*
X-3899000Y-24200000D01*
X-3908555Y-24195222D01*
X-3913333Y-24190444D01*
X-3816666Y-24109556D02*
X-3811888Y-24104778D01*
X-3802444Y-24100000D01*
X-3778555Y-24100000D01*
X-3769111Y-24104778D01*
X-3764333Y-24109556D01*
X-3759555Y-24119000D01*
X-3759555Y-24128556D01*
X-3764333Y-24142889D01*
X-3821444Y-24200000D01*
X-3759555Y-24200000D01*
G04 #@! TO.C,C29*
X-28001556Y21279445D02*
X-27996778Y21274667D01*
X-27992000Y21260445D01*
X-27992000Y21250889D01*
X-27996778Y21236556D01*
X-28006333Y21227112D01*
X-28015778Y21222334D01*
X-28034889Y21217556D01*
X-28049111Y21217556D01*
X-28068222Y21222334D01*
X-28077667Y21227112D01*
X-28087222Y21236556D01*
X-28092000Y21250889D01*
X-28092000Y21260445D01*
X-28087222Y21274667D01*
X-28082444Y21279445D01*
X-28082444Y21314223D02*
X-28087222Y21319001D01*
X-28092000Y21328445D01*
X-28092000Y21352334D01*
X-28087222Y21361778D01*
X-28082444Y21366556D01*
X-28073000Y21371334D01*
X-28063444Y21371334D01*
X-28049111Y21366556D01*
X-27992000Y21309445D01*
X-27992000Y21371334D01*
X-27992000Y21410890D02*
X-27992000Y21429890D01*
X-27996778Y21439445D01*
X-28001556Y21444223D01*
X-28015778Y21453667D01*
X-28034889Y21458445D01*
X-28073000Y21458445D01*
X-28082444Y21453667D01*
X-28087222Y21449001D01*
X-28092000Y21439445D01*
X-28092000Y21420334D01*
X-28087222Y21410890D01*
X-28082444Y21406112D01*
X-28073000Y21401334D01*
X-28049111Y21401334D01*
X-28039667Y21406112D01*
X-28034889Y21410890D01*
X-28030111Y21420334D01*
X-28030111Y21439445D01*
X-28034889Y21449001D01*
X-28039667Y21453667D01*
X-28049111Y21458445D01*
G04 #@! TO.C,R37*
X-7983722Y-33533000D02*
X-8017055Y-33485333D01*
X-8040833Y-33533000D02*
X-8040833Y-33433000D01*
X-8002722Y-33433000D01*
X-7993166Y-33437778D01*
X-7988500Y-33442556D01*
X-7983722Y-33452000D01*
X-7983722Y-33466333D01*
X-7988500Y-33475889D01*
X-7993166Y-33480667D01*
X-8002722Y-33485333D01*
X-8040833Y-33485333D01*
X-7953722Y-33433000D02*
X-7891833Y-33433000D01*
X-7925166Y-33471111D01*
X-7910833Y-33471111D01*
X-7901389Y-33475889D01*
X-7896611Y-33480667D01*
X-7891833Y-33490111D01*
X-7891833Y-33514000D01*
X-7896611Y-33523444D01*
X-7901389Y-33528222D01*
X-7910833Y-33533000D01*
X-7939389Y-33533000D01*
X-7948944Y-33528222D01*
X-7953722Y-33523444D01*
X-7861833Y-33433000D02*
X-7795166Y-33433000D01*
X-7838055Y-33533000D01*
G04 #@! TO.C,R29*
X610000Y-23560944D02*
X562333Y-23594277D01*
X610000Y-23618055D02*
X510000Y-23618055D01*
X510000Y-23579944D01*
X514778Y-23570388D01*
X519556Y-23565722D01*
X529000Y-23560944D01*
X543333Y-23560944D01*
X552889Y-23565722D01*
X557667Y-23570388D01*
X562333Y-23579944D01*
X562333Y-23618055D01*
X519556Y-23526166D02*
X514778Y-23521388D01*
X510000Y-23511944D01*
X510000Y-23488055D01*
X514778Y-23478611D01*
X519556Y-23473833D01*
X529000Y-23469055D01*
X538556Y-23469055D01*
X552889Y-23473833D01*
X610000Y-23530944D01*
X610000Y-23469055D01*
X610000Y-23429499D02*
X610000Y-23410499D01*
X605222Y-23400944D01*
X600444Y-23396166D01*
X586222Y-23386722D01*
X567111Y-23381944D01*
X529000Y-23381944D01*
X519556Y-23386722D01*
X514778Y-23391388D01*
X510000Y-23400944D01*
X510000Y-23420055D01*
X514778Y-23429499D01*
X519556Y-23434277D01*
X529000Y-23439055D01*
X552889Y-23439055D01*
X562333Y-23434277D01*
X567111Y-23429499D01*
X571889Y-23420055D01*
X571889Y-23400944D01*
X567111Y-23391388D01*
X562333Y-23386722D01*
X552889Y-23381944D01*
G04 #@! TO.C,LED1*
X-17976000Y664917D02*
X-17976000Y617250D01*
X-18076000Y617250D01*
X-18028333Y694917D02*
X-18028333Y728250D01*
X-17976000Y742584D02*
X-17976000Y694917D01*
X-18076000Y694917D01*
X-18076000Y742584D01*
X-17976000Y772584D02*
X-18076000Y772584D01*
X-18076000Y796362D01*
X-18071222Y810695D01*
X-18061667Y820251D01*
X-18052222Y824917D01*
X-18033111Y829695D01*
X-18018889Y829695D01*
X-17999778Y824917D01*
X-17990333Y820251D01*
X-17980778Y810695D01*
X-17976000Y796362D01*
X-17976000Y772584D01*
X-17976000Y916806D02*
X-17976000Y859695D01*
X-17976000Y888251D02*
X-18076000Y888251D01*
X-18061667Y878695D01*
X-18052222Y869251D01*
X-18047444Y859695D01*
G04 #@! TO.C,R25*
X3699056Y-14910000D02*
X3665723Y-14862333D01*
X3641945Y-14910000D02*
X3641945Y-14810000D01*
X3680056Y-14810000D01*
X3689612Y-14814778D01*
X3694278Y-14819556D01*
X3699056Y-14829000D01*
X3699056Y-14843333D01*
X3694278Y-14852889D01*
X3689612Y-14857667D01*
X3680056Y-14862333D01*
X3641945Y-14862333D01*
X3733834Y-14819556D02*
X3738612Y-14814778D01*
X3748056Y-14810000D01*
X3771945Y-14810000D01*
X3781389Y-14814778D01*
X3786167Y-14819556D01*
X3790945Y-14829000D01*
X3790945Y-14838556D01*
X3786167Y-14852889D01*
X3729056Y-14910000D01*
X3790945Y-14910000D01*
X3873278Y-14810000D02*
X3825723Y-14810000D01*
X3820945Y-14857667D01*
X3825723Y-14852889D01*
X3835278Y-14848111D01*
X3859056Y-14848111D01*
X3868612Y-14852889D01*
X3873278Y-14857667D01*
X3878056Y-14867111D01*
X3878056Y-14891000D01*
X3873278Y-14900444D01*
X3868612Y-14905222D01*
X3859056Y-14910000D01*
X3835278Y-14910000D01*
X3825723Y-14905222D01*
X3820945Y-14900444D01*
G04 #@! TO.C,R34*
X-2513000Y-14801333D02*
X-2560667Y-14834666D01*
X-2513000Y-14858444D02*
X-2613000Y-14858444D01*
X-2613000Y-14820333D01*
X-2608222Y-14810777D01*
X-2603444Y-14806111D01*
X-2594000Y-14801333D01*
X-2579667Y-14801333D01*
X-2570111Y-14806111D01*
X-2565333Y-14810777D01*
X-2560667Y-14820333D01*
X-2560667Y-14858444D01*
X-2613000Y-14771333D02*
X-2613000Y-14709444D01*
X-2574889Y-14742777D01*
X-2574889Y-14728444D01*
X-2570111Y-14719000D01*
X-2565333Y-14714222D01*
X-2555889Y-14709444D01*
X-2532000Y-14709444D01*
X-2522556Y-14714222D01*
X-2517778Y-14719000D01*
X-2513000Y-14728444D01*
X-2513000Y-14757000D01*
X-2517778Y-14766555D01*
X-2522556Y-14771333D01*
X-2579667Y-14631777D02*
X-2513000Y-14631777D01*
X-2617778Y-14655666D02*
X-2546333Y-14679444D01*
X-2546333Y-14617555D01*
G04 #@! TO.C,R30*
X-1190000Y-23560944D02*
X-1237667Y-23594277D01*
X-1190000Y-23618055D02*
X-1290000Y-23618055D01*
X-1290000Y-23579944D01*
X-1285222Y-23570388D01*
X-1280444Y-23565722D01*
X-1271000Y-23560944D01*
X-1256667Y-23560944D01*
X-1247111Y-23565722D01*
X-1242333Y-23570388D01*
X-1237667Y-23579944D01*
X-1237667Y-23618055D01*
X-1290000Y-23530944D02*
X-1290000Y-23469055D01*
X-1251889Y-23502388D01*
X-1251889Y-23488055D01*
X-1247111Y-23478611D01*
X-1242333Y-23473833D01*
X-1232889Y-23469055D01*
X-1209000Y-23469055D01*
X-1199556Y-23473833D01*
X-1194778Y-23478611D01*
X-1190000Y-23488055D01*
X-1190000Y-23516611D01*
X-1194778Y-23526166D01*
X-1199556Y-23530944D01*
X-1290000Y-23415277D02*
X-1290000Y-23405722D01*
X-1285222Y-23396166D01*
X-1280444Y-23391388D01*
X-1271000Y-23386722D01*
X-1251889Y-23381944D01*
X-1228111Y-23381944D01*
X-1209000Y-23386722D01*
X-1199556Y-23391388D01*
X-1194778Y-23396166D01*
X-1190000Y-23405722D01*
X-1190000Y-23415277D01*
X-1194778Y-23424722D01*
X-1199556Y-23429499D01*
X-1209000Y-23434277D01*
X-1228111Y-23439055D01*
X-1251889Y-23439055D01*
X-1271000Y-23434277D01*
X-1280444Y-23429499D01*
X-1285222Y-23424722D01*
X-1290000Y-23415277D01*
G04 #@! TO.C,R20*
X-17621944Y3667000D02*
X-17655277Y3714667D01*
X-17679055Y3667000D02*
X-17679055Y3767000D01*
X-17640944Y3767000D01*
X-17631388Y3762222D01*
X-17626722Y3757444D01*
X-17621944Y3748000D01*
X-17621944Y3733667D01*
X-17626722Y3724111D01*
X-17631388Y3719333D01*
X-17640944Y3714667D01*
X-17679055Y3714667D01*
X-17587166Y3757444D02*
X-17582388Y3762222D01*
X-17572944Y3767000D01*
X-17549055Y3767000D01*
X-17539611Y3762222D01*
X-17534833Y3757444D01*
X-17530055Y3748000D01*
X-17530055Y3738444D01*
X-17534833Y3724111D01*
X-17591944Y3667000D01*
X-17530055Y3667000D01*
X-17476277Y3767000D02*
X-17466722Y3767000D01*
X-17457166Y3762222D01*
X-17452388Y3757444D01*
X-17447722Y3748000D01*
X-17442944Y3728889D01*
X-17442944Y3705111D01*
X-17447722Y3686000D01*
X-17452388Y3676556D01*
X-17457166Y3671778D01*
X-17466722Y3667000D01*
X-17476277Y3667000D01*
X-17485722Y3671778D01*
X-17490499Y3676556D01*
X-17495277Y3686000D01*
X-17500055Y3705111D01*
X-17500055Y3728889D01*
X-17495277Y3748000D01*
X-17490499Y3757444D01*
X-17485722Y3762222D01*
X-17476277Y3767000D01*
G04 #@! TO.C,R26*
X-8114944Y-14328000D02*
X-8148277Y-14280333D01*
X-8172055Y-14328000D02*
X-8172055Y-14228000D01*
X-8133944Y-14228000D01*
X-8124388Y-14232778D01*
X-8119722Y-14237556D01*
X-8114944Y-14247000D01*
X-8114944Y-14261333D01*
X-8119722Y-14270889D01*
X-8124388Y-14275667D01*
X-8133944Y-14280333D01*
X-8172055Y-14280333D01*
X-8080166Y-14237556D02*
X-8075388Y-14232778D01*
X-8065944Y-14228000D01*
X-8042055Y-14228000D01*
X-8032611Y-14232778D01*
X-8027833Y-14237556D01*
X-8023055Y-14247000D01*
X-8023055Y-14256556D01*
X-8027833Y-14270889D01*
X-8084944Y-14328000D01*
X-8023055Y-14328000D01*
X-7945388Y-14228000D02*
X-7964499Y-14228000D01*
X-7974055Y-14232778D01*
X-7978722Y-14237556D01*
X-7988277Y-14251778D01*
X-7993055Y-14270889D01*
X-7993055Y-14309000D01*
X-7988277Y-14318444D01*
X-7983499Y-14323222D01*
X-7974055Y-14328000D01*
X-7954944Y-14328000D01*
X-7945388Y-14323222D01*
X-7940722Y-14318444D01*
X-7935944Y-14309000D01*
X-7935944Y-14285111D01*
X-7940722Y-14275667D01*
X-7945388Y-14270889D01*
X-7954944Y-14266111D01*
X-7974055Y-14266111D01*
X-7983499Y-14270889D01*
X-7988277Y-14275667D01*
X-7993055Y-14285111D01*
G04 #@! TO.C,R33*
X-203333Y-14740000D02*
X-236666Y-14692333D01*
X-260444Y-14740000D02*
X-260444Y-14640000D01*
X-222333Y-14640000D01*
X-212777Y-14644778D01*
X-208111Y-14649556D01*
X-203333Y-14659000D01*
X-203333Y-14673333D01*
X-208111Y-14682889D01*
X-212777Y-14687667D01*
X-222333Y-14692333D01*
X-260444Y-14692333D01*
X-173333Y-14640000D02*
X-111444Y-14640000D01*
X-144777Y-14678111D01*
X-130444Y-14678111D01*
X-121000Y-14682889D01*
X-116222Y-14687667D01*
X-111444Y-14697111D01*
X-111444Y-14721000D01*
X-116222Y-14730444D01*
X-121000Y-14735222D01*
X-130444Y-14740000D01*
X-159000Y-14740000D01*
X-168555Y-14735222D01*
X-173333Y-14730444D01*
X-81444Y-14640000D02*
X-19555Y-14640000D01*
X-52888Y-14678111D01*
X-38555Y-14678111D01*
X-29111Y-14682889D01*
X-24333Y-14687667D01*
X-19555Y-14697111D01*
X-19555Y-14721000D01*
X-24333Y-14730444D01*
X-29111Y-14735222D01*
X-38555Y-14740000D01*
X-67111Y-14740000D01*
X-76666Y-14735222D01*
X-81444Y-14730444D01*
G04 #@! TO.C,C96*
X-8027556Y-28264166D02*
X-8022778Y-28268944D01*
X-8018000Y-28283166D01*
X-8018000Y-28292722D01*
X-8022778Y-28307055D01*
X-8032333Y-28316499D01*
X-8041778Y-28321277D01*
X-8060889Y-28326055D01*
X-8075111Y-28326055D01*
X-8094222Y-28321277D01*
X-8103667Y-28316499D01*
X-8113222Y-28307055D01*
X-8118000Y-28292722D01*
X-8118000Y-28283166D01*
X-8113222Y-28268944D01*
X-8108444Y-28264166D01*
X-8018000Y-28224610D02*
X-8018000Y-28205610D01*
X-8022778Y-28196055D01*
X-8027556Y-28191277D01*
X-8041778Y-28181833D01*
X-8060889Y-28177055D01*
X-8099000Y-28177055D01*
X-8108444Y-28181833D01*
X-8113222Y-28186499D01*
X-8118000Y-28196055D01*
X-8118000Y-28215166D01*
X-8113222Y-28224610D01*
X-8108444Y-28229388D01*
X-8099000Y-28234166D01*
X-8075111Y-28234166D01*
X-8065667Y-28229388D01*
X-8060889Y-28224610D01*
X-8056111Y-28215166D01*
X-8056111Y-28196055D01*
X-8060889Y-28186499D01*
X-8065667Y-28181833D01*
X-8075111Y-28177055D01*
X-8118000Y-28099388D02*
X-8118000Y-28118499D01*
X-8113222Y-28128055D01*
X-8108444Y-28132722D01*
X-8094222Y-28142277D01*
X-8075111Y-28147055D01*
X-8037000Y-28147055D01*
X-8027556Y-28142277D01*
X-8022778Y-28137499D01*
X-8018000Y-28128055D01*
X-8018000Y-28108944D01*
X-8022778Y-28099388D01*
X-8027556Y-28094722D01*
X-8037000Y-28089944D01*
X-8060889Y-28089944D01*
X-8070333Y-28094722D01*
X-8075111Y-28099388D01*
X-8079889Y-28108944D01*
X-8079889Y-28128055D01*
X-8075111Y-28137499D01*
X-8070333Y-28142277D01*
X-8060889Y-28147055D01*
%LPC*%
D16*
G04 #@! TO.C,LOGIC1*
X7500000Y-5475500D03*
D17*
X6500000Y10524500D03*
X11500000Y8524500D03*
D18*
X-8500000Y-3475500D03*
D17*
X6500000Y1524500D03*
D19*
X-500000Y10524500D03*
D16*
X12500000Y-8475500D03*
D19*
X-9500000Y2524500D03*
X-1500000Y8524500D03*
D16*
X9500000Y-5475500D03*
D18*
X-3500000Y-2475500D03*
D17*
X10500000Y12524500D03*
D16*
X8500000Y-11475500D03*
D18*
X-11500000Y-6475500D03*
D17*
X4500000Y11524500D03*
D18*
X-6500000Y-11475500D03*
D16*
X6500000Y-12475500D03*
D19*
X-4500000Y8524500D03*
D16*
X1500000Y-1475500D03*
X11500000Y-8475500D03*
X4500000Y-11475500D03*
D19*
X-4500000Y1524500D03*
D16*
X5500000Y-2475500D03*
D19*
X-8500000Y6524500D03*
X-4500000Y524500D03*
X-2500000Y3524500D03*
X-4500000Y11524500D03*
D16*
X7500000Y-7475500D03*
D18*
X-11500000Y-5475500D03*
X-12500000Y-12475500D03*
X-12500000Y-9475500D03*
D19*
X-1500000Y524500D03*
D18*
X-11500000Y-3475500D03*
D16*
X2500000Y-1475500D03*
D18*
X-10500000Y-4475500D03*
D19*
X-10500000Y1524500D03*
D18*
X-500000Y-2475500D03*
D17*
X4500000Y2524500D03*
D19*
X-10500000Y8524500D03*
D17*
X500000Y8524500D03*
D16*
X1500000Y-9475500D03*
D19*
X-11500000Y2524500D03*
D16*
X11500000Y-6475500D03*
D19*
X-8500000Y11524500D03*
X-5500000Y6524500D03*
D17*
X5500000Y12524500D03*
D18*
X-2500000Y-5475500D03*
D19*
X-9500000Y10524500D03*
D18*
X-10500000Y-1475500D03*
D19*
X-1500000Y3524500D03*
D18*
X-7500000Y-8475500D03*
X-5500000Y-7475500D03*
X-3500000Y-12475500D03*
D17*
X1500000Y8524500D03*
D19*
X-2500000Y8524500D03*
X-3500000Y8524500D03*
X-12500000Y7524500D03*
D17*
X3500000Y11524500D03*
D19*
X-12500000Y5524500D03*
D16*
X12500000Y-4475500D03*
D18*
X-6500000Y-6475500D03*
D16*
X9500000Y-1475500D03*
X7500000Y-11475500D03*
X3500000Y-9475500D03*
D18*
X-3500000Y-11475500D03*
D19*
X-2500000Y524500D03*
D18*
X-5500000Y-4475500D03*
D19*
X-4500000Y5524500D03*
D17*
X12500000Y8524500D03*
X2500000Y2524500D03*
X5500000Y5524500D03*
D16*
X2500000Y-6475500D03*
D17*
X6500000Y7524500D03*
D16*
X6500000Y-10475500D03*
D18*
X-11500000Y-11475500D03*
X-10500000Y-7475500D03*
D17*
X10500000Y6524500D03*
D16*
X7500000Y-1475500D03*
D18*
X-6500000Y-5475500D03*
D17*
X5500000Y524500D03*
D16*
X7500000Y-9475500D03*
X10500000Y-10475500D03*
X11500000Y-2475500D03*
X4500000Y-6475500D03*
D19*
X-3500000Y6524500D03*
X-1500000Y9524500D03*
D18*
X-6500000Y-7475500D03*
D17*
X9500000Y11524500D03*
D16*
X5500000Y-12475500D03*
D19*
X-5500000Y8524500D03*
X-6500000Y4524500D03*
X-3500000Y1524500D03*
D17*
X12500000Y11524500D03*
X6500000Y5524500D03*
X8500000Y1524500D03*
D19*
X-10500000Y7524500D03*
D16*
X12500000Y-11475500D03*
D17*
X6500000Y12524500D03*
D19*
X-5500000Y3524500D03*
D16*
X11500000Y-475500D03*
D18*
X-8500000Y-1475500D03*
D16*
X500000Y-9475500D03*
D19*
X-7500000Y9524500D03*
D18*
X-500000Y-12475500D03*
D19*
X-7500000Y3524500D03*
D16*
X11500000Y-7475500D03*
D19*
X-12500000Y12524500D03*
X-6500000Y2524500D03*
D17*
X12500000Y2524500D03*
D18*
X-500000Y-475500D03*
D16*
X10500000Y-5475500D03*
D17*
X5500000Y10524500D03*
D18*
X-5500000Y-12475500D03*
X-4500000Y-6475500D03*
D17*
X7500000Y1524500D03*
D18*
X-7500000Y-6475500D03*
D17*
X8500000Y7524500D03*
X2500000Y11524500D03*
D19*
X-12500000Y10524500D03*
D16*
X12500000Y-9475500D03*
D19*
X-12500000Y1524500D03*
X-2500000Y7524500D03*
D16*
X11500000Y-3475500D03*
D17*
X10500000Y10524500D03*
D16*
X11500000Y-11475500D03*
X10500000Y-7475500D03*
D18*
X-6500000Y-8475500D03*
D19*
X-8500000Y8524500D03*
X-7500000Y8524500D03*
D18*
X-1500000Y-2475500D03*
D16*
X11500000Y-5475500D03*
D18*
X-500000Y-3475500D03*
D17*
X3500000Y10524500D03*
X7500000Y12524500D03*
D19*
X-9500000Y4524500D03*
D16*
X5500000Y-6475500D03*
D18*
X-2500000Y-6475500D03*
X-6500000Y-475500D03*
D16*
X11500000Y-4475500D03*
D19*
X-5500000Y524500D03*
D18*
X-2500000Y-7475500D03*
D17*
X8500000Y10524500D03*
D18*
X-5500000Y-475500D03*
D19*
X-500000Y9524500D03*
D16*
X5500000Y-3475500D03*
D18*
X-5500000Y-1475500D03*
X-1500000Y-5475500D03*
D17*
X4500000Y4524500D03*
D19*
X-7500000Y11524500D03*
D17*
X500000Y3524500D03*
D16*
X7500000Y-2475500D03*
X1500000Y-2475500D03*
X7500000Y-6475500D03*
D19*
X-6500000Y8524500D03*
D17*
X5500000Y1524500D03*
X500000Y2524500D03*
D18*
X-8500000Y-2475500D03*
D17*
X5500000Y11524500D03*
D16*
X5500000Y-5475500D03*
X4500000Y-9475500D03*
D19*
X-1500000Y11524500D03*
D16*
X6500000Y-11475500D03*
D18*
X-4500000Y-11475500D03*
X-6500000Y-4475500D03*
D16*
X5500000Y-475500D03*
X3500000Y-8475500D03*
D19*
X-1500000Y2524500D03*
D18*
X-9500000Y-12475500D03*
D17*
X8500000Y12524500D03*
D16*
X6500000Y-2475500D03*
D18*
X-500000Y-1475500D03*
D16*
X1500000Y-3475500D03*
D17*
X8500000Y8524500D03*
X9500000Y1524500D03*
D16*
X3500000Y-1475500D03*
X3500000Y-12475500D03*
X11500000Y-1475500D03*
D17*
X4500000Y7524500D03*
X1500000Y5524500D03*
X12500000Y524500D03*
D19*
X-4500000Y4524500D03*
X-7500000Y5524500D03*
X-7500000Y4524500D03*
X-8500000Y1524500D03*
D18*
X-500000Y-9475500D03*
X-3500000Y-5475500D03*
D17*
X12500000Y4524500D03*
D18*
X-9500000Y-8475500D03*
X-7500000Y-3475500D03*
D17*
X10500000Y2524500D03*
X9500000Y6524500D03*
D16*
X10500000Y-8475500D03*
D17*
X500000Y524500D03*
D16*
X6500000Y-9475500D03*
D18*
X-2500000Y-4475500D03*
X-10500000Y-5475500D03*
D16*
X5500000Y-4475500D03*
D19*
X-2500000Y5524500D03*
X-9500000Y12524500D03*
X-500000Y524500D03*
D16*
X8500000Y-6475500D03*
D18*
X-4500000Y-9475500D03*
D19*
X-5500000Y7524500D03*
X-500000Y12524500D03*
D17*
X7500000Y10524500D03*
D19*
X-6500000Y10524500D03*
X-5500000Y12524500D03*
D17*
X6500000Y4524500D03*
D18*
X-10500000Y-6475500D03*
D17*
X9500000Y9524500D03*
D18*
X-500000Y-6475500D03*
D16*
X10500000Y-475500D03*
D17*
X3500000Y6524500D03*
D19*
X-500000Y5524500D03*
X-3500000Y10524500D03*
D16*
X4500000Y-10475500D03*
D18*
X-12500000Y-2475500D03*
D17*
X3500000Y5524500D03*
X9500000Y4524500D03*
X4500000Y12524500D03*
D19*
X-4500000Y12524500D03*
X-9500000Y8524500D03*
D18*
X-10500000Y-475500D03*
D16*
X2500000Y-3475500D03*
D19*
X-4500000Y2524500D03*
D16*
X500000Y-7475500D03*
X2500000Y-11475500D03*
D17*
X3500000Y2524500D03*
X10500000Y3524500D03*
D19*
X-11500000Y5524500D03*
D18*
X-500000Y-8475500D03*
D17*
X4500000Y8524500D03*
D16*
X3500000Y-2475500D03*
D19*
X-5500000Y1524500D03*
X-3500000Y2524500D03*
D17*
X7500000Y8524500D03*
D16*
X1500000Y-5475500D03*
D18*
X-6500000Y-9475500D03*
X-4500000Y-2475500D03*
D17*
X500000Y6524500D03*
D18*
X-9500000Y-9475500D03*
D17*
X1500000Y7524500D03*
D19*
X-500000Y8524500D03*
D17*
X5500000Y4524500D03*
D19*
X-1500000Y7524500D03*
D18*
X-4500000Y-7475500D03*
D19*
X-12500000Y524500D03*
D18*
X-4500000Y-8475500D03*
D19*
X-7500000Y1524500D03*
X-8500000Y10524500D03*
D18*
X-3500000Y-9475500D03*
D19*
X-12500000Y3524500D03*
D17*
X10500000Y11524500D03*
X5500000Y7524500D03*
D16*
X9500000Y-3475500D03*
D18*
X-11500000Y-10475500D03*
D16*
X1500000Y-4475500D03*
D17*
X6500000Y2524500D03*
D18*
X-8500000Y-8475500D03*
D16*
X8500000Y-1475500D03*
X500000Y-4475500D03*
D19*
X-1500000Y10524500D03*
D16*
X500000Y-5475500D03*
D19*
X-11500000Y1524500D03*
D18*
X-10500000Y-11475500D03*
D16*
X4500000Y-7475500D03*
D18*
X-1500000Y-9475500D03*
D19*
X-3500000Y524500D03*
D18*
X-5500000Y-9475500D03*
D17*
X1500000Y1524500D03*
D19*
X-4500000Y10524500D03*
X-3500000Y4524500D03*
X-500000Y2524500D03*
D17*
X1500000Y4524500D03*
D19*
X-1500000Y5524500D03*
D18*
X-7500000Y-2475500D03*
X-4500000Y-12475500D03*
D19*
X-3500000Y9524500D03*
D18*
X-7500000Y-475500D03*
D19*
X-2500000Y4524500D03*
D18*
X-7500000Y-4475500D03*
D16*
X2500000Y-7475500D03*
D19*
X-7500000Y524500D03*
X-11500000Y7524500D03*
D17*
X1500000Y524500D03*
X12500000Y10524500D03*
X11500000Y6524500D03*
D18*
X-5500000Y-6475500D03*
X-1500000Y-11475500D03*
D16*
X500000Y-10475500D03*
D17*
X11500000Y1524500D03*
D19*
X-1500000Y6524500D03*
X-6500000Y6524500D03*
D17*
X1500000Y2524500D03*
D18*
X-3500000Y-6475500D03*
D19*
X-11500000Y4524500D03*
D16*
X7500000Y-4475500D03*
X1500000Y-12475500D03*
D18*
X-7500000Y-5475500D03*
D17*
X4500000Y524500D03*
D18*
X-5500000Y-10475500D03*
D19*
X-3500000Y5524500D03*
D18*
X-8500000Y-4475500D03*
D17*
X11500000Y11524500D03*
X7500000Y7524500D03*
D19*
X-500000Y3524500D03*
D16*
X2500000Y-475500D03*
D18*
X-11500000Y-4475500D03*
D19*
X-11500000Y12524500D03*
D16*
X4500000Y-3475500D03*
D18*
X-1500000Y-6475500D03*
D19*
X-2500000Y6524500D03*
D18*
X-6500000Y-2475500D03*
X-1500000Y-7475500D03*
D19*
X-5500000Y9524500D03*
D17*
X500000Y7524500D03*
X7500000Y4524500D03*
X12500000Y9524500D03*
D16*
X12500000Y-475500D03*
D17*
X8500000Y4524500D03*
X11500000Y12524500D03*
X3500000Y8524500D03*
D18*
X-3500000Y-10475500D03*
X-9500000Y-4475500D03*
D17*
X11500000Y9524500D03*
X2500000Y1524500D03*
D19*
X-9500000Y7524500D03*
D18*
X-1500000Y-475500D03*
D16*
X10500000Y-12475500D03*
D18*
X-9500000Y-2475500D03*
X-9500000Y-3475500D03*
X-2500000Y-3475500D03*
X-8500000Y-5475500D03*
D19*
X-3500000Y3524500D03*
D17*
X8500000Y2524500D03*
D19*
X-2500000Y2524500D03*
D16*
X4500000Y-8475500D03*
D18*
X-500000Y-5475500D03*
X-2500000Y-10475500D03*
D17*
X9500000Y5524500D03*
D16*
X2500000Y-2475500D03*
D19*
X-5500000Y11524500D03*
X-6500000Y12524500D03*
X-1500000Y12524500D03*
D16*
X8500000Y-9475500D03*
X4500000Y-5475500D03*
D19*
X-500000Y7524500D03*
D17*
X10500000Y4524500D03*
D16*
X7500000Y-10475500D03*
D17*
X3500000Y12524500D03*
D19*
X-8500000Y5524500D03*
X-4500000Y9524500D03*
D16*
X8500000Y-10475500D03*
X6500000Y-475500D03*
D18*
X-8500000Y-12475500D03*
D19*
X-9500000Y524500D03*
X-8500000Y3524500D03*
D17*
X2500000Y3524500D03*
D16*
X5500000Y-10475500D03*
X7500000Y-8475500D03*
X7500000Y-475500D03*
D17*
X9500000Y12524500D03*
D19*
X-12500000Y4524500D03*
D17*
X12500000Y7524500D03*
D18*
X-7500000Y-9475500D03*
D17*
X10500000Y524500D03*
D16*
X3500000Y-7475500D03*
D19*
X-11500000Y9524500D03*
D17*
X9500000Y10524500D03*
X9500000Y8524500D03*
X12500000Y6524500D03*
D16*
X12500000Y-1475500D03*
X3500000Y-5475500D03*
X500000Y-8475500D03*
X500000Y-2475500D03*
X5500000Y-9475500D03*
D18*
X-500000Y-11475500D03*
D17*
X5500000Y6524500D03*
D19*
X-2500000Y10524500D03*
D16*
X4500000Y-1475500D03*
X11500000Y-10475500D03*
D18*
X-11500000Y-1475500D03*
D19*
X-9500000Y11524500D03*
D18*
X-3500000Y-7475500D03*
D16*
X9500000Y-6475500D03*
D18*
X-5500000Y-3475500D03*
D17*
X6500000Y11524500D03*
X8500000Y5524500D03*
D18*
X-10500000Y-12475500D03*
D16*
X11500000Y-9475500D03*
X6500000Y-3475500D03*
X8500000Y-8475500D03*
X4500000Y-2475500D03*
D17*
X7500000Y2524500D03*
X2500000Y7524500D03*
D18*
X-10500000Y-2475500D03*
D19*
X-10500000Y3524500D03*
D17*
X1500000Y9524500D03*
X12500000Y1524500D03*
D19*
X-2500000Y1524500D03*
D18*
X-4500000Y-4475500D03*
D16*
X6500000Y-8475500D03*
D19*
X-500000Y11524500D03*
X-4500000Y3524500D03*
D16*
X9500000Y-10475500D03*
D17*
X10500000Y9524500D03*
D16*
X3500000Y-4475500D03*
D17*
X9500000Y7524500D03*
X3500000Y3524500D03*
D19*
X-6500000Y3524500D03*
D18*
X-12500000Y-10475500D03*
X-1500000Y-10475500D03*
D19*
X-9500000Y9524500D03*
D18*
X-10500000Y-9475500D03*
D17*
X8500000Y11524500D03*
D19*
X-8500000Y9524500D03*
D16*
X9500000Y-8475500D03*
D19*
X-2500000Y11524500D03*
D16*
X9500000Y-11475500D03*
D18*
X-12500000Y-475500D03*
D19*
X-500000Y4524500D03*
D17*
X10500000Y7524500D03*
D18*
X-3500000Y-3475500D03*
D16*
X10500000Y-2475500D03*
D18*
X-6500000Y-12475500D03*
X-11500000Y-8475500D03*
X-11500000Y-475500D03*
X-7500000Y-12475500D03*
D16*
X8500000Y-5475500D03*
D18*
X-8500000Y-9475500D03*
D19*
X-10500000Y12524500D03*
D17*
X500000Y5524500D03*
X8500000Y3524500D03*
D19*
X-5500000Y4524500D03*
D16*
X8500000Y-4475500D03*
D17*
X7500000Y5524500D03*
D19*
X-6500000Y7524500D03*
D18*
X-2500000Y-12475500D03*
D19*
X-10500000Y5524500D03*
D16*
X8500000Y-475500D03*
D19*
X-10500000Y524500D03*
D16*
X5500000Y-1475500D03*
X10500000Y-3475500D03*
D18*
X-6500000Y-3475500D03*
D19*
X-1500000Y1524500D03*
X-7500000Y6524500D03*
X-3500000Y12524500D03*
D17*
X2500000Y10524500D03*
D16*
X2500000Y-4475500D03*
D19*
X-11500000Y11524500D03*
X-1500000Y4524500D03*
D18*
X-6500000Y-10475500D03*
X-2500000Y-9475500D03*
D16*
X9500000Y-475500D03*
X6500000Y-4475500D03*
D18*
X-5500000Y-5475500D03*
X-1500000Y-12475500D03*
D17*
X500000Y9524500D03*
D16*
X7500000Y-3475500D03*
D17*
X8500000Y524500D03*
X12500000Y3524500D03*
D18*
X-11500000Y-9475500D03*
D17*
X10500000Y1524500D03*
D19*
X-8500000Y524500D03*
X-11500000Y3524500D03*
D17*
X11500000Y524500D03*
X5500000Y2524500D03*
D18*
X-4500000Y-475500D03*
D16*
X6500000Y-6475500D03*
D17*
X6500000Y6524500D03*
D18*
X-8500000Y-7475500D03*
D19*
X-7500000Y12524500D03*
D16*
X6500000Y-5475500D03*
D18*
X-8500000Y-11475500D03*
D17*
X2500000Y6524500D03*
X5500000Y9524500D03*
D16*
X2500000Y-5475500D03*
D19*
X-6500000Y9524500D03*
D18*
X-4500000Y-10475500D03*
D16*
X1500000Y-475500D03*
D19*
X-12500000Y9524500D03*
D17*
X3500000Y7524500D03*
D16*
X1500000Y-10475500D03*
D17*
X7500000Y11524500D03*
X4500000Y10524500D03*
D16*
X8500000Y-12475500D03*
X4500000Y-4475500D03*
X1500000Y-6475500D03*
X3500000Y-11475500D03*
D17*
X8500000Y6524500D03*
X500000Y1524500D03*
D18*
X-9500000Y-6475500D03*
D17*
X4500000Y3524500D03*
X10500000Y5524500D03*
D18*
X-8500000Y-10475500D03*
D16*
X2500000Y-12475500D03*
X9500000Y-12475500D03*
D17*
X3500000Y9524500D03*
D19*
X-7500000Y7524500D03*
D18*
X-500000Y-7475500D03*
D16*
X8500000Y-3475500D03*
D18*
X-9500000Y-475500D03*
D17*
X3500000Y1524500D03*
D18*
X-5500000Y-2475500D03*
X-12500000Y-1475500D03*
D17*
X2500000Y8524500D03*
D16*
X500000Y-6475500D03*
X1500000Y-8475500D03*
D17*
X9500000Y2524500D03*
X11500000Y2524500D03*
D18*
X-9500000Y-1475500D03*
D16*
X3500000Y-3475500D03*
X12500000Y-3475500D03*
X12500000Y-12475500D03*
D18*
X-12500000Y-11475500D03*
D16*
X10500000Y-11475500D03*
D19*
X-5500000Y5524500D03*
X-5500000Y2524500D03*
D16*
X12500000Y-2475500D03*
X12500000Y-6475500D03*
X9500000Y-7475500D03*
D19*
X-10500000Y10524500D03*
D18*
X-1500000Y-8475500D03*
X-4500000Y-3475500D03*
D17*
X6500000Y8524500D03*
D19*
X-10500000Y2524500D03*
D16*
X5500000Y-8475500D03*
D19*
X-6500000Y5524500D03*
X-6500000Y524500D03*
X-11500000Y6524500D03*
D17*
X6500000Y524500D03*
D18*
X-9500000Y-5475500D03*
D17*
X1500000Y6524500D03*
D18*
X-12500000Y-6475500D03*
D16*
X6500000Y-7475500D03*
D17*
X7500000Y9524500D03*
D16*
X7500000Y-12475500D03*
D19*
X-7500000Y10524500D03*
D18*
X-4500000Y-5475500D03*
D16*
X12500000Y-7475500D03*
D19*
X-12500000Y8524500D03*
D17*
X4500000Y1524500D03*
D18*
X-2500000Y-2475500D03*
D17*
X11500000Y5524500D03*
D19*
X-9500000Y3524500D03*
D16*
X8500000Y-7475500D03*
D17*
X11500000Y3524500D03*
D18*
X-2500000Y-8475500D03*
X-7500000Y-10475500D03*
D17*
X1500000Y3524500D03*
D18*
X-7500000Y-1475500D03*
D16*
X12500000Y-10475500D03*
X10500000Y-9475500D03*
D17*
X3500000Y524500D03*
D18*
X-500000Y-10475500D03*
D16*
X4500000Y-475500D03*
D19*
X-9500000Y6524500D03*
X-4500000Y6524500D03*
X-6500000Y1524500D03*
D17*
X1500000Y11524500D03*
X11500000Y4524500D03*
D18*
X-6500000Y-1475500D03*
X-9500000Y-7475500D03*
X-2500000Y-1475500D03*
D19*
X-12500000Y11524500D03*
D18*
X-12500000Y-5475500D03*
D16*
X500000Y-3475500D03*
X10500000Y-4475500D03*
D19*
X-3500000Y7524500D03*
X-2500000Y12524500D03*
D17*
X4500000Y9524500D03*
D16*
X1500000Y-7475500D03*
D17*
X7500000Y524500D03*
D18*
X-7500000Y-7475500D03*
D16*
X9500000Y-4475500D03*
D18*
X-8500000Y-6475500D03*
X-11500000Y-2475500D03*
D17*
X500000Y12524500D03*
D18*
X-1500000Y-1475500D03*
D19*
X-7500000Y2524500D03*
D18*
X-12500000Y-7475500D03*
D19*
X-2500000Y9524500D03*
D17*
X5500000Y8524500D03*
X9500000Y524500D03*
X9500000Y3524500D03*
D16*
X12500000Y-5475500D03*
D17*
X1500000Y10524500D03*
D19*
X-9500000Y1524500D03*
D18*
X-7500000Y-11475500D03*
X-3500000Y-475500D03*
D17*
X6500000Y9524500D03*
D18*
X-2500000Y-475500D03*
D16*
X3500000Y-475500D03*
X3500000Y-10475500D03*
D17*
X11500000Y10524500D03*
D19*
X-8500000Y12524500D03*
D18*
X-4500000Y-1475500D03*
D19*
X-500000Y6524500D03*
D17*
X500000Y10524500D03*
D18*
X-3500000Y-1475500D03*
X-1500000Y-4475500D03*
X-3500000Y-4475500D03*
D17*
X12500000Y12524500D03*
D18*
X-12500000Y-8475500D03*
D17*
X10500000Y8524500D03*
X4500000Y6524500D03*
D19*
X-8500000Y7524500D03*
D17*
X6500000Y3524500D03*
D18*
X-12500000Y-3475500D03*
D19*
X-500000Y1524500D03*
D16*
X8500000Y-2475500D03*
X2500000Y-9475500D03*
D19*
X-11500000Y524500D03*
D16*
X11500000Y-12475500D03*
D18*
X-8500000Y-475500D03*
X-9500000Y-11475500D03*
D17*
X7500000Y6524500D03*
D16*
X4500000Y-12475500D03*
D19*
X-8500000Y2524500D03*
D17*
X11500000Y7524500D03*
D19*
X-10500000Y11524500D03*
D17*
X12500000Y5524500D03*
X500000Y11524500D03*
D16*
X9500000Y-2475500D03*
D19*
X-5500000Y10524500D03*
X-10500000Y6524500D03*
X-11500000Y8524500D03*
D18*
X-9500000Y-10475500D03*
D19*
X-12500000Y2524500D03*
X-6500000Y11524500D03*
X-11500000Y10524500D03*
D17*
X1500000Y12524500D03*
D16*
X500000Y-475500D03*
X5500000Y-11475500D03*
X2500000Y-10475500D03*
D18*
X-12500000Y-4475500D03*
D16*
X3500000Y-6475500D03*
D17*
X3500000Y4524500D03*
D18*
X-5500000Y-8475500D03*
X-3500000Y-8475500D03*
D19*
X-10500000Y4524500D03*
D17*
X2500000Y524500D03*
X500000Y4524500D03*
D18*
X-10500000Y-8475500D03*
D19*
X-3500000Y11524500D03*
D16*
X500000Y-12475500D03*
D18*
X-11500000Y-12475500D03*
D16*
X6500000Y-1475500D03*
D19*
X-10500000Y9524500D03*
D18*
X-1500000Y-3475500D03*
D17*
X8500000Y9524500D03*
D19*
X-9500000Y5524500D03*
X-8500000Y4524500D03*
X-4500000Y7524500D03*
D17*
X5500000Y3524500D03*
D18*
X-2500000Y-11475500D03*
D16*
X9500000Y-9475500D03*
D17*
X2500000Y12524500D03*
D16*
X1500000Y-11475500D03*
D17*
X2500000Y9524500D03*
X7500000Y3524500D03*
D16*
X10500000Y-6475500D03*
D18*
X-11500000Y-7475500D03*
X-5500000Y-11475500D03*
D16*
X5500000Y-7475500D03*
X2500000Y-8475500D03*
D18*
X-10500000Y-3475500D03*
X-10500000Y-10475500D03*
D17*
X2500000Y5524500D03*
X2500000Y4524500D03*
D16*
X500000Y-11475500D03*
D18*
X-500000Y-4475500D03*
D19*
X-12500000Y6524500D03*
D17*
X4500000Y5524500D03*
D16*
X10500000Y-1475500D03*
X500000Y-1475500D03*
D20*
G04 #@! TO.C,J2*
X-24804000Y-10630000D03*
X-24804000Y17310000D03*
X-24804000Y-3010000D03*
X-24804000Y9690000D03*
X-27344000Y-470000D03*
X-27344000Y14770000D03*
X-24804000Y2070000D03*
X-24804000Y12230000D03*
X-24804000Y-8090000D03*
X-24804000Y4610000D03*
X-24804000Y-13170000D03*
X-27344000Y7150000D03*
D21*
X-27344000Y17310000D03*
D20*
X-27344000Y-10630000D03*
X-27344000Y2070000D03*
X-27344000Y-5550000D03*
X-27344000Y4610000D03*
X-27344000Y9690000D03*
X-27344000Y12230000D03*
X-24804000Y14770000D03*
X-24804000Y-15710000D03*
X-27344000Y-18250000D03*
X-27344000Y-3010000D03*
X-24804000Y-18250000D03*
X-24804000Y-470000D03*
X-24804000Y-5550000D03*
X-27344000Y-8090000D03*
X-27344000Y-15710000D03*
X-24804000Y7150000D03*
X-27344000Y-13170000D03*
D22*
G04 #@! TO.C,FLASH1*
X3482000Y-31293000D03*
X3482000Y-30023000D03*
X3482000Y-35103000D03*
X-6418000Y-28753000D03*
X3482000Y-33833000D03*
X3482000Y-32563000D03*
X-6418000Y-30023000D03*
X-6418000Y-27483000D03*
X-6418000Y-35103000D03*
X3482000Y-27483000D03*
X-6418000Y-33833000D03*
X3482000Y-26213000D03*
X-6418000Y-32563000D03*
X-6418000Y-26213000D03*
X-6418000Y-31293000D03*
X3482000Y-28753000D03*
D23*
G04 #@! TO.C,R31*
X0Y-23700000D03*
X0Y-23300000D03*
D20*
G04 #@! TO.C,J4*
X-31589000Y19991000D03*
D21*
X-31589000Y22531000D03*
D23*
G04 #@! TO.C,R32*
X-4080000Y-24500000D03*
X-3680000Y-24500000D03*
D24*
G04 #@! TO.C,C29*
X-28692000Y20613000D03*
X-28692000Y22063000D03*
D20*
G04 #@! TO.C,J6*
X27340000Y-13170000D03*
X27340000Y14770000D03*
X27340000Y2070000D03*
X24800000Y-8090000D03*
X27340000Y12230000D03*
X24800000Y4610000D03*
X27340000Y-15710000D03*
X27340000Y-470000D03*
X24800000Y-3010000D03*
X24800000Y7150000D03*
X24800000Y2070000D03*
X24800000Y12230000D03*
X27340000Y17310000D03*
X27340000Y-8090000D03*
X24800000Y-10630000D03*
X24800000Y-13170000D03*
X27340000Y9690000D03*
X27340000Y-3010000D03*
X24800000Y9690000D03*
X27340000Y-5550000D03*
X24800000Y-470000D03*
X27340000Y-18250000D03*
D21*
X24800000Y17310000D03*
D20*
X24800000Y14770000D03*
X27340000Y7150000D03*
X27340000Y4610000D03*
X24800000Y-18250000D03*
X24800000Y-5550000D03*
X24800000Y-15710000D03*
X27340000Y-10630000D03*
D23*
G04 #@! TO.C,R37*
X-7718000Y-33833000D03*
X-8118000Y-33833000D03*
G04 #@! TO.C,R29*
X910000Y-23300000D03*
X910000Y-23700000D03*
D25*
G04 #@! TO.C,LED1*
X-18536000Y-7972D03*
X-18536000Y1542028D03*
D26*
G04 #@! TO.C,J1*
X26202000Y27340000D03*
X-14438000Y24800000D03*
X-19518000Y27340000D03*
X26202000Y24800000D03*
X-1738000Y24800000D03*
X5882000Y27340000D03*
X-19518000Y24800000D03*
X-4278000Y24800000D03*
X28742000Y27340000D03*
X-16978000Y27340000D03*
X23662000Y27340000D03*
X10962000Y27340000D03*
X13502000Y24800000D03*
D27*
X-24598000Y24800000D03*
D26*
X10962000Y24800000D03*
X16042000Y27340000D03*
X-22058000Y24800000D03*
X5882000Y24800000D03*
X3342000Y27340000D03*
X-24598000Y27340000D03*
X8422000Y27340000D03*
X-6818000Y27340000D03*
X802000Y27340000D03*
X21122000Y27340000D03*
X28742000Y24800000D03*
X-9358000Y24800000D03*
X16042000Y24800000D03*
X-22058000Y27340000D03*
X8422000Y24800000D03*
X-16978000Y24800000D03*
X-11898000Y24800000D03*
X18582000Y24800000D03*
X-1738000Y27340000D03*
X21122000Y24800000D03*
X802000Y24800000D03*
X-4278000Y27340000D03*
X18582000Y27340000D03*
X3342000Y24800000D03*
X-6818000Y24800000D03*
X13502000Y27340000D03*
X-11898000Y27340000D03*
X-9358000Y27340000D03*
X23662000Y24800000D03*
X-14438000Y27340000D03*
D23*
G04 #@! TO.C,R25*
X3560000Y-15210000D03*
X3960000Y-15210000D03*
G04 #@! TO.C,R34*
X-2813000Y-14538000D03*
X-2813000Y-14938000D03*
G04 #@! TO.C,R30*
X-890000Y-23300000D03*
X-890000Y-23700000D03*
D20*
G04 #@! TO.C,J8*
X15040000Y-20070000D03*
D21*
X15040000Y-17530000D03*
D28*
G04 #@! TO.C,R20*
X-16586000Y2942000D03*
X-18536000Y2942000D03*
D23*
G04 #@! TO.C,R26*
X-7854000Y-13928000D03*
X-8254000Y-13928000D03*
G04 #@! TO.C,R33*
X-340000Y-15040000D03*
X60000Y-15040000D03*
D20*
G04 #@! TO.C,J3*
X33070000Y-10630000D03*
X33070000Y17310000D03*
X33070000Y-3010000D03*
X33070000Y9690000D03*
X30530000Y-470000D03*
X30530000Y14770000D03*
X33070000Y2070000D03*
X33070000Y12230000D03*
X33070000Y-8090000D03*
X33070000Y4610000D03*
X33070000Y-13170000D03*
X30530000Y7150000D03*
D21*
X30530000Y17310000D03*
D20*
X30530000Y-10630000D03*
X30530000Y2070000D03*
X30530000Y-5550000D03*
X30530000Y4610000D03*
X30530000Y9690000D03*
X30530000Y12230000D03*
X33070000Y14770000D03*
X33070000Y-15710000D03*
X30530000Y-18250000D03*
X30530000Y-3010000D03*
X33070000Y-18250000D03*
X33070000Y-470000D03*
X33070000Y-5550000D03*
X30530000Y-8090000D03*
X30530000Y-15710000D03*
X33070000Y7150000D03*
X30530000Y-13170000D03*
D26*
G04 #@! TO.C,J5*
X2817000Y-20270000D03*
D27*
X-7343000Y-20270000D03*
D26*
X-4803000Y-17730000D03*
X-2263000Y-20270000D03*
X-7343000Y-17730000D03*
X-4803000Y-20270000D03*
X-2263000Y-17730000D03*
X2817000Y-17730000D03*
X5357000Y-20270000D03*
X5357000Y-17730000D03*
X277000Y-17730000D03*
X277000Y-20270000D03*
D24*
G04 #@! TO.C,C96*
X-8718000Y-28933000D03*
X-8718000Y-27483000D03*
D29*
G04 #@! TD*
X-41775000Y-36825000D03*
X41570000Y36835000D03*
X41570000Y-36825000D03*
X-41775000Y36835000D03*
G04 --- BOARD END --- *
G04 #@! TF.MD5,56f1d9e0ca603efa53abfede50bf6092*
M02*
