M48
; #@! TF.GenerationSoftware,LibrePCB,LibrePCB,1.1.0
; #@! TF.CreationDate,2024-09-08T17:15:58
; #@! TF.ProjectId,flasher,f4b07f79-14a2-4070-9d7d-1f686dcb10c4,v1
; #@! TF.Part,Single
; #@! TF.SameCoordinates
; #@! TF.FileFunction,Plated,1,13,PTH
FMAT,2
METRIC,TZ
; #@! TA.AperFunction,ViaDrill
T1C0.2
; #@! TA.AperFunction,ViaDrill
T2C0.3
%
G90
G05
M71
T1
X0.299Y-3.476
X-16.927Y-9.723
X-4.3Y-4.475
X14.1Y-7.7
X9.6Y-7.7
X-2.775Y-10.2
X-2.499Y1.724
X2.5Y8.325
X10.5Y-7.7
X-2.701Y-2.475
X6.5Y7.274
X-0.5Y1.724
X-2.299Y-4.476
X-0.474Y3.7
X-3.5Y0.725
X-1.5Y-1.676
X-18.555Y4.824
X12.3Y-6.1
X-3.3Y-3.475
X-4.3Y-0.475
X-12.5Y-14.375
X8.3Y12.524
X-14.0Y-10.6
X-1.476Y2.7
X5.2Y7.627
X11.4Y-7.7
X-17.0Y-7.5
X-2.775Y-11.0
X5.289Y11.524
X-7.164028Y5.197
X3.901Y3.013
X-17.0Y-6.7
X12.257Y3.528
X13.2Y-7.7
X8.892Y5.812
X15.0Y-7.7
X-1.701Y4.525
X13.2Y-6.1
X-2.701Y3.525
X-10.5Y-14.375
X-16.948Y-12.387
X10.5Y-6.1
X0.3Y-5.48
X-6.644028Y5.197
X-16.295Y1.975
X5.499Y-2.275
X14.1Y-6.1
X-2.775Y-11.8
X12.301Y0.524
X9.917Y1.242
X9.6Y-6.1
X-1.3Y0.524
X-8.5Y-14.225
X12.3Y-7.7
X-8.4Y-5.525
X11.4Y-6.1
X-15.405Y-2.275
T2
X-11.651028Y-4.589
X-12.621028Y-5.905
X-12.621028Y-4.589
X-13.591028Y-5.905
T0
M30
