G04 --- HEADER BEGIN --- *
G04 #@! TF.GenerationSoftware,LibrePCB,LibrePCB,1.1.0*
G04 #@! TF.CreationDate,2024-09-08T17:15:58*
G04 #@! TF.ProjectId,flasher,f4b07f79-14a2-4070-9d7d-1f686dcb10c4,v1*
G04 #@! TF.Part,Single*
G04 #@! TF.SameCoordinates*
G04 #@! TF.FileFunction,Copper,L10,Inr*
G04 #@! TF.FilePolarity,Positive*
%FSLAX66Y66*%
%MOMM*%
G01*
G75*
G04 --- HEADER END --- *
G04 --- APERTURE LIST BEGIN --- *
G04 #@! TA.AperFunction,ComponentPad*
%ADD10C,1.5*%
G04 #@! TA.AperFunction,ViaPad*
%ADD11C,0.7*%
%ADD12C,0.4*%
G04 #@! TA.AperFunction,Conductor*
%ADD13C,0.01*%
G04 #@! TD*
G04 --- APERTURE LIST END --- *
G04 --- BOARD BEGIN --- *
D10*
G04 #@! TO.N,P64_1V8*
G04 #@! TO.C,J2*
G04 #@! TO.P,J2,24,24*
X-24804000Y-10630000D03*
G04 #@! TO.N,P45_1V8*
G04 #@! TO.P,J2,2,2*
X-24804000Y17310000D03*
G04 #@! TO.N,P55_1V8*
G04 #@! TO.P,J2,18,18*
X-24804000Y-3010000D03*
G04 #@! TO.N,P53_1V8*
G04 #@! TO.P,J2,8,8*
X-24804000Y9690000D03*
G04 #@! TO.N,P68_1V8*
G04 #@! TO.P,J2,15,15*
X-27344000Y-470000D03*
G04 #@! TO.N,P61_1V8*
G04 #@! TO.P,J2,3,3*
X-27344000Y14770000D03*
G04 #@! TO.N,P72_1V8*
G04 #@! TO.P,J2,14,14*
X-24804000Y2070000D03*
G04 #@! TO.N,P43_1V8*
G04 #@! TO.P,J2,6,6*
X-24804000Y12230000D03*
G04 #@! TO.N,P49_1V8*
G04 #@! TO.P,J2,22,22*
X-24804000Y-8090000D03*
G04 #@! TO.N,P65_1V8*
G04 #@! TO.P,J2,12,12*
X-24804000Y4610000D03*
G04 #@! TO.N,P62_1V8*
G04 #@! TO.P,J2,26,26*
X-24804000Y-13170000D03*
G04 #@! TO.N,P52_1V8*
G04 #@! TO.P,J2,9,9*
X-27344000Y7150000D03*
G04 #@! TO.N,P46_1V8*
G04 #@! TO.P,J2,1,1*
X-27344000Y17310000D03*
G04 #@! TO.N,P50_1V8*
G04 #@! TO.P,J2,23,23*
X-27344000Y-10630000D03*
G04 #@! TO.N,P56_1V8*
G04 #@! TO.P,J2,13,13*
X-27344000Y2070000D03*
G04 #@! TO.N,P58_1V8*
G04 #@! TO.P,J2,19,19*
X-27344000Y-5550000D03*
G04 #@! TO.N,P59_1V8*
G04 #@! TO.P,J2,11,11*
X-27344000Y4610000D03*
G04 #@! TO.N,P54_1V8*
G04 #@! TO.P,J2,7,7*
X-27344000Y9690000D03*
G04 #@! TO.N,P44_1V8*
G04 #@! TO.P,J2,5,5*
X-27344000Y12230000D03*
G04 #@! TO.N,P60_1V8*
G04 #@! TO.P,J2,4,4*
X-24804000Y14770000D03*
G04 #@! TO.N,P66_1V8*
G04 #@! TO.P,J2,28,28*
X-24804000Y-15710000D03*
G04 #@! TO.N,P69_1V8*
G04 #@! TO.P,J2,29,29*
X-27344000Y-18250000D03*
G04 #@! TO.N,P70_1V8*
G04 #@! TO.P,J2,17,17*
X-27344000Y-3010000D03*
G04 #@! TO.N,P51_1V8*
G04 #@! TO.P,J2,30,30*
X-24804000Y-18250000D03*
G04 #@! TO.N,P71_1V8*
G04 #@! TO.P,J2,16,16*
X-24804000Y-470000D03*
G04 #@! TO.N,P47_1V8*
G04 #@! TO.P,J2,20,20*
X-24804000Y-5550000D03*
G04 #@! TO.N,P48_1V8*
G04 #@! TO.P,J2,21,21*
X-27344000Y-8090000D03*
G04 #@! TO.N,P67_1V8*
G04 #@! TO.P,J2,27,27*
X-27344000Y-15710000D03*
G04 #@! TO.N,P57_1V8*
G04 #@! TO.P,J2,10,10*
X-24804000Y7150000D03*
G04 #@! TO.N,P63_1V8*
G04 #@! TO.P,J2,25,25*
X-27344000Y-13170000D03*
G04 #@! TO.N,GND*
G04 #@! TO.C,J4*
G04 #@! TO.P,J4,2,2*
X-31589000Y19991000D03*
G04 #@! TO.N,+5V*
G04 #@! TO.P,J4,1,1*
X-31589000Y22531000D03*
G04 #@! TO.N,P38_3V3*
G04 #@! TO.C,J6*
G04 #@! TO.P,J6,26,26*
X27340000Y-13170000D03*
G04 #@! TO.N,P1_3V3*
G04 #@! TO.P,J6,4,4*
X27340000Y14770000D03*
G04 #@! TO.N,P24_3V3*
G04 #@! TO.P,J6,14,14*
X27340000Y2070000D03*
G04 #@! TO.N,P44_3V3*
G04 #@! TO.P,J6,21,21*
X24800000Y-8090000D03*
G04 #@! TO.N,P2_3V3*
G04 #@! TO.P,J6,6,6*
X27340000Y12230000D03*
G04 #@! TO.N,P26_3V3*
G04 #@! TO.P,J6,11,11*
X24800000Y4610000D03*
G04 #@! TO.N,P40_3V3*
G04 #@! TO.P,J6,28,28*
X27340000Y-15710000D03*
G04 #@! TO.N,P22_3V3*
G04 #@! TO.P,J6,16,16*
X27340000Y-470000D03*
G04 #@! TO.N,P48_3V3*
G04 #@! TO.P,J6,17,17*
X24800000Y-3010000D03*
G04 #@! TO.N,P7_3V3*
G04 #@! TO.P,J6,9,9*
X24800000Y7150000D03*
G04 #@! TO.N,P23_3V3*
G04 #@! TO.P,J6,13,13*
X24800000Y2070000D03*
G04 #@! TO.N,P3_3V3*
G04 #@! TO.P,J6,5,5*
X24800000Y12230000D03*
G04 #@! TO.N,P0_3V3*
G04 #@! TO.P,J6,2,2*
X27340000Y17310000D03*
G04 #@! TO.N,P45_3V3*
G04 #@! TO.P,J6,22,22*
X27340000Y-8090000D03*
G04 #@! TO.N,P35_3V3*
G04 #@! TO.P,J6,23,23*
X24800000Y-10630000D03*
G04 #@! TO.N,P37_3V3*
G04 #@! TO.P,J6,25,25*
X24800000Y-13170000D03*
G04 #@! TO.N,P9_3V3*
G04 #@! TO.P,J6,8,8*
X27340000Y9690000D03*
G04 #@! TO.N,P43_3V3*
G04 #@! TO.P,J6,18,18*
X27340000Y-3010000D03*
G04 #@! TO.N,P6_3V3*
G04 #@! TO.P,J6,7,7*
X24800000Y9690000D03*
G04 #@! TO.N,P49_3V3*
G04 #@! TO.P,J6,20,20*
X27340000Y-5550000D03*
G04 #@! TO.N,N/C*
G04 #@! TO.P,J6,15,15*
X24800000Y-470000D03*
G04 #@! TO.N,GND*
G04 #@! TO.P,J6,30,30*
X27340000Y-18250000D03*
G04 #@! TO.N,P5_3V3*
G04 #@! TO.P,J6,1,1*
X24800000Y17310000D03*
G04 #@! TO.N,P4_3V3*
G04 #@! TO.P,J6,3,3*
X24800000Y14770000D03*
G04 #@! TO.N,P8_3V3*
G04 #@! TO.P,J6,10,10*
X27340000Y7150000D03*
G04 #@! TO.N,P25_3V3*
G04 #@! TO.P,J6,12,12*
X27340000Y4610000D03*
G04 #@! TO.N,VCC3V3*
G04 #@! TO.P,J6,29,29*
X24800000Y-18250000D03*
G04 #@! TO.N,P42_3V3*
G04 #@! TO.P,J6,19,19*
X24800000Y-5550000D03*
G04 #@! TO.N,P41_3V3*
G04 #@! TO.P,J6,27,27*
X24800000Y-15710000D03*
G04 #@! TO.N,P36_3V3*
G04 #@! TO.P,J6,24,24*
X27340000Y-10630000D03*
G04 #@! TO.N,P29_1V8*
G04 #@! TO.C,J1*
G04 #@! TO.P,J1,42,42*
X26202000Y27340000D03*
G04 #@! TO.N,P41_1V8*
G04 #@! TO.P,J1,9,9*
X-14438000Y24800000D03*
G04 #@! TO.N,P0_1V8*
G04 #@! TO.P,J1,6,6*
X-19518000Y27340000D03*
G04 #@! TO.N,P30_1V8*
G04 #@! TO.P,J1,41,41*
X26202000Y24800000D03*
G04 #@! TO.N,P7_1V8*
G04 #@! TO.P,J1,19,19*
X-1738000Y24800000D03*
G04 #@! TO.N,P11_1V8*
G04 #@! TO.P,J1,26,26*
X5882000Y27340000D03*
G04 #@! TO.N,P1_1V8*
G04 #@! TO.P,J1,5,5*
X-19518000Y24800000D03*
G04 #@! TO.N,P40_1V8*
G04 #@! TO.P,J1,17,17*
X-4278000Y24800000D03*
G04 #@! TO.N,GND*
G04 #@! TO.P,J1,44,44*
X28742000Y27340000D03*
G04 #@! TO.N,P6_1V8*
G04 #@! TO.P,J1,8,8*
X-16978000Y27340000D03*
G04 #@! TO.N,P27_1V8*
G04 #@! TO.P,J1,40,40*
X23662000Y27340000D03*
G04 #@! TO.N,P22_1V8*
G04 #@! TO.P,J1,30,30*
X10962000Y27340000D03*
G04 #@! TO.N,P23_1V8*
G04 #@! TO.P,J1,31,31*
X13502000Y24800000D03*
G04 #@! TO.N,P34_1V8*
G04 #@! TO.P,J1,1,1*
X-24598000Y24800000D03*
G04 #@! TO.N,P21_1V8*
G04 #@! TO.P,J1,29,29*
X10962000Y24800000D03*
G04 #@! TO.N,P31_1V8*
G04 #@! TO.P,J1,34,34*
X16042000Y27340000D03*
G04 #@! TO.N,P32_1V8*
G04 #@! TO.P,J1,3,3*
X-22058000Y24800000D03*
G04 #@! TO.N,P12_1V8*
G04 #@! TO.P,J1,25,25*
X5882000Y24800000D03*
G04 #@! TO.N,P17_1V8*
G04 #@! TO.P,J1,24,24*
X3342000Y27340000D03*
G04 #@! TO.N,P33_1V8*
G04 #@! TO.P,J1,2,2*
X-24598000Y27340000D03*
G04 #@! TO.N,P20_1V8*
G04 #@! TO.P,J1,28,28*
X8422000Y27340000D03*
G04 #@! TO.N,P37_1V8*
G04 #@! TO.P,J1,16,16*
X-6818000Y27340000D03*
G04 #@! TO.N,P13_1V8*
G04 #@! TO.P,J1,22,22*
X802000Y27340000D03*
G04 #@! TO.N,P14_1V8*
G04 #@! TO.P,J1,38,38*
X21122000Y27340000D03*
G04 #@! TO.N,VCC1V8*
G04 #@! TO.P,J1,43,43*
X28742000Y24800000D03*
G04 #@! TO.N,P35_1V8*
G04 #@! TO.P,J1,13,13*
X-9358000Y24800000D03*
G04 #@! TO.N,P25_1V8*
G04 #@! TO.P,J1,33,33*
X16042000Y24800000D03*
G04 #@! TO.N,P2_1V8*
G04 #@! TO.P,J1,4,4*
X-22058000Y27340000D03*
G04 #@! TO.N,P19_1V8*
G04 #@! TO.P,J1,27,27*
X8422000Y24800000D03*
G04 #@! TO.N,P3_1V8*
G04 #@! TO.P,J1,7,7*
X-16978000Y24800000D03*
G04 #@! TO.N,P4_1V8*
G04 #@! TO.P,J1,11,11*
X-11898000Y24800000D03*
G04 #@! TO.N,P15_1V8*
G04 #@! TO.P,J1,35,35*
X18582000Y24800000D03*
G04 #@! TO.N,P8_1V8*
G04 #@! TO.P,J1,20,20*
X-1738000Y27340000D03*
G04 #@! TO.N,P28_1V8*
G04 #@! TO.P,J1,37,37*
X21122000Y24800000D03*
G04 #@! TO.N,P10_1V8*
G04 #@! TO.P,J1,21,21*
X802000Y24800000D03*
G04 #@! TO.N,P38_1V8*
G04 #@! TO.P,J1,18,18*
X-4278000Y27340000D03*
G04 #@! TO.N,P16_1V8*
G04 #@! TO.P,J1,36,36*
X18582000Y27340000D03*
G04 #@! TO.N,P18_1V8*
G04 #@! TO.P,J1,23,23*
X3342000Y24800000D03*
G04 #@! TO.N,P39_1V8*
G04 #@! TO.P,J1,15,15*
X-6818000Y24800000D03*
G04 #@! TO.N,P24_1V8*
G04 #@! TO.P,J1,32,32*
X13502000Y27340000D03*
G04 #@! TO.N,P9_1V8*
G04 #@! TO.P,J1,12,12*
X-11898000Y27340000D03*
G04 #@! TO.N,P36_1V8*
G04 #@! TO.P,J1,14,14*
X-9358000Y27340000D03*
G04 #@! TO.N,P26_1V8*
G04 #@! TO.P,J1,39,39*
X23662000Y24800000D03*
G04 #@! TO.N,P42_1V8*
G04 #@! TO.P,J1,10,10*
X-14438000Y27340000D03*
G04 #@! TO.N,GND*
G04 #@! TO.C,J8*
G04 #@! TO.P,J8,2,2*
X15040000Y-20070000D03*
G04 #@! TO.N,PROGRAM_B*
G04 #@! TO.P,J8,1,1*
X15040000Y-17530000D03*
G04 #@! TO.N,P57_3V3*
G04 #@! TO.C,J3*
G04 #@! TO.P,J3,24,24*
X33070000Y-10630000D03*
G04 #@! TO.N,P13_3V3*
G04 #@! TO.P,J3,2,2*
X33070000Y17310000D03*
G04 #@! TO.N,P33_3V3*
G04 #@! TO.P,J3,18,18*
X33070000Y-3010000D03*
G04 #@! TO.N,P11_3V3*
G04 #@! TO.P,J3,8,8*
X33070000Y9690000D03*
G04 #@! TO.N,P15_3V3*
G04 #@! TO.P,J3,15,15*
X30530000Y-470000D03*
G04 #@! TO.N,P27_3V3*
G04 #@! TO.P,J3,3,3*
X30530000Y14770000D03*
G04 #@! TO.N,P21_3V3*
G04 #@! TO.P,J3,14,14*
X33070000Y2070000D03*
G04 #@! TO.N,P10_3V3*
G04 #@! TO.P,J3,6,6*
X33070000Y12230000D03*
G04 #@! TO.N,P51_3V3*
G04 #@! TO.P,J3,22,22*
X33070000Y-8090000D03*
G04 #@! TO.N,P19_3V3*
G04 #@! TO.P,J3,12,12*
X33070000Y4610000D03*
G04 #@! TO.N,P55_3V3*
G04 #@! TO.P,J3,26,26*
X33070000Y-13170000D03*
G04 #@! TO.N,P18_3V3*
G04 #@! TO.P,J3,9,9*
X30530000Y7150000D03*
G04 #@! TO.N,N/C*
G04 #@! TO.P,J3,1,1*
X30530000Y17310000D03*
G04 #@! TO.N,P54_3V3*
G04 #@! TO.P,J3,23,23*
X30530000Y-10630000D03*
G04 #@! TO.N,P30_3V3*
G04 #@! TO.P,J3,13,13*
X30530000Y2070000D03*
G04 #@! TO.N,P29_3V3*
G04 #@! TO.P,J3,19,19*
X30530000Y-5550000D03*
G04 #@! TO.N,P20_3V3*
G04 #@! TO.P,J3,11,11*
X30530000Y4610000D03*
G04 #@! TO.N,P16_3V3*
G04 #@! TO.P,J3,7,7*
X30530000Y9690000D03*
G04 #@! TO.N,P12_3V3*
G04 #@! TO.P,J3,5,5*
X30530000Y12230000D03*
G04 #@! TO.N,P14_3V3*
G04 #@! TO.P,J3,4,4*
X33070000Y14770000D03*
G04 #@! TO.N,N/C*
G04 #@! TO.P,J3,28,28*
X33070000Y-15710000D03*
G04 #@! TO.N,P47_3V3*
G04 #@! TO.P,J3,29,29*
X30530000Y-18250000D03*
G04 #@! TO.N,P32_3V3*
G04 #@! TO.P,J3,17,17*
X30530000Y-3010000D03*
G04 #@! TO.N,P46_3V3*
G04 #@! TO.P,J3,30,30*
X33070000Y-18250000D03*
G04 #@! TO.N,P34_3V3*
G04 #@! TO.P,J3,16,16*
X33070000Y-470000D03*
G04 #@! TO.N,P31_3V3*
G04 #@! TO.P,J3,20,20*
X33070000Y-5550000D03*
G04 #@! TO.N,P50_3V3*
G04 #@! TO.P,J3,21,21*
X30530000Y-8090000D03*
G04 #@! TO.N,P52_3V3*
G04 #@! TO.P,J3,27,27*
X30530000Y-15710000D03*
G04 #@! TO.N,P17_3V3*
G04 #@! TO.P,J3,10,10*
X33070000Y7150000D03*
G04 #@! TO.N,P56_3V3*
G04 #@! TO.P,J3,25,25*
X30530000Y-13170000D03*
G04 #@! TO.N,N23*
G04 #@! TO.C,J5*
G04 #@! TO.P,J5,9,9*
X2817000Y-20270000D03*
G04 #@! TO.N,FLASH_VCC*
G04 #@! TO.P,J5,1,1*
X-7343000Y-20270000D03*
G04 #@! TO.N,GND*
G04 #@! TO.P,J5,4,4*
X-4803000Y-17730000D03*
G04 #@! TO.N,FLASH_SCK*
G04 #@! TO.P,J5,5,5*
X-2263000Y-20270000D03*
G04 #@! TO.N,VCC3V3*
G04 #@! TO.P,J5,2,2*
X-7343000Y-17730000D03*
G04 #@! TO.N,FLASH_VSS*
G04 #@! TO.P,J5,3,3*
X-4803000Y-20270000D03*
G04 #@! TO.N,CCLK*
G04 #@! TO.P,J5,6,6*
X-2263000Y-17730000D03*
G04 #@! TO.N,D0*
G04 #@! TO.P,J5,10,10*
X2817000Y-17730000D03*
G04 #@! TO.N,FLASH_CS*
G04 #@! TO.P,J5,11,11*
X5357000Y-20270000D03*
G04 #@! TO.N,FCS_B*
G04 #@! TO.P,J5,12,12*
X5357000Y-17730000D03*
G04 #@! TO.N,D1*
G04 #@! TO.P,J5,8,8*
X277000Y-17730000D03*
G04 #@! TO.N,N13*
G04 #@! TO.P,J5,7,7*
X277000Y-20270000D03*
D11*
G04 #@! TD.C*
G04 #@! TD.P*
G04 #@! TO.N,GND*
X-11651028Y-1955000D03*
D12*
X5501000Y-10676000D03*
X11200000Y9100000D03*
G04 #@! TO.N,VCC3V3*
X-4500000Y12400000D03*
G04 #@! TO.N,GND*
X-4500000Y10600000D03*
G04 #@! TO.N,P56_3V3*
X13958000Y-9994000D03*
G04 #@! TO.N,GND*
X-300000Y-6476000D03*
X4499000Y-7672000D03*
G04 #@! TO.N,VCC3V3*
X-9855000Y325000D03*
G04 #@! TO.N,P71_1V8*
X-8500000Y6524000D03*
G04 #@! TO.N,P45_3V3*
X9018000Y-11994000D03*
G04 #@! TO.N,P28_1V8*
X10017000Y11042000D03*
G04 #@! TO.N,P70_1V8*
X-9500000Y6524000D03*
G04 #@! TO.N,GND*
X-14200000Y2700000D03*
G04 #@! TO.N,VCC1V8*
X-6000000Y14700000D03*
G04 #@! TO.N,VCC3V3*
X10497000Y3528000D03*
G04 #@! TO.N,GND*
X2125000Y5300000D03*
G04 #@! TO.N,VCC1V8*
X-7000000Y14700000D03*
G04 #@! TO.N,P36_1V8*
X3017000Y9042000D03*
G04 #@! TO.N,PGOOD1*
X-5700000Y-3800000D03*
G04 #@! TO.N,GND*
X-7168028Y3947000D03*
X7700000Y-10472000D03*
G04 #@! TO.N,VCC1V0*
X-4018000Y-4993000D03*
G04 #@! TO.N,VCC3V3*
X5825000Y-5776000D03*
G04 #@! TO.N,GND*
X7575000Y-5776000D03*
G04 #@! TO.N,VCC1V8*
X-2500000Y1000000D03*
G04 #@! TO.N,SW2*
X-7000000Y-1025000D03*
G04 #@! TO.N,MODE/SYNC/1.8V*
X-4993000Y4261000D03*
G04 #@! TO.N,VCC1V8*
X7500000Y12524000D03*
G04 #@! TO.N,ITH2*
X-15400000Y300000D03*
G04 #@! TO.N,VFB1*
X-15405000Y-6825000D03*
G04 #@! TO.N,P59_1V8*
X-9500000Y9525000D03*
G04 #@! TO.N,P3_3V3*
X15746000Y3042000D03*
G04 #@! TO.N,GND*
X7575000Y-5176000D03*
X3499000Y-4675000D03*
G04 #@! TO.N,P58_1V8*
X-18038000Y10042000D03*
G04 #@! TO.N,P54_1V8*
X-20348000Y12042000D03*
G04 #@! TO.N,GND*
X7701000Y-471000D03*
G04 #@! TO.N,P17_1V8*
X9017000Y14752000D03*
G04 #@! TO.N,INIT_B*
X-3018000Y-4993000D03*
G04 #@! TO.N,INTVCC*
X-2617000Y5959000D03*
G04 #@! TO.N,VCC1V8*
X-4500000Y-3475000D03*
G04 #@! TO.N,P16_3V3*
X14228000Y-994000D03*
G04 #@! TO.N,P30_1V8*
X16517000Y10042000D03*
G04 #@! TO.N,+5V*
X-9855000Y-5525000D03*
G04 #@! TO.N,VCC3V3*
X8501000Y-471000D03*
G04 #@! TO.N,GND*
X-7138028Y4557000D03*
X-6393000Y6771000D03*
D11*
X-12621028Y-1955000D03*
D12*
G04 #@! TO.N,P57_3V3*
X13958000Y-8994000D03*
G04 #@! TO.N,GND*
X-18300000Y-1025000D03*
G04 #@! TO.N,P65_1V8*
X-7500000Y8524000D03*
G04 #@! TO.N,VCC1V0*
X-2501000Y4525000D03*
X-3018000Y5042000D03*
G04 #@! TO.N,P69_1V8*
X-12018000Y7042000D03*
G04 #@! TO.N,VCC1V8*
X8125000Y8524000D03*
G04 #@! TO.N,FB*
X-5593000Y6771000D03*
G04 #@! TO.N,VCC1V8*
X-11499000Y9522000D03*
G04 #@! TO.N,GND*
X-18270000Y-11503000D03*
G04 #@! TO.N,P7_3V3*
X9017000Y2042000D03*
G04 #@! TO.N,GND*
X2125000Y4700000D03*
G04 #@! TO.N,P18_3V3*
X15768000Y-994000D03*
G04 #@! TO.N,VCC3V3*
X14097000Y-13514000D03*
G04 #@! TO.N,P55_3V3*
X14728000Y-9994000D03*
G04 #@! TO.N,GND*
X-6300000Y10600000D03*
G04 #@! TO.N,VCC1V0*
X-500000Y-5480000D03*
X-1018000Y-5993000D03*
G04 #@! TO.N,GND*
X-9618000Y1749000D03*
G04 #@! TO.N,D2*
X500000Y-475000D03*
X1018000Y-22282000D03*
G04 #@! TO.N,P29_1V8*
X11017000Y11042000D03*
G04 #@! TO.N,VCC3V3*
X12500000Y-12475000D03*
G04 #@! TO.N,INT3V3*
X-8400000Y-4075000D03*
G04 #@! TO.N,SW*
X-11602000Y3314000D03*
D11*
G04 #@! TO.N,GND*
X-13591028Y-3273000D03*
D12*
G04 #@! TO.N,VCC3V3*
X11665000Y7674000D03*
G04 #@! TO.N,P52_3V3*
X6500000Y-10476000D03*
G04 #@! TO.N,P68_1V8*
X-9500000Y7524000D03*
G04 #@! TO.N,VCC3V3*
X5809000Y2564000D03*
G04 #@! TO.N,GND*
X-7300000Y2500000D03*
G04 #@! TO.N,P12_3V3*
X9500000Y524000D03*
G04 #@! TO.N,+5V*
X-7063000Y-5641000D03*
G04 #@! TO.N,VCC1V8*
X-5000000Y14700000D03*
G04 #@! TO.N,P0_1V8*
X3017000Y15522000D03*
G04 #@! TO.N,FB*
X-4953000Y7920000D03*
G04 #@! TO.N,P57_1V8*
X-10018000Y11042000D03*
G04 #@! TO.N,VFB2*
X-15655000Y3735000D03*
G04 #@! TO.N,P17_3V3*
X14998000Y-994000D03*
G04 #@! TO.N,GND*
X-7000000Y13900000D03*
G04 #@! TO.N,INTVCC*
X-3400000Y5390000D03*
G04 #@! TO.N,GND*
X-19670000Y-11503000D03*
G04 #@! TO.N,+5V*
X-19934000Y-5605000D03*
G04 #@! TO.N,P69_1V8*
X-13958000Y7042000D03*
G04 #@! TO.N,VCC1V0*
X-1499000Y-4476000D03*
G04 #@! TO.N,VCC1V8*
X5200000Y8427000D03*
G04 #@! TO.N,GND*
X-5613000Y-5641000D03*
G04 #@! TO.N,P49_3V3*
X17038000Y-10994000D03*
G04 #@! TO.N,VCC3V3*
X5501000Y-11476000D03*
G04 #@! TO.N,PGOOD1*
X-10900000Y-3800000D03*
G04 #@! TO.N,P7_1V8*
X6017000Y10042000D03*
G04 #@! TO.N,P60_1V8*
X-8500000Y9525000D03*
G04 #@! TO.N,VCC1V0*
X-1018000Y-1993000D03*
G04 #@! TO.N,P34_3V3*
X8500000Y-2476000D03*
D11*
G04 #@! TO.N,GND*
X-13591028Y-4589000D03*
D12*
G04 #@! TO.N,P72_1V8*
X-9018000Y8042000D03*
G04 #@! TO.N,P32_1V8*
X1017000Y15522000D03*
G04 #@! TO.N,P40_1V8*
X4500000Y7524000D03*
G04 #@! TO.N,P57_3V3*
X6018000Y-8994000D03*
G04 #@! TO.N,P37_1V8*
X4017000Y9042000D03*
G04 #@! TO.N,P7_1V8*
X6017000Y15522000D03*
G04 #@! TO.N,P41_1V8*
X2500000Y6524000D03*
G04 #@! TO.N,VCC3V3*
X-18520000Y6385000D03*
G04 #@! TO.N,P57_1V8*
X-18808000Y11042000D03*
G04 #@! TO.N,P15_1V8*
X7500000Y10525000D03*
G04 #@! TO.N,VCC1V8*
X-9618000Y2549000D03*
G04 #@! TO.N,GND*
X-4500000Y-2675000D03*
G04 #@! TO.N,VFB1*
X-15377000Y-13714000D03*
G04 #@! TO.N,VCC3V3*
X-6300000Y12400000D03*
G04 #@! TO.N,D3*
X-2982000Y-24500000D03*
X500000Y524000D03*
G04 #@! TO.N,P54_3V3*
X15498000Y-9994000D03*
G04 #@! TO.N,VCC1V8*
X-19670000Y-10003000D03*
G04 #@! TO.N,VCC3V3*
X-2700000Y12200000D03*
G04 #@! TO.N,MODE/SYNC/1.8V*
X-3400000Y6975000D03*
G04 #@! TO.N,GND*
X-5300000Y524000D03*
X-2325000Y7600000D03*
G04 #@! TO.N,D1*
X2018000Y-15474000D03*
G04 #@! TO.N,P51_3V3*
X14728000Y-8994000D03*
D11*
G04 #@! TO.N,GND*
X-12621028Y-3273000D03*
D12*
G04 #@! TO.N,P19_3V3*
X9018000Y-1994000D03*
G04 #@! TO.N,GND*
X-2700000Y10800000D03*
G04 #@! TO.N,+5V*
X-14088000Y5461000D03*
G04 #@! TO.N,VCC1V8*
X-8100000Y2500000D03*
G04 #@! TO.N,CLK_27MHZ*
X6500000Y8524000D03*
G04 #@! TO.N,CLK_29.5MHZ_RSET*
X11665000Y5724000D03*
G04 #@! TO.N,VCC1V8*
X-21270000Y-10103000D03*
G04 #@! TO.N,VCC3V3*
X8500000Y-10472000D03*
G04 #@! TO.N,P13_3V3*
X7017000Y3042000D03*
G04 #@! TO.N,P14_3V3*
X6497000Y1522000D03*
G04 #@! TO.N,VCC1V0*
X-1476000Y3500000D03*
X-2018000Y4042000D03*
G04 #@! TO.N,P29_1V8*
X16517000Y11042000D03*
G04 #@! TO.N,VCC1V0*
X-3018000Y3042000D03*
G04 #@! TO.N,VCC3V3*
X11501000Y524000D03*
G04 #@! TO.N,VCC1V8*
X-10500000Y6524000D03*
G04 #@! TO.N,GND*
X-6943000Y-2489000D03*
G04 #@! TO.N,BOOST2*
X-5600000Y-2525000D03*
G04 #@! TO.N,VCC1V0*
X-1018000Y1042000D03*
X-500000Y524000D03*
G04 #@! TO.N,GND*
X6697000Y-7472000D03*
G04 #@! TO.N,VCC1V8*
X-11300000Y-10600000D03*
G04 #@! TO.N,GND*
X-18325000Y800000D03*
G04 #@! TO.N,VCC3V3*
X-1718000Y-13938000D03*
G04 #@! TO.N,INTVCC*
X-3614000Y4911000D03*
G04 #@! TO.N,VCC1V0*
X-3500000Y1525000D03*
G04 #@! TO.N,GND*
X8500000Y10325000D03*
G04 #@! TO.N,FB*
X-5593000Y2503000D03*
G04 #@! TO.N,P38_1V8*
X5017000Y9042000D03*
G04 #@! TO.N,VCC1V8*
X8499000Y9522000D03*
X-4500000Y524000D03*
G04 #@! TO.N,P0_1V8*
X3017000Y10042000D03*
G04 #@! TO.N,SW2*
X-8000000Y-1025000D03*
G04 #@! TO.N,P35_1V8*
X1500000Y7525000D03*
G04 #@! TO.N,FB*
X-4707000Y9239000D03*
G04 #@! TO.N,GND*
X-12299000Y9522000D03*
G04 #@! TO.N,VCC3V3*
X7497000Y-7472000D03*
G04 #@! TO.N,GND*
X-3700000Y-1475000D03*
G04 #@! TO.N,CLK_3V3_29.5MHZ*
X7500000Y525000D03*
G04 #@! TO.N,GND*
X10700000Y10524000D03*
G04 #@! TO.N,P22_3V3*
X10018000Y-2994000D03*
G04 #@! TO.N,VFB2*
X-15405000Y-975000D03*
G04 #@! TO.N,VCC1V8*
X2500000Y7525000D03*
X-12602000Y5564000D03*
G04 #@! TO.N,VCC3V3*
X8092000Y5812000D03*
G04 #@! TO.N,VCC1V8*
X-4000000Y14700000D03*
G04 #@! TO.N,P30_3V3*
X5500000Y524000D03*
G04 #@! TO.N,P58_1V8*
X-11018000Y10042000D03*
G04 #@! TO.N,+5V*
X-9213000Y4261000D03*
G04 #@! TO.N,P16_1V8*
X7500000Y11524000D03*
G04 #@! TO.N,VCC1V0*
X-4018000Y2042000D03*
G04 #@! TO.N,GND*
X-6000000Y13900000D03*
G04 #@! TO.N,P29_3V3*
X4500000Y524000D03*
G04 #@! TO.N,P39_1V8*
X3500000Y7524000D03*
G04 #@! TO.N,GND*
X-6648028Y3947000D03*
G04 #@! TO.N,VCC1V8*
X-12500000Y12522000D03*
G04 #@! TO.N,P45_3V3*
X15498000Y-11994000D03*
G04 #@! TO.N,MODE/SYNC/1.8V*
X-3875000Y7600000D03*
G04 #@! TO.N,P46_3V3*
X7500000Y-11476000D03*
G04 #@! TO.N,VCC1V0*
X-1500000Y-2476000D03*
X-2018000Y-2993000D03*
G04 #@! TO.N,VCC1V8*
X-7493000Y7523000D03*
G04 #@! TO.N,P56_3V3*
X8018000Y-9994000D03*
G04 #@! TO.N,P49_3V3*
X10018000Y-10994000D03*
G04 #@! TO.N,LED1*
X-18536000Y-8000D03*
G04 #@! TO.N,VCC1V0*
X-2499000Y2524000D03*
X-3018000Y-3993000D03*
G04 #@! TO.N,VFB1*
X-15398000Y-11056000D03*
G04 #@! TO.N,GND*
X-8470000Y11307000D03*
G04 #@! TO.N,P31_3V3*
X5500000Y-475000D03*
G04 #@! TO.N,VFB1*
X-15477000Y-9723000D03*
G04 #@! TO.N,VCC3V3*
X4499000Y-8472000D03*
X-21800000Y-2650000D03*
G04 #@! TO.N,P42_1V8*
X3500000Y6524000D03*
G04 #@! TO.N,VCC1V8*
X-3157000Y9240000D03*
G04 #@! TO.N,GND*
X-9500000Y-10600000D03*
G04 #@! TO.N,VCC3V3*
X5825000Y-5176000D03*
X-7000000Y1225000D03*
G04 #@! TO.N,GND*
X5806000Y1764000D03*
G04 #@! TO.N,VCC1V8*
X-6393000Y2503000D03*
X4489000Y11524000D03*
G04 #@! TO.N,VCC3V3*
X14097000Y-12914000D03*
D11*
G04 #@! TO.N,GND*
X-11651028Y-5905000D03*
D12*
G04 #@! TO.N,VCC1V0*
X-2500000Y-3475000D03*
G04 #@! TO.N,GND*
X-8293000Y7523000D03*
G04 #@! TO.N,P50_3V3*
X15498000Y-8994000D03*
G04 #@! TO.N,GND*
X-6503000Y7920000D03*
X-2500000Y-1500000D03*
G04 #@! TO.N,VCC1V0*
X-3500000Y-475000D03*
G04 #@! TO.N,GND*
X-21270000Y-11903000D03*
G04 #@! TO.N,FCS_B*
X4500000Y-476000D03*
G04 #@! TO.N,VCC1V0*
X-4018000Y-2993000D03*
G04 #@! TO.N,GND*
X-7664028Y4577000D03*
X-7678028Y3957000D03*
G04 #@! TO.N,SW2*
X-5600000Y-1075000D03*
G04 #@! TO.N,VCC1V0*
X-475000Y4500000D03*
X-1018000Y5042000D03*
G04 #@! TO.N,P54_1V8*
X-9018000Y12042000D03*
G04 #@! TO.N,VCC1V0*
X-3501000Y-2475000D03*
G04 #@! TO.N,VCC1V8*
X-4500000Y2524000D03*
X9700000Y9100000D03*
G04 #@! TO.N,VCC1V0*
X-2018000Y-4993000D03*
X-1018000Y3042000D03*
X-500000Y2524000D03*
G04 #@! TO.N,VCC3V3*
X-14105000Y3735000D03*
G04 #@! TO.N,VCC1V0*
X-3500000Y-4475000D03*
G04 #@! TO.N,VFB1*
X-15398000Y-12387000D03*
G04 #@! TO.N,P3_3V3*
X10017000Y3042000D03*
G04 #@! TO.N,VCC1V8*
X-4500000Y-1476000D03*
G04 #@! TO.N,CCLK*
X-500000Y5524000D03*
G04 #@! TO.N,P47_3V3*
X6500000Y-11476000D03*
G04 #@! TO.N,VCC1V8*
X-2500000Y-700000D03*
G04 #@! TO.N,P16_3V3*
X10018000Y-994000D03*
G04 #@! TO.N,P27_3V3*
X8017000Y2042000D03*
G04 #@! TO.N,VCC1V8*
X3875000Y4700000D03*
G04 #@! TO.N,SW2*
X-9855000Y-975000D03*
G04 #@! TO.N,P64_1V8*
X-15728000Y9042000D03*
G04 #@! TO.N,VCC1V0*
X-4018000Y-993000D03*
G04 #@! TO.N,VFB2*
X-17005000Y4824000D03*
G04 #@! TO.N,P10_3V3*
X10500000Y525000D03*
G04 #@! TO.N,ITH2*
X-16900000Y-947000D03*
G04 #@! TO.N,VCC3V3*
X3499000Y-5475000D03*
G04 #@! TO.N,P32_3V3*
X6500000Y-1476000D03*
G04 #@! TO.N,GND*
X-11700000Y12522000D03*
G04 #@! TO.N,D1*
X2018000Y-1994000D03*
G04 #@! TO.N,FLASH_CS*
X-4418000Y-33833000D03*
G04 #@! TO.N,VCC3V3*
X5499000Y-1475000D03*
G04 #@! TO.N,P21_3V3*
X17308000Y-1994000D03*
G04 #@! TO.N,LED1*
X-21236000Y1392000D03*
G04 #@! TO.N,+5V*
X-8393000Y-2489000D03*
G04 #@! TO.N,VCC3V3*
X1500000Y525000D03*
G04 #@! TO.N,P64_1V8*
X-9018000Y9042000D03*
G04 #@! TO.N,GND*
X-18560000Y-5605000D03*
G04 #@! TO.N,VCC1V8*
X11500000Y10524000D03*
G04 #@! TO.N,GND*
X-3700000Y2525000D03*
G04 #@! TO.N,VCC1V8*
X-11602000Y5564000D03*
G04 #@! TO.N,GND*
X15847000Y-12914000D03*
X-5000000Y13900000D03*
G04 #@! TO.N,P15_3V3*
X6500000Y-476000D03*
G04 #@! TO.N,SW*
X-9213000Y3611000D03*
G04 #@! TO.N,P17_1V8*
X9017000Y11042000D03*
G04 #@! TO.N,VCC1V8*
X-8470000Y10507000D03*
G04 #@! TO.N,P7_3V3*
X17286000Y2042000D03*
G04 #@! TO.N,BOOST2*
X-9855000Y-2925000D03*
G04 #@! TO.N,GND*
X-2500000Y200000D03*
X-17200000Y-5605000D03*
G04 #@! TO.N,P19_3V3*
X15768000Y-1994000D03*
G04 #@! TO.N,GND*
X-11300000Y6524000D03*
G04 #@! TO.N,P32_1V8*
X1017000Y6042000D03*
G04 #@! TO.N,ITH2*
X-16875000Y800000D03*
G04 #@! TO.N,P11_3V3*
X8500000Y525000D03*
G04 #@! TO.N,INT3V3*
X-7275000Y-3800000D03*
G04 #@! TO.N,VCC1V8*
X-18170000Y-10103000D03*
G04 #@! TO.N,GND*
X15847000Y-13514000D03*
X11700000Y-12475000D03*
X2300000Y525000D03*
G04 #@! TO.N,P4_1V8*
X5017000Y14752000D03*
G04 #@! TO.N,VCC1V8*
X3875000Y5300000D03*
G04 #@! TO.N,FLASH_CS*
X5357000Y-22570000D03*
G04 #@! TO.N,GND*
X-22186000Y-558000D03*
G04 #@! TO.N,P33_3V3*
X7500000Y-1476000D03*
G04 #@! TO.N,GND*
X-1817000Y5959000D03*
G04 #@! TO.N,D0*
X500000Y-1475000D03*
G04 #@! TO.N,VCC1V0*
X-3501000Y3525000D03*
X-4018000Y4042000D03*
G04 #@! TO.N,PGOOD1*
X-15400000Y-6200000D03*
G04 #@! TO.N,VFB2*
X-17070000Y6385000D03*
X-15490000Y1950000D03*
D11*
G04 #@! TO.N,GND*
X-13591028Y-1955000D03*
D12*
G04 #@! TO.N,P22_3V3*
X18848000Y-2994000D03*
G04 #@! TO.N,P30_1V8*
X10017000Y10042000D03*
G04 #@! TO.N,P20_3V3*
X16538000Y-1994000D03*
G04 #@! TO.N,+5V*
X-9855000Y-2275000D03*
G04 #@! TO.N,VCC1V0*
X-1018000Y-3993000D03*
X-500000Y-3476000D03*
G04 #@! TO.N,GND*
X-7674028Y5197000D03*
G04 #@! TO.N,P4_1V8*
X5017000Y10042000D03*
G04 #@! TO.N,SW*
X-12602000Y3314000D03*
G04 #@! TO.N,FB*
X-4993000Y5561000D03*
G04 #@! TO.N,P14_1V8*
X7500000Y9524000D03*
G04 #@! TO.N,GND*
X-15538000Y5461000D03*
X-4000000Y13900000D03*
G04 #@! TO.N,INT3V3*
X-9855000Y-4225000D03*
D11*
G04 #@! TO.N,GND*
X-11651028Y-3273000D03*
D12*
G04 #@! TO.N,P61_1V8*
X-7500000Y9524000D03*
G04 #@! TO.N,VCC3V3*
X-8000000Y1225000D03*
D13*
G04 #@! TA.AperFunction,Conductor*
G04 #@! TO.N,P19_3V3*
G36*
X8530000Y-1892252D02*
X8549500Y-1951579D01*
X8616945Y-1991395D01*
X8622909Y-1992180D01*
X8635463Y-1995544D01*
X8743947Y-2040480D01*
X8755199Y-2046976D01*
X8848352Y-2118456D01*
X8857544Y-2127648D01*
X8929024Y-2220801D01*
X8935522Y-2232056D01*
X8954663Y-2278268D01*
X8995381Y-2325617D01*
X9047050Y-2340000D01*
X9559593Y-2340000D01*
X9575404Y-2338742D01*
X9626076Y-2330628D01*
X9633971Y-2330000D01*
X15990950Y-2330000D01*
X16050277Y-2310500D01*
X16086466Y-2259605D01*
X16083337Y-2191733D01*
X16057544Y-2129463D01*
X16054182Y-2116916D01*
X16038855Y-2000494D01*
X16038855Y-1987506D01*
X16054182Y-1871084D01*
X16057544Y-1858537D01*
X16102480Y-1750053D01*
X16108976Y-1738801D01*
X16145752Y-1690875D01*
X16166398Y-1631937D01*
X16148052Y-1572243D01*
X16097868Y-1535074D01*
X16066418Y-1530000D01*
X14765855Y-1530000D01*
X14704609Y-1550950D01*
X14696825Y-1556981D01*
X14612111Y-1603304D01*
X14603748Y-1606929D01*
X14552536Y-1623762D01*
X14544851Y-1625627D01*
X14459015Y-1639372D01*
X14451120Y-1640000D01*
X9635852Y-1640000D01*
X9624307Y-1638644D01*
X9500406Y-1609121D01*
X9489487Y-1605124D01*
X9418901Y-1569461D01*
X9410125Y-1563801D01*
X9395585Y-1552098D01*
X9332885Y-1530000D01*
X8629999Y-1530000D01*
X8570672Y-1549500D01*
X8530000Y-1629999D01*
X8530000Y-1892252D01*
G37*
G04 #@! TO.N,P56_3V3*
G36*
X7200000Y-10028042D02*
X7219500Y-10087369D01*
X7270395Y-10123558D01*
X7332836Y-10122496D01*
X7360875Y-10107376D01*
X7444801Y-10042976D01*
X7456053Y-10036480D01*
X7564537Y-9991544D01*
X7577084Y-9988182D01*
X7693506Y-9972855D01*
X7706494Y-9972855D01*
X7822916Y-9988182D01*
X7835463Y-9991544D01*
X7943947Y-10036480D01*
X7955199Y-10042976D01*
X8039124Y-10107375D01*
X8098062Y-10128021D01*
X8160876Y-10107375D01*
X8244801Y-10042976D01*
X8256053Y-10036480D01*
X8364537Y-9991544D01*
X8377084Y-9988182D01*
X8493506Y-9972855D01*
X8506494Y-9972855D01*
X8622916Y-9988182D01*
X8635463Y-9991544D01*
X8743947Y-10036480D01*
X8755199Y-10042976D01*
X8848352Y-10114456D01*
X8857544Y-10123648D01*
X8900564Y-10179712D01*
X8952151Y-10214908D01*
X9003492Y-10216012D01*
X9010250Y-10214371D01*
X9096076Y-10200628D01*
X9103971Y-10200000D01*
X14141093Y-10200000D01*
X14200420Y-10180500D01*
X14236609Y-10129605D01*
X14240236Y-10086948D01*
X14228855Y-10000501D01*
X14228855Y-9987506D01*
X14244182Y-9871084D01*
X14247545Y-9858534D01*
X14255940Y-9838266D01*
X14260628Y-9775992D01*
X14227455Y-9723082D01*
X14163553Y-9700000D01*
X7299999Y-9700000D01*
X7240672Y-9719500D01*
X7200000Y-9799999D01*
X7200000Y-10028042D01*
G37*
G04 #@! TO.N,P49_3V3*
G36*
X9000000Y-11200001D02*
X9019500Y-11259328D01*
X9099999Y-11300000D01*
X16894148Y-11300000D01*
X16905693Y-11301356D01*
X17029594Y-11330879D01*
X17040513Y-11334876D01*
X17111101Y-11370540D01*
X17119881Y-11376203D01*
X17121994Y-11377903D01*
X17123150Y-11378310D01*
X17124292Y-11379047D01*
X17124468Y-11378775D01*
X17184692Y-11400000D01*
X17400001Y-11400000D01*
X17459328Y-11380500D01*
X17500000Y-11300001D01*
X17500000Y-10599999D01*
X17480500Y-10540672D01*
X17400001Y-10500000D01*
X9099999Y-10500000D01*
X9040672Y-10519500D01*
X9000000Y-10599999D01*
X9000000Y-11200001D01*
G37*
G04 #@! TO.N,P64_1V8*
G36*
X-18570000Y8759999D02*
X-18550500Y8700672D01*
X-18470001Y8660000D01*
X-8369999Y8660000D01*
X-8310672Y8679500D01*
X-8270000Y8759999D01*
X-8270000Y8941252D01*
X-8289500Y9000579D01*
X-8340395Y9036768D01*
X-8383051Y9040396D01*
X-8493505Y9025855D01*
X-8506494Y9025855D01*
X-8622916Y9041182D01*
X-8635463Y9044544D01*
X-8743947Y9089480D01*
X-8755199Y9095976D01*
X-8848352Y9167456D01*
X-8857539Y9176643D01*
X-8891481Y9220877D01*
X-8970816Y9260000D01*
X-9029184Y9260000D01*
X-9108519Y9220877D01*
X-9142461Y9176643D01*
X-9151648Y9167456D01*
X-9244801Y9095976D01*
X-9256053Y9089480D01*
X-9364537Y9044544D01*
X-9377084Y9041182D01*
X-9493506Y9025855D01*
X-9506494Y9025855D01*
X-9622916Y9041182D01*
X-9635463Y9044544D01*
X-9743947Y9089480D01*
X-9755199Y9095976D01*
X-9848352Y9167456D01*
X-9857539Y9176643D01*
X-9891481Y9220877D01*
X-9970816Y9260000D01*
X-11025882Y9260000D01*
X-11105217Y9220877D01*
X-11141461Y9173643D01*
X-11150648Y9164456D01*
X-11243801Y9092976D01*
X-11255053Y9086480D01*
X-11363537Y9041544D01*
X-11376084Y9038182D01*
X-11492506Y9022855D01*
X-11505494Y9022855D01*
X-11621916Y9038182D01*
X-11634463Y9041544D01*
X-11742947Y9086480D01*
X-11754199Y9092976D01*
X-11838124Y9157375D01*
X-11897062Y9178021D01*
X-11959876Y9157375D01*
X-12043801Y9092976D01*
X-12055053Y9086480D01*
X-12163537Y9041544D01*
X-12176084Y9038182D01*
X-12292506Y9022855D01*
X-12305494Y9022855D01*
X-12421916Y9038182D01*
X-12434463Y9041544D01*
X-12542947Y9086480D01*
X-12554199Y9092976D01*
X-12647352Y9164456D01*
X-12656539Y9173643D01*
X-12692783Y9220877D01*
X-12772118Y9260000D01*
X-18470001Y9260000D01*
X-18529328Y9240500D01*
X-18570000Y9160001D01*
X-18570000Y8759999D01*
G37*
G04 #@! TO.N,P7_3V3*
G36*
X8530000Y1659999D02*
X8549500Y1600672D01*
X8629999Y1560000D01*
X18450001Y1560000D01*
X18509328Y1579500D01*
X18550000Y1659999D01*
X18550000Y2270001D01*
X18530500Y2329328D01*
X18450001Y2370000D01*
X16447771Y2370000D01*
X16400839Y2352955D01*
X16398716Y2356837D01*
X16307020Y2306696D01*
X16298657Y2303071D01*
X16247445Y2286238D01*
X16239760Y2284373D01*
X16153924Y2270628D01*
X16146029Y2270000D01*
X9335852Y2270000D01*
X9324307Y2271356D01*
X9200406Y2300879D01*
X9189487Y2304876D01*
X9118899Y2340540D01*
X9110119Y2346203D01*
X9108006Y2347903D01*
X9106850Y2348310D01*
X9105708Y2349047D01*
X9105532Y2348775D01*
X9045308Y2370000D01*
X8629999Y2370000D01*
X8570672Y2350500D01*
X8530000Y2270001D01*
X8530000Y1659999D01*
G37*
G04 #@! TO.N,P3_3V3*
G36*
X9230000Y2669999D02*
X9249500Y2610672D01*
X9329999Y2570000D01*
X16150001Y2570000D01*
X16209328Y2589500D01*
X16250000Y2669999D01*
X16250000Y3280001D01*
X16230500Y3339328D01*
X16150001Y3380000D01*
X11039080Y3380000D01*
X10979753Y3360500D01*
X10946693Y3318269D01*
X10932520Y3284053D01*
X10926024Y3272801D01*
X10854544Y3179648D01*
X10845352Y3170456D01*
X10752199Y3098976D01*
X10740947Y3092480D01*
X10632463Y3047544D01*
X10619916Y3044182D01*
X10503494Y3028855D01*
X10490506Y3028855D01*
X10374084Y3044182D01*
X10361537Y3047544D01*
X10253053Y3092480D01*
X10241801Y3098976D01*
X10148648Y3170456D01*
X10139456Y3179648D01*
X10067976Y3272801D01*
X10061480Y3284053D01*
X10047307Y3318269D01*
X10006588Y3365618D01*
X9954920Y3380000D01*
X9329999Y3380000D01*
X9270672Y3360500D01*
X9230000Y3280001D01*
X9230000Y2669999D01*
G37*
G04 #@! TO.N,SW2*
G36*
X-10400000Y-1400001D02*
X-10380500Y-1459328D01*
X-10300001Y-1500000D01*
X-5329999Y-1500000D01*
X-5270672Y-1480500D01*
X-5230000Y-1400001D01*
X-5230000Y-72913D01*
X-5249500Y-13586D01*
X-5316947Y26230D01*
X-5422908Y40180D01*
X-5435463Y43544D01*
X-5550000Y90987D01*
X-5550705Y89286D01*
X-5590695Y100000D01*
X-9353490Y100000D01*
X-9432824Y60877D01*
X-9497456Y-23352D01*
X-9506648Y-32544D01*
X-9599801Y-104024D01*
X-9611053Y-110520D01*
X-9719537Y-155456D01*
X-9732084Y-158818D01*
X-9848506Y-174145D01*
X-9861494Y-174145D01*
X-9977916Y-158818D01*
X-9990463Y-155456D01*
X-10098947Y-110520D01*
X-10110199Y-104024D01*
X-10203352Y-32544D01*
X-10212544Y-23352D01*
X-10220667Y-12766D01*
X-10272254Y22430D01*
X-10334662Y20158D01*
X-10383552Y-18697D01*
X-10400000Y-73642D01*
X-10400000Y-1400001D01*
G37*
G04 #@! TO.N,P57_3V3*
G36*
X4500000Y-9300001D02*
X4519500Y-9359328D01*
X4599999Y-9400000D01*
X14212838Y-9400000D01*
X14272165Y-9380500D01*
X14308354Y-9329605D01*
X14299440Y-9250002D01*
X14292479Y-9237945D01*
X14247544Y-9129463D01*
X14244182Y-9116916D01*
X14228855Y-9000494D01*
X14228855Y-8987506D01*
X14244182Y-8871084D01*
X14247544Y-8858537D01*
X14292480Y-8750053D01*
X14298976Y-8738801D01*
X14358772Y-8660875D01*
X14379418Y-8601937D01*
X14361072Y-8542243D01*
X14310888Y-8505074D01*
X14279438Y-8500000D01*
X5083010Y-8500000D01*
X5023683Y-8519500D01*
X4983866Y-8586948D01*
X4982817Y-8594916D01*
X4979455Y-8607466D01*
X4934520Y-8715947D01*
X4928024Y-8727199D01*
X4856544Y-8820352D01*
X4847352Y-8829544D01*
X4754199Y-8901024D01*
X4742947Y-8907520D01*
X4634463Y-8952456D01*
X4621909Y-8955820D01*
X4586946Y-8960423D01*
X4530672Y-8987500D01*
X4500000Y-9059566D01*
X4500000Y-9300001D01*
G37*
G04 #@! TO.N,P22_3V3*
G36*
X9530000Y-3340001D02*
X9549500Y-3399328D01*
X9629999Y-3440000D01*
X21450001Y-3440000D01*
X21509328Y-3420500D01*
X21550000Y-3340001D01*
X21550000Y-2729999D01*
X21530500Y-2670672D01*
X21450001Y-2630000D01*
X9629999Y-2630000D01*
X9570672Y-2649500D01*
X9530000Y-2729999D01*
X9530000Y-3340001D01*
G37*
G04 #@! TO.N,FB*
G36*
X-6000000Y2099999D02*
X-5980500Y2040672D01*
X-5900001Y2000000D01*
X-4923315Y2000000D01*
X-4863988Y2019500D01*
X-4827799Y2070395D01*
X-4828861Y2132836D01*
X-4852605Y2170709D01*
X-4857544Y2175648D01*
X-4929024Y2268801D01*
X-4935520Y2280053D01*
X-4980456Y2388537D01*
X-4983818Y2401084D01*
X-4999145Y2517506D01*
X-4999145Y2530494D01*
X-4983818Y2646916D01*
X-4980456Y2659463D01*
X-4935520Y2767947D01*
X-4929024Y2779199D01*
X-4857544Y2872352D01*
X-4848352Y2881544D01*
X-4755199Y2953024D01*
X-4743947Y2959520D01*
X-4635463Y3004456D01*
X-4622916Y3007818D01*
X-4506494Y3023145D01*
X-4493506Y3023145D01*
X-4413051Y3012553D01*
X-4351687Y3024143D01*
X-4309164Y3069879D01*
X-4300000Y3111697D01*
X-4300000Y3584228D01*
X-4339123Y3663562D01*
X-4366352Y3684456D01*
X-4375544Y3693648D01*
X-4447024Y3786801D01*
X-4453520Y3798053D01*
X-4483100Y3869465D01*
X-4523819Y3916814D01*
X-4584689Y3930772D01*
X-4638109Y3905703D01*
X-4639447Y3907447D01*
X-4737801Y3831976D01*
X-4749053Y3825480D01*
X-4857537Y3780544D01*
X-4870084Y3777182D01*
X-4986506Y3761855D01*
X-4999494Y3761855D01*
X-5115916Y3777182D01*
X-5128463Y3780544D01*
X-5236947Y3825480D01*
X-5248199Y3831976D01*
X-5341352Y3903456D01*
X-5350544Y3912648D01*
X-5422024Y4005801D01*
X-5428520Y4017053D01*
X-5473456Y4125537D01*
X-5476818Y4138084D01*
X-5492145Y4254506D01*
X-5492145Y4267494D01*
X-5476818Y4383916D01*
X-5473456Y4396463D01*
X-5428520Y4504947D01*
X-5422024Y4516199D01*
X-5350544Y4609352D01*
X-5341352Y4618544D01*
X-5248199Y4690024D01*
X-5236947Y4696520D01*
X-5128463Y4741456D01*
X-5115916Y4744818D01*
X-4999494Y4760145D01*
X-4986506Y4760145D01*
X-4870084Y4744818D01*
X-4857537Y4741456D01*
X-4749053Y4696520D01*
X-4737801Y4690024D01*
X-4644648Y4618544D01*
X-4635456Y4609352D01*
X-4563976Y4516199D01*
X-4557480Y4504947D01*
X-4527900Y4433535D01*
X-4487181Y4386186D01*
X-4426311Y4372228D01*
X-4372891Y4397297D01*
X-4371553Y4395553D01*
X-4339123Y4420438D01*
X-4300000Y4499772D01*
X-4300000Y7311037D01*
X-4310192Y7349097D01*
X-4308013Y7350000D01*
X-4355456Y7464537D01*
X-4358818Y7477084D01*
X-4374145Y7593506D01*
X-4374145Y7606494D01*
X-4358818Y7722916D01*
X-4355456Y7735463D01*
X-4308013Y7850000D01*
X-4310192Y7850903D01*
X-4300000Y7888963D01*
X-4300000Y9700001D01*
X-4319500Y9759328D01*
X-4399999Y9800000D01*
X-5900001Y9800000D01*
X-5959328Y9780500D01*
X-6000000Y9700001D01*
X-6000000Y7107090D01*
X-5979335Y7046213D01*
X-5963974Y7026194D01*
X-5957480Y7014947D01*
X-5912544Y6906463D01*
X-5909182Y6893916D01*
X-5893855Y6777494D01*
X-5893855Y6764506D01*
X-5909182Y6648084D01*
X-5912544Y6635537D01*
X-5957480Y6527053D01*
X-5963974Y6515806D01*
X-5979335Y6495787D01*
X-6000000Y6434910D01*
X-6000000Y2839090D01*
X-5979335Y2778213D01*
X-5963974Y2758194D01*
X-5957480Y2746947D01*
X-5912544Y2638463D01*
X-5909182Y2625916D01*
X-5893855Y2509494D01*
X-5893855Y2496506D01*
X-5909182Y2380084D01*
X-5912544Y2367537D01*
X-5957480Y2259053D01*
X-5963974Y2247806D01*
X-5979335Y2227787D01*
X-6000000Y2166910D01*
X-6000000Y2099999D01*
G37*
G04 #@! TO.N,P57_1V8*
G36*
X-20300000Y10699999D02*
X-20280500Y10640672D01*
X-20200001Y10600000D01*
X-19895192Y10600000D01*
X-19847215Y10612261D01*
X-19827020Y10623304D01*
X-19818657Y10626929D01*
X-19767445Y10643762D01*
X-19759760Y10645627D01*
X-19673924Y10659372D01*
X-19666029Y10660000D01*
X-10575852Y10660000D01*
X-10564307Y10658644D01*
X-10440406Y10629121D01*
X-10429484Y10625123D01*
X-10401029Y10610746D01*
X-10355933Y10600000D01*
X-9034862Y10600000D01*
X-8975535Y10619500D01*
X-8942475Y10661731D01*
X-8905520Y10750946D01*
X-8899024Y10762199D01*
X-8834625Y10846124D01*
X-8813979Y10905062D01*
X-8834625Y10967876D01*
X-8899024Y11051801D01*
X-8905520Y11063053D01*
X-8950456Y11171537D01*
X-8953820Y11184091D01*
X-8957633Y11213054D01*
X-8984710Y11269328D01*
X-9056776Y11300000D01*
X-20200001Y11300000D01*
X-20259328Y11280500D01*
X-20300000Y11200001D01*
X-20300000Y10699999D01*
G37*
G04 #@! TO.N,VFB1*
G36*
X-15900000Y-14000001D02*
X-15880500Y-14059328D01*
X-15800001Y-14100000D01*
X-14899999Y-14100000D01*
X-14840672Y-14080500D01*
X-14800000Y-14000001D01*
X-14800000Y-6609999D01*
X-14819500Y-6550672D01*
X-14899999Y-6510000D01*
X-14963714Y-6510000D01*
X-15035929Y-6545613D01*
X-15037823Y-6543719D01*
X-15051648Y-6557544D01*
X-15144801Y-6629024D01*
X-15156053Y-6635520D01*
X-15264537Y-6680456D01*
X-15277084Y-6683818D01*
X-15393506Y-6699145D01*
X-15406494Y-6699145D01*
X-15522916Y-6683818D01*
X-15535463Y-6680456D01*
X-15643947Y-6635520D01*
X-15655199Y-6629024D01*
X-15739125Y-6564624D01*
X-15798063Y-6543978D01*
X-15857757Y-6562324D01*
X-15894926Y-6612508D01*
X-15900000Y-6643958D01*
X-15900000Y-14000001D01*
G37*
G04 #@! TO.N,P16_3V3*
G36*
X9530000Y-1240001D02*
X9549500Y-1299328D01*
X9629999Y-1340000D01*
X14455092Y-1340000D01*
X14514419Y-1320500D01*
X14550608Y-1269605D01*
X14547479Y-1201733D01*
X14517544Y-1129463D01*
X14514182Y-1116916D01*
X14498855Y-1000494D01*
X14498855Y-987506D01*
X14514182Y-871084D01*
X14517544Y-858537D01*
X14562480Y-750053D01*
X14568976Y-738801D01*
X14605752Y-690875D01*
X14626398Y-631937D01*
X14608052Y-572243D01*
X14557868Y-535074D01*
X14526418Y-530000D01*
X9629999Y-530000D01*
X9570672Y-549500D01*
X9530000Y-629999D01*
X9530000Y-1240001D01*
G37*
G04 #@! TO.N,INT3V3*
G36*
X-10400000Y-4400001D02*
X-10380500Y-4459328D01*
X-10300001Y-4500000D01*
X-5199999Y-4500000D01*
X-5140672Y-4480500D01*
X-5100000Y-4400001D01*
X-5100000Y-4126965D01*
X-5119500Y-4067638D01*
X-5170395Y-4031449D01*
X-5232836Y-4032511D01*
X-5279333Y-4066089D01*
X-5342456Y-4148352D01*
X-5351648Y-4157544D01*
X-5444801Y-4229024D01*
X-5456053Y-4235520D01*
X-5564537Y-4280456D01*
X-5577084Y-4283818D01*
X-5693506Y-4299145D01*
X-5706494Y-4299145D01*
X-5822916Y-4283818D01*
X-5835463Y-4280456D01*
X-5943947Y-4235520D01*
X-5955199Y-4229024D01*
X-6048352Y-4157544D01*
X-6057544Y-4148352D01*
X-6129024Y-4055199D01*
X-6135520Y-4043947D01*
X-6180456Y-3935463D01*
X-6183818Y-3922916D01*
X-6199145Y-3806494D01*
X-6199145Y-3793506D01*
X-6183818Y-3677084D01*
X-6180456Y-3664537D01*
X-6135520Y-3556053D01*
X-6129024Y-3544801D01*
X-6064624Y-3460875D01*
X-6043978Y-3401937D01*
X-6062324Y-3342243D01*
X-6112508Y-3305074D01*
X-6143958Y-3300000D01*
X-9495452Y-3300000D01*
X-9556328Y-3320665D01*
X-9599801Y-3354024D01*
X-9611053Y-3360520D01*
X-9719537Y-3405456D01*
X-9732084Y-3408818D01*
X-9848506Y-3424145D01*
X-9861494Y-3424145D01*
X-9977916Y-3408818D01*
X-9990463Y-3405456D01*
X-10098947Y-3360520D01*
X-10110199Y-3354024D01*
X-10153672Y-3320665D01*
X-10214548Y-3300000D01*
X-10300001Y-3300000D01*
X-10359328Y-3319500D01*
X-10400000Y-3399999D01*
X-10400000Y-4400001D01*
G37*
G04 #@! TO.N,P4_1V8*
G36*
X4659057Y10981930D02*
X4660000Y10970078D01*
X4660000Y9590488D01*
X4659853Y9588797D01*
X4660000Y9588172D01*
X4660000Y9586150D01*
X4660475Y9586150D01*
X4674141Y9528004D01*
X4721709Y9487542D01*
X4797744Y9487748D01*
X4881537Y9522456D01*
X4894084Y9525818D01*
X5010506Y9541145D01*
X5023494Y9541145D01*
X5139916Y9525818D01*
X5152463Y9522456D01*
X5231733Y9489621D01*
X5294006Y9484933D01*
X5346918Y9518105D01*
X5370000Y9582008D01*
X5370000Y15820001D01*
X5350500Y15879328D01*
X5270001Y15920000D01*
X4759999Y15920000D01*
X4700672Y15900500D01*
X4660000Y15820001D01*
X4660000Y12077350D01*
X4659310Y12067201D01*
X4660193Y12067141D01*
X4670846Y12009225D01*
X4720359Y11964735D01*
X4732945Y11959522D01*
X4744199Y11953024D01*
X4837352Y11881544D01*
X4846544Y11872352D01*
X4918024Y11779199D01*
X4924520Y11767947D01*
X4969456Y11659463D01*
X4972818Y11646916D01*
X4988145Y11530494D01*
X4988145Y11517506D01*
X4972818Y11401084D01*
X4969456Y11388537D01*
X4924520Y11280053D01*
X4918024Y11268801D01*
X4846544Y11175648D01*
X4837352Y11166456D01*
X4744199Y11094976D01*
X4732948Y11088481D01*
X4720315Y11083248D01*
X4672965Y11042529D01*
X4661212Y10982101D01*
X4659057Y10981930D01*
G37*
G04 #@! TO.N,P69_1V8*
G36*
X-14500000Y6499999D02*
X-14480500Y6440672D01*
X-14400001Y6400000D01*
X-11897702Y6400000D01*
X-11838375Y6419500D01*
X-11802186Y6470395D01*
X-11798558Y6513049D01*
X-11799144Y6517503D01*
X-11799145Y6530496D01*
X-11783818Y6646916D01*
X-11780456Y6659463D01*
X-11735520Y6767947D01*
X-11729024Y6779199D01*
X-11657544Y6872352D01*
X-11648352Y6881544D01*
X-11555199Y6953024D01*
X-11543947Y6959520D01*
X-11461731Y6993575D01*
X-11414382Y7034294D01*
X-11400000Y7085962D01*
X-11400000Y7200001D01*
X-11419500Y7259328D01*
X-11499999Y7300000D01*
X-14400001Y7300000D01*
X-14459328Y7280500D01*
X-14500000Y7200001D01*
X-14500000Y6499999D01*
G37*
G04 #@! TO.N,P58_1V8*
G36*
X-19770000Y9659999D02*
X-19750500Y9600672D01*
X-19670001Y9560000D01*
X-12881695Y9560000D01*
X-12822368Y9579500D01*
X-12787082Y9639267D01*
X-12784516Y9638579D01*
X-12779456Y9657463D01*
X-12734520Y9765947D01*
X-12728024Y9777199D01*
X-12656544Y9870352D01*
X-12647352Y9879544D01*
X-12554199Y9951024D01*
X-12542947Y9957520D01*
X-12434463Y10002456D01*
X-12421916Y10005818D01*
X-12305494Y10021145D01*
X-12292506Y10021145D01*
X-12176084Y10005818D01*
X-12163537Y10002456D01*
X-12055053Y9957520D01*
X-12043801Y9951024D01*
X-11959876Y9886625D01*
X-11900938Y9865979D01*
X-11838124Y9886625D01*
X-11754199Y9951024D01*
X-11742947Y9957520D01*
X-11634463Y10002456D01*
X-11621916Y10005818D01*
X-11505494Y10021145D01*
X-11492506Y10021145D01*
X-11376084Y10005818D01*
X-11363537Y10002456D01*
X-11255053Y9957520D01*
X-11243801Y9951024D01*
X-11150648Y9879544D01*
X-11141456Y9870352D01*
X-11069976Y9777199D01*
X-11063480Y9765947D01*
X-11018544Y9657463D01*
X-11013484Y9638579D01*
X-11011660Y9639068D01*
X-10988365Y9590665D01*
X-10916305Y9560000D01*
X-10569999Y9560000D01*
X-10510672Y9579500D01*
X-10470000Y9659999D01*
X-10470000Y10260001D01*
X-10489500Y10319328D01*
X-10569999Y10360000D01*
X-19670001Y10360000D01*
X-19729328Y10340500D01*
X-19770000Y10260001D01*
X-19770000Y9659999D01*
G37*
G04 #@! TO.N,P29_1V8*
G36*
X10451137Y11349605D02*
X10454266Y11281733D01*
X10497456Y11177463D01*
X10500820Y11164909D01*
X10509396Y11099768D01*
X10536473Y11043494D01*
X10621592Y11013678D01*
X10693499Y11023145D01*
X10706494Y11023145D01*
X10822916Y11007818D01*
X10835463Y11004456D01*
X10943947Y10959520D01*
X10955199Y10953024D01*
X11039124Y10888625D01*
X11098062Y10867979D01*
X11160876Y10888625D01*
X11244801Y10953024D01*
X11256053Y10959520D01*
X11364537Y11004456D01*
X11377084Y11007818D01*
X11493506Y11023145D01*
X11506494Y11023145D01*
X11622916Y11007818D01*
X11635463Y11004456D01*
X11743947Y10959520D01*
X11755199Y10953024D01*
X11848352Y10881544D01*
X11857544Y10872352D01*
X11929024Y10779199D01*
X11938799Y10762268D01*
X11940021Y10762973D01*
X11976030Y10721099D01*
X12043512Y10707974D01*
X12052242Y10709372D01*
X12060135Y10710000D01*
X17450001Y10710000D01*
X17509328Y10729500D01*
X17550000Y10809999D01*
X17550000Y11320001D01*
X17530500Y11379328D01*
X17450001Y11420000D01*
X10546653Y11420000D01*
X10487326Y11400500D01*
X10451137Y11349605D01*
G37*
G04 #@! TO.N,LED1*
G36*
X-21600000Y1053517D02*
X-21580500Y994190D01*
X-21555470Y970313D01*
X-21303814Y802543D01*
X-21295973Y797819D01*
X-18922285Y-487929D01*
X-18874657Y-500000D01*
X-18199999Y-500000D01*
X-18140672Y-480500D01*
X-18100000Y-400001D01*
X-18100000Y141160D01*
X-18119500Y200487D01*
X-18151435Y228575D01*
X-18259750Y288750D01*
X-18311949Y298683D01*
X-18311949Y300855D01*
X-18331494Y300855D01*
X-18447916Y316182D01*
X-18460463Y319544D01*
X-18568947Y364480D01*
X-18580199Y370976D01*
X-18673352Y442456D01*
X-18682544Y451648D01*
X-18754022Y544799D01*
X-18755947Y548133D01*
X-18793984Y585547D01*
X-18999437Y699687D01*
X-19000591Y700318D01*
X-20298976Y1399448D01*
X-20301006Y1400604D01*
X-20776248Y1685749D01*
X-20827697Y1700000D01*
X-21500001Y1700000D01*
X-21559328Y1680500D01*
X-21600000Y1600001D01*
X-21600000Y1053517D01*
G37*
G04 #@! TO.N,SW*
G36*
X-13200000Y2799999D02*
X-13180500Y2740672D01*
X-13100001Y2700000D01*
X-10158837Y2700000D01*
X-10099510Y2719500D01*
X-10066450Y2761732D01*
X-10053522Y2792944D01*
X-10047024Y2804199D01*
X-9975544Y2897352D01*
X-9966352Y2906544D01*
X-9873199Y2978024D01*
X-9861947Y2984520D01*
X-9753463Y3029456D01*
X-9740916Y3032818D01*
X-9624494Y3048145D01*
X-9611506Y3048145D01*
X-9495084Y3032818D01*
X-9482537Y3029456D01*
X-9374053Y2984520D01*
X-9362801Y2978024D01*
X-9269648Y2906544D01*
X-9260456Y2897352D01*
X-9188976Y2804199D01*
X-9182478Y2792944D01*
X-9169550Y2761732D01*
X-9128832Y2714383D01*
X-9077163Y2700000D01*
X-8799999Y2700000D01*
X-8740672Y2719500D01*
X-8700000Y2799999D01*
X-8700000Y3827017D01*
X-8719500Y3886344D01*
X-8770395Y3922533D01*
X-8832836Y3921471D01*
X-8860875Y3906351D01*
X-8957801Y3831976D01*
X-8969053Y3825480D01*
X-9077537Y3780544D01*
X-9090084Y3777182D01*
X-9206506Y3761855D01*
X-9219494Y3761855D01*
X-9335916Y3777182D01*
X-9348463Y3780544D01*
X-9456947Y3825480D01*
X-9468199Y3831976D01*
X-9561352Y3903456D01*
X-9570544Y3912648D01*
X-9607552Y3960877D01*
X-9686886Y4000000D01*
X-13100001Y4000000D01*
X-13159328Y3980500D01*
X-13200000Y3900001D01*
X-13200000Y2799999D01*
G37*
G04 #@! TO.N,P45_3V3*
G36*
X8500000Y-12400001D02*
X8519500Y-12459328D01*
X8599999Y-12500000D01*
X11109011Y-12500000D01*
X11168338Y-12480500D01*
X11208154Y-12413054D01*
X11216180Y-12352091D01*
X11219544Y-12339537D01*
X11264480Y-12231053D01*
X11270976Y-12219801D01*
X11342456Y-12126648D01*
X11351648Y-12117456D01*
X11444801Y-12045976D01*
X11456053Y-12039480D01*
X11564537Y-11994544D01*
X11577084Y-11991182D01*
X11693506Y-11975855D01*
X11706494Y-11975855D01*
X11822916Y-11991182D01*
X11835463Y-11994544D01*
X11943947Y-12039480D01*
X11955199Y-12045976D01*
X12039124Y-12110375D01*
X12098062Y-12131021D01*
X12160876Y-12110375D01*
X12244801Y-12045976D01*
X12256053Y-12039480D01*
X12364537Y-11994544D01*
X12377084Y-11991182D01*
X12493506Y-11975855D01*
X12506494Y-11975855D01*
X12622916Y-11991182D01*
X12635463Y-11994544D01*
X12743947Y-12039480D01*
X12755199Y-12045976D01*
X12848352Y-12117456D01*
X12857544Y-12126648D01*
X12929024Y-12219801D01*
X12935520Y-12231053D01*
X12980456Y-12339537D01*
X12983820Y-12352091D01*
X12991846Y-12413054D01*
X13018923Y-12469328D01*
X13090989Y-12500000D01*
X13788985Y-12500000D01*
X13838985Y-12486603D01*
X13853059Y-12478477D01*
X13961537Y-12433544D01*
X13974084Y-12430182D01*
X14090506Y-12414855D01*
X14103494Y-12414855D01*
X14219916Y-12430182D01*
X14232463Y-12433544D01*
X14340941Y-12478477D01*
X14355015Y-12486603D01*
X14405015Y-12500000D01*
X15538985Y-12500000D01*
X15588985Y-12486603D01*
X15603059Y-12478477D01*
X15711537Y-12433544D01*
X15724084Y-12430182D01*
X15840506Y-12414855D01*
X15853494Y-12414855D01*
X15969916Y-12430182D01*
X15982463Y-12433544D01*
X16090941Y-12478477D01*
X16105015Y-12486603D01*
X16155015Y-12500000D01*
X16900001Y-12500000D01*
X16959328Y-12480500D01*
X17000000Y-12400001D01*
X17000000Y-11699999D01*
X16980500Y-11640672D01*
X16900001Y-11600000D01*
X8599999Y-11600000D01*
X8540672Y-11619500D01*
X8500000Y-11699999D01*
X8500000Y-12400001D01*
G37*
G04 #@! TO.N,P17_1V8*
G36*
X8620000Y10878678D02*
X8639500Y10819351D01*
X8681731Y10786291D01*
X8743947Y10760520D01*
X8755199Y10754024D01*
X8848352Y10682544D01*
X8857544Y10673352D01*
X8929024Y10580199D01*
X8935520Y10568947D01*
X8980456Y10460463D01*
X8983818Y10447916D01*
X8999145Y10331494D01*
X8999145Y10318506D01*
X8983818Y10202084D01*
X8980456Y10189537D01*
X8935520Y10081053D01*
X8929024Y10069801D01*
X8862974Y9983724D01*
X8842328Y9924786D01*
X8862974Y9861972D01*
X8928024Y9777199D01*
X8934520Y9765947D01*
X8979456Y9657463D01*
X8982818Y9644916D01*
X8998145Y9528494D01*
X8998145Y9515504D01*
X8997822Y9513050D01*
X8998145Y9511340D01*
X8998145Y9508948D01*
X8998597Y9508948D01*
X9009413Y9451685D01*
X9055149Y9409163D01*
X9096966Y9400000D01*
X9176337Y9400000D01*
X9235664Y9419500D01*
X9271853Y9470395D01*
X9268089Y9539767D01*
X9263070Y9551347D01*
X9246238Y9602555D01*
X9244373Y9610240D01*
X9230628Y9696076D01*
X9230000Y9703971D01*
X9230000Y10304148D01*
X9231356Y10315693D01*
X9260879Y10439594D01*
X9264876Y10450513D01*
X9300540Y10521101D01*
X9306203Y10529881D01*
X9307903Y10531994D01*
X9308310Y10533150D01*
X9309047Y10534292D01*
X9308775Y10534468D01*
X9330000Y10594692D01*
X9330000Y15820001D01*
X9310500Y15879328D01*
X9230001Y15920000D01*
X8719999Y15920000D01*
X8660672Y15900500D01*
X8620000Y15820001D01*
X8620000Y10878678D01*
G37*
G04 #@! TO.N,P32_1V8*
G36*
X450000Y5499999D02*
X469500Y5440672D01*
X549999Y5400000D01*
X1563038Y5400000D01*
X1622365Y5419500D01*
X1655425Y5461731D01*
X1689480Y5543947D01*
X1695976Y5555199D01*
X1767456Y5648352D01*
X1776648Y5657544D01*
X1869801Y5729024D01*
X1881053Y5735520D01*
X1989537Y5780456D01*
X2002084Y5783818D01*
X2118506Y5799145D01*
X2131501Y5799145D01*
X2246948Y5783946D01*
X2308313Y5795535D01*
X2350836Y5841271D01*
X2360000Y5883089D01*
X2360000Y5978607D01*
X2340500Y6037934D01*
X2298268Y6070994D01*
X2256055Y6088478D01*
X2244801Y6094976D01*
X2151648Y6166456D01*
X2142456Y6175648D01*
X2070976Y6268801D01*
X2064480Y6280053D01*
X2019544Y6388537D01*
X2016182Y6401084D01*
X2000855Y6517506D01*
X2000855Y6530494D01*
X2016182Y6646916D01*
X2019544Y6659463D01*
X2064480Y6767947D01*
X2070976Y6779199D01*
X2142456Y6872352D01*
X2151648Y6881544D01*
X2234561Y6945166D01*
X2269757Y6996752D01*
X2267485Y7059161D01*
X2234561Y7103834D01*
X2151648Y7167456D01*
X2142456Y7176648D01*
X2079334Y7258909D01*
X2027747Y7294105D01*
X1965339Y7291833D01*
X1920666Y7258909D01*
X1857544Y7176648D01*
X1848352Y7167456D01*
X1755199Y7095976D01*
X1743947Y7089480D01*
X1635463Y7044544D01*
X1622916Y7041182D01*
X1506494Y7025855D01*
X1493506Y7025855D01*
X1377084Y7041182D01*
X1364537Y7044544D01*
X1256053Y7089480D01*
X1244801Y7095976D01*
X1151648Y7167456D01*
X1142456Y7176648D01*
X1070976Y7269801D01*
X1064480Y7281053D01*
X1019544Y7389537D01*
X1016182Y7402084D01*
X1000855Y7518506D01*
X1000855Y7531494D01*
X1016182Y7647916D01*
X1019544Y7660463D01*
X1064480Y7768947D01*
X1070976Y7780199D01*
X1142456Y7873352D01*
X1151648Y7882544D01*
X1244801Y7954024D01*
X1256053Y7960520D01*
X1364537Y8005456D01*
X1377084Y8008818D01*
X1493506Y8024145D01*
X1506494Y8024145D01*
X1622916Y8008818D01*
X1635463Y8005456D01*
X1743947Y7960520D01*
X1755199Y7954024D01*
X1848352Y7882544D01*
X1857544Y7873352D01*
X1920666Y7791091D01*
X1972253Y7755895D01*
X2034661Y7758167D01*
X2079334Y7791091D01*
X2142456Y7873352D01*
X2151648Y7882544D01*
X2244801Y7954024D01*
X2256055Y7960522D01*
X2298268Y7978006D01*
X2345617Y8018724D01*
X2360000Y8070393D01*
X2360000Y9104274D01*
X2322701Y9182174D01*
X2244509Y9245109D01*
X2232112Y9259924D01*
X2186696Y9342980D01*
X2183071Y9351343D01*
X2166238Y9402555D01*
X2164373Y9410240D01*
X2150628Y9496076D01*
X2150000Y9503971D01*
X2150000Y15820001D01*
X2130500Y15879328D01*
X2050001Y15920000D01*
X549999Y15920000D01*
X490672Y15900500D01*
X450000Y15820001D01*
X450000Y5499999D01*
G37*
G04 #@! TO.N,P0_1V8*
G36*
X2450000Y9499999D02*
X2469500Y9440672D01*
X2549999Y9400000D01*
X2635297Y9400000D01*
X2696173Y9420665D01*
X2761801Y9471024D01*
X2773053Y9477520D01*
X2881537Y9522456D01*
X2894084Y9525818D01*
X3010506Y9541145D01*
X3023494Y9541145D01*
X3139916Y9525818D01*
X3152463Y9522456D01*
X3260947Y9477520D01*
X3272199Y9471024D01*
X3337827Y9420665D01*
X3398703Y9400000D01*
X3635297Y9400000D01*
X3696173Y9420665D01*
X3761801Y9471024D01*
X3773053Y9477520D01*
X3881537Y9522456D01*
X3894084Y9525818D01*
X4010506Y9541145D01*
X4023494Y9541145D01*
X4139916Y9525818D01*
X4152463Y9522456D01*
X4221733Y9493763D01*
X4284006Y9489075D01*
X4336918Y9522247D01*
X4360000Y9586150D01*
X4360000Y10974050D01*
X4340500Y11033377D01*
X4298269Y11066437D01*
X4245053Y11088480D01*
X4233801Y11094976D01*
X4140648Y11166456D01*
X4131456Y11175648D01*
X4059976Y11268801D01*
X4053480Y11280053D01*
X4008544Y11388537D01*
X4005182Y11401084D01*
X3989855Y11517506D01*
X3989855Y11530494D01*
X4005182Y11646916D01*
X4008544Y11659463D01*
X4053480Y11767947D01*
X4059976Y11779199D01*
X4131456Y11872352D01*
X4140648Y11881544D01*
X4233801Y11953024D01*
X4245053Y11959520D01*
X4298269Y11981563D01*
X4345618Y12022282D01*
X4360000Y12073950D01*
X4360000Y15820001D01*
X4340500Y15879328D01*
X4260001Y15920000D01*
X2549999Y15920000D01*
X2490672Y15900500D01*
X2450000Y15820001D01*
X2450000Y9499999D01*
G37*
G04 #@! TO.N,ITH2*
G36*
X-17400000Y-1300001D02*
X-17380500Y-1359328D01*
X-17300001Y-1400000D01*
X-15906508Y-1400000D01*
X-15847181Y-1380500D01*
X-15810992Y-1329605D01*
X-15812054Y-1267164D01*
X-15827175Y-1239124D01*
X-15834024Y-1230199D01*
X-15840520Y-1218947D01*
X-15885456Y-1110463D01*
X-15888818Y-1097916D01*
X-15904145Y-981494D01*
X-15904145Y-968506D01*
X-15888818Y-852084D01*
X-15885456Y-839537D01*
X-15840520Y-731053D01*
X-15834024Y-719801D01*
X-15762544Y-626648D01*
X-15753352Y-617456D01*
X-15660199Y-545976D01*
X-15648947Y-539480D01*
X-15540463Y-494544D01*
X-15527916Y-491182D01*
X-15411494Y-475855D01*
X-15398506Y-475855D01*
X-15282084Y-491182D01*
X-15269537Y-494544D01*
X-15161053Y-539480D01*
X-15149801Y-545976D01*
X-15060875Y-614213D01*
X-15001937Y-634859D01*
X-14942243Y-616513D01*
X-14905074Y-566329D01*
X-14900000Y-534879D01*
X-14900000Y1610002D01*
X-14919500Y1669329D01*
X-14970395Y1705518D01*
X-15032836Y1704456D01*
X-15079333Y1670878D01*
X-15132456Y1601648D01*
X-15141648Y1592456D01*
X-15234801Y1520976D01*
X-15246053Y1514480D01*
X-15354537Y1469544D01*
X-15367084Y1466182D01*
X-15483506Y1450855D01*
X-15496494Y1450855D01*
X-15612916Y1466182D01*
X-15625463Y1469544D01*
X-15733947Y1514480D01*
X-15745199Y1520976D01*
X-15838352Y1592456D01*
X-15847544Y1601648D01*
X-15919024Y1694801D01*
X-15925520Y1706053D01*
X-15970456Y1814537D01*
X-15973818Y1827084D01*
X-15989145Y1943506D01*
X-15989145Y1956494D01*
X-15973818Y2072916D01*
X-15970456Y2085463D01*
X-15925520Y2193947D01*
X-15919024Y2205199D01*
X-15847544Y2298352D01*
X-15838352Y2307544D01*
X-15821250Y2320667D01*
X-15786054Y2372254D01*
X-15788326Y2434662D01*
X-15827181Y2483552D01*
X-15882126Y2500000D01*
X-17300001Y2500000D01*
X-17359328Y2480500D01*
X-17400000Y2400001D01*
X-17400000Y-1300001D01*
G37*
G04 #@! TO.N,P54_1V8*
G36*
X-22300000Y11699999D02*
X-22280500Y11640672D01*
X-22200001Y11600000D01*
X-8919331Y11600000D01*
X-8839997Y11639123D01*
X-8827544Y11655352D01*
X-8818352Y11664544D01*
X-8725199Y11736024D01*
X-8713947Y11742520D01*
X-8605463Y11787456D01*
X-8592916Y11790818D01*
X-8476494Y11806145D01*
X-8463506Y11806145D01*
X-8347084Y11790818D01*
X-8334537Y11787456D01*
X-8226053Y11742520D01*
X-8214801Y11736024D01*
X-8160875Y11694644D01*
X-8101937Y11673998D01*
X-8042243Y11692344D01*
X-8005074Y11742528D01*
X-8000000Y11773978D01*
X-8000000Y12300001D01*
X-8019500Y12359328D01*
X-8099999Y12400000D01*
X-11147150Y12400000D01*
X-11206477Y12380500D01*
X-11239537Y12338270D01*
X-11264481Y12278051D01*
X-11270976Y12266801D01*
X-11342456Y12173648D01*
X-11351648Y12164456D01*
X-11444801Y12092976D01*
X-11456053Y12086480D01*
X-11564537Y12041544D01*
X-11577084Y12038182D01*
X-11693506Y12022855D01*
X-11706494Y12022855D01*
X-11822916Y12038182D01*
X-11835463Y12041544D01*
X-11943947Y12086480D01*
X-11955199Y12092976D01*
X-12039124Y12157375D01*
X-12098062Y12178021D01*
X-12160876Y12157375D01*
X-12244801Y12092976D01*
X-12256053Y12086480D01*
X-12364537Y12041544D01*
X-12377084Y12038182D01*
X-12493506Y12022855D01*
X-12506494Y12022855D01*
X-12622916Y12038182D01*
X-12635463Y12041544D01*
X-12743947Y12086480D01*
X-12755199Y12092976D01*
X-12848352Y12164456D01*
X-12857544Y12173648D01*
X-12929024Y12266801D01*
X-12935519Y12278051D01*
X-12960463Y12338270D01*
X-13001183Y12385618D01*
X-13052850Y12400000D01*
X-22200001Y12400000D01*
X-22259328Y12380500D01*
X-22300000Y12300001D01*
X-22300000Y11699999D01*
G37*
G04 #@! TO.N,FLASH_CS*
G36*
X-4900000Y-34200001D02*
X-4880500Y-34259328D01*
X-4800001Y-34300000D01*
X-4099999Y-34300000D01*
X-4040672Y-34280500D01*
X-4000000Y-34200001D01*
X-4000000Y-33320158D01*
X-3985599Y-33285893D01*
X5769978Y-23729409D01*
X5800000Y-23657974D01*
X5800000Y-22299999D01*
X5780500Y-22240672D01*
X5700001Y-22200000D01*
X4999999Y-22200000D01*
X4940672Y-22219500D01*
X4900000Y-22299999D01*
X4900000Y-23279842D01*
X4885599Y-23314107D01*
X-4869978Y-32870591D01*
X-4900000Y-32942026D01*
X-4900000Y-34200001D01*
G37*
G04 #@! TO.N,P7_1V8*
G36*
X5670000Y9499999D02*
X5689500Y9440672D01*
X5769999Y9400000D01*
X6380001Y9400000D01*
X6439328Y9419500D01*
X6480000Y9499999D01*
X6480000Y15820001D01*
X6460500Y15879328D01*
X6380001Y15920000D01*
X5769999Y15920000D01*
X5710672Y15900500D01*
X5670000Y15820001D01*
X5670000Y9499999D01*
G37*
G04 #@! TO.N,P30_1V8*
G36*
X9530000Y9699999D02*
X9549500Y9640672D01*
X9629999Y9600000D01*
X17450001Y9600000D01*
X17509328Y9619500D01*
X17550000Y9699999D01*
X17550000Y10310001D01*
X17530500Y10369328D01*
X17450001Y10410000D01*
X12056163Y10410000D01*
X11996836Y10390500D01*
X11963776Y10348269D01*
X11935520Y10280053D01*
X11929024Y10268801D01*
X11857544Y10175648D01*
X11848352Y10166456D01*
X11755199Y10094976D01*
X11743947Y10088480D01*
X11635463Y10043544D01*
X11622916Y10040182D01*
X11506494Y10024855D01*
X11493506Y10024855D01*
X11377084Y10040182D01*
X11364537Y10043544D01*
X11256053Y10088480D01*
X11244801Y10094976D01*
X11160876Y10159375D01*
X11101938Y10180021D01*
X11039124Y10159375D01*
X10955199Y10094976D01*
X10943947Y10088480D01*
X10835463Y10043544D01*
X10822916Y10040182D01*
X10706494Y10024855D01*
X10693506Y10024855D01*
X10577084Y10040182D01*
X10564537Y10043544D01*
X10456053Y10088480D01*
X10444801Y10094976D01*
X10351648Y10166456D01*
X10342456Y10175648D01*
X10270976Y10268801D01*
X10264480Y10280053D01*
X10236224Y10348269D01*
X10195505Y10395618D01*
X10143837Y10410000D01*
X9629999Y10410000D01*
X9570672Y10390500D01*
X9530000Y10310001D01*
X9530000Y9699999D01*
G37*
G04 #@! TO.N,D1*
G36*
X1600000Y-15980001D02*
X1619500Y-16039328D01*
X1699999Y-16080000D01*
X3130001Y-16080000D01*
X3189328Y-16060500D01*
X3230000Y-15980001D01*
X3230000Y-5942747D01*
X3190877Y-5863413D01*
X3150648Y-5832544D01*
X3141456Y-5823352D01*
X3069976Y-5730199D01*
X3063480Y-5718947D01*
X3018544Y-5610463D01*
X3015182Y-5597916D01*
X2999855Y-5481494D01*
X2999855Y-5468506D01*
X3015182Y-5352084D01*
X3018544Y-5339537D01*
X3063480Y-5231053D01*
X3069976Y-5219801D01*
X3134375Y-5135876D01*
X3155021Y-5076938D01*
X3134375Y-5014124D01*
X3069976Y-4930199D01*
X3063480Y-4918947D01*
X3018544Y-4810463D01*
X3015182Y-4797916D01*
X2999855Y-4681494D01*
X2999855Y-4668506D01*
X3015182Y-4552084D01*
X3018544Y-4539537D01*
X3063480Y-4431053D01*
X3069976Y-4419801D01*
X3141456Y-4326648D01*
X3150648Y-4317456D01*
X3190877Y-4286587D01*
X3230000Y-4207253D01*
X3230000Y-499999D01*
X3210500Y-440672D01*
X3130001Y-400000D01*
X1699999Y-400000D01*
X1640672Y-419500D01*
X1600000Y-499999D01*
X1600000Y-15980001D01*
G37*
G04 --- BOARD END --- *
G04 #@! TF.MD5,d63b7bc6e93d10b42e311c9af20259b7*
M02*
