G04 --- HEADER BEGIN --- *
G04 #@! TF.GenerationSoftware,LibrePCB,LibrePCB,1.1.0*
G04 #@! TF.CreationDate,2024-09-08T17:15:58*
G04 #@! TF.ProjectId,flasher,f4b07f79-14a2-4070-9d7d-1f686dcb10c4,v1*
G04 #@! TF.Part,Single*
G04 #@! TF.SameCoordinates*
G04 #@! TF.FileFunction,Soldermask,Top*
G04 #@! TF.FilePolarity,Negative*
%FSLAX66Y66*%
%MOMM*%
G01*
G75*
G04 --- HEADER END --- *
G04 --- APERTURE LIST BEGIN --- *
%AMOUTLINE10*4,1,42,0.09635,-0.500024,0.128987,-0.488145,0.198446,-0.448042,0.225049,-0.425719,0.276604,-0.364279,0.283205,-0.35547,0.383205,-0.20547,0.393502,-0.18546,0.432911,-0.081546,0.439328,-0.050113,0.443803,0.060933,0.439936,0.092782,0.409016,0.199531,0.395263,0.228515,0.332131,0.319978,0.309906,0.343116,0.221059,0.40988,0.192652,0.42479,0.087235,0.459983,0.055568,0.465129,-0.055568,0.465129,-0.087235,0.459983,-0.192652,0.42479,-0.221059,0.40988,-0.309906,0.343116,-0.332131,0.319978,-0.395263,0.228514,-0.409016,0.19953,-0.439936,0.092782,-0.443803,0.060933,-0.439328,-0.050113,-0.432911,-0.081546,-0.393502,-0.18546,-0.383205,-0.20547,-0.283205,-0.35547,-0.276604,-0.364279,-0.225049,-0.425719,-0.198446,-0.448042,-0.128987,-0.488145,-0.09635,-0.500024,-0.017364,-0.513951,0.017364,-0.513951,0.09635,-0.500024,45.0*%
%ADD10OUTLINE10*%
%AMOUTLINE11*4,1,42,0.09635,-0.500024,0.128987,-0.488145,0.198446,-0.448042,0.225049,-0.425719,0.276604,-0.364279,0.283205,-0.35547,0.383205,-0.20547,0.393502,-0.18546,0.432911,-0.081546,0.439328,-0.050113,0.443803,0.060933,0.439936,0.092782,0.409016,0.199531,0.395263,0.228515,0.332131,0.319978,0.309906,0.343116,0.221059,0.40988,0.192652,0.42479,0.087235,0.459983,0.055568,0.465129,-0.055568,0.465129,-0.087235,0.459983,-0.192652,0.42479,-0.221059,0.40988,-0.309906,0.343116,-0.332131,0.319978,-0.395263,0.228514,-0.409016,0.19953,-0.439936,0.092782,-0.443803,0.060933,-0.439328,-0.050113,-0.432911,-0.081546,-0.393502,-0.18546,-0.383205,-0.20547,-0.283205,-0.35547,-0.276604,-0.364279,-0.225049,-0.425719,-0.198446,-0.448042,-0.128987,-0.488145,-0.09635,-0.500024,-0.017364,-0.513951,0.017364,-0.513951,0.09635,-0.500024,135.0*%
%ADD11OUTLINE11*%
%AMOUTLINE12*4,1,42,0.09635,-0.500024,0.128987,-0.488145,0.198446,-0.448042,0.225049,-0.425719,0.276604,-0.364279,0.283205,-0.35547,0.383205,-0.20547,0.393502,-0.18546,0.432911,-0.081546,0.439328,-0.050113,0.443803,0.060933,0.439936,0.092782,0.409016,0.199531,0.395263,0.228515,0.332131,0.319978,0.309906,0.343116,0.221059,0.40988,0.192652,0.42479,0.087235,0.459983,0.055568,0.465129,-0.055568,0.465129,-0.087235,0.459983,-0.192652,0.42479,-0.221059,0.40988,-0.309906,0.343116,-0.332131,0.319978,-0.395263,0.228514,-0.409016,0.19953,-0.439936,0.092782,-0.443803,0.060933,-0.439328,-0.050113,-0.432911,-0.081546,-0.393502,-0.18546,-0.383205,-0.20547,-0.283205,-0.35547,-0.276604,-0.364279,-0.225049,-0.425719,-0.198446,-0.448042,-0.128987,-0.488145,-0.09635,-0.500024,-0.017364,-0.513951,0.017364,-0.513951,0.09635,-0.500024,315.0*%
%ADD12OUTLINE12*%
%AMOUTLINE13*4,1,42,0.09635,-0.500024,0.128987,-0.488145,0.198446,-0.448042,0.225049,-0.425719,0.276604,-0.364279,0.283205,-0.35547,0.383205,-0.20547,0.393502,-0.18546,0.432911,-0.081546,0.439328,-0.050113,0.443803,0.060933,0.439936,0.092782,0.409016,0.199531,0.395263,0.228515,0.332131,0.319978,0.309906,0.343116,0.221059,0.40988,0.192652,0.42479,0.087235,0.459983,0.055568,0.465129,-0.055568,0.465129,-0.087235,0.459983,-0.192652,0.42479,-0.221059,0.40988,-0.309906,0.343116,-0.332131,0.319978,-0.395263,0.228514,-0.409016,0.19953,-0.439936,0.092782,-0.443803,0.060933,-0.439328,-0.050113,-0.432911,-0.081546,-0.393502,-0.18546,-0.383205,-0.20547,-0.283205,-0.35547,-0.276604,-0.364279,-0.225049,-0.425719,-0.198446,-0.448042,-0.128987,-0.488145,-0.09635,-0.500024,-0.017364,-0.513951,0.017364,-0.513951,0.09635,-0.500024,225.0*%
%ADD13OUTLINE13*%
%ADD14O,2.39X1.787*%
%AMROUNDEDRECT15*20,1,1.787,-1.095,0.0,1.095,0.0,0.0*20,1,1.587,-1.195,0.0,1.195,0.0,0.0*1,1,0.2,-1.095,0.7935*1,1,0.2,1.095,0.7935*1,1,0.2,1.095,-0.7935*1,1,0.2,-1.095,-0.7935*%
%ADD15ROUNDEDRECT15*%
%AMROUNDEDRECT16*20,1,0.63,-0.3,0.0,0.3,0.0,0.0*20,1,0.43,-0.4,0.0,0.4,0.0,0.0*1,1,0.2,-0.3,0.215*1,1,0.2,0.3,0.215*1,1,0.2,0.3,-0.215*1,1,0.2,-0.3,-0.215*%
%ADD16ROUNDEDRECT16*%
%AMROUNDEDRECT17*20,1,0.4,-0.1,0.0,0.1,0.0,0.0*20,1,0.2,-0.2,0.0,0.2,0.0,0.0*1,1,0.2,-0.1,0.1*1,1,0.2,0.1,0.1*1,1,0.2,0.1,-0.1*1,1,0.2,-0.1,-0.1*%
%ADD17ROUNDEDRECT17*%
%AMROUNDEDRECT18*20,1,1.0,-0.425,0.0,0.425,0.0,90.0*20,1,0.8,-0.525,0.0,0.525,0.0,90.0*1,1,0.2,-0.4,-0.425*1,1,0.2,-0.4,0.425*1,1,0.2,0.4,0.425*1,1,0.2,0.4,-0.425*%
%ADD18ROUNDEDRECT18*%
%AMROUNDEDRECT19*20,1,0.95,-0.4,0.0,0.4,0.0,0.0*20,1,0.75,-0.5,0.0,0.5,0.0,0.0*1,1,0.2,-0.4,0.375*1,1,0.2,0.4,0.375*1,1,0.2,0.4,-0.375*1,1,0.2,-0.4,-0.375*%
%ADD19ROUNDEDRECT19*%
%ADD20O,1.787X2.39*%
%AMROUNDEDRECT21*20,1,1.787,-1.095,0.0,1.095,0.0,90.0*20,1,1.587,-1.195,0.0,1.195,0.0,90.0*1,1,0.2,-0.7935,-1.095*1,1,0.2,-0.7935,1.095*1,1,0.2,0.7935,1.095*1,1,0.2,0.7935,-1.095*%
%ADD21ROUNDEDRECT21*%
%AMROUNDEDRECT22*20,1,0.95,-0.625,0.0,0.625,0.0,90.0*20,1,0.75,-0.725,0.0,0.725,0.0,90.0*1,1,0.2,-0.375,-0.625*1,1,0.2,-0.375,0.625*1,1,0.2,0.375,0.625*1,1,0.2,0.375,-0.625*%
%ADD22ROUNDEDRECT22*%
%ADD23C,5.2*%
G04 --- APERTURE LIST END --- *
G04 --- BOARD BEGIN --- *
D10*
G04 #@! TO.C,LOGIC1*
X7500000Y-5475500D03*
D11*
X6500000Y10524500D03*
X11500000Y8524500D03*
D12*
X-8500000Y-3475500D03*
D11*
X6500000Y1524500D03*
D13*
X-500000Y10524500D03*
D10*
X12500000Y-8475500D03*
D13*
X-9500000Y2524500D03*
X-1500000Y8524500D03*
D10*
X9500000Y-5475500D03*
D12*
X-3500000Y-2475500D03*
D11*
X10500000Y12524500D03*
D10*
X8500000Y-11475500D03*
D12*
X-11500000Y-6475500D03*
D11*
X4500000Y11524500D03*
D12*
X-6500000Y-11475500D03*
D10*
X6500000Y-12475500D03*
D13*
X-4500000Y8524500D03*
D10*
X1500000Y-1475500D03*
X11500000Y-8475500D03*
X4500000Y-11475500D03*
D13*
X-4500000Y1524500D03*
D10*
X5500000Y-2475500D03*
D13*
X-8500000Y6524500D03*
X-4500000Y524500D03*
X-2500000Y3524500D03*
X-4500000Y11524500D03*
D10*
X7500000Y-7475500D03*
D12*
X-11500000Y-5475500D03*
X-12500000Y-12475500D03*
X-12500000Y-9475500D03*
D13*
X-1500000Y524500D03*
D12*
X-11500000Y-3475500D03*
D10*
X2500000Y-1475500D03*
D12*
X-10500000Y-4475500D03*
D13*
X-10500000Y1524500D03*
D12*
X-500000Y-2475500D03*
D11*
X4500000Y2524500D03*
D13*
X-10500000Y8524500D03*
D11*
X500000Y8524500D03*
D10*
X1500000Y-9475500D03*
D13*
X-11500000Y2524500D03*
D10*
X11500000Y-6475500D03*
D13*
X-8500000Y11524500D03*
X-5500000Y6524500D03*
D11*
X5500000Y12524500D03*
D12*
X-2500000Y-5475500D03*
D13*
X-9500000Y10524500D03*
D12*
X-10500000Y-1475500D03*
D13*
X-1500000Y3524500D03*
D12*
X-7500000Y-8475500D03*
X-5500000Y-7475500D03*
X-3500000Y-12475500D03*
D11*
X1500000Y8524500D03*
D13*
X-2500000Y8524500D03*
X-3500000Y8524500D03*
X-12500000Y7524500D03*
D11*
X3500000Y11524500D03*
D13*
X-12500000Y5524500D03*
D10*
X12500000Y-4475500D03*
D12*
X-6500000Y-6475500D03*
D10*
X9500000Y-1475500D03*
X7500000Y-11475500D03*
X3500000Y-9475500D03*
D12*
X-3500000Y-11475500D03*
D13*
X-2500000Y524500D03*
D12*
X-5500000Y-4475500D03*
D13*
X-4500000Y5524500D03*
D11*
X12500000Y8524500D03*
X2500000Y2524500D03*
X5500000Y5524500D03*
D10*
X2500000Y-6475500D03*
D11*
X6500000Y7524500D03*
D10*
X6500000Y-10475500D03*
D12*
X-11500000Y-11475500D03*
X-10500000Y-7475500D03*
D11*
X10500000Y6524500D03*
D10*
X7500000Y-1475500D03*
D12*
X-6500000Y-5475500D03*
D11*
X5500000Y524500D03*
D10*
X7500000Y-9475500D03*
X10500000Y-10475500D03*
X11500000Y-2475500D03*
X4500000Y-6475500D03*
D13*
X-3500000Y6524500D03*
X-1500000Y9524500D03*
D12*
X-6500000Y-7475500D03*
D11*
X9500000Y11524500D03*
D10*
X5500000Y-12475500D03*
D13*
X-5500000Y8524500D03*
X-6500000Y4524500D03*
X-3500000Y1524500D03*
D11*
X12500000Y11524500D03*
X6500000Y5524500D03*
X8500000Y1524500D03*
D13*
X-10500000Y7524500D03*
D10*
X12500000Y-11475500D03*
D11*
X6500000Y12524500D03*
D13*
X-5500000Y3524500D03*
D10*
X11500000Y-475500D03*
D12*
X-8500000Y-1475500D03*
D10*
X500000Y-9475500D03*
D13*
X-7500000Y9524500D03*
D12*
X-500000Y-12475500D03*
D13*
X-7500000Y3524500D03*
D10*
X11500000Y-7475500D03*
D13*
X-12500000Y12524500D03*
X-6500000Y2524500D03*
D11*
X12500000Y2524500D03*
D12*
X-500000Y-475500D03*
D10*
X10500000Y-5475500D03*
D11*
X5500000Y10524500D03*
D12*
X-5500000Y-12475500D03*
X-4500000Y-6475500D03*
D11*
X7500000Y1524500D03*
D12*
X-7500000Y-6475500D03*
D11*
X8500000Y7524500D03*
X2500000Y11524500D03*
D13*
X-12500000Y10524500D03*
D10*
X12500000Y-9475500D03*
D13*
X-12500000Y1524500D03*
X-2500000Y7524500D03*
D10*
X11500000Y-3475500D03*
D11*
X10500000Y10524500D03*
D10*
X11500000Y-11475500D03*
X10500000Y-7475500D03*
D12*
X-6500000Y-8475500D03*
D13*
X-8500000Y8524500D03*
X-7500000Y8524500D03*
D12*
X-1500000Y-2475500D03*
D10*
X11500000Y-5475500D03*
D12*
X-500000Y-3475500D03*
D11*
X3500000Y10524500D03*
X7500000Y12524500D03*
D13*
X-9500000Y4524500D03*
D10*
X5500000Y-6475500D03*
D12*
X-2500000Y-6475500D03*
X-6500000Y-475500D03*
D10*
X11500000Y-4475500D03*
D13*
X-5500000Y524500D03*
D12*
X-2500000Y-7475500D03*
D11*
X8500000Y10524500D03*
D12*
X-5500000Y-475500D03*
D13*
X-500000Y9524500D03*
D10*
X5500000Y-3475500D03*
D12*
X-5500000Y-1475500D03*
X-1500000Y-5475500D03*
D11*
X4500000Y4524500D03*
D13*
X-7500000Y11524500D03*
D11*
X500000Y3524500D03*
D10*
X7500000Y-2475500D03*
X1500000Y-2475500D03*
X7500000Y-6475500D03*
D13*
X-6500000Y8524500D03*
D11*
X5500000Y1524500D03*
X500000Y2524500D03*
D12*
X-8500000Y-2475500D03*
D11*
X5500000Y11524500D03*
D10*
X5500000Y-5475500D03*
X4500000Y-9475500D03*
D13*
X-1500000Y11524500D03*
D10*
X6500000Y-11475500D03*
D12*
X-4500000Y-11475500D03*
X-6500000Y-4475500D03*
D10*
X5500000Y-475500D03*
X3500000Y-8475500D03*
D13*
X-1500000Y2524500D03*
D12*
X-9500000Y-12475500D03*
D11*
X8500000Y12524500D03*
D10*
X6500000Y-2475500D03*
D12*
X-500000Y-1475500D03*
D10*
X1500000Y-3475500D03*
D11*
X8500000Y8524500D03*
X9500000Y1524500D03*
D10*
X3500000Y-1475500D03*
X3500000Y-12475500D03*
X11500000Y-1475500D03*
D11*
X4500000Y7524500D03*
X1500000Y5524500D03*
X12500000Y524500D03*
D13*
X-4500000Y4524500D03*
X-7500000Y5524500D03*
X-7500000Y4524500D03*
X-8500000Y1524500D03*
D12*
X-500000Y-9475500D03*
X-3500000Y-5475500D03*
D11*
X12500000Y4524500D03*
D12*
X-9500000Y-8475500D03*
X-7500000Y-3475500D03*
D11*
X10500000Y2524500D03*
X9500000Y6524500D03*
D10*
X10500000Y-8475500D03*
D11*
X500000Y524500D03*
D10*
X6500000Y-9475500D03*
D12*
X-2500000Y-4475500D03*
X-10500000Y-5475500D03*
D10*
X5500000Y-4475500D03*
D13*
X-2500000Y5524500D03*
X-9500000Y12524500D03*
X-500000Y524500D03*
D10*
X8500000Y-6475500D03*
D12*
X-4500000Y-9475500D03*
D13*
X-5500000Y7524500D03*
X-500000Y12524500D03*
D11*
X7500000Y10524500D03*
D13*
X-6500000Y10524500D03*
X-5500000Y12524500D03*
D11*
X6500000Y4524500D03*
D12*
X-10500000Y-6475500D03*
D11*
X9500000Y9524500D03*
D12*
X-500000Y-6475500D03*
D10*
X10500000Y-475500D03*
D11*
X3500000Y6524500D03*
D13*
X-500000Y5524500D03*
X-3500000Y10524500D03*
D10*
X4500000Y-10475500D03*
D12*
X-12500000Y-2475500D03*
D11*
X3500000Y5524500D03*
X9500000Y4524500D03*
X4500000Y12524500D03*
D13*
X-4500000Y12524500D03*
X-9500000Y8524500D03*
D12*
X-10500000Y-475500D03*
D10*
X2500000Y-3475500D03*
D13*
X-4500000Y2524500D03*
D10*
X500000Y-7475500D03*
X2500000Y-11475500D03*
D11*
X3500000Y2524500D03*
X10500000Y3524500D03*
D13*
X-11500000Y5524500D03*
D12*
X-500000Y-8475500D03*
D11*
X4500000Y8524500D03*
D10*
X3500000Y-2475500D03*
D13*
X-5500000Y1524500D03*
X-3500000Y2524500D03*
D11*
X7500000Y8524500D03*
D10*
X1500000Y-5475500D03*
D12*
X-6500000Y-9475500D03*
X-4500000Y-2475500D03*
D11*
X500000Y6524500D03*
D12*
X-9500000Y-9475500D03*
D11*
X1500000Y7524500D03*
D13*
X-500000Y8524500D03*
D11*
X5500000Y4524500D03*
D13*
X-1500000Y7524500D03*
D12*
X-4500000Y-7475500D03*
D13*
X-12500000Y524500D03*
D12*
X-4500000Y-8475500D03*
D13*
X-7500000Y1524500D03*
X-8500000Y10524500D03*
D12*
X-3500000Y-9475500D03*
D13*
X-12500000Y3524500D03*
D11*
X10500000Y11524500D03*
X5500000Y7524500D03*
D10*
X9500000Y-3475500D03*
D12*
X-11500000Y-10475500D03*
D10*
X1500000Y-4475500D03*
D11*
X6500000Y2524500D03*
D12*
X-8500000Y-8475500D03*
D10*
X8500000Y-1475500D03*
X500000Y-4475500D03*
D13*
X-1500000Y10524500D03*
D10*
X500000Y-5475500D03*
D13*
X-11500000Y1524500D03*
D12*
X-10500000Y-11475500D03*
D10*
X4500000Y-7475500D03*
D12*
X-1500000Y-9475500D03*
D13*
X-3500000Y524500D03*
D12*
X-5500000Y-9475500D03*
D11*
X1500000Y1524500D03*
D13*
X-4500000Y10524500D03*
X-3500000Y4524500D03*
X-500000Y2524500D03*
D11*
X1500000Y4524500D03*
D13*
X-1500000Y5524500D03*
D12*
X-7500000Y-2475500D03*
X-4500000Y-12475500D03*
D13*
X-3500000Y9524500D03*
D12*
X-7500000Y-475500D03*
D13*
X-2500000Y4524500D03*
D12*
X-7500000Y-4475500D03*
D10*
X2500000Y-7475500D03*
D13*
X-7500000Y524500D03*
X-11500000Y7524500D03*
D11*
X1500000Y524500D03*
X12500000Y10524500D03*
X11500000Y6524500D03*
D12*
X-5500000Y-6475500D03*
X-1500000Y-11475500D03*
D10*
X500000Y-10475500D03*
D11*
X11500000Y1524500D03*
D13*
X-1500000Y6524500D03*
X-6500000Y6524500D03*
D11*
X1500000Y2524500D03*
D12*
X-3500000Y-6475500D03*
D13*
X-11500000Y4524500D03*
D10*
X7500000Y-4475500D03*
X1500000Y-12475500D03*
D12*
X-7500000Y-5475500D03*
D11*
X4500000Y524500D03*
D12*
X-5500000Y-10475500D03*
D13*
X-3500000Y5524500D03*
D12*
X-8500000Y-4475500D03*
D11*
X11500000Y11524500D03*
X7500000Y7524500D03*
D13*
X-500000Y3524500D03*
D10*
X2500000Y-475500D03*
D12*
X-11500000Y-4475500D03*
D13*
X-11500000Y12524500D03*
D10*
X4500000Y-3475500D03*
D12*
X-1500000Y-6475500D03*
D13*
X-2500000Y6524500D03*
D12*
X-6500000Y-2475500D03*
X-1500000Y-7475500D03*
D13*
X-5500000Y9524500D03*
D11*
X500000Y7524500D03*
X7500000Y4524500D03*
X12500000Y9524500D03*
D10*
X12500000Y-475500D03*
D11*
X8500000Y4524500D03*
X11500000Y12524500D03*
X3500000Y8524500D03*
D12*
X-3500000Y-10475500D03*
X-9500000Y-4475500D03*
D11*
X11500000Y9524500D03*
X2500000Y1524500D03*
D13*
X-9500000Y7524500D03*
D12*
X-1500000Y-475500D03*
D10*
X10500000Y-12475500D03*
D12*
X-9500000Y-2475500D03*
X-9500000Y-3475500D03*
X-2500000Y-3475500D03*
X-8500000Y-5475500D03*
D13*
X-3500000Y3524500D03*
D11*
X8500000Y2524500D03*
D13*
X-2500000Y2524500D03*
D10*
X4500000Y-8475500D03*
D12*
X-500000Y-5475500D03*
X-2500000Y-10475500D03*
D11*
X9500000Y5524500D03*
D10*
X2500000Y-2475500D03*
D13*
X-5500000Y11524500D03*
X-6500000Y12524500D03*
X-1500000Y12524500D03*
D10*
X8500000Y-9475500D03*
X4500000Y-5475500D03*
D13*
X-500000Y7524500D03*
D11*
X10500000Y4524500D03*
D10*
X7500000Y-10475500D03*
D11*
X3500000Y12524500D03*
D13*
X-8500000Y5524500D03*
X-4500000Y9524500D03*
D10*
X8500000Y-10475500D03*
X6500000Y-475500D03*
D12*
X-8500000Y-12475500D03*
D13*
X-9500000Y524500D03*
X-8500000Y3524500D03*
D11*
X2500000Y3524500D03*
D10*
X5500000Y-10475500D03*
X7500000Y-8475500D03*
X7500000Y-475500D03*
D11*
X9500000Y12524500D03*
D13*
X-12500000Y4524500D03*
D11*
X12500000Y7524500D03*
D12*
X-7500000Y-9475500D03*
D11*
X10500000Y524500D03*
D10*
X3500000Y-7475500D03*
D13*
X-11500000Y9524500D03*
D11*
X9500000Y10524500D03*
X9500000Y8524500D03*
X12500000Y6524500D03*
D10*
X12500000Y-1475500D03*
X3500000Y-5475500D03*
X500000Y-8475500D03*
X500000Y-2475500D03*
X5500000Y-9475500D03*
D12*
X-500000Y-11475500D03*
D11*
X5500000Y6524500D03*
D13*
X-2500000Y10524500D03*
D10*
X4500000Y-1475500D03*
X11500000Y-10475500D03*
D12*
X-11500000Y-1475500D03*
D13*
X-9500000Y11524500D03*
D12*
X-3500000Y-7475500D03*
D10*
X9500000Y-6475500D03*
D12*
X-5500000Y-3475500D03*
D11*
X6500000Y11524500D03*
X8500000Y5524500D03*
D12*
X-10500000Y-12475500D03*
D10*
X11500000Y-9475500D03*
X6500000Y-3475500D03*
X8500000Y-8475500D03*
X4500000Y-2475500D03*
D11*
X7500000Y2524500D03*
X2500000Y7524500D03*
D12*
X-10500000Y-2475500D03*
D13*
X-10500000Y3524500D03*
D11*
X1500000Y9524500D03*
X12500000Y1524500D03*
D13*
X-2500000Y1524500D03*
D12*
X-4500000Y-4475500D03*
D10*
X6500000Y-8475500D03*
D13*
X-500000Y11524500D03*
X-4500000Y3524500D03*
D10*
X9500000Y-10475500D03*
D11*
X10500000Y9524500D03*
D10*
X3500000Y-4475500D03*
D11*
X9500000Y7524500D03*
X3500000Y3524500D03*
D13*
X-6500000Y3524500D03*
D12*
X-12500000Y-10475500D03*
X-1500000Y-10475500D03*
D13*
X-9500000Y9524500D03*
D12*
X-10500000Y-9475500D03*
D11*
X8500000Y11524500D03*
D13*
X-8500000Y9524500D03*
D10*
X9500000Y-8475500D03*
D13*
X-2500000Y11524500D03*
D10*
X9500000Y-11475500D03*
D12*
X-12500000Y-475500D03*
D13*
X-500000Y4524500D03*
D11*
X10500000Y7524500D03*
D12*
X-3500000Y-3475500D03*
D10*
X10500000Y-2475500D03*
D12*
X-6500000Y-12475500D03*
X-11500000Y-8475500D03*
X-11500000Y-475500D03*
X-7500000Y-12475500D03*
D10*
X8500000Y-5475500D03*
D12*
X-8500000Y-9475500D03*
D13*
X-10500000Y12524500D03*
D11*
X500000Y5524500D03*
X8500000Y3524500D03*
D13*
X-5500000Y4524500D03*
D10*
X8500000Y-4475500D03*
D11*
X7500000Y5524500D03*
D13*
X-6500000Y7524500D03*
D12*
X-2500000Y-12475500D03*
D13*
X-10500000Y5524500D03*
D10*
X8500000Y-475500D03*
D13*
X-10500000Y524500D03*
D10*
X5500000Y-1475500D03*
X10500000Y-3475500D03*
D12*
X-6500000Y-3475500D03*
D13*
X-1500000Y1524500D03*
X-7500000Y6524500D03*
X-3500000Y12524500D03*
D11*
X2500000Y10524500D03*
D10*
X2500000Y-4475500D03*
D13*
X-11500000Y11524500D03*
X-1500000Y4524500D03*
D12*
X-6500000Y-10475500D03*
X-2500000Y-9475500D03*
D10*
X9500000Y-475500D03*
X6500000Y-4475500D03*
D12*
X-5500000Y-5475500D03*
X-1500000Y-12475500D03*
D11*
X500000Y9524500D03*
D10*
X7500000Y-3475500D03*
D11*
X8500000Y524500D03*
X12500000Y3524500D03*
D12*
X-11500000Y-9475500D03*
D11*
X10500000Y1524500D03*
D13*
X-8500000Y524500D03*
X-11500000Y3524500D03*
D11*
X11500000Y524500D03*
X5500000Y2524500D03*
D12*
X-4500000Y-475500D03*
D10*
X6500000Y-6475500D03*
D11*
X6500000Y6524500D03*
D12*
X-8500000Y-7475500D03*
D13*
X-7500000Y12524500D03*
D10*
X6500000Y-5475500D03*
D12*
X-8500000Y-11475500D03*
D11*
X2500000Y6524500D03*
X5500000Y9524500D03*
D10*
X2500000Y-5475500D03*
D13*
X-6500000Y9524500D03*
D12*
X-4500000Y-10475500D03*
D10*
X1500000Y-475500D03*
D13*
X-12500000Y9524500D03*
D11*
X3500000Y7524500D03*
D10*
X1500000Y-10475500D03*
D11*
X7500000Y11524500D03*
X4500000Y10524500D03*
D10*
X8500000Y-12475500D03*
X4500000Y-4475500D03*
X1500000Y-6475500D03*
X3500000Y-11475500D03*
D11*
X8500000Y6524500D03*
X500000Y1524500D03*
D12*
X-9500000Y-6475500D03*
D11*
X4500000Y3524500D03*
X10500000Y5524500D03*
D12*
X-8500000Y-10475500D03*
D10*
X2500000Y-12475500D03*
X9500000Y-12475500D03*
D11*
X3500000Y9524500D03*
D13*
X-7500000Y7524500D03*
D12*
X-500000Y-7475500D03*
D10*
X8500000Y-3475500D03*
D12*
X-9500000Y-475500D03*
D11*
X3500000Y1524500D03*
D12*
X-5500000Y-2475500D03*
X-12500000Y-1475500D03*
D11*
X2500000Y8524500D03*
D10*
X500000Y-6475500D03*
X1500000Y-8475500D03*
D11*
X9500000Y2524500D03*
X11500000Y2524500D03*
D12*
X-9500000Y-1475500D03*
D10*
X3500000Y-3475500D03*
X12500000Y-3475500D03*
X12500000Y-12475500D03*
D12*
X-12500000Y-11475500D03*
D10*
X10500000Y-11475500D03*
D13*
X-5500000Y5524500D03*
X-5500000Y2524500D03*
D10*
X12500000Y-2475500D03*
X12500000Y-6475500D03*
X9500000Y-7475500D03*
D13*
X-10500000Y10524500D03*
D12*
X-1500000Y-8475500D03*
X-4500000Y-3475500D03*
D11*
X6500000Y8524500D03*
D13*
X-10500000Y2524500D03*
D10*
X5500000Y-8475500D03*
D13*
X-6500000Y5524500D03*
X-6500000Y524500D03*
X-11500000Y6524500D03*
D11*
X6500000Y524500D03*
D12*
X-9500000Y-5475500D03*
D11*
X1500000Y6524500D03*
D12*
X-12500000Y-6475500D03*
D10*
X6500000Y-7475500D03*
D11*
X7500000Y9524500D03*
D10*
X7500000Y-12475500D03*
D13*
X-7500000Y10524500D03*
D12*
X-4500000Y-5475500D03*
D10*
X12500000Y-7475500D03*
D13*
X-12500000Y8524500D03*
D11*
X4500000Y1524500D03*
D12*
X-2500000Y-2475500D03*
D11*
X11500000Y5524500D03*
D13*
X-9500000Y3524500D03*
D10*
X8500000Y-7475500D03*
D11*
X11500000Y3524500D03*
D12*
X-2500000Y-8475500D03*
X-7500000Y-10475500D03*
D11*
X1500000Y3524500D03*
D12*
X-7500000Y-1475500D03*
D10*
X12500000Y-10475500D03*
X10500000Y-9475500D03*
D11*
X3500000Y524500D03*
D12*
X-500000Y-10475500D03*
D10*
X4500000Y-475500D03*
D13*
X-9500000Y6524500D03*
X-4500000Y6524500D03*
X-6500000Y1524500D03*
D11*
X1500000Y11524500D03*
X11500000Y4524500D03*
D12*
X-6500000Y-1475500D03*
X-9500000Y-7475500D03*
X-2500000Y-1475500D03*
D13*
X-12500000Y11524500D03*
D12*
X-12500000Y-5475500D03*
D10*
X500000Y-3475500D03*
X10500000Y-4475500D03*
D13*
X-3500000Y7524500D03*
X-2500000Y12524500D03*
D11*
X4500000Y9524500D03*
D10*
X1500000Y-7475500D03*
D11*
X7500000Y524500D03*
D12*
X-7500000Y-7475500D03*
D10*
X9500000Y-4475500D03*
D12*
X-8500000Y-6475500D03*
X-11500000Y-2475500D03*
D11*
X500000Y12524500D03*
D12*
X-1500000Y-1475500D03*
D13*
X-7500000Y2524500D03*
D12*
X-12500000Y-7475500D03*
D13*
X-2500000Y9524500D03*
D11*
X5500000Y8524500D03*
X9500000Y524500D03*
X9500000Y3524500D03*
D10*
X12500000Y-5475500D03*
D11*
X1500000Y10524500D03*
D13*
X-9500000Y1524500D03*
D12*
X-7500000Y-11475500D03*
X-3500000Y-475500D03*
D11*
X6500000Y9524500D03*
D12*
X-2500000Y-475500D03*
D10*
X3500000Y-475500D03*
X3500000Y-10475500D03*
D11*
X11500000Y10524500D03*
D13*
X-8500000Y12524500D03*
D12*
X-4500000Y-1475500D03*
D13*
X-500000Y6524500D03*
D11*
X500000Y10524500D03*
D12*
X-3500000Y-1475500D03*
X-1500000Y-4475500D03*
X-3500000Y-4475500D03*
D11*
X12500000Y12524500D03*
D12*
X-12500000Y-8475500D03*
D11*
X10500000Y8524500D03*
X4500000Y6524500D03*
D13*
X-8500000Y7524500D03*
D11*
X6500000Y3524500D03*
D12*
X-12500000Y-3475500D03*
D13*
X-500000Y1524500D03*
D10*
X8500000Y-2475500D03*
X2500000Y-9475500D03*
D13*
X-11500000Y524500D03*
D10*
X11500000Y-12475500D03*
D12*
X-8500000Y-475500D03*
X-9500000Y-11475500D03*
D11*
X7500000Y6524500D03*
D10*
X4500000Y-12475500D03*
D13*
X-8500000Y2524500D03*
D11*
X11500000Y7524500D03*
D13*
X-10500000Y11524500D03*
D11*
X12500000Y5524500D03*
X500000Y11524500D03*
D10*
X9500000Y-2475500D03*
D13*
X-5500000Y10524500D03*
X-10500000Y6524500D03*
X-11500000Y8524500D03*
D12*
X-9500000Y-10475500D03*
D13*
X-12500000Y2524500D03*
X-6500000Y11524500D03*
X-11500000Y10524500D03*
D11*
X1500000Y12524500D03*
D10*
X500000Y-475500D03*
X5500000Y-11475500D03*
X2500000Y-10475500D03*
D12*
X-12500000Y-4475500D03*
D10*
X3500000Y-6475500D03*
D11*
X3500000Y4524500D03*
D12*
X-5500000Y-8475500D03*
X-3500000Y-8475500D03*
D13*
X-10500000Y4524500D03*
D11*
X2500000Y524500D03*
X500000Y4524500D03*
D12*
X-10500000Y-8475500D03*
D13*
X-3500000Y11524500D03*
D10*
X500000Y-12475500D03*
D12*
X-11500000Y-12475500D03*
D10*
X6500000Y-1475500D03*
D13*
X-10500000Y9524500D03*
D12*
X-1500000Y-3475500D03*
D11*
X8500000Y9524500D03*
D13*
X-9500000Y5524500D03*
X-8500000Y4524500D03*
X-4500000Y7524500D03*
D11*
X5500000Y3524500D03*
D12*
X-2500000Y-11475500D03*
D10*
X9500000Y-9475500D03*
D11*
X2500000Y12524500D03*
D10*
X1500000Y-11475500D03*
D11*
X2500000Y9524500D03*
X7500000Y3524500D03*
D10*
X10500000Y-6475500D03*
D12*
X-11500000Y-7475500D03*
X-5500000Y-11475500D03*
D10*
X5500000Y-7475500D03*
X2500000Y-8475500D03*
D12*
X-10500000Y-3475500D03*
X-10500000Y-10475500D03*
D11*
X2500000Y5524500D03*
X2500000Y4524500D03*
D10*
X500000Y-11475500D03*
D12*
X-500000Y-4475500D03*
D13*
X-12500000Y6524500D03*
D11*
X4500000Y5524500D03*
D10*
X10500000Y-1475500D03*
X500000Y-1475500D03*
D14*
G04 #@! TO.C,J2*
X-24804000Y-10630000D03*
X-24804000Y17310000D03*
X-24804000Y-3010000D03*
X-24804000Y9690000D03*
X-27344000Y-470000D03*
X-27344000Y14770000D03*
X-24804000Y2070000D03*
X-24804000Y12230000D03*
X-24804000Y-8090000D03*
X-24804000Y4610000D03*
X-24804000Y-13170000D03*
X-27344000Y7150000D03*
D15*
X-27344000Y17310000D03*
D14*
X-27344000Y-10630000D03*
X-27344000Y2070000D03*
X-27344000Y-5550000D03*
X-27344000Y4610000D03*
X-27344000Y9690000D03*
X-27344000Y12230000D03*
X-24804000Y14770000D03*
X-24804000Y-15710000D03*
X-27344000Y-18250000D03*
X-27344000Y-3010000D03*
X-24804000Y-18250000D03*
X-24804000Y-470000D03*
X-24804000Y-5550000D03*
X-27344000Y-8090000D03*
X-27344000Y-15710000D03*
X-24804000Y7150000D03*
X-27344000Y-13170000D03*
D16*
G04 #@! TO.C,FLASH1*
X3482000Y-31293000D03*
X3482000Y-30023000D03*
X3482000Y-35103000D03*
X-6418000Y-28753000D03*
X3482000Y-33833000D03*
X3482000Y-32563000D03*
X-6418000Y-30023000D03*
X-6418000Y-27483000D03*
X-6418000Y-35103000D03*
X3482000Y-27483000D03*
X-6418000Y-33833000D03*
X3482000Y-26213000D03*
X-6418000Y-32563000D03*
X-6418000Y-26213000D03*
X-6418000Y-31293000D03*
X3482000Y-28753000D03*
D17*
G04 #@! TO.C,R31*
X0Y-23700000D03*
X0Y-23300000D03*
D14*
G04 #@! TO.C,J4*
X-31589000Y19991000D03*
D15*
X-31589000Y22531000D03*
D17*
G04 #@! TO.C,R32*
X-4080000Y-24500000D03*
X-3680000Y-24500000D03*
D18*
G04 #@! TO.C,C29*
X-28692000Y20613000D03*
X-28692000Y22063000D03*
D14*
G04 #@! TO.C,J6*
X27340000Y-13170000D03*
X27340000Y14770000D03*
X27340000Y2070000D03*
X24800000Y-8090000D03*
X27340000Y12230000D03*
X24800000Y4610000D03*
X27340000Y-15710000D03*
X27340000Y-470000D03*
X24800000Y-3010000D03*
X24800000Y7150000D03*
X24800000Y2070000D03*
X24800000Y12230000D03*
X27340000Y17310000D03*
X27340000Y-8090000D03*
X24800000Y-10630000D03*
X24800000Y-13170000D03*
X27340000Y9690000D03*
X27340000Y-3010000D03*
X24800000Y9690000D03*
X27340000Y-5550000D03*
X24800000Y-470000D03*
X27340000Y-18250000D03*
D15*
X24800000Y17310000D03*
D14*
X24800000Y14770000D03*
X27340000Y7150000D03*
X27340000Y4610000D03*
X24800000Y-18250000D03*
X24800000Y-5550000D03*
X24800000Y-15710000D03*
X27340000Y-10630000D03*
D17*
G04 #@! TO.C,R37*
X-7718000Y-33833000D03*
X-8118000Y-33833000D03*
G04 #@! TO.C,R29*
X910000Y-23300000D03*
X910000Y-23700000D03*
D19*
G04 #@! TO.C,LED1*
X-18536000Y-7972D03*
X-18536000Y1542028D03*
D20*
G04 #@! TO.C,J1*
X26202000Y27340000D03*
X-14438000Y24800000D03*
X-19518000Y27340000D03*
X26202000Y24800000D03*
X-1738000Y24800000D03*
X5882000Y27340000D03*
X-19518000Y24800000D03*
X-4278000Y24800000D03*
X28742000Y27340000D03*
X-16978000Y27340000D03*
X23662000Y27340000D03*
X10962000Y27340000D03*
X13502000Y24800000D03*
D21*
X-24598000Y24800000D03*
D20*
X10962000Y24800000D03*
X16042000Y27340000D03*
X-22058000Y24800000D03*
X5882000Y24800000D03*
X3342000Y27340000D03*
X-24598000Y27340000D03*
X8422000Y27340000D03*
X-6818000Y27340000D03*
X802000Y27340000D03*
X21122000Y27340000D03*
X28742000Y24800000D03*
X-9358000Y24800000D03*
X16042000Y24800000D03*
X-22058000Y27340000D03*
X8422000Y24800000D03*
X-16978000Y24800000D03*
X-11898000Y24800000D03*
X18582000Y24800000D03*
X-1738000Y27340000D03*
X21122000Y24800000D03*
X802000Y24800000D03*
X-4278000Y27340000D03*
X18582000Y27340000D03*
X3342000Y24800000D03*
X-6818000Y24800000D03*
X13502000Y27340000D03*
X-11898000Y27340000D03*
X-9358000Y27340000D03*
X23662000Y24800000D03*
X-14438000Y27340000D03*
D17*
G04 #@! TO.C,R25*
X3560000Y-15210000D03*
X3960000Y-15210000D03*
G04 #@! TO.C,R34*
X-2813000Y-14538000D03*
X-2813000Y-14938000D03*
G04 #@! TO.C,R30*
X-890000Y-23300000D03*
X-890000Y-23700000D03*
D14*
G04 #@! TO.C,J8*
X15040000Y-20070000D03*
D15*
X15040000Y-17530000D03*
D22*
G04 #@! TO.C,R20*
X-16586000Y2942000D03*
X-18536000Y2942000D03*
D17*
G04 #@! TO.C,R26*
X-7854000Y-13928000D03*
X-8254000Y-13928000D03*
G04 #@! TO.C,R33*
X-340000Y-15040000D03*
X60000Y-15040000D03*
D14*
G04 #@! TO.C,J3*
X33070000Y-10630000D03*
X33070000Y17310000D03*
X33070000Y-3010000D03*
X33070000Y9690000D03*
X30530000Y-470000D03*
X30530000Y14770000D03*
X33070000Y2070000D03*
X33070000Y12230000D03*
X33070000Y-8090000D03*
X33070000Y4610000D03*
X33070000Y-13170000D03*
X30530000Y7150000D03*
D15*
X30530000Y17310000D03*
D14*
X30530000Y-10630000D03*
X30530000Y2070000D03*
X30530000Y-5550000D03*
X30530000Y4610000D03*
X30530000Y9690000D03*
X30530000Y12230000D03*
X33070000Y14770000D03*
X33070000Y-15710000D03*
X30530000Y-18250000D03*
X30530000Y-3010000D03*
X33070000Y-18250000D03*
X33070000Y-470000D03*
X33070000Y-5550000D03*
X30530000Y-8090000D03*
X30530000Y-15710000D03*
X33070000Y7150000D03*
X30530000Y-13170000D03*
D20*
G04 #@! TO.C,J5*
X2817000Y-20270000D03*
D21*
X-7343000Y-20270000D03*
D20*
X-4803000Y-17730000D03*
X-2263000Y-20270000D03*
X-7343000Y-17730000D03*
X-4803000Y-20270000D03*
X-2263000Y-17730000D03*
X2817000Y-17730000D03*
X5357000Y-20270000D03*
X5357000Y-17730000D03*
X277000Y-17730000D03*
X277000Y-20270000D03*
D18*
G04 #@! TO.C,C96*
X-8718000Y-28933000D03*
X-8718000Y-27483000D03*
D23*
G04 #@! TD*
X-41775000Y-36825000D03*
X41570000Y36835000D03*
X41570000Y-36825000D03*
X-41775000Y36835000D03*
G04 --- BOARD END --- *
G04 #@! TF.MD5,c726197174938502575fbd3ba693219c*
M02*
