G04 --- HEADER BEGIN --- *
G04 #@! TF.GenerationSoftware,LibrePCB,LibrePCB,1.1.0*
G04 #@! TF.CreationDate,2024-09-08T17:15:58*
G04 #@! TF.ProjectId,flasher,f4b07f79-14a2-4070-9d7d-1f686dcb10c4,v1*
G04 #@! TF.Part,Single*
G04 #@! TF.SameCoordinates*
G04 #@! TF.FileFunction,Paste,Top*
G04 #@! TF.FilePolarity,Positive*
%FSLAX66Y66*%
%MOMM*%
G01*
G75*
G04 --- HEADER END --- *
G04 --- APERTURE LIST BEGIN --- *
%AMOUTLINE10*4,1,21,0.078986,-0.401543,0.148445,-0.36144,0.2,-0.3,0.3,-0.15,0.339409,-0.046086,0.343884,0.06496,0.312964,0.171709,0.249832,0.263172,0.160985,0.329936,0.055568,0.365129,-0.055568,0.365129,-0.160985,0.329936,-0.249832,0.263172,-0.312964,0.171708,-0.343884,0.06496,-0.339409,-0.046086,-0.3,-0.15,-0.2,-0.3,-0.148445,-0.36144,-0.078986,-0.401543,0.0,-0.41547,0.078986,-0.401543,45.0*%
%ADD10OUTLINE10*%
%AMOUTLINE11*4,1,21,0.078986,-0.401543,0.148445,-0.36144,0.2,-0.3,0.3,-0.15,0.339409,-0.046086,0.343884,0.06496,0.312964,0.171709,0.249832,0.263172,0.160985,0.329936,0.055568,0.365129,-0.055568,0.365129,-0.160985,0.329936,-0.249832,0.263172,-0.312964,0.171708,-0.343884,0.06496,-0.339409,-0.046086,-0.3,-0.15,-0.2,-0.3,-0.148445,-0.36144,-0.078986,-0.401543,0.0,-0.41547,0.078986,-0.401543,135.0*%
%ADD11OUTLINE11*%
%AMOUTLINE12*4,1,21,0.078986,-0.401543,0.148445,-0.36144,0.2,-0.3,0.3,-0.15,0.339409,-0.046086,0.343884,0.06496,0.312964,0.171709,0.249832,0.263172,0.160985,0.329936,0.055568,0.365129,-0.055568,0.365129,-0.160985,0.329936,-0.249832,0.263172,-0.312964,0.171708,-0.343884,0.06496,-0.339409,-0.046086,-0.3,-0.15,-0.2,-0.3,-0.148445,-0.36144,-0.078986,-0.401543,0.0,-0.41547,0.078986,-0.401543,315.0*%
%ADD12OUTLINE12*%
%AMOUTLINE13*4,1,21,0.078986,-0.401543,0.148445,-0.36144,0.2,-0.3,0.3,-0.15,0.339409,-0.046086,0.343884,0.06496,0.312964,0.171709,0.249832,0.263172,0.160985,0.329936,0.055568,0.365129,-0.055568,0.365129,-0.160985,0.329936,-0.249832,0.263172,-0.312964,0.171708,-0.343884,0.06496,-0.339409,-0.046086,-0.3,-0.15,-0.2,-0.3,-0.148445,-0.36144,-0.078986,-0.401543,0.0,-0.41547,0.078986,-0.401543,225.0*%
%ADD13OUTLINE13*%
%ADD14R,0.514X0.344*%
%ADD15R,0.16X0.16*%
%ADD16R,0.64X0.69*%
%ADD17R,0.65X0.6*%
%ADD18R,0.6X1.1*%
G04 --- APERTURE LIST END --- *
G04 --- BOARD BEGIN --- *
D10*
G04 #@! TO.C,LOGIC1*
X7500000Y-5475500D03*
D11*
X6500000Y10524500D03*
X11500000Y8524500D03*
D12*
X-8500000Y-3475500D03*
D11*
X6500000Y1524500D03*
D13*
X-500000Y10524500D03*
D10*
X12500000Y-8475500D03*
D13*
X-9500000Y2524500D03*
X-1500000Y8524500D03*
D10*
X9500000Y-5475500D03*
D12*
X-3500000Y-2475500D03*
D11*
X10500000Y12524500D03*
D10*
X8500000Y-11475500D03*
D12*
X-11500000Y-6475500D03*
D11*
X4500000Y11524500D03*
D12*
X-6500000Y-11475500D03*
D10*
X6500000Y-12475500D03*
D13*
X-4500000Y8524500D03*
D10*
X1500000Y-1475500D03*
X11500000Y-8475500D03*
X4500000Y-11475500D03*
D13*
X-4500000Y1524500D03*
D10*
X5500000Y-2475500D03*
D13*
X-8500000Y6524500D03*
X-4500000Y524500D03*
X-2500000Y3524500D03*
X-4500000Y11524500D03*
D10*
X7500000Y-7475500D03*
D12*
X-11500000Y-5475500D03*
X-12500000Y-12475500D03*
X-12500000Y-9475500D03*
D13*
X-1500000Y524500D03*
D12*
X-11500000Y-3475500D03*
D10*
X2500000Y-1475500D03*
D12*
X-10500000Y-4475500D03*
D13*
X-10500000Y1524500D03*
D12*
X-500000Y-2475500D03*
D11*
X4500000Y2524500D03*
D13*
X-10500000Y8524500D03*
D11*
X500000Y8524500D03*
D10*
X1500000Y-9475500D03*
D13*
X-11500000Y2524500D03*
D10*
X11500000Y-6475500D03*
D13*
X-8500000Y11524500D03*
X-5500000Y6524500D03*
D11*
X5500000Y12524500D03*
D12*
X-2500000Y-5475500D03*
D13*
X-9500000Y10524500D03*
D12*
X-10500000Y-1475500D03*
D13*
X-1500000Y3524500D03*
D12*
X-7500000Y-8475500D03*
X-5500000Y-7475500D03*
X-3500000Y-12475500D03*
D11*
X1500000Y8524500D03*
D13*
X-2500000Y8524500D03*
X-3500000Y8524500D03*
X-12500000Y7524500D03*
D11*
X3500000Y11524500D03*
D13*
X-12500000Y5524500D03*
D10*
X12500000Y-4475500D03*
D12*
X-6500000Y-6475500D03*
D10*
X9500000Y-1475500D03*
X7500000Y-11475500D03*
X3500000Y-9475500D03*
D12*
X-3500000Y-11475500D03*
D13*
X-2500000Y524500D03*
D12*
X-5500000Y-4475500D03*
D13*
X-4500000Y5524500D03*
D11*
X12500000Y8524500D03*
X2500000Y2524500D03*
X5500000Y5524500D03*
D10*
X2500000Y-6475500D03*
D11*
X6500000Y7524500D03*
D10*
X6500000Y-10475500D03*
D12*
X-11500000Y-11475500D03*
X-10500000Y-7475500D03*
D11*
X10500000Y6524500D03*
D10*
X7500000Y-1475500D03*
D12*
X-6500000Y-5475500D03*
D11*
X5500000Y524500D03*
D10*
X7500000Y-9475500D03*
X10500000Y-10475500D03*
X11500000Y-2475500D03*
X4500000Y-6475500D03*
D13*
X-3500000Y6524500D03*
X-1500000Y9524500D03*
D12*
X-6500000Y-7475500D03*
D11*
X9500000Y11524500D03*
D10*
X5500000Y-12475500D03*
D13*
X-5500000Y8524500D03*
X-6500000Y4524500D03*
X-3500000Y1524500D03*
D11*
X12500000Y11524500D03*
X6500000Y5524500D03*
X8500000Y1524500D03*
D13*
X-10500000Y7524500D03*
D10*
X12500000Y-11475500D03*
D11*
X6500000Y12524500D03*
D13*
X-5500000Y3524500D03*
D10*
X11500000Y-475500D03*
D12*
X-8500000Y-1475500D03*
D10*
X500000Y-9475500D03*
D13*
X-7500000Y9524500D03*
D12*
X-500000Y-12475500D03*
D13*
X-7500000Y3524500D03*
D10*
X11500000Y-7475500D03*
D13*
X-12500000Y12524500D03*
X-6500000Y2524500D03*
D11*
X12500000Y2524500D03*
D12*
X-500000Y-475500D03*
D10*
X10500000Y-5475500D03*
D11*
X5500000Y10524500D03*
D12*
X-5500000Y-12475500D03*
X-4500000Y-6475500D03*
D11*
X7500000Y1524500D03*
D12*
X-7500000Y-6475500D03*
D11*
X8500000Y7524500D03*
X2500000Y11524500D03*
D13*
X-12500000Y10524500D03*
D10*
X12500000Y-9475500D03*
D13*
X-12500000Y1524500D03*
X-2500000Y7524500D03*
D10*
X11500000Y-3475500D03*
D11*
X10500000Y10524500D03*
D10*
X11500000Y-11475500D03*
X10500000Y-7475500D03*
D12*
X-6500000Y-8475500D03*
D13*
X-8500000Y8524500D03*
X-7500000Y8524500D03*
D12*
X-1500000Y-2475500D03*
D10*
X11500000Y-5475500D03*
D12*
X-500000Y-3475500D03*
D11*
X3500000Y10524500D03*
X7500000Y12524500D03*
D13*
X-9500000Y4524500D03*
D10*
X5500000Y-6475500D03*
D12*
X-2500000Y-6475500D03*
X-6500000Y-475500D03*
D10*
X11500000Y-4475500D03*
D13*
X-5500000Y524500D03*
D12*
X-2500000Y-7475500D03*
D11*
X8500000Y10524500D03*
D12*
X-5500000Y-475500D03*
D13*
X-500000Y9524500D03*
D10*
X5500000Y-3475500D03*
D12*
X-5500000Y-1475500D03*
X-1500000Y-5475500D03*
D11*
X4500000Y4524500D03*
D13*
X-7500000Y11524500D03*
D11*
X500000Y3524500D03*
D10*
X7500000Y-2475500D03*
X1500000Y-2475500D03*
X7500000Y-6475500D03*
D13*
X-6500000Y8524500D03*
D11*
X5500000Y1524500D03*
X500000Y2524500D03*
D12*
X-8500000Y-2475500D03*
D11*
X5500000Y11524500D03*
D10*
X5500000Y-5475500D03*
X4500000Y-9475500D03*
D13*
X-1500000Y11524500D03*
D10*
X6500000Y-11475500D03*
D12*
X-4500000Y-11475500D03*
X-6500000Y-4475500D03*
D10*
X5500000Y-475500D03*
X3500000Y-8475500D03*
D13*
X-1500000Y2524500D03*
D12*
X-9500000Y-12475500D03*
D11*
X8500000Y12524500D03*
D10*
X6500000Y-2475500D03*
D12*
X-500000Y-1475500D03*
D10*
X1500000Y-3475500D03*
D11*
X8500000Y8524500D03*
X9500000Y1524500D03*
D10*
X3500000Y-1475500D03*
X3500000Y-12475500D03*
X11500000Y-1475500D03*
D11*
X4500000Y7524500D03*
X1500000Y5524500D03*
X12500000Y524500D03*
D13*
X-4500000Y4524500D03*
X-7500000Y5524500D03*
X-7500000Y4524500D03*
X-8500000Y1524500D03*
D12*
X-500000Y-9475500D03*
X-3500000Y-5475500D03*
D11*
X12500000Y4524500D03*
D12*
X-9500000Y-8475500D03*
X-7500000Y-3475500D03*
D11*
X10500000Y2524500D03*
X9500000Y6524500D03*
D10*
X10500000Y-8475500D03*
D11*
X500000Y524500D03*
D10*
X6500000Y-9475500D03*
D12*
X-2500000Y-4475500D03*
X-10500000Y-5475500D03*
D10*
X5500000Y-4475500D03*
D13*
X-2500000Y5524500D03*
X-9500000Y12524500D03*
X-500000Y524500D03*
D10*
X8500000Y-6475500D03*
D12*
X-4500000Y-9475500D03*
D13*
X-5500000Y7524500D03*
X-500000Y12524500D03*
D11*
X7500000Y10524500D03*
D13*
X-6500000Y10524500D03*
X-5500000Y12524500D03*
D11*
X6500000Y4524500D03*
D12*
X-10500000Y-6475500D03*
D11*
X9500000Y9524500D03*
D12*
X-500000Y-6475500D03*
D10*
X10500000Y-475500D03*
D11*
X3500000Y6524500D03*
D13*
X-500000Y5524500D03*
X-3500000Y10524500D03*
D10*
X4500000Y-10475500D03*
D12*
X-12500000Y-2475500D03*
D11*
X3500000Y5524500D03*
X9500000Y4524500D03*
X4500000Y12524500D03*
D13*
X-4500000Y12524500D03*
X-9500000Y8524500D03*
D12*
X-10500000Y-475500D03*
D10*
X2500000Y-3475500D03*
D13*
X-4500000Y2524500D03*
D10*
X500000Y-7475500D03*
X2500000Y-11475500D03*
D11*
X3500000Y2524500D03*
X10500000Y3524500D03*
D13*
X-11500000Y5524500D03*
D12*
X-500000Y-8475500D03*
D11*
X4500000Y8524500D03*
D10*
X3500000Y-2475500D03*
D13*
X-5500000Y1524500D03*
X-3500000Y2524500D03*
D11*
X7500000Y8524500D03*
D10*
X1500000Y-5475500D03*
D12*
X-6500000Y-9475500D03*
X-4500000Y-2475500D03*
D11*
X500000Y6524500D03*
D12*
X-9500000Y-9475500D03*
D11*
X1500000Y7524500D03*
D13*
X-500000Y8524500D03*
D11*
X5500000Y4524500D03*
D13*
X-1500000Y7524500D03*
D12*
X-4500000Y-7475500D03*
D13*
X-12500000Y524500D03*
D12*
X-4500000Y-8475500D03*
D13*
X-7500000Y1524500D03*
X-8500000Y10524500D03*
D12*
X-3500000Y-9475500D03*
D13*
X-12500000Y3524500D03*
D11*
X10500000Y11524500D03*
X5500000Y7524500D03*
D10*
X9500000Y-3475500D03*
D12*
X-11500000Y-10475500D03*
D10*
X1500000Y-4475500D03*
D11*
X6500000Y2524500D03*
D12*
X-8500000Y-8475500D03*
D10*
X8500000Y-1475500D03*
X500000Y-4475500D03*
D13*
X-1500000Y10524500D03*
D10*
X500000Y-5475500D03*
D13*
X-11500000Y1524500D03*
D12*
X-10500000Y-11475500D03*
D10*
X4500000Y-7475500D03*
D12*
X-1500000Y-9475500D03*
D13*
X-3500000Y524500D03*
D12*
X-5500000Y-9475500D03*
D11*
X1500000Y1524500D03*
D13*
X-4500000Y10524500D03*
X-3500000Y4524500D03*
X-500000Y2524500D03*
D11*
X1500000Y4524500D03*
D13*
X-1500000Y5524500D03*
D12*
X-7500000Y-2475500D03*
X-4500000Y-12475500D03*
D13*
X-3500000Y9524500D03*
D12*
X-7500000Y-475500D03*
D13*
X-2500000Y4524500D03*
D12*
X-7500000Y-4475500D03*
D10*
X2500000Y-7475500D03*
D13*
X-7500000Y524500D03*
X-11500000Y7524500D03*
D11*
X1500000Y524500D03*
X12500000Y10524500D03*
X11500000Y6524500D03*
D12*
X-5500000Y-6475500D03*
X-1500000Y-11475500D03*
D10*
X500000Y-10475500D03*
D11*
X11500000Y1524500D03*
D13*
X-1500000Y6524500D03*
X-6500000Y6524500D03*
D11*
X1500000Y2524500D03*
D12*
X-3500000Y-6475500D03*
D13*
X-11500000Y4524500D03*
D10*
X7500000Y-4475500D03*
X1500000Y-12475500D03*
D12*
X-7500000Y-5475500D03*
D11*
X4500000Y524500D03*
D12*
X-5500000Y-10475500D03*
D13*
X-3500000Y5524500D03*
D12*
X-8500000Y-4475500D03*
D11*
X11500000Y11524500D03*
X7500000Y7524500D03*
D13*
X-500000Y3524500D03*
D10*
X2500000Y-475500D03*
D12*
X-11500000Y-4475500D03*
D13*
X-11500000Y12524500D03*
D10*
X4500000Y-3475500D03*
D12*
X-1500000Y-6475500D03*
D13*
X-2500000Y6524500D03*
D12*
X-6500000Y-2475500D03*
X-1500000Y-7475500D03*
D13*
X-5500000Y9524500D03*
D11*
X500000Y7524500D03*
X7500000Y4524500D03*
X12500000Y9524500D03*
D10*
X12500000Y-475500D03*
D11*
X8500000Y4524500D03*
X11500000Y12524500D03*
X3500000Y8524500D03*
D12*
X-3500000Y-10475500D03*
X-9500000Y-4475500D03*
D11*
X11500000Y9524500D03*
X2500000Y1524500D03*
D13*
X-9500000Y7524500D03*
D12*
X-1500000Y-475500D03*
D10*
X10500000Y-12475500D03*
D12*
X-9500000Y-2475500D03*
X-9500000Y-3475500D03*
X-2500000Y-3475500D03*
X-8500000Y-5475500D03*
D13*
X-3500000Y3524500D03*
D11*
X8500000Y2524500D03*
D13*
X-2500000Y2524500D03*
D10*
X4500000Y-8475500D03*
D12*
X-500000Y-5475500D03*
X-2500000Y-10475500D03*
D11*
X9500000Y5524500D03*
D10*
X2500000Y-2475500D03*
D13*
X-5500000Y11524500D03*
X-6500000Y12524500D03*
X-1500000Y12524500D03*
D10*
X8500000Y-9475500D03*
X4500000Y-5475500D03*
D13*
X-500000Y7524500D03*
D11*
X10500000Y4524500D03*
D10*
X7500000Y-10475500D03*
D11*
X3500000Y12524500D03*
D13*
X-8500000Y5524500D03*
X-4500000Y9524500D03*
D10*
X8500000Y-10475500D03*
X6500000Y-475500D03*
D12*
X-8500000Y-12475500D03*
D13*
X-9500000Y524500D03*
X-8500000Y3524500D03*
D11*
X2500000Y3524500D03*
D10*
X5500000Y-10475500D03*
X7500000Y-8475500D03*
X7500000Y-475500D03*
D11*
X9500000Y12524500D03*
D13*
X-12500000Y4524500D03*
D11*
X12500000Y7524500D03*
D12*
X-7500000Y-9475500D03*
D11*
X10500000Y524500D03*
D10*
X3500000Y-7475500D03*
D13*
X-11500000Y9524500D03*
D11*
X9500000Y10524500D03*
X9500000Y8524500D03*
X12500000Y6524500D03*
D10*
X12500000Y-1475500D03*
X3500000Y-5475500D03*
X500000Y-8475500D03*
X500000Y-2475500D03*
X5500000Y-9475500D03*
D12*
X-500000Y-11475500D03*
D11*
X5500000Y6524500D03*
D13*
X-2500000Y10524500D03*
D10*
X4500000Y-1475500D03*
X11500000Y-10475500D03*
D12*
X-11500000Y-1475500D03*
D13*
X-9500000Y11524500D03*
D12*
X-3500000Y-7475500D03*
D10*
X9500000Y-6475500D03*
D12*
X-5500000Y-3475500D03*
D11*
X6500000Y11524500D03*
X8500000Y5524500D03*
D12*
X-10500000Y-12475500D03*
D10*
X11500000Y-9475500D03*
X6500000Y-3475500D03*
X8500000Y-8475500D03*
X4500000Y-2475500D03*
D11*
X7500000Y2524500D03*
X2500000Y7524500D03*
D12*
X-10500000Y-2475500D03*
D13*
X-10500000Y3524500D03*
D11*
X1500000Y9524500D03*
X12500000Y1524500D03*
D13*
X-2500000Y1524500D03*
D12*
X-4500000Y-4475500D03*
D10*
X6500000Y-8475500D03*
D13*
X-500000Y11524500D03*
X-4500000Y3524500D03*
D10*
X9500000Y-10475500D03*
D11*
X10500000Y9524500D03*
D10*
X3500000Y-4475500D03*
D11*
X9500000Y7524500D03*
X3500000Y3524500D03*
D13*
X-6500000Y3524500D03*
D12*
X-12500000Y-10475500D03*
X-1500000Y-10475500D03*
D13*
X-9500000Y9524500D03*
D12*
X-10500000Y-9475500D03*
D11*
X8500000Y11524500D03*
D13*
X-8500000Y9524500D03*
D10*
X9500000Y-8475500D03*
D13*
X-2500000Y11524500D03*
D10*
X9500000Y-11475500D03*
D12*
X-12500000Y-475500D03*
D13*
X-500000Y4524500D03*
D11*
X10500000Y7524500D03*
D12*
X-3500000Y-3475500D03*
D10*
X10500000Y-2475500D03*
D12*
X-6500000Y-12475500D03*
X-11500000Y-8475500D03*
X-11500000Y-475500D03*
X-7500000Y-12475500D03*
D10*
X8500000Y-5475500D03*
D12*
X-8500000Y-9475500D03*
D13*
X-10500000Y12524500D03*
D11*
X500000Y5524500D03*
X8500000Y3524500D03*
D13*
X-5500000Y4524500D03*
D10*
X8500000Y-4475500D03*
D11*
X7500000Y5524500D03*
D13*
X-6500000Y7524500D03*
D12*
X-2500000Y-12475500D03*
D13*
X-10500000Y5524500D03*
D10*
X8500000Y-475500D03*
D13*
X-10500000Y524500D03*
D10*
X5500000Y-1475500D03*
X10500000Y-3475500D03*
D12*
X-6500000Y-3475500D03*
D13*
X-1500000Y1524500D03*
X-7500000Y6524500D03*
X-3500000Y12524500D03*
D11*
X2500000Y10524500D03*
D10*
X2500000Y-4475500D03*
D13*
X-11500000Y11524500D03*
X-1500000Y4524500D03*
D12*
X-6500000Y-10475500D03*
X-2500000Y-9475500D03*
D10*
X9500000Y-475500D03*
X6500000Y-4475500D03*
D12*
X-5500000Y-5475500D03*
X-1500000Y-12475500D03*
D11*
X500000Y9524500D03*
D10*
X7500000Y-3475500D03*
D11*
X8500000Y524500D03*
X12500000Y3524500D03*
D12*
X-11500000Y-9475500D03*
D11*
X10500000Y1524500D03*
D13*
X-8500000Y524500D03*
X-11500000Y3524500D03*
D11*
X11500000Y524500D03*
X5500000Y2524500D03*
D12*
X-4500000Y-475500D03*
D10*
X6500000Y-6475500D03*
D11*
X6500000Y6524500D03*
D12*
X-8500000Y-7475500D03*
D13*
X-7500000Y12524500D03*
D10*
X6500000Y-5475500D03*
D12*
X-8500000Y-11475500D03*
D11*
X2500000Y6524500D03*
X5500000Y9524500D03*
D10*
X2500000Y-5475500D03*
D13*
X-6500000Y9524500D03*
D12*
X-4500000Y-10475500D03*
D10*
X1500000Y-475500D03*
D13*
X-12500000Y9524500D03*
D11*
X3500000Y7524500D03*
D10*
X1500000Y-10475500D03*
D11*
X7500000Y11524500D03*
X4500000Y10524500D03*
D10*
X8500000Y-12475500D03*
X4500000Y-4475500D03*
X1500000Y-6475500D03*
X3500000Y-11475500D03*
D11*
X8500000Y6524500D03*
X500000Y1524500D03*
D12*
X-9500000Y-6475500D03*
D11*
X4500000Y3524500D03*
X10500000Y5524500D03*
D12*
X-8500000Y-10475500D03*
D10*
X2500000Y-12475500D03*
X9500000Y-12475500D03*
D11*
X3500000Y9524500D03*
D13*
X-7500000Y7524500D03*
D12*
X-500000Y-7475500D03*
D10*
X8500000Y-3475500D03*
D12*
X-9500000Y-475500D03*
D11*
X3500000Y1524500D03*
D12*
X-5500000Y-2475500D03*
X-12500000Y-1475500D03*
D11*
X2500000Y8524500D03*
D10*
X500000Y-6475500D03*
X1500000Y-8475500D03*
D11*
X9500000Y2524500D03*
X11500000Y2524500D03*
D12*
X-9500000Y-1475500D03*
D10*
X3500000Y-3475500D03*
X12500000Y-3475500D03*
X12500000Y-12475500D03*
D12*
X-12500000Y-11475500D03*
D10*
X10500000Y-11475500D03*
D13*
X-5500000Y5524500D03*
X-5500000Y2524500D03*
D10*
X12500000Y-2475500D03*
X12500000Y-6475500D03*
X9500000Y-7475500D03*
D13*
X-10500000Y10524500D03*
D12*
X-1500000Y-8475500D03*
X-4500000Y-3475500D03*
D11*
X6500000Y8524500D03*
D13*
X-10500000Y2524500D03*
D10*
X5500000Y-8475500D03*
D13*
X-6500000Y5524500D03*
X-6500000Y524500D03*
X-11500000Y6524500D03*
D11*
X6500000Y524500D03*
D12*
X-9500000Y-5475500D03*
D11*
X1500000Y6524500D03*
D12*
X-12500000Y-6475500D03*
D10*
X6500000Y-7475500D03*
D11*
X7500000Y9524500D03*
D10*
X7500000Y-12475500D03*
D13*
X-7500000Y10524500D03*
D12*
X-4500000Y-5475500D03*
D10*
X12500000Y-7475500D03*
D13*
X-12500000Y8524500D03*
D11*
X4500000Y1524500D03*
D12*
X-2500000Y-2475500D03*
D11*
X11500000Y5524500D03*
D13*
X-9500000Y3524500D03*
D10*
X8500000Y-7475500D03*
D11*
X11500000Y3524500D03*
D12*
X-2500000Y-8475500D03*
X-7500000Y-10475500D03*
D11*
X1500000Y3524500D03*
D12*
X-7500000Y-1475500D03*
D10*
X12500000Y-10475500D03*
X10500000Y-9475500D03*
D11*
X3500000Y524500D03*
D12*
X-500000Y-10475500D03*
D10*
X4500000Y-475500D03*
D13*
X-9500000Y6524500D03*
X-4500000Y6524500D03*
X-6500000Y1524500D03*
D11*
X1500000Y11524500D03*
X11500000Y4524500D03*
D12*
X-6500000Y-1475500D03*
X-9500000Y-7475500D03*
X-2500000Y-1475500D03*
D13*
X-12500000Y11524500D03*
D12*
X-12500000Y-5475500D03*
D10*
X500000Y-3475500D03*
X10500000Y-4475500D03*
D13*
X-3500000Y7524500D03*
X-2500000Y12524500D03*
D11*
X4500000Y9524500D03*
D10*
X1500000Y-7475500D03*
D11*
X7500000Y524500D03*
D12*
X-7500000Y-7475500D03*
D10*
X9500000Y-4475500D03*
D12*
X-8500000Y-6475500D03*
X-11500000Y-2475500D03*
D11*
X500000Y12524500D03*
D12*
X-1500000Y-1475500D03*
D13*
X-7500000Y2524500D03*
D12*
X-12500000Y-7475500D03*
D13*
X-2500000Y9524500D03*
D11*
X5500000Y8524500D03*
X9500000Y524500D03*
X9500000Y3524500D03*
D10*
X12500000Y-5475500D03*
D11*
X1500000Y10524500D03*
D13*
X-9500000Y1524500D03*
D12*
X-7500000Y-11475500D03*
X-3500000Y-475500D03*
D11*
X6500000Y9524500D03*
D12*
X-2500000Y-475500D03*
D10*
X3500000Y-475500D03*
X3500000Y-10475500D03*
D11*
X11500000Y10524500D03*
D13*
X-8500000Y12524500D03*
D12*
X-4500000Y-1475500D03*
D13*
X-500000Y6524500D03*
D11*
X500000Y10524500D03*
D12*
X-3500000Y-1475500D03*
X-1500000Y-4475500D03*
X-3500000Y-4475500D03*
D11*
X12500000Y12524500D03*
D12*
X-12500000Y-8475500D03*
D11*
X10500000Y8524500D03*
X4500000Y6524500D03*
D13*
X-8500000Y7524500D03*
D11*
X6500000Y3524500D03*
D12*
X-12500000Y-3475500D03*
D13*
X-500000Y1524500D03*
D10*
X8500000Y-2475500D03*
X2500000Y-9475500D03*
D13*
X-11500000Y524500D03*
D10*
X11500000Y-12475500D03*
D12*
X-8500000Y-475500D03*
X-9500000Y-11475500D03*
D11*
X7500000Y6524500D03*
D10*
X4500000Y-12475500D03*
D13*
X-8500000Y2524500D03*
D11*
X11500000Y7524500D03*
D13*
X-10500000Y11524500D03*
D11*
X12500000Y5524500D03*
X500000Y11524500D03*
D10*
X9500000Y-2475500D03*
D13*
X-5500000Y10524500D03*
X-10500000Y6524500D03*
X-11500000Y8524500D03*
D12*
X-9500000Y-10475500D03*
D13*
X-12500000Y2524500D03*
X-6500000Y11524500D03*
X-11500000Y10524500D03*
D11*
X1500000Y12524500D03*
D10*
X500000Y-475500D03*
X5500000Y-11475500D03*
X2500000Y-10475500D03*
D12*
X-12500000Y-4475500D03*
D10*
X3500000Y-6475500D03*
D11*
X3500000Y4524500D03*
D12*
X-5500000Y-8475500D03*
X-3500000Y-8475500D03*
D13*
X-10500000Y4524500D03*
D11*
X2500000Y524500D03*
X500000Y4524500D03*
D12*
X-10500000Y-8475500D03*
D13*
X-3500000Y11524500D03*
D10*
X500000Y-12475500D03*
D12*
X-11500000Y-12475500D03*
D10*
X6500000Y-1475500D03*
D13*
X-10500000Y9524500D03*
D12*
X-1500000Y-3475500D03*
D11*
X8500000Y9524500D03*
D13*
X-9500000Y5524500D03*
X-8500000Y4524500D03*
X-4500000Y7524500D03*
D11*
X5500000Y3524500D03*
D12*
X-2500000Y-11475500D03*
D10*
X9500000Y-9475500D03*
D11*
X2500000Y12524500D03*
D10*
X1500000Y-11475500D03*
D11*
X2500000Y9524500D03*
X7500000Y3524500D03*
D10*
X10500000Y-6475500D03*
D12*
X-11500000Y-7475500D03*
X-5500000Y-11475500D03*
D10*
X5500000Y-7475500D03*
X2500000Y-8475500D03*
D12*
X-10500000Y-3475500D03*
X-10500000Y-10475500D03*
D11*
X2500000Y5524500D03*
X2500000Y4524500D03*
D10*
X500000Y-11475500D03*
D12*
X-500000Y-4475500D03*
D13*
X-12500000Y6524500D03*
D11*
X4500000Y5524500D03*
D10*
X10500000Y-1475500D03*
X500000Y-1475500D03*
D14*
G04 #@! TO.C,FLASH1*
X3482000Y-31293000D03*
X3482000Y-30023000D03*
X3482000Y-35103000D03*
X-6418000Y-28753000D03*
X3482000Y-33833000D03*
X3482000Y-32563000D03*
X-6418000Y-30023000D03*
X-6418000Y-27483000D03*
X-6418000Y-35103000D03*
X3482000Y-27483000D03*
X-6418000Y-33833000D03*
X3482000Y-26213000D03*
X-6418000Y-32563000D03*
X-6418000Y-26213000D03*
X-6418000Y-31293000D03*
X3482000Y-28753000D03*
D15*
G04 #@! TO.C,R31*
X0Y-23700000D03*
X0Y-23300000D03*
G04 #@! TO.C,R32*
X-4080000Y-24500000D03*
X-3680000Y-24500000D03*
D16*
G04 #@! TO.C,C29*
X-28692000Y20613000D03*
X-28692000Y22063000D03*
D15*
G04 #@! TO.C,R37*
X-7718000Y-33833000D03*
X-8118000Y-33833000D03*
G04 #@! TO.C,R29*
X910000Y-23300000D03*
X910000Y-23700000D03*
D17*
G04 #@! TO.C,LED1*
X-18536000Y-7972D03*
X-18536000Y1542028D03*
D15*
G04 #@! TO.C,R25*
X3560000Y-15210000D03*
X3960000Y-15210000D03*
G04 #@! TO.C,R34*
X-2813000Y-14538000D03*
X-2813000Y-14938000D03*
G04 #@! TO.C,R30*
X-890000Y-23300000D03*
X-890000Y-23700000D03*
D18*
G04 #@! TO.C,R20*
X-16586000Y2942000D03*
X-18536000Y2942000D03*
D15*
G04 #@! TO.C,R26*
X-7854000Y-13928000D03*
X-8254000Y-13928000D03*
G04 #@! TO.C,R33*
X-340000Y-15040000D03*
X60000Y-15040000D03*
D16*
G04 #@! TO.C,C96*
X-8718000Y-28933000D03*
X-8718000Y-27483000D03*
G04 --- BOARD END --- *
G04 #@! TF.MD5,35a095a9566297eaa54a0c0b207484e1*
M02*
