M48
; #@! TF.GenerationSoftware,LibrePCB,LibrePCB,1.1.0
; #@! TF.CreationDate,2024-09-08T17:15:58
; #@! TF.ProjectId,flasher,f4b07f79-14a2-4070-9d7d-1f686dcb10c4,v1
; #@! TF.Part,Single
; #@! TF.SameCoordinates
; #@! TF.FileFunction,Plated,1,13,PTH
FMAT,2
METRIC,TZ
; #@! TA.AperFunction,ViaDrill
T1C0.2
%
G90
G05
M71
T1
X2.151Y3.013
X11.4Y-6.9
X2.975Y-11.0
X12.3Y-6.9
X12.3Y-5.3
X9.6Y-6.9
X-7.0Y-9.525
X2.975Y-10.2
X13.2Y-5.3
X13.2Y-6.9
X-12.5Y-12.625
X-10.5Y-12.625
X14.1Y-6.9
X-16.827Y-13.714
X-8.5Y-12.775
X10.5Y-6.9
X15.0Y-6.9
X10.5Y-5.3
X11.4Y-5.3
X14.1Y-5.3
X-16.948Y-11.056
X-8.0Y-9.525
X2.975Y-11.8
X9.6Y-5.3
X-9.855Y-8.125
T0
M30
