G04 --- HEADER BEGIN --- *
G04 #@! TF.GenerationSoftware,LibrePCB,LibrePCB,1.1.0*
G04 #@! TF.CreationDate,2024-09-08T17:02:52*
G04 #@! TF.ProjectId,flasher,f4b07f79-14a2-4070-9d7d-1f686dcb10c4,v1*
G04 #@! TF.Part,Single*
G04 #@! TF.SameCoordinates*
G04 #@! TF.FileFunction,Component,L13,Bot*
%FSLAX66Y66*%
%MOMM*%
G01*
G75*
G04 --- HEADER END --- *
G04 --- APERTURE LIST BEGIN --- *
G04 #@! TA.AperFunction,Profile*
%ADD10C,0.001*%
G04 #@! TA.AperFunction,ComponentMain*
%ADD11C,0.3*%
G04 #@! TA.AperFunction,ComponentOutline,Body*
%ADD12C,0.1*%
G04 #@! TA.AperFunction,ComponentOutline,Courtyard*
%ADD13C,0.1*%
G04 #@! TA.AperFunction,ComponentPin*
%ADD14P,0.36X4X0.0*%
%ADD15C,0*%
G04 #@! TD*
G04 --- APERTURE LIST END --- *
G04 --- BOARD BEGIN --- *
D10*
X-55000000Y-45000000D02*
X55000000Y-45000000D01*
X55000000Y45000000D01*
X-55000000Y45000000D01*
X-55000000Y-45000000D01*
D11*
G04 #@! TO.C,C66*
G04 #@! TO.CVal,100μF*
G04 #@! TO.CMnt,SMD*
G04 #@! TO.CFtp,CAPC2012 (0805)*
G04 #@! TO.CRot,180.0*
X14972000Y-13214000D03*
D12*
X13972000Y-13839000D02*
X15972000Y-13839000D01*
X15972000Y-12589000D01*
X13972000Y-12589000D01*
X13972000Y-13839000D01*
D13*
X13372000Y-14089000D02*
X16572000Y-14089000D01*
X16572000Y-12339000D01*
X13372000Y-12339000D01*
X13372000Y-14089000D01*
D14*
G04 #@! TO.P,C66,1,1*
X14097000Y-13214000D03*
D15*
G04 #@! TO.P,C66,2,2*
X15847000Y-13214000D03*
D11*
G04 #@! TD.P*
G04 #@! TO.C,C43*
G04 #@! TO.CVal,4.7μF*
G04 #@! TO.CFtp,CAPC1005 (0402)*
G04 #@! TO.CRot,0.0*
X-1899000Y-4476000D03*
D12*
X-1399000Y-4226000D02*
X-2399000Y-4226000D01*
X-2399000Y-4726000D01*
X-1399000Y-4726000D01*
X-1399000Y-4226000D01*
D13*
X-1149000Y-4076000D02*
X-2649000Y-4076000D01*
X-2649000Y-4876000D01*
X-1149000Y-4876000D01*
X-1149000Y-4076000D01*
D14*
G04 #@! TO.P,C43,1,1*
X-1499000Y-4476000D03*
D15*
G04 #@! TO.P,C43,2,2*
X-2299000Y-4476000D03*
D11*
G04 #@! TD.P*
G04 #@! TO.C,C44*
X-3900000Y-4475000D03*
D12*
X-3400000Y-4225000D02*
X-4400000Y-4225000D01*
X-4400000Y-4725000D01*
X-3400000Y-4725000D01*
X-3400000Y-4225000D01*
D13*
X-3150000Y-4075000D02*
X-4650000Y-4075000D01*
X-4650000Y-4875000D01*
X-3150000Y-4875000D01*
X-3150000Y-4075000D01*
D14*
G04 #@! TO.P,C44,1,1*
X-3500000Y-4475000D03*
D15*
G04 #@! TO.P,C44,2,2*
X-4300000Y-4475000D03*
D11*
G04 #@! TD.P*
G04 #@! TO.C,XTAL2*
G04 #@! TO.CVal,LTC1799*
G04 #@! TO.CFtp,TSOT-23*
G04 #@! TO.CRot,-180.0*
X8967000Y2552000D03*
D12*
X7517000Y1802000D02*
X10417000Y1802000D01*
X10417000Y3302000D01*
X7517000Y3302000D01*
X7517000Y1802000D01*
D13*
X6967000Y302000D02*
X10967000Y302000D01*
X10967000Y4802000D01*
X6967000Y4802000D01*
X6967000Y302000D01*
D15*
G04 #@! TO.P,XTAL2,3,SET*
X9917000Y3862000D03*
G04 #@! TO.P,XTAL2,5,OUT*
X8017000Y1242000D03*
G04 #@! TO.P,XTAL2,4,DIV*
X9917000Y1242000D03*
G04 #@! TO.P,XTAL2,2,GND*
X8967000Y3862000D03*
D14*
G04 #@! TO.P,XTAL2,1,V+*
X8017000Y3862000D03*
D11*
G04 #@! TD.P*
G04 #@! TO.C,C71*
G04 #@! TO.CVal,470nF*
G04 #@! TO.CFtp,CAPC1005 (0402)*
X-100000Y-5480000D03*
D12*
X-600000Y-5730000D02*
X400000Y-5730000D01*
X400000Y-5230000D01*
X-600000Y-5230000D01*
X-600000Y-5730000D01*
D13*
X-850000Y-5880000D02*
X650000Y-5880000D01*
X650000Y-5080000D01*
X-850000Y-5080000D01*
X-850000Y-5880000D01*
D14*
G04 #@! TO.P,C71,1,1*
X-500000Y-5480000D03*
D15*
G04 #@! TO.P,C71,2,2*
X300000Y-5480000D03*
D11*
G04 #@! TD.P*
G04 #@! TO.C,VREG1*
G04 #@! TO.CVal,LTC3633*
G04 #@! TO.CFtp,TSSOP-28*
G04 #@! TO.CRot,180.0*
X-12630028Y-3900000D03*
D12*
X-10430028Y950000D02*
X-14830028Y950000D01*
X-14830028Y-8750000D01*
X-10430028Y-8750000D01*
X-10430028Y950000D01*
D13*
X-9130028Y1100000D02*
X-16130028Y1100000D01*
X-16130028Y-8900000D01*
X-9130028Y-8900000D01*
X-9130028Y1100000D01*
D15*
G04 #@! TO.P,VREG1,20,BOOST2*
X-9855028Y-2925000D03*
G04 #@! TO.P,VREG1,14,ITH2*
X-15405028Y325000D03*
G04 #@! TO.P,VREG1,2,TRACKSS1*
X-15405028Y-7475000D03*
G04 #@! TO.P,VREG1,11,PGOOD2*
X-15405028Y-1625000D03*
G04 #@! TO.P,VREG1,22,INTVCC*
X-9855028Y-4225000D03*
D14*
G04 #@! TO.P,VREG1,1,ITH1*
X-15405028Y-8125000D03*
D15*
G04 #@! TO.P,VREG1,26,SW1*
X-9855028Y-6825000D03*
G04 #@! TO.P,VREG1,9,RUN2*
X-15405028Y-2925000D03*
G04 #@! TO.P,VREG1,21,V2P5*
X-9855028Y-3575000D03*
G04 #@! TO.P,VREG1,17,SW_2*
X-9855028Y-975000D03*
G04 #@! TO.P,VREG1,5,PHMODE*
X-15405028Y-5525000D03*
G04 #@! TO.P,VREG1,16,SW2*
X-9855028Y-325000D03*
G04 #@! TO.P,VREG1,3,VFB1*
X-15405028Y-6825000D03*
G04 #@! TO.P,VREG1,19,VIN_2*
X-9855028Y-2275000D03*
G04 #@! TO.P,VREG1,28,VON1*
X-9855028Y-8125000D03*
G04 #@! TO.P,VREG1,15,VON2*
X-9855028Y325000D03*
G04 #@! TO.P,VREG1,23,BOOST1*
X-9855028Y-4875000D03*
G04 #@! TO.P,VREG1,13,TRACKSS2*
X-15405028Y-325000D03*
G04 #@! TO.P,VREG1,12,VFB2*
X-15405028Y-975000D03*
G04 #@! TO.P,VREG1,29,PGND*
X-12630028Y-3900000D03*
G04 #@! TO.P,VREG1,27,SW_1*
X-9855028Y-7475000D03*
G04 #@! TO.P,VREG1,25,VIN_1*
X-9855028Y-6175000D03*
G04 #@! TO.P,VREG1,6,RUN1*
X-15405028Y-4875000D03*
G04 #@! TO.P,VREG1,4,PGOOD1*
X-15405028Y-6175000D03*
G04 #@! TO.P,VREG1,24,VIN1*
X-9855028Y-5525000D03*
G04 #@! TO.P,VREG1,7,MODE/SYNC*
X-15405028Y-4225000D03*
G04 #@! TO.P,VREG1,10,SGND*
X-15405028Y-2275000D03*
G04 #@! TO.P,VREG1,8,RT*
X-15405028Y-3575000D03*
G04 #@! TO.P,VREG1,18,VIN2*
X-9855028Y-1625000D03*
D11*
G04 #@! TD.P*
G04 #@! TO.C,C59*
G04 #@! TO.CVal,470nF*
G04 #@! TO.CFtp,CAPC1005 (0402)*
G04 #@! TO.CRot,0.0*
X-11899000Y9522000D03*
D12*
X-11399000Y9772000D02*
X-12399000Y9772000D01*
X-12399000Y9272000D01*
X-11399000Y9272000D01*
X-11399000Y9772000D01*
D13*
X-11149000Y9922000D02*
X-12649000Y9922000D01*
X-12649000Y9122000D01*
X-11149000Y9122000D01*
X-11149000Y9922000D01*
D14*
G04 #@! TO.P,C59,1,1*
X-11499000Y9522000D03*
D15*
G04 #@! TO.P,C59,2,2*
X-12299000Y9522000D03*
D11*
G04 #@! TD.P*
G04 #@! TO.C,C6*
G04 #@! TO.CRot,270.0*
X3499000Y-5075000D03*
D12*
X3749000Y-5575000D02*
X3749000Y-4575000D01*
X3249000Y-4575000D01*
X3249000Y-5575000D01*
X3749000Y-5575000D01*
D13*
X3899000Y-5825000D02*
X3899000Y-4325000D01*
X3099000Y-4325000D01*
X3099000Y-5825000D01*
X3899000Y-5825000D01*
D14*
G04 #@! TO.P,C6,1,1*
X3499000Y-5475000D03*
D15*
G04 #@! TO.P,C6,2,2*
X3499000Y-4675000D03*
D11*
G04 #@! TD.P*
G04 #@! TO.C,C24*
G04 #@! TO.CVal,100μF*
G04 #@! TO.CFtp,CAPC2012 (0805)*
G04 #@! TO.CRot,90.0*
X-6300000Y11500000D03*
D12*
X-6925000Y12500000D02*
X-6925000Y10500000D01*
X-5675000Y10500000D01*
X-5675000Y12500000D01*
X-6925000Y12500000D01*
D13*
X-7175000Y13100000D02*
X-7175000Y9900000D01*
X-5425000Y9900000D01*
X-5425000Y13100000D01*
X-7175000Y13100000D01*
D14*
G04 #@! TO.P,C24,1,1*
X-6300000Y12375000D03*
D15*
G04 #@! TO.P,C24,2,2*
X-6300000Y10625000D03*
D11*
G04 #@! TD.P*
G04 #@! TO.C,L4*
G04 #@! TO.CVal,3.3μH*
G04 #@! TO.CFtp,INDC2520 (1008)*
G04 #@! TO.CRot,270.0*
X-12098000Y4361000D03*
D12*
X-11098000Y3111000D02*
X-11098000Y5611000D01*
X-13098000Y5611000D01*
X-13098000Y3111000D01*
X-11098000Y3111000D01*
D13*
X-10848000Y2511000D02*
X-10848000Y6211000D01*
X-13348000Y6211000D01*
X-13348000Y2511000D01*
X-10848000Y2511000D01*
D15*
G04 #@! TO.P,L4,2,2*
X-12098000Y5486000D03*
D14*
G04 #@! TO.P,L4,1,1*
X-12098000Y3236000D03*
D11*
G04 #@! TD.P*
G04 #@! TO.C,C78*
G04 #@! TO.CVal,470nF*
G04 #@! TO.CFtp,CAPC1005 (0402)*
G04 #@! TO.CRot,180.0*
X-4100000Y2525000D03*
D12*
X-4600000Y2275000D02*
X-3600000Y2275000D01*
X-3600000Y2775000D01*
X-4600000Y2775000D01*
X-4600000Y2275000D01*
D13*
X-4850000Y2125000D02*
X-3350000Y2125000D01*
X-3350000Y2925000D01*
X-4850000Y2925000D01*
X-4850000Y2125000D01*
D14*
G04 #@! TO.P,C78,1,1*
X-4500000Y2525000D03*
D15*
G04 #@! TO.P,C78,2,2*
X-3700000Y2525000D03*
D11*
G04 #@! TD.P*
G04 #@! TO.C,VREG2*
G04 #@! TO.CVal,LTC3621*
G04 #@! TO.CFtp,MSOP-8*
X-7103028Y4586000D03*
D12*
X-6263028Y5526000D02*
X-7943028Y5526000D01*
X-7943028Y3646000D01*
X-6263028Y3646000D01*
X-6263028Y5526000D01*
D13*
X-4303028Y6086000D02*
X-9903028Y6086000D01*
X-9903028Y3086000D01*
X-4303028Y3086000D01*
X-4303028Y6086000D01*
D14*
G04 #@! TO.P,VREG2,1,SW*
X-9213028Y3611000D03*
D15*
G04 #@! TO.P,VREG2,4,PGOOD*
X-9213028Y5561000D03*
G04 #@! TO.P,VREG2,7,MODE/SYNC*
X-4993028Y4261000D03*
G04 #@! TO.P,VREG2,5,FB*
X-4993028Y5561000D03*
G04 #@! TO.P,VREG2,3,RUN*
X-9213028Y4911000D03*
G04 #@! TO.P,VREG2,6,INTVCC*
X-4993028Y4911000D03*
G04 #@! TO.P,VREG2,8,SGND*
X-4993028Y3611000D03*
G04 #@! TO.P,VREG2,9,GND*
X-7103028Y4586000D03*
G04 #@! TO.P,VREG2,2,VIN*
X-9213028Y4261000D03*
D11*
G04 #@! TD.P*
G04 #@! TO.C,C88*
G04 #@! TO.CVal,470nF*
G04 #@! TO.CFtp,CAPC1005 (0402)*
G04 #@! TO.CRot,90.0*
X9600000Y-7300000D03*
D12*
X9350000Y-6800000D02*
X9350000Y-7800000D01*
X9850000Y-7800000D01*
X9850000Y-6800000D01*
X9350000Y-6800000D01*
D13*
X9200000Y-6550000D02*
X9200000Y-8050000D01*
X10000000Y-8050000D01*
X10000000Y-6550000D01*
X9200000Y-6550000D01*
D14*
G04 #@! TO.P,C88,1,1*
X9600000Y-6900000D03*
D15*
G04 #@! TO.P,C88,2,2*
X9600000Y-7700000D03*
D11*
G04 #@! TD.P*
G04 #@! TO.C,R10*
G04 #@! TO.CVal,9.31kΩ*
G04 #@! TO.CFtp,RESC1608 (0603)*
X-18900000Y-7650000D03*
D12*
X-19300000Y-6850000D02*
X-19300000Y-8450000D01*
X-18500000Y-8450000D01*
X-18500000Y-6850000D01*
X-19300000Y-6850000D01*
D13*
X-19550000Y-6250000D02*
X-19550000Y-9050000D01*
X-18250000Y-9050000D01*
X-18250000Y-6250000D01*
X-19550000Y-6250000D01*
D15*
G04 #@! TO.P,R10,2,2*
X-18900000Y-8425000D03*
D14*
G04 #@! TO.P,R10,1,1*
X-18900000Y-6875000D03*
D11*
G04 #@! TD.P*
G04 #@! TO.C,C56*
G04 #@! TO.CVal,470nF*
G04 #@! TO.CFtp,CAPC1005 (0402)*
G04 #@! TO.CRot,0.0*
X8101000Y-471000D03*
D12*
X8601000Y-221000D02*
X7601000Y-221000D01*
X7601000Y-721000D01*
X8601000Y-721000D01*
X8601000Y-221000D01*
D13*
X8851000Y-71000D02*
X7351000Y-71000D01*
X7351000Y-871000D01*
X8851000Y-871000D01*
X8851000Y-71000D01*
D14*
G04 #@! TO.P,C56,1,1*
X8501000Y-471000D03*
D15*
G04 #@! TO.P,C56,2,2*
X7701000Y-471000D03*
D11*
G04 #@! TD.P*
G04 #@! TO.C,OSC1*
G04 #@! TO.CVal,DSC6311JI2DA-027.0000T*
G04 #@! TO.CFtp,VFLGA-4*
X7325000Y7899000D03*
D12*
X8575000Y8899000D02*
X6075000Y8899000D01*
X6075000Y6899000D01*
X8575000Y6899000D01*
X8575000Y8899000D01*
D13*
X8825000Y9149000D02*
X5825000Y9149000D01*
X5825000Y6649000D01*
X8825000Y6649000D01*
X8825000Y9149000D01*
D15*
G04 #@! TO.P,OSC1,3,OUT*
X6500000Y8524000D03*
G04 #@! TO.P,OSC1,2,GND*
X6500000Y7274000D03*
G04 #@! TO.P,OSC1,4,VDD*
X8150000Y8524000D03*
D14*
G04 #@! TO.P,OSC1,1,STDBY*
X8150000Y7274000D03*
D11*
G04 #@! TD.P*
G04 #@! TO.C,C53*
G04 #@! TO.CVal,470nF*
G04 #@! TO.CFtp,CAPC1005 (0402)*
G04 #@! TO.CRot,180.0*
X11857000Y3528000D03*
D12*
X11357000Y3278000D02*
X12357000Y3278000D01*
X12357000Y3778000D01*
X11357000Y3778000D01*
X11357000Y3278000D01*
D13*
X11107000Y3128000D02*
X12607000Y3128000D01*
X12607000Y3928000D01*
X11107000Y3928000D01*
X11107000Y3128000D01*
D14*
G04 #@! TO.P,C53,1,1*
X11457000Y3528000D03*
D15*
G04 #@! TO.P,C53,2,2*
X12257000Y3528000D03*
D11*
G04 #@! TD.P*
G04 #@! TO.C,C40*
X-3101000Y-2475000D03*
D12*
X-3601000Y-2725000D02*
X-2601000Y-2725000D01*
X-2601000Y-2225000D01*
X-3601000Y-2225000D01*
X-3601000Y-2725000D01*
D13*
X-3851000Y-2875000D02*
X-2351000Y-2875000D01*
X-2351000Y-2075000D01*
X-3851000Y-2075000D01*
X-3851000Y-2875000D01*
D14*
G04 #@! TO.P,C40,1,1*
X-3501000Y-2475000D03*
D15*
G04 #@! TO.P,C40,2,2*
X-2701000Y-2475000D03*
D11*
G04 #@! TD.P*
G04 #@! TO.C,L2*
G04 #@! TO.CVal,1.5μH*
G04 #@! TO.CFtp,INDC2520 (1008)*
G04 #@! TO.CRot,90.0*
X-7500000Y-8400000D03*
D12*
X-8500000Y-7150000D02*
X-8500000Y-9650000D01*
X-6500000Y-9650000D01*
X-6500000Y-7150000D01*
X-8500000Y-7150000D01*
D13*
X-8750000Y-6550000D02*
X-8750000Y-10250000D01*
X-6250000Y-10250000D01*
X-6250000Y-6550000D01*
X-8750000Y-6550000D01*
D15*
G04 #@! TO.P,L2,2,2*
X-7500000Y-9525000D03*
D14*
G04 #@! TO.P,L2,1,1*
X-7500000Y-7275000D03*
D11*
G04 #@! TD.P*
G04 #@! TO.C,C99*
G04 #@! TO.CVal,4.7μF*
G04 #@! TO.CFtp,CAPC1005 (0402)*
X-7000000Y14300000D03*
D12*
X-7250000Y14800000D02*
X-7250000Y13800000D01*
X-6750000Y13800000D01*
X-6750000Y14800000D01*
X-7250000Y14800000D01*
D13*
X-7400000Y15050000D02*
X-7400000Y13550000D01*
X-6600000Y13550000D01*
X-6600000Y15050000D01*
X-7400000Y15050000D01*
D14*
G04 #@! TO.P,C99,1,1*
X-7000000Y14700000D03*
D15*
G04 #@! TO.P,C99,2,2*
X-7000000Y13900000D03*
D11*
G04 #@! TD.P*
G04 #@! TO.C,C18*
G04 #@! TO.CVal,100μF*
G04 #@! TO.CFtp,CAPC2012 (0805)*
X-12500000Y-13500000D03*
D12*
X-13125000Y-12500000D02*
X-13125000Y-14500000D01*
X-11875000Y-14500000D01*
X-11875000Y-12500000D01*
X-13125000Y-12500000D01*
D13*
X-13375000Y-11900000D02*
X-13375000Y-15100000D01*
X-11625000Y-15100000D01*
X-11625000Y-11900000D01*
X-13375000Y-11900000D01*
D14*
G04 #@! TO.P,C18,1,1*
X-12500000Y-12625000D03*
D15*
G04 #@! TO.P,C18,2,2*
X-12500000Y-14375000D03*
D11*
G04 #@! TD.P*
G04 #@! TO.C,C32*
G04 #@! TO.CVal,6.2pF*
G04 #@! TO.CFtp,CAPC1005 (0402)*
G04 #@! TO.CRot,180.0*
X-5993000Y2500000D03*
D12*
X-6493000Y2250000D02*
X-5493000Y2250000D01*
X-5493000Y2750000D01*
X-6493000Y2750000D01*
X-6493000Y2250000D01*
D13*
X-6743000Y2100000D02*
X-5243000Y2100000D01*
X-5243000Y2900000D01*
X-6743000Y2900000D01*
X-6743000Y2100000D01*
D14*
G04 #@! TO.P,C32,1,1*
X-6393000Y2500000D03*
D15*
G04 #@! TO.P,C32,2,2*
X-5593000Y2500000D03*
D11*
G04 #@! TD.P*
G04 #@! TO.C,C75*
G04 #@! TO.CVal,470nF*
G04 #@! TO.CRot,270.0*
X-4500000Y-3075000D03*
D12*
X-4250000Y-3575000D02*
X-4250000Y-2575000D01*
X-4750000Y-2575000D01*
X-4750000Y-3575000D01*
X-4250000Y-3575000D01*
D13*
X-4100000Y-3825000D02*
X-4100000Y-2325000D01*
X-4900000Y-2325000D01*
X-4900000Y-3825000D01*
X-4100000Y-3825000D01*
D14*
G04 #@! TO.P,C75,1,1*
X-4500000Y-3475000D03*
D15*
G04 #@! TO.P,C75,2,2*
X-4500000Y-2675000D03*
D11*
G04 #@! TD.P*
G04 #@! TO.C,C90*
G04 #@! TO.CRot,-270.0*
X11400000Y-7300000D03*
D12*
X11150000Y-6800000D02*
X11150000Y-7800000D01*
X11650000Y-7800000D01*
X11650000Y-6800000D01*
X11150000Y-6800000D01*
D13*
X11000000Y-6550000D02*
X11000000Y-8050000D01*
X11800000Y-8050000D01*
X11800000Y-6550000D01*
X11000000Y-6550000D01*
D14*
G04 #@! TO.P,C90,1,1*
X11400000Y-6900000D03*
D15*
G04 #@! TO.P,C90,2,2*
X11400000Y-7700000D03*
D11*
G04 #@! TD.P*
G04 #@! TO.C,R18*
G04 #@! TO.CVal,619kΩ*
G04 #@! TO.CFtp,RESC1608 (0603)*
G04 #@! TO.CRot,180.0*
X-3932000Y9240000D03*
D12*
X-4732000Y8840000D02*
X-3132000Y8840000D01*
X-3132000Y9640000D01*
X-4732000Y9640000D01*
X-4732000Y8840000D01*
D13*
X-5332000Y8590000D02*
X-2532000Y8590000D01*
X-2532000Y9890000D01*
X-5332000Y9890000D01*
X-5332000Y8590000D01*
D15*
G04 #@! TO.P,R18,2,2*
X-3157000Y9240000D03*
D14*
G04 #@! TO.P,R18,1,1*
X-4707000Y9240000D03*
D11*
G04 #@! TD.P*
G04 #@! TO.C,R14*
G04 #@! TO.CVal,13.3kΩ*
G04 #@! TO.CRot,0.0*
X-17780000Y4824000D03*
D12*
X-16980000Y5224000D02*
X-18580000Y5224000D01*
X-18580000Y4424000D01*
X-16980000Y4424000D01*
X-16980000Y5224000D01*
D13*
X-16380000Y5474000D02*
X-19180000Y5474000D01*
X-19180000Y4174000D01*
X-16380000Y4174000D01*
X-16380000Y5474000D01*
D15*
G04 #@! TO.P,R14,2,2*
X-18555000Y4824000D03*
D14*
G04 #@! TO.P,R14,1,1*
X-17005000Y4824000D03*
D11*
G04 #@! TD.P*
G04 #@! TO.C,C47*
G04 #@! TO.CVal,4.7μF*
G04 #@! TO.CFtp,CAPC1005 (0402)*
G04 #@! TO.CRot,90.0*
X-3500000Y1125000D03*
D12*
X-3750000Y1625000D02*
X-3750000Y625000D01*
X-3250000Y625000D01*
X-3250000Y1625000D01*
X-3750000Y1625000D01*
D13*
X-3900000Y1875000D02*
X-3900000Y375000D01*
X-3100000Y375000D01*
X-3100000Y1875000D01*
X-3900000Y1875000D01*
D14*
G04 #@! TO.P,C47,1,1*
X-3500000Y1525000D03*
D15*
G04 #@! TO.P,C47,2,2*
X-3500000Y725000D03*
D11*
G04 #@! TD.P*
G04 #@! TO.C,C91*
G04 #@! TO.CVal,470nF*
G04 #@! TO.CRot,-270.0*
X12300000Y-7300000D03*
D12*
X12050000Y-6800000D02*
X12050000Y-7800000D01*
X12550000Y-7800000D01*
X12550000Y-6800000D01*
X12050000Y-6800000D01*
D13*
X11900000Y-6550000D02*
X11900000Y-8050000D01*
X12700000Y-8050000D01*
X12700000Y-6550000D01*
X11900000Y-6550000D01*
D14*
G04 #@! TO.P,C91,1,1*
X12300000Y-6900000D03*
D15*
G04 #@! TO.P,C91,2,2*
X12300000Y-7700000D03*
D11*
G04 #@! TD.P*
G04 #@! TO.C,C92*
X13200000Y-7300000D03*
D12*
X12950000Y-6800000D02*
X12950000Y-7800000D01*
X13450000Y-7800000D01*
X13450000Y-6800000D01*
X12950000Y-6800000D01*
D13*
X12800000Y-6550000D02*
X12800000Y-8050000D01*
X13600000Y-8050000D01*
X13600000Y-6550000D01*
X12800000Y-6550000D01*
D14*
G04 #@! TO.P,C92,1,1*
X13200000Y-6900000D03*
D15*
G04 #@! TO.P,C92,2,2*
X13200000Y-7700000D03*
D11*
G04 #@! TD.P*
G04 #@! TO.C,C54*
G04 #@! TO.CRot,270.0*
X-8470000Y10907000D03*
D12*
X-8220000Y10407000D02*
X-8220000Y11407000D01*
X-8720000Y11407000D01*
X-8720000Y10407000D01*
X-8220000Y10407000D01*
D13*
X-8070000Y10157000D02*
X-8070000Y11657000D01*
X-8870000Y11657000D01*
X-8870000Y10157000D01*
X-8070000Y10157000D01*
D14*
G04 #@! TO.P,C54,1,1*
X-8470000Y10507000D03*
D15*
G04 #@! TO.P,C54,2,2*
X-8470000Y11307000D03*
D11*
G04 #@! TD.P*
G04 #@! TO.C,R4*
G04 #@! TO.CVal,576kΩ*
G04 #@! TO.CFtp,RESC1608 (0603)*
X-18560000Y-4830000D03*
D12*
X-18160000Y-5630000D02*
X-18160000Y-4030000D01*
X-18960000Y-4030000D01*
X-18960000Y-5630000D01*
X-18160000Y-5630000D01*
D13*
X-17910000Y-6230000D02*
X-17910000Y-3430000D01*
X-19210000Y-3430000D01*
X-19210000Y-6230000D01*
X-17910000Y-6230000D01*
D15*
G04 #@! TO.P,R4,2,2*
X-18560000Y-4055000D03*
D14*
G04 #@! TO.P,R4,1,1*
X-18560000Y-5605000D03*
D11*
G04 #@! TD.P*
G04 #@! TO.C,R15*
G04 #@! TO.CVal,10kΩ*
G04 #@! TO.CFtp,RESC0402 (01005)*
G04 #@! TO.CRot,-90.0*
X-3400000Y6200000D03*
D12*
X-3300000Y6000000D02*
X-3300000Y6400000D01*
X-3500000Y6400000D01*
X-3500000Y6000000D01*
X-3300000Y6000000D01*
D13*
X-3150000Y5750000D02*
X-3150000Y6650000D01*
X-3650000Y6650000D01*
X-3650000Y5750000D01*
X-3150000Y5750000D01*
D14*
G04 #@! TO.P,R15,1,1*
X-3400000Y6000000D03*
D15*
G04 #@! TO.P,R15,2,2*
X-3400000Y6400000D03*
D11*
G04 #@! TD.P*
G04 #@! TO.C,C14*
G04 #@! TO.CVal,10nF*
G04 #@! TO.CFtp,CAPC1005 (0402)*
G04 #@! TO.CRot,90.0*
X-14000000Y-10200000D03*
D12*
X-14250000Y-9700000D02*
X-14250000Y-10700000D01*
X-13750000Y-10700000D01*
X-13750000Y-9700000D01*
X-14250000Y-9700000D01*
D13*
X-14400000Y-9450000D02*
X-14400000Y-10950000D01*
X-13600000Y-10950000D01*
X-13600000Y-9450000D01*
X-14400000Y-9450000D01*
D14*
G04 #@! TO.P,C14,1,1*
X-14000000Y-9800000D03*
D15*
G04 #@! TO.P,C14,2,2*
X-14000000Y-10600000D03*
D11*
G04 #@! TD.P*
G04 #@! TO.C,C4*
G04 #@! TO.CVal,470nF*
X-1476000Y3100000D03*
D12*
X-1726000Y3600000D02*
X-1726000Y2600000D01*
X-1226000Y2600000D01*
X-1226000Y3600000D01*
X-1726000Y3600000D01*
D13*
X-1876000Y3850000D02*
X-1876000Y2350000D01*
X-1076000Y2350000D01*
X-1076000Y3850000D01*
X-1876000Y3850000D01*
D14*
G04 #@! TO.P,C4,1,1*
X-1476000Y3500000D03*
D15*
G04 #@! TO.P,C4,2,2*
X-1476000Y2700000D03*
D11*
G04 #@! TD.P*
G04 #@! TO.C,C72*
G04 #@! TO.CRot,180.0*
X-101000Y-3476000D03*
D12*
X-601000Y-3726000D02*
X399000Y-3726000D01*
X399000Y-3226000D01*
X-601000Y-3226000D01*
X-601000Y-3726000D01*
D13*
X-851000Y-3876000D02*
X649000Y-3876000D01*
X649000Y-3076000D01*
X-851000Y-3076000D01*
X-851000Y-3876000D01*
D14*
G04 #@! TO.P,C72,1,1*
X-501000Y-3476000D03*
D15*
G04 #@! TO.P,C72,2,2*
X299000Y-3476000D03*
D11*
G04 #@! TD.P*
G04 #@! TO.C,R7*
G04 #@! TO.CVal,0Ω*
G04 #@! TO.CFtp,RESC1608 (0603)*
G04 #@! TO.CRot,270.0*
X-12735000Y-10400000D03*
D12*
X-12335000Y-11200000D02*
X-12335000Y-9600000D01*
X-13135000Y-9600000D01*
X-13135000Y-11200000D01*
X-12335000Y-11200000D01*
D13*
X-12085000Y-11800000D02*
X-12085000Y-9000000D01*
X-13385000Y-9000000D01*
X-13385000Y-11800000D01*
X-12085000Y-11800000D01*
D15*
G04 #@! TO.P,R7,2,2*
X-12735000Y-9625000D03*
D14*
G04 #@! TO.P,R7,1,1*
X-12735000Y-11175000D03*
D11*
G04 #@! TD.P*
G04 #@! TO.C,C22*
G04 #@! TO.CVal,56pF*
G04 #@! TO.CFtp,CAPC1608 (0603)*
G04 #@! TO.CRot,180.0*
X-17795000Y6385000D03*
D12*
X-18595000Y5985000D02*
X-16995000Y5985000D01*
X-16995000Y6785000D01*
X-18595000Y6785000D01*
X-18595000Y5985000D01*
D13*
X-19195000Y5735000D02*
X-16395000Y5735000D01*
X-16395000Y7035000D01*
X-19195000Y7035000D01*
X-19195000Y5735000D01*
D15*
G04 #@! TO.P,C22,2,2*
X-17070000Y6385000D03*
D14*
G04 #@! TO.P,C22,1,1*
X-18520000Y6385000D03*
D11*
G04 #@! TD.P*
G04 #@! TO.C,C102*
G04 #@! TO.CVal,4.7μF*
G04 #@! TO.CFtp,CAPC1005 (0402)*
G04 #@! TO.CRot,90.0*
X-4000000Y14300000D03*
D12*
X-4250000Y14800000D02*
X-4250000Y13800000D01*
X-3750000Y13800000D01*
X-3750000Y14800000D01*
X-4250000Y14800000D01*
D13*
X-4400000Y15050000D02*
X-4400000Y13550000D01*
X-3600000Y13550000D01*
X-3600000Y15050000D01*
X-4400000Y15050000D01*
D14*
G04 #@! TO.P,C102,1,1*
X-4000000Y14700000D03*
D15*
G04 #@! TO.P,C102,2,2*
X-4000000Y13900000D03*
D11*
G04 #@! TD.P*
G04 #@! TO.C,C37*
G04 #@! TO.CVal,22nF*
G04 #@! TO.CRot,-90.0*
X-14200000Y2300000D03*
D12*
X-13950000Y1800000D02*
X-13950000Y2800000D01*
X-14450000Y2800000D01*
X-14450000Y1800000D01*
X-13950000Y1800000D01*
D13*
X-13800000Y1550000D02*
X-13800000Y3050000D01*
X-14600000Y3050000D01*
X-14600000Y1550000D01*
X-13800000Y1550000D01*
D14*
G04 #@! TO.P,C37,1,1*
X-14200000Y1900000D03*
D15*
G04 #@! TO.P,C37,2,2*
X-14200000Y2700000D03*
D11*
G04 #@! TD.P*
G04 #@! TO.C,C94*
G04 #@! TO.CVal,4.7μF*
G04 #@! TO.CRot,0.0*
X12100000Y-12475000D03*
D12*
X12600000Y-12225000D02*
X11600000Y-12225000D01*
X11600000Y-12725000D01*
X12600000Y-12725000D01*
X12600000Y-12225000D01*
D13*
X12850000Y-12075000D02*
X11350000Y-12075000D01*
X11350000Y-12875000D01*
X12850000Y-12875000D01*
X12850000Y-12075000D01*
D14*
G04 #@! TO.P,C94,1,1*
X12500000Y-12475000D03*
D15*
G04 #@! TO.P,C94,2,2*
X11700000Y-12475000D03*
D11*
G04 #@! TD.P*
G04 #@! TO.C,R11*
G04 #@! TO.CVal,59kΩ*
G04 #@! TO.CFtp,RESC1608 (0603)*
X-16173000Y-11056000D03*
D12*
X-15373000Y-10656000D02*
X-16973000Y-10656000D01*
X-16973000Y-11456000D01*
X-15373000Y-11456000D01*
X-15373000Y-10656000D01*
D13*
X-14773000Y-10406000D02*
X-17573000Y-10406000D01*
X-17573000Y-11706000D01*
X-14773000Y-11706000D01*
X-14773000Y-10406000D01*
D15*
G04 #@! TO.P,R11,2,2*
X-16948000Y-11056000D03*
D14*
G04 #@! TO.P,R11,1,1*
X-15398000Y-11056000D03*
D11*
G04 #@! TD.P*
G04 #@! TO.C,R28*
G04 #@! TO.CVal,4.7kΩ*
G04 #@! TO.CFtp,RESC0402 (01005)*
X-2618000Y-14538000D03*
D12*
X-2418000Y-14438000D02*
X-2818000Y-14438000D01*
X-2818000Y-14638000D01*
X-2418000Y-14638000D01*
X-2418000Y-14438000D01*
D13*
X-2168000Y-14288000D02*
X-3068000Y-14288000D01*
X-3068000Y-14788000D01*
X-2168000Y-14788000D01*
X-2168000Y-14288000D01*
D14*
G04 #@! TO.P,R28,1,1*
X-2418000Y-14538000D03*
D15*
G04 #@! TO.P,R28,2,2*
X-2818000Y-14538000D03*
D11*
G04 #@! TD.P*
G04 #@! TO.C,C87*
G04 #@! TO.CVal,4.7μF*
G04 #@! TO.CFtp,CAPC1005 (0402)*
G04 #@! TO.CRot,-270.0*
X14100000Y-5700000D03*
D12*
X13850000Y-5200000D02*
X13850000Y-6200000D01*
X14350000Y-6200000D01*
X14350000Y-5200000D01*
X13850000Y-5200000D01*
D13*
X13700000Y-4950000D02*
X13700000Y-6450000D01*
X14500000Y-6450000D01*
X14500000Y-4950000D01*
X13700000Y-4950000D01*
D14*
G04 #@! TO.P,C87,1,1*
X14100000Y-5300000D03*
D15*
G04 #@! TO.P,C87,2,2*
X14100000Y-6100000D03*
D11*
G04 #@! TD.P*
G04 #@! TO.C,C36*
G04 #@! TO.CVal,100nF*
G04 #@! TO.CFtp,CAPC1608 (0603)*
G04 #@! TO.CRot,90.0*
X-19670000Y-10802972D03*
D12*
X-20070000Y-10002972D02*
X-20070000Y-11602972D01*
X-19270000Y-11602972D01*
X-19270000Y-10002972D01*
X-20070000Y-10002972D01*
D13*
X-20320000Y-9402972D02*
X-20320000Y-12202972D01*
X-19020000Y-12202972D01*
X-19020000Y-9402972D01*
X-20320000Y-9402972D01*
D15*
G04 #@! TO.P,C36,2,2*
X-19670000Y-11527972D03*
D14*
G04 #@! TO.P,C36,1,1*
X-19670000Y-10077972D03*
D11*
G04 #@! TD.P*
G04 #@! TO.C,C34*
G04 #@! TO.CVal,47μF*
G04 #@! TO.CFtp,CAPC2012 (0805)*
X-21270000Y-11003000D03*
D12*
X-21895000Y-10003000D02*
X-21895000Y-12003000D01*
X-20645000Y-12003000D01*
X-20645000Y-10003000D01*
X-21895000Y-10003000D01*
D13*
X-22145000Y-9403000D02*
X-22145000Y-12603000D01*
X-20395000Y-12603000D01*
X-20395000Y-9403000D01*
X-22145000Y-9403000D01*
D14*
G04 #@! TO.P,C34,1,1*
X-21270000Y-10128000D03*
D15*
G04 #@! TO.P,C34,2,2*
X-21270000Y-11878000D03*
D11*
G04 #@! TD.P*
G04 #@! TO.C,C15*
G04 #@! TO.CVal,100nF*
G04 #@! TO.CFtp,CAPC1608 (0603)*
G04 #@! TO.CRot,270.0*
X-4200000Y-6400000D03*
D12*
X-3800000Y-7200000D02*
X-3800000Y-5600000D01*
X-4600000Y-5600000D01*
X-4600000Y-7200000D01*
X-3800000Y-7200000D01*
D13*
X-3550000Y-7800000D02*
X-3550000Y-5000000D01*
X-4850000Y-5000000D01*
X-4850000Y-7800000D01*
X-3550000Y-7800000D01*
D15*
G04 #@! TO.P,C15,2,2*
X-4200000Y-5675000D03*
D14*
G04 #@! TO.P,C15,1,1*
X-4200000Y-7125000D03*
D11*
G04 #@! TD.P*
G04 #@! TO.C,C65*
G04 #@! TO.CVal,470nF*
G04 #@! TO.CFtp,CAPC1005 (0402)*
G04 #@! TO.CRot,90.0*
X5200000Y8027000D03*
D12*
X4950000Y8527000D02*
X4950000Y7527000D01*
X5450000Y7527000D01*
X5450000Y8527000D01*
X4950000Y8527000D01*
D13*
X4800000Y8777000D02*
X4800000Y7277000D01*
X5600000Y7277000D01*
X5600000Y8777000D01*
X4800000Y8777000D01*
D14*
G04 #@! TO.P,C65,1,1*
X5200000Y8427000D03*
D15*
G04 #@! TO.P,C65,2,2*
X5200000Y7627000D03*
D11*
G04 #@! TD.P*
G04 #@! TO.C,C25*
G04 #@! TO.CVal,47μF*
G04 #@! TO.CFtp,CAPC2012 (0805)*
X-4500000Y11500000D03*
D12*
X-5125000Y12500000D02*
X-5125000Y10500000D01*
X-3875000Y10500000D01*
X-3875000Y12500000D01*
X-5125000Y12500000D01*
D13*
X-5375000Y13100000D02*
X-5375000Y9900000D01*
X-3625000Y9900000D01*
X-3625000Y13100000D01*
X-5375000Y13100000D01*
D14*
G04 #@! TO.P,C25,1,1*
X-4500000Y12375000D03*
D15*
G04 #@! TO.P,C25,2,2*
X-4500000Y10625000D03*
D11*
G04 #@! TD.P*
G04 #@! TO.C,C21*
G04 #@! TO.CVal,100nF*
G04 #@! TO.CFtp,CAPC1608 (0603)*
G04 #@! TO.CRot,270.0*
X-5600000Y-1800000D03*
D12*
X-5200000Y-2600000D02*
X-5200000Y-1000000D01*
X-6000000Y-1000000D01*
X-6000000Y-2600000D01*
X-5200000Y-2600000D01*
D13*
X-4950000Y-3200000D02*
X-4950000Y-400000D01*
X-6250000Y-400000D01*
X-6250000Y-3200000D01*
X-4950000Y-3200000D01*
D15*
G04 #@! TO.P,C21,2,2*
X-5600000Y-1075000D03*
D14*
G04 #@! TO.P,C21,1,1*
X-5600000Y-2525000D03*
D11*
G04 #@! TD.P*
G04 #@! TO.C,C84*
G04 #@! TO.CVal,4.7μF*
G04 #@! TO.CFtp,CAPC1005 (0402)*
G04 #@! TO.CRot,-270.0*
X11400000Y-5700000D03*
D12*
X11150000Y-5200000D02*
X11150000Y-6200000D01*
X11650000Y-6200000D01*
X11650000Y-5200000D01*
X11150000Y-5200000D01*
D13*
X11000000Y-4950000D02*
X11000000Y-6450000D01*
X11800000Y-6450000D01*
X11800000Y-4950000D01*
X11000000Y-4950000D01*
D14*
G04 #@! TO.P,C84,1,1*
X11400000Y-5300000D03*
D15*
G04 #@! TO.P,C84,2,2*
X11400000Y-6100000D03*
D11*
G04 #@! TD.P*
G04 #@! TO.C,R17*
G04 #@! TO.CVal,10kΩ*
G04 #@! TO.CFtp,RESC0402 (01005)*
G04 #@! TO.CRot,180.0*
X-7470000Y6490000D03*
D12*
X-7670000Y6390000D02*
X-7270000Y6390000D01*
X-7270000Y6590000D01*
X-7670000Y6590000D01*
X-7670000Y6390000D01*
D13*
X-7920000Y6240000D02*
X-7020000Y6240000D01*
X-7020000Y6740000D01*
X-7920000Y6740000D01*
X-7920000Y6240000D01*
D14*
G04 #@! TO.P,R17,1,1*
X-7670000Y6490000D03*
D15*
G04 #@! TO.P,R17,2,2*
X-7270000Y6490000D03*
D11*
G04 #@! TD.P*
G04 #@! TO.C,C23*
G04 #@! TO.CVal,160pF*
G04 #@! TO.CFtp,CAPC1005 (0402)*
G04 #@! TO.CRot,0.0*
X-15895000Y1975000D03*
D12*
X-15395000Y2225000D02*
X-16395000Y2225000D01*
X-16395000Y1725000D01*
X-15395000Y1725000D01*
X-15395000Y2225000D01*
D13*
X-15145000Y2375000D02*
X-16645000Y2375000D01*
X-16645000Y1575000D01*
X-15145000Y1575000D01*
X-15145000Y2375000D01*
D14*
G04 #@! TO.P,C23,1,1*
X-15495000Y1975000D03*
D15*
G04 #@! TO.P,C23,2,2*
X-16295000Y1975000D03*
D11*
G04 #@! TD.P*
G04 #@! TO.C,C100*
G04 #@! TO.CVal,4.7μF*
G04 #@! TO.CRot,90.0*
X-6000000Y14300000D03*
D12*
X-6250000Y14800000D02*
X-6250000Y13800000D01*
X-5750000Y13800000D01*
X-5750000Y14800000D01*
X-6250000Y14800000D01*
D13*
X-6400000Y15050000D02*
X-6400000Y13550000D01*
X-5600000Y13550000D01*
X-5600000Y15050000D01*
X-6400000Y15050000D01*
D14*
G04 #@! TO.P,C100,1,1*
X-6000000Y14700000D03*
D15*
G04 #@! TO.P,C100,2,2*
X-6000000Y13900000D03*
D11*
G04 #@! TD.P*
G04 #@! TO.C,C41*
G04 #@! TO.CVal,470nF*
G04 #@! TO.CRot,0.0*
X-3900000Y-475000D03*
D12*
X-3400000Y-225000D02*
X-4400000Y-225000D01*
X-4400000Y-725000D01*
X-3400000Y-725000D01*
X-3400000Y-225000D01*
D13*
X-3150000Y-75000D02*
X-4650000Y-75000D01*
X-4650000Y-875000D01*
X-3150000Y-875000D01*
X-3150000Y-75000D01*
D14*
G04 #@! TO.P,C41,1,1*
X-3500000Y-475000D03*
D15*
G04 #@! TO.P,C41,2,2*
X-4300000Y-475000D03*
D11*
G04 #@! TD.P*
G04 #@! TO.C,R3*
G04 #@! TO.CVal,4.7kΩ*
G04 #@! TO.CFtp,RESC1608 (0603)*
G04 #@! TO.CRot,90.0*
X-19934000Y-4830000D03*
D12*
X-20334000Y-4030000D02*
X-20334000Y-5630000D01*
X-19534000Y-5630000D01*
X-19534000Y-4030000D01*
X-20334000Y-4030000D01*
D13*
X-20584000Y-3430000D02*
X-20584000Y-6230000D01*
X-19284000Y-6230000D01*
X-19284000Y-3430000D01*
X-20584000Y-3430000D01*
D15*
G04 #@! TO.P,R3,2,2*
X-19934000Y-5605000D03*
D14*
G04 #@! TO.P,R3,1,1*
X-19934000Y-4055000D03*
D11*
G04 #@! TD.P*
G04 #@! TO.C,C82*
G04 #@! TO.CVal,4.7μF*
G04 #@! TO.CFtp,CAPC1005 (0402)*
G04 #@! TO.CRot,-270.0*
X13200000Y-5700000D03*
D12*
X12950000Y-5200000D02*
X12950000Y-6200000D01*
X13450000Y-6200000D01*
X13450000Y-5200000D01*
X12950000Y-5200000D01*
D13*
X12800000Y-4950000D02*
X12800000Y-6450000D01*
X13600000Y-6450000D01*
X13600000Y-4950000D01*
X12800000Y-4950000D01*
D14*
G04 #@! TO.P,C82,1,1*
X13200000Y-5300000D03*
D15*
G04 #@! TO.P,C82,2,2*
X13200000Y-6100000D03*
D11*
G04 #@! TD.P*
G04 #@! TO.C,R12*
G04 #@! TO.CVal,88.7kΩ*
G04 #@! TO.CFtp,RESC1608 (0603)*
G04 #@! TO.CRot,180.0*
X-16173000Y-12387000D03*
D12*
X-16973000Y-12787000D02*
X-15373000Y-12787000D01*
X-15373000Y-11987000D01*
X-16973000Y-11987000D01*
X-16973000Y-12787000D01*
D13*
X-17573000Y-13037000D02*
X-14773000Y-13037000D01*
X-14773000Y-11737000D01*
X-17573000Y-11737000D01*
X-17573000Y-13037000D01*
D15*
G04 #@! TO.P,R12,2,2*
X-15398000Y-12387000D03*
D14*
G04 #@! TO.P,R12,1,1*
X-16948000Y-12387000D03*
D11*
G04 #@! TD.P*
G04 #@! TO.C,C9*
G04 #@! TO.CVal,2.2μF*
G04 #@! TO.CFtp,CAPC1608 (0603)*
G04 #@! TO.CRot,90.0*
X-8400000Y-4800000D03*
D12*
X-8800000Y-4000000D02*
X-8800000Y-5600000D01*
X-8000000Y-5600000D01*
X-8000000Y-4000000D01*
X-8800000Y-4000000D01*
D13*
X-9050000Y-3400000D02*
X-9050000Y-6200000D01*
X-7750000Y-6200000D01*
X-7750000Y-3400000D01*
X-9050000Y-3400000D01*
D15*
G04 #@! TO.P,C9,2,2*
X-8400000Y-5525000D03*
D14*
G04 #@! TO.P,C9,1,1*
X-8400000Y-4075000D03*
D11*
G04 #@! TD.P*
G04 #@! TO.C,C98*
G04 #@! TO.CVal,470nF*
G04 #@! TO.CFtp,CAPC1005 (0402)*
X-2500000Y-1100000D03*
D12*
X-2750000Y-600000D02*
X-2750000Y-1600000D01*
X-2250000Y-1600000D01*
X-2250000Y-600000D01*
X-2750000Y-600000D01*
D13*
X-2900000Y-350000D02*
X-2900000Y-1850000D01*
X-2100000Y-1850000D01*
X-2100000Y-350000D01*
X-2900000Y-350000D01*
D14*
G04 #@! TO.P,C98,1,1*
X-2500000Y-700000D03*
D15*
G04 #@! TO.P,C98,2,2*
X-2500000Y-1500000D03*
D11*
G04 #@! TD.P*
G04 #@! TO.C,C60*
G04 #@! TO.CVal,4.7μF*
G04 #@! TO.CRot,0.0*
X8100000Y-10472000D03*
D12*
X8600000Y-10222000D02*
X7600000Y-10222000D01*
X7600000Y-10722000D01*
X8600000Y-10722000D01*
X8600000Y-10222000D01*
D13*
X8850000Y-10072000D02*
X7350000Y-10072000D01*
X7350000Y-10872000D01*
X8850000Y-10872000D01*
X8850000Y-10072000D01*
D14*
G04 #@! TO.P,C60,1,1*
X8500000Y-10472000D03*
D15*
G04 #@! TO.P,C60,2,2*
X7700000Y-10472000D03*
D11*
G04 #@! TD.P*
G04 #@! TO.C,C30*
G04 #@! TO.CVal,2.2μF*
G04 #@! TO.CFtp,CAPC1608 (0603)*
X-14813000Y5461000D03*
D12*
X-14013000Y5861000D02*
X-15613000Y5861000D01*
X-15613000Y5061000D01*
X-14013000Y5061000D01*
X-14013000Y5861000D01*
D13*
X-13413000Y6111000D02*
X-16213000Y6111000D01*
X-16213000Y4811000D01*
X-13413000Y4811000D01*
X-13413000Y6111000D01*
D15*
G04 #@! TO.P,C30,2,2*
X-15538000Y5461000D03*
D14*
G04 #@! TO.P,C30,1,1*
X-14088000Y5461000D03*
D11*
G04 #@! TD.P*
G04 #@! TO.C,C31*
G04 #@! TO.CVal,1μF*
G04 #@! TO.CFtp,CAPC1005 (0402)*
X-2217000Y5959000D03*
D12*
X-1717000Y6209000D02*
X-2717000Y6209000D01*
X-2717000Y5709000D01*
X-1717000Y5709000D01*
X-1717000Y6209000D01*
D13*
X-1467000Y6359000D02*
X-2967000Y6359000D01*
X-2967000Y5559000D01*
X-1467000Y5559000D01*
X-1467000Y6359000D01*
D14*
G04 #@! TO.P,C31,1,1*
X-1817000Y5959000D03*
D15*
G04 #@! TO.P,C31,2,2*
X-2617000Y5959000D03*
D11*
G04 #@! TD.P*
G04 #@! TO.C,R5*
G04 #@! TO.CVal,100kΩ*
G04 #@! TO.CFtp,RESC1608 (0603)*
G04 #@! TO.CRot,180.0*
X-6500000Y-3800000D03*
D12*
X-7300000Y-4200000D02*
X-5700000Y-4200000D01*
X-5700000Y-3400000D01*
X-7300000Y-3400000D01*
X-7300000Y-4200000D01*
D13*
X-7900000Y-4450000D02*
X-5100000Y-4450000D01*
X-5100000Y-3150000D01*
X-7900000Y-3150000D01*
X-7900000Y-4450000D01*
D15*
G04 #@! TO.P,R5,2,2*
X-5725000Y-3800000D03*
D14*
G04 #@! TO.P,R5,1,1*
X-7275000Y-3800000D03*
D11*
G04 #@! TD.P*
G04 #@! TO.C,R8*
G04 #@! TO.CVal,0Ω*
G04 #@! TO.CRot,-90.0*
X-17200000Y-4830000D03*
D12*
X-16800000Y-5630000D02*
X-16800000Y-4030000D01*
X-17600000Y-4030000D01*
X-17600000Y-5630000D01*
X-16800000Y-5630000D01*
D13*
X-16550000Y-6230000D02*
X-16550000Y-3430000D01*
X-17850000Y-3430000D01*
X-17850000Y-6230000D01*
X-16550000Y-6230000D01*
D15*
G04 #@! TO.P,R8,2,2*
X-17200000Y-4055000D03*
D14*
G04 #@! TO.P,R8,1,1*
X-17200000Y-5605000D03*
D11*
G04 #@! TD.P*
G04 #@! TO.C,C1*
G04 #@! TO.CVal,470nF*
G04 #@! TO.CFtp,CAPC1005 (0402)*
G04 #@! TO.CRot,90.0*
X-2499000Y2124000D03*
D12*
X-2749000Y2624000D02*
X-2749000Y1624000D01*
X-2249000Y1624000D01*
X-2249000Y2624000D01*
X-2749000Y2624000D01*
D13*
X-2899000Y2874000D02*
X-2899000Y1374000D01*
X-2099000Y1374000D01*
X-2099000Y2874000D01*
X-2899000Y2874000D01*
D14*
G04 #@! TO.P,C1,1,1*
X-2499000Y2524000D03*
D15*
G04 #@! TO.P,C1,2,2*
X-2499000Y1724000D03*
D11*
G04 #@! TD.P*
G04 #@! TO.C,R19*
G04 #@! TO.CVal,309kΩ*
G04 #@! TO.CFtp,RESC1608 (0603)*
G04 #@! TO.CRot,180.0*
X-5728000Y7920000D03*
D12*
X-6528000Y7520000D02*
X-4928000Y7520000D01*
X-4928000Y8320000D01*
X-6528000Y8320000D01*
X-6528000Y7520000D01*
D13*
X-7128000Y7270000D02*
X-4328000Y7270000D01*
X-4328000Y8570000D01*
X-7128000Y8570000D01*
X-7128000Y7270000D01*
D15*
G04 #@! TO.P,R19,2,2*
X-4953000Y7920000D03*
D14*
G04 #@! TO.P,R19,1,1*
X-6503000Y7920000D03*
D11*
G04 #@! TD.P*
G04 #@! TO.C,C2*
G04 #@! TO.CVal,470nF*
G04 #@! TO.CFtp,CAPC1005 (0402)*
G04 #@! TO.CRot,90.0*
X-474000Y4100000D03*
D12*
X-724000Y4600000D02*
X-724000Y3600000D01*
X-224000Y3600000D01*
X-224000Y4600000D01*
X-724000Y4600000D01*
D13*
X-874000Y4850000D02*
X-874000Y3350000D01*
X-74000Y3350000D01*
X-74000Y4850000D01*
X-874000Y4850000D01*
D14*
G04 #@! TO.P,C2,1,1*
X-474000Y4500000D03*
D15*
G04 #@! TO.P,C2,2,2*
X-474000Y3700000D03*
D11*
G04 #@! TD.P*
G04 #@! TO.C,C20*
G04 #@! TO.CVal,100nF*
G04 #@! TO.CFtp,CAPC1608 (0603)*
X-8500000Y-13500000D03*
D12*
X-8900000Y-12700000D02*
X-8900000Y-14300000D01*
X-8100000Y-14300000D01*
X-8100000Y-12700000D01*
X-8900000Y-12700000D01*
D13*
X-9150000Y-12100000D02*
X-9150000Y-14900000D01*
X-7850000Y-14900000D01*
X-7850000Y-12100000D01*
X-9150000Y-12100000D01*
D15*
G04 #@! TO.P,C20,2,2*
X-8500000Y-14225000D03*
D14*
G04 #@! TO.P,C20,1,1*
X-8500000Y-12775000D03*
D11*
G04 #@! TD.P*
G04 #@! TO.C,C69*
G04 #@! TO.CVal,470nF*
G04 #@! TO.CFtp,CAPC1005 (0402)*
G04 #@! TO.CRot,0.0*
X-7893000Y7523000D03*
D12*
X-7393000Y7773000D02*
X-8393000Y7773000D01*
X-8393000Y7273000D01*
X-7393000Y7273000D01*
X-7393000Y7773000D01*
D13*
X-7143000Y7923000D02*
X-8643000Y7923000D01*
X-8643000Y7123000D01*
X-7143000Y7123000D01*
X-7143000Y7923000D01*
D14*
G04 #@! TO.P,C69,1,1*
X-7493000Y7523000D03*
D15*
G04 #@! TO.P,C69,2,2*
X-8293000Y7523000D03*
D11*
G04 #@! TD.P*
G04 #@! TO.C,C16*
G04 #@! TO.CVal,56pF*
G04 #@! TO.CFtp,CAPC1608 (0603)*
G04 #@! TO.CRot,180.0*
X-16102000Y-13714000D03*
D12*
X-16902000Y-14114000D02*
X-15302000Y-14114000D01*
X-15302000Y-13314000D01*
X-16902000Y-13314000D01*
X-16902000Y-14114000D01*
D13*
X-17502000Y-14364000D02*
X-14702000Y-14364000D01*
X-14702000Y-13064000D01*
X-17502000Y-13064000D01*
X-17502000Y-14364000D01*
D15*
G04 #@! TO.P,C16,2,2*
X-15377000Y-13714000D03*
D14*
G04 #@! TO.P,C16,1,1*
X-16827000Y-13714000D03*
D11*
G04 #@! TD.P*
G04 #@! TO.C,C63*
G04 #@! TO.CVal,470nF*
G04 #@! TO.CFtp,CAPC1005 (0402)*
X7900000Y12524000D03*
D12*
X7400000Y12274000D02*
X8400000Y12274000D01*
X8400000Y12774000D01*
X7400000Y12774000D01*
X7400000Y12274000D01*
D13*
X7150000Y12124000D02*
X8650000Y12124000D01*
X8650000Y12924000D01*
X7150000Y12924000D01*
X7150000Y12124000D01*
D14*
G04 #@! TO.P,C63,1,1*
X7500000Y12524000D03*
D15*
G04 #@! TO.P,C63,2,2*
X8300000Y12524000D03*
D11*
G04 #@! TD.P*
G04 #@! TO.C,C39*
G04 #@! TO.CVal,0.1μF*
G04 #@! TO.CFtp,CAPC1608 (0603)*
X10450000Y9124000D03*
D12*
X9650000Y8724000D02*
X11250000Y8724000D01*
X11250000Y9524000D01*
X9650000Y9524000D01*
X9650000Y8724000D01*
D13*
X9050000Y8474000D02*
X11850000Y8474000D01*
X11850000Y9774000D01*
X9050000Y9774000D01*
X9050000Y8474000D01*
D15*
G04 #@! TO.P,C39,2,2*
X11175000Y9124000D03*
D14*
G04 #@! TO.P,C39,1,1*
X9725000Y9124000D03*
D11*
G04 #@! TD.P*
G04 #@! TO.C,C49*
G04 #@! TO.CVal,47μF*
G04 #@! TO.CFtp,CAPC2012 (0805)*
X6700000Y-5476000D03*
D12*
X5700000Y-6101000D02*
X7700000Y-6101000D01*
X7700000Y-4851000D01*
X5700000Y-4851000D01*
X5700000Y-6101000D01*
D13*
X5100000Y-6351000D02*
X8300000Y-6351000D01*
X8300000Y-4601000D01*
X5100000Y-4601000D01*
X5100000Y-6351000D01*
D14*
G04 #@! TO.P,C49,1,1*
X5825000Y-5476000D03*
D15*
G04 #@! TO.P,C49,2,2*
X7575000Y-5476000D03*
D11*
G04 #@! TD.P*
G04 #@! TO.C,C62*
G04 #@! TO.CVal,470nF*
G04 #@! TO.CFtp,CAPC1005 (0402)*
G04 #@! TO.CRot,270.0*
X2500000Y7925000D03*
D12*
X2750000Y7425000D02*
X2750000Y8425000D01*
X2250000Y8425000D01*
X2250000Y7425000D01*
X2750000Y7425000D01*
D13*
X2900000Y7175000D02*
X2900000Y8675000D01*
X2100000Y8675000D01*
X2100000Y7175000D01*
X2900000Y7175000D01*
D14*
G04 #@! TO.P,C62,1,1*
X2500000Y7525000D03*
D15*
G04 #@! TO.P,C62,2,2*
X2500000Y8325000D03*
D11*
G04 #@! TD.P*
G04 #@! TO.C,C46*
G04 #@! TO.CVal,4.7μF*
G04 #@! TO.CRot,90.0*
X-500000Y2124000D03*
D12*
X-750000Y2624000D02*
X-750000Y1624000D01*
X-250000Y1624000D01*
X-250000Y2624000D01*
X-750000Y2624000D01*
D13*
X-900000Y2874000D02*
X-900000Y1374000D01*
X-100000Y1374000D01*
X-100000Y2874000D01*
X-900000Y2874000D01*
D14*
G04 #@! TO.P,C46,1,1*
X-500000Y2524000D03*
D15*
G04 #@! TO.P,C46,2,2*
X-500000Y1724000D03*
D11*
G04 #@! TD.P*
G04 #@! TO.C,C28*
G04 #@! TO.CVal,2.2μF*
G04 #@! TO.CFtp,CAPC1608 (0603)*
G04 #@! TO.CRot,-180.0*
X-6338000Y-5641000D03*
D12*
X-7138000Y-6041000D02*
X-5538000Y-6041000D01*
X-5538000Y-5241000D01*
X-7138000Y-5241000D01*
X-7138000Y-6041000D01*
D13*
X-7738000Y-6291000D02*
X-4938000Y-6291000D01*
X-4938000Y-4991000D01*
X-7738000Y-4991000D01*
X-7738000Y-6291000D01*
D15*
G04 #@! TO.P,C28,2,2*
X-5613000Y-5641000D03*
D14*
G04 #@! TO.P,C28,1,1*
X-7063000Y-5641000D03*
D11*
G04 #@! TD.P*
G04 #@! TO.C,C13*
G04 #@! TO.CVal,470pF*
G04 #@! TO.CFtp,CAPC1005 (0402)*
G04 #@! TO.CRot,180.0*
X-17400000Y-6700000D03*
D12*
X-17900000Y-6950000D02*
X-16900000Y-6950000D01*
X-16900000Y-6450000D01*
X-17900000Y-6450000D01*
X-17900000Y-6950000D01*
D13*
X-18150000Y-7100000D02*
X-16650000Y-7100000D01*
X-16650000Y-6300000D01*
X-18150000Y-6300000D01*
X-18150000Y-7100000D01*
D14*
G04 #@! TO.P,C13,1,1*
X-17800000Y-6700000D03*
D15*
G04 #@! TO.P,C13,2,2*
X-17000000Y-6700000D03*
D11*
G04 #@! TD.P*
G04 #@! TO.C,C79*
G04 #@! TO.CVal,470nF*
G04 #@! TO.CRot,90.0*
X-9618000Y2149000D03*
D12*
X-9868000Y2649000D02*
X-9868000Y1649000D01*
X-9368000Y1649000D01*
X-9368000Y2649000D01*
X-9868000Y2649000D01*
D13*
X-10018000Y2899000D02*
X-10018000Y1399000D01*
X-9218000Y1399000D01*
X-9218000Y2899000D01*
X-10018000Y2899000D01*
D14*
G04 #@! TO.P,C79,1,1*
X-9618000Y2549000D03*
D15*
G04 #@! TO.P,C79,2,2*
X-9618000Y1749000D03*
D11*
G04 #@! TD.P*
G04 #@! TO.C,C64*
G04 #@! TO.CRot,0.0*
X11100000Y10524000D03*
D12*
X11600000Y10774000D02*
X10600000Y10774000D01*
X10600000Y10274000D01*
X11600000Y10274000D01*
X11600000Y10774000D01*
D13*
X11850000Y10924000D02*
X10350000Y10924000D01*
X10350000Y10124000D01*
X11850000Y10124000D01*
X11850000Y10924000D01*
D14*
G04 #@! TO.P,C64,1,1*
X11500000Y10524000D03*
D15*
G04 #@! TO.P,C64,2,2*
X10700000Y10524000D03*
D11*
G04 #@! TD.P*
G04 #@! TO.C,R21*
G04 #@! TO.CVal,10kΩ*
G04 #@! TO.CFtp,RESC1608 (0603)*
X-21025000Y-2650000D03*
D12*
X-20225000Y-2250000D02*
X-21825000Y-2250000D01*
X-21825000Y-3050000D01*
X-20225000Y-3050000D01*
X-20225000Y-2250000D01*
D13*
X-19625000Y-2000000D02*
X-22425000Y-2000000D01*
X-22425000Y-3300000D01*
X-19625000Y-3300000D01*
X-19625000Y-2000000D01*
D15*
G04 #@! TO.P,R21,2,2*
X-21800000Y-2650000D03*
D14*
G04 #@! TO.P,R21,1,1*
X-20250000Y-2650000D03*
D11*
G04 #@! TD.P*
G04 #@! TO.C,R27*
G04 #@! TO.CVal,3\u002C389Ω*
G04 #@! TO.CFtp,RESC2012 (0805)*
G04 #@! TO.CRot,270.0*
X11665000Y6699000D03*
D12*
X12290000Y5699000D02*
X12290000Y7699000D01*
X11040000Y7699000D01*
X11040000Y5699000D01*
X12290000Y5699000D01*
D13*
X12540000Y5099000D02*
X12540000Y8299000D01*
X10790000Y8299000D01*
X10790000Y5099000D01*
X12540000Y5099000D01*
D15*
G04 #@! TO.P,R27,2,2*
X11665000Y7674000D03*
D14*
G04 #@! TO.P,R27,1,1*
X11665000Y5724000D03*
D11*
G04 #@! TD.P*
G04 #@! TO.C,C5*
G04 #@! TO.CVal,470nF*
G04 #@! TO.CFtp,CAPC1005 (0402)*
G04 #@! TO.CRot,180.0*
X-3101000Y3525000D03*
D12*
X-3601000Y3275000D02*
X-2601000Y3275000D01*
X-2601000Y3775000D01*
X-3601000Y3775000D01*
X-3601000Y3275000D01*
D13*
X-3851000Y3125000D02*
X-2351000Y3125000D01*
X-2351000Y3925000D01*
X-3851000Y3925000D01*
X-3851000Y3125000D01*
D14*
G04 #@! TO.P,C5,1,1*
X-3501000Y3525000D03*
D15*
G04 #@! TO.P,C5,2,2*
X-2701000Y3525000D03*
D11*
G04 #@! TD.P*
G04 #@! TO.C,C12*
G04 #@! TO.CVal,62pF*
G04 #@! TO.CRot,270.0*
X-17000000Y-7900000D03*
D12*
X-16750000Y-8400000D02*
X-16750000Y-7400000D01*
X-17250000Y-7400000D01*
X-17250000Y-8400000D01*
X-16750000Y-8400000D01*
D13*
X-16600000Y-8650000D02*
X-16600000Y-7150000D01*
X-17400000Y-7150000D01*
X-17400000Y-8650000D01*
X-16600000Y-8650000D01*
D14*
G04 #@! TO.P,C12,1,1*
X-17000000Y-8300000D03*
D15*
G04 #@! TO.P,C12,2,2*
X-17000000Y-7500000D03*
D11*
G04 #@! TD.P*
G04 #@! TO.C,C8*
G04 #@! TO.CVal,100μF*
G04 #@! TO.CFtp,CAPC2012 (0805)*
G04 #@! TO.CRot,0.0*
X3000000Y5000000D03*
D12*
X4000000Y5625000D02*
X2000000Y5625000D01*
X2000000Y4375000D01*
X4000000Y4375000D01*
X4000000Y5625000D01*
D13*
X4600000Y5875000D02*
X1400000Y5875000D01*
X1400000Y4125000D01*
X4600000Y4125000D01*
X4600000Y5875000D01*
D14*
G04 #@! TO.P,C8,1,1*
X3875000Y5000000D03*
D15*
G04 #@! TO.P,C8,2,2*
X2125000Y5000000D03*
D11*
G04 #@! TD.P*
G04 #@! TO.C,C86*
G04 #@! TO.CVal,4.7μF*
G04 #@! TO.CFtp,CAPC1005 (0402)*
G04 #@! TO.CRot,90.0*
X9600000Y-5700000D03*
D12*
X9350000Y-5200000D02*
X9350000Y-6200000D01*
X9850000Y-6200000D01*
X9850000Y-5200000D01*
X9350000Y-5200000D01*
D13*
X9200000Y-4950000D02*
X9200000Y-6450000D01*
X10000000Y-6450000D01*
X10000000Y-4950000D01*
X9200000Y-4950000D01*
D14*
G04 #@! TO.P,C86,1,1*
X9600000Y-5300000D03*
D15*
G04 #@! TO.P,C86,2,2*
X9600000Y-6100000D03*
D11*
G04 #@! TD.P*
G04 #@! TO.C,C81*
G04 #@! TO.CRot,-270.0*
X15000000Y-7300000D03*
D12*
X14750000Y-6800000D02*
X14750000Y-7800000D01*
X15250000Y-7800000D01*
X15250000Y-6800000D01*
X14750000Y-6800000D01*
D13*
X14600000Y-6550000D02*
X14600000Y-8050000D01*
X15400000Y-8050000D01*
X15400000Y-6550000D01*
X14600000Y-6550000D01*
D14*
G04 #@! TO.P,C81,1,1*
X15000000Y-6900000D03*
D15*
G04 #@! TO.P,C81,2,2*
X15000000Y-7700000D03*
D11*
G04 #@! TD.P*
G04 #@! TO.C,C68*
G04 #@! TO.CVal,470nF*
G04 #@! TO.CRot,180.0*
X-12100000Y12522000D03*
D12*
X-12600000Y12272000D02*
X-11600000Y12272000D01*
X-11600000Y12772000D01*
X-12600000Y12772000D01*
X-12600000Y12272000D01*
D13*
X-12850000Y12122000D02*
X-11350000Y12122000D01*
X-11350000Y12922000D01*
X-12850000Y12922000D01*
X-12850000Y12122000D01*
D14*
G04 #@! TO.P,C68,1,1*
X-12500000Y12522000D03*
D15*
G04 #@! TO.P,C68,2,2*
X-11700000Y12522000D03*
D11*
G04 #@! TD.P*
G04 #@! TO.C,C11*
G04 #@! TO.CVal,180pF*
G04 #@! TO.CFtp,CAPC1608 (0603)*
G04 #@! TO.CRot,270.0*
X-18300000Y-1750000D03*
D12*
X-17900000Y-2550000D02*
X-17900000Y-950000D01*
X-18700000Y-950000D01*
X-18700000Y-2550000D01*
X-17900000Y-2550000D01*
D13*
X-17650000Y-3150000D02*
X-17650000Y-350000D01*
X-18950000Y-350000D01*
X-18950000Y-3150000D01*
X-17650000Y-3150000D01*
D15*
G04 #@! TO.P,C11,2,2*
X-18300000Y-1025000D03*
D14*
G04 #@! TO.P,C11,1,1*
X-18300000Y-2475000D03*
D11*
G04 #@! TD.P*
G04 #@! TO.C,C50*
G04 #@! TO.CVal,4.7μF*
G04 #@! TO.CFtp,CAPC1005 (0402)*
G04 #@! TO.CRot,0.0*
X-10900000Y6524000D03*
D12*
X-10400000Y6774000D02*
X-11400000Y6774000D01*
X-11400000Y6274000D01*
X-10400000Y6274000D01*
X-10400000Y6774000D01*
D13*
X-10150000Y6924000D02*
X-11650000Y6924000D01*
X-11650000Y6124000D01*
X-10150000Y6124000D01*
X-10150000Y6924000D01*
D14*
G04 #@! TO.P,C50,1,1*
X-10500000Y6524000D03*
D15*
G04 #@! TO.P,C50,2,2*
X-11300000Y6524000D03*
D11*
G04 #@! TD.P*
G04 #@! TO.C,C70*
G04 #@! TO.CRot,180.0*
X-7700000Y2500000D03*
D12*
X-8200000Y2250000D02*
X-7200000Y2250000D01*
X-7200000Y2750000D01*
X-8200000Y2750000D01*
X-8200000Y2250000D01*
D13*
X-8450000Y2100000D02*
X-6950000Y2100000D01*
X-6950000Y2900000D01*
X-8450000Y2900000D01*
X-8450000Y2100000D01*
D14*
G04 #@! TO.P,C70,1,1*
X-8100000Y2500000D03*
D15*
G04 #@! TO.P,C70,2,2*
X-7300000Y2500000D03*
D11*
G04 #@! TD.P*
G04 #@! TO.C,C38*
G04 #@! TO.CVal,0.1μF*
X8492000Y4812000D03*
D12*
X7992000Y4562000D02*
X8992000Y4562000D01*
X8992000Y5062000D01*
X7992000Y5062000D01*
X7992000Y4562000D01*
D13*
X7742000Y4412000D02*
X9242000Y4412000D01*
X9242000Y5212000D01*
X7742000Y5212000D01*
X7742000Y4412000D01*
D14*
G04 #@! TO.P,C38,1,1*
X8092000Y4812000D03*
D15*
G04 #@! TO.P,C38,2,2*
X8892000Y4812000D03*
D11*
G04 #@! TD.P*
G04 #@! TO.C,R16*
G04 #@! TO.CVal,10kΩ*
G04 #@! TO.CFtp,RESC0402 (01005)*
G04 #@! TO.CRot,0.0*
X-3100000Y7600000D03*
D12*
X-2900000Y7700000D02*
X-3300000Y7700000D01*
X-3300000Y7500000D01*
X-2900000Y7500000D01*
X-2900000Y7700000D01*
D13*
X-2650000Y7850000D02*
X-3550000Y7850000D01*
X-3550000Y7350000D01*
X-2650000Y7350000D01*
X-2650000Y7850000D01*
D14*
G04 #@! TO.P,R16,1,1*
X-2900000Y7600000D03*
D15*
G04 #@! TO.P,R16,2,2*
X-3300000Y7600000D03*
D11*
G04 #@! TD.P*
G04 #@! TO.C,C93*
G04 #@! TO.CVal,470nF*
G04 #@! TO.CFtp,CAPC1005 (0402)*
G04 #@! TO.CRot,90.0*
X14100000Y-7300000D03*
D12*
X13850000Y-6800000D02*
X13850000Y-7800000D01*
X14350000Y-7800000D01*
X14350000Y-6800000D01*
X13850000Y-6800000D01*
D13*
X13700000Y-6550000D02*
X13700000Y-8050000D01*
X14500000Y-8050000D01*
X14500000Y-6550000D01*
X13700000Y-6550000D01*
D14*
G04 #@! TO.P,C93,1,1*
X14100000Y-6900000D03*
D15*
G04 #@! TO.P,C93,2,2*
X14100000Y-7700000D03*
D11*
G04 #@! TD.P*
G04 #@! TO.C,C77*
G04 #@! TO.CRot,0.0*
X-4900000Y524000D03*
D12*
X-4400000Y774000D02*
X-5400000Y774000D01*
X-5400000Y274000D01*
X-4400000Y274000D01*
X-4400000Y774000D01*
D13*
X-4150000Y924000D02*
X-5650000Y924000D01*
X-5650000Y124000D01*
X-4150000Y124000D01*
X-4150000Y924000D01*
D14*
G04 #@! TO.P,C77,1,1*
X-4500000Y524000D03*
D15*
G04 #@! TO.P,C77,2,2*
X-5300000Y524000D03*
D11*
G04 #@! TD.P*
G04 #@! TO.C,C95*
G04 #@! TO.CVal,100nF*
G04 #@! TO.CFtp,CAPC1608 (0603)*
G04 #@! TO.CRot,90.0*
X-21400000Y-4830000D03*
D12*
X-21800000Y-4030000D02*
X-21800000Y-5630000D01*
X-21000000Y-5630000D01*
X-21000000Y-4030000D01*
X-21800000Y-4030000D01*
D13*
X-22050000Y-3430000D02*
X-22050000Y-6230000D01*
X-20750000Y-6230000D01*
X-20750000Y-3430000D01*
X-22050000Y-3430000D01*
D15*
G04 #@! TO.P,C95,2,2*
X-21400000Y-5555000D03*
D14*
G04 #@! TO.P,C95,1,1*
X-21400000Y-4105000D03*
D11*
G04 #@! TD.P*
G04 #@! TO.C,C76*
G04 #@! TO.CVal,470nF*
G04 #@! TO.CFtp,CAPC1005 (0402)*
G04 #@! TO.CRot,180.0*
X-4100000Y-1475000D03*
D12*
X-4600000Y-1725000D02*
X-3600000Y-1725000D01*
X-3600000Y-1225000D01*
X-4600000Y-1225000D01*
X-4600000Y-1725000D01*
D13*
X-4850000Y-1875000D02*
X-3350000Y-1875000D01*
X-3350000Y-1075000D01*
X-4850000Y-1075000D01*
X-4850000Y-1875000D01*
D14*
G04 #@! TO.P,C76,1,1*
X-4500000Y-1475000D03*
D15*
G04 #@! TO.P,C76,2,2*
X-3700000Y-1475000D03*
D11*
G04 #@! TD.P*
G04 #@! TO.C,C27*
G04 #@! TO.CVal,2.2μF*
G04 #@! TO.CFtp,CAPC1608 (0603)*
X-7668000Y-2489000D03*
D12*
X-8468000Y-2889000D02*
X-6868000Y-2889000D01*
X-6868000Y-2089000D01*
X-8468000Y-2089000D01*
X-8468000Y-2889000D01*
D13*
X-9068000Y-3139000D02*
X-6268000Y-3139000D01*
X-6268000Y-1839000D01*
X-9068000Y-1839000D01*
X-9068000Y-3139000D01*
D15*
G04 #@! TO.P,C27,2,2*
X-6943000Y-2489000D03*
D14*
G04 #@! TO.P,C27,1,1*
X-8393000Y-2489000D03*
D11*
G04 #@! TD.P*
G04 #@! TO.C,C3*
G04 #@! TO.CVal,470nF*
G04 #@! TO.CFtp,CAPC1005 (0402)*
X-2101000Y4525000D03*
D12*
X-2601000Y4275000D02*
X-1601000Y4275000D01*
X-1601000Y4775000D01*
X-2601000Y4775000D01*
X-2601000Y4275000D01*
D13*
X-2851000Y4125000D02*
X-1351000Y4125000D01*
X-1351000Y4925000D01*
X-2851000Y4925000D01*
X-2851000Y4125000D01*
D14*
G04 #@! TO.P,C3,1,1*
X-2501000Y4525000D03*
D15*
G04 #@! TO.P,C3,2,2*
X-1701000Y4525000D03*
D11*
G04 #@! TD.P*
G04 #@! TO.C,C52*
G04 #@! TO.CRot,270.0*
X5501000Y-11076000D03*
D12*
X5751000Y-11576000D02*
X5751000Y-10576000D01*
X5251000Y-10576000D01*
X5251000Y-11576000D01*
X5751000Y-11576000D01*
D13*
X5901000Y-11826000D02*
X5901000Y-10326000D01*
X5101000Y-10326000D01*
X5101000Y-11826000D01*
X5901000Y-11826000D01*
D14*
G04 #@! TO.P,C52,1,1*
X5501000Y-11476000D03*
D15*
G04 #@! TO.P,C52,2,2*
X5501000Y-10676000D03*
D11*
G04 #@! TD.P*
G04 #@! TO.C,C58*
G04 #@! TO.CVal,4.7μF*
G04 #@! TO.CRot,90.0*
X5809000Y2164000D03*
D12*
X5559000Y2664000D02*
X5559000Y1664000D01*
X6059000Y1664000D01*
X6059000Y2664000D01*
X5559000Y2664000D01*
D13*
X5409000Y2914000D02*
X5409000Y1414000D01*
X6209000Y1414000D01*
X6209000Y2914000D01*
X5409000Y2914000D01*
D14*
G04 #@! TO.P,C58,1,1*
X5809000Y2564000D03*
D15*
G04 #@! TO.P,C58,2,2*
X5809000Y1764000D03*
D11*
G04 #@! TD.P*
G04 #@! TO.C,C19*
G04 #@! TO.CVal,47μF*
G04 #@! TO.CFtp,CAPC2012 (0805)*
X-10500000Y-13500000D03*
D12*
X-11125000Y-12500000D02*
X-11125000Y-14500000D01*
X-9875000Y-14500000D01*
X-9875000Y-12500000D01*
X-11125000Y-12500000D01*
D13*
X-11375000Y-11900000D02*
X-11375000Y-15100000D01*
X-9625000Y-15100000D01*
X-9625000Y-11900000D01*
X-11375000Y-11900000D01*
D14*
G04 #@! TO.P,C19,1,1*
X-10500000Y-12625000D03*
D15*
G04 #@! TO.P,C19,2,2*
X-10500000Y-14375000D03*
D11*
G04 #@! TD.P*
G04 #@! TO.C,C17*
G04 #@! TO.CVal,13pF*
G04 #@! TO.CFtp,CAPC1608 (0603)*
G04 #@! TO.CRot,0.0*
X-16202000Y-9723000D03*
D12*
X-15402000Y-9323000D02*
X-17002000Y-9323000D01*
X-17002000Y-10123000D01*
X-15402000Y-10123000D01*
X-15402000Y-9323000D01*
D13*
X-14802000Y-9073000D02*
X-17602000Y-9073000D01*
X-17602000Y-10373000D01*
X-14802000Y-10373000D01*
X-14802000Y-9073000D01*
D15*
G04 #@! TO.P,C17,2,2*
X-16927000Y-9723000D03*
D14*
G04 #@! TO.P,C17,1,1*
X-15477000Y-9723000D03*
D11*
G04 #@! TD.P*
G04 #@! TO.C,C51*
G04 #@! TO.CVal,4.7μF*
G04 #@! TO.CFtp,CAPC1005 (0402)*
G04 #@! TO.CRot,270.0*
X8500000Y9925000D03*
D12*
X8750000Y9425000D02*
X8750000Y10425000D01*
X8250000Y10425000D01*
X8250000Y9425000D01*
X8750000Y9425000D01*
D13*
X8900000Y9175000D02*
X8900000Y10675000D01*
X8100000Y10675000D01*
X8100000Y9175000D01*
X8900000Y9175000D01*
D14*
G04 #@! TO.P,C51,1,1*
X8500000Y9525000D03*
D15*
G04 #@! TO.P,C51,2,2*
X8500000Y10325000D03*
D11*
G04 #@! TD.P*
G04 #@! TO.C,C80*
G04 #@! TO.CVal,680μF*
G04 #@! TO.CFtp,AVX_TAJ-E*
G04 #@! TO.CRot,0.0*
X100000Y-11000000D03*
D12*
X3750000Y-8850000D02*
X-3550000Y-8850000D01*
X-3550000Y-13150000D01*
X3750000Y-13150000D01*
X3750000Y-8850000D01*
D13*
X3850000Y-8250000D02*
X-3650000Y-8250000D01*
X-3650000Y-13750000D01*
X3850000Y-13750000D01*
X3850000Y-8250000D01*
D15*
G04 #@! TO.P,C80,2,-*
X-2775000Y-11000000D03*
D14*
G04 #@! TO.P,C80,1,+*
X2975000Y-11000000D03*
D11*
G04 #@! TD.P*
G04 #@! TO.C,C7*
G04 #@! TO.CVal,470nF*
G04 #@! TO.CFtp,CAPC1005 (0402)*
G04 #@! TO.CRot,270.0*
X4499000Y-8072000D03*
D12*
X4749000Y-8572000D02*
X4749000Y-7572000D01*
X4249000Y-7572000D01*
X4249000Y-8572000D01*
X4749000Y-8572000D01*
D13*
X4899000Y-8822000D02*
X4899000Y-7322000D01*
X4099000Y-7322000D01*
X4099000Y-8822000D01*
X4899000Y-8822000D01*
D14*
G04 #@! TO.P,C7,1,1*
X4499000Y-8472000D03*
D15*
G04 #@! TO.P,C7,2,2*
X4499000Y-7672000D03*
D11*
G04 #@! TD.P*
G04 #@! TO.C,C55*
G04 #@! TO.CRot,90.0*
X5499000Y-1875000D03*
D12*
X5249000Y-1375000D02*
X5249000Y-2375000D01*
X5749000Y-2375000D01*
X5749000Y-1375000D01*
X5249000Y-1375000D01*
D13*
X5099000Y-1125000D02*
X5099000Y-2625000D01*
X5899000Y-2625000D01*
X5899000Y-1125000D01*
X5099000Y-1125000D01*
D14*
G04 #@! TO.P,C55,1,1*
X5499000Y-1475000D03*
D15*
G04 #@! TO.P,C55,2,2*
X5499000Y-2275000D03*
D11*
G04 #@! TD.P*
G04 #@! TO.C,C35*
G04 #@! TO.CVal,22μF*
G04 #@! TO.CFtp,CAPC1608 (0603)*
X-18270000Y-10803000D03*
D12*
X-18670000Y-10003000D02*
X-18670000Y-11603000D01*
X-17870000Y-11603000D01*
X-17870000Y-10003000D01*
X-18670000Y-10003000D01*
D13*
X-18920000Y-9403000D02*
X-18920000Y-12203000D01*
X-17620000Y-12203000D01*
X-17620000Y-9403000D01*
X-18920000Y-9403000D01*
D15*
G04 #@! TO.P,C35,2,2*
X-18270000Y-11528000D03*
D14*
G04 #@! TO.P,C35,1,1*
X-18270000Y-10078000D03*
D11*
G04 #@! TD.P*
G04 #@! TO.C,C45*
G04 #@! TO.CVal,4.7μF*
G04 #@! TO.CFtp,CAPC1005 (0402)*
G04 #@! TO.CRot,0.0*
X-2900000Y-3475000D03*
D12*
X-2400000Y-3225000D02*
X-3400000Y-3225000D01*
X-3400000Y-3725000D01*
X-2400000Y-3725000D01*
X-2400000Y-3225000D01*
D13*
X-2150000Y-3075000D02*
X-3650000Y-3075000D01*
X-3650000Y-3875000D01*
X-2150000Y-3875000D01*
X-2150000Y-3075000D01*
D14*
G04 #@! TO.P,C45,1,1*
X-2500000Y-3475000D03*
D15*
G04 #@! TO.P,C45,2,2*
X-3300000Y-3475000D03*
D11*
G04 #@! TD.P*
G04 #@! TO.C,C33*
G04 #@! TO.CVal,6.2pF*
X-5993000Y6771000D03*
D12*
X-5493000Y7021000D02*
X-6493000Y7021000D01*
X-6493000Y6521000D01*
X-5493000Y6521000D01*
X-5493000Y7021000D01*
D13*
X-5243000Y7171000D02*
X-6743000Y7171000D01*
X-6743000Y6371000D01*
X-5243000Y6371000D01*
X-5243000Y7171000D01*
D14*
G04 #@! TO.P,C33,1,1*
X-5593000Y6771000D03*
D15*
G04 #@! TO.P,C33,2,2*
X-6393000Y6771000D03*
D11*
G04 #@! TD.P*
G04 #@! TO.C,C57*
G04 #@! TO.CVal,470nF*
G04 #@! TO.CRot,180.0*
X11901000Y524000D03*
D12*
X11401000Y274000D02*
X12401000Y274000D01*
X12401000Y774000D01*
X11401000Y774000D01*
X11401000Y274000D01*
D13*
X11151000Y124000D02*
X12651000Y124000D01*
X12651000Y924000D01*
X11151000Y924000D01*
X11151000Y124000D01*
D14*
G04 #@! TO.P,C57,1,1*
X11501000Y524000D03*
D15*
G04 #@! TO.P,C57,2,2*
X12301000Y524000D03*
D11*
G04 #@! TD.P*
G04 #@! TO.C,L3*
G04 #@! TO.CVal,2.2μH*
G04 #@! TO.CFtp,INDC2520 (1008)*
G04 #@! TO.CRot,270.0*
X-7500000Y100000D03*
D12*
X-6500000Y-1150000D02*
X-6500000Y1350000D01*
X-8500000Y1350000D01*
X-8500000Y-1150000D01*
X-6500000Y-1150000D01*
D13*
X-6250000Y-1750000D02*
X-6250000Y1950000D01*
X-8750000Y1950000D01*
X-8750000Y-1750000D01*
X-6250000Y-1750000D01*
D15*
G04 #@! TO.P,L3,2,2*
X-7500000Y1225000D03*
D14*
G04 #@! TO.P,L3,1,1*
X-7500000Y-1025000D03*
D11*
G04 #@! TD.P*
G04 #@! TO.C,C61*
G04 #@! TO.CVal,4.7μF*
G04 #@! TO.CFtp,CAPC1005 (0402)*
G04 #@! TO.CRot,180.0*
X1900000Y525000D03*
D12*
X1400000Y275000D02*
X2400000Y275000D01*
X2400000Y775000D01*
X1400000Y775000D01*
X1400000Y275000D01*
D13*
X1150000Y125000D02*
X2650000Y125000D01*
X2650000Y925000D01*
X1150000Y925000D01*
X1150000Y125000D01*
D14*
G04 #@! TO.P,C61,1,1*
X1500000Y525000D03*
D15*
G04 #@! TO.P,C61,2,2*
X2300000Y525000D03*
D11*
G04 #@! TD.P*
G04 #@! TO.C,C103*
G04 #@! TO.CVal,47μF*
G04 #@! TO.CFtp,CAPC2012 (0805)*
X-10400000Y-10600000D03*
D12*
X-11400000Y-11225000D02*
X-9400000Y-11225000D01*
X-9400000Y-9975000D01*
X-11400000Y-9975000D01*
X-11400000Y-11225000D01*
D13*
X-12000000Y-11475000D02*
X-8800000Y-11475000D01*
X-8800000Y-9725000D01*
X-12000000Y-9725000D01*
X-12000000Y-11475000D01*
D14*
G04 #@! TO.P,C103,1,1*
X-11275000Y-10600000D03*
D15*
G04 #@! TO.P,C103,2,2*
X-9525000Y-10600000D03*
D11*
G04 #@! TD.P*
G04 #@! TO.C,R13*
G04 #@! TO.CVal,60.4kΩ*
G04 #@! TO.CFtp,RESC1608 (0603)*
X-14880000Y3735000D03*
D12*
X-15680000Y3335000D02*
X-14080000Y3335000D01*
X-14080000Y4135000D01*
X-15680000Y4135000D01*
X-15680000Y3335000D01*
D13*
X-16280000Y3085000D02*
X-13480000Y3085000D01*
X-13480000Y4385000D01*
X-16280000Y4385000D01*
X-16280000Y3085000D01*
D15*
G04 #@! TO.P,R13,2,2*
X-14105000Y3735000D03*
D14*
G04 #@! TO.P,R13,1,1*
X-15655000Y3735000D03*
D11*
G04 #@! TD.P*
G04 #@! TO.C,C85*
G04 #@! TO.CVal,4.7μF*
G04 #@! TO.CFtp,CAPC1005 (0402)*
G04 #@! TO.CRot,-270.0*
X10500000Y-5700000D03*
D12*
X10250000Y-5200000D02*
X10250000Y-6200000D01*
X10750000Y-6200000D01*
X10750000Y-5200000D01*
X10250000Y-5200000D01*
D13*
X10100000Y-4950000D02*
X10100000Y-6450000D01*
X10900000Y-6450000D01*
X10900000Y-4950000D01*
X10100000Y-4950000D01*
D14*
G04 #@! TO.P,C85,1,1*
X10500000Y-5300000D03*
D15*
G04 #@! TO.P,C85,2,2*
X10500000Y-6100000D03*
D11*
G04 #@! TD.P*
G04 #@! TO.C,C97*
G04 #@! TO.CVal,470nF*
G04 #@! TO.CRot,90.0*
X-2500000Y600000D03*
D12*
X-2750000Y1100000D02*
X-2750000Y100000D01*
X-2250000Y100000D01*
X-2250000Y1100000D01*
X-2750000Y1100000D01*
D13*
X-2900000Y1350000D02*
X-2900000Y-150000D01*
X-2100000Y-150000D01*
X-2100000Y1350000D01*
X-2900000Y1350000D01*
D14*
G04 #@! TO.P,C97,1,1*
X-2500000Y1000000D03*
D15*
G04 #@! TO.P,C97,2,2*
X-2500000Y200000D03*
D11*
G04 #@! TD.P*
G04 #@! TO.C,T3*
G04 #@! TO.CVal,FDV301N*
G04 #@! TO.CFtp,SOT-23*
G04 #@! TO.CRot,0.0*
X-21236000Y417028D03*
D12*
X-22686000Y1067028D02*
X-22686000Y-232972D01*
X-19786000Y-232972D01*
X-19786000Y1067028D01*
X-22686000Y1067028D01*
D13*
X-22886000Y2067028D02*
X-22886000Y-1232972D01*
X-19586000Y-1232972D01*
X-19586000Y2067028D01*
X-22886000Y2067028D01*
D15*
G04 #@! TO.P,T3,3,D*
X-21236000Y1392028D03*
G04 #@! TO.P,T3,2,S*
X-22186000Y-557972D03*
D14*
G04 #@! TO.P,T3,1,G*
X-20286000Y-557972D03*
D11*
G04 #@! TD.P*
G04 #@! TO.C,C48*
G04 #@! TO.CVal,470nF*
G04 #@! TO.CFtp,CAPC1005 (0402)*
X7097000Y-7472000D03*
D12*
X7597000Y-7222000D02*
X6597000Y-7222000D01*
X6597000Y-7722000D01*
X7597000Y-7722000D01*
X7597000Y-7222000D01*
D13*
X7847000Y-7072000D02*
X6347000Y-7072000D01*
X6347000Y-7872000D01*
X7847000Y-7872000D01*
X7847000Y-7072000D01*
D14*
G04 #@! TO.P,C48,1,1*
X7497000Y-7472000D03*
D15*
G04 #@! TO.P,C48,2,2*
X6697000Y-7472000D03*
D11*
G04 #@! TD.P*
G04 #@! TO.C,C83*
G04 #@! TO.CVal,4.7μF*
G04 #@! TO.CRot,-270.0*
X12300000Y-5700000D03*
D12*
X12050000Y-5200000D02*
X12050000Y-6200000D01*
X12550000Y-6200000D01*
X12550000Y-5200000D01*
X12050000Y-5200000D01*
D13*
X11900000Y-4950000D02*
X11900000Y-6450000D01*
X12700000Y-6450000D01*
X12700000Y-4950000D01*
X11900000Y-4950000D01*
D14*
G04 #@! TO.P,C83,1,1*
X12300000Y-5300000D03*
D15*
G04 #@! TO.P,C83,2,2*
X12300000Y-6100000D03*
D11*
G04 #@! TD.P*
G04 #@! TO.C,C89*
G04 #@! TO.CVal,470nF*
G04 #@! TO.CRot,90.0*
X10500000Y-7300000D03*
D12*
X10250000Y-6800000D02*
X10250000Y-7800000D01*
X10750000Y-7800000D01*
X10750000Y-6800000D01*
X10250000Y-6800000D01*
D13*
X10100000Y-6550000D02*
X10100000Y-8050000D01*
X10900000Y-8050000D01*
X10900000Y-6550000D01*
X10100000Y-6550000D01*
D14*
G04 #@! TO.P,C89,1,1*
X10500000Y-6900000D03*
D15*
G04 #@! TO.P,C89,2,2*
X10500000Y-7700000D03*
D11*
G04 #@! TD.P*
G04 #@! TO.C,C67*
G04 #@! TO.CVal,4.7μF*
G04 #@! TO.CRot,180.0*
X4889000Y11524000D03*
D12*
X4389000Y11274000D02*
X5389000Y11274000D01*
X5389000Y11774000D01*
X4389000Y11774000D01*
X4389000Y11274000D01*
D13*
X4139000Y11124000D02*
X5639000Y11124000D01*
X5639000Y11924000D01*
X4139000Y11924000D01*
X4139000Y11124000D01*
D14*
G04 #@! TO.P,C67,1,1*
X4489000Y11524000D03*
D15*
G04 #@! TO.P,C67,2,2*
X5289000Y11524000D03*
D11*
G04 #@! TD.P*
G04 #@! TO.C,C73*
G04 #@! TO.CVal,100μF*
G04 #@! TO.CFtp,CAPC2012 (0805)*
X3026000Y3013000D03*
D12*
X2026000Y2388000D02*
X4026000Y2388000D01*
X4026000Y3638000D01*
X2026000Y3638000D01*
X2026000Y2388000D01*
D13*
X1426000Y2138000D02*
X4626000Y2138000D01*
X4626000Y3888000D01*
X1426000Y3888000D01*
X1426000Y2138000D01*
D14*
G04 #@! TO.P,C73,1,1*
X2151000Y3013000D03*
D15*
G04 #@! TO.P,C73,2,2*
X3901000Y3013000D03*
D11*
G04 #@! TD.P*
G04 #@! TO.C,C26*
G04 #@! TO.CVal,100nF*
G04 #@! TO.CFtp,CAPC1608 (0603)*
G04 #@! TO.CRot,90.0*
X-2700000Y11500000D03*
D12*
X-3100000Y12300000D02*
X-3100000Y10700000D01*
X-2300000Y10700000D01*
X-2300000Y12300000D01*
X-3100000Y12300000D01*
D13*
X-3350000Y12900000D02*
X-3350000Y10100000D01*
X-2050000Y10100000D01*
X-2050000Y12900000D01*
X-3350000Y12900000D01*
D15*
G04 #@! TO.P,C26,2,2*
X-2700000Y10775000D03*
D14*
G04 #@! TO.P,C26,1,1*
X-2700000Y12225000D03*
D11*
G04 #@! TD.P*
G04 #@! TO.C,C101*
G04 #@! TO.CVal,4.7μF*
G04 #@! TO.CFtp,CAPC1005 (0402)*
X-5000000Y14300000D03*
D12*
X-5250000Y14800000D02*
X-5250000Y13800000D01*
X-4750000Y13800000D01*
X-4750000Y14800000D01*
X-5250000Y14800000D01*
D13*
X-5400000Y15050000D02*
X-5400000Y13550000D01*
X-4600000Y13550000D01*
X-4600000Y15050000D01*
X-5400000Y15050000D01*
D14*
G04 #@! TO.P,C101,1,1*
X-5000000Y14700000D03*
D15*
G04 #@! TO.P,C101,2,2*
X-5000000Y13900000D03*
D11*
G04 #@! TD.P*
G04 #@! TO.C,C10*
G04 #@! TO.CVal,18pF*
G04 #@! TO.CFtp,CAPC1608 (0603)*
G04 #@! TO.CRot,0.0*
X-17600000Y800000D03*
D12*
X-16800000Y1200000D02*
X-18400000Y1200000D01*
X-18400000Y400000D01*
X-16800000Y400000D01*
X-16800000Y1200000D01*
D13*
X-16200000Y1450000D02*
X-19000000Y1450000D01*
X-19000000Y150000D01*
X-16200000Y150000D01*
X-16200000Y1450000D01*
D15*
G04 #@! TO.P,C10,2,2*
X-18325000Y800000D03*
D14*
G04 #@! TO.P,C10,1,1*
X-16875000Y800000D03*
D11*
G04 #@! TD.P*
G04 #@! TO.C,R9*
G04 #@! TO.CVal,32.4kΩ*
G04 #@! TO.CFtp,RESC1608 (0603)*
G04 #@! TO.CRot,270.0*
X-16900000Y-1722000D03*
D12*
X-16500000Y-2522000D02*
X-16500000Y-922000D01*
X-17300000Y-922000D01*
X-17300000Y-2522000D01*
X-16500000Y-2522000D01*
D13*
X-16250000Y-3122000D02*
X-16250000Y-322000D01*
X-17550000Y-322000D01*
X-17550000Y-3122000D01*
X-16250000Y-3122000D01*
D15*
G04 #@! TO.P,R9,2,2*
X-16900000Y-947000D03*
D14*
G04 #@! TO.P,R9,1,1*
X-16900000Y-2497000D03*
D11*
G04 #@! TD.P*
G04 #@! TO.C,C42*
G04 #@! TO.CVal,470nF*
G04 #@! TO.CFtp,CAPC1005 (0402)*
G04 #@! TO.CRot,90.0*
X-1500000Y-2076000D03*
D12*
X-1750000Y-1576000D02*
X-1750000Y-2576000D01*
X-1250000Y-2576000D01*
X-1250000Y-1576000D01*
X-1750000Y-1576000D01*
D13*
X-1900000Y-1326000D02*
X-1900000Y-2826000D01*
X-1100000Y-2826000D01*
X-1100000Y-1326000D01*
X-1900000Y-1326000D01*
D14*
G04 #@! TO.P,C42,1,1*
X-1500000Y-1676000D03*
D15*
G04 #@! TO.P,C42,2,2*
X-1500000Y-2476000D03*
D11*
G04 #@! TD.P*
G04 #@! TO.C,C74*
G04 #@! TO.CRot,0.0*
X-900000Y524000D03*
D12*
X-400000Y774000D02*
X-1400000Y774000D01*
X-1400000Y274000D01*
X-400000Y274000D01*
X-400000Y774000D01*
D13*
X-150000Y924000D02*
X-1650000Y924000D01*
X-1650000Y124000D01*
X-150000Y124000D01*
X-150000Y924000D01*
D14*
G04 #@! TO.P,C74,1,1*
X-500000Y524000D03*
D15*
G04 #@! TO.P,C74,2,2*
X-1300000Y524000D03*
G04 --- BOARD END --- *
G04 #@! TF.MD5,2b05e70c1c5aa3d0fd8b58ec1bfd2f54*
M02*
